<?xml version="1.0" encoding="utf-8"?>
<!-- Generator: Adobe Illustrator 23.0.2, SVG Export Plug-In . SVG Version: 6.00 Build 0)  -->
<svg version="1.1" id="Layer_1" xmlns="http://www.w3.org/2000/svg" xmlns:xlink="http://www.w3.org/1999/xlink" x="0px" y="0px"
	 viewBox="0 0 481.6 935.5" style="enable-background:new 0 0 481.6 935.5;" xml:space="preserve">
<style type="text/css">
	.st0{fill:#78863F;}
</style>
<g>
	<path class="st0" d="M89,650.3c-1.3,1.3-1.9,2.1-2.7,2.8c-1.6,1.5-3.1,2.9-4.8,4.3c-1.3,1-2.9,1.4-4.5,1.3c-2.2-0.1-3.9-0.9-4.8-3
		c-0.3-0.6-0.5-1.2-0.8-1.9c-1,0.2-1.9,0.3-2.8,0.5c-2.6,0.5-5.1,0.1-7.5-0.8c-4.7-1.8-7.4-7-6.9-10.3c0.3-1.9,0-3.7-0.5-5.5
		c-0.7-2.4-0.2-4.1,1.4-7.6c-0.3-1.8-0.7-3.5-0.8-5.2c-0.4-3.4,0.8-6.3,2.6-9c1.3-1.8,3.3-2,4.8-0.4c0.8,0.9,1.2,2,1.7,3.1
		s0.7,2.3,1.3,3.4c0.5,1.1,1.8,1.2,2.8,0.4s1.6-1.8,1.8-3c0.3-2,0.5-4,0.8-6c0.5-3,0.8-6.1,1.5-9.1c0.8-3.3,2.4-6.2,4.5-8.9
		c0.6-0.7,1.1-1.5,1.8-2.5c-5-0.9-6.3-4.3-6.9-8.5c-0.3-2.1-0.6-4.2-1-6.3c-0.8-5.7,0.3-10.7,5.5-14c-2.7-7-3.6-14.4-5.5-21.5
		c-1.2-4.7-2-9.4-3.1-14.1c-0.7-3.3-1.1-6.6-1.1-10c0-4.2,0.1-8.3-0.1-12.5c-0.4-8,1-15.8,2.9-23.4c1.9-7.7,4.3-15.2,6.2-22.8
		c2.3-8.8,4.5-17.6,6.5-26.5c1.1-4.8,1.4-9.8,2.2-14.7c1.2-7.3,2.3-14.5,4-21.7c2.1-8.9,4.7-17.6,8.4-25.9
		c4.3-9.5,7.4-19.5,9.8-29.7c1.4-5.9,3.2-11.6,5.6-17.2c0.9-2.1,2.1-4,3.3-6c3.1-5.3,7.9-8.2,13.8-9.4c0.9-0.2,1.8-0.5,2.7-0.7
		c0.1-1.5,0.2-2.8,0.3-4.1c0.3-3.3,1.9-5.5,5.3-6.2c2.1-0.4,4.2-1,6.3-1.1c6.3-0.3,12.6-0.4,18.8,0.5c1,0.1,2.1,0.1,3.4,0.2
		c-0.5-1.4-0.8-2.5-1.3-3.9c0.7-0.6,1.4-1.5,2.2-2c1.7-1.1,3.4-2.1,5.3-2.9c4.1-2,8.2-4,12.3-5.8c4.4-2,9.1-3.2,14-3.1
		c0.4,0,0.8-0.1,1.2-0.1c0.1,0,0.2-0.2,0.6-0.5c0.4-1.8,0.3-4,0.3-6.3c-1.1-0.6-2.2-1.3-3.4-1.9c-13-7-24.3-16.1-33.8-27.5
		c-3.6-4.3-7-8.8-9.6-13.8c-0.3-0.6-0.7-1.1-1.2-1.7c-4.2,3.6-8.8,3.8-13.7,2.2c-2.2-0.7-4.1-2-5.6-3.8c-1.3-1.5-2.5-3.1-3.8-4.7
		c-0.5-0.6-1-1.2-1.4-1.8c-4.6,2.6-5.8,2.7-10.7,1c-3.9-1.3-7.2-3.6-10.1-6.4c-2.2-2.1-4.3-4.5-6-7c-6.2-9.1-10.3-18.9-12-29.9
		c-1.1-7.6-1.9-15.1-2.4-22.8c-0.3-4.1-0.5-8.3-0.8-12.4c0-0.5-0.2-1-0.4-1.7c-0.8-0.1-1.6-0.3-2.3-0.4c-3.4-0.4-6-2.1-7.9-4.9
		c-2.1-3.1-3-6.6-3.7-10.1c-0.7-3.7-0.3-7.4,0.5-11.1c3.1-14.4,10.6-26.2,20.8-36.5c4.6-4.7,10-8.5,15.5-12
		c7.4-4.8,15-9.4,23.3-12.6c1.6-0.6,3.3-1.1,5.1-1.8c-0.4-0.4-0.8-0.9-1.2-1.2c-5.1-2.4-10.6-3.7-16.1-4.8c-3.4-0.7-6.8-1.4-9.9-3
		c-1.3-0.7-2.6-1.4-3.7-2.3c-2.6-2.3-2.4-5.5,0.5-7.4c1.1-0.7,2.4-1.2,3.6-1.6c4.5-1.4,9-0.9,13.4,0.5c6.5,2.1,12.3,5.2,16.7,10.6
		c0.2,0.2,0.4,0.3,0.7,0.5c1.1-0.4,0.7-1.3,0.7-2c0.1-5.5,0.9-10.9,2.7-16.2c2.9-8.6,7.6-15.9,15.1-21.2c1.5-1.1,3.2-2,5-2.5
		c4.4-1.3,7.7,1.2,8,5.8c0.2,3.3-0.6,6.4-2.2,9.3c-1.7,3-3.5,6-5.5,8.9c-4.8,6.9-9.8,13.7-14.7,20.6c-1.5,2.1-2.7,4.3-4.1,6.4
		c0.9,0.8,1.3,0.1,1.8-0.3c14-12.2,29.3-22,45.9-29.7c9.2-4.2,18.8-7,28.6-9.2c7.4-1.7,14.9-3.2,22.4-4.4c7.8-1.3,15.7-2.4,23.6-1.9
		c9.8,0.5,19.4,2,28.4,6.2c3.7,1.7,7.1,3.8,10,6.7c4.7,4.5,6.1,10.7,2.4,16.8c-0.5,0.8-0.9,1.6-1.4,2.5c0.8,1.1,2,0.7,2.9,0.7
		c6-0.1,11.7,1.1,17.2,3.3c6.1,2.4,11.3,6.2,15.3,11.4c1.6,2.2,2.9,4.5,3.6,7.1c1.2,4.4,0,7.4-3.9,10c-0.3,0.2-0.7,0.5-1.1,0.8
		c0.7,1.3,2,1.7,3.1,2.4c6.3,4.1,12.4,8.4,17.9,13.5c10.9,10,17.7,22.3,21.2,36.6c1.4,6,2.3,12.1,2.1,18.3
		c-0.2,3.9-0.6,7.7-2.1,11.4c-3,7.3-8.3,11.2-16.2,11.6c-6.3,0.3-12.2-1.1-17.9-3.7c-7.8-3.5-14.5-8.5-20.3-14.8
		c-0.7-0.8-1.4-1.6-2.2-2.4c-0.2-0.2-0.4-0.3-0.7-0.4c-0.1,0-0.3,0-0.4,0c-0.1,0.1-0.2,0.2-0.2,0.3c-0.9,3.5-1.8,7-2.7,10.5
		c-0.7,2.4-1.5,4.9-2.2,7.3c-1.4,5.6-2.8,11.1-4.2,16.9c0.9,0.3,1.7,0.7,2.6,0.9c2.3,0.6,4.1,1.8,5.9,3.3c3.7,3.2,4.5,7.2,3.3,11.6
		c-2.3,8.5-10.1,14.4-19,14.5c-0.4,0-0.8,0.1-1.3,0.3c-0.3,2.5-0.7,5-0.9,7.5c-0.8,7.2-2.5,14.3-5.3,21c-2.3,5.5-5.6,10.3-9.8,14.6
		c-11.8,12.1-26.1,19.8-42,25c-2.8,0.9-5.7,1.5-8.5,2.3c-1.3,0.3-2.6,0.6-3.9,1c-0.2,3.1-0.1,6,0.4,9.1c2.8,0.4,5.6,0.7,8.3,1.1
		c5.8,0.7,11.3,2.1,16.5,4.6c1.8,0.9,3.6,1.7,5.4,2.6c0.9,0.5,1.7,1.2,2.6,1.9c-1.7,3-5.1,4.4-6.2,7.8c0.6,0.2,1.2,0.5,1.8,0.6
		c5.1,0.6,9.9,2.1,14.8,3.5c2.5,0.7,4.6,2,6.3,4.1c1.4,1.7,2.1,3.5,1.4,5.6c-0.8,2.7-1.7,5.3-2.7,8c-0.3,0.9-0.8,1.7-1.3,2.6
		c4,6.9,6.1,14.5,7.9,22.2c1.3,5.5,1.8,11.1,1.4,16.8c-0.6,7.1-1.3,14.1-1.9,21.2c-1,10.7-2.1,21.3-2.7,32
		c-0.8,14.3,1.2,28.3,4.9,42.1c2.4,8.9,5,17.8,8.3,26.4c2.7,7.2,4.5,14.6,5.7,22.1c1,6.3,0.8,12.5,0.1,18.8
		c-0.4,3.7-0.9,7.4-1.3,11.2c-0.1,0.9-0.1,2-0.6,2.7c-1.4,2.4-1.2,4.9-0.8,7.4c0.5,3.2,1,6.3,1.4,9.5c0.3,2.1,0.3,4.3,0.5,6.4
		c0.2,2.6-0.7,4.7-3,6.1c-0.7,0.4-1.3,0.9-1.9,1.4c0.1,0.4,0.1,0.7,0.3,0.8c5.8,4.7,8.6,11.1,10.4,18.2c0.3,1,0.5,2.1,0.7,3.1
		c1.1,6,4,11,8.1,15.4c1.7,1.8,3.2,4,4.7,6c0.4,0.5,0.7,1.1,1,1.8c0.6,1.3,0.4,2.3-0.6,3.3c-0.7,0.6-1.5,1-2.4,1.6
		c0.2,0.8,0.6,1.7,0.7,2.6c0.3,2.4-0.6,3.8-3,4.5c-0.8,0.2-1.6,0.2-2.4,0.3c-1.5,3.2-2.9,4.1-6.2,3c-2.4-0.8-4.7-2-6.9-3.2
		c-1.5-0.8-2.9-1.8-4.3-2.7c-1,0.6-0.5,1.2-0.4,1.8c0.2,0.8,0.4,1.5,0.5,2.3c0.2,1.4-0.2,2.7-1.5,3.5c-1.1,0.7-2.3,0.4-3.4-0.3
		c-0.9-0.6-1.8-1.2-2.6-1.8c-2.9-2.4-5.4-5.2-7.1-8.6c-2.6-5.3-5.2-10.6-7.7-15.9c-3-6.2-5.2-12.6-7.2-19.2
		c-1.5-4.8-3.2-9.7-4.9-14.4c-0.9-2.3-2.3-4.5-3.2-6.5c-1.7-0.8-3-0.3-4.3-0.1c-1.1,0.1-2.3,0-3.7,0c0.1,0.9,0.2,2,0.5,3
		c2,7.8,3.9,15.6,5.1,23.5c0.8,5,2.8,9.4,5.3,13.8c4.3,7.3,8.4,14.6,12.4,22c1.6,3,2.8,6.4,3.8,9.7c0.8,2.7,1.9,5.2,3.5,7.6
		c5.1,7.9,10.2,15.7,15.1,23.7c6.8,11.2,13.6,22.5,20.2,33.8c5.3,8.9,9.2,18.4,11.9,28.4c1,3.6,2.2,7.2,3.4,10.7
		c1.2,3.3,3,6.2,5.5,8.8c5.3,5.3,9.6,11.5,14.3,17.3c2.1,2.6,3.6,5.6,3.6,9.2c0,1.3,0.3,2.7,0.5,4c0.6,3.7,1.6,7.3,3.8,10.5
		c4.4,6.3,7.7,13.2,10.6,20.3c1.2,2.8,2.5,5.6,3.6,8.5c0.9,2.5,1.5,5.1,2.3,7.7c0.6,1.8,0.9,3.7,1.9,5.2c3.1,4.9,5.7,10,6.7,15.8
		c0,0.3,0.2,0.5,0.5,0.9c0.8,0.1,1.7,0.2,2.6,0.2c14.3,0.4,28.7,0.8,43,1c10.2,0.2,20.4,0.2,30.5,0.2c4,0,8,0,12.1,0
		c0.9,0,1.9,0,2.1,1.6c-3.5,0.2-6.9,0.5-10.4,0.6c-17.8,0.7-35.6,0.1-53.4-0.4c-8.6-0.3-17.1-0.5-25.9-0.7c-0.1,0.7-0.4,1.3-0.3,1.9
		c0.5,3.8-0.2,7.5-2,11.1c0.5,0.7,0.8,1.6,1.4,2.3c5.6,6.2,6.5,13.6,5.8,21.4c-0.3,3.4-2,6.3-4.3,8.9c-2.1,2.4-4.8,3.4-7.9,3
		c-1.2-0.2-2.3-0.4-3.8-0.7c-0.1,1.1-0.2,2-0.1,2.9c0.3,3.1,0.8,6.1,1.1,9.2c0.1,0.9,0.2,1.9,0.1,2.8c-0.2,1.8-1.2,2.9-3,3.3
		c-0.8,0.2-1.7,0.4-2.4,0.2c-3.3-1.1-6.6,0.7-9.9-0.3c-0.6-0.2-1.3-0.2-1.9-0.5c-2.1-0.8-4.1-1-6,0.8c-1.2,1.1-2.8,0.8-4.1-0.2
		c-1-0.7-1.9-1.5-2.9-2.2c-0.6-0.4-1.4-0.7-2.2-1.2c-0.9,0.9-1.8,1.7-2.6,2.7c-1.5,1.8-3.4,2.5-5.7,1.9c-1.7-0.5-3.3-0.9-5-1.5
		c-1-0.3-2-0.7-3.1-1.1c-1.6,0.9-3.1,1.8-4.5,2.7c-1.8,1.1-3.6,1.2-5.2-0.2c-2.6-2.2-5.3-2.9-8.4-1.3c-0.6,0.3-1.3,0.3-2,0.3
		c-1.6,0-2.8-1.1-3.1-2.7c-0.1-0.5-0.1-1.1-0.1-1.6c-0.1-4.2-0.1-8.3-0.2-12.4c0-1.1-0.2-2.3-1.1-3.5c-0.8,0.9-1.5,1.6-2.2,2.4
		c-2.3,2.4-5.5,2.8-8.4,1c-6.2-3.8-7.8-10-4.6-15.9c2.2-4,3.8-7.9,4-12.5c0.2-4,1.9-7.4,4.1-10.7s4.1-6.9,6-10.4
		c1.2-2.3,1.2-2.8,1.1-5.5c-2.7-0.7-5.3,0.4-7.9,0.4c-2.5,0-5.1,0.3-7.6,0.4c-2.6,0.1-5.3,0-8,0c0.2-0.4,0.3-0.8,0.4-0.8
		c7.5-0.6,14.9-1.2,22.3-1.7c1-1.5,0.6-2.8,0.1-4.1c-1.7-4.5-3.2-9.1-5.2-13.5c-2.6-5.8-5.4-11.3-8.2-17c-0.6-1.2-1.3-2.3-2.4-3.1
		c-7.9-6-13-14.1-17-23c-4.1-9.1-6.5-18.7-8.5-28.4c-1.4-6.6-3.2-13-5.3-19.3c-0.5-1.5-1.2-3-2.4-4.1c-0.9-0.9-1.8-2-2.8-2.9
		c-7-6.4-12.3-14.1-16.5-22.5c-1.1-2.3-2.4-4.5-3.5-6.8c-4.1-8.5-9.9-15.9-15.2-23.6c-5.8-8.3-11.2-16.7-14.8-26.2
		c-2.4-6.4-4.2-13-6.1-19.5c-1.3-4.5-2.3-9.1-3.3-13.7c-0.8-3.2-2.2-6-4.1-8.6c-0.4-0.6-1.1-1-2-1.8c-0.6,2.3-0.9,4.3-1.2,6.2
		c-0.8,5-1.5,10-2.3,15.1c-0.8,4.9-2.3,9.6-4.5,14.1c-1.9,3.8-3.6,7.8-5.5,11.6c-0.8,1.7-0.9,3.3-0.7,5.1c0.9,6.3,0.4,12.6,0,18.8
		c-0.4,6.5-2.9,12.2-6.7,17.4c-2.5,3.4-4.4,7-6.1,10.8c-1.1,2.5-1.7,5-1.9,7.7c-0.3,5.2-0.8,10.4-1.1,15.6c-0.3,5-1.4,9.8-2.4,14.6
		c-0.9,4.3-1.9,8.6-3,12.9c-1.8,7-4.6,13.7-8.2,20c-1.4,2.6-2.7,5.2-4.1,7.8c-1.9,3.9-3.3,7.9-3.6,12.2c-0.2,2.5-0.4,5.1-0.7,7.6
		c-0.1,1.1,0.1,2.1,0.7,3.1c3.9,6.9,4.8,14.4,4,22.2c-0.1,0.9-0.2,1.9-0.1,2.8c0.1,1.8,0.8,3.3,2.2,4.5s2.8,2.5,4.2,3.8
		c2,2,3.9,4,6.3,6.5c2.3,0.3,5.2,0.5,8.2,0.4c7.4-0.3,14.7-0.7,22.1-1.1c4.8-0.3,9.6-0.6,14.4-0.7c19.7-0.5,39.4-1,59.1-1.5
		c1.6,0,3.2-0.2,5.1,0.7c-0.9,0.3-1.3,0.5-1.8,0.6c-2.3,0.2-4.5,0.5-6.8,0.6c-12.6,0.5-25.2,1-37.7,1.4c-10.6,0.4-21.1,0.8-31.7,1.3
		c-9.5,0.4-19,1-28.5,0.5c-0.5,0-1,0.1-1.6,0.2c0.1,1.7,1.1,2.5,2,3.5c1.5,1.5,3.1,3,4.6,4.5c1,1.1,1.9,2.2,2.9,3.3
		c1.8,2.1,2.3,4.5,1.8,7.2c-0.6,3.2-1.8,5.9-5.8,6.6c0.5,1.8,0.8,3.5,1.4,5c1.3,3.3,2.7,6.7,4.3,9.9c1.3,2.6,1.4,5.4,1.4,8.2
		c0,1.5-0.8,3-2.3,3.5c-3.1,1.2-5.8,3.4-9.4,3.5c-1.3,2.7-3.7,3.3-6.2,3.9c-1.3,0.3-2.6,0.7-3.7,1.4c-1.6,1-3.1,1.4-4.9,0.7
		c-0.7-0.3-1.6-0.2-2.3-0.3c-1.4,0.9-1.3,2.4-1.5,3.6c-0.5,2.2-1,2.8-3.2,2.8c-2.3,0-4.2,0.3-5.5,2.6c-0.5,1-1.6,1-2.5,0.8
		c-1.2-0.3-2.3-0.7-3.4-1.1c-1.4-0.5-2.8-1-4.3-1.5c-0.7,0.6-1.4,1.1-2,1.8c-1.5,1.7-3.3,2.2-5.4,1.3c-0.5-0.2-1-0.3-1.6-0.5
		c-0.6,1-1.1,1.9-1.7,2.8c-1.2,1.8-3.1,1.7-4.2,0c-0.2-0.2-0.3-0.4-0.4-0.7c-1.2-3.5-2.3-7.1-3.5-10.7c-0.3-0.9-0.4-1.9-1-2.6
		c-2.9-4-4-8.7-4.7-13.5c-0.1-0.9-0.3-1.7-0.4-2.6c-1.1,0-0.9,0.7-1,1.1c-0.8,3.1-1.6,6.2-3.6,8.8c-1.6,2.1-3.7,3.5-6.4,3.7
		c-3.3,0.3-5.8-1-7.4-3.8c-2-3.4-3-7.1-2.8-11.1c0-0.4,0-0.8,0.1-1.2c1.3-3.5,0.1-6.5-1.5-9.6c-0.8-1.5-1.6-3.1-2.4-4.6
		c-0.6-1.1-1.2-2.1-1.7-3.2c-3.1-5.6-2.7-11.3-0.6-17.1c0.4-1.1,1.2-2.1,1.8-3.1c0.5-0.9,1.5-1.5,1.6-2.8c-12,0-23.9,0-35.7,0.1
		c-11.7,0-23.3-1.1-35.2-2.2c0.8-1.5,1.7-1.2,2.4-1.2c4.7,0,9.4,0.1,14.1,0.2c6.2,0.2,12.3,0.5,18.5,0.6c12.2,0.2,24.4,0.3,36.6,0.4
		c0.7,0,1.3,0,2.1,0c0.8-1,1.5-1.9,2.2-2.8c-0.4-1.2-1.5-1.1-2.3-1.4c-3.2-1.4-4.7-3.9-4.4-7.3c0.2-1.9,0.5-3.7,0.8-5.5
		c0.6-3,1.3-6,1.8-9c1-5.2,0.7-10.4-0.1-15.6c-0.4-3.2-0.6-6.4-0.5-9.6c0-1.7-0.3-3.1-1.1-4.5c-1.5-2.4-2.6-5-3.1-7.8
		c-1.5-7.9,0-15.2,3.9-22c1-1.9,2.8-3.5,3.2-5.5c0.4-2-0.4-4.2-0.8-6.3c-0.9-4.6-0.1-9.1,1.6-13.4c1.5-3.7,3.3-7.3,5-11
		c2.6-5.5,4.9-11,6.5-16.8c0.6-2.3,1-4.7,1.1-7.1c0.4-7.9-0.2-15.8-0.6-23.7c-0.1-1.1-0.2-2.2-0.6-3.1c-3.3-8-2.3-16,0-24
		c0.7-2.6,1.6-5.1,2.4-7.7C88.7,652.3,88.8,651.7,89,650.3z M216.1,465.4c0.1,0.2,0.2,0.4,0.2,0.6
		C216.2,465.8,216.1,465.6,216.1,465.4c-0.1-0.7-0.1-1.5-0.1-2.3c-0.2-3.2-0.6-6.4-0.5-9.6c0.2-6.3,1-12.5,2.6-18.6
		c2.1-8.4,4.8-16.7,8.1-24.8c1.4-3.5,2.4-7.1,2.8-10.8c0.2-1.6,0.4-3.2,0.6-4.8c0.6-3.6,1.3-7.1,2.9-10.4c2.7-5.5,4.8-11.3,6.7-17.2
		c1.7-5.3,2-10.5,0.6-15.8c-1.4-5.2-2.8-10.5-8.3-12.8c-2.7,0.3-5.3,0.6-8,0.9c0,0.1-0.2,0.3-0.2,0.6c0,1.1,0,2.1-0.1,3.2
		c-0.1,11.1,0,22.2-3,33.1c-0.1,0.4-0.2,0.8-0.2,1.2c-0.5,3.3-1.3,6.5-2.7,9.6c-3.4,7.6-5.9,15.5-7.3,23.7c-0.9,5-1.3,10.1-2.9,15
		c-0.1,0.4-0.1,0.8-0.1,1.2c-0.3,7-0.3,13.9,1.4,20.7c1.5,5.8,3.4,11.5,6.3,16.8C215.1,464.7,215.1,465.6,216.1,465.4z M110.9,101
		L110.9,101c-2.7,9.1-6.2,17.9-11,26.2c-3.1,5.4-6.7,10.3-12.7,13c0,1.2-0.1,2.3,0,3.3c1,10.1,1.5,20.3,3,30.4
		c1,6.8,2.4,13.4,5.1,19.7c2.7,6.2,5.7,12.1,10.4,17.1c3.8,4,8.1,7.4,13.7,8.8c1.3,0.3,2.7,0.5,4,0.3c1.8-0.2,2.8-1.8,2.5-3.5
		c-0.2-0.8-0.5-1.5-0.7-2.3c-0.9-3.1-1.8-6.2-2.7-9.3c-0.6-2.2-1-4.4-1.3-7.3c0.8,1,1.2,1.3,1.4,1.8c0.9,2.2,1.8,4.5,2.6,6.7
		c1.1,2.9,2,5.8,3.1,8.7c1.6,4.2,4.2,7.8,7.6,10.7c3.1,2.8,6.9,3.5,10.9,2.4c3.3-0.9,4.4-3.8,5.2-6.7c2.4-8.8,3.6-17.9,3.1-27
		c-0.3-5.3-0.9-10.7-1.5-16c-1.3-10.8-2.9-21.5-4.3-32.2c-0.3-2.4-0.9-4.3-2.9-5.8c-2.3-1.8-4.2-4.1-5.6-6.8
		c-0.3-0.5-0.3-1.2-0.4-1.8c1.4,0.7,2.2,1.8,3.2,2.6c2,1.8,3.9,3.7,6.1,5.2c4,2.8,6.5,1.7,7.3-3.1c0-0.1,0-0.3,0.1-0.4
		c0.7-6.7-0.8-12.9-5-18.1c-5.5-6.7-9.6-14.2-12.9-22.1c-1.2-2.9-2.3-5.9-2.4-9.2c0.7,0.9,1.3,2,1.8,3c2.3,4.5,4.5,9.1,6.9,13.6
		c2.7,5.1,6.2,9.7,10.1,14c1.7,1.9,3.7,3.4,6.3,4.1c4.3,1.2,7.8-0.2,9.7-4.1c1.1-2.2,1.7-4.5,2-6.9c0.7-6,0-11.8-2.1-17.4
		c-3.5-9.5-8.5-18.1-15.2-25.8c-0.7-0.8-1.7-1.3-1.9-2.4c0.7-1.1,1.4-0.7,2.1-0.2c3,2.3,5.3,5.3,7.4,8.4c4.1,6.2,9.8,10.6,15.7,14.7
		c3.4,2.4,7.1,4.3,10.7,6.4c6.9,4.2,14.4,7.1,22.3,9c3.4,0.8,6.9,0.9,10.3,0c5.9-1.7,7.6-7.7,3.5-12.3c-0.8-0.9-1.8-1.6-2.7-2.4
		c-3.4-3-6.8-6.1-10.1-9.1c-0.4-0.4-1-0.7-0.7-1.8c1,0.8,1.8,1.4,2.6,2.1c4.3,3.2,8.4,6.6,12.8,9.7c19,13.2,39.8,21.9,62.6,25.7
		c4.1,0.7,8.2,1.4,12.4,0.8c4.1-0.6,8.2-1.2,12.2-2.2c3.7-0.9,7.1-2.4,10.2-4.6c4.4-3.2,5.4-6.9,2.9-11.9c-1.3-2.7-3.3-4.9-5.6-6.7
		c-6.2-4.9-13.1-8.3-20.7-10.2c-3.8-1-7.6-1.3-11.5-1.6c-0.6,0-1.4,0-1.5-0.9c0.1-0.2,0.1-0.4,0.1-0.4c0.6-0.2,1.3-0.4,1.9-0.5
		c5.4-0.4,10.7,0.6,15.8,2.3c7.6,2.5,14.5,6.2,20.3,11.8c2.1,2,3.6,4.3,4.6,7c1.5,4,0.9,7.6-1.9,10.9c-0.8,0.9-1.7,1.7-2.6,2.4
		c-3.9,3-8.4,4.6-13.1,5.9c-0.7,0.2-1.5,0.5-2.3,0.8c0,0.6,0,1.2,0,1.7c0,5.1,0.3,10.2-0.1,15.2c-0.3,5.9-1.2,11.7-1.8,17.6
		c-0.9,8.4-1.8,16.8-2.7,25.1c-0.7,6.1-0.7,12.3-0.2,18.4c0.1,0.8,0.3,1.5,0.6,3c0.6-1.4,0.9-2.1,1.2-2.8c2-6.5,4-13,5.9-19.6
		c1.7-6,3.2-12.2,4.9-18.2c1.4-4.9,2.9-9.8,4.4-14.6c0.4-1.3,0.2-2.3-0.6-3.4c-1.4-2-2.7-4-4-6c-0.3-0.4-0.6-0.9,0.3-1.6
		c0.4,0.3,1.1,0.5,1.5,0.9c1.5,1.7,3,3.4,4.4,5.2c4.4,5.6,9.4,10.6,15.3,14.7c6.5,4.5,13.5,7.6,21.4,8.7c3.4,0.5,6.7,0.3,9.9-0.9
		c4.7-1.8,7.6-5.4,9-10.1c1.4-4.6,2-9.4,1.5-14.3c-0.3-3.6-0.8-7.2-1.5-10.7c-2.5-12.2-7.7-23.1-15.9-32.4
		c-7.4-8.5-16.7-14.6-26.1-20.5c-1.2-0.8-2.5-0.8-3.8-0.7c-3.6,0.1-7.3,0.3-10.8-0.1c-8.9-1-17.7-3-26.2-5.7
		c-2.6-0.8-5.3-1.7-8.3-3.8c1.2,0.2,1.8,0.2,2.2,0.3c8.9,2.3,17.9,4.5,27.1,5.7c5.2,0.7,10.4,1.4,15.6,0.6c1.6-0.2,3.2-0.5,4.7-1.1
		c3.1-1.1,4.3-3,3.9-6.1c-0.2-1.4-0.7-2.9-1.3-4.2c-2.2-4.4-5.6-7.8-9.7-10.6c-8.2-5.6-17.4-7.3-27.2-6.6c-0.9,0.1-1.8,0.5-2.6,1
		c-7.1,4.1-14.7,7.1-22.7,8.8c-7.6,1.7-15.3,2.7-23,3.4c-14.9,1.4-29.9,2-44.9,1.9c-2.4,0-4.8-0.3-7.1-0.8c1.3-0.3,2.6-0.4,3.9-0.5
		c12.4-0.8,24.9-1.4,37.3-2.3c9.2-0.6,18.4-1.8,27.5-3.3c8.6-1.5,16.8-4.2,24.8-7.9c3.5-1.7,6.1-4.3,8-7.6c1.8-3.2,2.2-8.3-1.6-12.2
		c-2.3-2.4-5-4.4-8-5.9c-5.2-2.7-10.7-4.3-16.3-5.3c-9.2-1.7-18.4-1.8-27.6-0.8c-14.1,1.6-28,4.6-41.7,8.4
		c-10.8,3-20.9,7.3-30.6,12.9c-10.2,5.9-20.1,12.3-29.2,19.8c-3.1,2.5-5.9,5.5-8.8,8.2c-0.9,0.9-1.7,1.9-3,2.4
		c-0.8-1.5,0.3-2.2,0.8-3.1c1.3-2.3,0.6-3.9-2-4.2c-1.1-0.1-2.2-0.1-3.2,0.1c-3.3,0.5-6.5,1.8-9.3,3.4c-6.3,3.6-12.5,7.3-18.5,11.3
		c-7.3,4.8-14,10.3-19.5,17.2c-7.4,9-12.5,18.5-14.6,29.6c-1,5.3-0.4,10.4,1.6,15.3c0.5,1.4,1.4,2.6,2.2,3.8
		c1.8,2.8,6.1,4.2,9.7,2.7c1.8-0.8,3.2-1.9,4.5-3.3c3.8-4,7.2-8.3,9.6-13.3c1.4-2.9,2.8-5.8,4.1-8.7c1.4-3.1,2.6-6.1,4-9.2
		C109.7,101.8,109.8,100.8,110.9,101z M75.3,770.6c-0.6,0.2-0.8,0.2-0.9,0.3c-6.5,8.3-6.6,21.2-2.5,28.1c1.2,2,1.9,4.4,2.7,6.7
		c0.6,1.5,0.7,3.1,0.4,4.6c-0.5,0.3-1,0.5-1.4,0.8c0.2,1.5,0.4,2.8,0.6,4.1c1,5.6,1.2,11.2,0.1,16.8c-0.7,3.3-1.4,6.5-2,9.8
		c-0.3,1.8-0.4,3.7-0.4,5.6c0,0.7,0.4,1.6,0.9,2.2c1,1.2,2.3,2.1,3.8,2.6c0.4-0.4,0.7-0.5,0.8-0.7c2.9-8,6.1-16,6.3-24.8
		c0-2,0.5-4,1-5.9c0.2-0.8,0.5-1.9,1.9-1.8c-0.3,8-0.5,16-3.1,23.8c-2.3,7-4.4,14-10.3,19.1c-3.2,2.8-4.2,6.7-4.3,10.9
		c-0.1,3.5,1,6.6,2.6,9.6c0.9,1.7,1.8,3.3,2.7,4.9c0.2,0.4,0.6,0.7,1.2,1.3c0.1-2.1,0.2-3.7,0.3-5.2c0-0.1,0.3-0.3,0.7-0.5
		c0.2,0.5,0.6,0.8,0.7,1.3c0.5,2.5,0.7,5,0.4,7.6c-0.3,2.3-0.7,4.5-1.1,6.7c-0.9,4.5,0.3,8.5,2.4,12.3c1,1.8,2.5,2.6,4.6,2.5
		c1.7-0.1,3.1-0.8,4.2-2c1.5-1.6,2.5-3.5,3-5.6c0.7-3,1.3-6,1.8-9c0.6-4.3,1.5-8.4,3.2-12.4c2.3-5.6,5.9-10.1,11.6-12.7
		c1.8-0.8,3.6-1.9,5.4-2.7c7.5-3.4,15.3-4.7,23.5-3c6.4,1.4,12.1,4.2,17.1,8.4c1.8,1.6,3.6,3.2,5.6,4.6c0.8,0.6,1.8,1.1,2.8,1.5
		s1.9-0.1,2.3-1c1.4-2.6,1.6-5.1-0.5-7.5c-1.8-2-3.6-4-5.5-5.8c-2.3-2.2-4.3-4.5-5.2-7.5c-0.6-2-1.8-3.5-3.3-4.9
		c-1.8-1.6-3.5-3.4-5.3-4.9c-2.6-2.1-3.7-4.8-3.5-8.1s0.3-6.7,0.1-10c-0.6-7.9-3.1-14.9-10-19.6c-0.6-0.4-1-0.8-1.5-1.3
		c-0.2-0.3-0.2-0.7-0.4-1.2c3.1,0,5,2.5,7.8,3.4c0.2-1.4,0.4-2.6,0.4-3.8c0.1-6.7,2.2-12.9,5.2-18.8c0.8-1.5,1.5-3.1,2.3-4.7
		c4.1-7.3,6.9-15,8.8-23.2c1.7-7.7,3.8-15.3,4.4-23.3c0.5-5.9,0.8-11.8,1.3-17.6c0.1-1.5,0.4-2.9,0.9-4.3c1.7-4.5,3.8-8.8,6.6-12.8
		c0.9-1.3,1.7-2.7,2.6-4c2.9-4.3,4.2-9.2,4.4-14.4c0.1-1.9,0.3-3.7,0.4-5.6c0.1-2.4,0.2-4.8-0.1-7.2c-0.5-5.1-0.4-10.2-0.1-15.2
		c0.1-2,0.8-3.9,1.3-5.8c0.2-0.6,0.7-1.1,1.5-2.2c-0.2,3.1-0.7,5.4-0.2,8c0.5-0.5,0.9-0.7,1.1-1c1.1-2.3,2.2-4.6,3.3-6.9
		c1.6-3.3,2.8-6.7,3.3-10.3c1.1-6.3,2.1-12.7,3.2-19c0.3-1.7,0.5-3.4,0.8-5.2c-7.2-3.4-12.8-8.5-17.9-14.3c-1.1-1.3-2-2.8-2.9-4.3
		c-0.2-0.4-0.5-1,0.4-1.3c1.5,1.4,3,2.9,4.5,4.4c3.9,3.8,8,7.5,12.8,10.3c4.4,2.7,8.2,2.4,12.1-0.9c0.9-0.8,1.8-1.6,2.6-2.5
		c1.9-1.9,3.8-3.8,5.7-5.7c1.8-1.7,3.7-3.4,6.4-4.5c0.1,0.7,0.4,1.2,0.3,1.6c-0.2,0.6-0.7,1.1-1.2,1.6c-2.9,3-5.8,5.9-8.8,8.8
		c-1.9,1.8-4,3.5-6,5.3c-0.7,0.6-1.4,1-2.2,1.6c4.1,5.2,5.2,7.8,6.9,14.1c2.3,8.7,4.8,17.3,7.2,25.9c1.2,4.1,3.1,8,5.1,11.8
		c4.7,8.9,10.3,17.2,16.3,25.3c2.9,3.9,5.5,7.9,7.8,12.2c1.8,3.4,3.7,6.8,5.4,10.3c4.2,8.3,9.4,15.8,16.2,22.3
		c4.8,4.6,8.6,9.9,11.6,15.8c0.7,1.3,1.2,2.7,1.7,4.1c0.2,0.5,0,1.1,0,2c-2.2-2-2.8-4.7-5.3-6.6c0.2,1.1,0.4,1.7,0.5,2.3
		c0.6,2.5,1.2,4.9,1.8,7.4c1.5,6.1,2.9,12.3,4.7,18.3c2.8,9.3,6.5,18.1,12.5,25.9c3.3,4.3,7.2,7.9,11.8,10.7c3.6,2.2,7,4.4,10.4,6.8
		c2.2,1.5,4.2,3.3,6.1,5.2c1.8,1.7,2.8,3.9,3.2,6.3c0.2,1.4-0.3,2.7-1.4,3.6c-1.2,0.9-2.7,0.8-3.8,0c-1.3-0.9-2.3-2.1-3.4-3.3
		c-0.3-0.3-0.7-0.9,0.1-1.6c1.6,0.8,3.3,1.7,5.4,2.8c-0.1-1.1-0.1-1.8-0.3-2.4c-0.7-1.9-2-3.5-3.6-4.7c-3.4-2.5-7-5-10.5-7.4
		c-0.4-0.3-0.8-0.8-1.5,0.1c1.3,2.6,2.6,5.4,4,8.1c3,5.7,5.5,11.6,7.6,17.7c2.2,6.6,2.1,12.8-1.9,18.8c-1.9,2.9-3.7,5.9-5.4,8.9
		c-0.8,1.4-1.5,2.9-1.9,4.4c-0.5,1.9-0.8,3.9-0.9,5.9c-0.2,2.8-1,5.3-2.3,7.6c-0.6,1-1.1,2.1-1.7,3.2c-2.2,3.8-1.7,7.8,2.4,11
		c2.4,1.9,4.8,1.7,6.7-0.7c2.3-2.8,3.9-6.1,4.6-9.7c0.5-2.4,0.9-4.8,1.7-7c1.5-4.3,3.2-8.6,6.4-11.9c4.2-4.4,9.2-7.8,14.9-10
		c6.8-2.5,13.4-2.3,19.6,1.6c1,0.7,2,1.3,3,2c4.7,3.6,8.7,8,12.2,12.7c2.8,3.7,4.7,7.8,6.6,11.9c1,2.2,2.3,4.2,3.6,6.2
		c1.2,1.8,2.9,3.1,4.9,4c3,1.4,5.8,0.8,8-1.7c1.7-2,3-4.2,3.4-6.8c0.9-7.3,0.1-14.3-5.1-20c-4.9-5.4-7.4-12-9.9-18.7
		c-0.1-0.4,0.1-0.9,0.2-1.8c0.8,0.9,1.3,1.3,1.6,1.8c0.8,1.4,1.4,2.9,2.2,4.3c1.2,2.4,2.3,4.8,3.6,7.2c0.2,0.4,0.5,1,1.6,0.5
		c0.2-2,0.9-4.1,0.7-6.4c-0.7-7.4-2.3-14.5-6.8-20.7c-1.4-1.9-2.2-4.2-2.7-6.6c-0.6-2.7-1.4-5.4-2.5-8c-1.6-4-3.4-7.8-5.1-11.8
		c-1.9-4.7-4.2-9.3-7.1-13.5c-3.6-5.2-5.7-10.9-6-17.2c-0.1-3.2-1.2-6-3.2-8.5c-4.6-5.6-8.9-11.4-13.8-16.7c-3.2-3.5-5.6-7.2-7-11.6
		c-1.7-5.2-3.3-10.5-4.9-15.7c-1.2-3.8-2.6-7.5-4.5-11.2c-1.5,0-2.8-0.2-4.2,0c-5.9,0.8-12,1.1-17.7,3.1c-1,0.4-2.1,0.6-3.1,0.8
		c-2.4,0.4-4.2-0.4-5.4-2.5c-0.7-1.3-1.4-2.6-1.9-4c-1.2-3.3-2.2-6.6-3.2-9.9c-1.1-3.4-2.2-6.9-3.4-10.3c-0.9-2.7-2.2-5.1-4.5-7.2
		c-0.9,0.2-1.8,0.4-2.8,0.5c-2.4,0.3-4-0.5-4.8-2.7c-1-2.8-2.7-5.2-4.2-7.7c-1.1-1.7-2-3.5-2.8-5.3c-0.7-1.6-0.4-3.2,0.9-4.4
		c1.1-1,2.3-1.9,3.6-2.5c1.2-0.6,2.5-0.8,3.8-1.1c4.4-0.8,8.4-2.6,12.5-4.2c0.8-0.3,1.5-1,2.4-1.5c-1-2.4-2.4-4.3-3.7-6.4
		c-2-3.3-3.9-6.6-5.2-10.4c-1.4-4.3-3.3-8.5-5.4-12.5c-3.7-7-7.7-13.8-11.7-20.6c-2.4-4.2-4.3-8.6-5-13.5c-0.9-6.4-2.2-12.7-4-18.8
		c-2.3-8-2.8-16-2.3-24.3c0.1-0.7-0.1-1.5-0.1-2.2c-1.8-0.1-3.4-0.2-5-0.4c-4.4-0.4-8.5,0.4-12.4,2.4c-1.7,0.8-3.4,1.6-5.1,2.4
		c-4.2,1.8-8.6,3-13.2,3.2c-2.9,0.1-5.9,0.5-8.8,0.8c-3.2,0.4-6.4,0.8-8.6,3.6c-7.5,5.7-17.5,4.3-22.8-2.1c-0.4-0.5-0.9-1-1.2-1.3
		c-2.6-0.3-5.1-0.3-7.3-1c-4.8-1.5-9.7-3-14.3-5.2c-5.8-2.7-11.8-4.4-17.8-6c-2.3-0.6-4.6-1.5-6.8-2.3c-0.7-0.3-1.4-0.6-2.1-1
		c-1.4,1-2.2,2.2-2.8,3.5c-0.9,2-1.5,4-1.5,6.2c-0.1,4.2-1.1,8.2-2.1,12.2c-0.1,0.5-0.3,1-0.3,1.4c0.3,0.3,0.4,0.6,0.6,0.7
		c3.2,2.1,3.6,3,2.9,6.6s-2.2,6.8-3.6,10.2c-1.1,2.5-2.5,3.6-5.1,3.5c-0.2,0-0.4,0.3-0.7,0.4c-0.2,0.3-0.4,0.6-0.5,1
		c-1.7,4.6-3.5,9.3-5.2,13.9c-1.9,5.2-4.1,10.2-5.6,15.5c-0.7,2.7-2.3,5.1-3.7,7.5c-1.2,2.1-2.7,4-4.1,6c-1.1,1.7-2.2,3.4-3.2,5
		c1.2,1.6,0.8,3.1,0.2,4.7c-2.5,6.4-4.5,12.9-5.7,19.6c-0.9,5-0.8,9.9,1.1,14.6c0.9,2.3,2,4.7,3.1,7c1.5,3,3.2,5.9,4.7,8.8
		c2.7,5.2,5,10.6,6.5,16.4c2,7.7,0.4,14.6-3.9,21c-1.1,1.7-2.6,3.1-4.5,3.8c-3.4,1.3-7.3-1.2-7.4-4.9c0-0.6,0-1.4,1-1.4
		c0.3,0.7,0.6,1.4,1.1,2.1c1.5,2.1,3.6,2.3,5.5,0.6c1.1-1,2-2.2,2.7-3.4c3.3-5.6,4-11.5,2.2-17.8c-2-7-5.2-13.5-8.7-19.8
		c-0.2-0.3-0.6-0.4-1.1-0.8c-0.3,2,0,3.6,0.2,5.3c0.6,7.1,0.8,14.2-1.3,21.1c-1.2,4.1-2.8,8.1-4.4,12c-1.9,4.6-4.1,9-6.2,13.5
		c-2.4,5.3-3,10.7-1.5,16.4c1.3,5.1,2,10.2,2.3,15.5c0.1,2.7,0,5.3-0.8,8.5c-1.3-2.8-1.3-5.2-1.6-7.5
		C76.2,775.9,75.8,773.4,75.3,770.6z M310.3,117.8c-1.2,0.1-2.3,0.3-3.3,0.4c-1.1,0.1-2.1,0.1-3.2,0.2c-11.2,0.2-22.1-2.1-32.7-5.4
		c-13.9-4.3-27-10.3-39.1-18.4c-0.5-0.3-1.1-0.6-1.7-0.9c-0.1,0.5-0.2,0.8-0.2,1c0.2,4.8-2.1,8.3-6.6,9.9c-3.4,1.2-6.9,1.3-10.3,0.6
		c-4.2-0.9-8.3-2.1-12.3-3.7c-10.3-4.3-19.9-9.8-28.6-16.9c-0.3-0.3-0.7-0.8-1.5-0.1c0.5,1.2,1.1,2.6,1.6,3.9
		c2.5,5.8,4.2,11.9,4.1,18.3c-0.1,4.3-0.8,8.5-3,12.4c-2.7,4.7-6.9,6.5-12.2,5.2c-1-0.2-1.9-0.9-3.2-0.6c0.4,1.8,0.8,3.4,1.2,5.1
		c0.8,3.5,0.7,6.9-0.4,10.3c-0.8,2.6-2.4,4.4-5.4,4.6c-0.5,0-1,0.1-1.8,0.1c0.1,1.3,0.1,2.3,0.2,3.3c1.6,11.7,3.3,23.3,4.9,35
		c1.1,8.4,1.5,16.8,0.5,25.2c-0.8,6.3-1.7,12.5-3.9,18.4c1.8,3.7,3.8,7.2,6.1,10.5c4.8,6.8,10.4,13,16.7,18.5
		c11.7,10.3,24.8,18.3,39.6,23.2c2.8,0.9,5.6,1.9,8.6,2c4.6,0.1,9.1-0.2,13.6-1c9.5-1.8,18.6-5,27.3-9.2
		c10.1-4.8,19.2-11.2,26.8-19.4c2.3-2.5,4.2-5.2,5.7-8.2c3.3-6.9,5.4-14.2,6.7-21.8c1-6.1,1.2-12.2,1-18.4
		c-0.4-9.6-0.8-19.3,0.6-28.9c1.2-8.1,2.1-16.2,3.1-24.3c1.1-9.2,2-18.4,1.7-27.6C310.6,119.8,310.4,119,310.3,117.8z M171.4,363.1
		c1.9,0.1,2.8,1,3.6,1.9c1.5,1.5,2.9,3.2,4.3,4.8c3.9,4.4,7.9,8.7,11.9,13.1c0.6,0.6,1.4,1,2.5,1.8c1.1-6.1,2-11.7,3.2-17.3
		c1.3-5.8,2.9-11.4,5.2-16.9c2.3-5.3,3-11.1,6.2-15.7c-0.9-2.3-1.7-4.3-2.6-6.6c-0.4,0.9-0.6,1.5-0.8,2.1c-1,3-1.6,3.4-4.6,2.6
		c-2.4-0.7-4.8-1.6-7.2-2.5c-7-2.8-13.6-6.3-18.4-12.4c-0.3-0.4-0.8-0.7-1.2-1.1c-6.6-0.2-13.1,0.6-19.5,2
		c-4.1,0.8-8.1,1.6-12.3,1.3c-4.4-0.3-7.7-2.1-9.1-6.5c-0.3-0.9-0.6-1.7-0.9-2.5c-5,0-9.9,2.2-12.9,5.8c-2.1,2.6-3.8,5.5-5.1,8.6
		c-2.3,5.9-4,11.9-5.5,18c-2.1,8.7-4.5,17.4-8.2,25.6c-4.1,8.9-7.1,18.2-9.5,27.7c-1.4,5.8-2.3,11.8-3.3,17.7
		c-1,5.8-1.7,11.6-2.7,17.4c-2.4,13.2-6.1,26-9.8,38.9c-2,7.2-4,14.4-5.3,21.8c-0.6,3.7-1,7.4-1,11.2c0.1,5.1,0.1,10.2,0.3,15.3
		c0.1,2.9,0.5,5.9,0.9,8.8s1.2,5.8,1.8,8.6c1.4,6.4,2.8,12.8,4.1,19.2c0.7,3.1,1.7,6.2,2.8,9.2c2.3,0.5,4.5,0.9,6.7,1.5
		c8.8,2.7,17.9,4.3,27.1,5.8c2,0.3,4.2,0.8,6.3,0.2c0.7-2.1,1.4-4,1.2-6c-0.2-1.5,0.1-2.9,0.4-4.3c0.3-1.2,0.5-2.4,0.6-3.5
		c0.5-7.3,0.9-14.7,1.3-22c0.2-4.3,0.1-8.6,0.3-12.8c0.3-5.6,0.7-11.2,1-16.8c0.2-3.2,0.5-6.4,0.5-9.6c0-3.7,0.7-7.2,2-10.6
		c1.2-3.4,2.3-6.8,3.3-10.3c2-7.3,4-14.7,5.8-22.1c1-3.9,1.9-7.8,2.3-11.8c0.6-6.3,1.5-12.5,2.9-18.6c1.4-6.3,3.3-12.4,4.5-18.7
		c1.8-9.5,3.3-19,4.8-28.5c0.6-4,1.7-7.9,3.1-11.6c0.3-0.7,0.8-1.3,1.3-2c0.1-0.1,0.5-0.1,0.7-0.1c0.2,0.1,0.5,0.4,0.5,0.5
		c0,0.8,0,1.6-0.3,2.4c-2.4,7.1-2.8,14.7-4.4,22c-0.2,1-0.6,2.1,0.2,2.9c2.7,0.1,5.2,0.1,7.7,0.4c7.3,0.9,14.6,1.9,21.9,2.8
		c3.6,0.5,7.1,0.9,10.6,1.3c1.5-2.6,1.7-3,1.7-5.8c-0.5-0.1-1-0.3-1.6-0.2c-2.3,0.1-4.5-0.2-6.8-0.6c-2.6-0.5-5.3-0.6-8-1
		c-6.2-0.8-12.5-1.6-18.7-2.5c-0.9-0.1-1.8-0.5-2.7-0.8c-0.6-0.2-0.8-1.2-0.4-1.7c0.1-0.2,0.3-0.4,0.5-0.6
		c3.9-4.5,7.7-8.9,11.6-13.3C167.9,366.7,169.7,364.9,171.4,363.1z M205.7,550.5c5.3,0,10.1-1,14.4-3.8c4.9-3.1,10.3-5.2,15.9-6.5
		c2.3-0.6,4.7-0.9,7.1-1.5c1.7-0.4,3.4-0.8,4.9-1.6c2.9-1.6,5-3.9,4.8-7.7c-0.2-3.1,0-6.2,0-9.2c0-0.9-0.1-1.9-0.1-2.8
		c-0.2-2.1-0.4-4.3-0.5-6.4c-0.2-4.8-0.3-9.6-0.5-14.5c-0.6-12.9-0.3-25.7,0.8-38.5c1-11.6,2.4-23.2,3.4-34.8
		c0.6-7.1,1-14.2,1.2-21.2c0.2-8.4,0.1-16.9,0.1-25.3c0-0.8,0-1.6,0.1-2.4c0-0.4,0.2-0.8,0.4-1.1c0.2-0.3,0.6-0.5,0.9-0.5
		s0.7,0.4,0.8,0.7c0.2,1,0.4,2.1,0.5,3.1c0.1,3.6,0.2,7.2,0.2,10.8c0,4-0.2,8,0,12c0.3,8.2-0.5,16.3-1.1,24.5
		c-0.7,9.3-1.9,18.6-2.8,28c-0.6,6-0.8,12-1.3,18c-0.7,9-0.5,17.9-0.2,26.9c0.3,6.3,0.3,12.6,0.3,18.9c0,1.7-0.4,3.5-0.3,5.2
		c0.3,4.5,0.7,9.1,1.2,13.6c0.2,2.3,0.6,4.5,1.3,6.7c0.5,1.8,1.5,3.4,2.4,5c1,1.8,2.4,2.8,4.6,2.7c1.7-0.1,3.5,0,5.2-0.2
		c2.3-0.2,4.5,0.2,6.7,0.8c4,1.1,8,2.2,12,3.2c3.3,0.8,6.6,0.8,10,0.5c3.5-0.3,5.2-2.3,5.5-5.8c0.3-3.9,0.7-7.7,1.2-11.6
		c0.8-6.7,1.1-13.4,0.1-20c-1.1-7-2.8-13.9-5.3-20.6c-3.6-9.8-6.6-19.8-9.3-29.9c-3.4-12.9-5.1-26-4.4-39.3
		c0.3-6.4,0.8-12.8,1.4-19.2c1-10.8,2.2-21.6,3.1-32.4c0.4-4.3,0.5-8.6,0-12.8c-0.8-7.9-3-15.5-5.8-22.9c-0.4-1.1-0.7-2.3-1.9-2.9
		c-2.5,1.5-2.5,1.4-5.2,0.9c-3.3-0.7-6.4-1.8-9.3-3.5c-2.6-1.5-5.2-2.8-7.8-4c-2.9-1.4-5.8-2.7-8.9-3c-7.7,6.3-9.2,7.1-12.9,7.4
		c-0.1-1-0.2-2.1-0.2-3.1c-0.3-4.7-1.8-9-4.9-12.5c-1.1-1.3-2.6-2.2-4.1-3.2c-0.5-0.3-1.4-0.6-2.1,0.4c4.2,1.7,6.2,5,7.4,9.1
		s0.4,8.2-0.9,12.3c4.7,2.6,6.8,6.9,8,11.7c0.2,0.8,0.5,1.5,0.7,2.3c1.2,4.5,1.6,9.1,0.4,13.5c-1.5,5.5-3.5,10.9-5.3,16.4
		c-0.2,0.6-0.3,1.2-0.5,2.1c4.3,0.7,8.4,1.4,12.5,2c1.2,0.2,2.4,0.4,3.5,0.7c2.1,0.6,2.4,0.9,2.5,3c0.1,2.9,0.2,5.9,0.3,8.8
		c0,0.4,0,0.8-0.1,1.2c-0.1,1-1,1.7-2,1.5c-0.9-0.2-1.8-0.6-2.7-0.8c-1.5-0.4-3.1-1.1-4.6-1.1c-4.6-0.1-9.1-0.5-13.5-1.6
		c-0.1,0-0.2,0.1-0.7,0.2c-0.2,2.2-0.5,4.6-0.7,7.1c3,0.9,5.8,1.6,8.7,2.2c3.8,0.8,7.6,1.7,11.3,2.5c1.1,0.3,1.6,1.3,1,2.1
		c-1.2,1.8-1.3,3.7-1.3,5.8c0,0.5-0.1,1.1-0.1,1.6c-0.2,1.3-0.8,2.3-2.2,2.5c-0.3,0.1-0.7,0.4-1.1,0.7c-0.1,0.9-0.3,1.8-0.4,2.7
		c-0.4,4.7-0.8,9.3-1.2,14c-0.2,1.6-0.5,3.2-0.8,4.7c-0.7,3.2-2.8,5.1-6,5.7c-1.8,0.3-3.7,0.5-5.6,0.4c-4.3-0.2-8.6-0.6-12.8-0.8
		c-0.8,0-1.5,0.1-2.4,0.1c-0.1,1-0.3,1.8-0.3,2.6c-0.4,8.8,0,17.4,3.1,25.7c0.4,1,1.4,2.2,0.2,3.3c-0.7,0.7-1.6,0-2.9-2
		c-6.4-10.6-11.7-21.6-13.5-34.1c-0.1-0.8-0.5-1.6-0.9-3c-0.8,3.3-1.3,6.1-2.2,8.7c-2.3,7.3-2.6,14.7-2.3,22.2
		c0.1,3.2-0.1,6.4-0.6,9.6c-0.7,5.3-2,10.5-2.5,15.8c-0.8,8-1.2,16-1.7,24c-0.4,6.1-0.7,12.3-1.1,18.4c0,0.8,0,1.5,0,2.4
		C199.3,542.6,203.3,545.4,205.7,550.5z M191.4,541.1c0.2-1,0.4-1.8,0.4-2.6c0.5-9.5,1.1-19,1.5-28.5c0.3-8.2,1.5-16.3,2.9-24.3
		c0.9-5.3,1.6-10.6,1.3-16c-0.4-7.4,0.2-14.7,2.3-21.9c0.6-1.8,1.1-3.6,1.4-5.5c0.4-2.4,1.4-4.7,1.1-8c-1.7,3.1-3,5.5-4.3,8
		c-6.7,12.7-10,26.2-10.1,40.5c-0.1,5.5,0.4,11,1.3,16.4c0.1,0.4,0.1,0.8,0,1.2c-0.1,0.2-0.3,0.4-0.6,0.5c-0.2,0.1-0.6,0-0.7-0.1
		c-0.3-0.4-0.6-0.8-0.9-1.3c-2.8-4.3-4.6-9-6.4-13.8c-1.5-3.9-2.8-7.8-3.7-11.8c-1.9-8.8-3-17.7-2.5-26.7c0.1-1,0.4-2.1-0.5-3
		c-3.1-0.5-6.3-1-9.4-1.7c-3.5-0.8-7-1.8-10.4-3c-4.1-1.5-6-4.7-6.1-9c0-0.8,0-1.6,0.2-2.4c0.5-3.5,0.9-6.9,1.5-10.3
		c0.4-2.6,1.1-5.2,1.6-7.9c0.2-0.9,0.4-1.9,0.1-2.7c-0.7-2.2-1.6-4.3-2.6-6.8c-0.3,0.9-0.6,1.4-0.7,2.1c-1.2,5.1-2.2,10.2-3.5,15.3
		c-1.5,6-3.1,12-3.7,18.1c-0.8,8.3-2.3,16.4-4.7,24.4c-1.3,4.4-2.1,8.8-2.1,13.4c0,6.3,0,12.6-0.2,18.9c-0.2,4.7-0.5,9.4-1.3,14
		c-0.5,3-1.9,5.8-2.8,8.8c-0.5,1.8-1,3.6-1.2,5.5c-0.4,3.9,1.1,7.2,4.3,9.4c2.3,1.6,4.8,3,7.5,3.8c5.7,1.7,11.2,3.8,16.5,6.2
		c6.7,3,13.6,5.7,21,7.4C181.2,543.4,185.9,541.3,191.4,541.1z M210.5,336.9c-1.2,1.2-1.7,2.9-2.3,4.5c-1,3-2,6.1-3.1,9.1
		c-3,7.6-5.2,15.5-6.6,23.5c-0.8,4.5-1.4,9-2.3,13.4c-2,9.6-5.6,18.7-10,27.4c-5.9,11.8-9.3,24.2-9.3,37.4c0.1,12.4,2.3,24.5,7.1,36
		c0.2,0.5,0.3,1.3,1.3,1.2c0.1-0.3,0.2-0.5,0.2-0.8c0-0.8,0-1.6-0.1-2.4c-0.6-11.2,1-22.1,4.7-32.7c2.8-7.9,6.8-15.1,10.9-22.3
		c2.7-4.6,4.6-9.3,5.3-14.6c0.3-2.5,0.7-5,1.2-7.5c1.5-8.1,4-15.8,7.3-23.3c2.8-6.6,4-13.6,5-20.6c0.8-5.4,0.8-10.9,0.9-16.4
		c0.1-3.3,0-6.6-0.1-9.8C217.1,338.2,213.9,337.6,210.5,336.9z M102.2,916.4c0.8,0,1.3,0.1,1.9,0.1c3.2,0.1,6-1.2,9-1.7
		c6.9-1.2,13.5-3.4,19.9-6c5.5-2.2,10.7-5,15.6-8.3c2.4-1.6,4.5-3.7,6.7-5.7c0.9-0.8,1.6-1.8,2.4-2.7c2.4-2.5,2.7-4.2,1.1-7.2
		c-0.8-1.4-1.7-2.8-2.8-3.9c-2.3-2.2-4.8-4.3-7.4-6.2c-11.1-7.8-23-8.8-35.3-3.2c-2.1,0.9-4.2,1.9-6.1,3c-6.3,3.7-10.1,9-10.2,16.6
		c0,5.7,0.5,11.2,1.7,16.7C99.4,911,100.3,913.9,102.2,916.4z M73.8,652.6c-0.2,1.8,0.4,2.8,1.7,3.6c1.3,0.7,2.6,0.5,3.8-0.3
		c1.3-0.9,2.7-1.8,3.8-2.9c2.3-2.6,4.6-5.2,6.6-8.1c2.8-3.9,5.2-8.1,7.9-12.1c2.4-3.6,4.4-7.3,5.3-11.6c0.2-1,0.7-2,1.1-3
		c2.6-6.6,5.1-13.2,7.7-19.8c0.6-1.5,1.4-2.9,1.2-4.6c-6.8-1.3-13.6-1.4-20.5-0.9c-3.5,0.3-7,0.3-10.4,0.3c-0.7,0-1.3,0-1.8,0
		c-4.4,4.8-6.4,8.5-7.4,14.3c-0.4,2.4-0.6,4.8-0.9,7.2c-0.2,1.7-0.3,3.5-0.8,5.1c-0.3,1.3-0.9,2.6-1.8,3.5c-2.1,2.4-5.6,1.8-6.9-1.1
		c-0.3-0.7-0.5-1.5-0.8-2.3c-0.4-1-0.7-2-1.1-3c-0.5-1.1-2-1.2-2.6-0.2c-1.7,2.7-2.5,5.6-2,8.8c0.4,2.3,1.6,4.2,2.7,6.2
		c1.6,2.7,5.3,3.5,7.7,1.8c0.7-0.5,1.5-0.9,2.5-1.5c-0.6,2.3-1.9,3.8-3.9,4.3c-3.7,0.9-6.3-1.2-8.8-3.7c-1.2,1.5-0.9,3-0.7,4.4
		c0.2,1.3,1,2.2,2.1,2.8c3.1,2,6.4,2.7,10,1.7c2.2-0.6,4.3-1.5,6.4-2.3c0.6-0.2,1.2-0.2,2.1-0.3c-5.1,4.9-11.6,5.9-19.7,3.3
		c-0.1,0.2-0.4,0.4-0.4,0.7c0.1,4.1,3.5,8.1,7.5,8.8c3,0.5,5.9,0.4,8.5-1.3c2-1.3,4-2.7,6-4.1c1.2-0.8,2.2-1.8,4.1-2.5
		C80.3,648.3,76.8,650.1,73.8,652.6z M312.7,908.9c1.5,1.3,3.2,1.7,4.9,1.9c3.3,0.4,6.7,0.6,9.9,1c5.7,0.8,11.5,0.9,17.2,0.6
		c8.7-0.6,17.3-0.9,26-0.8c1.3,0,2.7,0,4,0c0.8,0,1.5-0.3,2.4-0.4c0.2-1.2,0.5-2.2,0.5-3.3c0-0.6-0.1-1.4-0.5-1.9
		c-3.3-3.9-5.2-8.7-7.4-13.2c-4-8.4-10.2-15-17.8-20.2c-5.8-4-12-4.3-18.3-1.7c-7.3,3-12.8,8.1-16,15.5c-0.7,1.7-1.5,3.4-2.3,5.1
		C312.9,896.9,311.8,902.6,312.7,908.9z M326.1,625.8c-0.8-1.5-1.1-2.4-1.7-3.1c-1.4-1.8-2.8-3.6-4.5-5.1c-4.6-4.4-7.3-9.8-8.7-16
		c-0.7-3.4-1.8-6.7-2.9-10c-1.6-4.2-4-7.9-7.7-10.6c-1.1-0.8-2.2-1.2-3.7-0.9c-6.3,1.2-12.5,0.6-18.5-2c-1.8-0.8-3.7-1.5-5.6-2.1
		c-1.6-0.5-3.2-1.3-5.2-1c0.4,0.9,0.7,1.6,1.1,2.3c2.6,4.7,4.4,9.8,5.8,14.9c3.5,13.1,9.4,25.3,15.3,37.4c1.8,3.7,4.6,6.6,8,8.8
		c0.6,0.4,1.4,0.3,2.1,0.5c0.6-1.6,0.3-2.9-0.2-4.2c-0.3-0.6-0.6-1.2-0.8-1.8c-1.7-3.5-3.4-7-5.8-10.1c-0.7-1-1.7-1.9-1.4-3.7
		c0.7,0.7,1.1,1.2,1.6,1.7c2.7,2.8,5.3,5.7,8.1,8.4c3.3,3.2,7.3,5.4,11.4,7.3c1.3,0.6,2.7,1,4.4,0.3c-0.5-0.7-0.7-1.4-1.1-1.8
		c-1-0.9-2-1.8-3.1-2.6c-5.6-4.1-10.3-8.9-14.5-14.4c-1.1-1.4-2.4-2.8-2.7-5.3c2,1.6,3.2,3.2,4.4,4.7c3.9,4.6,8.3,8.7,13.2,12.2
		c1.5,1.1,3.2,2,4.8,2.9c0.8,0.4,1.7,0.7,2.7,0.8c0.8,0.1,1.7-0.1,2-0.9c0.2-0.5,0.1-1.3-0.1-1.9c-0.2-0.6-0.6-1.2-1.1-1.7
		c-1.3-1.2-2.5-2.4-4-3.3c-6.6-4-11.3-9.8-15.6-16c-0.2-0.3-0.1-0.8-0.2-2c1.9,2,3.3,3.4,4.6,4.9c2.8,3.1,5.6,6.1,9,8.6
		c2.5,1.9,5.1,3.5,8.1,4.4C324.3,626.1,324.9,625.9,326.1,625.8z M199.7,281.7c-1.1-0.1-1.7-0.2-2.3-0.2c-3.7,0-7.2,0.8-10.5,2.2
		c-5.9,2.6-11.6,5.4-17.4,8.2c-1,0.5-2.2,1-2.6,2c1.6,4.8,3.2,9.3,4.6,13.9c1,3.1,2.6,5.9,4.6,8.4c3.1,3.8,6.7,6.9,11.2,9
		c4.6,2.1,9.2,4.2,13.9,6.3c0.4,0.2,1,0.1,1.4,0.2c2.1-7.9,4.6-12.2,12.1-18.7c-0.4-0.4-0.7-0.8-1.2-1.1c-2.9-1.9-5.9-3.7-8.8-5.5
		c-2.1-1.3-4.2-2.4-6.2-3.6c-0.4-0.2-0.5-0.7-0.9-1.2c0.9-0.1,1.5-0.2,2.1-0.2c0.7-4.8,0.6-7.3-0.3-10.2c-0.6,0.4-1.2,0.7-1.6,1.1
		c-0.5,0.6-0.9,1.3-1.3,2c-0.9,1.8-0.3,3.7-0.3,6.1c-1.5-1.5-1.8-3-1.8-4.4c0-1,0.3-2.1,0.7-3.1c0.8-2.1,3-2.9,4.9-4
		c0-1.2,0-2.3,0-3.3C199.9,284.4,199.8,283.3,199.7,281.7z M234.9,281.5c-2.7,0-4.9,0.1-7.2,0c-2.1-0.1-4.3-0.2-6.3-0.8
		c-5.5-1.5-11.1-3.1-16.3-5.5c-0.8-0.4-1.7-0.6-2.9-1c-0.7,9,0.2,17.8-0.8,26.6c0,0.4,0.1,0.8,0.2,1.4c1,0.6,2.1,1.4,3.2,2.1
		c0.8,0.5,1.7,0.9,2.4,1.4c3.1,2.2,6.2,4.2,9.1,6.6c2.2,1.8,4.6,2.1,6.7,1c2.8-1.5,5.5-3.4,7.3-6.2c1.5-2.4,3.2-4.6,5.6-5.9
		C235.5,294.6,235.2,288.2,234.9,281.5z M259.8,571.5c3.1-0.9,5.8-0.7,8.6,0c2.6,0.7,5.2,1.4,7.7,2.2c2.2,0.7,4.3,1.6,6.4,2.3
		c6.2,2.2,12.4,1.7,18.5-0.4c2.7-0.9,3.3-1.9,3.3-4.8c0.2-5.4-1-10.6-1.8-16c-5.2,2.1-10.4,2-15.5,0.9c-3.9-0.9-7.8-2-11.6-3.1
		c-2.2-0.6-4.4-1.2-6.7-0.9c-1.1,0.1-2.1,0.1-3.2,0.1c-1.2,0-2.4,0-3.6-0.1c-1-0.1-2-0.5-3-0.7c-1.5,3.7-2.5,7.3-1.8,11.1
		C257.7,565.2,257.6,568.5,259.8,571.5z M117.6,591c2.5-3.9,3.8-7.8,4.4-11.9c0.4-2.6,0-3.1-2.6-3.5c-3.6-0.6-7.1-1.1-10.7-1.7
		c-7.9-1.3-15.8-2.5-23.6-4.8c-2.3-0.7-4.7-1.1-7.1-1.5c-2.6-0.4-3.7,0.3-4.8,2.6c-0.8,1.8-1,3.6-0.8,5.5c0.4,3.3,0.8,6.6,1.3,9.9
		c0.5,3.2,1.3,4,4.6,4.6c0.9,0.2,1.9,0.3,2.8,0.3c3.6,0,7.2,0,10.8-0.3c5.6-0.4,11.2-0.6,16.8,0.2
		C111.7,590.9,114.6,590.9,117.6,591z M303.5,685.1c-6.1,2.6-12.1,5.1-18,7.7c1.4,2.6,2.9,4.8,3.9,7.3c1.5,3.7,2.7,7.6,3.9,11.4
		c1,2.9,1.9,5.8,3,8.7c0.6,1.5,1.2,3,2.5,4.1c2.1,0.4,3.9-0.5,5.9-1c1.6-0.4,3.1-1,4.7-1.2c4-0.6,7.9-1,11.9-1.5
		c0.7-0.1,1.5-0.2,2.5-0.4c-0.4-1-0.6-1.8-1-2.4C318.6,709.3,306.4,688.8,303.5,685.1z M228.4,311.7c8.4,4.2,10.6,9.3,12.1,19.4
		c3.2-2.2,6.3-4.2,8.9-6.8c3.8-3.7,6.5-8.1,9.2-12.6c2.3-3.8,4.7-7.5,8-10.5c0.2-0.1,0.2-0.5,0.4-1c-9-5.4-18.8-7.5-29.4-8.1
		c0,1.8-0.5,3.2,0.6,4.8c1.8,2.7,1.3,4-1.5,5.8c-1.7,1.1-3.2,2.4-4.6,3.8C230.7,308.1,229.6,310,228.4,311.7z M182.1,415.7
		c-3.5-0.2-6.6-0.4-9.6-0.7c-6.3-0.6-12.5-1.5-18-4.8c-0.2-0.1-0.5,0-1,0.1c-1.5,6.5-2.3,13.1-2.8,19.7c-0.3,3.5,1.2,5.5,4.4,6.9
		c0.6,0.3,1.2,0.5,1.9,0.7c4.8,1,9.7,2.1,14.5,3c1,0.2,2.1,0,3.3,0c1-4.2,1.9-8.4,3.1-12.4C179,424.1,180.5,420.2,182.1,415.7z
		 M106.9,930.2c0.8-1.3,1.2-2,1.7-2.6c1.1-1.4,1.8-1.5,3.5-0.8c0.8,0.3,1.7,0.7,2.6,1.1c0.7-0.7,1.3-1.1,1.8-1.8
		c1.3-1.8,3.1-2,5-1.4c0.8,0.2,1.5,0.6,2.2,0.9c1.4,0.5,2.7,1,3.9,1.4c1.4-1,2.5-2.1,3.8-2.7c1.4-0.6,3.1-0.7,4.6-1
		c0.3-1.2,0.5-2.3,0.8-3.3c1.1-3.5,1.6-3.8,5.2-2.9c1.7,0.4,3,0.3,4.6-0.6c1.6-0.9,3.5-1.3,5.3-1.9c1.2-0.4,2.3-0.7,3-1.9
		c0.6-1,1.4-1.7,2.6-1.8c3.3,0,5.7-2.2,8.6-3.1c0.7-3,0.4-5.7-1.1-8.3c-1-1.7-1.8-3.6-2.7-5.4c-0.2-0.4-0.5-0.8-0.9-1.4
		c-3,4.5-6.7,7.9-10.9,10.7c-9.2,6-19.1,10.3-29.7,12.9c-5.3,1.3-10.7,2.1-16.1,3.2c-0.3,0.1-0.6,0.4-1.1,0.6
		c0.3,1.2,0.5,2.4,0.9,3.5C105,925.7,105.9,927.7,106.9,930.2z M132.5,533.6c-0.6,2.4-1,4.3-1.7,6.2s-2.1,3.4-2.2,5.5
		c1,2,2.9,2.8,4.8,3.5c1.6,0.6,3.3,1,5,1.4c5.9,1.4,11.6,3.2,17,5.8c5.5,2.5,11.2,4.5,17,5.8c0.7,0.2,1.5,0,2.5,0
		c-0.2-1.7-0.4-3.2-0.4-4.6c0-1.3,0.2-2.7,0.5-4c0.3-1.4,0.8-2.7,1.3-4.2c-0.9-0.3-1.6-0.5-2.2-0.6c-4.7-0.4-9.1-1.9-13.4-3.8
		c-3.4-1.5-6.8-3.1-10.2-4.7c-3.6-1.7-7.2-3.5-11.3-4c-1.2-0.1-2.3-0.8-3.4-1.2C134.8,534.4,133.8,534.1,132.5,533.6z M313.3,924.5
		c1.9-0.5,3.3-0.8,4.7-1.3c1.7-0.5,3.1-0.4,4.5,0.7c0.5,0.4,1.1,0.7,1.6,1.2c1.6,1.3,3.1,1.4,4.7,0.1c0.3-0.3,0.7-0.4,1-0.7
		c2.1-1.8,4.3-1.8,6.7-0.6c1.7,0.8,3.5,1.3,5.3,1.9c1.2,0.4,2.3,0.2,3.3-0.8c0.8-0.9,1.6-1.8,2.5-2.6c1.5-1.3,2.6-1.4,4.4-0.3
		c0.7,0.4,1.2,1,1.9,1.5c1.1,0.7,2.1,1.7,3.8,1.7c2.2-2.1,4.8-2.1,7.7-1.1c2,0.7,4.1,0.9,6.3,0.5c1.4-0.3,2.9,0.1,4.4,0.1
		c1.1,0,2.2,0.2,3.2-1c-0.2-2.1-0.4-4.5-0.6-6.9c-0.1-0.8-0.3-1.5-0.5-2.4c-8.3,0.2-16.4,0.3-24.6,0.5c-1.3,0-2.7,0.1-4,0.3
		c-11.4,1.3-22.7,0-34-1.5c-0.7-0.1-1.5-0.7-2.3,0.1C313.3,917.1,313.3,920.6,313.3,924.5z M219.5,443.9c0.7,0.2,1.4,0.5,2.2,0.6
		c2.9,0.3,5.8,0.5,8.8,0.7c2.1,0.1,4.3,0.3,6.4,0.2c3.3-0.1,4.8-1.3,5.7-4.5c0.3-0.9,0.6-1.8,0.7-2.7c0.6-5.6,1.1-11.2,1.7-16.7
		c0.1-0.6,0-1.3,0-2.1c-1.4-0.4-2.6-0.9-3.9-1.1c-4.6-0.7-9.3-0.5-13.6-2.2C224.2,421.3,219.4,438.4,219.5,443.9z M253,537
		c-4,3.5-8.4,4.1-12.7,4.9c-2,0.3-3.9,0.7-5.9,1.2c-4.4,1.2-8.6,2.9-12.5,5.3c-3.9,2.4-8.2,3.8-12.9,4c-0.6,0-1.3,0.2-1.7,0.3
		c-0.6,3.4-1.1,6.5-1.6,9.7c0.2,0,0.6,0.3,1,0.2c5.3-0.7,10.6-1.5,15.9-2.2c0.7-0.1,1.3-0.3,1.9-0.4c3.7-0.8,7.2-2.2,10.5-3.8
		c4.7-2.3,9.6-3.3,14.8-2.5c1.7,0.2,3.5,0.4,5.1-0.4c0.2-0.5,0.5-1,0.7-1.5c0.8-2.2,0.9-4.3-0.3-6.5c-0.9-1.6-1.2-3.5-1.7-5.3
		C253.4,539.1,253.3,538.4,253,537z M190.1,398c-1.6-0.3-2.8-0.5-3.9-0.7c-6.2-0.9-12.4-1.6-18.7-2.5c-4.4-0.6-8.7-1.4-13.1-2
		c-0.9-0.1-1.8-0.5-2.8,0.4c-0.3,2.5-0.2,5.1-0.1,7.8c0.1,2.7,1.4,4.8,3.6,6.4c2.7,1.9,5.6,3.1,8.8,3.6c1.4,0.2,2.9,0.5,4.3,0.7
		c2.7,0.3,5.3,0.6,7.9,0.8c2.4,0.2,4.8,0.3,7.6,0.4C186.3,408.5,188.2,403.5,190.1,398z M171.1,313.7c-1.3-3.9-2.5-7.6-3.7-11.2
		c-0.4-1.5-1.4-2.2-2.8-2.6c-0.8-0.2-1.6-0.4-2.4-0.5c-6.9-0.4-13.9-0.9-20.9-0.1c-1.2,0.1-2.4,0.4-3.6,0.6
		c-2.5,0.5-3.6,2.2-3.8,4.5c-0.3,2.6,0.2,5.1,0.9,7.5c1.1,3.7,2.4,4.7,6.3,5c3.1,0.2,6.2,0,9.2-0.6c6-1.3,12.1-2.2,18.3-2.2
		C169.6,314.1,170.4,313.9,171.1,313.7z M144,48.9c1.2-1.8,2.1-3.2,3.1-4.6c5.2-7.6,10.5-15.1,15.7-22.8c1.8-2.7,3.4-5.4,4.9-8.3
		c1.1-2,1.7-4.2,1.7-6.5c0-1.3-0.3-2.4-1.1-3.4c-0.9-1.3-2-1.7-3.5-1.2c-2.7,0.9-5.1,2.4-7.2,4.3c-3.8,3.3-6.8,7.2-9.1,11.6
		c-4.9,9.5-5.9,19.6-5,30C143.5,48.1,143.7,48.2,144,48.9z M279.7,334.2c3.1-3.9,4.8-8,6.1-12.4c0.5-1.7,0-3.1-1.2-4.4
		c-1.4-1.4-3-2.3-4.8-2.8c-3.7-1.1-7.4-2.3-11.2-3.1c-2-0.5-4.1-1-6.2-0.8c-2.9,4.5-5.7,8.8-8.6,13.2c2.8,1,5.5,1.8,8,2.9
		c2.7,1.2,5.3,2.5,7.9,4C272.7,332.5,276,333.3,279.7,334.2z M222.7,336.1v0.1c0.9,0.1,1.9,0.2,2.8,0.2c1.2,0,2.4,0,3.6-0.2
		c2.6-0.5,3.4-1.5,3.6-4c0.1-1.3,0.1-2.7,0.2-4c0.1-3-0.9-5.8-2.4-8.3c-1-1.7-2.4-2.8-4.3-3.4c-3.1-1-6.3-1.4-9.5-1.2
		c-0.8,0-1.6,0.3-2.2,0.8c-2.1,1.7-4,3.5-5.2,6c-4.1,8.8,1.3,13.6,8.2,14C219.2,336.2,221,336.1,222.7,336.1z M301.7,682.4
		c-1.6-4.2-7.2-12.9-9.7-15c-5.2,3-10.8,5-16.7,6.3c-1,0.2-2.1,0.5-3,1c-1.9,1-2.2,2-1.4,3.9c0.4,0.8,0.8,1.7,1.3,2.4
		c2.1,2.9,4.1,5.9,5.4,9.3c0.1,0.2,0.4,0.3,0.7,0.7C286.7,689.8,294,685.4,301.7,682.4z M307.9,207.5c1.3,0,2.3,0.3,3.3,0.1
		c7.3-1.1,12.6-6,14.6-12.6c0.9-3.1,0.8-6.4-1.5-9.1c-2.3-2.7-5.3-4.4-9.2-4c-0.6,1.8-1.3,3.5-1.9,5.3c-1.5,4.5-2.9,9.1-4.7,13.6
		C307.8,202.9,307.3,204.9,307.9,207.5z M158.7,382.5c10.4,1.3,20.8,2.5,31.6,3.8c-1.7-2.1-3.4-3.6-4.9-5.2
		c-1.5-1.5-2.9-3.1-4.3-4.7c-1.5-1.7-2.9-3.5-4.4-5.2c-1.4-1.8-2.8-3.5-4.7-5c-0.5,0.4-0.9,0.7-1.3,1.1c-4,4.8-8.1,9.6-12.1,14.4
		C158.6,381.7,158.6,381.9,158.7,382.5z M141.1,49.9c-1.2-4.3-2.8-7.3-5.5-9.6c-5.8-4.9-12.4-7.8-20.1-8.2c-2.3-0.1-4.5,0.3-6.7,1.2
		c-1.3,0.5-2.5,1.3-2.6,2.8c0,1.3,1.2,2,2.2,2.6c3.1,1.8,6.4,2.7,9.8,3.3C126,43.4,133.5,45.2,141.1,49.9z M189.7,568.6
		c4.8,0.1,8.4-1.6,11.3-4.9c4.3-4.8,4.8-15.4-4.4-19c-8-3.1-16.2,1.3-18.5,8.5c-1.5,4.6-0.3,8.4,2.9,11.7
		C183.5,567.5,186.6,568.6,189.7,568.6z M235.7,384.4c-1.7,3-2.5,5.6-2.8,8.8c1.4,0.3,2.5,0.7,3.7,0.8c2.6,0.3,5.3,0.5,7.9,0.8
		c2.6,0.3,5.2,0.8,7.9,1.2c0-2.7,0-5.4,0-8.4C246.9,386.3,241.3,385.7,235.7,384.4z M248.9,410.1c-5.4-2-10.9-2.3-16.1-4
		c-0.6-0.2-1.3-0.1-2.1-0.1c-0.7,2.5-2.1,4.6-2.6,7.3c1,0.4,1.9,0.8,2.8,0.9c1.3,0.3,2.6,0.5,3.9,0.6c3.9,0.3,7.7,0.8,11.4,2.1
		c0.6,0.2,1.2,0.1,2,0.2C248.5,414.8,248.7,412.7,248.9,410.1z M125.8,514.9c0.2,0.1,0.5,0.2,0.7,0.3c0.3-0.4,0.6-0.8,0.8-1.2
		c2.1-4.7,3.3-9.5,3.5-14.7c0.2-6.4,0.5-12.8,0.7-19.2c0-0.5-0.1-0.9-0.1-1.4c-0.4,0.1-0.6,0.1-0.6,0.2c-2.4,5.8-4.3,11.7-4,18.1
		c0.2,3.2-0.2,6.4-0.4,9.6C126.2,509.3,126,512.1,125.8,514.9z M126.3,526.7c-0.2,0.1-0.5,0.2-0.7,0.2c-0.4,7-0.8,14-1.2,21
		c0,0.2,0.3,0.3,0.6,0.7c0.4-0.4,1-0.8,1-1.2c-0.2-3.1,1.4-5.6,2.4-8.3c1.4-3.7,2.1-7.5-1-10.8C126.9,527.8,126.6,527.2,126.3,526.7
		z"/>
	<path class="st0" d="M174.8,870.5c0.4-0.2,0.8-0.7,1.2-0.7c3.1-0.3,6.1-0.7,9.2-0.7c10.8,0.1,21.7,0.4,32.5,0.6
		c3.9,0.1,7.8,0.1,11.6,0.9c0.2,0,0.4,0.3,0.9,0.6c-18.6,0-36.9,0-55.2,0C174.9,871,174.8,870.7,174.8,870.5z"/>
	<path class="st0" d="M87.8,926c-5.6,2-34.3,4-42.4,3c1.5-0.3,2.3-0.4,3-0.5c6.8-0.6,13.6-1.1,20.4-1.7c4.3-0.4,8.5-0.9,12.8-1.2
		c1.5-0.1,2.9-0.1,4.4-0.1C86.4,925.4,86.7,925.6,87.8,926z"/>
	<path class="st0" d="M174.7,880.8c0.3-0.2,0.6-0.5,0.9-0.6c0.8-0.2,1.6-0.4,2.4-0.4c8.1,0,16.3,0,24.4,0.1c0.7,0,1.6-0.1,2.3,0.9
		c-4.4,0.9-8.7,0.9-13,1c-5.5,0.1-10.9,0.1-16.4,0.1c-0.2,0-0.4-0.3-0.5-0.5C174.7,881.1,174.7,881,174.7,880.8z"/>
	<path class="st0" d="M400.7,878.9c0.2-0.3,0.3-0.6,0.5-0.7c0.5-0.2,1-0.3,1.5-0.3c8.7,0.1,17.3,0.7,26,2.5c-0.3,1-1.1,0.8-1.6,0.8
		c-7.9-0.4-15.8-0.8-23.6-1.2C402.4,879.9,401.3,880,400.7,878.9z"/>
	<path class="st0" d="M79.1,934c-0.9,0.2-1.7,0.6-2.6,0.7c-4.3,0.7-21.2,1.1-25.6,0.6c9.9-1.7,19-2.2,28.1-2.1
		C79.1,933.4,79.1,933.7,79.1,934z"/>
	<path class="st0" d="M194.1,889.1c-5.3,1.2-10.7,2-16.2,1.8c-1.2,0-2.3-0.4-3.4-0.7c-0.1,0-0.3-0.5-0.2-0.7c0-0.2,0.2-0.5,0.4-0.6
		s0.5-0.2,0.7-0.2c5.6,0.1,11.1,0.2,16.7,0.3C192.8,889,193.5,889,194.1,889.1z"/>
	<path class="st0" d="M422.6,889.5c-4.3-0.3-8.7,0.4-13-0.3c-0.1,0-0.1-0.2-0.2-0.5c0.8-1,2-1.2,3.1-1.2
		C416,887.7,419.4,888.2,422.6,889.5z"/>
	<path class="st0" d="M216,465.4c0.1,0.2,0.2,0.4,0.3,0.6C216.2,465.8,216.2,465.6,216,465.4C216.1,465.4,216,465.4,216,465.4z"/>
	<path class="st0" d="M254,61.1c0.6,0,1.2-0.2,1.8,0c7.6,2.2,14.4,5.8,20,11.4c1.4,1.4,2.6,3.1,3.5,4.9c0.7,1.4,1.2,3,1.3,4.6
		c0.4,4.1-1.9,6.9-6,7.6c-2.7,0.4-5.3,0.1-7.9-0.6c-5.3-1.5-10.2-4-15-6.6c-7.8-4.4-14.9-9.9-21.4-16.1c-0.9-0.8-1.7-1.7-2.5-2.6
		c-0.3-0.3-0.4-0.7-0.6-1c0.5-0.7,0.9-0.3,1.3,0c3,2.4,6,4.9,9.1,7.2c7.7,5.9,15.9,10.9,24.8,14.7c2.9,1.3,5.9,2.5,9.2,2.6
		c1.1,0,2.2,0.1,3.2-0.1c2.8-0.4,4.3-2.2,3.9-5.1c-0.2-1.4-0.7-2.9-1.3-4.2c-1.2-2.5-3.1-4.4-5.1-6.1c-4.1-3.4-8.8-6.1-13.8-8.1
		c-1.5-0.6-3-1.2-4.5-1.7C254,61.6,254,61.4,254,61.1z"/>
	<path class="st0" d="M121.6,169.6c-0.4-0.6-0.8-1-0.9-1.4c-1.4-4.4-4.5-7.2-8.5-9.1c-5-2.4-9.8-0.3-11.3,5.1
		c-0.9,3.1-0.7,6.1,0.3,9.1c1.2,3.8,3.4,7,6.2,9.7c2.2,2.1,4.9,3.1,7.9,3.7c1.7,0.3,3.4,0.6,5.1,1c0.4,0.1,0.8,0.4,1.7,0.8
		c-0.7,0.4-1,0.6-1.3,0.6c-2.6,0.2-5.1,0-7.5-0.7c-3.4-1.1-6.5-2.7-8.6-5.6c-1.6-2.1-3-4.4-4.3-6.8c-1.9-3.4-2.1-7.2-1.7-10.9
		c0.7-5.4,5.5-9.5,10.5-9c0.8,0.1,1.6,0.3,2.3,0.5c4.3,1.6,7.6,4.4,9.7,8.6C122,166.7,122,166.8,121.6,169.6z"/>
	<path class="st0" d="M117,184.8c0.2-1.4,0.4-2.8,0.7-4.2c-1.6-1-3.6,0.3-5.2-1.6c1-0.1,1.7-0.2,2.4-0.3c0.8-0.1,1.5-0.2,2.9-0.4
		c-1.8-1.2-3.2-1.9-4.4-2.8c-1.2-0.9-2.2-1.9-3.3-2.9c-1.1-1.1-2.2-2.2-2.8-3.8c1.2-0.5,1.4,0.6,2,1c0.8,0.5,1.4,1.2,2.1,1.8
		c0.6,0.5,1.2,1,1.9,1.5c0.7,0.6,1.5,1.2,2.3,1.6c0.6,0.4,1.4,0.6,2.2,1c1.1-2.4-0.7-4.7,0.4-7c0.4,0.4,0.9,0.7,1.1,1.1
		c1.1,2.9,1.3,6,0.8,9.1C119.8,181.2,119.2,183.3,117,184.8z"/>
	<path class="st0" d="M266,207.2c-1.2-0.9-1.9-1.7-2.8-2.2c-4.9-2.6-7.8-6.8-9.5-11.9c-1.3-4-1.8-8.1-0.7-12.3
		c0.7-3.1,2.2-5.7,4.2-8c0-1.4-1.2-1.8-2-2.4c-1.7-1.5-3.4-3-4.4-5.1c-0.1-0.2,0.1-0.7,0.3-1c0.1-0.1,0.5-0.1,0.7-0.1
		c0.3,0.1,0.5,0.2,0.7,0.4c0.4,0.3,0.8,0.7,1.2,1c7.3,6.7,15.8,10.8,25.6,12.4c4,0.7,8,0.8,12,0.8c1.2,0,2.4-0.2,3.2,1.1
		c-0.5,1.6-2.4,1-3.5,2.1c0.9,4,1,8.2-0.3,12.6c1.7,0.1,3.1,0.2,4.8,0.4c-0.8,1-1.9,1.1-2.8,1.2c-3.7,0.5-7.4,1.1-10.7,3.2
		c-0.5,0.4-1.3,0.6-1.9,0.6c-4.3,0.4-7.7,2.8-11.1,5.1C267.8,205.8,266.9,206.5,266,207.2z M273.8,199.6c-0.9-0.8-1.5-1.3-2-1.9
		c-1.8-1.9-2.4-4.1-2.2-6.6c0.5-5.5,6.2-9.8,11.5-8.5c5.2,1.2,8.1,4.3,6.5,10.3c-0.1,0.4-0.3,0.8-0.3,1.1s0.2,0.6,0.4,1.5
		c0.6-1.3,1.1-2.1,1.3-2.9c0.5-2.9,0.7-5.9,0.1-8.8c-0.2-0.7-0.6-1.4-1-2.1c-5.3-0.1-10.3-0.7-15.2-2.1c-4.8-1.4-9.4-3.7-13.9-6.1
		c-0.8,1.1-1.5,1.9-2,2.8c-3.8,7.1-2.4,17.8,3.2,23.5c1.3,1.3,2.9,2.3,4.6,3.2c1.3,0.8,2.8,0.7,4.1-0.3
		C270.4,201.7,271.9,200.8,273.8,199.6z"/>
	<path class="st0" d="M175.4,196.6c1.3-1.8,3.4-1.3,5.1-1.5c1.7-0.2,3.4-0.2,5.3-0.3c-0.2-0.5-0.2-0.9-0.4-1.2
		c-3.5-3.8-5.4-8.2-5.2-13.5c0-0.4-0.2-0.8-0.3-1.3c-1.8-0.4-3.6-0.8-5.4-1.2c-0.8-0.2-1.4-0.6-2.1-1c-0.2-0.1-0.2-0.5-0.2-0.7
		s0.3-0.5,0.5-0.5c0.7,0,1.3,0,2,0.2c9.4,2.5,18.8,2.2,28.2,0.2c6.9-1.4,13.7-3.5,20.1-6.6c0.6-0.3,1.2-0.7,2.1-0.1
		c-1.8,2.5-5,2.8-7.5,4.6c0.1,0.6,0.2,1.4,0.4,2.1c2.8,9.9-1.6,18.7-11.2,22.3c-0.8,0.3-1.5,0.5-2.3,0.8c-0.6,0.2-1.2,0.5-1.8,0.8
		c1.8,2.1,5.1,2.2,5.9,5.3c-1.6,0.4-2.5-0.4-3.5-1c-3.1-1.9-6.3-3.5-9.7-4.7c-6-2.1-12.1-3.3-18.5-2.3c-0.4,0.1-0.8,0-1.2-0.1
		C175.7,196.9,175.6,196.8,175.4,196.6z M215.4,188.4c2.5-4.9,2.3-9.3,0.2-13.9c-3.7,1-7.3,2-10.9,2.8c-3.7,0.8-7.4,1.2-11,1.8
		c-3.7,0.6-7.4-0.3-11.1,0.6c-0.3,6.1,2.6,11.9,7.6,15.1c2.9,1.8,6.1,2.7,9.4,3c1.4,0.1,2.9,0.4,4.3-0.9c-0.7-0.4-1.3-0.6-1.9-0.9
		c-3.2-1.9-4.4-4.9-3.5-8.5c1.1-3.8,4.9-6.9,8.9-6.9c2.5,0,6.8,1.9,7.2,5.2C214.7,186.4,215,187.2,215.4,188.4z"/>
	<path class="st0" d="M191.8,171.1c-4.4,0.1-6.7,0.1-10.7-0.6c-1.1-0.1-2.1-0.5-3.1-0.8c-3.6-1.1-5.7-3.7-6.9-7.2
		c-1-3,1.6-7.3,5.4-6.1c1.4,0.4,2.9,0.6,4.3,1.1c3.7,1.4,7.3,1.3,11.1,0.6c4.5-0.9,8.7-2.6,12.9-4.4c4.8-2,9.7-3.9,14.9-4.4
		c1.6-0.2,3.2-0.2,4.8,0.1c1,0.2,2,0.9,2.7,1.6c1.4,1.5,1.3,3.6-0.1,5c-0.6,0.6-1.2,1.1-1.9,1.4c-3.9,1.9-7.2,4.6-10.4,7.4
		c-4.8,4.3-10.5,6.4-16.8,6.5c-1.5,0-2.9,0-4.4,0C193.5,171.6,192.8,171.1,191.8,171.1z M193.6,169.8c1.7,0,3.5,0.1,5.2,0
		c4.9-0.3,9.5-1.6,13.3-4.9c1.1-0.9,2.2-1.9,3.4-2.8c2.3-1.7,4.6-3.3,6.9-4.9c1-0.7,2-1.3,3-2c0.7-0.5,1.2-1.3,0.8-2.1
		c-0.3-0.6-1-1.4-1.7-1.5c-1.3-0.3-2.7-0.3-4-0.1c-4.8,0.7-9.4,2.2-13.8,4.1c-5.1,2.2-10.2,4-15.7,4.8c-3.2,0.5-6.4,0.6-9.5-0.4
		c-1.8-0.5-3.6-1-5.4-1.4c-1.6-0.3-2.9,1.1-2.6,2.7c0.1,0.4,0.2,0.8,0.3,1.1c1.1,3.5,3.6,5.3,7,5.9
		C185,169.4,189.3,170.2,193.6,169.8z"/>
	<path class="st0" d="M252.1,141.8c0.7,1.3-0.1,2-0.5,2.8c-3.3,6.6-5.6,13.6-7.4,20.7c-2.2,8.4-3.3,16.8-2.5,25.4c0.2,2,0.5,4,0.8,6
		c1.7,0.5,3.2,0.9,4.7,1.3c0,0.2,0,0.4,0,0.5c-1.2,0.1-2.4,0.2-3.7,0.3c-0.1,1.8,0.7,3,1.7,4.3c1.1,0.1,2.3,0.1,3.5,0.2
		c1.8,0.1,3.4,0.6,4.9,1.5c2.1,1.2,3.3,3,3.5,5.5c0.4,5-2.1,11-6.4,14.9c0.1-0.7,0-1.2,0.2-1.6c1.2-2.4,2.6-4.7,3.6-7.2
		c0.7-1.7,0.8-3.6,0.9-5.5c0.1-2.6-1.4-4.2-3.8-5.1c-2.3-0.8-4.7-0.9-7.1-0.5c-4.6,0.9-9,2.5-13.1,4.9c-2.1,1.2-4.1,2.5-6.2,3.8
		c-0.4,0.3-0.9,0.4-1.4,0.6c-0.5-1,0.3-1.4,0.7-1.8c4.5-4,9.5-6.9,15.3-8.5c0.9-0.3,1.8-0.6,2.6-0.9c0.1,0,0.2-0.2,0.4-0.5
		c-0.4-1.2-1-2.5-1.5-3.9c-1.9-0.1-3.4,0.5-4.9,1c-1.3,0.5-2.4,1.5-4.6,1.8c2.5-3.1,5.6-3.8,8.5-4.6c0.1-0.6,0.3-1,0.2-1.4
		c-2.2-11.2-1-22.1,2.2-32.9c1.7-5.5,3.3-11,5.9-16.2c0.7-1.4,1.5-2.8,2.3-4.2C251.2,142.4,251.7,142.2,252.1,141.8z"/>
	<path class="st0" d="M288.9,173c-1.4-0.1-2-0.1-2.5-0.2c-6.3-1.2-12.7-2-18.8-4c-2.9-1-5.8-2.1-8.3-3.9c-2.1-1.5-3.7-3.4-4.9-5.7
		c-0.7-1.4-0.9-2.8-0.9-4.3c0.1-2.9,1.7-4.8,4.6-5.2c2.3-0.3,4.6,0,6.6,1.1c1.8,1,3.5,2,5.2,3.1c2.9,1.8,6,2.9,9.4,2.8
		c3.5-0.1,6.9,0.3,10.3,1.1c3.1,0.7,5.7,2.2,7.8,4.7c3.3,4,1.2,7.7-2.3,9C292.8,172.4,290.4,172.7,288.9,173z M288,170.8
		c1.8-0.3,3.6-0.6,5.3-0.9c0.8-0.2,1.5-0.5,2.2-0.9c2-1.2,2.3-2.9,1-4.7c-1.4-1.9-3.2-3.3-5.4-4c-1.1-0.4-2.3-0.7-3.5-0.9
		c-2.8-0.4-5.6-0.7-8.3-0.9c-3.7-0.2-7.1-1-10.2-3.2c-1.4-1-2.9-1.9-4.5-2.6c-1.4-0.6-3-1.3-4.6-1.4c-3.2-0.2-5.7,1.6-4.3,5.6
		c0.9,2.4,2.4,4.5,4.6,6c1.2,0.8,2.5,1.7,3.8,2.1c3.7,1.3,7.3,2.6,11.1,3.4C279.4,169.5,283.7,170.1,288,170.8z"/>
	<path class="st0" d="M270.1,239.7c-0.3,0.3-0.4,0.4-0.5,0.4c-4.3-0.1-8.4,1-12.4,2.7c-3.2,1.3-6.6,2.2-10,2.9
		c-5.7,1.1-11.2,0.1-16.5-1.9c-2.7-1-5.4-2.3-8.1-3.5c-5.2-2.3-10.6-3.8-16.3-2.9c-0.5,0.1-1.1,0.1-1.6-0.1c-0.4-0.2-1-0.6-1.1-1
		s0-1.1,0.3-1.5c0.4-0.5,1-0.9,1.6-1.1c1.6-0.6,3.1-0.4,4.7,0c6.5,1.6,12.8,3.8,18.8,6.8c3.6,1.8,7.4,3,11.5,3.3
		c2.8,0.2,5.7,0.1,8.4-0.6c3.5-0.9,6.9-2,10.3-3.2c2.7-0.9,5.2-2,8.1-2C268.4,238.3,269.5,238.3,270.1,239.7z"/>
	<path class="st0" d="M228.6,221c-0.1-0.6-0.3-1.2-0.2-1.6c0.8-2.8,2.9-4.4,5.4-5.4c0.9-0.4,2,0.7,1.7,1.6c-0.2,0.8-0.5,1.5-1,2.1
		C233.1,219.6,231.2,220.7,228.6,221z"/>
	<path class="st0" d="M245.8,220.4c0.4-1.2,0.8-2.6,1.4-3.8c0.2-0.4,1.1-0.7,1.6-0.8c0.4,0,0.9,0.5,1.1,1c0.8,2-0.4,5.1-2.3,6.2
		c-0.3,0.1-1.1-0.1-1.3-0.5C246.1,222,246,221.3,245.8,220.4z"/>
	<path class="st0" d="M271.1,210.1c0.8-0.5,1.3-1,1.8-1c0.8-0.1,1.1,0.6,1.1,1.3c-0.1,0.7-0.6,1.3-1.3,1.1
		C272.2,211.3,271.8,210.7,271.1,210.1z"/>
	<path class="st0" d="M203.4,218.5c-0.6-0.7-1.1-1.1-1.2-1.6c-0.1-0.8,0.5-1.4,1.4-1.4c0.8,0,1.4,0.5,1.2,1.1
		C204.7,217.3,204,217.7,203.4,218.5z"/>
	<path class="st0" d="M285.8,207c-0.3,0.2-0.8,0.6-1.3,0.7c-0.3,0-0.8-0.6-0.9-1c-0.2-0.8,0.5-1.2,1.2-1.3
		C285.3,205.2,285.9,206,285.8,207z"/>
	<path class="st0" d="M187.8,204.8c-0.6-0.6-1.1-0.8-1.3-1.2c-0.3-0.6,0.4-1.5,1-1.3c0.4,0.1,0.8,0.6,0.9,1
		C188.6,203.6,188.2,204.1,187.8,204.8z"/>
	<path class="st0" d="M171,199.8c0.3,0.7,0.7,1.2,0.6,1.5c-0.1,0.4-0.6,0.9-1,1c-0.5,0.2-1.2-0.8-1-1.4
		C169.9,200.6,170.4,200.4,171,199.8z"/>
	<path class="st0" d="M296.5,205.7c-0.7,0.4-1.1,0.9-1.4,0.9c-0.4,0-0.7-0.6-1-0.9c0.3-0.3,0.7-0.9,1-0.9
		C295.5,204.8,295.9,205.3,296.5,205.7z"/>
	<path class="st0" d="M284.6,213.7c-0.6,0.5-1,1-1.3,1c-0.4,0-1-0.3-1.2-0.6c-0.3-0.5,0.4-1.4,1-1.2
		C283.5,212.9,283.9,213.3,284.6,213.7z"/>
	<path class="st0" d="M179.6,210.4c-0.6-0.5-1-0.7-1.2-1.1c-0.3-0.5,0.4-1.4,1-1.2c0.4,0.1,0.9,0.5,1,0.9
		C180.4,209.3,180,209.8,179.6,210.4z"/>
	<path class="st0" d="M192.8,211.1c0.4,0.4,0.7,0.6,0.9,0.8c-0.2,0.3-0.4,0.6-0.7,0.8c-0.1,0-0.5-0.3-0.6-0.5
		C192.4,212,192.6,211.6,192.8,211.1z"/>
	<path class="st0" d="M200.9,207.5c-0.6,0.3-0.9,0.6-1.1,0.5c-0.3-0.1-0.3-0.6-0.5-0.9c0.2-0.1,0.5-0.3,0.7-0.3
		C200.2,206.9,200.4,207.2,200.9,207.5z"/>
	<path class="st0" d="M277.4,219.2c-0.4,0.3-0.8,0.6-1,0.5c-0.3,0-0.4-0.5-0.7-0.7c0.3-0.2,0.6-0.6,0.8-0.6
		C276.7,218.4,277,218.8,277.4,219.2z"/>
	<path class="st0" d="M293.2,213.8c-0.2,0.1-0.4,0.2-0.7,0.3c-0.1-0.2-0.2-0.5-0.3-0.7c0.2-0.1,0.5-0.3,0.7-0.3
		C293,213.2,293.1,213.6,293.2,213.8z"/>
	<path class="st0" d="M278.5,205c-0.1,0.1-0.2,0.2-0.3,0.2c-0.1-0.2-0.2-0.4-0.3-0.6c0,0,0.2-0.1,0.3-0.2
		C278.3,204.6,278.4,204.8,278.5,205z"/>
	<path class="st0" d="M186.5,527.9c0.7,0.5,1.5,1,2,1.7c0.6,0.7,0.8,1.6,0.2,2.6c-0.5,0.9-1.3,1.4-2.3,1.2c-1-0.1-1.6-0.8-1.9-1.8
		C184.1,529.8,184.5,529,186.5,527.9z M186.9,530.8c-0.1-0.1-0.2-0.2-0.2-0.3c-0.1,0.2-0.2,0.3-0.3,0.5l0.2,0.2
		C186.6,531.1,186.8,531,186.9,530.8z"/>
	<path class="st0" d="M190,520.8c-0.3,0.3-0.6,0.9-1.1,1.2c-1,0.6-2.1,0.4-2.8-0.5c-0.9-1-0.9-2.3,0-3.2c0.2-0.2,0.4-0.4,0.7-0.4
		C187.9,517.5,190.1,519.2,190,520.8z"/>
	<path class="st0" d="M190.7,509.9c0,0.9-0.7,1.9-1.5,2.1c-0.9,0.2-1.6-0.1-2.1-0.8c-0.1-0.1-0.1-0.2-0.2-0.3
		c-0.7-1.1-0.3-2.1,0.3-3c0.2-0.3,1-0.5,1.4-0.4C189.8,507.6,190.6,508.7,190.7,509.9z M189.1,509.8c-0.1-0.1-0.3-0.3-0.4-0.4
		c-0.1,0.1-0.2,0.2-0.2,0.3c0.1,0.2,0.3,0.3,0.4,0.5C188.9,510,189,509.9,189.1,509.8z"/>
	<path class="st0" d="M297.9,568.9c-1.1-0.3-1.9-0.6-2.8-1c-0.5-0.2-1-0.5-1.3-0.9c-0.8-1.1-0.7-2.3-0.2-3.4
		c0.8-1.5,1.9-2.7,3.7-2.7c1.2,0,2.2,0.7,2.5,1.7c0.4,1.2,0.4,2.6,0.4,3.9C300.1,567.8,299.2,568.5,297.9,568.9z M298,564.7
		c-0.4-0.3-0.8-0.6-1-0.6c-0.3,0-0.5,0.5-0.7,0.7c0.3,0.2,0.5,0.6,0.8,0.6C297.3,565.4,297.6,565,298,564.7z"/>
	<path class="st0" d="M81.5,583.9c-0.3,0-1,0-1.6-0.3s-1.2-0.7-1.5-1.2c-1.4-2.1,0.1-5.9,2.6-6.5c1.4-0.3,3.4,0.7,4.3,2.3
		C87,580.9,85.3,583.8,81.5,583.9z M83.3,580.7c0.2-1.2-0.6-2.3-1.5-2.2c-0.4,0-0.9,0.5-1,0.9c-0.3,1.2,0.2,2.1,1.1,2
		C82.4,581.3,82.9,580.9,83.3,580.7z"/>
	<path class="st0" d="M222,555.2c-0.2-0.2-0.8-0.5-0.9-0.9c-0.3-0.7,0.6-1.9,1.6-1.8c0.4,0,1,0.5,1.1,0.8
		C224.1,554.2,223.2,555.2,222,555.2z"/>
	<path class="st0" d="M214.2,556.1c-0.2,0.2-0.5,0.7-0.8,0.8c-0.7,0.3-1.5-0.1-1.4-0.8c0-0.4,0.4-1,0.7-1.2
		C213.3,554.7,214,555.2,214.2,556.1z"/>
	<path class="st0" d="M173.2,405.4c0,1.8-0.8,3.1-2.1,3.4s-3-0.5-3.7-1.8c-0.3-0.5-0.4-1.3-0.2-1.9c0.6-1.8,3.2-2.9,4.9-2.1
		C173.1,403.6,173.2,404.5,173.2,405.4z M170.3,404.6c-0.4,0.5-0.7,0.8-0.9,1.2c0,0.1,0.4,0.6,0.8,0.6c0.7,0.1,0.8-0.4,0.8-0.9
		C171,405.3,170.7,405,170.3,404.6z"/>
	<path class="st0" d="M147.1,308.8c-0.4,0.6-0.7,1.2-1.2,1.6c-0.9,0.8-1.9,0.8-3,0.4c-1.2-0.5-1.9-1.9-1.8-3.3
		c0.1-0.9,0.5-1.5,1.3-1.9c1.3-0.5,2.7-0.2,3.6,0.9C146.4,307.3,146.7,308,147.1,308.8z M144.5,308.2c-0.2-0.1-0.4-0.2-0.6-0.3
		c0,0.1-0.1,0.3-0.1,0.4s0.2,0.3,0.2,0.3C144.2,308.5,144.4,308.4,144.5,308.2z"/>
	<path class="st0" d="M277.1,326.4c-1.3,0-2.3-1.1-2.4-2.7c0-1.5,1-2.5,2.5-2.5c1.3,0,2.6,0.9,2.7,2
		C280,324.8,278.7,326.4,277.1,326.4z"/>
	<path class="st0" d="M190.9,565.3c-7,0.3-11-6.6-7.8-13c1.8-3.7,6.2-6,10-5.3c3.4,0.6,5.9,2.2,7.1,5.7c1.3,3.8,0.6,7.1-2.4,9.9
		C195.8,564.4,193.6,565.4,190.9,565.3z M192.9,549c-3.8,0.1-6.3,1.7-7.8,4.6c-2.4,4.7,0.8,9.9,6,9.9c3.8,0,7-2.9,7.8-6.8
		c0.7-3.3-0.7-5.8-3.7-7.1C194.3,549.2,193.4,549.1,192.9,549z"/>
	<path class="st0" d="M234.9,410.2c0.9,0,1.7,0.8,1.7,1.8s-0.8,1.9-1.6,1.9c-0.9,0-2.1-1-2.2-1.9
		C232.6,411.1,233.7,410.2,234.9,410.2z"/>
	<path class="st0" d="M186.9,530.8c-0.1,0.2-0.2,0.3-0.3,0.5c-0.1-0.1-0.3-0.2-0.2-0.2c0.1-0.2,0.2-0.3,0.3-0.5
		C186.7,530.6,186.8,530.7,186.9,530.8z"/>
	<path class="st0" d="M189.1,509.8c-0.1,0.1-0.1,0.2-0.2,0.3c-0.2-0.2-0.3-0.3-0.4-0.5c0,0,0.1-0.2,0.2-0.3
		C188.8,509.5,188.9,509.6,189.1,509.8z"/>
	<path class="st0" d="M298,564.7c-0.4,0.3-0.7,0.7-0.9,0.7c-0.3,0-0.5-0.4-0.8-0.6c0.2-0.3,0.4-0.7,0.7-0.7
		C297.3,564.1,297.6,564.4,298,564.7z"/>
	<path class="st0" d="M83.3,580.7c-0.3,0.2-0.8,0.6-1.4,0.7c-0.9,0.1-1.4-0.8-1.1-2c0.1-0.4,0.6-0.9,1-0.9
		C82.7,578.5,83.4,579.5,83.3,580.7z"/>
	<path class="st0" d="M170.3,404.6c0.3,0.5,0.7,0.7,0.7,1c0,0.5-0.2,1-0.8,0.9c-0.3-0.1-0.8-0.5-0.8-0.6
		C169.6,405.4,169.9,405.1,170.3,404.6z"/>
	<path class="st0" d="M144.5,308.2c-0.2,0.1-0.4,0.2-0.6,0.3c0,0-0.2-0.2-0.2-0.3c0-0.1,0.1-0.2,0.1-0.4
		C144.1,308,144.3,308.1,144.5,308.2z"/>
</g>
</svg>
