<?xml version="1.0" encoding="utf-8"?>
<!-- Generator: Adobe Illustrator 23.0.2, SVG Export Plug-In . SVG Version: 6.00 Build 0)  -->
<svg version="1.1" id="Layer_1" xmlns="http://www.w3.org/2000/svg" xmlns:xlink="http://www.w3.org/1999/xlink" x="0px" y="0px"
	 viewBox="0 0 478.9 1043.7" style="enable-background:new 0 0 478.9 1043.7;" xml:space="preserve">
<style type="text/css">
	.st0{fill:#78863F;}
</style>
<g>
	<path class="st0" d="M386.9,922.2c-1.4,2.4-2.8,4.8-4.2,7.2c-0.6,1-1,2.2-1.8,3c-2.3,2.6-2.6,5.7-3.2,8.8c-1.1,5.6-0.6,11,0.9,16.4
		c0.3,1,0.4,2,0.7,3c1.1,4.5,1,8.9-0.3,13.3c-0.7,2.2-1,4.5-1.2,6.8c-0.2,2.8,0.1,5.4,1.3,8.1c2.6,5.6,2.5,11.6,2.2,17.6
		c-0.1,1.8-1,2.9-2.5,3.8c-1.4,0.8-3,1-4.6,1.2c-2.4,0.3-4.9,0.8-7.3,1.1c-4.3,0.5-8.7,1-13,1.4c-2.6,0.2-4.7-1.3-7-2.7
		c-0.6,0.3-1.3,0.4-1.9,0.8c-1.9,1.2-3.9,1.2-5.9,0.7c-3-0.7-5.9-1.6-9-1.1c-1.4,0.2-2.5-0.6-3.3-1.8c-1.6-2.4-2.1-5.1-2.2-7.9
		c-0.1-5.1-0.2-10.1,0-15.2c0.1-3.2,0.7-6.3,2.1-9.3c1.3-2.6,2.4-5.3,3.7-7.9c1.5-3.3,2.1-6.6,1.3-10.2c-0.9-4.1-1.6-8.3-2.2-12.5
		c-0.4-2.4-0.6-4.9-0.9-7.7c-3.4-1.6-5.9-4.2-7.9-7.5s-2.8-7-3.2-11c-1-0.2-1.9-0.5-2.9-0.5c-11.3-0.5-22.7-1.1-34-1.6
		c-17.3-0.8-34.6-1.5-51.9-2.3c-7.7-0.3-15.4-0.7-23.3-1.1c-0.5,0.7-1,1.6-1.7,2.3c-1.4,1.7-2.7,3.4-4.4,4.8
		c-1.6,1.3-2.4,2.9-2.8,4.8c-0.5,2.6-0.6,5.2,0.3,7.8c1.8,5.1,1.9,10.2,0.2,15.4c-1.1,3.3-0.6,6.6,0.2,9.9c0.6,2.3,1.1,4.5,1.6,6.8
		c0.8,3.9,1,7.8,0,11.7c-0.6,2.3-0.9,4.5,0.2,6.8c0.5,1.1,0.5,2.6,0.4,3.8c-0.1,2.8-0.3,5.5-0.5,8.3c-0.1,1.9-0.6,2.5-2.6,2.9
		c-1.8,0.4-3.7,0.8-5.6,1.1c-3.7,0.6-7.4,1.3-11.2,1.8s-7.5-0.5-11.1-1.5c-1.3-0.4-2.3-1.7-3.7-2.7c-0.4,0.3-1,0.7-1.4,1.2
		c-0.8,0.8-1.7,1.1-2.8,1c-2.2-0.1-4.4-0.1-6.5-0.6c-4.2-1-8.5-2.1-12.6-3.7c-6.4-2.4-6.6-3.4-4.7-9.3c1.3-3.7,2.6-7.4,5.1-10.8
		c-1.7-5.6,0.1-10.8,1.8-16.1c1.3-3.9,2.2-7.8,2.1-12c-0.1-4.6,1-8.9,3.3-12.9c1-1.7,1.7-3.7,2.3-5.6c0.9-2.9,0.9-5.7-1-8.3
		c-0.5-0.7-1-1.5-1.2-2.3c-0.4-2.5-1.6-4.6-3.4-6.4c-0.6-0.6-0.9-1.5-1.2-2.3c-0.6-1.8-1.1-3.6-1.6-5.5c-1.3-5.1-0.9-10.1,0.6-15.1
		c1.5-4.9,3.5-9.6,4.1-14.7c0.2-1.9,0.6-3.7,0.8-5.6c0.9-11.2,3.2-22.2,5.9-33c2.3-9,4.5-18.1,5.6-27.3c0.6-5.4,0.9-10.8,0.3-16.1
		c-1.1-9.5-0.5-18.9,1.1-28.2c1.2-6.7,1.9-13.5,3-20.3c0.2-1.4-0.3-2.6-0.8-3.8c-3.3-8.3-5.2-17-5.8-25.9c-0.4-6.7-0.7-13.4-0.6-20
		c0.1-11.5,0.9-23,2-34.4c0.6-6.2,0.9-12.5,1.4-18.7c0.8-10,1.5-20,2.3-30c0.5-6.5,0.9-13.1,1.7-19.6c0.9-7.8,2.5-15.5,3.4-23.3
		c1.1-8.8,3.2-17.5,4.6-26.2c0.7-4.4,1.1-8.9,1.7-13.4c0.1-0.4,0.2-1,0-1.3c-1.9-2.8-0.7-6.3-2.4-9.2c-5.6-9.3-6.9-19.3-4.6-29.8
		c0.9-3.8,1.6-7.7,2.8-11.4c5.3-16.5,7.3-33.5,7.2-50.8c0-6.3,0.4-12.5,1.6-18.7c0.8-4.1,1.8-8.2,2.9-12.3c2.3-8.4,4-17,5.7-25.5
		c1.3-6.6,2.6-13.1,4.1-19.7c1.2-5.6,1.5-11.2,1.9-16.9c0-0.4-0.2-0.8-0.3-1.2c-1-0.7-1.7,0.1-2.4,0.5c-6.8,4.1-13.7,8.4-20.5,12.5
		c-6,3.6-12.2,6.9-18.9,8.9c-4.3,1.2-8.7,2.2-13.2,3c-5.6,1-11.2,1.8-16.7,3.4c-2.4,0.7-4.8,1.3-7.2,1.6c-2.7,0.3-5,1.4-7.2,2.9
		c-4.2,2.9-8.3,5.9-12.6,8.7c-3.5,2.3-7.1,4.5-10.7,6.7c-5.5,3.3-11.6,4.5-17.9,4.8c-2.8,0.1-5.5-0.5-8.1-1.3
		c-1.6-0.5-3.3-1.3-4-3.4c0.8-0.8,1.7-1.4,2.4-2.3c0.7-0.8,1.1-1.7,1.6-2.6c3.4-6.7,3-13.2-1.3-19.4c-2.5-3.6-5.8-6.5-9.1-9.4
		c-3.9-3.3-8-6.3-11.8-9.7c-9.1-7.9-14.9-17.7-16.7-29.8C17.1,297.4,19.1,287,23,277c5.7-14.8,13.7-28.3,24.8-39.7
		c5.8-5.9,9.4-12.9,12.1-20.4c3.4-9.5,5.3-19.3,6.4-29.3c1-8.4,2.2-16.7,3.3-25.1c0.6-4.6,0.9-9.3,0.5-13.9
		c-0.2-2.5-0.4-4.9,0.1-7.4c0.3-1.3,0.1-2.6,0.1-3.9c-0.7-11.7,0.1-23.3,1.3-34.9c0.3-3,0.9-6,1.4-9c0.7-3.6,1.5-7.1,2.3-10.7
		c2.3-9.5,6.5-18.1,12.3-25.8c7.6-10.3,17.2-18.1,28.8-23.4c5.4-2.5,11.1-4.4,17.1-5.1c5.6-0.7,11.1-0.8,16.2,2.8
		c0.4-1,0.7-1.7,0.9-2.5c1.2-5.9,4-11.2,7.1-16.3c2.4-4,5.9-6.8,10.1-8.7c5.1-2.3,10.4-3.6,16-3.8c10.2-0.4,20,1.5,29.6,4.4
		c12.9,4,25.3,9.4,37.7,15c23,10.4,44.8,22.8,66,36.5c9.4,6.1,18.7,12.3,28.2,18.3c3.2,2,6.4,3.9,9.3,6.4c6.4,5.5,11.4,12,14.8,19.8
		c6,13.7,7.6,27.9,5.9,42.7c-1.1,10-3.5,19.8-6.6,29.3c-2.4,7.4-3.6,15-4.4,22.7c-0.5,4.5,0.5,8.6,3,12.4c2.8,4.3,6.1,8.1,10.7,10.6
		c4.3,2.3,8.7,3.1,13.5,2.4c1.3-0.2,2.5-0.3,3.6-0.5c1,0.8,0.9,1.6,0.5,2.2c-4.4,5.4-8.4,11.2-14,15.5c-4.8,3.7-10,6.5-15.8,8.1
		c-0.4,0.1-0.8,0.4-1.4,0.6c0.1,0.5,0.1,1.1,0.3,1.6c2.5,5.2,3.6,10.7,4.5,16.3c0.4,2.4,1.1,4.8,1.6,7.2c0.1,0.4,0.3,0.8,0.3,1.3
		c0.1,5.4,2,10.3,4.2,15c4.5,10,6.5,20.5,6.4,31.4c0,3.9,0,7.9,0,11.8c-0.1,12.5-5.7,22-15.7,29.1c-2.4,1.7-4.9,3-7.8,3.8
		c-3.2,0.9-6.3,1-9.5,0.4c-4.3-0.9-8.4-2.4-12.1-4.9c-5.4-3.7-11-7-16.9-9.9c-2.2-1.1-4.2-2.5-6.4-3.7c-1.5-0.8-2.9-1.9-4.9-2.1
		c0,0.9-0.1,1.6,0,2.3c0.5,4,1.2,8.1,1.4,12.1c0.2,3.9,0.3,7.9-0.1,11.8c-1.4,13.7-0.1,27,4.2,40c0.3,1,0.6,2,0.9,2.9
		c2.4,5.8,2.7,11.9,1.9,18c-1.5,10.4-0.3,20.6,2.6,30.6c1.6,5.7,2.8,11.6,4.2,17.4c0.8,3.4,0.6,7,0.5,10.4c-0.1,3-0.3,6.1-0.6,9.2
		c-0.3,3.2-0.3,6.3,0.6,9.5c1.1,4,0.7,8.1,0.3,12.2c-0.2,1.5-1.2,2.9-1.9,4.8c0.2,0.5,0.4,1.5,0.8,2.4c2.8,6.4,5.6,12.8,8.4,19.2
		c7.6,17.3,14.2,35,18.6,53.5c2.5,10.8,4.6,21.6,6.4,32.5c2.1,12.6,3.5,25.4,4.7,38.1c0.9,9.7,1.4,19.4,2.2,29.2
		c0.9,12,1.8,24.1,2.9,36.1c1,11.3,1.3,22.7,0.8,34c-0.4,10.5,0.5,20.9,1.5,31.3c0.1,0.6,0.2,1.2,0.3,1.7c1.2,5.3,1.7,10.6,1.1,16
		c-0.5,5,0.2,9.9,1.3,14.7c2.7,12,4.2,24.1,4.9,36.3c0.7,10.9,3,21.3,7.6,31.2c2.6,5.6,4.2,11.5,4.1,17.9c1.1,0.2,2.1,0.4,3,0.4
		c11.8,0.5,23.5,1,35.3,1.6c5.8,0.3,11.6,0.6,17.4,0.9c10,0.4,20.1,0.8,30.1,1.2c1.3,0,2.6,0.1,3.9,0.2c0.9,0.1,1.5,0.9,1.4,1.9
		c0,0.9-0.7,1.6-1.7,1.7s-2,0-3.1,0c-17-0.8-34-1.5-51-2.4c-10-0.5-20-1.1-30.1-1.7C391,922.6,389,922.4,386.9,922.2z M219.4,405.6
		c0-0.3,0-0.6,0-0.9C219.4,405,219.4,405.3,219.4,405.6c1,2.3,1.1,5,2.9,7c0.3-2.7-0.1-5.2-2.5-7
		C219.7,405.6,219.5,405.6,219.4,405.6z M299.2,556.2l-0.1-0.1c0.5,5.8,1.9,11.5,4.7,16.6c2.7,5,5.8,9.7,8.8,14.5
		c1.5,2.5,3.7,3.9,6.5,4.7c6,1.6,12.1,1.6,18.1,0.4c2.2-0.4,4.5-1.1,6.3-2.5c0.1-0.5,0.2-0.8,0.2-1c-0.3-1.3-0.6-2.6-0.9-3.8
		c-4.5-14.8-10.2-29-16.3-43.2c-0.3-0.6-0.8-1.1-1.2-1.6c-2.9,1.7-2.9,1.7-5.2,1.7c1.7-1.4,3.1-2.6,4.7-3.9
		c-0.4-0.5-0.8-1.1-1.2-1.7c-0.7,0.5-1.2,0.8-1.6,1.2c-5.7,5.2-12.4,8.6-19.6,11c-4.9,1.6-4.4,1.1-3.6,6
		C298.7,555.1,299,555.7,299.2,556.2z M139.6,217.4c-2.3-0.3-2.4-3.1-4.6-3.9c-3.7,4-6.9,8.3-9.9,12.7c-1.2,1.7-1.1,3.6-0.1,5.4
		c0.9,1.5,2,2.9,3.2,4.1c5.4,5.6,11.9,9.8,19,13c1.5,0.6,2.9,1.3,4.8,0.9c1.3-1.4,2.6-2.9,4.1-4.3c2.9-2.6,4.4-2.1,5.2,1.9
		c0.4,1.8,0.3,3.8,1.2,5.5c2.4,0.9,4.6,0,6.9-0.3c2.6-0.3,3.8-1.9,4.2-4.3c0.7-4.3,0.9-8.7,0.2-13c-0.1-0.8-0.4-1.6-0.6-2.4
		c-2.5-0.5-4.9,0.4-8.2-0.9c1.7-0.2,2.3-0.3,3-0.4c1.2-0.1,2.3-0.3,3.4-0.5c0.6-0.1,1-0.5,0.7-1.4c-1.6,0.1-3.3,0.4-5,0.3
		c-1.6,0-3.5,0.5-5-1.1c2.5-1.7,5.3,0.8,7.4-0.8c0.8-2.8,1.5-5.5,2.2-8.1c0.6-2.4,1.6-4.8,1.8-7.2c0.2-2,0.8-3.6,2-5.1
		c4.3-5.7,6.1-12.1,6-19.2c0-0.9,0-1.7,0.1-2.6c0.1-2.9,0.1-5.8,0.1-8.7c0.1-4.7,1.1-9.3,3.4-13.4c2-3.6,4.2-7,6.3-10.4
		c1.4-2.4,2.9-4.7,4.3-7.1c0.7-1.1,1.2-2.5,0.2-3.7c-1-1.3-2.4-0.6-3.6-0.1c-2,0.8-4,1.9-5.4,3.6c-1.6,1.9-3.1,3.8-4.7,5.7
		c-0.4,0.6-0.8,1.3-1.3,1.7c-0.4,0.3-1.1,0.6-1.5,0.4c-0.5-0.1-1.1-0.7-1.1-1.1c-0.1-1.9-0.3-3.8,0.1-5.6c0.4-2.1,1.3-4.2,2.2-6.1
		c1.5-3.1,3.2-6.2,4.8-9.3c0.8-1.7,1.6-3.4,2.1-5.2c0.4-1.5,0.7-3.1-0.4-4.4c-1.8-0.3-3,0.7-4.2,1.5c-2.8,1.9-5.2,4.3-7.1,7.1
		c-2.7,4-5.2,8.1-7.6,12.2c-1.3,2.2-2.4,4.6-3.7,6.9c-0.2,0.4-0.8,0.6-1.3,0.9c-0.7-1.7,0.1-2.8,0.6-4c3.9-8.8,8.6-17.2,15.7-23.9
		c1.3-1.2,2.2-2.7,2.7-4.4c0.4-1.5,1.2-3.2-0.5-4.4c-1.5-1.1-3.2-0.4-4.5,0.4c-6.8,4.4-12.9,9.4-15.8,17.5c-1.3,3.7-2.8,7.3-4.2,11
		c-0.2,0.6-0.6,0.9-1.4,0.5c-0.1-3.8,0.9-7.3,2.6-10.8c0.9-2,1.9-3.9,2.6-6c0.7-2.1,1.3-4.2,0.1-6.3c-1.6-0.8-2.9-0.2-4.2,0.6
		c-2.1,1.3-3.8,3.1-5.4,5.1c-6.1,7.8-10.6,16.3-12.1,26.2c-0.1,0.9-0.5,1.9-1,3.5c-0.6-1.6-1-2.6-1.3-3.5c-0.6-1.6-1.2-3.3-1.9-4.9
		c-0.5-1-0.9-2.2-2.3-2.4c-0.8-0.1-1.5,0.9-1.4,3.3c0.1,6.6-1.1,13-2.9,19.3c-1.4,4.7-1.6,9.4-0.7,14.2c1.5,7.9,5.4,14.6,10.4,20.8
		c1.3,1.6,2.7,3.1,3.9,4.7c1.3,1.7,1.3,2.6,0,4.6c-0.3,0.5-0.6,0.9-1,1.5c4.4,5.9,10.4,9.7,16.7,13.9c-0.9,0.3-1.3,0.5-1.6,0.4
		c-1.4-0.6-3-1.2-4.3-2.1c-5.1-3.6-10-7.5-13.6-12.8c-0.2-0.3-0.7-0.5-1.3-1.1c0.1,0.8-0.1,1.4,0.2,1.9c0.7,1.4,1.5,2.8,2.3,4.2
		L139.6,217.4z M207.7,346.6c-0.1,0.7-0.3,1.3-0.4,2.1c1.8,0.9,3.7,0.8,5.6,1c4.1,0.4,4.1,0.5,5.7-0.4c-1.1-1.5-2.1-3.1-3.2-4.6
		c-0.5-0.6-1.2-1.1-2-1.8c-1.3,1-2.3,2-3.5,2.8c-0.7,0.5-1.5,0.8-2.3,1.1c1.7-2.6,3.9-4.5,6.8-5.1c2.4,1.6,3.1,4.4,5.7,6
		c3.5-6.7,7-13.1,10.3-19.5c1-1.9,1.7-4,2.3-6.1c0.7-2.6,1.6-5.3,1-7.9c-2.1-2.1-4.6-3-7-3.8c-4.5-1.5-8.5-3.7-11.6-7.4
		c-0.2-0.2-0.5-0.2-0.8-0.3c-6.2,0.6-12.4,1.3-18.4,3.3c-2.5,0.8-4.9,1.7-7.5,2.5c-1.4,0.4-2.8,0.8-4.3,0.9c-3.5,0.3-5.3-1.6-4.8-5
		c0.2-1.6,0.8-3.1,1.1-4.7c0.2-1,0.3-1.9,0.6-3.1c-3.7-0.3-6.9,0.6-9.9,2c-4.2,2-8.5,3.8-13.2,4.5c-0.7,0.1-1.4,0.4-2.1,0.6
		c-2.4,0.6-3.5,2-4.1,4.5c-0.9,4.1-2.2,8.1-3.3,12.2c-0.2,0.6-0.5,1.4-1.7,1c0.4-2.8,0.8-5.7,1.5-8.5c0.9-3.7,2-7.3,2.5-11
		c0.8-4.9,2.1-9.6,4-14.2c3.2-7.7,5.8-15.5,7.8-23.6c0.7-2.7,0.9-5.4,0.5-8.5c-2.6-0.3-3.1-2.3-3.4-4.4c-0.2-1.5-0.1-3.2-1.2-4.6
		c-1.7,0.5-2.8,1.7-3.6,3.1c-1.5,2.7-3.7,3-6.3,2.2c-1-0.3-1.9-0.6-2.9-1c-5.9-2.5-11.4-5.9-16-10.4c-0.7-0.7-1.5-1.2-2.5-2
		c-0.7,1.1-1.3,1.9-1.8,2.7c-8.8,16.5-15.6,33.8-19.4,52.1c-1.4,6.7-2.7,13.4-2.3,20.3c0.4,7.8-0.4,15.4-1.7,23
		c-0.5,2.9-0.8,5.8-0.9,8.7c-0.2,4,0.3,7.9,2.1,11.5c1.9,3.7,4.8,5.3,8.9,4.5c3.6-0.7,7.1-1.6,10.6-2.3c4.1-0.9,8.2-1.8,12.4-2.4
		c11.1-1.5,21.6-4.5,31.3-10.3c7-4.2,14-8.4,21-12.5c1.5-0.9,3-1.8,4.5-2.6c1.1-0.6,1.7-1.4,2.2-2.6c1.1-3,2.3-6,3.4-9
		c0.2-0.6,0.5-1.4,1.8-1c0.1,2.7-0.7,5.4-1.6,7.9c-0.9,2.7-1.2,5.3-1.2,8.1c0,6.7-0.6,13.3-2.2,19.9c-1.4,5.8-2.5,11.7-3.5,17.5
		c-1.7,9.8-3.9,19.4-6.6,28.9c-2.2,7.9-3.4,15.9-3.6,24.1c-0.1,4.5-0.2,9-0.4,13.5c-0.4,12.3-2.1,24.3-5.8,36.1
		c-2,6.2-3.7,12.5-4.7,19c-1.3,8.3-0.1,16.2,3.6,23.8c0.9,1.8,2,2.7,3.9,3c3.4,0.5,6.7,0.3,9.9-0.7c2.8-0.9,5.5-1.9,8.2-2.9
		c11.4-4.6,23.2-6.5,35.4-5.7c1.3,0.1,2.5,0,3.9-0.1c0.7-2.1,0.4-4,0.4-5.8s0-3.5,0-5.2c0-1.9,0-3.8,0.1-5.7c0.1-1.8-0.1-3.7,1-5.4
		c0.3,7.5,0.4,15,0.8,22.7c2.9,0.7,5.6,1.2,8.3,1.4c0.5,0,1.1-0.2,1.6-0.3c0-1.8,0-3.4,0-4.9c0.1-1.6,0.2-3.2,0.3-4.8
		c0.5-6.3,0.6-12.5,0-18.7c-0.8-8.3-0.7-16.6-0.1-24.8c0.6-8.9,0.8-17.7,0.1-26.6s-1.3-17.7-1.9-26.5c0-0.3-0.2-0.6-0.5-1.2
		c-0.3,0.8-0.4,1.2-0.5,1.6c-1.4,8.4-1.6,16.8-0.4,25.2c0.2,1.4,0.4,2.9,0.5,4.3c0,0.5-0.3,0.9-0.8,1.9c-1.3-1.8-2.2-3.1-3.3-4.5
		c-0.8,2.3-1.6,12.4-1.8,21.4c-0.2,7.9-1.5,17.7-2.8,20.8c-0.2-0.2-0.4-0.5-0.4-0.7c0.1-2.6,0.3-5.2,0.5-7.8
		c0.6-7,1.2-13.9,1.7-20.8c0.4-5.5,0.5-11,0.7-16.5c0-1.4-0.1-2.9-0.6-4.3c-2.2-7.1-2.2-14.4-1.6-21.6c0.5-5.5,0.4-11,0-16.5
		c-0.5-5.6-0.7-11.3-1.1-17c0-0.5,0.1-1.2-0.6-1.4c-0.2,0.1-0.6,0.2-0.7,0.4c-2.5,3.8-4.4,7.9-5.4,12.3c-2.8,12-3.5,24.1-2.4,36.4
		c0.3,3.8,0.8,7.5,1.1,11.3c0,0.4-0.4,0.9-0.8,1.5c-0.5-0.6-0.8-0.9-1-1.3c-1.9-5.5-3.7-11-5.6-16.5c-3.3-9.8-6-19.8-6.3-30.2
		c0-0.5-0.3-1-0.5-1.5c-2.4-0.4-4.5-0.6-6.6-1.1c-4.1-0.9-5.2-2.2-5.2-6.3c0.1-3,0.4-6.1,1-9.1c0.3-1.7,0.4-3.3-0.1-5.1
		c-0.6-2.3-0.9-4.8,0.6-7.3c2.1,0.3,4.1,0.6,6.1,0.8c2.6,0.3,5.2,0.6,7.8,0.9c1.3,0.1,1.9-0.6,1.6-1.9c-1.1-1-2.4-0.8-3.7-1
		c-1.2-0.1-2.3-0.2-3.5-0.4c-1.3-0.2-2.6-0.3-3.9-0.5c-1.2-0.2-2.6,0.2-3.9-0.8C204.3,348.1,205.9,347.2,207.7,346.6z M356,179
		c0.8-4.6,1.1-9.2,0.7-13.9c-0.1-1.9,0-3.8,0.4-5.6c0.6-2.8,0.6-5.5,0.3-8.2c-0.5-5-2-9.7-4.7-13.9c-0.5-0.8-1-1.8-2.3-1.7
		c-0.2,0.2-0.5,0.3-0.6,0.6c-1.3,4.8,0.6,9.4,0.4,14.3c-1.7-0.4-2.6-1.4-3-2.9c-1.9-7.8-5.6-15-9.2-22.1c-1.4-2.7-3.3-5.2-5-7.6
		c-0.7-0.9-1.6-1.7-2.5-2.4c-0.9-0.7-1.9-0.8-2.8-0.1c-0.9,0.6-1.4,1.6-1.1,2.6c0.3,1.1,0.8,2.2,1.2,3.3c2.6,6.6,5.2,13.3,7.7,19.9
		c0.6,1.5,0.9,3.1,1.2,4.6c0.1,0.5-0.1,1-0.2,1.5c-1.3-0.1-1.6-1-1.9-1.8c-1.5-3.6-3-7.3-4.4-10.9c-2.4-5.9-4.8-11.9-7.2-17.8
		c-1.3-3.3-3.2-6.2-5.6-8.8c-1-1-2.2-1.9-3.4-2.6c-1.4-0.8-3,0.1-3.4,1.6c-0.2,0.6-0.3,1.1-0.3,1.7c0.1,3.7,0.7,7.2,2.3,10.6
		c2.8,5.8,5.8,11.4,8.3,17.3c1.8,4.1,2.9,8.5,4.3,12.8c0.2,0.7,0.6,1.6-0.4,2.2c-1.4-0.7-1.5-2.1-1.9-3.3
		c-3.5-9.6-7.6-18.9-12.5-27.8c-1.3-2.4-3.3-4-5.5-5.4c-1.1-0.7-2.5-0.2-2.8,1.1c-0.3,1.4-0.6,2.9-0.3,4.3c0.8,3.4,1.7,6.8,2.9,10
		c1.6,4.7,3.5,9.3,5.2,13.9c1.4,3.7,1.6,7.6,1.6,11.9c-0.8-0.5-1.4-0.6-1.7-1c-0.9-1.5-1.7-3.1-2.6-4.5c-2.1-3.3-4.1-6.7-6.5-9.8
		c-1.1-1.5-2.8-2.5-4.3-3.6c-0.7-0.5-1.6-0.8-2.4-0.3c-1.1,0.6-1,1.7-0.8,2.7s0.5,2,0.8,2.9c0.4,1.1,1,2.1,1.5,3.1
		c2.3,5.5,4.7,11,6.9,16.5c1.4,3.4,1.9,7,1.9,10.7c0.1,6.2-1.4,12.1-3.3,17.9c-2.3,7.2-3.3,14.4-2.7,21.9c0.3,3,1.3,5.6,3.2,8
		c1.2,1.6,2.6,2.5,4.7,2.8c5.1,0.8,10.1,0.4,15.2-0.5c3.8-0.6,7.3-2,10.5-4.1c1.7-1.1,3.5-2.1,5.3-3c1.7-0.9,3.3-1.9,4.3-3.8
		c-0.7-3,0.3-5.9,1.7-8.7c1.7-3.5,3.6-7,5.7-10.3c2.3-3.7,4.2-7.6,5.9-11.6c0.4-0.9,0.9-1.8,1.3-2.7c-0.1,4.3-1,8.4-3.3,12.1
		c-0.9,1.5-1.8,3-2.6,4.5c-1.7,3.1-3.4,6.1-4.9,9.2c-0.7,1.4-1.5,2.8-1.3,4.5c2.8,1.4,5.6,2.7,8.2,4.1c3.2,1.7,6.1,4,8.5,6.7
		c3.1,3.5,2.9,5.9-0.4,9c-0.5,0.5-1.2,0.9-1.7,1.4c-0.7,0.7-1.3,1.5-2,2.3c2.1,3.8,3.4,7.8,6,11.1c13.5-5.1,24.5-13.5,27.3-20.7
		c-1.9-0.1-3.8,0-5.6-0.4c-1.8-0.3-3.7-0.9-5.4-1.6c-1.6-0.6-3.3-1.3-4.7-2.2c-1.6-1-3-2.2-4.5-3.4c-1.4-1.1-2.2-2.9-3.8-3.9
		c-1.2,1.3,0.6,2.8-0.6,4.3c-0.5-0.9-0.9-1.5-1.2-2.1c-1.6-4.1-2.5-8.4-2.8-12.7c-0.8-9.3,0.3-18.3,3.1-27.1c3-9.6,5.6-19.2,7-29.2
		c1.3-9.9,1.4-19.7-0.7-29.5C367,97.3,357.1,84,341.8,74.3c-10-6.3-20-12.4-30-18.7c-22.7-14.3-46.1-27.2-70.7-37.9
		C229,12.4,216.8,7.5,203.9,4.3c-7.4-1.8-14.9-2.5-22.5-2c-5.2,0.3-10,1.8-14.6,4.2c-2.6,1.4-4.9,3.1-6.6,5.5
		c-3.8,5.6-6.8,11.5-8.3,18.1c-0.2,1-0.2,2-0.2,2.8c5.3,4.3,10.4,8.4,15.4,12.6c2.3,1.9,4.7,4,6.9,6c0.7,0.6,1.1,1.5,1.7,2.3
		c-1.1,0.9-1.9,0.5-2.6-0.1c-2.4-1.9-4.7-3.9-7-5.9c-5.9-4.9-11.9-9.8-17.9-14.7c-2.1-1.7-4.5-2.5-7.3-2.5c-4.1,0-8.1,0.5-12.1,1.5
		c-5.4,1.3-10.5,3.5-15.3,6.2C97.1,47.2,86,60.6,79.9,78c-2.7,7.8-4.3,16-5.2,24.3c-1.2,11.1-1.9,22.3-1.7,33.5
		c0.1,3.2-0.1,6.4-0.1,9.6c0,1.2-0.2,2.4,0,3.5c0.6,3.9,0.3,7.8,0.1,11.8c-0.2,3.9-0.6,7.8-0.7,11.7c-0.3,9.8-2.4,19.3-4.7,28.8
		c-1.4,5.6-3.4,11.1-5.2,16.6c-0.2,0.6-0.2,1.2-0.4,2.4c1.8-1.5,2.7-3.1,3.6-4.5c6.1-8.9,11.1-18.4,15.5-28.3
		c3.2-7.3,6.4-14.6,8-22.5c0.1-0.3,0.5-0.5,1.1-1c-0.4,4.8-1.3,9-2.5,13.2c-2.4,8.4-5.9,16.4-9.7,24.3C72.6,212,66.4,222,58.5,230.8
		c-2.2,2.5-4.5,5-6.8,7.4c-10.8,11.4-19.3,24.4-25.2,39c-3.5,8.7-5.6,17.7-5,27.2c0.8,12.5,6.3,22.5,15.3,30.8
		c3.8,3.4,7.9,6.4,11.8,9.7c3,2.6,5.9,5.2,8.5,8.2c6.8,8,7.8,17.4,2.2,26.2c-0.4,0.7-0.8,1.4-1.2,2.1c0.4,0.4,0.6,0.6,0.8,0.7
		c0.5,0.2,1.1,0.4,1.7,0.4c7,0.9,13.7,0,19.8-3.6c8.4-4.9,16.6-10.3,24.8-15.4c0.2-0.1,0.3-0.4,0.5-0.8c-0.8-0.8-1.6-1.6-2.4-2.5
		c-2.1-2-3.3-4.5-3.9-7.2c-1-5.1-1.5-10.3-0.6-15.6c1.4-8,2.4-16.1,2.1-24.3c-0.2-4.3,0.4-8.7,1.1-13c2-12,5.7-25,10.2-36.4
		c1.8-4.5,3.7-8.9,5.7-13.2c2.3-4.9,4.7-9.6,7.1-14.5c-0.5-0.8-0.9-1.5-1.4-2.2c-2.3-3.5-2.2-6.8,0.4-10.1c2.5-3.2,4.9-6.5,7.5-9.6
		c1.4-1.8,3-3.5,5.1-4.5c1.2,0.4,2.2,0.8,3.2,1.1c0.6-1.5,0.3-2.5-0.4-3.6c-2.7-4-5.2-8-8-11.9c-4.6-6.4-6.6-13.5-5.8-21.4
		c0.5-4.8,0.8-9.6,2.2-14.2c0.2-0.8,0.3-1.7,0.4-2.6c0.2-3.2,0.5-6.4,0.7-9.6c0.1-1.8,0.5-3.4,1.9-4.7c1.2-1.1,2.3-1,3.5-0.1
		c1,0.7,1.3,2.2,2.9,2.5c0.2-0.5,0.4-0.9,0.4-1.2c0.2-6.3,0.2-12.5-1.3-18.7c-1.5-6.1-2.2-12.3-2.3-18.6
		c-0.3-11.1,0.9-22.1,3.9-32.8c1.3-4.7,3.4-9,6.2-12.9c1.9-2.7,4.5-4.6,7.5-5.8c2.7-1.1,5.4-1.1,8,0.3c2.7,1.4,5.4,2.9,8,4.4
		c0.8,0.5,1.5,1.3,2.1,2.1c0.2,0.3,0,1-0.1,1.8c-0.8-0.4-1.3-0.6-1.8-0.9c-2.8-1.5-5.6-3.1-8.4-4.6c-3.4-1.8-6.8-1.3-9.8,0.9
		c-1.1,0.8-2,1.7-2.8,2.7c-2.6,3.2-4.5,6.8-5.7,10.7c-3.8,12.7-5,25.6-4,38.8c0.1,0.8,0.4,1.6,0.7,3c0.8-1.1,1.3-1.8,1.8-2.4
		c2.4-3.3,4.6-6.8,7.2-9.8c6-6.9,12.9-12.6,21.5-15.9c1.3-0.5,2.8-0.9,4.2-1.2c0.7-0.1,1.4,0,2.2,0.1c1.1,0.2,1.5,1.7,0.8,2.4
		c-0.6,0.6-1.3,1.2-2,1.7c-2.3,1.5-4.7,2.9-7,4.4c-10.3,6.5-19.2,14.6-26.7,24.2c-1.1,1.4-1.6,2.7-1.1,4.4c1.1,4.2,1.6,8.6,1.7,13
		c0,0.3,0.3,0.7,0.7,1.4c1.2-1.9,2.2-3.4,3.2-5c2.4-4,5.1-7.8,8.6-10.9c1.4-1.2,3-2.3,4.7-3.1c2.8-1.2,4.4-0.6,6.1,2.2
		c0.2,0.4,0.5,0.7,0.8,1.2c0.7-0.6,1.3-1.2,2-1.8c2.9-2.2,5.7-4.6,8.6-6.7c1.2-0.8,2.6-1.4,3.9-1.7c3.1-0.7,5.4,1,6,4.1
		c0.2,1.1,0.4,2.2,0.6,3.4c2.8,0.3,4.5,1.6,4.8,4.1c7.3,3.2,13.7,7.1,18.9,12.7c5.4,5.7,10,12.1,13.7,19.1c2,3.8,3.6,8,5.3,11.9
		c1.2,2.6,0.8,5.1-0.6,7.5c-0.3,0.6-0.7,1.3-1.1,1.9c-4.2,6.9-10,12.1-17.2,15.7c-8.5,4.2-17.3,7.4-27.1,7.7
		c-0.9,3.5-2.6,6.5-4.8,9.3c-0.8,1-1.2,2.3-1.6,3.5c-1.3,4.3-2.4,8.7-3.6,13c-0.2,0.8-0.3,1.6-0.5,2.4c3.3,1.6,3.2,1.6,3.4,4.5
		c0.2,3.2,0.4,6.4,0.7,9.5c2.1,1.8,4.1,3.5,6.7,4.4c7,2.3,14.1,4.7,21.4,6c9.5,1.7,19.1,2.2,28.7,2.5c7,0.2,13.9-0.4,20.9-0.8
		c4.8-0.3,9.5-1.2,14-2.9c7-2.6,13.4-6.3,19.8-10c1.5-0.9,2.8-2,4.3-3c1.6-1.1,2.6-2.6,2.9-4.6c0.5-3.1,1.9-5.8,3.4-8.4
		c0.5-0.9,0.9-1.7,1.4-2.5c-1-1.7-2-3.2-2.8-4.7c-0.4-0.8-0.9-1.6-1-2.4c-1.3-7.6-0.9-15.1,1.8-22.4c1.3-3.6,2.4-7.1,3.4-10.8
		c0.8-2.7,1.1-5.4,1.2-8.2c0.1-4.6-0.9-9-2.6-13.2c-2.1-5.1-4.3-10.2-6.6-15.2c-0.9-2.1-1.8-4.3-1.8-6.7c0.1-3.2,2.7-5.1,5.7-3.9
		c1.6,0.6,3.1,1.7,4.3,2.8c1.3,1.1,2.3,2.6,3.4,3.9c0.6,0.8,1.3,1.5,2,2.4c0.2-0.6,0.3-0.9,0.3-1.1c-1.2-3.1-2.1-6.4-3.6-9.4
		c-2.2-4.3-2.9-8.8-3.7-13.4c-0.2-1.2,0-2.6,0.3-3.9c0.9-3.1,2.9-4,6.1-3.2c0.9,0.2,1.6,1.5,2.7,0.6c0.1-1.2-0.3-2.3-1-3.3
		c-0.8-1.1-1.5-2.1-2.2-3.3c-5.2-8.5-11.8-15.9-18.9-22.8c-5-4.8-10.4-9.3-16.5-12.8c-5.9-3.4-11.7-7.1-17.5-10.7
		c-2.7-1.7-5.6-2.4-8.7-1.8c-3.4,0.7-6.8,1.4-10.2,2.1c-2,0.4-4,1-5.9,1.4c-0.6,0.1-1.2,0-1.7,0c-0.6-0.1-1.2-1.2-0.8-1.7
		c0.4-0.6,0.9-1.1,1.5-1.6c2.3-1.6,4.9-2.5,7.6-3.2c1.3-0.3,2.7-0.6,4.8-1.1c-1.5-0.8-2.4-1.3-3.3-1.6c-6.9-2.7-14.2-4.3-21.4-5.8
		c-4.6-1-9.2-0.9-13.9-0.1c-3.1,0.5-5.8,1.7-8.1,3.9c-1.7,1.6-3.5,3.1-5.3,4.5c-2,1.5-4.4,2.2-6.9,2.3c-0.6,0-1.1-0.2-1.7-0.3
		c-0.2-0.1-0.4-0.4-0.4-0.7s0.1-0.6,0.3-0.8c0.3-0.3,0.7-0.6,1.1-0.7c4.5-0.9,7.9-3.6,11-6.7c1.8-1.7,4-2.9,6.3-3.8
		c3.6-1.4,7.3-1.7,11.1-2.2c6.3-0.7,12.2,0.2,17.9,2.5c6.2,2.5,12.4,5,18.4,8c7.3,3.6,14.6,7.3,21.5,11.6
		c15.1,9.2,27.7,21.2,38.3,35.3c1.4,1.8,2.5,3.9,4.3,5.5c0.4-0.4,0.8-0.6,1.1-0.9c2.6-2.4,4.2-2.6,7-1c1.1,0.6,2.2,1.4,3.1,2.4
		c1.5,1.8,2.8,3.7,4.2,5.6c0.6,0.8,1.1,1.6,1.7,2.4c0.6-0.3,1-0.4,1.4-0.6c2.6-1.5,4.7-0.8,6.7,1.1c0.6,0.6,1.2,1.3,1.7,1.9
		c3,3.8,5.5,7.8,7.4,12.3c1.1,2.6,2.1,5.1,3.2,7.6c0.3,0.6,0.7,1.2,1.3,2.1c0.3-1,0.4-1.5,0.6-2.1c0.2-0.7,0.4-1.4,0.7-2.1
		c0.9-1.9,2.8-2.2,4.3-0.8c0.7,0.7,1.4,1.5,1.9,2.4c4.1,6.7,5.8,13.9,4.8,21.7c-0.4,2.9-0.7,5.8-0.4,8.7
		C359.1,171,358.1,175.1,356,179z M327.8,774.9c-2.1-1.5-3.4-2.4-4.7-3.3c-1.4-1-2.9-2-4.4-2.9c-1.4-0.8-2.8-1.5-4.3-2.1
		s-2.8-1.8-4.9-2c0.2,1.2,0.2,2,0.4,2.8c0.8,5.8,1.9,11.5,2.4,17.3c1.8,18.3,2.8,36.5,3,54.9c0,3-0.1,6.1-0.4,9.2
		c-0.7,7.1-1.5,14.2-2.3,21.3c-0.6,5.2-0.6,10.5,0.1,15.7c0.8,6.1,2.7,11.9,4.7,17.7c2,5.9,3.7,11.9,3.6,18.3
		c-0.1,3.3,1.1,6.3,2.7,9.1s3.7,5.2,6.4,7.2c1.4,6.9,2.7,13.9,4.2,20.9c0.8,3.9,0.3,7.5-1.4,11c-1.2,2.5-2.3,5-3.5,7.5
		c-1.9,3.7-2.5,7.7-2.8,11.8c0,0.3,0.3,0.6,0.6,1.3c0.8-1.1,1.4-1.9,1.8-2.8c2.5-4.4,5.8-8,10.3-10.3c0.4-0.2,0.8-0.4,1.1-0.7
		c1-0.7,1.1-1.8,0.3-3c-0.2-0.3-0.6-0.6-0.9-0.8c1.9-3.5,1.9-3.5,0.8-7.3c-0.2-0.5-0.2-1.1-0.1-1.7c0.3-1.3-0.1-2.3-1.2-3
		c-0.7-0.5-0.7-1-0.6-1.9c0.1-0.8,0-1.8-0.4-2.5c-1.6-2.9-3.3-5.7-5.1-8.8c0.4-3.6-1-7.4-1.2-11.2c0.4-0.4,0.6-0.8,0.9-1.1
		c3.2-2.7,7-3.5,11-3.2c4.2,0.3,8.4,0.9,12.6,1.5c2.6,0.3,5.2,0.4,7.8-0.5c3.2-1.2,6.5-1.3,9.9-0.6c2.4,0.5,2.9,0.2,4.2-2
		c1.2-2.2,2.3-4.4,3.6-6.5c2.6-4.1,3.1-8.5,1.7-13c-1-3.3-1.9-6.7-3.3-9.9c-4.1-9.1-6.6-18.6-7.2-28.6c-0.8-12.9-2.6-25.7-5.3-38.4
		c-1.2-5.5-2.1-11.2-1.3-16.9c1-6.6,0.2-13-0.7-19.5c-1.5-10.4-2.6-20.8-2.1-31.3c0.4-10.2,0-20.4-0.8-30.5
		c-1.4-17.7-2.9-35.4-4.2-53.1c-1.4-19.7-3.4-39.4-7.1-58.9c-1.7-9.2-3.8-18.2-5.8-27.3c-0.2-1.1-0.8-2.1-1.3-3.3
		c-1.1,0.3-1.9,0.5-2.7,0.8c-6.8,2.4-13.7,2.5-20.7,1.5c-5.1-0.8-9.3-3-12.1-7.7c-2.1-3.5-4.3-6.9-6.4-10.4c-5-8-6.7-17-7.7-26.1
		c-0.3-3.1,0.1-3.5,3.2-4.7s6.3-2.4,9.4-3.6c5.6-2.2,10.2-6,15.1-9.8c-0.9-2.6-1.5-5.1-3.1-7.4c-1,0.4-1.9,0.9-2.8,1.2
		c-2.1,0.7-4.1,1.6-6.2,1.9c-3.4,0.5-6.9,0.7-10.4,0.9c-5.5,0.4-11.1,0.5-16.5,1c-6.8,0.7-13.6,1.1-20.5,0.8c-0.4,0-0.9,0.1-1.4,0.1
		c-0.5,0.4-1.1,0.9-1.5,1.4c-2.5,2.8-5.7,3.8-9.4,3.9c-6,0.2-11.6-0.6-15.9-5.2c-1.7,0.1-3.1,0.3-4.6,0.3c-1.4-0.1-2.9-0.5-4.3-0.8
		c-1.1-0.2-2.3-0.4-3.4-0.7c-6.5-1.2-13-1.1-19.6-1c-7.1,0-14.3-0.2-21.3-1.5c-1.4-0.3-2.8-0.7-4.4,0.3c-0.4,1.8-1,3.6,0.2,5.4
		c4.8,1.3,9.6,2.4,14.6,2.8c3.2,0.3,6.4,0.6,9.6,0.9c2,0.2,3.2,1.2,3.6,3.2c0.3,1.1,0.4,2.3,0.4,3.5c0,2.5-0.1,5-0.3,7.4
		c-0.6,8.2-2.6,16-6.5,23.4c-2.2,4.1-5.1,7.4-9.1,9.8c-6.2,3.7-12.6,6.7-19.7,8.1c-0.8,0.2-1.6,0.6-2.4,0.9
		c-0.2,0.7-0.3,1.3-0.4,1.8c-0.9,10.1-1.8,20.3-2.5,30.4c-0.5,7-0.8,13.9-1.3,20.9c-0.9,13.1-2.1,26.1-2.9,39.2
		c-0.6,11.3-0.8,22.7,0.5,34c1.8,15.3,7.3,29,17.9,40.3c0.7,0.7,1.4,1.5,2,2.3c0.2,0.3,0,1,0,1.5c-2,0-2.8-1.3-3.8-2.3
		c-3.5-3.5-6.5-7.4-9.2-11.6c-0.4-0.6-0.6-1.7-2-1.4c-0.1,0.3-0.4,0.7-0.4,1.1c-0.3,6.8-1.5,13.6-2.4,20.3
		c-0.8,6.1-1.2,12.1-0.6,18.3c0.9,8.8,1.1,17.7-0.6,26.5c-1.4,7.3-2.9,14.5-4.7,21.7c-2.6,10.6-5.1,21.2-6,32.1
		c-0.4,5.7-1.4,11.3-3.3,16.7c-0.6,1.8-1.1,3.6-1.7,5.4c-2.6,6.7-1.3,13.1,1.2,19.4c0.4,0.2,0.7,0.4,0.9,0.5
		c8,1.6,16.1,2.5,24.3,2.5c6.3-0.1,12.5,0.5,18.5,2.5c2.7,0.9,5.6,1.5,8.6,2.3c0.9-1.4,1.8-2.7,2.6-4c1.5-2.6,2.1-5.4,2.3-8.3
		c0.8-9.7,1.8-19.4,2.4-29.1c0.6-8.8,0.8-17.7,0-26.6c-0.8-8.9-0.6-17.7-0.1-26.6c0.7-11.6,1.2-23.3,1.2-34.9c0-9.2,0-18.3,1.1-27.4
		c0.8-6.1,1.6-12.1,3.4-18c2.4-7.6,5.2-15.1,8.7-22.3c3.1-6.3,5.9-12.7,8.1-19.3c4.6-13.5,7.9-27.4,11.1-41.3
		c2.9-12.5,5.3-25,7.8-37.6c0.8-4,1.6-8,2.2-12c0.8-5,1.4-10,2.1-15.1c-1-0.7-1.8-1.3-2.7-1.8c-5.5-3.5-10.7-7.5-15.6-11.9
		c-1.4-1.3-2.6-2.8-3.7-4.2c-0.4-0.5-0.4-1.3-0.6-2c0.4,0,0.6-0.1,0.7-0.1c0.6,0.4,1.2,0.8,1.7,1.3c9.3,7.8,19,14.9,30.1,20
		c2.9,1.3,5.9,2.5,8.8,3.7c0.9,0.4,1.8,0.9,2.7,1.4c0.4,0.3,0.2,1.3-0.3,1.5c-0.9,0.2-1.9,0.3-3.1,0.5c0.3,1.9,0.5,3.6,0.7,5.3
		c0.4,2.2,0.8,4.3,1.2,6.4c1.9,10.9,3.9,21.8,6.7,32.5c2.4,9.2,4.3,18.4,5.6,27.8c2,15.2,4.7,30.2,7.4,45.2c0.8,4.3,1.7,8.6,3,12.7
		c1.9,6.6,5.4,12.5,9.6,18c1.5,2,3,3.9,3.8,6.3c0.3,0.9,1.1,1.7,1.7,2.5c1.4,1.6,3.2,2.5,5.1,3.2c3.2,1.3,5.9,3.2,8.4,5.4
		C325.6,770.7,327.1,771.9,327.8,774.9z M255.8,597.5c-0.3,1.1-0.5,1.9-0.7,2.7c-0.3,1.7-0.4,3.5-0.6,5.2
		c-1.4,10.5-3.7,20.9-5.7,31.3c-3,15.9-6.8,31.5-10.9,47.2c-3.6,13.5-8,26.7-14.4,39.3c-2.3,4.5-4.1,9.3-5.9,14
		c-4.6,12.1-7.2,24.5-6.8,37.5c0.3,8.9,0.3,17.7,0.1,26.6c-0.2,8.3-0.6,16.6-1.1,24.8c-0.5,7.1-0.6,14.2-0.1,21.3
		c1,11.8,0.8,23.5-0.1,35.3c-0.7,9.3-1.9,18.5-2.8,27.8c0,0.4,0.2,0.8,0.3,1.4c0.7,0.1,1.4,0.3,2.1,0.3c16.6,0.6,33.1,1.1,49.7,1.7
		c14.7,0.5,29.4,1.2,44,1.7c3.9,0.2,7.8,0.2,11.8,0.3c0.8,0,1.6-0.3,2.5-0.5c-0.3-2.7-1-5.1-1.7-7.5c-1.5-4.7-3-9.4-4.3-14.2
		c-1.8-6.8-2.7-13.7-2.1-20.7c0.5-6.1,1.1-12.2,1.9-18.2c0.9-6.5,1.3-13,1-19.6c-0.5-12.3-1.1-24.7-1.8-37
		c-0.7-11.9-1.9-23.8-3.9-35.5c-0.5-3-1.6-5.4-3.5-7.8c-5.9-7.2-10.1-15.3-11.9-24.5c-1.2-6.1-2.6-12.2-3.6-18.4
		c-1.8-10.8-3.5-21.5-5.1-32.3c-1.4-9.3-2.9-18.7-5.2-27.9c-3.2-12.8-5.9-25.8-7.8-38.9c-0.5-3.4-1.1-6.9-1.6-10.3
		C263.7,601,259.8,599.3,255.8,597.5z M303.8,336.6c0.4,0.1,0.8,0.2,1.1,0.4c5,4.4,11,7,16.7,10.3c4.5,2.7,9.2,5.1,13.4,8.1
		c3.3,2.4,7,4.2,10.9,5.4c5.8,1.8,11.2,1.2,16.3-2.1c1.6-1,3.2-2.1,4.6-3.3c6.9-6,11.1-13.5,11.2-22.8c0.1-6.1-0.1-12.2-0.1-18.3
		c-0.1-8.1-1.8-15.9-4.9-23.3c-1.9-4.6-3.7-9.2-4.6-14.1c-0.9-5.1-1.8-10.3-2.6-15.5c-0.7-4.6-1.9-9.1-4-13.3
		c-2.1-4.1-4.2-8.3-6.3-12.5c-0.3-0.6-0.8-1.1-1-1.4c-3.2-0.3-6.1-0.5-9.2-0.8c-1.4,2.7-3.8,4.1-6.9,4.4c-0.8,0.1-1.7,0.5-2.5,0.8
		c-8.3,3.1-16.8,4.5-25.7,3.7c-0.6,0-1.3,0.1-2,0.2c1,3.4,2.1,6.4,2.8,9.4c0.8,3.2,1.4,6.5,2.1,9.8c0.7,3.4,1.6,6.8,3.1,10
		c2.2,4.9,4.4,9.8,6.6,14.7c1.7,4,3.5,8,4.1,12.4c0.5,3.7,1.7,7,3.5,10.3c2.4,4.4,3.9,9.1,5.3,13.8c0.1,0.4-0.1,1-0.3,2.2
		c-1-1.4-1.7-2.2-2.1-3c-1.1-2.4-2-4.8-3-7.3c-0.6-1.4-1.2-2.6-2.5-3.5c-5.5-3.8-11.1-7.4-17.1-10.5c-1.1-0.6-2.3-1.4-3.8-1
		c-0.3,0.5-0.9,1.1-1.1,1.7c-0.8,2.2-1.4,4.4-2.1,6.6c-0.5,1.8-0.9,3.7-1.5,5.5c-0.3,0.9-1.1,1.3-2.1,1.1c-0.4-0.1-0.8-0.2-1.3-0.4
		c-5-2-10-3.9-15-6c-3.2-1.3-6.4-2.8-9.8-4.3c-1.6,1.4-3.1,2.7-4.6,4c-3.7,3.2-7.7,5.7-12.9,5.5c-0.8,0-1.6,0.4-2.3,0.5
		c1.5,6.7,2.8,13.1,4.3,19.5c1.3,5.8,1.4,11.5,0.2,17.3c-0.7,3.4-1.3,6.9-1.8,10.3c-0.8,5.9-2.5,11.6-4.8,17.2
		c-1.5,3.5-2.8,7-4.1,10.6c-0.7,1.9-1.1,3.9-1,6c0.4,6.8,0.7,13.7,1.2,20.5c1.3,14.6,2.4,29.3,1.2,44c-0.6,7.7-0.7,15.4,0,23.1
		c0.5,6,0.6,11.9,0.2,17.9c-0.2,2.6-0.3,5.2-0.5,7.8c-0.1,1.3-0.2,2.6,1,3.6c6.2-0.9,12.5-0.8,18.7-0.2c13.4,1.4,26.7,1.5,40.1,0.3
		c1.7-0.2,3.5-0.4,5.2-0.8c4.6-1,6.4-3.6,6.4-8.4c0-4.5,0-9,0.2-13.5c0.2-4,0.1-7.9-0.8-11.7c-1.3-5.8-2.6-11.6-4.2-17.4
		c-2.9-10.2-3.7-20.6-2.1-31.1c0.2-1.4,0.3-2.9,0.4-4.3c0.4-4.8-1.2-9.2-2.7-13.6c-4.4-13-5.9-26.3-4.7-40c0.3-3.8,0.7-7.6,0.5-11.3
		c-0.3-5.8-1.1-11.6-1.6-17.4c-0.2-1.6-0.5-3.1-1.7-4.4C303.4,338.1,303.1,337.4,303.8,336.6z M165.2,255.3
		c-0.1,0.8-0.3,1.4-0.3,1.9c0.1,4.3-0.8,8.4-1.9,12.5c-2.2,7.5-4.6,15-8.2,22c-1.6,3.1-1.7,6.6-1.4,10.4c4.3-1.4,8.3-2.6,12.3-3.9
		c2.9-1,5.7-2,8.6-3c1.9-0.6,3.9-1.2,5.8-1.7c1.5-0.4,2.7-1,3.5-2.3s2-2,3.5-2.4c7.7-2.3,15.5-3.7,23.7-2.4c2,0.3,4,0.4,6.1,0.6
		c1.6,0.1,3.2,0.4,4.7-0.3c1.6-3.4,0.7-6.9,0.7-10.3c1.2-0.5,2.3-0.9,3.3-1.3c0.2-3.1,0.4-6,0.6-8.8c0.2-3,1-6,0.1-8.9
		c-0.7-0.2-1.1-0.3-1.5-0.4c-6.1-0.6-12.2-1.2-18.2-1.9c-8.8-1-17.3-3.9-25.7-6.6c-1.7-0.6-3.3-1.7-5.1-2.7c-0.5,1.8-1,3.5-1.5,5.1
		c-0.5,1.7-1.6,2.7-3.3,3.1C169.2,254.4,167.4,254.8,165.2,255.3z M270.2,280.6c0.9-0.1,1.8-0.2,2.6-0.3c2-0.2,3.8,0.3,5.3,1.6
		c1.4,1.3,3,2.1,4.9,2.7c1,0.3,2.1,1.2,2.6,2.1c1.3,2.5,3.2,2.6,5.6,2c2.5-0.7,5-1.4,7.5-2.2c4.6-1.4,9.1-1.7,13.7-0.1
		c1.8,0.6,3.7,0.8,5.5,1.1c0.5,0.1,1.1-0.2,1.8-0.4c-0.2-0.9-0.3-1.6-0.5-2.2c-1.2-2.7-2.3-5.3-3.5-8c-2.3-5-4.3-10.2-5.2-15.7
		c-0.5-3-1.1-6-1.7-9c-0.8-3.7-1.7-7.3-4-10.4c-0.8-0.1-1.3-0.2-1.9-0.2c-1.2,0-2.3,0.1-3.5,0.1c-1,0-2.1,0.3-3,0
		c-1-0.3-1.9-1.1-2.8-1.7c-9.9,7-20.3,12.6-31.6,16.1c-1.9,7.5-2.4,15.7-1.2,20.1c2.3,0.2,4.1-1.2,5.9-2.2c0.7-0.4,1.5-0.6,2.4-1
		C270.3,275.5,269.1,278.2,270.2,280.6z M168.6,590.3c2-0.5,3.7-0.8,5.3-1.5c3.9-1.6,7.7-3.3,11.5-5.1c5.8-2.7,9.5-7.4,12.1-13.2
		c3.9-8.7,5.1-17.8,4.9-27.2c0-0.8-0.2-1.7-0.4-2.6c-4.4-0.5-8.6-0.8-12.7-1.4c-4.1-0.7-8.2-1.7-12.4-2.6c-0.2,0.7-0.6,1.2-0.6,1.7
		c0,1.9-0.4,3.7-0.8,5.5c-2.8,12.8-4.2,25.8-6.3,38.7c-0.1,0.8,0.1,1.6,0.2,2.3c2.1,0.5,3.8-1.1,5.9-0.4c-1.8,2.4-4.6,1.7-6.8,2.9
		C168.5,588.3,168.5,589.1,168.6,590.3z M378,998.2c-0.5-5.8-2.6-11-6.6-15.5c-4-4.6-9.1-6.6-15.1-6.5c-4.6,0.1-8.9,1-13.2,2.7
		c-8,3.2-12.5,9.5-15.4,17.3c0,0.1,0,0.3,0.1,0.4C338.1,1003,364.5,1006.5,378,998.2z M197.4,986.8c-2-2.9-3.3-6.1-5.5-8.9
		c-5.2-6.7-12.2-10.1-20.4-11.3c-10.9-1.7-20,1.9-27,10.5c-1.3,1.5-2.6,3.1-3.2,5c2.4,2.6,5.3,3.8,8.5,4.5c5.7,1.3,11.4,2.3,17,3.6
		c3.7,0.8,7.5,1.1,11.2,1c5.1-0.1,10.1-1.1,15.1-2.1C194.5,988.9,195.9,988.5,197.4,986.8z M344,211.5c-1.5,3.6-4.2,5.4-7.3,6.9
		c-1.7,0.8-3.2,1.9-4.8,3c-2.3,1.6-4.7,2.8-7.4,3.5c-7.8,1.9-15.5,2.1-23.1-0.5c-2.2,2.5-3.6,5.4-4.5,9.8c-0.4,1.7-0.9,3.4,0,5.2
		c0.6,0,1.2,0.1,1.8,0c3.2-0.7,6.4-0.3,9.5,0.1c5.5,0.8,11,0.6,16.5-0.7c3.8-0.9,7.6-1.9,11.4-2.8c1.7-0.4,3.6-0.5,5-1.4
		s2.2-2.6,3.4-4.1c1,0.3,2.1,0.7,3.2,0.9c2,0.4,4.1,0.8,5.9-0.4c2.6-1.6,4.9-3.5,6.5-6.1c-0.1-2.1-1.2-3.5-2.6-4.6
		c-1.9-1.6-3.8-3.1-5.9-4.5C349.4,214.4,346.9,213.1,344,211.5z M258.1,256.9c-9.6,0.1-18.9,0.3-28.2,0.5c-0.3,0-0.5,0.3-1.1,0.6
		c-0.2,2.8-0.4,5.8-0.5,8.8s-1.1,6,0.1,9c2.4,0.3,4.7,0.4,7,0.8s4.6,0,7,1.3c-0.3,2.4-0.8,4.8-1,7.2c-0.2,2.5-0.2,4.9,0,7.4
		c0.2,2.4-0.1,4.9,0.6,7.3c2.7,1.6,5.2,2.3,7.9,0c1.2-5.2,3.2-10.4,2.8-16c0-0.3,0.1-0.6,0.1-0.9c0.5-4.3,0.7-4.6,4.5-6.4
		C257.5,269.9,257.8,263.6,258.1,256.9z M183.5,195.6c1.5-0.1,2.5-0.1,3.5-0.2c6.6-0.7,12.7-3,18.7-5.6c6.1-2.6,11.2-6.6,15.5-11.7
		c0.4-0.5,0.6-1.1,1.1-2.1c-7.4,1.3-12.9-1.6-18.2-5.5c-5.6-4.1-8.1-9.9-9.6-16.9c-1,1.2-1.7,1.9-2.2,2.7c-1.1,1.7-2.2,3.4-3.3,5.1
		c-3.3,5.2-4.9,10.7-4.9,16.9c0,5.1-0.4,10.1-0.7,15.2C183.3,194,183.4,194.6,183.5,195.6z M157,936.2c3.7,2.1,7.5,3.1,11.3,4
		c2.2,0.6,4.2,0.4,6.4-0.5c4-1.7,8.1-3.2,12.2-4.7c1.5-0.5,2.5-1.3,3.2-2.7c1.7-3.4,3.6-6.7,5.3-10c0.3-0.6,0.4-1.3,0.7-2.2
		c-2.1-0.6-3.9-1.1-5.6-1.7c-2.5-0.9-5-1.1-7.7-0.3c-3.4,1.1-7,0.9-10.2-0.8c-2.8-1.5-5.5-1.6-8.4-0.8c-2.1,0.6-4,0.3-6-0.4
		c-1-0.3-1.9-0.8-2.8-1.1c-1.3-0.4-2.5-0.7-3.9,0.3c-0.6,1.9,0.2,3.7,1.2,5.2c2.5,3.9,3.6,8.2,3.9,12.8
		C156.7,934.2,156.8,935,157,936.2z M334.5,937.1c0.5,2.8,1,5.7,1.5,8.5c0.3,1.4,1.1,2.3,2.6,2.6c3.9,1,7.9,2,11.8,3.1
		c1.4,0.4,2.5,0,3.8-0.5c4.6-2.2,9.3-4,14.4-4.7c0.4-0.1,0.8-0.3,1.4-0.6c0.7-1.6,1.5-3.3,2-5.1c0.5-1.7,2.3-3,1.9-5.3
		c-2.8-0.7-5.5-0.5-8.2,0.3c-2.5,0.8-5.1,1-7.8,0.6c-2-0.3-4-0.6-6.1-0.8c-3.6-0.3-7.2-0.6-10.8-0.7
		C338.7,934.6,336.4,935.1,334.5,937.1z M197.1,990c-0.5,0-0.8-0.2-1.1-0.1c-4.4,1.7-9,2.3-13.6,3c-4.6,0.8-9.3,0.7-13.9-0.2
		c-3.4-0.7-6.9-1.2-10.3-1.8c-5.7-1.1-11.4-2.2-16.5-5.2c-0.2-0.1-0.6,0.1-1,0.2c-1.2,2.2-2.1,4.6-1.9,7.4
		c5.9,2.8,12.1,4.3,18.3,5.7c2.7,0.6,4.8,0.1,6.3-2.3c0.1-0.1,0.3-0.1,0.5-0.2c1.6-0.1,2.4,1.2,3.5,2.2c1,0.9,1.9,1.8,3.3,1.9
		c3.8,0.4,7.7,1.8,11.6,0.1c0.9-0.4,2-0.3,3-0.4c3.9-0.5,7.7-1.1,11.4-2.6C197.3,995.1,197.3,992.5,197.1,990z M215.4,288.5
		c-3.6-0.3-6.8-0.6-10.2-0.7c-5.7-0.2-11.3,0.7-16.7,2.4c-1.8,0.5-3,1.6-3.6,3.4c-1.1,3.3-2.2,6.6-3.2,9.9c-0.3,0.9,0,1.9,0,3.1
		c1.2,0.1,2.2,0.3,3.2,0.2c1.8-0.4,3.7-0.9,5.4-1.5c6.8-2.5,13.9-4,21.1-4.7c1-0.1,1.9-0.4,2.8-0.5c1-2.1-0.2-3.9,0.1-5.8
		C214.5,292.4,214.9,290.6,215.4,288.5z M285.2,527.9c1.3-4.2,1.4-7.9-1-11.5c-0.6-0.1-1.2-0.3-1.8-0.3c-5.1-0.5-10.1-1-15.2-1.4
		c-3.3-0.3-6.7-0.4-10-0.5c-0.7,0-1.5-0.2-2,0.9c0.7,1.3,2,2.2,3.1,3.4c2.7,2.9,5.1,6,4.9,10.3c0,0.2,0.3,0.4,0.7,0.8
		C270.8,529.3,277.9,529.4,285.2,527.9z M329.6,1009.3c2.7-0.5,5.3-0.4,7.8,0.6c3,1.2,5.9,1.2,8.6-1c0.2-0.2,0.6-0.1,1.1-0.3
		c0.8,0.5,1.8,1,2.8,1.6c2,1.4,4.2,1.8,6.6,1.4c4.7-0.8,9.6-0.7,14.1-2.3c0.9-0.3,2-0.2,3-0.3c1.7-0.2,3.4-0.4,5-1.8
		c0.4-1.7,0.5-3.5-0.2-5.3c-0.3,0-0.4-0.1-0.6-0.1c-1.1,0.3-2.2,0.6-3.3,0.9c-6,2-12.2,2.8-18.4,2.6c-9.2-0.2-18.2-1.5-26.8-5
		c-0.6-0.3-1.3-0.7-2.2,0.2C326.9,1003.4,327.1,1006.4,329.6,1009.3z M194,933.2c-1.8,1.7-2.3,3.9-3.8,5.6c-2.5,3-3.6,7.2-3.3,11.3
		c0.7,1,2.6,0.6,2.9,2.6c-1.2,0.1-2.4,0.2-3.9,0.2c0.3,0.8,0.5,1.4,0.8,1.8c0.6,0.8,1.4,1.5,2.1,2.2c0.1,0.1-0.1,0.5-0.1,0.8
		c-0.8,0-1.6-0.1-2.5-0.1c-0.1,0.5-0.3,0.9-0.3,1.3c-0.1,2.5,0.3,4.6,2.8,5.9c0.6,0.3,1,1,1.4,1.6c0.1,0.2,0.2,0.6,0,0.8
		c-0.2,0.3-0.7,0.7-0.9,0.7c-0.8-0.1-1.7-0.4-2.5-0.5c-0.2,0-0.6,0.6-0.6,0.9c0,0.4,0.4,0.8,0.7,1c3.3,2.4,6.2,5.3,8.6,8.6
		c0.3,0.4,0.9,0.5,1.4,0.8c1.5-4.7,0.9-9.2-0.1-13.6c-0.5-2.1-1-4.2-1.6-6.3c-0.8-3.3-1-6.7,0-9.9c1.4-4.7,1.2-9.1-0.5-13.6
		C194.4,934.7,194.2,934,194,933.2z M320.8,289.5c-3.8,0.7-7.1-0.1-10.4-1.3c-2.5-0.9-5.1-1-7.7-0.3c-2.9,0.8-5.9,1.5-8.9,2.3
		c-0.4,0.1-0.8,0.6-1.5,1.1c4.1,2.3,7.8,4.5,12.3,5c1.1,0.1,2.2,0.6,3.3,1c5.2,1.9,10,4.7,14.6,7.7c0.8,0.5,1.7,0.9,3,1.6
		C324.1,300.6,324,294.9,320.8,289.5z M276.8,302.8c0.8,0.6,1.1,1,1.4,1.1c6.9,2.7,13.8,5.4,20.6,8.1c0.3,0.1,0.8,0,1.4-0.1
		c0.5-2.3,1.1-4.5,1.5-6.8c0.4-2.2,1.9-4.1,2-6.6c-5.8-1.2-10.8-3.8-15.6-6.9c-0.4-0.3-1-0.3-1.7-0.5
		C284.8,296.3,281.4,299.7,276.8,302.8z M233.2,530.3c0-2.1-0.3-4,0.1-5.7c0.5-1.9,1.6-3.7,2.6-5.5c0.9-1.6,2.9-2.3,3.9-4.3
		c-5.7-1.4-11.1-2-16.6-1.8c-1.1,0-2,0.5-2.6,1.4c-2.2,3.3-3.6,7-3.4,11c0.1,1.6,0.7,2.3,2.4,2.6c3.8,0.8,7.7,1.5,11.5,2.3
		C231.8,530.4,232.5,530.3,233.2,530.3z M224.4,277.7c-0.3,3.9-0.5,7.2-0.8,10.8c2.7,2.2,5,4.9,6.1,8.6c0.4,1.5,1.9,2.8,3.6,2.7
		c2-0.1,4,0.2,6.1-0.6c-0.2-3.5-0.6-6.8-0.6-10.1c0-3.3,0.5-6.6,0.8-10.1C234.6,278.5,229.6,277.8,224.4,277.7z M207.2,527.2
		c-1.1-4.4,0.9-8.2,2.6-12.4c-2.4,0.1-4.4,0.5-6.3,1.2c-3.6,1.3-7.1,2.5-10.6,3.8c-4.7,1.8-9.4,2.9-14.4,2.4c-0.4,0-0.9-0.1-1.3-0.1
		c-1,0-1.8,0.6-1.9,1.4c-0.1,1.1,0.7,1.5,1.5,1.8c1,0.3,2,0.5,2.9,0.6c1.1,0.2,2.3,0.2,3.4,0.4c7.2,1.3,14.4,1.3,21.7,1.1
		C205.5,527.5,206.2,527.3,207.2,527.2z M152.2,950.1c0.7-1.1,1.8-2,2-3.2c0.8-4.4,0.7-8.8-0.8-14.3c-1.2,3-2.2,5-3.1,7.1
		c-1.1,2.3-1.7,4.7-1.6,7.2c0.3,5.6-1.1,10.9-3,16.2c-1.1,3-1.9,6.1-2,9.3c0,0.5,0.1,1,0.3,2c2.4-2,4.5-3.8,6.7-5.6
		c0.3-2.9,1.8-5.8,0.7-8.9c0.8-0.9,1.5-1.6,2.1-2.4c1.3-1.7,1-3.5,0.8-5.5C154.1,950.6,152.6,951,152.2,950.1z M248.7,534.8
		c3.8,0.1,7.2-0.6,9.7-3.8c1.9-2.4,2.2-4.7,0.5-7.2c-1.1-1.7-2.5-3.2-3.9-4.7c-1.9-2.1-4.1-3.8-7.2-3.1c-0.5,0.1-1.1-0.2-1.7-0.3
		s-1.2-0.2-1.7-0.1c-3.9,0.9-8.2,5.4-8.8,9.4c-0.3,1.8,0.1,3.5,1.1,5c1.1,1.6,2.5,2.8,4.3,3.5C243.5,534.5,246.1,534.8,248.7,534.8z
		 M252.3,299c2.8-1.2,4.7-1.9,6.5-2.7c3.1-1.4,5.1-3.7,6.1-6.9c0.5-1.6,1.2-3.2,2-4.8c1.4-2.7,0.7-5.2-0.1-7.9
		c-2.1,0.6-3.8,1.2-5.6,1.7c-1.8,0.4-3.6,0.6-5.7,1c-0.2,2-0.6,3.8-0.6,5.7c0.1,3.5-0.6,6.9-1.7,10.2
		C252.9,296.1,252.8,297.1,252.3,299z M252.7,365.5c-0.9,0-1.5-0.1-2,0c-5.7,0.8-9.5,4.6-13.2,8.6c-0.5,0.5-0.6,1.6-0.6,2.4
		c0.1,2.2,0.3,4.3,0.6,6.5c0.1,0.5,0.3,1,0.6,1.8c1.8-1.1,3.3-2.3,4.9-3.1c1.7-0.8,3.5-1.2,5.2-1.8
		C251,374.7,252.6,369.6,252.7,365.5z M235,359.7c0.3-0.2,0.5-0.2,0.5-0.4c2-3.3,2.2-7.1,3.1-10.8c0.1-0.4-0.1-0.9-0.2-1.3
		c-1.4-4.9-4-9.2-7.9-13c-2.3,2.7-3.8,5.6-5.2,8.5c1.8,2.8,3.6,5.4,5.4,8.1C232.5,353.6,233,357,235,359.7z M255.6,336.5
		c-4.6,1.9-8.1,4.8-11.2,8.3c-2.9,3.2-4.1,6.9-4.3,11.4c2.6-1.6,4.8-3.2,7.2-4.3c2.6-1.2,5.4-1.9,8.6-3
		C256.7,345,257.2,341,255.6,336.5z M254.6,352.2c-0.9,0-1.9-0.2-2.8,0c-5.9,1.7-10.5,5.4-13.7,10.6c-0.5,0.8-0.8,1.9-0.9,2.8
		c-0.1,1.5-0.7,3,0.2,4.9c1.7-1.5,3.2-2.9,4.8-4c1.8-1.2,3.7-2.3,5.7-3.1c1.8-0.7,3.8-1,5.8-1.5c0.5-3.1,0.9-5.9,1.4-8.8
		C255,353,254.8,352.7,254.6,352.2z M299.4,527.1c1.9,1.1,4.3,0.4,6.5,0.2c2.4-0.2,4.9-0.2,7.2-1.9c-0.1-1.7,0-3.5-0.3-5.2
		c-0.2-1.3-0.8-2.5-1.4-3.6c-0.4-0.8-1.2-1.3-2.1-1.2c-3.6,0.2-7.2,0.4-10.7,1C298.9,520,299.2,523.4,299.4,527.1z M374.1,948
		c-0.9,0.3-1.5,0.4-1.6,0.7c-0.8,2-1.7,4.1-0.6,6.2c0.6,1.1,0.4,1.7,0,2.7c-1,2-0.7,2.5,1.2,3.9c0.5,0.4,0.9,0.9,1.6,1.7
		c-1.5,0.3-2.6,0.6-3.6,0.8c-0.7,2.1-1.3,4.1-1.1,5.9c0.6,1.3,2.6,1.4,2.1,3.5c-0.8,0-1.7-0.2-2.4-0.1c-0.5,0.1-1,0.6-1.2,1.1
		s0,1.2,0.3,1.5c0.8,0.8,1.8,1.5,2.7,2.2c1,0.7,1.6,2,3.2,2.2c1-3.9,2-7.6,2.8-11.4c0.4-2,0.2-4-0.3-6c-0.7-2.5-1.2-5.1-1.7-7.6
		C374.9,953,374.6,950.7,374.1,948z M219.9,354.6c1.3,1.8,2.6,3.3,3.7,5c1.2,1.8,2.1,3.8,3.2,5.7c0.9,1.7,0.9,3.8,2.3,5.6
		c1.7-1.8,2.7-3.8,3.6-5.7c0.4-0.8,0.3-2,0-2.9c-1.7-4.8-3.6-9.5-6.4-13.7c-0.6-0.9-1.4-1.7-2.5-3
		C222.1,348.7,220.7,351.3,219.9,354.6z M273.7,282.4c-1,0.2-1.5,0.2-1.9,0.5c-2.1,1.4-3.4,3.4-4.3,5.9c-0.7,2-1.6,4-2.5,6
		c-1.7,3.7-1.9,7.6-1.4,11.5c0.1,0.8,0.4,1.7,1.7,2c2.6-1.1,4.4-3.3,6.4-5.4C270,296,272,289.4,273.7,282.4z M243,342.7
		c2.1-1.7,3.9-3.3,5.8-4.7c2.1-1.5,4.4-2.7,6.7-4.1c-0.8-3.5-1.5-6.9-2.3-10.3c-0.1-0.4-0.4-0.7-0.7-1.1c-3.6,1.8-7.3,5.3-8.7,8.3
		c-0.4,0.9-0.7,1.9-0.7,2.9C243.1,336.5,243.1,339.4,243,342.7z M190.3,125.1c-1,5.2-3.9,9.4-6.1,14c-1.4,3-2.7,6.1-4,9.1
		c-0.2,0.5-0.7,1.2,0.3,1.9c3.5-4.7,7.1-9.2,12.8-10.9c1-3.6,1.3-7.1,3.6-10C195,127.2,193,125.9,190.3,125.1z M273.5,301.1
		c4.8-1.6,9.1-5.6,10.4-9.5c0.2-0.5,0.3-1.1,0.3-1.7c0.1-1.6-0.5-3-2.1-3.4c-2.1-0.5-3.7-1.7-5.3-2.9c-0.2-0.1-0.6-0.1-0.8-0.1
		C273.8,287.6,272.5,296.2,273.5,301.1z M183,955.6c-2.3-2-4.6-3.2-7.6-2.8c-5.8,0.8-11.4,2.2-16.7,4.5c-0.3,0.1-0.5,0.5-1.2,1.2
		c2.1,0.3,3.8,0,5.4,0c1.7,0.1,3.5,0.1,5.2,0.2c1.6,0.1,3.2,0.3,4.7,0.6c1.7,0.3,3.4,0.7,5.1,1c1.6,0.2,3.2,1.3,5,0.9
		C183,959.2,183,957.3,183,955.6z M233.8,302.3c-0.9,3-0.3,5.7,0.4,8.6c1.7,0.6,3.3,1.2,4.9,1.7c1.7,0.5,3.4,0.5,5.1,0
		c1-0.3,1.8-0.9,2-2c0.2-1,0.4-2,0.4-3c0-3-1.2-4.6-4.1-5.2C239.6,301.9,236.7,301.7,233.8,302.3z M219.1,358.1
		c-1.6,3-2.1,5.8-2.3,8.5c-0.1,0.8,0.3,1.8,0.8,2.3c2.7,3.1,4.7,6.6,6.3,10.3c0.3,0.6,0.5,1.4,1.7,1.2c0.6-1.7,1.2-3.5,1.8-5.2
		C225.6,369.1,223.9,363.2,219.1,358.1z M185.4,941.4c-3.3,0.6-6.1,1.6-9,1.6c-3.4,0-6.2,1.2-9.1,2.6c-0.4,0.2-0.7,0.7-1.1,1.1
		c4.1,1,7.8,2.1,11.6,3c2,0.5,4,0.6,6.1-0.3c0.5-2,1-4,1.4-5.9C185.5,943,185.4,942.4,185.4,941.4z M235,323.8
		c-0.6,1.5-1.2,2.7-1.6,3.9c-0.5,1.3-1,2.6-1.5,4c2.9,3.3,5.6,6.5,7.4,10.3c0.1,0.2,0.7,0.2,1.1,0.3
		C242.8,334.3,241.3,328.8,235,323.8z M214.9,364.3c0.4-3,1.7-5.3,1.6-7.8c-0.4-0.3-0.7-0.6-0.9-0.6c-3.7-0.4-7.4-0.8-11.2-1.2
		c-0.2,0-0.5,0.2-0.8,0.3c-0.8,4.4-0.3,5.6,3.3,7.2C209.3,363.1,211.8,363.8,214.9,364.3z M253.1,311.2c3.7,0.3,6.9,0.7,9.7-1.6
		c-0.4-1.5-0.9-2.9-1.1-4.3c-0.2-1.6,0-3.2,0-4.7c0-0.8,0.4-1.7-0.5-2.3c-4,1.3-4.4,1.5-5.3,3.2
		C254.3,304.4,253.3,307.3,253.1,311.2z M344.3,969.3c4-0.4,7.4-0.9,10.9-1s7.1,0.3,10.6,0.4c0.1-1.2-0.8-1.3-1.3-1.7
		c-2.9-1.6-6.1-2.5-9.3-3.4c-3.9-1.1-7.4-0.2-10.9,1.5C344.3,966.5,344.3,967.7,344.3,969.3z M296.4,527.3c0.3-3.8,0.7-7.5-1.7-10.8
		c-4.2-0.5-4.2-0.5-6.6,0.4c0.2,3.4,0.4,6.8,0.7,10.5C291.1,528,293.6,528,296.4,527.3z M182.9,967.1c0.6-1.3,0.3-1.9-0.5-2.2
		c-3.4-1.7-7.1-2.4-10.8-3c-4.7-0.8-9.5-1-14.3-0.5c-1.1,0.1-2,0.4-2.6,1.3c-0.8,1.2-1.5,2.4-1.6,4.5c5-1.9,9.8-3.2,14.9-3.2
		C173.2,964,178,965.6,182.9,967.1z M344.5,959.6c3.4,1.2,6,1.1,8.6,0.8c4.2-0.5,8.4-0.5,12.6-0.2c0.6,0,1.2,0.2,1.7,0
		c0.4-0.2,0.9-0.8,1-1.2s-0.3-1.3-0.7-1.4c-0.9-0.3-1.9-0.4-2.9-0.5c-2.9-0.4-5.8-0.5-8.6-1.3c-2.9-0.9-5.3-0.7-7.7,1.2
		C347.5,957.7,346.4,958.3,344.5,959.6z M243,327.4c3.4-2.9,6.3-5.4,9.3-7.9c-0.1-1.9-0.4-3.5-1.6-5c-3-0.4-5.7,0.1-8.2,2
		C242.8,319.9,242.2,323.3,243,327.4z M222.9,392.3c1.2-2.6,1.5-4.8,0.7-7.1c-1.6-4.4-3.5-8.6-6-12.5c-0.3-0.4-0.8-0.6-1.3-1
		c-1.1,3.9-1.2,5-0.6,10C219.3,384,220.7,388.2,222.9,392.3z M227.3,308.1c0.8-3.8,0.4-6.9,0.1-10c-0.3-3.4-2.3-5.9-5.1-7.6
		c-0.6-0.4-1.2-0.9-2.1,0.1c2.4,5,3.2,10.5,3.4,16.3C224.8,307.3,225.8,307.6,227.3,308.1z M247.2,382.6c-4.4,0.7-6.4,3.5-9.1,5.7
		c0,1.4,0,2.8,0,4.3c0.1,1.4-0.2,2.8,0.4,4.4c1.6-0.9,3-1.6,4.3-2.4c0.5-0.3,0.9-0.8,1.1-1.3C245,390,245.9,386.7,247.2,382.6z
		 M217.6,513.9c-4.4-0.2-4.8-0.1-6.4,3.2c-0.8,1.7-1.7,3.5-2,5.3c-0.7,4.2,0.1,5.8,4.7,5.2c0.3,0,0.5-0.3,0.9-0.5
		C213.7,522.3,215.9,518.2,217.6,513.9z M213,376.3c-1.2,0.2-1.9,0.3-2.7,0.4c-3.1,0-5.3-1.8-5.9-4.7c-0.3-1.6,0.2-2.9,1.3-3.9
		c1.7-1.5,4-1.6,6-0.2c0.6,0.4,0.8,1.2,1.7,1.1c0.8-1.6,0.8-2.4-0.4-2.7c-2.9-0.9-5.8-1.7-8.7-2.5c-0.2,0.2-0.6,0.4-0.6,0.6
		c-0.4,3.3-0.8,6.6-1.2,9.9c-0.1,0.5,0.1,1.2,0.4,1.7c0.3,0.6,0.8,1.3,1.4,1.6c1.5,0.9,5.9,1.3,8.5,0.9
		C212.9,377.8,213,377.3,213,376.3z M366.6,974.5c-0.4-1.3-0.5-2.2-0.9-2.4c-0.7-0.5-1.6-0.6-2.4-0.8c-4.9-0.6-9.8-0.7-14.7,0
		c-1.3,0.2-2.6,0.5-3.8,1c-0.5,0.2-0.9,0.7-1.1,1.2s0,1,0.1,2C351.2,972.9,358.4,972.6,366.6,974.5z M217.7,290.3
		c-1.4,2.4-1.5,2.4-1.4,3.4c0.2,2.5,0.4,4.9,0.8,7.4c0.4,2.3,2.1,3.8,4.6,4.3C222.3,301.3,220.6,294.5,217.7,290.3z M215.7,386.1
		c-0.4,2,0,3.9,0.5,5.8c0.3,1.2,0.4,2.7,1.2,3.6c1.6,2.1,2.7,4.4,3.8,6.8c0.2,0.4,0.7,0.7,1.3,1.2c0.4-2,0.7-3.6,0-5.1
		c-1.5-3.6-3.1-7.1-4.7-10.6C217.4,387,217,386.1,215.7,386.1z M368.9,948.8c-2.6-0.2-4.6,0.7-6.6,1.3c-1.6,0.5-3.2,1.3-4.8,2
		c-0.2,0.1-0.1,0.5-0.3,1.1c3.6,1.1,7.2,1.5,11,1.1c0.3-0.9,0.6-1.7,0.7-2.5C369,950.9,368.9,950,368.9,948.8z M167.3,942.6
		c-3.8-1.1-6.7-2.8-10.3-3.3c-0.2,2.7-0.3,5.1,0.1,7.7c2.8,0,5-1.7,7.3-2.6C165.3,944,166.1,943.4,167.3,942.6z M240.9,409.5
		c0.3-2.3,0.6-4.1,0.8-6c0.2-1.7,1.1-3.5,0.3-5.6c-2.5,1.7-4.2,3.6-4.4,6.3c-0.2,1.9-0.6,3.9,0,6C238.7,410,239.7,409.8,240.9,409.5
		z M157,950.1c-0.3,1.8-0.4,3.2,0.3,4.5c0.4,0,0.7,0.1,1,0c3.4-1.1,6.8-2.1,10.3-3.3c0.3-0.1,0.4-0.6,0.7-1
		C165.2,949.2,161.2,949,157,950.1z M240.6,412.3c-3.1,1-3.5,1.4-3.4,3.5c0.3,3.8,0.9,7.4,2.4,10.9c0.1,0.3,0.5,0.5,0.9,0.8
		C240.6,422.4,240.6,417.5,240.6,412.3z M235.7,319.7c1.6,1.6,2.7,3.6,5.3,4.7c0-3.1,0-5.7,0-8.5c-1.5-0.5-2.8-1.2-4.6-1.1
		C236.2,316.6,235.9,318.1,235.7,319.7z M348.4,953.8c-3.4-1.3-6.3-2-9.8-2.7c1,2.7,1.9,4.9,3.7,6.6
		C344.5,956.7,346.5,955.8,348.4,953.8z M213,371.4c-0.4-0.5-0.9-1.4-1.6-2.1c-1.3-1.2-3.1-1.2-4.3-0.2c-1.1,1-1.1,3,0.2,4.3
		c0.6,0.6,1.4,1,2.2,1.3C211.1,375.1,213.1,373.4,213,371.4z M248.8,303c0.2,2.6,0.3,4.9,0.5,7.2c0.1,0.6,0.3,1.2,1.1,1
		c0.3-0.1,0.8-0.5,0.9-0.8c0.7-2.5,1.3-5,1.8-7.5c0.1-0.3-0.2-0.8-0.4-1.4C251.3,302.1,250,302.6,248.8,303z M320.6,521.9
		c0.6-0.9,1.2-1.5,1.2-2c0.1-2.6,0-5.2-0.1-7.8c0-0.2-0.4-0.3-0.8-0.6c-0.7,0.6-1.4,1.2-1.9,1.7C319.5,516.1,320,518.7,320.6,521.9z
		 M316.1,524.8c0.8-0.8,1.2-1.1,1.3-1.5c0.1-2,0.1-4-0.1-6c-0.1-0.8-0.5-1.7-1-2.3c-0.2-0.3-1-0.3-1.5-0.3c-0.3,0.1-0.7,0.7-0.6,1
		c0.3,1.4,0.9,2.7,1.3,4.1C315.7,521.3,315.8,522.7,316.1,524.8z M231.1,309.2c0-2.4,0.1-4.5,0-6.7c0-0.9-0.4-1.8-1.9-1.3
		c-0.4,2.3-0.2,4.8-0.1,7.2C229,309.2,229.9,309.4,231.1,309.2z M361.9,962.8c1.9,1.5,3.5,2.5,5.6,2.6c0.6-1.9,0.5-2.4-0.5-2.5
		C365.5,962.7,364,962.3,361.9,962.8z M181.7,939.5c1.7,0.2,3.1,0,4.3-0.8c0.5-0.3,1-0.6,0.3-1.4
		C184.7,937.7,183.2,938.2,181.7,939.5z M373,945.2c0.5,0.2,0.9,0.5,0.9,0.5c1.2-1.3,1.2-1.7,0.5-4.8
		C373.9,942.6,373.4,943.9,373,945.2z"/>
	<path class="st0" d="M0.6,913.4c-0.2-1.2-0.4-2.2-0.6-3.4c1.4-0.1,2.5-0.3,3.6-0.3c10.5,0,20.9,0,31.4,0
		c32.4,0.1,64.9,0.2,97.3,0.2c2.6,0,5.2,0.1,7.8,0.2c0.8,0,1.8,0.2,2.5,0.5c0.4,0.2,0.7,0.8,0.8,1.3c0.1,0.3-0.4,0.8-0.7,1
		c-0.7,0.3-1.4,0.5-2.1,0.5c-2.8,0.1-5.5,0.2-8.3,0.2c-22.1,0-44.2,0-66.3-0.1c-20.2,0-40.4-0.1-60.7-0.2
		C3.9,913.4,2.3,913.4,0.6,913.4z"/>
	<path class="st0" d="M134.2,958c-1.6,0.2-3,0.5-4.4,0.6c-14.8,1-29.6,1.9-44.4,2.8c-15.7,0.9-31.4,1.8-47.1,2.6
		c-9.9,0.5-19.8,1-29.6,1.5c-1.1,0-2.3-0.1-3.4-0.3c-0.2,0-0.4-0.7-0.5-1.1c0-0.2,0.2-0.6,0.4-0.7c0.5-0.2,1.1-0.4,1.7-0.4
		c13.3-0.9,26.7-1.8,40-2.8c14.2-1,28.4-2.1,42.7-3c11.6-0.8,23.2-1.3,34.9-1.9c2.6-0.1,5.2,0,7.8,0.1
		C133.2,955.7,134.3,956.1,134.2,958z"/>
	<path class="st0" d="M22.3,975.1c0.4-1.3,1.3-1.3,2.1-1.4c3.9-0.6,7.8-1.3,11.7-1.6c10.2-0.8,20.3-1.5,30.5-2.1
		c8.4-0.5,16.8-1,25.3-1.3c7.4-0.3,14.8-0.2,22.3-0.2c1.1,0,2.3,0.3,3.4,0.6c0.9,0.3,1.6,0.9,1.4,1.9c-0.2,0.9-0.9,1-1.7,1.1
		c-0.7,0.1-1.4,0-2.2,0c-25,0.4-50,1.4-75,2.7c-5.4,0.3-10.8,0.3-16.1,0.5C23.4,975.3,22.9,975.2,22.3,975.1z"/>
	<path class="st0" d="M305.6,976.8c-0.4,0.1-0.8,0.3-1.2,0.3c-20.9,1-41.8,1.7-62.7,1.7c-2.3,0-4.6,0-6.6-1.2
		c-0.3-1.1,0.3-1.6,1-1.8c0.8-0.2,1.7-0.3,2.6-0.3c21.8-0.2,43.6-0.6,65.3,0.5c0.6,0,1.1,0.2,1.7,0.3
		C305.6,976.5,305.6,976.6,305.6,976.8z"/>
	<path class="st0" d="M437.4,1024.3c-28.5,0.4-56.8,2.3-84.8,6.1c-0.8-1.2-0.2-1.8,0.4-2c2.1-0.6,4.2-1.3,6.3-1.6
		c8.4-0.9,16.7-1.9,25.1-2.5c13-0.9,26.1-1.3,39.2-0.9C428.2,1023.6,432.8,1024,437.4,1024.3z"/>
	<path class="st0" d="M54.8,986.6c1.6-0.2,3.1-0.5,4.7-0.5c16.3-0.8,32.5-1.6,48.8-2.4c1.7-0.1,3.5-0.1,5.2-0.1c1,0,2,0.1,3,0.3
		c0.8,0.1,1.5,0.5,1.3,1.4c-0.1,0.4-0.7,1-1.2,1c-1.3,0.2-2.6,0.3-3.9,0.3c-6.4,0.3-12.8,0.7-19.2,0.8c-10.6,0.2-21.2,0.4-31.8,0.5
		c-2.3,0-4.6-0.3-6.9-0.5C54.8,987.2,54.8,986.9,54.8,986.6z"/>
	<path class="st0" d="M314.3,953.3c-4,0.3-8,0.7-12.1,0.8c-7.3,0.2-14.5,0.1-21.8,0.3c-8.6,0.2-17.1,0.6-25.7,0.8c-1,0-2,0.1-3-0.1
		c-0.3,0-0.7-0.6-0.7-1c-0.1-0.4,0.2-0.9,0.4-1.1c0.4-0.3,1-0.6,1.6-0.6c1.7-0.2,3.5-0.5,5.2-0.5c13.5,0,27-0.1,40.6,0
		c4.6,0,9.3,0.4,13.9,0.6c0.5,0,1.1,0.2,1.6,0.3C314.3,953,314.3,953.2,314.3,953.3z"/>
	<path class="st0" d="M306.5,962.6c-0.6,1.1-1.7,1-2.7,1c-6.4,0.3-12.8,0.8-19.2,1c-12.8,0.4-25.6,0.7-38.4,1c-2,0-4,0.3-6.4-0.2
		c0.7-0.7,1-1.3,1.4-1.4c1.7-0.4,3.4-0.8,5.1-0.9c19.8-1.3,39.5-0.9,59.3-0.8C305.9,962.4,306.2,962.6,306.5,962.6z"/>
	<path class="st0" d="M351.4,1043.2c0.5-0.6,0.7-1.1,1.1-1.4c1.5-1.1,3.3-1.2,5-1.2c7.8-0.3,15.7-0.7,23.5-0.7
		c12.6-0.1,25.2,0.1,37.9,0.2c0.9,0,1.7,0.1,2.6,0.5c-1.6,0.2-3.2,0.5-4.8,0.5c-10.4,0.3-20.9,0.6-31.3,0.9c-11,0.3-22.1,0.3-33,1.7
		C352.3,1043.7,352.1,1043.6,351.4,1043.2z"/>
	<path class="st0" d="M219.4,405.6c0-0.3,0-0.5,0-0.8C219.4,405,219.4,405.3,219.4,405.6C219.3,405.6,219.4,405.6,219.4,405.6z"/>
	<path class="st0" d="M241.7,225.9c-1.3-2.1-1.1-4.5-0.4-6.7c1-3.3,2-6.7,3.5-9.8c4.9-10.3,11.7-19,20.9-25.9
		c4.1-3.1,8.7-5.2,13.7-6.5c1.1-0.3,2.3-0.5,3.4-0.4c2.7,0.2,4.2,2.1,4,4.7c0,0.3,0,0.6-0.1,0.9c-1.3,4.2-1.2,8.6-1.6,12.9
		c-0.7,6.9-3.3,12.9-8.8,17.4c-6.8,5.6-14,10.4-22.6,12.7c-2.5,0.7-5.1,1-7.7,1.3C244.5,226.7,243.1,226.8,241.7,225.9z
		 M268.3,185.5c-0.5,0.2-1,0.3-1.3,0.5c-1,0.7-1.9,1.3-2.8,2.1c-8.7,7.4-15.2,16.4-19.3,27.1c-0.2,0.4-0.7,1,0.3,1.4
		c0.3-0.4,0.7-0.9,1-1.3c2.5-4.1,5.8-7.6,9.4-10.9c3.7-3.5,7.9-6.4,12.1-9.4c0.8-0.6,1.6-1.2,2.4-1.8
		C269.7,190.5,269.8,187.8,268.3,185.5z M274.4,190.2c3.3-1,6-3.5,9.1-4.4c1-3.6,1-3.6,0.1-6.7c-1,0-2.2-0.3-3.3,0.1
		c-2.8,0.9-5.7,1.9-8.2,3.8C272.9,185.4,273.6,187.8,274.4,190.2z"/>
	<path class="st0" d="M278,140.8c1.1-3.2,3.7-4,5.3-5.8c1.6-1.8,3.6-3.3,4.6-5.6c-5.6-2.4-6.2-2.9-9.9-8.2c-2.8-4-5-8.2-6.1-12.9
		c-0.6-2.7-1-5.4-1-8.2c0-4,0.7-5.1,3.8-8.5c-0.9-0.7-1.7-1.6-2.6-2.2c-3.1-1.9-6.4-3.4-10-4.3c-2.6-0.7-5.2-0.6-7.8-0.3
		c-1.6,0.2-2.7,0.9-3.6,2.2c-1.5,2.1-2.2,4.4-2.4,6.9c-0.3,4.3,0.3,8.4,1.8,12.4c3.6,10.1,8.5,19.4,15.2,27.8
		c1.3,1.7,2.8,3.2,3.8,5.8c-0.9-0.2-1.5-0.1-1.9-0.4c-0.6-0.4-1.1-0.9-1.6-1.5c-8.3-9.5-14.8-20.1-19.1-32.1
		c-1.9-5.3-2.3-10.8-0.7-16.3c0.5-1.8,1.4-3.5,2.4-5.1c1.3-2,3.3-3,5.8-3.4c7.9-1.3,14.6,1.4,20.9,5.8c5.8,4,9.8,9.5,13.4,15.3
		c2.1,3.3,4,6.8,5.2,10.5c1,3.1,1.3,6.3,0.7,9.5c-0.3,1.7-0.9,3.3-1.9,4.8c-2.6,4.1-5.7,7.7-9.3,11C282,139.2,280.6,140.3,278,140.8
		z"/>
	<path class="st0" d="M126.7,212.7c-0.5-3.4,0-6.3-1.1-9.4c-1.3,0.9-2.3,1.4-3.2,2.1c-2.3,1.6-4.8,2.7-7.4,3.6
		c-2.3,0.7-4.6,1-6.9,0.5c-2.7-0.6-5.4-1.3-7.9-2.4c-5-2.2-7.5-6.3-7.7-11.7c-0.4-10.2,6.3-17.7,13.4-19.9c1.4-0.4,2.8-0.9,4.4-1.4
		c-0.2-0.6-0.3-1.3-0.6-1.9c-1.2-2.1-2.6-4.2-3.8-6.3c-0.4-0.8-0.7-1.5-0.6-2.4c0.5,0,0.8-0.1,1,0c0.4,0.4,0.9,0.8,1.2,1.2
		c5,7,10,13.9,14.9,20.9c2.7,3.9,4.5,8.1,5.4,12.8c0.8,4,0.6,8.1,0.3,12.1C127.9,211.2,127.3,211.7,126.7,212.7z M125.3,198.7
		c-0.3-1.2-0.6-2.4-1-3.4c-2.5-6.1-6.2-11.4-10.2-16.7c-0.8-1-1.8-1.5-3-1.4c-1.3,0.1-2.6,0.3-3.8,0.7c-6.7,2.4-12.1,8.4-11.5,17.6
		c0.2,2.8,1.3,5.2,3.4,6.8c3.7,2.7,8.1,4.2,12.7,3.4C117,204.8,121.3,202.1,125.3,198.7z"/>
	<path class="st0" d="M273.6,172.4c-2.4-2.8-2.8-4.3-0.8-5.9c2.8-2.3,3-5.5,3.6-8.6c0.4-2.1,0-4.4-1.1-6.4c-0.5-1-1.3-1.5-2.5-1.5
		c-1.8,0-3.5,0.6-4.7,2c-1.4,1.6-2.7,3.4-4.1,5.1c-2.5,3.2-5,6.4-7.6,9.5c-1.4,1.7-1.5,1.6-3.8,2.5c0.4-1.7,0.4-1.7,2.5-4.1
		c1.3-1.4,2.4-2.9,3.6-4.4c1.1-1.4,2-2.8,3.2-4.4c-0.8-0.8-1.5-1.5-2.3-2.1c-6.4-4.8-11-11-14.1-18.5c-6.9-17-9-34.5-5.7-52.6
		c0.1-0.7,0.3-1.4,0.5-2.1c0.1-0.4,0.3-0.8,0.7-1.4c0.7,0.9,0.4,1.7,0.4,2.4c0,0.7-0.1,1.4-0.1,2.2c-0.3,4.9-0.7,9.9-0.8,14.8
		c-0.2,12.7,2.4,24.8,7.1,36.6c2.5,6.3,6.1,11.9,11.5,16.2c0.7,0.5,1.4,1.1,2.1,1.6c0.5,0.3,1,0.6,1.8,0.9c0.9-1.1,1.9-2.1,2.8-3.2
		c1.7-2.1,3.9-3.4,6.6-4c2.1-0.4,3.7,0.2,5,1.9c1.2,1.6,1.9,3.3,1.8,5.3c-0.4,5.4-1.5,10.7-3.8,15.6
		C274.9,170.8,274.2,171.5,273.6,172.4z"/>
	<path class="st0" d="M77,307c0.6,1.6,1,2.4,1.2,3.2c2.6,11.5,4.7,23,6.2,34.7c1,8,0.5,16-0.9,23.9c-0.4,2.2-0.8,4.6-2.6,6.2
		c-1.1-0.2-1.1-0.9-1-1.6c0.4-2.3,0.9-4.5,1.3-6.8c1.4-10.1,0.9-20.3-0.6-30.4c-1.3-9-2.6-18.1-3.8-27.1
		C76.7,308.6,76.8,308.3,77,307z"/>
	<path class="st0" d="M231.3,156.3c-0.4-0.1-0.8-0.2-1-0.4c-0.6-0.8-1.1-1.7-1.6-2.6c-6.9-12.6-16.6-22.6-28.2-30.9
		c-1.1-0.8-2.1-1.5-3.2-2.3c-0.2-0.2-0.4-0.4-0.6-0.7c0.7-1,1.5-0.3,2.1,0.1c4.8,2.5,9.2,5.5,13.2,9.1c7.7,6.8,13.8,14.9,18.4,24.1
		c0.4,0.9,0.8,1.9,1.1,2.8C231.6,155.6,231.4,155.9,231.3,156.3z"/>
	<path class="st0" d="M98.9,230.8c0.5,1-0.3,1.7-0.6,2.4c-3.6,7.4-7.3,14.8-11,22.2c-2.3,4.5-4.5,9.1-5.2,14.2
		c-0.1,0.4-0.4,0.7-0.7,1c-1.6-1-1.5-2.6-1.2-4c0.4-2,0.8-4,1.7-5.8c5-10.1,10.3-20.1,16.3-29.7C98.4,231,98.7,230.9,98.9,230.8z"/>
	<path class="st0" d="M264,171.3c-0.4,1.6-0.7,3.1-1.2,4.6c-0.2,0.6-0.8,1.2-1.3,1.7c-0.6,0.6-2,0.4-2.2-0.4
		c-0.3-0.8-0.6-1.8-0.4-2.5c0.6-1.6,1.4-3.1,2.3-4.6c0.4-0.7,1.2-1.5,2.1-0.8C263.9,169.7,263.9,170.6,264,171.3z"/>
	<path class="st0" d="M193,116.8c-2.6-0.6-4.5-2.1-6.8-3.8C189.5,113.2,190.8,113.9,193,116.8z"/>
	<path class="st0" d="M295.9,351.1c0,1.9-0.1,3.3,0,4.7c0.5,4.5,0.5,4.4-2.1,7.8c0,1.6,0,3.2,0,4.8c0,1,0,2-0.2,3
		c-0.9,5.5-2,6.7-7.5,8c-3.9,0.9-7.8,0.8-11.7,0.1c-3.8-0.6-5.9-2.9-6.5-6.6c-0.3-2-0.4-4-0.4-6.1c0-2-0.2-4-1.3-5.8
		c-1.2-1.9-1.1-4.2-0.9-6.4c0.1-1,0.7-1.6,1.6-1.8c0.8-0.2,1.7-0.3,2.6-0.4c3.5-0.3,6.9-0.7,10.4-1c4.3-0.3,8.7-0.5,13-0.7
		C293.8,350.7,294.8,351,295.9,351.1z M270,364.5c-0.6,3,0,5.6,0.4,8.1c0.4,2.9,1.6,4.1,4.6,4.4c4.2,0.5,8.4,0.5,12.5-0.6
		c1.6-0.4,2.4-1.4,3-2.8c1.1-3,0.8-5.9,0.3-9.1C283.8,363.8,277.1,364.3,270,364.5z M292.7,353.2c-3.1,0-5.9-0.1-8.6,0
		c-2.9,0.1-5.8,0.5-8.7,0.8c-2.7,0.3-5.5,0-8,1c-0.6,6,2.4,7.3,7.4,7c0.1,0,0.3,0,0.4-0.1c1.9-0.1,3.8-0.3,5.7-0.3
		c2.5,0,4.9,0.1,7.4,0c1.3,0,2.6-0.3,3.8-0.7c1.3-0.4,1.8-1.4,1.6-2.7C293.5,356.7,293.1,355.2,292.7,353.2z"/>
	<path class="st0" d="M295.5,348.3c-0.8,0.3-1.4,0.6-2.1,0.7c-4.6,0.7-9.3,0.4-13.9,0.4c-3.3,0-6.7,0-10,0c-0.6,0-1.2,0-1.7,0
		c-1.7-0.1-2.3-0.7-2.5-2.3c-0.1-0.4,0-0.9,0-1.3c0-0.6,0-1.1,0-2c0.9-0.4,1.8-0.8,2.7-1.1c0.5-0.2,1.1-0.2,1.7-0.2
		c6.4-0.2,12.7-0.4,19.1-0.5c0.7,0,1.4,0.1,2.2,0.2c1.8,0.1,3,1,3.6,2.7C294.8,346,295.1,347.1,295.5,348.3z M267.3,344.6
		c-0.2,0.5-0.4,0.9-0.5,1.3c-0.1,1.9,0.4,2.4,2.2,2.3c3-0.1,6.1-0.2,9.1-0.3c2.5,0,4.9,0.2,7.4,0.2c2.4,0,4.9-0.1,7.2-0.7
		c0.1-2.7-0.3-3.4-2.1-3.6c-0.7-0.1-1.4-0.1-2.2-0.1c-6.5,0.1-13.1,0.3-19.6,0.5C268.4,344.2,267.8,344.4,267.3,344.6z"/>
	<path class="st0" d="M243.9,485.6c-0.4,0.4-0.9,1.1-1.5,1.4c-0.9,0.4-2.2-0.8-2.1-2c0-0.5,0.6-1.3,1.2-1.5
		C242.5,483.1,243.8,484.1,243.9,485.6z"/>
	<path class="st0" d="M243,460.2c-0.2,1.1-1.2,1.9-2.1,1.6c-0.8-0.2-1.5-1.1-1.4-1.9c0.1-1,1.2-1.8,2.2-1.6
		C242.4,458.5,243.1,459.4,243,460.2z"/>
	<path class="st0" d="M240.8,507.8c-0.9,0-1.7-0.8-1.7-1.5c-0.1-1,1.1-1.9,2.4-1.7c0.8,0.1,1.2,0.7,1.2,1.5
		C242.8,507.1,241.9,507.9,240.8,507.8z"/>
	<path class="st0" d="M243,495c0,1.3-1,2-1.8,1.8s-1.2-0.7-1.3-1.5c-0.1-1,0.8-2,1.5-1.7C242.1,494,242.6,494.7,243,495z"/>
	<path class="st0" d="M244.2,449.6c-0.7,0.8-1.1,1.4-1.6,1.7c-0.7,0.4-1.7-0.4-1.7-1.4c-0.1-0.8,0.4-1.6,1.1-1.6
		C242.6,448.3,243.3,449,244.2,449.6z"/>
	<path class="st0" d="M243.2,473.3c-0.3,0.2-0.8,0.8-1.4,0.9c-0.8,0.1-1.3-0.5-1.3-1.3s0.2-1.4,1.1-1.5
		C242.6,471.3,243.3,472,243.2,473.3z"/>
	<path class="st0" d="M242.6,439.4c0.4,0.8,0.8,1.3,0.7,1.6c-0.1,0.4-0.7,0.8-1.1,0.9c-0.7,0.1-1-0.5-0.8-1.1
		C241.5,440.4,242,440.1,242.6,439.4z"/>
	<path class="st0" d="M164.2,240.3c0.1,1.4-0.9,2.6-2.2,2.6s-2.3-1.1-2.4-2.5c0-1.4,1-2.6,2.2-2.6C162.9,237.7,164,239,164.2,240.3z
		 M161.8,240.1c-0.1,0.1-0.2,0.2-0.2,0.2c0,0.1,0.1,0.2,0.1,0.3c0.1-0.1,0.2-0.2,0.2-0.2C161.9,240.3,161.8,240.2,161.8,240.1z"/>
	<path class="st0" d="M144.7,222.8c3,1.5,5.1,3.1,6.8,5.3l0.1-0.1C148.6,227.2,146.3,225.6,144.7,222.8L144.7,222.8z"/>
	<path class="st0" d="M151.6,228.1c2.9,0.3,5.3,1.9,7.9,3.3c-0.7,0-1.4,0.2-1.9,0C155.5,230.4,153,230.1,151.6,228.1
		C151.7,228,151.6,228.1,151.6,228.1z"/>
	<path class="st0" d="M144.8,222.7c-2.6-0.9-4.4-2.6-5.3-5.3l-0.1,0.1C141.5,218.9,143.5,220.5,144.8,222.7
		C144.7,222.8,144.8,222.7,144.8,222.7z"/>
	<path class="st0" d="M329,586.5c2.5-0.8,4.5,0.1,7.2,0.4c-2.4,1.7-4.3,1.4-6.2,0.9C329.6,587.7,329.4,587.1,329,586.5z"/>
	<path class="st0" d="M316.3,582.6c-2.2-0.5-4.1-1.3-4.8-4.5C314.1,579.2,315,581.1,316.3,582.6z"/>
	<path class="st0" d="M324.3,586.5c-1.9,0.5-3.5,0.1-4.9-1C320.7,584.8,321.2,584.9,324.3,586.5z"/>
	<path class="st0" d="M308.8,574.7c-2.1-0.9-2.8-2.3-3.2-3.8c0.5-0.6,1.1-0.7,1.5-0.2C307.9,571.8,308.9,572.8,308.8,574.7z"/>
	<path class="st0" d="M307.4,549.4c-1.1,1.1-2.3,1.2-4.2,1.5C304.6,548.9,306,549.1,307.4,549.4z"/>
	<path class="st0" d="M300.9,561.2c2.7,2,2.7,2,2.3,4.7C302.1,564.6,301.1,563.5,300.9,561.2z"/>
	<path class="st0" d="M299.2,556.2c0-1,0-2,0-3.6c0.8,0.8,1.4,1,1.5,1.4c0.2,0.8,0.2,1.7,0.2,2.8
		C300.1,556.5,299.6,556.3,299.2,556.2C299,556,299.2,556.2,299.2,556.2z"/>
	<path class="st0" d="M312,546.9c0.7-0.3,1.4-0.7,2.2-1c0.2-0.1,0.5,0.1,1.2,0.4c-1.2,0.5-2.1,0.9-2.9,1.3
		C312.3,547.4,312.2,547.1,312,546.9z"/>
	<path class="st0" d="M340.3,586.6c0.3,0.3,0.5,0.5,0.6,0.6c-0.3,0.2-0.6,0.4-1,0.5c-0.1,0-0.2-0.1-0.3-0.2
		C339.9,587.2,340.1,586.9,340.3,586.6z"/>
	<path class="st0" d="M179.4,582.1c1.1-1.7,2.6-2.4,4.6-3C182.4,581.8,181.9,582.2,179.4,582.1z"/>
	<path class="st0" d="M197.1,555.6c-0.9-2.3-0.1-3.6,0.5-5.2C198.7,552.5,198.7,552.5,197.1,555.6z"/>
	<path class="st0" d="M189.3,543.2c2.4-0.4,3.9-0.2,5.3,0.3c0.2,0.8-0.1,1.3-0.8,1.3C192.4,544.8,191,544.7,189.3,543.2z"/>
	<path class="st0" d="M189.6,572.5c0.2,2-0.7,2.9-2.3,3.6c0-0.6-0.2-1.1-0.1-1.3C188,574,188.8,573.3,189.6,572.5z"/>
	<path class="st0" d="M198.2,547.5c-0.7-1.1-0.6-2.1,0.2-3.1c0.3,0.1,0.7,0.1,0.8,0.3C199.6,546.8,199.6,546.8,198.2,547.5z"/>
	<path class="st0" d="M194,565c-0.2-2,0.6-3,1.6-3.8C196,563.2,196,563.2,194,565z"/>
	<path class="st0" d="M176.9,542.1c1-1.5,1.8-1.2,2.5-0.9c0.2,0.1,0.4,0.5,0.3,0.7c0,0.2-0.3,0.5-0.5,0.5
		C178.6,542.4,178,542.2,176.9,542.1z"/>
	<path class="st0" d="M184.5,542.8c-0.2,0.1-0.4,0.3-0.6,0.3c-0.2,0-0.4-0.2-0.7-0.3c0.2-0.1,0.4-0.3,0.6-0.3
		C184,542.5,184.3,542.7,184.5,542.8z"/>
	<path class="st0" d="M353,222.2c1.2-0.1,2.3,0.9,2.3,2.1c0,1-0.9,2-1.9,2c-1.1,0-2.2-1-2.4-2.1C350.9,223.2,352,222.2,353,222.2z"
		/>
	<path class="st0" d="M189,299.2c-1.3,0-2.5-1.1-2.5-2.4s1.2-2.5,2.4-2.6c1.3,0,2.8,1.4,2.8,2.7C191.7,298.1,190.4,299.2,189,299.2z
		"/>
	<path class="st0" d="M299.5,301.2c0.1,1.2-1.1,2.4-2.5,2.5s-2.6-1-2.6-2.3c0-1.4,1.1-2.5,2.4-2.5
		C298.2,298.8,299.4,299.9,299.5,301.2z"/>
	<path class="st0" d="M234.3,280.9c0.8,1.1,1.2,1.6,1.5,2.2c0.6,1.2,0.4,2-0.4,2.7c-0.8,0.6-1.6,0.4-2.3-0.1
		c-0.9-0.7-1.3-1.7-0.8-2.6C232.7,282.3,233.4,281.8,234.3,280.9z M234.2,283.6c-0.1,0.1-0.2,0.2-0.2,0.3c0,0.1,0.1,0.2,0.1,0.3
		c0.1-0.1,0.2-0.2,0.2-0.3C234.3,283.9,234.2,283.7,234.2,283.6z"/>
	<path class="st0" d="M247.8,518.7c3.5,0,5.7,1.4,6.8,4.1c1.1,2.7,0.5,5.6-1.5,7.6c-2.3,2.2-5.2,2.8-7.9,1.6
		c-0.9-0.4-1.8-0.9-2.5-1.6c-2.1-2.1-2.8-4.8-1.9-7.6c0.8-2.7,3.3-3.5,5.7-4C247,518.7,247.5,518.7,247.8,518.7z M247.4,520.6
		c-0.6,0.2-2.2,0.5-3.6,1.2c-0.7,0.3-1.3,1.2-1.5,2c-0.6,2,0.3,4.6,2.1,5.8c1.7,1.2,3.6,1.9,5.7,0.7c2.1-1.2,3.1-3,2.9-5.4
		C252.7,522,251.2,520.6,247.4,520.6z"/>
	<path class="st0" d="M260.1,283.2c-0.4,0.4-0.9,1.1-1.5,1.4c-1.1,0.3-2.3-0.9-2.2-2c0.1-1,0.7-1.6,1.5-1.9
		C258.8,280.4,259.9,281.5,260.1,283.2z"/>
	<path class="st0" d="M212.2,360.8c0.1,0,0.3,0,0.3,0.1s0,0.3-0.1,0.3s-0.2,0-0.3-0.1C212.2,361,212.2,360.9,212.2,360.8z"/>
	<path class="st0" d="M161.8,240.1c0.1,0.1,0.1,0.2,0.1,0.3s-0.1,0.2-0.2,0.2c-0.1-0.1-0.1-0.2-0.1-0.3
		C161.6,240.3,161.7,240.2,161.8,240.1z"/>
	<path class="st0" d="M234.2,283.6c0.1,0.1,0.2,0.2,0.1,0.4c0,0.1-0.1,0.2-0.2,0.3c-0.1-0.1-0.2-0.2-0.1-0.3
		C234,283.8,234.1,283.7,234.2,283.6z"/>
	<path class="st0" d="M120.6,197.7c-1.4-0.5-2.1-0.6-2.7-0.9c-5.1-2.5-10.3-4.6-16.1-4.7c-0.4,0-1.1-0.7-1.1-1c0-0.4,0.5-1,1-1.2
		c1.9-0.8,4-0.6,6-0.2c1.4,0.2,2.8,0.5,4.4,0.8c0.4-2.7,0.4-5.5,3.1-6.9c0.7,1.1-0.3,1.7-0.3,2.5c0,1.3-0.2,2.6-0.1,3.8
		c0.1,1.5,0.8,2.7,2.2,3.5C118.4,194.2,119.9,195.1,120.6,197.7z"/>
	<path class="st0" d="M279.4,360.4c-0.5-0.9-1-1.5-1.1-2c-0.1-0.7,0.8-1.4,1.4-1.2c0.8,0.2,1.3,0.8,1.1,1.5
		C280.7,359.2,280.1,359.6,279.4,360.4z"/>
</g>
</svg>
