<svg id="Layer_1" data-name="Layer 1" xmlns="http://www.w3.org/2000/svg" viewBox="0 0 104.37 63.82"><defs><style>.cls-1{fill:#fecf0a;}.cls-2{fill:#fee783;}.cls-3{fill:#fff;}</style></defs><title>csatar_logo</title><path class="cls-1" d="M7.55,25a1.1,1.1,0,0,1,1.76,0l3.88,5.21,3.45,4.64a1.1,1.1,0,0,1-.88,1.76H1.1a1.1,1.1,0,0,1-.88-1.76l3.45-4.64Z"/><path class="cls-1" d="M35.4,25a1.1,1.1,0,0,1,1.76,0L41,30.21l3.45,4.64a1.1,1.1,0,0,1-.88,1.76H29a1.1,1.1,0,0,1-.88-1.76l3.45-4.64Z"/><path class="cls-1" d="M22.36,0a1.1,1.1,0,0,0-1,.5L10.64,17.18l-.35.54a1.29,1.29,0,0,0,0,1.39l5,7.74,5.41,8.45.53.76a1.27,1.27,0,0,0,1.16.54V0Z"/><path class="cls-2" d="M22.36,36.6a1.1,1.1,0,0,0,1-.5L34.08,19.43l.35-.54a1.29,1.29,0,0,0,0-1.39l-5-7.74L24.06,1.31,23.53.55A1.27,1.27,0,0,0,22.37,0V36.6Z"/><path class="cls-1" d="M29.55,52.63a.67.67,0,0,1-1.09,0l-1.54-2.07-1.28-1.72a.69.69,0,0,1,.55-1.09h5.64a.69.69,0,0,1,.55,1.09L31.1,50.56Z"/><path class="cls-1" d="M16.25,52.63a.67.67,0,0,1-1.09,0l-1.54-2.07-1.28-1.72a.69.69,0,0,1,.55-1.09h5.64a.69.69,0,0,1,.55,1.09L17.8,50.56Z"/><path class="cls-1" d="M22.36,47.75a.67.67,0,0,0-.57.31l-.13.19L19.29,51.9l-2.13,3.27a.66.66,0,0,0,0,.74l.11.16L21.79,63a.66.66,0,0,0,.57.31Z"/><path class="cls-2" d="M22.36,63.32a.67.67,0,0,0,.57-.31l.13-.19,2.38-3.65,2.13-3.27a.66.66,0,0,0,0-.74L27.46,55l-4.52-6.94a.66.66,0,0,0-.57-.31V63.32Z"/><path class="cls-3" d="M34,56.34a7.31,7.31,0,0,1,7.52-7.48,7.21,7.21,0,0,1,4.29,1.32L45,52.73a6.34,6.34,0,0,0-3.46-1.15,4.77,4.77,0,0,0,0,9.52,6.52,6.52,0,0,0,3.58-1.17l.82,2.53a7.29,7.29,0,0,1-4.41,1.36A7.22,7.22,0,0,1,34,56.34Z"/><path class="cls-3" d="M56.4,52,54,53.11a2.25,2.25,0,0,0-2.1-1.57,1.4,1.4,0,0,0-1.57,1.38c0,2.39,6.26,2,6.26,6.51,0,2.53-1.81,4.39-4.82,4.39A4.86,4.86,0,0,1,47,60.48l2.45-1.2a2.69,2.69,0,0,0,2.49,1.83c1.07,0,1.71-.56,1.71-1.48,0-2.47-6.22-2.06-6.22-6.68,0-2.43,1.77-4.1,4.53-4.1A4.59,4.59,0,0,1,56.4,52Z"/><path class="cls-3" d="M61.61,59.85l-1.26,3.71H57.42l5.11-14.42h3l5.11,14.42H67.76L66.5,59.85Zm2.45-7.61-1.67,5.19h3.36Z"/><path class="cls-3" d="M73.44,51.75H70.06V49.13H79.7v2.62H76.34V63.56H73.43V51.75Z"/><path class="cls-3" d="M83.27,59.85,82,63.56H79.08l5.11-14.42h3l5.11,14.42H89.42l-1.26-3.71Zm2.45-7.61-1.67,5.19h3.36Zm0-6.86h3l-2,3H84.32Z"/><path class="cls-3" d="M93.9,49.13h4.35c3.15,0,4.88,1.92,4.88,4.29A4.2,4.2,0,0,1,101,57.23l3.42,6.33h-3.21l-2.8-5.65H96.81v5.65H93.9Zm4.26,6.33a1.86,1.86,0,0,0,2-1.94c0-1.15-.8-1.87-2.12-1.87H96.8v3.81Z"/><path class="cls-3" d="M34.67,43.93H10a1.76,1.76,0,0,1-1.76-1.76h0A1.76,1.76,0,0,1,10,40.41H34.67a1.76,1.76,0,0,1,1.76,1.76h0A1.76,1.76,0,0,1,34.67,43.93Z"/></svg>