<?xml version="1.0" encoding="utf-8"?>
<!-- Generator: Adobe Illustrator 23.0.1, SVG Export Plug-In . SVG Version: 6.00 Build 0)  -->
<svg version="1.1" id="Layer_1" xmlns="http://www.w3.org/2000/svg" xmlns:xlink="http://www.w3.org/1999/xlink" x="0px" y="0px"
	 viewBox="0 0 595.28 838.6" style="enable-background:new 0 0 595.28 838.6;" xml:space="preserve">
<style type="text/css">
	.st0{fill:#FFCE00;}
	.st1{fill:#FFE882;}
	.st2{fill:#78863F;}
	.st3{fill:#010202;}
	.st4{fill:#FFFFFF;}
	.st5{fill:#4E4E4E;}
	.st6{fill:#939393;}
	.st7{fill:#2D2D2D;}
</style>
<g>
	<g>
		<g>
			<g>
				<path class="st0" d="M-1726.15,306.32c4.86-6.52,14.63-6.52,19.49,0l42.88,57.59l38.18,51.26c5.97,8.01,0.25,19.4-9.74,19.4
					h-81.06h-81.06c-9.99,0-15.71-11.39-9.74-19.4l38.18-51.26L-1726.15,306.32z"/>
			</g>
		</g>
		<g>
			<g>
				<path class="st0" d="M-1418.34,306.32c4.86-6.52,14.63-6.52,19.49,0l42.88,57.59l38.18,51.26c5.97,8.01,0.25,19.4-9.74,19.4
					h-81.06h-81.06c-9.99,0-15.71-11.39-9.74-19.4l38.18-51.26L-1418.34,306.32z"/>
			</g>
		</g>
		<g>
			<g>
				<g>
					<path class="st0" d="M-1562.5,30.02c-4.31-0.43-8.82,1.41-11.46,5.53l-118.1,184.34l-3.84,6c-3,4.68-3,10.67,0,15.35
						l54.81,85.56l59.84,93.4l5.89,8.36c3.1,4.39,8.06,6.38,12.86,5.97L-1562.5,30.02L-1562.5,30.02z"/>
				</g>
			</g>
			<g>
				<g>
					<path class="st1" d="M-1562.5,434.51c4.31,0.43,8.82-1.41,11.46-5.53l118.1-184.34l3.84-6c3-4.68,3-10.67,0-15.35l-54.81-85.56
						l-59.84-93.4l-5.89-8.36c-3.1-4.39-8.06-6.38-12.86-5.97L-1562.5,434.51L-1562.5,434.51z"/>
				</g>
			</g>
		</g>
	</g>
	<g>
		<g>
			<g>
				<path class="st0" d="M-1482.94,687.16c-3.01,4.04-9.07,4.04-12.08,0l-17.05-22.9l-14.14-18.98c-3.7-4.97-0.15-12.03,6.04-12.03
					h31.19h31.19c6.19,0,9.74,7.06,6.04,12.03l-14.14,18.98L-1482.94,687.16z"/>
			</g>
		</g>
		<g>
			<g>
				<path class="st0" d="M-1629.98,687.16c-3.01,4.04-9.07,4.04-12.08,0l-17.06-22.9l-14.14-18.98c-3.7-4.97-0.15-12.03,6.04-12.03
					h31.19h31.19c6.19,0,9.74,7.06,6.04,12.03l-14.14,18.98L-1629.98,687.16z"/>
			</g>
		</g>
		<g>
			<g>
				<g>
					<path class="st0" d="M-1562.5,633.25c-2.4,0-4.81,1.13-6.29,3.4l-1.39,2.12l-26.26,40.3l-23.53,36.12
						c-1.63,2.5-1.63,5.72,0,8.22l1.16,1.79l50.01,76.74c1.49,2.28,3.9,3.42,6.31,3.42V633.25H-1562.5z"/>
				</g>
			</g>
			<g>
				<g>
					<path class="st1" d="M-1562.5,805.35c2.4,0,4.81-1.13,6.29-3.4l1.39-2.12l26.26-40.3l23.53-36.12c1.63-2.5,1.63-5.72,0-8.22
						l-1.16-1.79l-50.01-76.74c-1.49-2.28-3.9-3.42-6.31-3.42v172.11H-1562.5z"/>
				</g>
			</g>
		</g>
	</g>
	<g>
		<g>
			<path class="st2" d="M-1741.54,558.98c0-21.6,16.15-38.06,38.27-38.06c9.75,0,17.09,3.25,21.81,6.71l-4.19,13
				c-3.57-2.52-10.17-5.87-17.62-5.87c-13.32,0-22.86,10.38-22.86,24.22c0,14.05,9.54,24.22,22.86,24.22
				c7.97,0,14.78-3.56,18.24-5.98l4.19,12.9c-4.4,3.25-11.74,6.92-22.44,6.92C-1726.23,597.05-1741.54,580.58-1741.54,558.98z"/>
		</g>
		<g>
			<path class="st2" d="M-1627.56,536.97l-12.27,5.56c-1.57-3.46-4.3-7.97-10.7-7.97c-5.03,0-7.97,3.04-7.97,7.03
				c0,12.16,31.88,10.38,31.88,33.13c0,12.9-9.23,22.33-24.54,22.33c-15.73,0-22.23-11.01-24.33-16.99l12.48-6.08
				c1.99,4.82,6.08,9.33,12.69,9.33c5.45,0,8.7-2.83,8.7-7.55c0-12.58-31.67-10.48-31.67-33.97c0-12.37,9.02-20.87,23.07-20.87
				C-1635.43,520.92-1629.35,531.62-1627.56,536.97z"/>
		</g>
		<g>
			<path class="st2" d="M-1601.03,576.81l-6.4,18.87h-14.89l26-73.4h15.52l26,73.4h-14.89l-6.4-18.87H-1601.03z M-1588.56,538.12
				l-8.49,26.42h17.09L-1588.56,538.12z"/>
		</g>
		<g>
			<path class="st2" d="M-1540.85,535.6h-17.2v-13.32h49.07v13.32h-17.09v60.08h-14.78V535.6z"/>
		</g>
		<g>
			<path class="st2" d="M-1490.83,576.81l-6.4,18.87h-14.89l26-73.4h15.52l26,73.4h-14.89l-6.4-18.87H-1490.83z M-1478.35,538.12
				l-8.49,26.42h17.09L-1478.35,538.12z M-1478.46,503.2h15.2l-10.17,15.1h-12.06L-1478.46,503.2z"/>
		</g>
		<g>
			<path class="st2" d="M-1436.72,522.29h22.12c16.04,0,24.85,9.75,24.85,21.81c0,8.91-4.4,15.73-11.11,19.4l17.41,32.19h-16.36
				l-14.26-28.73h-7.86v28.73h-14.78v-73.4H-1436.72z M-1415.02,554.48c5.35,0,10.07-3.36,10.07-9.86c0-5.87-4.09-9.54-10.8-9.54
				h-6.19v19.4L-1415.02,554.48L-1415.02,554.48z"/>
		</g>
	</g>
	<g>
		<g>
			<path class="st2" d="M-1419.1,485.38h-286.79c-6.72,0-12.17-5.45-12.17-12.17l0,0c0-6.72,5.45-12.17,12.17-12.17h286.79
				c6.72,0,12.17,5.45,12.17,12.17l0,0C-1406.94,479.93-1412.38,485.38-1419.1,485.38z"/>
		</g>
	</g>
</g>
<g>
	<g>
		<g>
			<g>
				<g>
					<path class="st0" d="M-1781.42,2104.35c2.16-2.89,6.49-2.89,8.65,0l19.03,25.55l16.94,22.75c2.65,3.56,0.11,8.61-4.32,8.61
						h-35.97h-35.97c-4.43,0-6.97-5.05-4.32-8.61l16.94-22.75L-1781.42,2104.35z"/>
				</g>
			</g>
		</g>
		<g>
			<g>
				<g>
					<path class="st0" d="M-1644.84,2104.35c2.16-2.89,6.49-2.89,8.65,0l19.03,25.55l16.94,22.75c2.65,3.56,0.11,8.61-4.32,8.61
						h-35.97h-35.97c-4.43,0-6.97-5.05-4.32-8.61l16.94-22.75L-1644.84,2104.35z"/>
				</g>
			</g>
		</g>
		<g>
			<g>
				<g>
					<g>
						<path class="st0" d="M-1708.81,1981.75c-1.91-0.19-3.91,0.63-5.08,2.45l-52.4,81.8l-1.7,2.66c-1.33,2.08-1.33,4.73,0,6.81
							l24.32,37.97l26.55,41.44l2.61,3.71c1.37,1.95,3.58,2.83,5.7,2.65V1981.75z"/>
					</g>
				</g>
			</g>
			<g>
				<g>
					<g>
						<path class="st1" d="M-1708.81,2161.23c1.91,0.19,3.91-0.63,5.08-2.45l52.4-81.8l1.7-2.66c1.33-2.08,1.33-4.73,0-6.81
							l-24.32-37.96l-26.55-41.44l-2.61-3.71c-1.37-1.95-3.58-2.83-5.7-2.65V2161.23z"/>
					</g>
				</g>
			</g>
		</g>
	</g>
	<g>
		<g>
			<g>
				<g>
					<path class="st0" d="M-1673.51,2239.89c-1.34,1.79-4.02,1.79-5.36,0l-7.57-10.16l-6.27-8.42c-1.64-2.2-0.07-5.34,2.68-5.34
						h13.84h13.84c2.75,0,4.32,3.13,2.68,5.34l-6.27,8.42L-1673.51,2239.89z"/>
				</g>
			</g>
		</g>
		<g>
			<g>
				<g>
					<path class="st0" d="M-1738.75,2239.89c-1.34,1.79-4.02,1.79-5.36,0l-7.57-10.16l-6.27-8.42c-1.64-2.2-0.07-5.34,2.68-5.34
						h13.84h13.84c2.75,0,4.32,3.13,2.68,5.34l-6.27,8.42L-1738.75,2239.89z"/>
				</g>
			</g>
		</g>
		<g>
			<g>
				<g>
					<g>
						<path class="st0" d="M-1708.81,2215.96c-1.07,0-2.13,0.5-2.79,1.51l-0.62,0.94l-11.65,17.88l-10.44,16.03
							c-0.72,1.11-0.72,2.54,0,3.65l0.52,0.79l22.19,34.05c0.66,1.01,1.73,1.52,2.8,1.52v-76.37H-1708.81z"/>
					</g>
				</g>
			</g>
			<g>
				<g>
					<g>
						<path class="st1" d="M-1708.81,2292.33c1.07,0,2.13-0.5,2.79-1.51l0.62-0.94l11.65-17.88l10.44-16.03
							c0.72-1.11,0.72-2.54,0-3.65l-0.52-0.79l-22.19-34.05c-0.66-1.01-1.73-1.52-2.8-1.52v76.37H-1708.81z"/>
					</g>
				</g>
			</g>
		</g>
	</g>
	<g>
		<g>
			<g>
				<path class="st2" d="M-1651.68,2258.11c0-20.82,15.56-36.69,36.89-36.69c9.4,0,16.47,3.13,21.02,6.47l-4.04,12.53
					c-3.44-2.43-9.8-5.66-16.98-5.66c-12.84,0-22.03,10.01-22.03,23.35c0,13.54,9.2,23.35,22.03,23.35c7.68,0,14.25-3.44,17.59-5.76
					l4.04,12.43c-4.24,3.13-11.32,6.67-21.63,6.67C-1636.93,2294.8-1651.68,2278.93-1651.68,2258.11z"/>
			</g>
		</g>
		<g>
			<g>
				<path class="st2" d="M-1541.82,2236.89l-11.82,5.36c-1.52-3.34-4.14-7.68-10.31-7.68c-4.85,0-7.68,2.93-7.68,6.77
					c0,11.72,30.72,10.01,30.72,31.94c0,12.43-8.89,21.53-23.65,21.53c-15.16,0-21.43-10.61-23.45-16.37l12.03-5.86
					c1.92,4.65,5.86,8.99,12.23,8.99c5.26,0,8.39-2.73,8.39-7.28c0-12.13-30.52-10.11-30.52-32.75c0-11.93,8.69-20.11,22.23-20.11
					C-1549.4,2221.42-1543.54,2231.73-1541.82,2236.89z"/>
			</g>
		</g>
		<g>
			<g>
				<path class="st2" d="M-1516.25,2275.29l-6.17,18.19h-14.35l25.06-70.75h14.96l25.07,70.75h-14.35l-6.17-18.19H-1516.25z
					 M-1504.22,2238l-8.19,25.47h16.47L-1504.22,2238z"/>
			</g>
		</g>
		<g>
			<g>
				<path class="st2" d="M-1458.23,2235.57h-16.58v-12.84h47.3v12.84h-16.47v57.91h-14.25L-1458.23,2235.57L-1458.23,2235.57z"/>
			</g>
		</g>
		<g>
			<g>
				<path class="st2" d="M-1410.02,2275.29l-6.17,18.19h-14.35l25.06-70.75h14.96l25.07,70.75h-14.35l-6.17-18.19H-1410.02z
					 M-1398,2238l-8.19,25.47h16.47L-1398,2238z M-1398.1,2204.34h14.66l-9.8,14.55h-11.62L-1398.1,2204.34z"/>
			</g>
		</g>
		<g>
			<g>
				<path class="st2" d="M-1357.87,2222.74h21.33c15.46,0,23.95,9.4,23.95,21.02c0,8.59-4.24,15.16-10.71,18.7l16.78,31.03h-15.77
					l-13.75-27.69h-7.58v27.69h-14.25V2222.74z M-1336.95,2253.76c5.15,0,9.7-3.23,9.7-9.5c0-5.66-3.94-9.2-10.41-9.2h-5.96v18.7
					H-1336.95z"/>
			</g>
		</g>
	</g>
	<g>
		<g>
			<g>
				<path class="st2" d="M-1648.41,2197.21h-120.8c-4.77,0-8.63-3.86-8.63-8.63l0,0c0-4.77,3.86-8.63,8.63-8.63h120.8
					c4.77,0,8.63,3.86,8.63,8.63l0,0C-1639.78,2193.34-1643.64,2197.21-1648.41,2197.21z"/>
			</g>
		</g>
	</g>
</g>
<g>
	<g>
		<g>
			<g>
				<g>
					<path class="st3" d="M-407.83,2098.3c2.64-3.54,7.94-3.54,10.58,0l23.27,31.25l20.72,27.82c3.24,4.35,0.13,10.53-5.29,10.53
						h-43.99h-43.99c-5.42,0-8.53-6.18-5.29-10.53l20.72-27.82L-407.83,2098.3z"/>
				</g>
			</g>
		</g>
		<g>
			<g>
				<g>
					<path class="st3" d="M-240.78,2098.3c2.64-3.54,7.94-3.54,10.58,0l23.27,31.25l20.72,27.82c3.24,4.35,0.13,10.53-5.29,10.53
						h-43.99h-43.99c-5.42,0-8.53-6.18-5.29-10.53l20.72-27.82L-240.78,2098.3z"/>
				</g>
			</g>
		</g>
		<g>
			<g>
				<g>
					<g>
						<path class="st3" d="M-319.02,1948.35c-2.34-0.23-4.79,0.76-6.22,3l-64.09,100.04l-2.08,3.25c-1.63,2.54-1.63,5.79,0,8.33
							l29.75,46.43l32.47,50.69l3.2,4.53c1.68,2.39,4.38,3.46,6.98,3.24v-219.51H-319.02z"/>
					</g>
				</g>
			</g>
			<g>
				<g>
					<g>
						<path class="st3" d="M-319.02,2167.87c2.34,0.23,4.79-0.76,6.22-3l64.09-100.04l2.08-3.25c1.63-2.54,1.63-5.79,0-8.33
							l-29.75-46.43l-32.47-50.69l-3.2-4.53c-1.68-2.39-4.38-3.46-6.98-3.24v219.51H-319.02z"/>
					</g>
				</g>
			</g>
		</g>
	</g>
	<g>
		<g>
			<g>
				<g>
					<path class="st3" d="M-275.85,2264.06c-1.63,2.19-4.92,2.19-6.56,0l-9.26-12.43l-7.67-10.3c-2.01-2.7-0.08-6.53,3.28-6.53
						h16.93h16.93c3.36,0,5.29,3.83,3.28,6.53l-7.67,10.3L-275.85,2264.06z"/>
				</g>
			</g>
		</g>
		<g>
			<g>
				<g>
					<path class="st3" d="M-355.64,2264.06c-1.63,2.19-4.92,2.19-6.56,0l-9.26-12.43l-7.67-10.3c-2.01-2.7-0.08-6.53,3.28-6.53
						h16.93h16.93c3.36,0,5.29,3.83,3.28,6.53l-7.67,10.3L-355.64,2264.06z"/>
				</g>
			</g>
		</g>
		<g>
			<g>
				<g>
					<g>
						<path class="st3" d="M-319.02,2234.8c-1.3,0-2.61,0.61-3.42,1.84l-0.76,1.15l-14.25,21.87l-12.77,19.6
							c-0.88,1.36-0.88,3.11,0,4.46l0.63,0.97l27.14,41.65c0.81,1.24,2.11,1.86,3.42,1.86v-93.4H-319.02z"/>
					</g>
				</g>
			</g>
			<g>
				<g>
					<g>
						<path class="st3" d="M-319.02,2328.2c1.3,0,2.61-0.61,3.42-1.84l0.76-1.15l14.25-21.87l12.77-19.6c0.88-1.36,0.88-3.11,0-4.46
							l-0.63-0.97l-27.14-41.65c-0.81-1.24-2.11-1.86-3.42-1.86v93.4H-319.02z"/>
					</g>
				</g>
			</g>
		</g>
	</g>
	<g>
		<g>
			<g>
				<path class="st3" d="M-245.15,2211.86h-147.74c-5.83,0-10.55-4.72-10.55-10.55l0,0c0-5.83,4.72-10.55,10.55-10.55h147.74
					c5.83,0,10.55,4.72,10.55,10.55l0,0C-234.6,2207.14-239.32,2211.86-245.15,2211.86z"/>
			</g>
		</g>
	</g>
</g>
<g>
	<g>
		<g>
			<g>
				<g>
					<g>
						<path class="st3" d="M258.11,2170.63h-87.98c-3.55,0-6.74-1.97-8.33-5.14s-1.26-6.91,0.85-9.75l43.99-59.07
							c3.56-4.77,11.42-4.76,14.96,0l43.99,59.07c2.12,2.84,2.44,6.58,0.85,9.75C264.84,2168.66,261.65,2170.63,258.11,2170.63z
							 M211.02,2099.93L167.03,2159c-0.89,1.19-1.02,2.7-0.36,4.04c0.67,1.33,1.96,2.13,3.45,2.13h87.98c1.49,0,2.78-0.79,3.45-2.13
							c0.67-1.33,0.53-2.84-0.36-4.04l-43.99-59.07C215.76,2097.96,212.48,2097.95,211.02,2099.93L211.02,2099.93z"/>
					</g>
				</g>
			</g>
		</g>
		<g>
			<g>
				<g>
					<g>
						<path class="st3" d="M425.15,2170.63h-87.98c-3.55,0-6.74-1.97-8.33-5.14s-1.26-6.91,0.85-9.75l43.99-59.07
							c1.78-2.38,4.5-3.75,7.48-3.75c0,0,0,0,0.01,0c2.97,0,5.7,1.37,7.47,3.75l43.99,59.07c2.12,2.85,2.44,6.58,0.85,9.76
							C431.89,2168.66,428.7,2170.63,425.15,2170.63z M378.06,2099.93L334.07,2159c-0.89,1.19-1.02,2.7-0.36,4.04
							c0.67,1.33,1.96,2.13,3.45,2.13h87.98c1.49,0,2.78-0.79,3.45-2.13c0.67-1.33,0.53-2.84-0.36-4.04l-43.99-59.07
							c-0.73-0.99-1.86-1.55-3.09-1.55l0,0C379.93,2098.38,378.8,2098.94,378.06,2099.93L378.06,2099.93z"/>
					</g>
				</g>
			</g>
		</g>
		<g>
			<g>
				<g>
					<g>
						<g>
							<path class="st3" d="M296.94,2170.64c-3.4,0-6.53-1.62-8.52-4.43l-3.2-4.53l-62.28-97.22c-2.2-3.42-2.2-7.85,0-11.27
								l66.17-103.29c1.91-2.97,5.32-4.6,8.79-4.25l2.46,0.25v224.5l-2.5,0.21C297.56,2170.62,297.25,2170.64,296.94,2170.64z
								 M294.91,1951.64c-0.46,0.29-0.87,0.7-1.19,1.19l-66.17,103.29c-1.05,1.64-1.05,3.75,0,5.38l65.35,101.56
								c0.52,0.75,1.22,1.32,2.01,1.68V1951.64z"/>
						</g>
					</g>
				</g>
			</g>
			<g>
				<g>
					<g>
						<g>
							<path class="st3" d="M298.32,2170.63c-0.31,0-0.63-0.02-0.95-0.05l-2.46-0.25v-224.5l2.5-0.21c3.71-0.34,7.28,1.32,9.44,4.39
								l3.2,4.53l62.28,97.22c2.2,3.42,2.2,7.85,0,11.28l-66.17,103.29C304.42,2169.04,301.48,2170.63,298.32,2170.63z
								 M300.37,1951.49v213.1c0.46-0.3,0.87-0.7,1.19-1.19l66.17-103.29c1.05-1.63,1.05-3.74,0-5.38l-65.35-101.55
								C301.86,1952.42,301.16,1951.85,300.37,1951.49z"/>
						</g>
					</g>
				</g>
			</g>
		</g>
	</g>
	<g>
		<g>
			<g>
				<g>
					<g>
						<path class="st3" d="M337.54,2268.44c-2.18,0-4.17-1-5.47-2.75l-16.92-22.73c-1.55-2.08-1.79-4.82-0.62-7.13
							c1.16-2.32,3.5-3.76,6.09-3.76h33.85c2.59,0,4.93,1.44,6.09,3.76c1.17,2.31,0.93,5.05-0.62,7.13L343,2265.69
							C341.71,2267.44,339.72,2268.44,337.54,2268.44L337.54,2268.44z M320.61,2237.54c-0.76,0-1.1,0.52-1.21,0.75
							c-0.11,0.22-0.33,0.81,0.13,1.42l16.92,22.73c0.35,0.48,0.83,0.55,1.09,0.55l0,0c0.26,0,0.73-0.07,1.08-0.54v-0.01
							l16.93-22.73c0.45-0.61,0.24-1.19,0.12-1.42c-0.11-0.22-0.45-0.75-1.21-0.75H320.61z"/>
					</g>
				</g>
			</g>
		</g>
		<g>
			<g>
				<g>
					<g>
						<path class="st3" d="M257.74,2268.44c-2.18,0-4.18-1-5.47-2.75l-16.93-22.72c-1.55-2.09-1.79-4.82-0.62-7.14
							c1.16-2.31,3.5-3.76,6.09-3.76h33.85c2.59,0,4.93,1.44,6.09,3.76c1.16,2.31,0.92,5.05-0.62,7.13l-16.92,22.73
							C261.91,2267.44,259.92,2268.44,257.74,2268.44z M240.81,2237.54c-0.76,0-1.1,0.52-1.21,0.75c-0.11,0.22-0.33,0.82,0.12,1.42
							l16.93,22.72c0.7,0.95,1.46,0.97,2.17,0.01v-0.01l16.92-22.73c0.45-0.61,0.24-1.19,0.13-1.42c-0.11-0.22-0.45-0.75-1.21-0.75
							h-33.85V2237.54z"/>
					</g>
				</g>
			</g>
		</g>
		<g>
			<g>
				<g>
					<g>
						<g>
							<path class="st3" d="M300.37,2330.93h-2.73c-2.31,0-4.45-1.16-5.71-3.1l-27.77-42.62c-1.47-2.26-1.47-5.18,0.01-7.44
								l27.78-42.63c1.26-1.93,3.39-3.07,5.7-3.07h2.73v98.86H300.37z M294.91,2240.59l-26.17,40.17c-0.29,0.45-0.29,1.03,0,1.48
								l26.17,40.18V2240.59z"/>
						</g>
					</g>
				</g>
			</g>
			<g>
				<g>
					<g>
						<g>
							<path class="st3" d="M297.64,2330.93h-2.73v-98.86h2.73c2.31,0,4.45,1.16,5.71,3.1l27.77,42.61
								c1.47,2.26,1.47,5.19-0.01,7.45l-27.78,42.62C302.07,2329.78,299.94,2330.93,297.64,2330.93z M300.37,2240.6v81.82
								l26.17-40.17c0.29-0.45,0.29-1.03,0-1.48L300.37,2240.6z"/>
						</g>
					</g>
				</g>
			</g>
		</g>
	</g>
	<g>
		<g>
			<g>
				<g>
					<path class="st3" d="M371.51,2214.59H223.77c-7.32,0-13.28-5.96-13.28-13.28s5.96-13.28,13.28-13.28h147.74
						c7.32,0,13.28,5.96,13.28,13.28S378.83,2214.59,371.51,2214.59z M223.77,2193.49c-4.31,0-7.82,3.51-7.82,7.82
						s3.51,7.82,7.82,7.82h147.74c4.31,0,7.82-3.51,7.82-7.82s-3.51-7.82-7.82-7.82H223.77z"/>
				</g>
			</g>
		</g>
	</g>
</g>
<g>
	<g>
		<g>
			<g>
				<g>
					<path class="st0" d="M-1028.19,2098.16c2.65-3.55,7.97-3.55,10.61,0l23.36,31.36l20.79,27.92c3.25,4.36,0.14,10.57-5.31,10.57
						h-44.15h-44.15c-5.44,0-8.56-6.2-5.31-10.57l20.79-27.92L-1028.19,2098.16z"/>
				</g>
			</g>
		</g>
		<g>
			<g>
				<g>
					<path class="st0" d="M-860.55,2098.16c2.65-3.55,7.97-3.55,10.61,0l23.36,31.36l20.79,27.92c3.25,4.36,0.14,10.57-5.31,10.57
						h-44.15h-44.15c-5.44,0-8.56-6.2-5.31-10.57l20.79-27.92L-860.55,2098.16z"/>
				</g>
			</g>
		</g>
		<g>
			<g>
				<g>
					<g>
						<path class="st0" d="M-939.07,1947.68c-2.35-0.23-4.8,0.77-6.24,3.01l-64.32,100.39l-2.09,3.27c-1.63,2.55-1.63,5.81,0,8.36
							l29.85,46.6l32.59,50.87l3.21,4.55c1.69,2.39,4.39,3.48,7,3.25V1947.68z"/>
					</g>
				</g>
			</g>
			<g>
				<g>
					<g>
						<path class="st1" d="M-939.07,2167.97c2.35,0.23,4.8-0.77,6.24-3.01l64.32-100.39l2.09-3.27c1.63-2.55,1.63-5.81,0-8.36
							l-29.85-46.6l-32.59-50.87l-3.21-4.55c-1.69-2.39-4.39-3.48-7-3.25V2167.97z"/>
					</g>
				</g>
			</g>
		</g>
	</g>
	<g>
		<g>
			<g>
				<g>
					<path class="st0" d="M-895.74,2264.51c-1.64,2.2-4.94,2.2-6.58,0l-9.29-12.47l-7.7-10.34c-2.02-2.71-0.08-6.55,3.29-6.55h16.99
						h16.99c3.37,0,5.3,3.85,3.29,6.55l-7.7,10.34L-895.74,2264.51z"/>
				</g>
			</g>
		</g>
		<g>
			<g>
				<g>
					<path class="st0" d="M-975.81,2264.51c-1.64,2.2-4.94,2.2-6.58,0l-9.29-12.47l-7.7-10.34c-2.02-2.71-0.08-6.55,3.29-6.55h16.99
						h16.99c3.37,0,5.3,3.85,3.29,6.55l-7.7,10.34L-975.81,2264.51z"/>
				</g>
			</g>
		</g>
		<g>
			<g>
				<g>
					<g>
						<path class="st0" d="M-939.07,2235.14c-1.31,0-2.62,0.62-3.43,1.85l-0.76,1.16l-14.3,21.95l-12.82,19.67
							c-0.89,1.36-0.89,3.12,0,4.48l0.63,0.97l27.23,41.79c0.81,1.24,2.12,1.86,3.44,1.86v-93.73H-939.07z"/>
					</g>
				</g>
			</g>
			<g>
				<g>
					<g>
						<path class="st1" d="M-939.07,2328.87c1.31,0,2.62-0.62,3.43-1.85l0.76-1.16l14.3-21.95l12.82-19.67
							c0.89-1.36,0.89-3.12,0-4.48l-0.63-0.97l-27.23-41.79c-0.81-1.24-2.12-1.86-3.44-1.86v93.73H-939.07z"/>
					</g>
				</g>
			</g>
		</g>
	</g>
	<g>
		<g>
			<g>
				<path class="st2" d="M-864.93,2212.12h-148.26c-5.85,0-10.59-4.74-10.59-10.59l0,0c0-5.85,4.74-10.59,10.59-10.59h148.26
					c5.85,0,10.59,4.74,10.59,10.59l0,0C-854.34,2207.38-859.09,2212.12-864.93,2212.12z"/>
			</g>
		</g>
	</g>
</g>
<g>
	<g>
		<g>
			<g>
				<g>
					<path class="st0" d="M-1795.64,2975.45c2.21-2.96,6.65-2.96,8.85,0l19.48,26.16l17.34,23.29c2.71,3.64,0.11,8.82-4.43,8.82
						h-36.83h-36.83c-4.54,0-7.14-5.18-4.43-8.82l17.34-23.29L-1795.64,2975.45z"/>
				</g>
			</g>
		</g>
		<g>
			<g>
				<g>
					<path class="st0" d="M-1655.8,2975.45c2.21-2.96,6.65-2.96,8.85,0l19.48,26.16l17.34,23.29c2.71,3.64,0.11,8.82-4.43,8.82
						h-36.83h-36.83c-4.54,0-7.14-5.18-4.43-8.82l17.34-23.29L-1655.8,2975.45z"/>
				</g>
			</g>
		</g>
		<g>
			<g>
				<g>
					<g>
						<path class="st0" d="M-1721.29,2849.92c-1.96-0.2-4.01,0.64-5.2,2.51l-53.65,83.75l-1.75,2.72c-1.36,2.12-1.36,4.85,0,6.97
							l24.9,38.87l27.18,42.43l2.68,3.8c1.41,2,3.66,2.9,5.84,2.71L-1721.29,2849.92L-1721.29,2849.92z"/>
					</g>
				</g>
			</g>
			<g>
				<g>
					<g>
						<path class="st1" d="M-1721.29,3033.69c1.96,0.2,4.01-0.64,5.2-2.51l53.65-83.75l1.75-2.72c1.36-2.12,1.36-4.85,0-6.97
							l-24.9-38.87l-27.18-42.43l-2.68-3.8c-1.41-2-3.66-2.9-5.84-2.71L-1721.29,3033.69L-1721.29,3033.69z"/>
					</g>
				</g>
			</g>
		</g>
	</g>
	<g>
		<g>
			<g>
				<g>
					<path class="st0" d="M-1685.15,3114.21c-1.37,1.84-4.12,1.84-5.49,0l-7.75-10.4l-6.42-8.62c-1.68-2.26-0.07-5.47,2.74-5.47
						h14.17h14.17c2.81,0,4.43,3.21,2.74,5.47l-6.42,8.62L-1685.15,3114.21z"/>
				</g>
			</g>
		</g>
		<g>
			<g>
				<g>
					<path class="st0" d="M-1751.95,3114.21c-1.37,1.84-4.12,1.84-5.49,0l-7.75-10.4l-6.42-8.62c-1.68-2.26-0.07-5.47,2.74-5.47
						h14.17h14.17c2.81,0,4.43,3.21,2.74,5.47l-6.42,8.62L-1751.95,3114.21z"/>
				</g>
			</g>
		</g>
		<g>
			<g>
				<g>
					<g>
						<path class="st0" d="M-1721.29,3089.72c-1.09,0-2.18,0.51-2.86,1.54l-0.63,0.96l-11.93,18.31l-10.69,16.41
							c-0.74,1.14-0.74,2.6,0,3.74l0.53,0.81l22.72,34.86c0.67,1.04,1.77,1.55,2.87,1.55v-78.18H-1721.29z"/>
					</g>
				</g>
			</g>
			<g>
				<g>
					<g>
						<path class="st1" d="M-1721.29,3167.91c1.09,0,2.18-0.51,2.86-1.54l0.63-0.96l11.93-18.31l10.69-16.41
							c0.74-1.14,0.74-2.6,0-3.74l-0.53-0.81l-22.72-34.86c-0.67-1.04-1.77-1.55-2.87-1.55v78.18H-1721.29z"/>
					</g>
				</g>
			</g>
		</g>
	</g>
	<g>
		<g>
			<g>
				<path class="st4" d="M-1662.81,3132.87c0-21.32,15.94-37.56,37.77-37.56c9.62,0,16.87,3.21,21.52,6.62l-4.14,12.83
					c-3.52-2.48-10.04-5.8-17.38-5.8c-13.14,0-22.56,10.24-22.56,23.9c0,13.87,9.42,23.9,22.56,23.9c7.86,0,14.59-3.52,18.01-5.9
					l4.14,12.73c-4.35,3.21-11.59,6.83-22.14,6.83C-1647.7,3170.43-1662.81,3154.19-1662.81,3132.87z"/>
			</g>
		</g>
		<g>
			<g>
				<path class="st4" d="M-1550.32,3111.14l-12.11,5.48c-1.55-3.41-4.24-7.86-10.55-7.86c-4.97,0-7.86,3-7.86,6.93
					c0,12,31.46,10.24,31.46,32.7c0,12.73-9.11,22.04-24.21,22.04c-15.52,0-21.94-10.86-24.01-16.76l12.31-6
					c1.97,4.76,6,9.21,12.52,9.21c5.38,0,8.59-2.79,8.59-7.45c0-12.42-31.25-10.35-31.25-33.53c0-12.21,8.9-20.59,22.77-20.59
					C-1558.09,3095.31-1552.08,3105.86-1550.32,3111.14z"/>
			</g>
		</g>
		<g>
			<g>
				<path class="st4" d="M-1524.14,3150.46l-6.31,18.63h-14.69l25.66-72.43h15.31l25.66,72.43h-14.69l-6.31-18.63H-1524.14z
					 M-1511.83,3112.28l-8.38,26.08h16.87L-1511.83,3112.28z"/>
			</g>
		</g>
		<g>
			<g>
				<path class="st4" d="M-1464.74,3109.8h-16.97v-13.14h48.43v13.14h-16.87v59.29h-14.59L-1464.74,3109.8L-1464.74,3109.8z"/>
			</g>
		</g>
		<g>
			<g>
				<path class="st4" d="M-1415.38,3150.46l-6.31,18.63h-14.69l25.66-72.43h15.31l25.66,72.43h-14.69l-6.31-18.63H-1415.38z
					 M-1403.07,3112.28l-8.38,26.08h16.87L-1403.07,3112.28z M-1403.17,3077.82h15l-10.04,14.9h-11.9L-1403.17,3077.82z"/>
			</g>
		</g>
		<g>
			<g>
				<path class="st4" d="M-1361.99,3096.65h21.83c15.83,0,24.52,9.62,24.52,21.52c0,8.8-4.35,15.52-10.97,19.14l17.18,31.77h-16.14
					l-14.07-28.35h-7.76v28.35h-14.59L-1361.99,3096.65L-1361.99,3096.65z M-1340.57,3128.42c5.28,0,9.93-3.31,9.93-9.73
					c0-5.79-4.04-9.42-10.66-9.42h-6.11v19.14h6.84V3128.42z"/>
			</g>
		</g>
	</g>
	<g>
		<g>
			<g>
				<path class="st4" d="M-1659.46,3070.52h-123.68c-4.88,0-8.83-3.96-8.83-8.83l0,0c0-4.88,3.96-8.83,8.83-8.83h123.68
					c4.88,0,8.83,3.96,8.83,8.83l0,0C-1650.62,3066.56-1654.58,3070.52-1659.46,3070.52z"/>
			</g>
		</g>
	</g>
</g>
<g>
	<g>
		<g>
			<g>
				<g>
					<path class="st4" d="M-418.95,2969.25c2.7-3.62,8.13-3.62,10.83,0l23.83,32l21.21,28.48c3.32,4.45,0.14,10.78-5.41,10.78
						h-45.04h-45.04c-5.55,0-8.73-6.33-5.41-10.78l21.21-28.48L-418.95,2969.25z"/>
				</g>
			</g>
		</g>
		<g>
			<g>
				<g>
					<path class="st4" d="M-247.92,2969.25c2.7-3.62,8.13-3.62,10.83,0l23.83,32l21.21,28.48c3.32,4.45,0.14,10.78-5.41,10.78
						h-45.04h-45.04c-5.55,0-8.73-6.33-5.41-10.78l21.21-28.48L-247.92,2969.25z"/>
				</g>
			</g>
		</g>
		<g>
			<g>
				<g>
					<g>
						<path class="st4" d="M-328.02,2815.73c-2.4-0.24-4.9,0.78-6.37,3.07L-400,2921.22l-2.13,3.33c-1.66,2.6-1.66,5.93,0,8.53
							l30.46,47.54l33.25,51.9l3.27,4.64c1.72,2.44,4.48,3.55,7.14,3.32L-328.02,2815.73L-328.02,2815.73z"/>
					</g>
				</g>
			</g>
			<g>
				<g>
					<g>
						<path class="st4" d="M-328.02,3040.48c2.4,0.24,4.9-0.78,6.37-3.07l65.62-102.42l2.13-3.33c1.66-2.6,1.66-5.93,0-8.53
							l-30.46-47.54l-33.25-51.9l-3.27-4.64c-1.72-2.44-4.48-3.55-7.14-3.32V3040.48z"/>
					</g>
				</g>
			</g>
		</g>
	</g>
	<g>
		<g>
			<g>
				<g>
					<path class="st4" d="M-283.81,3138.96c-1.67,2.25-5.04,2.25-6.71,0l-9.48-12.72l-7.85-10.55c-2.06-2.76-0.09-6.68,3.36-6.68
						h17.33h17.33c3.44,0,5.41,3.92,3.36,6.68l-7.85,10.55L-283.81,3138.96z"/>
				</g>
			</g>
		</g>
		<g>
			<g>
				<g>
					<path class="st4" d="M-365.51,3138.96c-1.67,2.25-5.04,2.25-6.71,0l-9.48-12.72l-7.85-10.55c-2.06-2.76-0.09-6.68,3.36-6.68
						h17.33h17.33c3.44,0,5.41,3.92,3.36,6.68l-7.85,10.55L-365.51,3138.96z"/>
				</g>
			</g>
		</g>
		<g>
			<g>
				<g>
					<g>
						<path class="st4" d="M-328.02,3109.01c-1.34,0-2.67,0.63-3.5,1.89l-0.77,1.18l-14.59,22.39l-13.08,20.07
							c-0.9,1.39-0.9,3.18,0,4.57l0.65,0.99l27.79,42.64c0.83,1.27,2.17,1.9,3.51,1.9v-95.63H-328.02z"/>
					</g>
				</g>
			</g>
			<g>
				<g>
					<g>
						<path class="st4" d="M-328.02,3204.63c1.34,0,2.67-0.63,3.5-1.89l0.77-1.18l14.59-22.39l13.08-20.07c0.9-1.39,0.9-3.18,0-4.57
							l-0.65-0.99l-27.79-42.64c-0.83-1.27-2.17-1.9-3.51-1.9v95.63H-328.02z"/>
					</g>
				</g>
			</g>
		</g>
	</g>
	<g>
		<g>
			<g>
				<path class="st4" d="M-252.39,3085.52h-151.26c-5.97,0-10.8-4.84-10.8-10.8l0,0c0-5.97,4.84-10.8,10.8-10.8h151.26
					c5.97,0,10.8,4.84,10.8,10.8l0,0C-241.58,3080.69-246.42,3085.52-252.39,3085.52z"/>
			</g>
		</g>
	</g>
</g>
<g>
	<g>
		<g>
			<g>
				<g>
					<path class="st4" d="M248.17,3043.3h-90.08c-3.63,0-6.9-2.02-8.53-5.26s-1.29-7.07,0.87-9.99l45.04-60.48
						c3.64-4.88,11.69-4.88,15.32,0l45.04,60.48c2.17,2.92,2.5,6.74,0.87,9.99S251.8,3043.3,248.17,3043.3z M203.12,2969.33
						c-1.26,0-2.41,0.58-3.17,1.59l-45.04,60.48c-0.91,1.22-1.05,2.77-0.37,4.13c0.69,1.37,2.01,2.18,3.53,2.18h90.08
						c1.52,0,2.85-0.81,3.53-2.18c0.68-1.37,0.55-2.91-0.37-4.13l-45.04-60.48C205.54,2969.91,204.39,2969.33,203.12,2969.33z"/>
				</g>
			</g>
		</g>
		<g>
			<g>
				<g>
					<path class="st4" d="M419.2,3043.3h-90.08c-3.63,0-6.9-2.02-8.53-5.26s-1.29-7.07,0.87-9.99l45.04-60.48
						c1.82-2.44,4.61-3.84,7.66-3.84c0,0,0,0,0.01,0c3.04,0,5.83,1.4,7.65,3.84l45.04,60.48c2.17,2.92,2.5,6.74,0.87,9.99
						C426.09,3041.29,422.83,3043.3,419.2,3043.3z M370.98,2970.92l-45.04,60.48c-0.91,1.22-1.05,2.77-0.37,4.13
						c0.69,1.37,2.01,2.18,3.53,2.18h90.08c1.53,0,2.85-0.81,3.53-2.17c0.68-1.37,0.55-2.92-0.37-4.14l-45.04-60.48
						c-0.75-1.02-1.91-1.59-3.17-1.59l0,0C372.9,2969.33,371.74,2969.91,370.98,2970.92L370.98,2970.92z"/>
				</g>
			</g>
		</g>
		<g>
			<g>
				<g>
					<g>
						<path class="st4" d="M287.93,3043.31c-3.48,0-6.68-1.65-8.72-4.53l-3.27-4.65l-63.77-99.54c-2.25-3.51-2.25-8.04,0-11.54
							l67.75-105.76c1.96-3.04,5.39-4.69,9-4.34l2.52,0.25v229.84l-2.56,0.22C288.56,3043.29,288.24,3043.31,287.93,3043.31z
							 M285.84,2819.09c-0.48,0.31-0.9,0.72-1.22,1.22l-67.75,105.75c-1.07,1.68-1.07,3.84,0,5.52l66.91,103.98
							c0.54,0.76,1.25,1.34,2.06,1.71V2819.09z"/>
					</g>
				</g>
			</g>
			<g>
				<g>
					<g>
						<path class="st4" d="M289.33,3043.3c-0.32,0-0.64-0.02-0.97-0.05l-2.52-0.25v-229.84l2.56-0.22c3.87-0.34,7.45,1.35,9.67,4.49
							l3.27,4.64l63.77,99.54c2.25,3.51,2.25,8.04,0,11.54l-67.75,105.76C295.59,3041.68,292.57,3043.3,289.33,3043.3z
							 M291.44,2818.94v218.17c0.48-0.31,0.9-0.72,1.22-1.22l67.75-105.75c1.07-1.68,1.07-3.84,0-5.52l-66.91-103.98
							C292.96,2819.89,292.25,2819.31,291.44,2818.94z"/>
					</g>
				</g>
			</g>
		</g>
	</g>
	<g>
		<g>
			<g>
				<g>
					<path class="st4" d="M329.49,3143.45c-2.23,0-4.27-1.03-5.6-2.81l-17.33-23.27c-1.58-2.12-1.83-4.93-0.64-7.3
						c1.19-2.38,3.58-3.85,6.24-3.85h34.66c2.65,0,5.05,1.47,6.24,3.85c1.19,2.37,0.94,5.17-0.64,7.3l-17.33,23.26
						C333.76,3142.42,331.72,3143.45,329.49,3143.45L329.49,3143.45z M312.16,3111.8c-0.77,0-1.12,0.54-1.24,0.76
						c-0.11,0.23-0.33,0.84,0.13,1.45l17.33,23.27c0.36,0.49,0.85,0.56,1.11,0.56l0,0c0.26,0,0.75-0.07,1.11-0.56v-0.01l17.33-23.27
						c0.46-0.62,0.25-1.22,0.13-1.45c-0.11-0.23-0.46-0.76-1.24-0.76h-34.66V3111.8z"/>
				</g>
			</g>
		</g>
		<g>
			<g>
				<g>
					<path class="st4" d="M247.8,3143.45c-2.23,0-4.28-1.03-5.6-2.82l-17.33-23.26c-1.58-2.13-1.83-4.93-0.63-7.3
						c1.19-2.38,3.58-3.85,6.24-3.85h34.66c2.66,0,5.05,1.47,6.24,3.85c1.19,2.38,0.94,5.18-0.64,7.3l-17.32,23.27
						C252.06,3142.42,250.02,3143.45,247.8,3143.45z M230.46,3111.8c-0.77,0-1.13,0.54-1.24,0.76c-0.11,0.23-0.34,0.84,0.13,1.45
						l17.33,23.27c0.72,0.98,1.5,0.99,2.22,0.01v-0.01l17.33-23.27c0.46-0.62,0.25-1.22,0.13-1.45c-0.11-0.23-0.47-0.76-1.24-0.76
						H230.46z"/>
				</g>
			</g>
		</g>
		<g>
			<g>
				<g>
					<g>
						<path class="st4" d="M291.44,3207.43h-2.8c-2.37,0-4.55-1.19-5.85-3.17l-28.44-43.63c-1.51-2.31-1.51-5.3,0.01-7.62
							l28.45-43.65c1.28-1.97,3.46-3.15,5.83-3.15h2.8L291.44,3207.43L291.44,3207.43z M285.84,3114.93l-26.8,41.13
							c-0.3,0.46-0.3,1.05,0,1.51l26.8,41.13V3114.93z"/>
					</g>
				</g>
			</g>
			<g>
				<g>
					<g>
						<path class="st4" d="M288.64,3207.43h-2.8v-101.22h2.8c2.37,0,4.55,1.19,5.85,3.17l28.44,43.63c1.51,2.31,1.51,5.3-0.01,7.62
							l-28.45,43.65C293.18,3206.25,291.01,3207.43,288.64,3207.43z M291.44,3114.94v83.77l26.8-41.13c0.3-0.46,0.3-1.05,0-1.51
							L291.44,3114.94z"/>
					</g>
				</g>
			</g>
		</g>
	</g>
	<g>
		<g>
			<g>
				<path class="st4" d="M364.27,3088.32H213.01c-7.5,0-13.6-6.1-13.6-13.6s6.1-13.6,13.6-13.6h151.26c7.5,0,13.6,6.1,13.6,13.6
					S371.77,3088.32,364.27,3088.32z M213.01,3066.71c-4.41,0-8.01,3.59-8.01,8.01s3.59,8.01,8.01,8.01h151.26
					c4.41,0,8.01-3.59,8.01-8.01c0-4.41-3.59-8.01-8.01-8.01H213.01z"/>
			</g>
		</g>
	</g>
</g>
<g>
	<g>
		<g>
			<g>
				<g>
					<path class="st0" d="M-1039.31,2969.1c2.71-3.64,8.16-3.64,10.87,0l23.91,32.11l21.29,28.58c3.33,4.47,0.14,10.82-5.43,10.82
						h-45.2h-45.2c-5.57,0-8.76-6.35-5.43-10.82l21.29-28.58L-1039.31,2969.1z"/>
				</g>
			</g>
		</g>
		<g>
			<g>
				<g>
					<path class="st0" d="M-867.68,2969.1c2.71-3.64,8.16-3.64,10.87,0l23.91,32.11l21.29,28.58c3.33,4.47,0.14,10.82-5.43,10.82
						h-45.2h-45.2c-5.57,0-8.76-6.35-5.43-10.82l21.29-28.58L-867.68,2969.1z"/>
				</g>
			</g>
		</g>
		<g>
			<g>
				<g>
					<g>
						<path class="st0" d="M-948.06,2815.04c-2.4-0.24-4.92,0.79-6.39,3.08l-65.85,102.79l-2.14,3.34c-1.67,2.61-1.67,5.95,0,8.56
							l30.56,47.71l33.37,52.08l3.28,4.66c1.73,2.45,4.5,3.56,7.17,3.33V2815.04z"/>
					</g>
				</g>
			</g>
			<g>
				<g>
					<g>
						<path class="st1" d="M-948.06,3040.58c2.4,0.24,4.92-0.79,6.39-3.08l65.85-102.79l2.14-3.34c1.67-2.61,1.67-5.95,0-8.56
							l-30.56-47.71l-33.37-52.08l-3.28-4.66c-1.73-2.45-4.5-3.56-7.17-3.33V3040.58z"/>
					</g>
				</g>
			</g>
		</g>
	</g>
	<g>
		<g>
			<g>
				<g>
					<path class="st0" d="M-903.7,3139.42c-1.68,2.26-5.06,2.26-6.74,0l-9.51-12.77l-7.88-10.58c-2.06-2.77-0.09-6.71,3.37-6.71
						h17.39h17.39c3.45,0,5.43,3.94,3.37,6.71l-7.88,10.58L-903.7,3139.42z"/>
				</g>
			</g>
		</g>
		<g>
			<g>
				<g>
					<path class="st0" d="M-985.69,3139.42c-1.68,2.26-5.06,2.26-6.74,0l-9.51-12.77l-7.88-10.58c-2.06-2.77-0.09-6.71,3.37-6.71
						h17.39h17.39c3.45,0,5.43,3.94,3.37,6.71l-7.88,10.58L-985.69,3139.42z"/>
				</g>
			</g>
		</g>
		<g>
			<g>
				<g>
					<g>
						<path class="st0" d="M-948.06,3109.36c-1.34,0-2.68,0.63-3.51,1.89l-0.78,1.18l-14.64,22.47l-13.12,20.14
							c-0.91,1.39-0.91,3.19,0,4.58l0.65,1l27.88,42.79c0.83,1.27,2.17,1.91,3.52,1.91V3109.36z"/>
					</g>
				</g>
			</g>
			<g>
				<g>
					<g>
						<path class="st1" d="M-948.06,3205.32c1.34,0,2.68-0.63,3.51-1.89l0.78-1.18l14.64-22.47l13.12-20.14
							c0.91-1.39,0.91-3.19,0-4.58l-0.65-1l-27.88-42.79c-0.83-1.27-2.17-1.91-3.52-1.91V3205.32z"/>
					</g>
				</g>
			</g>
		</g>
	</g>
	<g>
		<g>
			<g>
				<path class="st4" d="M-872.16,3085.79h-151.8c-5.99,0-10.84-4.85-10.84-10.84l0,0c0-5.99,4.85-10.84,10.84-10.84h151.8
					c5.99,0,10.84,4.85,10.84,10.84l0,0C-861.32,3080.94-866.18,3085.79-872.16,3085.79z"/>
			</g>
		</g>
	</g>
</g>
<g>
	<g>
		<g>
			<path class="st5" d="M-483.7,305.62c4.89-6.56,14.72-6.56,19.61,0l43.15,57.95l38.42,51.59c6.01,8.06,0.25,19.53-9.81,19.53
				h-81.57h-81.57c-10.06,0-15.81-11.46-9.81-19.53l38.42-51.59L-483.7,305.62z"/>
		</g>
	</g>
	<g>
		<g>
			<path class="st5" d="M-173.95,305.62c4.89-6.56,14.72-6.56,19.61,0l43.15,57.95l38.42,51.59c6.01,8.06,0.25,19.53-9.81,19.53
				h-81.57h-81.57c-10.06,0-15.81-11.46-9.81-19.53l38.42-51.59L-173.95,305.62z"/>
		</g>
	</g>
	<g>
		<g>
			<path class="st5" d="M-319.02,27.58c-4.34-0.43-8.87,1.42-11.53,5.56l-118.84,185.5l-3.87,6.03c-3.02,4.71-3.02,10.74,0,15.44
				l55.16,86.1l60.21,93.99l5.93,8.41c3.12,4.42,8.11,6.42,12.94,6.01V27.58z"/>
		</g>
	</g>
	<g>
		<g>
			<path class="st6" d="M-319.02,434.62c4.34,0.43,8.87-1.42,11.53-5.56l118.84-185.5l3.87-6.03c3.02-4.71,3.02-10.74,0-15.44
				l-55.16-86.1L-300.15,42l-5.93-8.41c-3.12-4.42-8.11-6.42-12.94-6.01V434.62z"/>
		</g>
	</g>
	<g>
		<g>
			<path class="st5" d="M-238.96,688.86c-3.03,4.07-9.13,4.07-12.16,0l-17.16-23.05l-14.23-19.1c-3.72-5-0.15-12.11,6.08-12.11
				h31.39h31.39c6.23,0,9.8,7.11,6.08,12.11l-14.23,19.1L-238.96,688.86z"/>
		</g>
	</g>
	<g>
		<g>
			<path class="st5" d="M-386.92,688.86c-3.03,4.07-9.13,4.07-12.16,0l-17.16-23.05l-14.23-19.1c-3.72-5-0.15-12.11,6.08-12.11H-393
				h31.39c6.23,0,9.8,7.11,6.08,12.11l-14.23,19.1L-386.92,688.86z"/>
		</g>
	</g>
	<g>
		<g>
			<path class="st5" d="M-319.02,634.6c-2.42,0-4.84,1.14-6.33,3.42l-1.4,2.13l-26.42,40.55l-23.68,36.34
				c-1.64,2.51-1.64,5.76,0,8.27l1.17,1.8l50.32,77.23c1.49,2.29,3.92,3.44,6.35,3.44V634.6H-319.02z"/>
		</g>
	</g>
	<g>
		<g>
			<path class="st6" d="M-319.02,807.79c2.42,0,4.84-1.14,6.33-3.42l1.4-2.13l26.42-40.55l23.68-36.34c1.64-2.51,1.64-5.76,0-8.27
				l-1.17-1.8l-50.32-77.23c-1.49-2.29-3.92-3.44-6.35-3.44v173.18H-319.02z"/>
		</g>
	</g>
	<g>
		<path class="st7" d="M-499.19,559.88c0-21.74,16.25-38.3,38.51-38.3c9.81,0,17.2,3.27,21.95,6.75l-4.22,13.08
			c-3.59-2.53-10.24-5.91-17.73-5.91c-13.4,0-23,10.45-23,24.37c0,14.14,9.6,24.37,23,24.37c8.02,0,14.88-3.59,18.36-6.01
			l4.22,12.98c-4.43,3.27-11.82,6.96-22.58,6.96C-483.79,598.18-499.19,581.61-499.19,559.88z"/>
	</g>
	<g>
		<path class="st7" d="M-384.49,537.72l-12.35,5.59c-1.58-3.48-4.33-8.02-10.76-8.02c-5.07,0-8.02,3.06-8.02,7.07
			c0,12.24,32.08,10.45,32.08,33.34c0,12.98-9.29,22.47-24.69,22.47c-15.83,0-22.37-11.08-24.48-17.09l12.56-6.12
			c2.01,4.85,6.12,9.39,12.77,9.39c5.49,0,8.76-2.85,8.76-7.6c0-12.66-31.87-10.55-31.87-34.19c0-12.45,9.07-21,23.21-21
			C-392.41,521.57-386.29,532.34-384.49,537.72z"/>
	</g>
	<g>
		<path class="st7" d="M-357.8,577.81l-6.44,18.99h-14.98l26.17-73.86h15.62l26.17,73.86h-14.98l-6.44-18.99H-357.8z
			 M-345.24,538.88l-8.55,26.59h17.2L-345.24,538.88z"/>
	</g>
	<g>
		<path class="st7" d="M-297.23,536.35h-17.3v-13.4h49.38v13.4h-17.2v60.46h-14.88V536.35z"/>
	</g>
	<g>
		<path class="st7" d="M-246.9,577.81l-6.44,18.99h-14.98l26.17-73.86h15.62l26.17,73.86h-14.98l-6.44-18.99H-246.9z
			 M-234.34,538.88l-8.55,26.59h17.2L-234.34,538.88z M-234.45,503.74h15.3l-10.24,15.19h-12.13L-234.45,503.74z"/>
	</g>
	<g>
		<path class="st7" d="M-192.45,522.94h22.26c16.14,0,25.01,9.81,25.01,21.95c0,8.97-4.43,15.83-11.18,19.52l17.52,32.39h-16.46
			l-14.35-28.91h-7.91v28.91h-14.88L-192.45,522.94L-192.45,522.94z M-170.61,555.34c5.38,0,10.13-3.38,10.13-9.92
			c0-5.91-4.12-9.6-10.87-9.6h-6.23v19.52L-170.61,555.34L-170.61,555.34z"/>
	</g>
	<g>
		<path class="st7" d="M-174.72,485.8h-288.6c-6.76,0-12.24-5.48-12.24-12.24l0,0c0-6.76,5.48-12.24,12.24-12.24h288.6
			c6.76,0,12.24,5.48,12.24,12.24l0,0C-162.48,480.32-167.96,485.8-174.72,485.8z"/>
	</g>
</g>
<g>
	<g>
		<g>
			<g>
				<path d="M-1012.37,438.82h-163.15c-6.23,0-11.83-3.46-14.63-9.02c-2.79-5.57-2.22-12.13,1.5-17.12l81.57-109.54
					c3.12-4.19,7.91-6.59,13.13-6.59s10.01,2.4,13.13,6.59l81.57,109.54c3.72,4.99,4.29,11.55,1.5,17.12
					C-1000.53,435.37-1006.14,438.82-1012.37,438.82z M-1100.42,308.09l-81.57,109.54c-1.86,2.5-2.14,5.66-0.74,8.45
					s4.1,4.45,7.22,4.45h163.15c3.12,0,5.82-1.67,7.22-4.45c1.4-2.79,1.12-5.95-0.74-8.45l-81.57-109.54
					C-1090.54,303.96-1097.34,303.96-1100.42,308.09L-1100.42,308.09z"/>
			</g>
		</g>
		<g>
			<g>
				<path d="M-702.62,438.82h-163.15c-6.23,0-11.83-3.46-14.63-9.02c-2.79-5.57-2.22-12.13,1.5-17.12l81.57-109.54
					c3.12-4.19,7.91-6.59,13.13-6.59c5.22,0,10.01,2.4,13.13,6.59l81.57,109.54c3.72,4.99,4.29,11.55,1.5,17.12
					C-690.78,435.37-696.39,438.82-702.62,438.82z M-790.67,308.09l-81.57,109.54c-1.86,2.5-2.14,5.66-0.74,8.45s4.1,4.45,7.22,4.45
					h163.15c3.12,0,5.82-1.67,7.22-4.45c1.4-2.79,1.12-5.95-0.74-8.45l-81.57-109.54C-780.79,303.96-787.59,303.96-790.67,308.09
					L-790.67,308.09z"/>
			</g>
		</g>
		<g>
			<g>
				<g>
					<path d="M-940.35,438.83c-6,0-11.54-2.85-15.04-7.82l-5.93-8.41l-115.48-180.24c-3.88-6.05-3.88-13.87,0-19.92L-954.09,30.9
						c3.34-5.21,9.25-8.06,15.43-7.45l3.73,0.37v414.61l-3.79,0.33C-939.26,438.8-939.81,438.83-940.35,438.83z M-943.21,32.18
						c-1.57,0.6-2.93,1.69-3.9,3.2l-122.71,191.54c-2.14,3.33-2.14,7.64,0,10.97l115.37,180.09l5.82,8.26
						c1.35,1.92,3.25,3.26,5.4,3.89V32.18H-943.21z"/>
				</g>
			</g>
			<g>
				<g>
					<path d="M-937.81,438.83c-0.55,0-1.11-0.03-1.66-0.08l-3.73-0.37V23.76l3.79-0.33c6.65-0.56,12.86,2.33,16.68,7.76l5.93,8.4
						l115.47,180.24c3.88,6.05,3.88,13.87,0,19.92l-122.71,191.54C-927.09,436.04-932.26,438.83-937.81,438.83z M-934.92,32.07V430
						c1.57-0.61,2.94-1.7,3.89-3.18l122.7-191.54c2.14-3.33,2.14-7.64,0-10.97L-923.69,44.22l-5.82-8.26
						C-930.87,34.05-932.77,32.71-934.92,32.07z"/>
				</g>
			</g>
		</g>
	</g>
	<g>
		<g>
			<g>
				<path d="M-865.09,696.06L-865.09,696.06c-3.74,0-7.17-1.72-9.4-4.72l-31.39-42.15c-2.66-3.58-3.07-8.28-1.07-12.26
					c2-3.99,6.01-6.46,10.48-6.46h62.78c4.46,0,8.48,2.48,10.48,6.46c2,3.99,1.59,8.69-1.07,12.26l-31.39,42.15
					C-857.92,694.34-861.34,696.06-865.09,696.06z M-896.47,638.75c-1.91,0-2.78,1.32-3.07,1.89s-0.83,2.06,0.31,3.59l31.39,42.15
					c0.65,0.88,1.66,1.38,2.75,1.38l0,0c1.1,0,2.1-0.5,2.75-1.38l31.39-42.15c1.14-1.53,0.6-3.03,0.32-3.59
					c-0.29-0.57-1.16-1.89-3.07-1.89H-896.47z"/>
			</g>
		</g>
		<g>
			<g>
				<path d="M-1013.05,696.06L-1013.05,696.06c-3.74,0-7.17-1.72-9.4-4.72l-31.39-42.15c-2.67-3.58-3.08-8.28-1.07-12.26
					c2-3.99,6.01-6.46,10.48-6.46h62.78c4.46,0,8.48,2.48,10.48,6.46c2,3.99,1.59,8.69-1.07,12.26l-31.39,42.15
					C-1005.88,694.34-1009.3,696.06-1013.05,696.06z M-1044.43,638.75c-1.91,0-2.78,1.32-3.07,1.89c-0.29,0.57-0.83,2.06,0.31,3.59
					l31.39,42.15c0.65,0.88,1.66,1.38,2.75,1.38l0,0c1.1,0,2.1-0.5,2.75-1.38l31.39-42.15c1.14-1.53,0.6-3.03,0.32-3.59
					c-0.29-0.57-1.16-1.89-3.07-1.89H-1044.43z"/>
			</g>
		</g>
		<g>
			<g>
				<g>
					<path d="M-934.92,811.94h-4.14c-3.98,0-7.65-1.99-9.82-5.32l-51.49-79.02c-2.53-3.89-2.53-8.91,0-12.8l51.52-79.04
						c2.18-3.31,5.84-5.29,9.8-5.29h4.14v181.47H-934.92z M-943.21,642.24l-0.13,0.19l-50.1,76.88c-0.74,1.14-0.74,2.61,0,3.75
						l50.23,77.07V642.24z"/>
				</g>
			</g>
			<g>
				<g>
					<path d="M-939.07,811.94h-4.14V630.46h4.14c3.98,0,7.65,1.99,9.82,5.32l51.49,79.03c2.53,3.89,2.53,8.91,0,12.8l-51.52,79.04
						C-931.44,809.96-935.1,811.94-939.07,811.94z M-934.92,642.26v157.9l50.22-77.08c0.74-1.14,0.74-2.61,0-3.75L-934.92,642.26z"
						/>
				</g>
			</g>
		</g>
	</g>
	<g>
		<g>
			<path d="M-1119.24,559.88c0-21.74,16.25-38.3,38.51-38.3c9.81,0,17.2,3.27,21.95,6.75l-4.22,13.08
				c-3.59-2.53-10.24-5.91-17.73-5.91c-13.4,0-23,10.45-23,24.37c0,14.14,9.6,24.37,23,24.37c8.02,0,14.88-3.59,18.36-6.01
				l4.22,12.98c-4.43,3.27-11.82,6.96-22.58,6.96C-1103.83,598.18-1119.24,581.61-1119.24,559.88z"/>
		</g>
		<g>
			<path d="M-1004.54,537.72l-12.35,5.59c-1.58-3.48-4.33-8.02-10.76-8.02c-5.07,0-8.02,3.06-8.02,7.07
				c0,12.24,32.08,10.45,32.08,33.34c0,12.98-9.29,22.47-24.69,22.47c-15.83,0-22.37-11.08-24.48-17.09l12.56-6.12
				c2.01,4.85,6.12,9.39,12.77,9.39c5.49,0,8.76-2.85,8.76-7.6c0-12.66-31.87-10.55-31.87-34.19c0-12.45,9.07-21,23.21-21
				C-1012.45,521.57-1006.33,532.34-1004.54,537.72z"/>
		</g>
		<g>
			<path d="M-977.84,577.82l-6.44,18.99h-14.98l26.17-73.86h15.62l26.17,73.86h-14.98l-6.44-18.99H-977.84z M-965.29,538.88
				l-8.55,26.59h17.2L-965.29,538.88z"/>
		</g>
		<g>
			<path d="M-917.28,536.35h-17.3v-13.4h49.38v13.4h-17.2v60.46h-14.88V536.35z"/>
		</g>
		<g>
			<path d="M-866.94,577.82l-6.44,18.99h-14.98l26.17-73.86h15.62l26.17,73.86h-14.98l-6.44-18.99H-866.94z M-854.39,538.88
				l-8.55,26.59h17.2L-854.39,538.88z M-854.49,503.74h15.3l-10.24,15.19h-12.13L-854.49,503.74z"/>
		</g>
		<g>
			<path d="M-812.5,522.95h22.26c16.14,0,25.01,9.81,25.01,21.95c0,8.97-4.43,15.83-11.18,19.52l17.52,32.39h-16.46l-14.35-28.91
				h-7.91v28.91h-14.88v-73.86H-812.5z M-790.65,555.34c5.38,0,10.13-3.38,10.13-9.92c0-5.91-4.12-9.6-10.87-9.6h-6.23v19.52
				L-790.65,555.34L-790.65,555.34z"/>
		</g>
	</g>
	<g>
		<g>
			<path d="M-794.77,489.95h-288.6c-9.04,0-16.39-7.35-16.39-16.39s7.35-16.39,16.39-16.39h288.6c9.04,0,16.39,7.35,16.39,16.39
				S-785.73,489.95-794.77,489.95z M-1083.36,465.46c-4.47,0-8.1,3.63-8.1,8.1s3.63,8.1,8.1,8.1h288.6c4.47,0,8.1-3.63,8.1-8.1
				s-3.63-8.1-8.1-8.1H-1083.36z"/>
		</g>
	</g>
</g>
<g>
	<g>
		<path class="st4" d="M-1427.97,1072.37l-119.06-183.67c-7.27-11.21-23.68-11.21-30.94,0l-119.06,183.67l-128.03,197.51
			c-3.96,6.1-3.96,13.96,0,20.06l128.03,197.51l119.06,183.67c7.27,11.21,23.68,11.21,30.94,0l119.06-183.67l128.03-197.51
			c3.96-6.1,3.96-13.96,0-20.06L-1427.97,1072.37z"/>
	</g>
	<g>
		<g>
			<g>
				<path class="st0" d="M-1706.38,1166.52c4.27-5.74,12.86-5.74,17.13,0l37.7,50.63l33.57,45.07c5.25,7.05,0.22,17.06-8.57,17.06
					h-71.27h-71.27c-8.79,0-13.81-10.02-8.57-17.06l33.57-45.07L-1706.38,1166.52z"/>
			</g>
		</g>
		<g>
			<g>
				<path class="st0" d="M-1435.75,1166.52c4.27-5.74,12.86-5.74,17.13,0l37.7,50.63l33.57,45.07c5.25,7.05,0.22,17.06-8.57,17.06
					h-71.27h-71.27c-8.79,0-13.81-10.02-8.57-17.06l33.57-45.07L-1435.75,1166.52z"/>
			</g>
		</g>
		<g>
			<g>
				<g>
					<path class="st0" d="M-1562.5,923.59c-3.79-0.38-7.75,1.24-10.07,4.86l-103.83,162.07l-3.38,5.27c-2.63,4.11-2.63,9.38,0,13.49
						l48.19,75.23l52.61,82.12l5.18,7.35c2.72,3.86,7.09,5.61,11.3,5.25L-1562.5,923.59L-1562.5,923.59z"/>
				</g>
			</g>
			<g>
				<g>
					<path class="st1" d="M-1562.5,1279.23c3.79,0.38,7.75-1.24,10.07-4.86l103.83-162.07l3.38-5.27c2.63-4.11,2.63-9.38,0-13.49
						l-48.19-75.23l-52.61-82.12l-5.18-7.35c-2.72-3.86-7.09-5.61-11.3-5.25L-1562.5,1279.23L-1562.5,1279.23z"/>
				</g>
			</g>
		</g>
	</g>
	<g>
		<g>
			<g>
				<path class="st0" d="M-1492.55,1501.36c-2.65,3.56-7.97,3.56-10.62,0l-15-20.14l-12.43-16.69c-3.25-4.37-0.14-10.58,5.31-10.58
					h27.42h27.42c5.45,0,8.56,6.21,5.31,10.58l-12.43,16.69L-1492.55,1501.36z"/>
			</g>
		</g>
		<g>
			<g>
				<path class="st0" d="M-1621.83,1501.36c-2.65,3.56-7.97,3.56-10.62,0l-15-20.14l-12.43-16.69c-3.25-4.37-0.14-10.58,5.31-10.58
					h27.42h27.42c5.45,0,8.56,6.21,5.31,10.58l-12.43,16.69L-1621.83,1501.36z"/>
			</g>
		</g>
		<g>
			<g>
				<g>
					<path class="st0" d="M-1562.5,1453.96c-2.11,0-4.23,1-5.53,2.99l-1.22,1.86l-23.09,35.43l-20.69,31.75
						c-1.43,2.2-1.43,5.03,0,7.23l1.02,1.57l43.97,67.47c1.31,2,3.43,3.01,5.55,3.01v-151.31H-1562.5z"/>
				</g>
			</g>
			<g>
				<g>
					<path class="st1" d="M-1562.5,1605.28c2.11,0,4.23-1,5.53-2.99l1.22-1.86l23.09-35.43l20.69-31.75c1.43-2.2,1.43-5.03,0-7.23
						l-1.02-1.57l-43.97-67.47c-1.31-2-3.43-3.01-5.55-3.01v151.31H-1562.5z"/>
				</g>
			</g>
		</g>
	</g>
	<g>
		<g>
			<path class="st4" d="M-1719.92,1388.67c0-18.99,14.2-33.46,33.65-33.46c8.57,0,15.03,2.86,19.18,5.9l-3.69,11.43
				c-3.13-2.21-8.94-5.16-15.49-5.16c-11.71,0-20.1,9.13-20.1,21.3c0,12.35,8.39,21.3,20.1,21.3c7.01,0,13-3.13,16.04-5.25
				l3.69,11.34c-3.87,2.86-10.33,6.08-19.73,6.08C-1706.46,1422.14-1719.92,1407.66-1719.92,1388.67z"/>
		</g>
		<g>
			<path class="st4" d="M-1619.71,1369.31l-10.79,4.89c-1.38-3.04-3.78-7.01-9.4-7.01c-4.43,0-7.01,2.67-7.01,6.18
				c0,10.69,28.03,9.13,28.03,29.13c0,11.34-8.11,19.64-21.57,19.64c-13.83,0-19.54-9.68-21.39-14.93l10.97-5.35
				c1.75,4.24,5.35,8.21,11.16,8.21c4.79,0,7.65-2.49,7.65-6.64c0-11.06-27.84-9.22-27.84-29.87c0-10.88,7.93-18.35,20.28-18.35
				C-1626.62,1355.21-1621.27,1364.61-1619.71,1369.31z"/>
		</g>
		<g>
			<path class="st4" d="M-1596.38,1404.34l-5.62,16.59h-13.09l22.86-64.53h13.64l22.86,64.53h-13.09l-5.62-16.59H-1596.38z
				 M-1585.41,1370.32l-7.47,23.23h15.03L-1585.41,1370.32z"/>
		</g>
		<g>
			<path class="st4" d="M-1543.46,1368.11h-15.12v-11.71h43.15v11.71h-15.03v52.83h-13V1368.11z"/>
		</g>
		<g>
			<path class="st4" d="M-1499.49,1404.34l-5.62,16.59h-13.09l22.86-64.53h13.64l22.86,64.53h-13.09l-5.62-16.59H-1499.49z
				 M-1488.51,1370.32l-7.47,23.23h15.03L-1488.51,1370.32z M-1488.61,1339.62h13.37l-8.94,13.28h-10.6L-1488.61,1339.62z"/>
		</g>
		<g>
			<path class="st4" d="M-1451.91,1356.4h19.45c14.11,0,21.85,8.57,21.85,19.18c0,7.84-3.87,13.83-9.77,17.06l15.3,28.3h-14.38
				l-12.54-25.26h-6.91v25.26h-13L-1451.91,1356.4L-1451.91,1356.4z M-1432.83,1384.71c4.7,0,8.85-2.95,8.85-8.67
				c0-5.16-3.6-8.39-9.5-8.39h-5.44v17.06H-1432.83z"/>
		</g>
	</g>
	<g>
		<g>
			<path class="st4" d="M-1436.42,1323.95h-252.15c-5.91,0-10.7-4.79-10.7-10.7l0,0c0-5.91,4.79-10.7,10.7-10.7h252.15
				c5.91,0,10.7,4.79,10.7,10.7l0,0C-1425.73,1319.16-1430.52,1323.95-1436.42,1323.95z"/>
		</g>
	</g>
</g>
<g>
	<g>
		<path class="st2" d="M432.17,211.76L313.11,28.09c-7.27-11.21-23.68-11.21-30.94,0L163.1,211.76L35.07,409.27
			c-3.96,6.1-3.96,13.96,0,20.06L163.1,626.84l119.06,183.67c7.27,11.21,23.68,11.21,30.94,0l119.06-183.67L560.2,429.33
			c3.96-6.1,3.96-13.96,0-20.06L432.17,211.76z"/>
	</g>
	<g>
		<g>
			<g>
				<path class="st0" d="M153.75,305.91c4.27-5.74,12.86-5.74,17.13,0l37.7,50.63l33.57,45.07c5.25,7.05,0.22,17.06-8.57,17.06
					h-71.27H91.05c-8.79,0-13.81-10.02-8.57-17.06l33.57-45.07L153.75,305.91z"/>
			</g>
		</g>
		<g>
			<g>
				<path class="st0" d="M424.39,305.91c4.27-5.74,12.86-5.74,17.13,0l37.7,50.63l33.57,45.07c5.25,7.05,0.22,17.06-8.57,17.06
					h-71.27h-71.27c-8.79,0-13.81-10.02-8.57-17.06l33.57-45.07L424.39,305.91z"/>
			</g>
		</g>
		<g>
			<g>
				<g>
					<path class="st0" d="M297.64,62.98c-3.79-0.38-7.75,1.24-10.07,4.86L183.73,229.92l-3.38,5.27c-2.63,4.11-2.63,9.38,0,13.49
						l48.19,75.23l52.61,82.12l5.18,7.35c2.72,3.86,7.09,5.61,11.3,5.25V62.98H297.64z"/>
				</g>
			</g>
			<g>
				<g>
					<path class="st1" d="M297.64,418.62c3.79,0.38,7.75-1.24,10.07-4.86l103.83-162.07l3.38-5.27c2.63-4.11,2.63-9.38,0-13.49
						l-48.19-75.23l-52.61-82.12l-5.18-7.35c-2.72-3.86-7.09-5.61-11.3-5.25L297.64,418.62L297.64,418.62z"/>
				</g>
			</g>
		</g>
	</g>
	<g>
		<g>
			<g>
				<path class="st0" d="M367.59,640.75c-2.65,3.56-7.97,3.56-10.62,0l-15-20.14l-12.43-16.69c-3.25-4.37-0.14-10.58,5.31-10.58
					h27.42h27.42c5.45,0,8.56,6.21,5.31,10.58l-12.43,16.69L367.59,640.75z"/>
			</g>
		</g>
		<g>
			<g>
				<path class="st0" d="M238.31,640.75c-2.65,3.56-7.97,3.56-10.62,0l-15-20.14l-12.43-16.69c-3.25-4.37-0.14-10.58,5.31-10.58H233
					h27.42c5.45,0,8.56,6.21,5.31,10.58l-12.43,16.69L238.31,640.75z"/>
			</g>
		</g>
		<g>
			<g>
				<g>
					<path class="st0" d="M297.64,593.35c-2.11,0-4.23,1-5.53,2.99l-1.22,1.86l-23.09,35.43l-20.69,31.75
						c-1.43,2.2-1.43,5.03,0,7.23l1.02,1.57l43.97,67.47c1.31,2,3.43,3.01,5.55,3.01V593.35H297.64z"/>
				</g>
			</g>
			<g>
				<g>
					<path class="st1" d="M297.64,744.67c2.11,0,4.23-1,5.53-2.99l1.22-1.86l23.09-35.43l20.69-31.75c1.43-2.2,1.43-5.03,0-7.23
						l-1.02-1.57l-43.97-67.47c-1.31-2-3.43-3.01-5.55-3.01L297.64,744.67L297.64,744.67z"/>
				</g>
			</g>
		</g>
	</g>
	<g>
		<g>
			<path class="st4" d="M140.22,528.06c0-18.99,14.2-33.46,33.65-33.46c8.57,0,15.03,2.86,19.18,5.9l-3.69,11.43
				c-3.13-2.21-8.94-5.16-15.49-5.16c-11.71,0-20.1,9.13-20.1,21.3c0,12.35,8.39,21.3,20.1,21.3c7.01,0,13-3.13,16.04-5.25
				l3.69,11.34c-3.87,2.86-10.33,6.08-19.73,6.08C153.68,561.53,140.22,547.05,140.22,528.06z"/>
		</g>
		<g>
			<path class="st4" d="M240.43,508.7l-10.79,4.89c-1.38-3.04-3.78-7.01-9.4-7.01c-4.43,0-7.01,2.67-7.01,6.18
				c0,10.69,28.03,9.13,28.03,29.13c0,11.34-8.11,19.64-21.57,19.64c-13.83,0-19.54-9.68-21.39-14.93l10.97-5.35
				c1.75,4.24,5.35,8.21,11.16,8.21c4.79,0,7.65-2.49,7.65-6.64c0-11.06-27.84-9.22-27.84-29.87c0-10.88,7.93-18.35,20.28-18.35
				C233.52,494.6,238.86,504,240.43,508.7z"/>
		</g>
		<g>
			<path class="st4" d="M263.76,543.73l-5.62,16.59h-13.09l22.86-64.53h13.64l22.86,64.53h-13.09l-5.62-16.59H263.76z
				 M274.73,509.71l-7.47,23.23h15.03L274.73,509.71z"/>
		</g>
		<g>
			<path class="st4" d="M316.68,507.5h-15.12v-11.71h43.15v11.71h-15.03v52.83h-13V507.5z"/>
		</g>
		<g>
			<path class="st4" d="M360.65,543.73l-5.62,16.59h-13.09l22.86-64.53h13.64l22.86,64.53h-13.09l-5.62-16.59H360.65z
				 M371.62,509.71l-7.47,23.23h15.03L371.62,509.71z M371.53,479.01h13.37l-8.94,13.28h-10.6L371.53,479.01z"/>
		</g>
		<g>
			<path class="st4" d="M408.22,495.79h19.45c14.11,0,21.85,8.57,21.85,19.18c0,7.84-3.87,13.83-9.77,17.06l15.3,28.3h-14.38
				l-12.54-25.26h-6.91v25.26h-13V495.79z M427.31,524.1c4.7,0,8.85-2.95,8.85-8.67c0-5.16-3.6-8.39-9.5-8.39h-5.44v17.06H427.31z"
				/>
		</g>
	</g>
	<g>
		<g>
			<path class="st4" d="M423.71,463.34H171.56c-5.91,0-10.7-4.79-10.7-10.7l0,0c0-5.91,4.79-10.7,10.7-10.7h252.15
				c5.91,0,10.7,4.79,10.7,10.7l0,0C434.41,458.55,429.62,463.34,423.71,463.34z"/>
		</g>
	</g>
</g>
<g>
	<g>
		<g>
			<g>
				<path class="st0" d="M-1106.49,1166.01c4.97-6.67,14.97-6.67,19.94,0l43.87,58.91l39.06,52.45c6.11,8.2,0.25,19.85-9.97,19.85
					h-82.93h-82.93c-10.22,0-16.07-11.65-9.97-19.85l39.06-52.45L-1106.49,1166.01z"/>
			</g>
		</g>
		<g>
			<g>
				<path class="st0" d="M-791.58,1166.01c4.97-6.67,14.97-6.67,19.94,0l43.87,58.91l39.06,52.45c6.11,8.2,0.25,19.85-9.97,19.85
					h-82.93h-82.93c-10.22,0-16.07-11.65-9.97-19.85l39.06-52.45L-791.58,1166.01z"/>
			</g>
		</g>
		<g>
			<g>
				<g>
					<path class="st0" d="M-939.07,883.34c-4.41-0.44-9.02,1.44-11.72,5.66l-120.82,188.59l-3.93,6.14c-3.07,4.79-3.07,10.92,0,15.7
						l56.08,87.53l61.22,95.55l6.02,8.55c3.17,4.5,8.25,6.53,13.15,6.11L-939.07,883.34L-939.07,883.34z"/>
				</g>
			</g>
			<g>
				<g>
					<path class="st1" d="M-939.07,1297.16c4.41,0.44,9.02-1.44,11.72-5.66l120.82-188.59l3.93-6.14c3.07-4.79,3.07-10.92,0-15.7
						l-56.08-87.53l-61.22-95.55l-6.02-8.55c-3.17-4.5-8.25-6.53-13.15-6.11L-939.07,1297.16L-939.07,1297.16z"/>
				</g>
			</g>
		</g>
	</g>
	<g>
		<g>
			<g>
				<path class="st0" d="M-857.68,1555.63c-3.08,4.14-9.28,4.14-12.36,0l-17.45-23.43l-14.46-19.42
					c-3.79-5.08-0.16-12.31,6.18-12.31h31.91h31.91c6.34,0,9.97,7.22,6.18,12.31l-14.46,19.42L-857.68,1555.63z"/>
			</g>
		</g>
		<g>
			<g>
				<path class="st0" d="M-1008.1,1555.63c-3.08,4.14-9.28,4.14-12.36,0l-17.45-23.43l-14.46-19.42
					c-3.79-5.08-0.16-12.31,6.18-12.31h31.91h31.91c6.34,0,9.97,7.22,6.18,12.31l-14.46,19.42L-1008.1,1555.63z"/>
			</g>
		</g>
		<g>
			<g>
				<g>
					<path class="st0" d="M-939.07,1500.47c-2.46,0-4.92,1.16-6.44,3.47l-1.43,2.17l-26.86,41.23l-24.08,36.95
						c-1.67,2.56-1.67,5.86,0,8.41l1.19,1.83l51.16,78.51c1.52,2.33,3.99,3.5,6.45,3.5v-176.07H-939.07z"/>
				</g>
			</g>
			<g>
				<g>
					<path class="st1" d="M-939.07,1676.54c2.46,0,4.92-1.16,6.44-3.47l1.43-2.17l26.86-41.23l24.08-36.95
						c1.67-2.56,1.67-5.86,0-8.41l-1.19-1.83l-51.16-78.51c-1.52-2.33-3.99-3.5-6.45-3.5v176.07H-939.07z"/>
				</g>
			</g>
		</g>
	</g>
	<g>
		<g>
			<path class="st4" d="M-1122.23,1424.5c0-22.1,16.52-38.94,39.15-38.94c9.98,0,17.49,3.33,22.31,6.87l-4.29,13.3
				c-3.65-2.57-10.41-6.01-18.02-6.01c-13.62,0-23.39,10.62-23.39,24.78c0,14.37,9.76,24.78,23.39,24.78
				c8.15,0,15.12-3.65,18.67-6.11l4.29,13.19c-4.51,3.33-12.01,7.08-22.96,7.08C-1106.57,1463.44-1122.23,1446.6-1122.23,1424.5z"/>
		</g>
		<g>
			<path class="st4" d="M-1005.63,1401.97l-12.55,5.69c-1.61-3.54-4.4-8.15-10.94-8.15c-5.15,0-8.15,3.11-8.15,7.19
				c0,12.44,32.61,10.62,32.61,33.9c0,13.19-9.44,22.85-25.1,22.85c-16.09,0-22.74-11.26-24.89-17.38l12.76-6.22
				c2.04,4.93,6.22,9.55,12.98,9.55c5.58,0,8.9-2.9,8.9-7.72c0-12.87-32.4-10.73-32.4-34.76c0-12.66,9.23-21.35,23.6-21.35
				C-1013.67,1385.56-1007.45,1396.5-1005.63,1401.97z"/>
		</g>
		<g>
			<path class="st4" d="M-978.49,1442.73l-6.54,19.31h-15.23l26.6-75.09h15.88l26.6,75.09h-15.23l-6.54-19.31H-978.49z
				 M-965.72,1403.15l-8.69,27.03h17.49L-965.72,1403.15z"/>
		</g>
		<g>
			<path class="st4" d="M-916.91,1400.58h-17.59v-13.62h50.2v13.62h-17.49v61.47h-15.12V1400.58z"/>
		</g>
		<g>
			<path class="st4" d="M-865.74,1442.73l-6.54,19.31h-15.23l26.6-75.09h15.88l26.6,75.09h-15.23l-6.54-19.31H-865.74z
				 M-852.98,1403.15l-8.69,27.03h17.49L-852.98,1403.15z M-853.09,1367.43h15.55l-10.41,15.45h-12.34L-853.09,1367.43z"/>
		</g>
		<g>
			<path class="st4" d="M-810.39,1386.95h22.63c16.41,0,25.42,9.98,25.42,22.31c0,9.12-4.51,16.09-11.37,19.85l17.81,32.93h-16.73
				l-14.59-29.39h-8.05v29.39h-15.12V1386.95z M-788.19,1419.89c5.47,0,10.3-3.43,10.3-10.08c0-6.01-4.18-9.76-11.05-9.76h-6.33
				v19.85h7.08V1419.89z"/>
		</g>
	</g>
	<g>
		<g>
			<path class="st4" d="M-792.37,1349.19h-293.4c-6.87,0-12.45-5.57-12.45-12.45l0,0c0-6.87,5.57-12.45,12.45-12.45h293.4
				c6.87,0,12.45,5.57,12.45,12.45l0,0C-779.92,1343.62-785.49,1349.19-792.37,1349.19z"/>
		</g>
	</g>
</g>
</svg>
