<?xml version="1.0" encoding="utf-8"?>
<!-- Generator: Adobe Illustrator 23.0.2, SVG Export Plug-In . SVG Version: 6.00 Build 0)  -->
<svg version="1.1" id="Layer_1" xmlns="http://www.w3.org/2000/svg" xmlns:xlink="http://www.w3.org/1999/xlink" x="0px" y="0px"
	 viewBox="0 0 229.7 176.1" style="enable-background:new 0 0 229.7 176.1;" xml:space="preserve">
<style type="text/css">
	.st0{fill:#FFE266;}
</style>
<g>
	<g>
		<g>
			<path class="st0" d="M196.2,55.2c-3.1,4.1-9.3,4.1-12.4,0L152,12.3C148.2,7.2,151.8,0,158.1,0H222c6.3,0,10,7.2,6.2,12.3
				L196.2,55.2z"/>
		</g>
	</g>
</g>
<g>
	<g>
		<g>
			<path class="st0" d="M45.8,55.2c-3.1,4.1-9.3,4.1-12.4,0L1.5,12.3C-2.2,7.2,1.4,0,7.7,0h63.8c6.3,0,10,7.2,6.2,12.3L45.8,55.2z"
				/>
		</g>
	</g>
</g>
<g>
	<g>
		<polygon class="st0" points="114.8,0 114.8,0 114.8,0 		"/>
		<polygon class="st0" points="114.9,176.1 114.9,176.1 114.8,176.1 		"/>
		<path class="st0" d="M173.7,83.8L121.3,3.5c-1.5-2.3-4-3.5-6.5-3.5h0c-2.5,0-4.9,1.2-6.4,3.5L56,83.8c-1.7,2.6-1.7,5.9,0,8.4
			l52.3,80.3c1.5,2.3,4,3.5,6.5,3.5l0,0c2.5,0,4.9-1.2,6.4-3.5l52.4-80.4C175.3,89.7,175.3,86.4,173.7,83.8z"/>
	</g>
</g>
</svg>
