<?xml version="1.0" encoding="utf-8"?>
<!-- Generator: Adobe Illustrator 23.0.2, SVG Export Plug-In . SVG Version: 6.00 Build 0)  -->
<svg version="1.1" id="Layer_1" xmlns="http://www.w3.org/2000/svg" xmlns:xlink="http://www.w3.org/1999/xlink" x="0px" y="0px"
	 viewBox="0 0 695.42 450.65" style="enable-background:new 0 0 695.42 450.65;" xml:space="preserve">
<style type="text/css">
	.st0{fill:#010202;}
</style>
<g>
	<path class="st0" d="M143.35,141.15c-1.61-0.36-2.79-0.47-4.03,0.33c-4.1,2.63-8.77,3.5-13.51,4.06c-0.47,0.06-0.98-0.22-1.47-0.34
		c0.22-0.52,0.33-1.13,0.68-1.53c1.15-1.32,2.1-2.68,2.13-4.53c0.01-0.85-0.18-1.51-0.92-1.99c-1.1-0.73-2.23-1.44-3.27-2.24
		c-2.83-2.18-5.8-4.22-8.4-6.66c-3.15-2.96-4.49-6.82-4.3-11.19c0.15-3.49,2.05-6.13,4.06-8.73c0.56-0.72,1.22-1.37,2.12-2.36
		c-2.04-0.25-3.78-0.39-5.49-0.68c-5.67-0.96-11.33-1.99-17-2.98c-7.12-1.24-14.25-2.51-21.38-3.7c-10.13-1.7-20.17-3.87-30.08-6.58
		c-5.98-1.64-12.08-2.15-18.24-2.34c-6.61-0.21-13.23-0.44-19.83-0.76c-4.34-0.21-4.99-1.14-4.04-5.44
		c1.09-4.96,2.96-9.66,4.93-14.32c1.63-3.87,3.32-7.73,4.63-11.71c2.39-7.25,2.42-14.72,1.03-22.16c-0.9-4.83,0.21-8.91,3.41-12.54
		c1.14-1.29,2.48-1.91,4.14-1.54c1.97,0.43,3.99,0.8,5.85,1.54c6.34,2.49,12.95,3.85,19.61,5.1c11.92,2.25,23.81,4.7,35.75,6.81
		c11.18,1.98,22.42,3.64,33.64,5.42c5.46,0.86,10.91,1.76,16.39,2.46c3.85,0.49,7.73,0.68,11.66,1.01c0.46-0.92,0.91-1.82,1.35-2.72
		c1.97-3.98,4.77-7.25,8.23-10.02c3.97-3.18,8.6-3.78,13.42-3.72c0.81,0.01,1.62,0.41,2.51,0.65c0.51-0.95,0.99-1.92,1.54-2.85
		c3.16-5.46,7.43-7.44,13.54-6.02c2.24,0.52,4.4,1.5,6.53,2.42c3.43,1.47,6.73,3.25,10.22,4.56c3.33,1.25,6.84,2,10.24,3.07
		c5.3,1.67,10.25,4.09,14.87,7.18c5.79,3.88,10.49,8.78,13.91,14.86c0.49,0.88,1.07,1.42,2.07,1.67c8.81,2.25,17.6,4.6,26.43,6.8
		c17.73,4.41,35.48,8.79,53.24,13.09c10.15,2.46,20.46,3.92,30.84,5.04c6.18,0.67,12.28,1.99,18.41,3.07s12.32,1.93,18.35,3.42
		c5.19,1.28,10.19,3.3,15.26,5.06c0.94,0.33,1.8,0.91,2.69,1.4c2.16,1.2,3.4,3.08,3.33,5.51c-0.06,2.31-0.26,4.68-0.86,6.9
		c-1.31,4.83-2.14,9.71-2.5,14.7c-0.5,6.84-1.52,13.61-3.01,20.3c-0.71,3.18-1.62,6.32-2.58,9.43c-0.38,1.25-1,2.46-1.72,3.55
		c-1.99,2.99-4.83,4.38-8.41,3.78c-2.06-0.35-4.15-0.8-6.08-1.56c-15.12-6.03-30.58-10.97-46.37-14.93
		c-11.76-2.95-23.45-6.2-35.17-9.34c-1.87-0.5-3.71-1.13-5.59-1.71c-0.17,0.19-0.38,0.34-0.45,0.53
		c-4.3,12.02-11.52,22.17-20.11,31.44c-0.74,0.8-1.64,1.44-2.4,2.22c-2.28,2.36-5.17,3.13-8.28,3.02c-3.65-0.13-7.3-0.38-10.92-0.87
		c-3.85-0.52-7.7-1.2-11.46-2.14c-5.5-1.38-10.93-3.03-16.39-4.6c-1.86-0.53-3.69-1.16-5.95-1.88c0.24,1.22,0.42,2.16,0.61,3.1
		c1.3,6.56,3.03,13.06,3.25,19.78c0.17,5.05,0.08,10.11,0.13,15.17c0.01,1.08-0.05,2.2,0.17,3.25c1.43,6.77,2.99,13.51,4.38,20.29
		c1.46,7.14,2.92,14.29,4.1,21.48c0.68,4.13,0.93,8.35,1.16,12.54c0.57,10.05,2.11,19.95,3.95,29.83
		c1.32,7.11,2.47,14.26,3.66,21.39c0.99,5.94,2.84,11.63,4.76,17.3c1.47,4.34,2.86,8.71,4.24,13.08c0.68,2.14,1.34,4.29,1.84,6.47
		c0.33,1.42,0.52,2.92,0.49,4.38c-0.16,6.22-0.39,12.44-0.66,18.66c-0.08,1.78-0.33,3.56-0.54,5.34c-0.51,4.3-0.22,8.56,0.7,12.77
		c1.24,5.65,2,11.33,1.74,17.13c-0.11,2.55-0.31,4.91-3.61,5.52c1.2,5.53,2.34,10.91,3.56,16.27c0.41,1.81,1.06,3.57,1.58,5.37
		c0.45,1.57,0.62,3.13,0.58,4.81c-0.05,1.98,0.57,3.97,0.9,5.96c0.13,0.77,0.31,1.53,0.33,2.31c0.06,1.71-0.84,2.6-2.54,2.6
		c-1.55,0-3.27,0.4-4.6-0.14c-2.17-0.88-4.41-0.35-6.46-0.85c-2.02-0.49-3.68-0.79-5.71,0.05c-1.29,0.53-2.89,0.31-4.07,1.4
		c-0.19,0.18-0.63,0.27-0.87,0.18c-1.59-0.57-3.19-0.46-4.83-0.33c-0.56,0.04-1.37-0.41-1.72-0.89c-0.88-1.18-1.53-2.5-1.43-4.09
		c0.15-2.4,0.3-4.81,0.27-7.22c-0.03-2.44,0.75-4.58,2.01-6.59c1.2-1.91,1.63-3.92,1.51-6.21c-0.18-3.55-0.05-7.12-0.05-10.76
		c-1.51-0.19-3.15-0.27-4.72-0.62c-1.51-0.33-3.03-0.77-4.41-1.44c-3.57-1.72-5.12-4.61-4.74-8.55c0.39-3.95,0.94-7.88,1.25-11.84
		c0.39-4.96,0.74-9.94,0.86-14.91c0.26-10.58,0.36-21.17,0.52-31.76c0.01-0.93-0.02-1.87-0.08-2.8c-0.1-1.75-0.57-3.26-1.97-4.55
		c-2.59-2.38-4-5.52-5.04-8.82c-2.02-6.4-3.32-12.97-4.1-19.62c-0.79-6.72-1.2-13.48-1.91-20.21c-1.01-9.53-2.95-18.89-5.7-28.19
		c-0.66-0.08-1.26-0.15-1.86-0.22c-0.53-0.06-1.06-0.13-1.78-0.21c-0.43,2.58-0.84,5.09-1.28,7.59c-1.19,6.66-2.34,13.33-3.63,19.97
		c-1.8,9.24-3.88,18.42-5.56,27.68c-1.42,7.81-2.32,15.69-2.7,23.64c-0.2,4.11-1,8.18-1.38,12.29c-0.34,3.63-0.53,7.28-0.7,10.93
		c-0.18,3.81-0.37,7.62-0.37,11.43c0,3.34,0.25,6.69,0.41,10.03c0.22,4.5,0.69,9.01,0.62,13.51c-0.06,3.24-0.67,6.49-1.34,9.68
		c-0.61,2.91-2.27,3.8-5.15,3.29c-0.98-0.17-1.96-0.33-3.13-0.52c-0.46,5.63-1.21,11.02-0.39,16.46c0.41,2.72,0.29,5.39-0.31,8.1
		c-0.49,2.18-0.48,4.47-0.73,6.7c-0.06,0.53-0.11,1.15-0.41,1.55c-0.33,0.44-0.97,0.98-1.42,0.94c-2.13-0.21-4.13,0.29-6.16,0.79
		c-0.69,0.17-1.5-0.04-2.24-0.14c-0.29-0.04-0.53-0.31-0.82-0.43c-0.42-0.18-0.96-0.59-1.26-0.46c-2.25,0.97-4.24-1.59-6.53-0.38
		c-1.53,0.81-2.99,0.54-4.18-0.88c-0.3-0.36-0.95-0.64-1.42-0.62c-1.45,0.07-2.02-0.85-2.14-1.97c-0.16-1.53-0.11-3.09-0.03-4.63
		c0.09-1.63,0.55-3.26,0.44-4.86c-0.3-4.53,0.94-8.78,2.1-13.06c0.85-3.14,1.78-6.26,2.69-9.47c-0.48-0.27-0.78-0.48-1.12-0.62
		c-1.61-0.7-2.48-1.99-2.4-3.67c0.12-2.32,0.28-4.67,0.78-6.93c1.61-7.21,3.5-14.36,5.05-21.58c1.61-7.53,3.1-15.09,4.32-22.69
		c0.7-4.36,0.76-8.83,1.07-13.26c0.04-0.52-0.06-1.1-0.27-1.57c-2.39-5.48-2.42-11.26-1.81-17c1.13-10.75,2.57-21.47,3.86-32.21
		c0.81-6.73,1.29-13.49,0.99-20.27c-0.54-12.18,0.43-24.26,2.15-36.3c0.16-1.13,0.04-1.93-0.79-2.7c-1.55-1.42-3.12-2.82-4.56-4.34
		c-6.67-7.08-14.02-13.52-20.12-21.14c-3.8-4.74-7.63-9.45-11.45-14.17c-3.63-4.48-4.7-9.56-3.48-15.14
		c0.74-3.38,2.61-6.11,5.14-8.43c5.28-4.85,10.74-9.48,16.65-13.54C142.59,141.85,142.84,141.59,143.35,141.15z M158.88,284.48
		c-0.14,0.44-0.34,0.88-0.4,1.33c-0.94,7.64-1.98,15.28-2.72,22.94c-0.36,3.7-0.37,7.46-0.13,11.17c0.14,2.11-0.12,4.57,1.97,6.18
		c0.2,0.15,0.12,0.72,0.1,1.1c-0.09,1.98-0.17,3.96-0.32,5.93c-0.34,4.65-0.25,9.34-1.31,13.92c-0.03,0.13,0.08,0.29,0.12,0.43
		c0.32-0.12,0.64-0.24,1.2-0.46c0,0.99,0.06,1.75-0.02,2.49c-0.05,0.51-0.15,1.24-0.49,1.45c-0.38,0.24-1.06,0-1.65-0.03
		c-0.26,1.26-0.52,2.47-0.74,3.7c-0.06,0.36-0.16,0.88,0.03,1.08c1.12,1.25,0.47,2.67,0.41,4c-0.02,0.49-0.61,0.96-0.94,1.43
		c-0.28,0.4-0.73,0.74-0.85,1.18c-0.44,1.65-0.8,3.33-1.14,5c-0.09,0.43,0.01,0.9,0.06,1.34c0.13,1.13,0.28,2.25,0.43,3.46
		c-0.78,0.24-1.33,0.41-1.93,0.6c-0.76,3.25-1.57,6.42-2.23,9.61c-0.64,3.12-1.29,6.25-1.65,9.41c-0.31,2.73,0.2,3.16,2.83,3.92
		c5.36,1.54,10.88,1.74,16.4,2.01c2.63,0.13,5.27,0.4,7.88,0.74c2.77,0.36,3.16,0.14,3.78-2.69c0.87-3.98,1.18-8.01,0.98-12.07
		c-0.27-5.52-0.79-11.02-0.96-16.54c-0.12-3.72,0.25-7.46,0.26-11.2c0.01-3.52,0.17-7,1.24-10.39c0.12-0.36,0.15-0.76,0.18-1.15
		c0.36-5.43,0.8-10.87,1.05-16.31c0.47-10.29,2.01-20.44,4.11-30.5c3.18-15.23,6.36-30.45,8.92-45.8c0.1-0.6,0.08-1.21,0.12-1.69
		c-1.09-0.76-2.09-1.36-2.98-2.11c-0.54-0.45-0.97-1.24-0.21-1.77c0.32-0.22,1.21-0.02,1.59,0.3c2.93,2.51,6.13,2.65,9.56,1.27
		c0.79-0.32,1.6-0.56,2.4-0.84c0.1,0.19,0.2,0.38,0.3,0.57c-1.24,0.99-2.48,1.97-3.71,2.94c0.06,0.31,0.09,0.54,0.16,0.75
		c3.26,9.06,4.96,18.46,5.97,28c0.82,7.73,1.38,15.5,2.35,23.21c0.74,5.86,1.84,11.71,3.99,17.24c1,2.57,2.53,4.98,4.06,7.3
		c1.03,1.56,2.51,2.82,4.01,4.46c-1.66-0.07-1.36,0.81-1.33,1.55c0.13,3.58,0.37,7.15,0.37,10.73c0,5.06-0.05,10.12-0.28,15.17
		c-0.41,8.86-0.93,17.71-1.49,26.57c-0.17,2.71-0.7,5.4-0.93,8.11c-0.29,3.4,0.93,5.51,4.08,6.81c1.63,0.67,3.41,1.21,5.15,1.33
		c3.18,0.23,6.38,0.07,9.57,0.13c4.38,0.08,8.7-0.36,12.97-1.32c2.95-0.66,2.92-0.71,3.1-3.64c0.34-5.42-0.48-10.71-1.68-15.96
		c-0.79-3.43-1.27-6.9-1.13-10.41c0.12-2.95,0.47-5.89,0.63-8.84c0.34-6.6,0.63-13.21,0.94-19.81c0.1-2.11-0.05-4.17-0.76-6.21
		c-1.45-4.11-2.73-8.27-4.21-12.37c-2.2-6.07-4.51-12.12-5.7-18.49c-2-10.7-3.76-21.45-5.73-32.16
		c-1.85-10.05-2.43-20.23-3.21-30.39c-0.07-0.89-0.21-1.78-0.33-2.86c-1.24,0.38-2.18,0.71-3.14,0.95
		c-2.77,0.69-5.31,0.27-7.23-1.99c-1.5-1.77-2.93-3.63-4.19-5.58c-1.27-1.98-1.96-4.23-2.01-6.62c-0.04-1.8,0.13-2.14,1.83-2.8
		c2.25-0.88,4.54-1.64,6.77-2.53c1.5-0.6,3.01-1.24,4.19-2.76c-1.17-5.64-2.34-11.35-3.53-17.06c-0.08-0.38-0.14-0.86-0.39-1.08
		c-1.07-0.89-0.9-2.07-0.89-3.21c0.02-2.02,0.06-4.05,0.11-6.07c0.24-9.29-0.16-18.51-2.31-27.61c-0.86-3.63-1.68-7.3-2.05-11
		c-0.7-6.96-1.37-13.94-0.95-20.96c0.06-1,0.01-2,0.01-3.07c-0.96-0.45-1.77-0.93-2.64-1.21c-2.93-0.93-5.89-1.79-8.9-2.7
		c0,0.59-0.03,1.33,0.01,2.08c0.26,4.74,0.57,9.47,0.78,14.21c0.12,2.71-0.1,5.45,0.14,8.14c0.34,3.78,0.36,3.97-3.07,5.39
		c-0.14,0.06-0.25,0.18-0.46,0.35c0,2.93,0,5.93,0,9.03c1.32,0.21,2.54,0.38,3.75,0.59c1.62,0.27,2.3,0.77,2.37,2.37
		c0.11,2.55,0.35,5.2-0.15,7.67c-1.02,5.14-3.78,9.31-8.47,12.22c0,0.92-0.05,1.92,0.01,2.92c0.26,4.14,1.02,8.17,2.55,12.04
		c0.22,0.55,0.89,1.2-0.17,2.04c-3.61-4.66-5.72-10.07-8.26-15.25c-2.13,0.35-4.17,0.68-6.53,1.07c0,1.16-0.01,2.39,0,3.61
		c0.02,1.17,0.13,2.34,0.09,3.5c-0.04,1.14,0.6,2.37-0.59,3.94c-0.69-2.43-1.29-4.41-1.79-6.41c-0.53-2.09-0.96-4.21-1.43-6.25
		c-4.42-1.12-8.44-4.68-8.34-10.59c0.06-3.19,0.14-6.38,0.31-9.56c0.14-2.54,0.56-5.05,1.44-7.49c2.62,0.32,5.12,0.63,7.74,0.96
		c0-2.84,0-5.35,0-8.11c-3.37,0.76-6.36-0.22-9.38-0.92c-1.32-0.31-2.31-1-2.34-2.5c-0.11-4.82-0.26-9.64-0.25-14.46
		c0.01-2.71,0.22-5.41-0.14-8.38c-1.57,0.09-2.94,0.16-4.32,0.26c-2.05,0.15-3.26,1.14-3.46,3.29c-0.08,0.84-0.43,1.65-0.62,2.49
		c-1.33,5.71-1.93,11.49-1.96,17.35c-0.02,4.26,0.15,8.56-0.32,12.78c-1.23,10.94-0.92,21.74,1.92,32.42
		c0.28,1.05,0.37,2.28,0.99,3.07c0.82,1.04,0.67,2.1,0.51,3.08c-0.57,3.44-1.33,6.86-2,10.28c-0.13,0.66-0.17,1.35-0.27,2.15
		c1.21,0.49,2.25,1.05,3.37,1.32c2.26,0.55,4.55,0.99,6.85,1.39c1.65,0.29,1.85,0.46,1.72,2.05c-0.12,1.55-0.19,3.11-0.31,4.66
		c-0.26,3.25-0.49,6.51-0.82,9.76c-0.17,1.62-1.05,2.93-2.4,3.84c-1.96,1.32-4.06,2.33-6.51,2.24c-1.62-0.06-3.24-0.18-5.01-0.28
		c-1.17,10.41,0.39,20.95-0.35,31.46c0.27-0.75,0.54-1.5,0.82-2.25c0.1,0.02,0.19,0.04,0.29,0.07c0,2.19,0,4.38,0,6.67
		c-0.65,0.03-1.14,0.06-1.7,0.09c-0.36,3.41-0.7,6.74-1.05,10.06C158.83,284.54,158.88,284.48,158.88,284.48z M226.92,108.31
		c-0.01,0.09-0.02,0.18-0.03,0.26c0.59,0.14,1.18,0.27,1.77,0.41c6.04,1.5,12.03,3.18,18.11,4.46c11.63,2.45,23.48,3.87,34.97,7.03
		c2.25,0.62,4.51,1.19,6.73,1.88c4.97,1.54,9.88,3.3,14.9,4.68c11.61,3.21,23.23,6.42,34.92,9.32c15.57,3.87,30.8,8.75,45.69,14.7
		c1.5,0.6,3.11,1,4.71,1.31c3.84,0.73,6.24-0.54,7.92-4.09c0.36-0.77,0.72-1.57,0.93-2.39c0.91-3.53,1.82-7.07,2.64-10.62
		c1.36-5.85,2.08-11.79,2.55-17.77c0.4-5.13,1.11-10.2,2.6-15.14c0.47-1.55,0.69-3.19,0.87-4.81c0.27-2.47-0.58-4.43-2.97-5.52
		c-0.71-0.32-1.37-0.77-2.1-1.01c-4.79-1.6-9.5-3.57-14.41-4.63c-9.87-2.14-19.84-3.89-29.8-5.59c-5.44-0.93-10.95-1.42-16.42-2.16
		c-10.26-1.39-20.36-3.64-30.41-6.09c-13.82-3.36-27.62-6.82-41.4-10.31c-8.81-2.23-17.59-4.62-26.38-6.93
		c-0.79-0.21-1.6-0.33-2.6-0.53c0.22,0.77,0.33,1.22,0.47,1.66c1.56,4.94,1.89,9.96,0.57,14.96c-1.01,3.82-2.4,7.54-3.65,11.3
		c-0.93,2.8-2.16,5.53-2.83,8.39c-1.08,4.63-0.09,7.94,5.38,10.49c0.96,0.45,2.09,0.54,3.14,0.8c0.7,0.17,1.4,0.35,2.01,0.5
		c0,0.48,0.06,0.69-0.01,0.78c-0.29,0.35-0.58,0.72-0.94,1c-3.76,2.99-8.03,4.34-12.82,3.98
		C229.67,108.52,228.29,108.41,226.92,108.31z M140.86,44.77c-0.88,0-1.64,0.02-2.4,0c-2.41-0.09-4.84-0.06-7.22-0.34
		c-4.63-0.55-9.24-1.25-13.85-1.96C105.71,40.68,94,39,82.36,37c-12.03-2.07-23.99-4.48-35.98-6.75c-7.79-1.47-15.59-2.91-23-5.9
		c-1.57-0.63-3.3-0.86-4.97-1.23c-0.89-0.2-1.68,0.01-2.31,0.74c-2.51,2.89-3.95,6.1-3.39,10.04c0.44,3.07,0.84,6.16,1.03,9.25
		c0.29,4.61-0.02,9.22-1.49,13.61c-1.46,4.34-3.16,8.61-4.94,12.83c-2,4.73-3.93,9.48-5.08,14.51c-0.18,0.79-0.21,1.62-0.33,2.53
		c0.72,0.11,1.17,0.22,1.62,0.23c6.84,0.23,13.69,0.53,20.53,0.65c7.03,0.12,13.95,0.85,20.75,2.78c4.18,1.19,8.43,2.21,12.7,3.03
		c8.78,1.68,17.61,3.13,26.39,4.77c7.34,1.37,14.63,2.98,21.97,4.3c4.19,0.76,8.45,1.15,12.71,1.72c2.74-1.87,5.58-3.77,8.37-5.75
		c2.41-1.7,4.83-3.41,7.12-5.27c1.66-1.34,2.68-3.11,3.04-5.33c0.88-5.4,1.29-10.79,0.97-16.27c-0.35-5.98-0.59-11.98,0.73-17.9
		C139.43,50.72,140.13,47.86,140.86,44.77z M175.32,40.02c-0.69-2.73-1.89-4.35-3.36-5.76c-1.85-1.77-3.75-3.51-5.74-5.13
		c-0.59-0.48-1.56-0.66-2.36-0.68c-7.79-0.2-13.58,3.42-17.8,9.7c-4.29,6.38-5.87,13.69-6.39,21.2c-0.31,4.41-0.01,8.87,0.09,13.3
		c0.11,4.75-0.03,9.48-0.8,14.19c-0.95,5.8-3.17,11.21-4.97,16.75c-0.43,1.31-0.95,2.58-1.43,3.87c0.13-4.62,1.88-8.86,2.88-13.3
		c-3.64,2.63-7.17,5.16-10.68,7.72c-1.57,1.15-3.15,2.3-4.62,3.56c-2.24,1.92-4.38,3.93-6.09,6.4c-3.13,4.51-2.33,10.26,0.73,14.15
		c3.16,4.03,7.44,6.72,12.13,9.52c-0.74-3.95-2.28-7.07-4.6-9.86c3.35,1.57,4.66,4.63,5.81,7.77c1.28,3.48,1.67,6.96-0.8,10.25
		c0.38,0.08,0.61,0.18,0.82,0.15c5.69-0.88,10.79-2.9,14.63-7.44c0.62-0.73,1.12-1.67,2.63-1.62c-0.48,1.92-1.77,3.15-2.88,4.64
		c5.18,0.66,9.76-0.33,13.43-3.68c3.08-2.81,5.72-6.12,8.68-9.35c0.06,0.1-0.15-0.22-0.33-0.55c-3.81-7.04-3.64-14.12-0.24-21.26
		c1.37-2.87,2.81-5.73,3.88-8.72c1.24-3.48,1.47-7.12,0.89-10.82c-0.57-3.68-2.04-7-3.82-10.21c-1.35-2.45-2.85-4.83-4.12-7.32
		c-4.15-8.21-3.53-16.38,0.5-24.42c0.68-1.36,1.72-2.61,2.81-3.69c2.75-2.75,5.92-2.82,8.99-0.43
		C173.67,39.34,174.3,39.53,175.32,40.02z M165.33,71.61c0.21-1.46,0.34-2.51,0.5-3.56c0.34-2.25,0.9-4.43,2.19-6.34
		c1.71-2.54,4.22-3.51,7.09-2.5c1.59,0.56,3.18,1.33,4.52,2.33c4.82,3.57,8.06,8.33,10.27,13.88c0.75,1.87,0.46,3.28-0.93,4.59
		c-0.51,0.48-1.02,0.99-1.61,1.34c-2.39,1.41-4.82,2.77-7.46,4.28c0,0.25,0,0.88,0,1.62c-0.91-0.44-0.32-1.96-1.79-1.74
		c-0.07,0.38-0.1,0.83-0.23,1.24c-0.14,0.42-0.37,0.81-0.7,1.53c-0.12-1.19-0.19-1.94-0.27-2.69c-0.16,0-0.33,0.01-0.49,0.01
		c-0.23,0.69-0.45,1.39-0.68,2.08c-0.12-0.02-0.25-0.05-0.37-0.07c0-0.63,0-1.25,0-1.84c-1.71-0.38-3.24-0.73-4.95-1.12
		c0.52,5.58-0.06,10.85-2.47,15.83c0.87,0.55,1.51,0.98,2.17,1.37c11.8,7.06,23.98,6.62,36.32,1.67c1.69-0.68,3.3-1.77,4.67-2.99
		c5.1-4.55,7.43-10.51,7.88-17.16c0.44-6.39-0.12-12.73-1.81-18.96c-2.9-10.76-9.57-18.5-18.88-24.24c-1.04-0.64-2-0.63-3.09-0.22
		c-1.99,0.74-3.12,2.23-3.91,4.09c-0.25,0.58-0.23,1.44-1.46,1.3c-0.33-3.47,1.72-5.51,4.45-7.3c-5.85-2.77-11.22-3.3-16.33,1.13
		c-1.89,1.64-4.02,2.04-6.4,0.52c-2.09-1.33-4.44-0.99-6.2,0.79c-1.19,1.2-2.29,2.59-3.03,4.09c-1.85,3.74-2.74,7.77-2.75,11.95
		c0,0.45,0.21,0.91,0.29,1.2c1.58-1.84,2.93-3.77,4.64-5.32c2.98-2.71,6.54-4.17,10.67-3.9c1.74,0.11,3.24,0.7,4.44,2.75
		c-0.99-0.15-1.55-0.22-2.1-0.32c-2.22-0.4-4.47-0.97-6.68-0.07c-3.16,1.28-5.91,3.16-7.81,6.06c-0.98,1.49-1.83,3.05-2.74,4.57
		C161.26,65.11,162.83,68.35,165.33,71.61z M215.49,55.91c0.05,0.21,0.08,0.44,0.17,0.63c4.56,10.05,5.42,20.55,3.38,31.28
		c-1.71,9.01-6.55,15.5-15.71,18.17c-0.3,0.09-0.59,0.19-0.88,0.3c-0.46,0.18-0.92,0.37-1.56,0.63c4.2,2.2,8.3,2.78,12.61,1.45
		c1.48-0.46,2.99-0.9,4.51-1.19c1.37-0.26,2.77-0.41,4.16-0.42c3.65-0.02,7.31,0.18,10.96,0.08c2.89-0.08,5.55-1.12,8.18-2.63
		c-1.77-0.91-3.41-1.58-4.87-2.53c-3.03-1.97-4.79-4.78-4.2-8.48c0.43-2.74,1.18-5.46,2.05-8.11c1.05-3.17,2.45-6.22,3.57-9.38
		c4.06-11.5,1.59-21.69-6.3-30.76c-3.62-4.16-8-7.33-12.77-10.07c-6.39-3.66-13.63-5.16-20.3-8.11c-3.47-1.54-7.06-2.83-10.6-4.22
		c-2.09-0.82-4.15-1.84-6.32-2.32c-3.27-0.72-6.55-0.53-9.25,1.86c-2.14,1.89-3.49,4.29-4.43,6.92c1.73,1.52,3.54,2.8,4.95,4.43
		c1.43,1.66,2.47,3.66,3.76,5.61c2.48-2.68,5.52-4.19,9.22-4.23c2.78-0.03,5.37,0.74,7.89,1.83c7.11,3.09,13.05,7.81,18.56,13.16
		c7.28,7.08,12.27,15.44,14.14,25.51c0.44,2.4,0.79,4.81,1.19,7.22c-0.15,0.03-0.3,0.06-0.45,0.09c-1.32-4.68-2.47-9.41-4-14.02
		C221.53,63.86,218.93,59.61,215.49,55.91z M294,126.37c-4.39-1.29-8.54-2.53-12.71-3.69c-0.5-0.14-1.31-0.03-1.67,0.3
		c-3.32,3.04-6.91,5.81-9.45,9.64c-1.8,2.72-3.72,5.37-5.65,8.01c-0.65,0.88-1.38,1.64-0.44,2.78c-1.87,0.18-1.91,0.26-4.18-0.85
		c-10.73-5.26-22.34-8.07-33.5-12.14c-2.31-0.84-4.78-1.28-7.39-1.11c-0.97,7.93-0.08,15.71,0.74,23.62
		c0.98,0.34,1.91,0.7,2.87,0.99c9.98,2.99,19.98,5.92,30.32,7.38c4.22,0.59,8.5,0.84,12.77,1.07c2.2,0.12,4.28-0.36,5.83-2.28
		c0.97-1.2,2.28-2.12,3.31-3.28C282.82,147.84,289.47,138.05,294,126.37z M164.48,129.56c-0.8,0.69-1.17,0.97-1.49,1.3
		c-1.97,1.99-3.83,4.11-5.93,5.95c-2.86,2.51-6.14,4.19-10.1,4.28c-0.69,0.02-1.46,0.43-2.04,0.87
		c-6.24,4.65-12.46,9.33-18.06,14.76c-1.16,1.12-2.33,2.36-3.05,3.77c-3.17,6.27-2.35,12.17,2.02,17.63
		c9.49,11.85,19.35,23.38,30.22,34.01c1.7,1.66,3.5,3.21,5.32,4.88c1.17-5.7,2.26-11.1,3.38-16.5c0.27-1.31-0.38-2.14-1.17-3.09
		c-2.4-2.85-4.79-5.73-6.98-8.75c-2.01-2.77-3.63-5.81-5.63-8.59c-2.17-3.01-4.58-5.86-6.84-8.72c-0.92,0.39-1.53,0.64-2.11,0.89
		c-0.75-1.06,0.02-1.59,0.54-2.08c2.42-2.31,4.77-4.71,7.34-6.85c3.84-3.2,7.43-6.62,10.75-10.35c0.95-1.07,1.46-2.12,1.39-3.54
		c-0.2-4.37,0.24-8.7,1-13C163.43,134.29,163.93,132.18,164.48,129.56z M261.79,141.13c4.96-6.59,8.79-14.07,15.98-19.11
		c-0.81-0.34-1.2-0.58-1.63-0.67c-3.57-0.78-7.13-1.57-10.72-2.27c-8.01-1.58-16.05-3.03-24.04-4.7
		c-6.92-1.44-13.62-3.86-20.68-4.74c-0.7-0.09-1.35-0.6-2-0.9c-3.2,0.62-6.45,1.43-9.75,1.85c-3.43,0.44-6.42-1.49-9.72-2.63
		c0,2.28,0,4.27,0,6.33c2.49,1.88,5.21,3.68,5.46,7.12c1.27,0.55,2.38,1.09,3.52,1.52c1.73,0.65,3.49,1.24,5.24,1.84
		c1.89,0.65,3.9,1.01,5.38,2.59c0.35,0.38,1.11,0.42,1.69,0.54c2.81,0.58,5.68,0.95,8.43,1.74c4.93,1.41,9.8,3.04,14.68,4.63
		c2.66,0.86,5.32,1.75,7.93,2.74C254.9,138.29,258.19,139.67,261.79,141.13z M167.41,101.87c-6.11,7.39-6.02,18.85-1.35,23.99
		c2.2-0.28,4.26-0.63,6.33-0.79c2.38-0.18,4.17-1.5,5.98-2.81c0.32-0.23,0.61-0.78,0.58-1.16c-0.16-2.2,1.18-3.53,2.77-4.53
		c1.47-0.92,3.17-1.49,4.87-2.26c0-1.8,0-3.79,0-5.88C179.52,107.98,173.19,105.66,167.41,101.87z M200,194.91
		c-0.18-1.92-0.51-3.83-0.52-5.75c-0.03-5.21,0.31-10.4,1.2-15.56c0.82-4.75,1.65-9.52,1.22-14.36c-0.43-4.8-0.96-9.59-1.6-14.36
		c-0.51-3.73-1.8-7.23-3.74-10.48c-0.6-1-1.23-1.79-2.77-0.9c0.28,2.19,0.52,4.41,0.84,6.63c0.62,4.25,1.01,8.45-0.06,12.73
		c-0.67,2.7-0.64,5.52-0.41,8.35c0.2,2.53,0.07,5.13-0.26,7.66c-0.23,1.79-0.47,3.46,0.11,5.23c0.31,0.93,0.34,2,0.29,3
		C194,183.66,196.67,189.32,200,194.91z M174.8,125.69c-0.43,7.44-0.11,21.29,0.64,24.35c3.18,0.6,6.49,1.23,10.17,1.92
		c-0.12-2.27-0.13-4.2-0.33-6.11c-0.51-4.95,0.2-9.61,3.02-13.77c-0.17-1.16-0.33-2.29-0.45-3.08c-2.91-2.17-5.63-4.2-8.35-6.23
		C177.93,123.75,176.35,124.73,174.8,125.69z M179.39,74.21c1.56-1.7,1.75-3.5,0.44-5.47c-0.28-0.41-0.25-1.17-0.1-1.69
		c0.23-0.8,0.68-1.53,1.03-2.27c-2-2.11-3.75-3.28-5.78-3.89c-2.64-0.79-4.82-0.01-6.16,2.38c-0.6,1.07-1,2.28-1.32,3.47
		c-0.88,3.21-0.81,6.44,0.23,9.61c0.58,1.77,1.39,3.46,1.98,5.22c0.3,0.9,0.79,1.42,1.64,1.79c4.39,1.96,10.78,0.87,14.35-2.55
		C182.67,79.52,180.6,77.33,179.39,74.21z M192.35,133.15c-2.69-1-3.2-0.84-4.27,1.64c-1.35,3.13-1.91,6.42-1.48,9.8
		c1.2,9.47,0.99,18.91-0.47,28.33c-0.67,4.32-0.91,8.66-0.57,13.01c0.14,1.73,0.45,3.44,0.68,5.15c0.45-0.71,0.5-1.38,0.5-2.04
		c0-3.79,0.76-7.39,2.35-10.84c0.81-1.76,1.47-3.59,2.17-5.4c1.39-3.61,2.05-7.33,1.6-11.19c-0.44-3.75-0.04-7.42,0.55-11.12
		c0.35-2.2,0.41-4.49,0.24-6.71C193.37,140.22,192.8,136.69,192.35,133.15z M162.18,192.98c0.12-0.06,0.24-0.13,0.36-0.19
		c-0.03-0.36-0.05-0.72-0.1-1.08c-0.57-4.22-1.33-8.43-1.66-12.68c-0.46-5.97-0.09-11.95,0.61-17.91c0.22-1.88,0.2-3.78,0.29-5.8
		c-5.64,5.08-11.02,9.94-16.44,14.83c1.42,1.53,2.77,2.93,4.05,4.38c3.68,4.15,6.32,9.02,9.37,13.61
		C159.78,189.8,161.01,191.37,162.18,192.98z M160.88,236.09c3,0.94,5.54,0.95,8.08-0.15c1.98-0.85,3.55-2.03,3.74-4.33
		c0.36-4.4,0.65-8.8,0.96-13.09c-3.45-0.93-6.72-1.81-10.27-2.76C162.58,222.36,161.74,229.12,160.88,236.09z M228.6,429.51
		c1.01,1.5,2.4,2.14,4.03,2.12c2.8-0.04,5.59-0.21,8.39-0.31c2.95-0.11,5.89-0.19,8.84-0.3c1.54-0.05,3.1-0.02,4.36-1.21
		c-0.03-1.41-0.82-2.36-1.68-3.27c-2.17-2.32-4.95-3.6-7.96-4.09C236.83,421.2,232.08,422.83,228.6,429.51z M168.17,425.9
		c-0.55-1.34-0.93-2.53-1.51-3.62c-1.46-2.77-3.74-4.56-6.84-5.12c-5.08-0.92-9.52,0.58-13.39,3.87c-0.73,0.62-1.23,1.5-2.05,2.52
		C152.15,428.1,159.97,427.78,168.17,425.9z M227.59,220.72c-3.82,1.58-7.46,3.09-11.06,4.58c-0.04,0.35-0.11,0.58-0.08,0.8
		c0.53,4.57,2.95,8.13,6.19,11.18c0.68,0.64,1.78,1.07,2.72,1.13c1.83,0.11,3.68-0.13,5.61-1.09
		C229.84,231.72,228.71,226.17,227.59,220.72z M228.39,438.72c2.31-0.79,4.98,0.96,7.23-1.03c0.23-0.21,0.76-0.05,1.13-0.14
		c0.81-0.18,1.7-0.26,2.4-0.66c1.22-0.7,2.33-0.71,3.51-0.04c1.2,0.68,2.41,0.95,3.78,0.44c0.91-0.34,1.81-0.14,2.62,0.5
		c0.4,0.32,0.92,0.63,1.41,0.66c1.44,0.09,2.89,0.02,4.34,0.04c1.05,0.01,1.68-0.53,1.5-1.56c-0.31-1.8-0.75-3.59-1.1-5.2
		c-1.82,0.37-3.37,0.86-4.96,0.99c-2.77,0.22-5.56,0.19-8.35,0.32c-2.56,0.12-5.11,0.3-7.67,0.47c-2.78,0.19-5.23-0.47-7.1-2.7
		c-0.06-0.07-0.27-0.02-0.58-0.04C226.77,433.43,225.89,436.23,228.39,438.72z M179.2,161.85c-0.1,0.31-0.26,0.59-0.28,0.88
		c-0.3,4.73-0.61,9.46-0.83,14.2c-0.04,0.91,0.17,1.86,0.41,2.76c0.66,2.52,2.86,4.59,5.44,5.18c0.06-0.2,0.19-0.41,0.18-0.61
		c-0.41-5.95,0.55-11.8,1.23-17.67c0.16-1.36,0.02-2.75,0.02-4.12C183.28,162.26,181.28,162.06,179.2,161.85z M196.87,132.53
		c4.84,5.51,5.36,12.69,5.97,19.8c2.74-0.65,2.74-0.69,2.36-2.93c-0.24-1.45-0.47-2.92-0.52-4.39c-0.2-5.9-0.32-11.79-0.51-17.69
		c-0.04-1.09-0.28-2.18-0.45-3.42c-2.13,1.88-3.98,3.52-5.77,5.1C197.61,130.12,197.27,131.21,196.87,132.53z M188.07,108.56
		c-0.06,1.97-0.13,3.96-0.16,5.95c0,0.28,0.13,0.6,0.29,0.84c1.37,2.03,2.77,4.05,3.97,5.8c1.79-2.13,3.75-4.47,5.71-6.8
		c0-2.17,0-4.46,0-6.85C194.54,107.86,191.42,108.2,188.07,108.56z M168.66,427.53c-13.67,2.27-16.6,1.31-24.26-1.9
		c0,1.48,0,2.89,0,4.05c1.28,0.58,2.43,0.82,3.15,1.5c0.94,0.89,1.75,1.08,2.91,0.62c1.47-0.59,2.97-0.95,4.44,0.12
		c0.28,0.2,0.77,0.28,1.1,0.2c1.39-0.34,2.55-0.06,3.72,0.78c0.46,0.33,1.3,0.3,1.92,0.21c2.18-0.33,4.34-0.76,6.76-1.2
		C168.48,430.61,168.57,429.1,168.66,427.53z M254.97,426.75c-1.98-8.04-4.61-15.82-5.38-24.18c-1.59,1.91-2.15,5.36-1.3,7.11
		c-0.29,0.21-0.88,2.05-1.45,3.19c-0.83,1.69,0.67,2.42,1.43,3.75c-0.77-0.1-1.23-0.17-1.56-0.21c-1.19,1.28,0.39,1.56,0.76,2.36
		c-1.29,0.31-1.66,1.06-1.13,2.36C249.61,422.18,252.48,424.06,254.97,426.75z M192.37,126.49c-0.74-2.3-1.24-4.51-2.16-6.54
		c-2.03-4.49-3.57-5.09-8.23-1.78c-0.25,0.18-0.47,0.41-0.67,0.65c-1.01,1.17-1.18,2.02-0.07,3.06c2.18,2.06,4.12,4.46,6.65,5.71
		C189.45,127.21,190.77,126.88,192.37,126.49z M199.22,115.53c-4.69,2.74-6.79,7.1-5.56,11.08c1.24,0.55,2.48,1.11,3.73,1.67
		c1.64-1.55,3.29-2.96,4.77-4.54c1.49-1.59,1.8-3.36,0.75-4.62C201.79,117.78,200.41,116.67,199.22,115.53z M167.37,402.21
		c-1.98,1.58-1.98,1.58-2.09,4.99c0.56,0.24,1.15,0.5,2.04,0.88c-1.04,0.16-1.71,0.27-2.42,0.38c-0.12,0.77-0.22,1.44-0.31,2.05
		c0.81,0.5,1.49,0.92,2.17,1.33c-0.04,0.12-0.08,0.25-0.13,0.37c-0.71-0.05-1.42-0.09-2.08-0.13c-1.23,1.4,0.45,1.75,0.96,2.48
		c-2.2,1.09-2.18,1.39-0.42,2.95c1.03,0.92,1.9,2.03,2.77,3.11c0.45,0.55,0.75,1.2,1.12,1.81c0.36-1.41,0.42-2.7,0.35-3.99
		c-0.15-2.48-0.56-4.96-0.52-7.43c0.04-2.87,0.45-5.74,0.68-8.6c0.07-0.81,0.1-1.63,0.16-2.48c-1.41,0-2.53,0-3.71,0
		c-0.05,0.69-0.08,1.22-0.11,1.7C166.31,401.81,166.7,401.95,167.37,402.21z M202.86,165.17c-0.57,6.13-2.05,11.96-2.01,18.18
		c4.93-3.69,7.56-10.72,5.96-17.58C205.6,165.59,204.33,165.39,202.86,165.17z M151.07,411.04c-0.8-0.06-1.55-0.11-2.3-0.16
		c-0.01-0.12-0.01-0.24-0.02-0.36c0.74-0.34,1.48-0.68,2.3-1.05c-0.05-1.05-0.1-2.02-0.14-2.84c-0.97-0.45-2.04,0.16-2.48-1.01
		c0.85-0.11,1.67-0.22,2.4-0.31c0.66-2.08-0.94-2.65-2.13-3.79c-1.33,6.19-3.94,11.87-3.96,18.21c2.65-1.53,5.04-2.91,7.47-4.32
		c-0.17-0.48-0.35-0.97-0.56-1.53c-0.73,0-1.37,0-2.19,0C149.98,412.79,152.13,412.97,151.07,411.04z M236.63,420.79
		c-0.59-0.87-1.15-1.37-1.29-1.96c-0.22-1-0.18-2.06-0.24-3.05c-0.86-0.09-1.41-0.14-2.3-0.23c0.77-0.58,1.23-0.93,1.8-1.36
		c-0.63-0.89-0.01-2.48-1.92-2.37c0.27-0.64,0.49-1.15,0.85-2c-1.28,0.16-2.22,0.28-3.19,0.4c-0.04,0.51-0.12,0.82-0.08,1.11
		c0.62,4.52,0.15,8.81-2.7,12.59c-0.14,0.18-0.21,0.42-0.28,0.64c-0.32,0.92-0.54,1.85-0.01,3.09
		C229.71,424.3,232.33,421.6,236.63,420.79z M152.86,398.68c-0.14,1.25-0.29,2.24-0.34,3.24c-0.02,0.35,0.06,0.9,0.3,1.04
		c1.58,1.01,2.98,2.56,5.22,1.66c1.21-0.48,2.52-0.73,3.78-1.09c2.64-0.77,2.68-0.83,2.49-3.8
		C160.59,399.39,156.84,399.05,152.86,398.68z M233.15,404.21c0.42,1.42,0.78,2.66,1.23,4.19c1.22,0,2.48,0.21,3.65-0.04
		c2.67-0.59,5.33-0.73,8.15-0.29c0.41-1.65,0.79-3.2,1.18-4.76C242.59,403.61,238,403.9,233.15,404.21z M193.78,186.26
		c-0.46-3.87-0.9-7.55-1.33-11.23c-1.88,3.83-3.8,7.54-3.97,12.17C190.46,186.85,192.17,186.55,193.78,186.26z M235.89,413.94
		c3.33,0,6.32,0,9.39,0c0.06-0.49,0.13-1.1,0.22-1.89c-3.42-1.24-6.64-3.23-10.46-0.9C235.34,412.11,235.6,412.98,235.89,413.94z
		 M152.64,409.16c3.46,0.31,6.82,0.61,10.32,0.93c0.1-0.58,0.19-1.12,0.26-1.51c-1.98-0.58-3.8-0.98-5.51-1.65
		c-1.74-0.69-3.42-0.67-5.28-0.26c0,0.6-0.02,1.13,0.01,1.66C152.47,408.62,152.58,408.9,152.64,409.16z M189.49,127.82
		c-0.19,0.59-0.28,0.81-0.33,1.04c-0.44,2.14-0.03,2.69,2.08,2.82c0.85,0.05,1.7,0.11,2.56,0.15c1.43,0.07,2.6-0.6,2.78-1.56
		c0.15-0.85-0.55-1.67-2.17-2C192.83,127.96,191.19,127.97,189.49,127.82z M244.95,417.62c0.34-1.16,0.4-2.04-0.75-2.25
		c-2.57-0.47-5.16-0.81-7.89,0.11c0.27,0.85,0.52,1.62,0.68,2.14C239.78,417.62,242.3,417.62,244.95,417.62z M162.84,411.61
		c-3.35-0.58-6.62-0.95-10.06-0.93c0.06,0.69,0.11,1.12,0.14,1.49c3.29,0.33,6.43,0.64,9.64,0.96
		C162.65,412.66,162.73,412.22,162.84,411.61z M162.46,415.48c-0.03-0.27,0.02-0.64-0.09-0.69c-0.61-0.28-1.25-0.6-1.9-0.69
		c-2.35-0.3-4.69-0.93-7.2-0.41c0.05,0.59,0.09,1.02,0.11,1.32C156.46,415.17,159.35,415.32,162.46,415.48z M244.91,420.44
		c0.25-0.79,0.24-1.43-0.72-1.6c-2.27-0.4-4.49-0.18-6.67,0.38c0.08,1.19,0.7,1.25,1.47,1.23
		C240.9,420.41,242.82,420.44,244.91,420.44z M232.95,408.38c-0.33-1.45-0.65-2.83-0.98-4.29c-0.75,0.04-1.33,0.08-2.06,0.12
		c0.14,1.79,0.28,3.43,0.42,5.19C231.27,409.03,232.03,408.73,232.95,408.38z M159.13,405.67c0,0.19,0,0.37,0,0.56
		c1.41,0.36,2.82,0.73,4.41,1.14c0.16-1.19,0.28-2.06,0.44-3.23C162.13,404.72,160.63,405.2,159.13,405.67z M148.89,400.57
		c0.89,0.39,1.54,0.68,2.3,1.02c0.14-1.15,0.25-2.12,0.39-3.27c-0.68-0.16-1.29-0.31-2.01-0.48
		C149.33,398.8,149.13,399.6,148.89,400.57z M242.91,409.56c0.89,0.35,1.79,0.71,2.68,1.06
		C245.23,408.69,244.02,409.27,242.91,409.56z"/>
	<path class="st0" d="M603.54,190.32c-0.19,2.69,0.25,5.2,0.8,7.66c1.14,5.16,2.37,10.31,3.63,15.44c1.01,4.13,1.36,8.23,0.54,12.48
		c-0.33,1.69-0.12,3.6,0.32,5.29c1.2,4.66,2.78,9.23,3.96,13.9c0.74,2.92,1.03,5.96,1.52,8.94c0.48,2.91,1.08,5.81,1.43,8.74
		c0.69,5.87,1.34,11.75,1.84,17.64c0.73,8.61,1.16,17.24,2.03,25.83c0.41,4,1.4,7.96,2.4,11.87c1.59,6.23,2.25,12.53,2.22,18.95
		c-0.02,4.27,0.18,8.55,0.4,12.82c0.08,1.54,0.48,3.07,0.74,4.6c0.44,2.61,2,4.5,3.9,6.18c1.33,1.18,2.75,2.28,3.02,4.28
		c0.06,0.47,0.8,0.85,1.24,1.25c1.66,1.52,3.35,3.01,4.98,4.55c1.38,1.31,1.72,2.96,1.1,4.72c-0.71,2.03-1.55,4.02-2.3,5.93
		c1.93,2.38,4.01,4.79,5.92,7.33c1.77,2.34,1.26,3.49-1.67,4.16c-0.75,0.17-1.53,0.21-2.3,0.3c-0.67,0.08-1.35,0.13-2.18,0.21
		c-0.25,3.39-0.65,6.63-0.67,9.88c-0.01,1.49,0.55,3.07,1.17,4.46c0.79,1.77,1.88,3.4,2.87,5.07c1.35,2.27,2.81,4.49,4.1,6.79
		c1.59,2.85,2.23,5.93,2.14,9.21c-0.04,1.72-0.59,3.5,0.47,5.22c0.23,0.37-0.52,1.49-1,2.11c-0.35,0.45-1.18,0.54-1.52,1
		c-2.63,3.48-6.44,4.59-10.45,5.29c-1.62,0.28-2.44,0.96-2.39,2.58c0.05,1.55-0.62,2.23-1.97,2.7c-1.16,0.4-2.22,1.06-3.34,1.58
		c-0.35,0.16-0.72,0.34-1.09,0.36c-2,0.07-4,0.07-5.99,0.13c-0.61,0.02-1.29,0.02-1.83,0.26c-2.06,0.94-4.1,0.7-6.16,0.1
		c-0.98-0.29-1.9-0.59-2.93-0.05c-0.91,0.49-1.54-0.09-1.8-0.9c-1.01-3.09-2.09-6.17-2.89-9.32c-0.69-2.69-1.09-5.47-1.52-8.22
		c-0.71-4.56,0.58-8.62,3.22-12.32c1.38-1.95,3.23-3.34,5.54-4.41c-0.99-5.81-1.96-11.53-2.94-17.31c-2.82-0.38-5.4,0.29-8,0.61
		c-0.85,0.1-1.67,0.38-2.52,0.49c-1.47,0.19-2.11-0.37-1.83-1.85c0.47-2.52,1.12-5,1.69-7.5c0.08-0.37,0.16-0.74,0.26-1.21
		c-0.7-0.32-1.32-0.58-1.94-0.88c-3.52-1.72-5.33-5-4.55-8.81c0.49-2.42,1.3-4.79,2.13-7.13c0.4-1.15,0.55-2.14,0.2-3.36
		c-2.95-10.19-4.71-20.6-5.87-31.14c-1.2-10.91-3.45-21.65-6.18-32.29c-1.06-4.14-2.38-8.24-3.12-12.44
		c-1.03-5.81-2.94-11.38-4.34-17.09c-0.71-2.89-2-5.64-3.04-8.45c-0.16,0-0.32,0-0.48,0c-0.16,0.69-0.4,1.38-0.45,2.08
		c-0.41,6.23-1.56,12.34-2.84,18.43c-1.2,5.71-2.27,11.44-3.25,17.19c-1.46,8.51-2.76,17.04-4.18,25.55
		c-0.29,1.76-0.75,3.5-1.26,5.21c-1.92,6.44-2.58,12.94-1.4,19.6c0.7,3.95,0.49,7.92-0.18,11.85c-0.18,1.06-0.44,2.18-0.97,3.09
		c-1.02,1.74-2.1,3.38-2.56,5.43c-0.21,0.91-1.34,1.6-2.2,2.54c0.28,0.86,0.69,1.87,0.95,2.92c0.4,1.66,0.88,3.33,0.98,5.01
		c0.19,3.21-1.41,5.12-4.53,5.78c-0.38,0.08-0.76,0.14-1.38,0.25c-1.35,7.93-2.71,15.88-4.08,23.91c2.18,1.25,3.82,2.85,5.15,4.81
		c1.23,1.81,1.88,3.74,1.83,5.91c-0.02,0.62-0.09,1.24-0.08,1.87c0.03,1.9-0.22,3.74,0.29,5.71c0.51,1.95,0.12,4.18-0.1,6.26
		c-0.18,1.66-0.79,1.99-2.52,1.97c-0.38-0.01-0.81-0.08-1.14,0.06c-4.57,1.81-9.03,1.48-13.51-0.42c-1.16-0.49-2.57-0.38-3.87-0.53
		c-1.07-0.13-2.14-0.2-3.2-0.38c-1.12-0.18-2.24-0.43-3.34-0.7c-0.49-0.12-1.14-0.26-1.39-0.62c-1.26-1.8-2.42-3.67-3.62-5.51
		c-0.17-0.25-0.36-0.62-0.6-0.68c-2.37-0.55-3.08-2.97-4.81-4.25c-0.39-0.29-0.56-1.09-0.55-1.65c0.02-1,0.23-2,0.41-3
		c0.82-4.41,1.45-8.85,3.73-12.88c1.54-2.73,2.17-5.83,2.5-8.94c0.56-5.32,0.87-10.66,0.33-15.99c-1.29,0-2.45,0.1-3.58-0.02
		c-3.38-0.35-4.83-2.34-3.52-5.48c1.58-3.79,3.63-7.38,5.48-11.06c0.14-0.28,0.32-0.53,0.55-0.91c-1.69-3.66-0.8-7.19,0.83-10.69
		c0.44-0.96,0.63-2.04,0.85-3.09c0.35-1.67,0.55-3.38,0.97-5.04c1.32-5.23,1.49-10.45,0.25-15.72c-0.29-1.21-0.47-2.45-0.8-3.65
		c-1.4-5.13-0.86-10.13,0.58-15.18c1.16-4.03,2.15-8.12,2.91-12.24c0.69-3.74,0.83-7.58,1.49-11.32c0.98-5.58,2.3-11.1,3.31-16.68
		c0.76-4.2,1.24-8.45,1.89-12.68c1.22-8,2.34-16.01,3.78-23.97c0.72-3.97,2.09-7.81,3.09-11.73c1.5-5.9,2.43-11.9,2.73-17.97
		c0.41-8.34,2.04-16.52,3.24-24.75c0.47-3.23,1.2-6.43,1.57-9.67c0.23-2.04,0.01-4.13-0.01-6.74c-0.8,0.74-1.22,1.03-1.51,1.42
		c-1.04,1.36-2.06,2.74-3.04,4.14c-3.83,5.44-8.32,10.29-13.3,14.68c-4.78,4.22-10.47,6.65-16.62,8.07
		c-4.46,1.03-8.49-0.14-12.14-2.73c-1.45-1.03-2.85-2.16-4.2-3.33c-2.09-1.81-3.66-4.03-4.8-6.54c-3.8-8.44-7.78-16.81-10.64-25.63
		c-0.79-2.43-1.34-4.95-1.99-7.43c-0.57-2.18-1.13-4.36-1.74-6.75c-0.86-0.09-1.83-0.2-3.04-0.33c-0.27,2.91-0.53,5.66-0.79,8.52
		c-2.02,0.41-3.9,0.49-5.94-0.41c0-2.71,0-5.47,0-8.35c-2.15-0.14-3.62-1.17-4.81-2.69c-0.84-1.08-1.37-2.24-1.28-3.65
		c0.1-1.55,0.27-3.13-0.85-4.46c-0.05-0.06-0.06-0.14-0.09-0.21c-0.3-0.87,0-8.11,0.37-8.99c1.06-2.53,2.32-3.24,5.13-2.93
		c0.38,0.04,0.75,0.08,1.19,0.13c-0.57-1.23-1.12-2.32-1.58-3.45c-0.23-0.57-0.38-1.2-0.41-1.81c-0.15-3.17,1.45-4.24,4.38-2.76
		c0-1.01,0-1.93,0-2.96c-1.87-0.35-3.69-0.68-5.51-1.04c-2.12-0.41-2.17-0.48-2.17-2.53c-0.01-2.18,0-4.36,0-6.67
		c-0.18-0.05-0.45-0.19-0.73-0.21c-5.67-0.33-11.34-0.64-17.01-0.97c-2.72-0.16-3.63-0.86-4.17-3.5c-0.39-1.9-0.61-3.84-0.77-5.78
		c-1.25-15.72,0.96-30.75,9.03-44.58c1.61-2.75,3.33-5.44,5.07-8.12c0.58-0.89,1.38-1.64,2.16-2.56c2.31,2.07,4.23,4.17,5.8,6.57
		c8.53,13.06,14.64,27.09,16.79,42.65c0.59,4.31,0.7,8.68,1.02,13.03c0.04,0.54,0,1.09-0.08,1.63c-0.24,1.51-0.55,1.88-2.12,1.93
		c-1.94,0.06-3.89-0.08-5.83-0.1c-2.24-0.02-4.49-0.01-6.79-0.01c-0.33,2.34-0.63,4.64,0.13,7.09c1.41,0.31,2.83,0.64,4.26,0.95
		c0.23,0.05,0.53,0.18,0.68,0.08c2.14-1.39,3.98,0.2,5.93,0.59c0.6,0.12,1.19,0.32,2.09,0.57c-0.21,1.77-0.23,3.65-0.71,5.4
		c-0.49,1.8,0.12,2.95,1.35,4.1c3.07,2.88,6.08,5.8,9.1,8.72c2.03,1.96,3.42,4.24,3.2,7.35c3.21,0.85,4.87,3.39,6.5,5.97
		c5.55,8.82,11.11,17.64,16.67,26.46c0.03,0.04,0.13,0.04,0.35,0.11c1.98-2.28,4.05-4.59,6.04-6.96c4.1-4.89,8.1-9.85,11.63-15.19
		c3.22-4.87,7.68-8.54,12.49-11.79c1.79-1.21,4.03-1.53,5.64-3.1c0.35-0.34,1.2-0.23,1.81-0.21c1.14,0.05,2.12-0.24,3.02-0.98
		c1.9-1.56,4.05-1.84,6.37-1.08c1.54,0.5,3.09,0.97,4.87,1.53c0-1.64,0-3.29,0-4.95c0-1.7,0-3.41,0-5.11
		c-0.67-0.22-1.1-0.4-1.54-0.49c-7.01-1.43-12.81-5.09-17.93-9.9c-5.47-5.15-8.25-11.58-8.67-19.06c-0.05-0.85-0.06-1.71-0.09-2.57
		c-0.03-0.77-0.07-1.54-0.1-2.41c-2.37-0.37-4.32-1.39-5.74-3.27c-1.96-2.6-2-5.1-0.16-7.75c1.14-1.64,2.64-2.35,4.63-1.9
		c0.44,0.1,0.87,0.21,1.49,0.37c0.09-4.87-0.48-9.5-2.12-14.17c-1.22,0.84-2.28,1.62-3.38,2.32c-3.25,2.06-6.75,2.65-10.51,1.77
		c-7.52-1.75-12.05-8.7-9.85-16.14c1.95-6.6,5.68-12.33,11.34-16.42c2.15-1.56,4.88-2.33,7.36-3.44c0.48-0.22,1.01-0.33,1.78-0.57
		c-0.59-0.61-1.06-1.06-1.49-1.55c-1.25-1.45-1.43-2.72-0.25-4.21c0.79-1.01,1.84-1.92,2.96-2.56c3.16-1.81,6.66-2.56,10.26-2.87
		c0.61-0.05,1.22-0.09,1.83-0.13c-0.72-5.85,1.31-9.31,6.72-11.67c5.34-2.33,10.87-2.44,16.49-1.51c11.27,1.85,21,7.09,29.96,13.92
		c2.52,1.92,4.86,4.09,7.5,6.33c0.23-1.62-0.3-2.97-0.67-4.31c-0.43-1.57-1.07-3.1-1.44-4.68c-0.51-2.13,0.6-3.14,2.71-2.63
		c2.48,0.61,4.21,2.61,4.22,5.2c0.01,1.77-0.3,3.54-0.48,5.5c0.44-0.05,0.95-0.04,1.41-0.18c2.57-0.77,5.19-1.21,7.83-0.67
		c1.33,0.27,2.64,0.87,3.84,1.56c1.04,0.6,1.71,1.62,1.45,2.95c-0.25,1.29-1.35,1.73-2.4,1.91c-1.6,0.27-3.26,0.5-4.86,0.35
		c-2.15-0.2-4.26-0.77-6.39-1.2c-0.51-0.1-1.02-0.24-1.68-0.02c2.51,1.38,5.03,2.75,7.53,4.14c2.72,1.51,5.54,2.87,8.12,4.6
		c8.25,5.5,13.87,12.91,15.6,22.85c0.39,2.24,0.22,4.65-0.06,6.93c-0.36,2.93-3.82,5.77-7.28,5.07c-0.21-0.04-0.44-0.01-0.82-0.01
		c-0.27,2.26-0.46,4.48-0.81,6.68c-1.36,8.36-5.33,15.38-11.27,21.3c-1.25,1.25-2.73,2.34-4.27,3.21c-3.05,1.73-5.41,1.45-8.22-0.67
		c-1.03,0.89-1.97,1.97-3.15,2.62c-1.09,0.6-2.44,0.75-4.04,1.19c-4.08,6.47-10.27,10.99-17.72,14c0.37,4.26,0.73,8.39,1.14,13.06
		c1.11-1.06,1.96-1.72,2.62-2.53c3.11-3.87,8.13-1.96,9.43,1.58c0.54,1.46,1.43,1.96,2.79,2.35c3.38,0.95,4.56,2.3,4.59,5.82
		c0.02,2.13,0.85,3.42,2.5,4.58c2.77,1.95,4.87,4.58,6.71,7.4c1.48,2.28,2.87,4.63,4.29,6.96c2.48,4.08,5.38,7.82,8.88,11.08
		c1.53,1.43,3.03,2.9,4.65,4.46c2.27-3.89,4.38-7.77,5.76-11.98c1.46-4.48,3.4-8.69,6.37-12.38c0.88-1.09,0.66-2.98,2.42-3.24
		c0.56-3.32,1.59-6.17,4.82-7.82c-1.96-0.56-3.91-0.8-5.89-0.93c-1.78-0.12-3.6-0.14-5.33-0.5c-1.17-0.25-2.43-0.8-3.29-1.6
		c-3.71-3.46-5.54-7.8-4.56-12.83c1-5.11,2.4-10.14,3.76-15.16c0.7-2.59,1.46-3.02,4.22-3.07c1.24-0.02,2.5-0.06,3.74,0.05
		c4.69,0.44,9.33,0.15,13.95-0.64c4.63-0.8,9.19-0.12,13.67,0.83c7.23,1.53,14.49,1.89,21.82,1.21c0.15-0.01,0.31-0.02,0.47-0.03
		c3.78-0.19,5.03,1.1,5.34,4.86c0.28,3.48,0.14,7,0.22,10.5c0.06,2.45-0.45,4.78-1.25,7.08c-0.66,1.91-1.18,3.86-1.72,5.81
		c-0.52,1.88-1.1,2.36-3.12,2.47c-2.41,0.13-4.82,0.34-7.23,0.4c-1.16,0.03-1.73,0.56-1.96,1.58c-0.23,0.98-0.61,1.99-0.57,2.96
		c0.14,3.23-1.89,4.76-5.04,5.37c-1.04,0.2-1.79,0.63-2.64,1.2c-1.33,0.88-2.87,1.46-4.36,2.07c-1.36,0.56-2.79,0.97-4.15,1.53
		c-0.78,0.32-1.49,0.79-2.29,1.23c0.39,1.71,0.13,3.1-1.23,4.27c-0.52,0.45-0.68,1.36-0.92,2.08c-2.76,8.26-5.34,16.58-8.32,24.76
		c-1.96,5.4-4.38,10.65-6.81,15.86c-1.01,2.16-2.44,4.16-3.94,6.04c-2.11,2.65-5.04,3.34-8.21,2.45c-2.08-0.58-4.14-1.39-6.05-2.41
		c-5.28-2.83-10.5-5.77-15.68-8.77C607.72,193.29,605.74,191.8,603.54,190.32z M535.24,239.5c0.86,0.26,1.43,0.51,2.03,0.61
		c2.45,0.41,4.92,0.75,7.37,1.16c2.03,0.33,2.38,0.62,2.71,2.59c0.24,1.45,0.35,2.94,0.33,4.41c-0.06,4.54-0.88,8.91-2.52,13.21
		c-1.82,4.78-5.28,6.91-10.03,7.47c-1.44,0.17-2.92,0.03-4.54,0.03c-0.87,4.73-1.7,9.31-2.54,13.88c-0.22,1.22-0.37,2.47-0.69,3.67
		c-1.46,5.51-2.23,11.13-2.63,16.81c-0.08,1.08-0.17,2.18-0.43,3.23c-0.85,3.39-1.73,6.78-2.69,10.14
		c-1.2,4.19-1.66,8.38-0.61,12.67c0.42,1.74,0.75,3.5,1.13,5.25c0.88,4.08,1.02,8.18,0.29,12.29c-0.4,2.25-0.89,4.48-1.34,6.71
		c1.78-1.4,3.12-3.19,5.23-3.98c-1.27,1.8-2.68,3.45-4,5.16c-1.93,2.5-3.24,5.31-3.82,8.43c-0.68,3.61,0.82,6.33,4.33,7.47
		c1.83,0.59,3.79,0.94,5.71,1.07c2.56,0.18,5.13,0.08,7.7,0.05c2.39-0.03,4.62,0.49,6.75,1.55c1.11,0.56,2.22,1.2,3.4,1.52
		c1.25,0.34,2.58,0.43,3.89,0.47c0.83,0.02,1.51-0.47,1.62-1.39c0.23-1.85,1.22-3.31,2.23-4.81c0.5-0.75,0.76-1.71,0.93-2.61
		c0.81-4.16,0.71-8.34,0.23-12.55c-0.34-3-0.75-6.08-0.46-9.05c0.37-3.77,1.4-7.47,2.17-11.2c0.43-2.05,0.99-4.08,1.34-6.15
		c1.28-7.67,2.46-15.36,3.75-23.03c0.77-4.6,1.35-9.27,2.59-13.75c1.49-5.36,2.37-10.78,2.96-16.27c0.45-4.21,1.27-8.29,3.25-12.07
		c0.16-0.31,0.4-0.57,0.61-0.87c0.9,3.01,1.74,5.89,2.62,8.75c0.46,1.48,1.06,2.93,1.48,4.42c0.98,3.52,1.87,7.07,2.82,10.59
		c0.4,1.5,0.95,2.97,1.3,4.48c0.64,2.79,1.03,5.65,1.79,8.41c3.19,11.64,5.69,23.43,7.42,35.38c1.03,7.16,1.9,14.34,3.08,21.47
		c0.65,3.95,1.78,7.82,2.82,12.28c0.71-1.31,1.13-2.09,1.55-2.86c0.19,2.28-0.79,4.2-1.42,6.22c-0.81,2.59-1.5,5.22-2.23,7.83
		c-1.04,3.76,2.04,7.29,5.07,7.68c6.04,0.78,12.11,1.38,17.59-2.37c2.55-1.75,5.41-2.24,8.47-1.88c2.01,0.24,4.03,0.47,6.05,0.49
		c2.32,0.03,4.65-0.43,5.94-2.57c1.03-1.7,1.65-3.65,2.32-5.54c0.18-0.51,0.07-1.31-0.23-1.77c-1.49-2.3-3.52-4.05-5.82-5.59
		c-1.02,1.81-1.62,3.77-4.08,3.3c0-0.18-0.03-0.29,0.01-0.33c0.28-0.36,0.58-0.71,0.88-1.05c2.12-2.43,2.02-4.51-0.34-6.62
		c-0.35-0.31-0.73-0.59-1.06-0.91c-1.68-1.66-3.19-3.45-3.68-5.84c-0.41-1.98-0.88-3.97-1-5.98c-0.25-4.19-0.42-8.39-0.37-12.59
		c0.07-6.58-0.57-13.04-2.31-19.4c-1.26-4.58-2.32-9.18-2.6-13.97c-0.52-9.09-1.21-18.17-1.86-27.25c-0.16-2.22-0.44-4.42-0.67-6.71
		c-0.5,0.12-0.71,0.17-0.92,0.21c-6.78,1.47-13.03-0.55-15.81-7.32c-1.45-3.53-2.85-7.07-4.16-10.65c-0.87-2.36-1.17-4.83-0.75-7.36
		c0.3-1.78,1.16-3.03,3-3.44c0.99-0.22,1.98-0.41,2.96-0.64c3.16-0.74,6.32-1.49,9.68-2.28c-0.48-1.94-0.76-3.63-1.33-5.21
		c-1.03-2.86-1.34-5.76-0.68-8.71c0.65-2.89,0.35-5.74-0.24-8.57c-0.6-2.89-1.25-5.78-2.03-8.63c-2.2-8.09-3.51-16.26-2.98-24.69
		c0.1-1.54-0.16-3.1-0.31-4.65c-0.2-2.09-0.58-4.17-0.65-6.26c-0.11-2.87,0.09-5.76-0.01-8.64c-0.28-8.17-0.65-16.33-0.99-24.49
		c-0.02-0.54-0.1-1.08-0.17-1.62c-0.5-3.56-1.74-4.64-5.5-4.81c-1.26,3.92-2.52,7.84-4.81,11.33c-0.31,0.47-0.43,1.18-0.4,1.76
		c0.32,5.52,0.7,11.03,1.04,16.54c0.22,3.65,0.43,7.3,0.6,10.96c0.08,1.77-0.16,1.99-1.95,2.15c-0.54,0.05-1.09,0.04-1.63,0.05
		c-1.92,0.01-3.83,0-5.76,0c-0.36,3.11-0.7,6.01-1.05,9.02c0.76,0.09,1.36,0.22,1.97,0.23c1.63,0.03,3.27,0,4.9,0.02
		c2.12,0.03,3.17,0.94,3.46,3c0.08,0.54,0.06,1.09,0.06,1.63c0.01,5.02-0.87,9.91-2.32,14.7c-1.4,4.64-3.28,8.95-8.45,10.81
		c0,1.7,0.23,3.38-0.04,4.96c-0.85,4.97-1.89,9.92-2.87,14.87c-0.09,0.43-0.35,0.83-0.55,1.24c-0.02,0.04-0.13,0.06-0.2,0.06
		c-0.08,0-0.15-0.03-0.51-0.12c-0.24-7.55-1.27-15.05-4.68-21.73c-2.83-0.75-5.5-1.45-8.28-2.18c-1.91,2.7-3,5.83-3.78,9.1
		c-1.13,4.77-3.47,8.97-6.12,13.03c-0.25,0.38-0.74,0.6-1.35,1.06c-0.06-0.65-0.17-0.96-0.11-1.23c0.72-3.26,1.43-6.52,2.21-9.76
		c1.03-4.31,2.12-8.6,3.19-12.9c0.2-0.81,0.62-1.56-0.25-2.33c-2.44-2.17-3.17-5.05-3.31-8.2c-0.23-5.29,0.93-10.36,2.37-15.39
		c0.65-2.26,0.91-2.35,3.34-2.17c1.43,0.11,2.89,0.65,4.39,0c-0.3-2.44-0.6-4.82-0.91-7.4c-0.92,0-1.75,0.01-2.58,0
		c-3.46-0.07-3.7-0.32-4.14-3.8c-0.98-7.67-1.46-15.34,0.18-22.99c0.11-0.5-0.13-1.22-0.45-1.64c-2.06-2.68-4.2-5.31-6.28-7.92
		c-0.28,0.55-0.67,1.33-1.07,2.12c-0.18-0.05-0.35-0.1-0.53-0.14c0.48-3.27,0.96-6.54,1.47-9.98c-0.71-0.05-1.35-0.1-1.96-0.14
		c-1.83,5.19-3.31,15-2.97,20.83c0.28,4.81,0.82,9.61,1.15,14.42c0.23,3.33,0.54,6.69,0.36,10.01c-0.19,3.56-0.93,7.09-1.41,10.64
		c-0.9,6.71-2.12,13.39-2.6,20.13c-0.72,10.07-2.37,19.92-5.39,29.54C535.73,237.12,535.55,238.2,535.24,239.5z M580.5,22.14
		c-0.02,0.23-0.04,0.47-0.05,0.7c-0.92,0-1.84-0.01-2.76,0c-6.73,0.11-13.33-1.07-19.95-2.03c-4.87-0.71-9.59-2.01-13.66-5.02
		c-0.56-0.42-1.44-0.59-2.17-0.58c-3.96,0.02-7.7,1-11.14,3c-0.66,0.39-1.3,0.88-1.81,1.45c-1.04,1.18-1.03,2.27,0.2,3.23
		c0.96,0.75,2.1,1.52,3.25,1.7c2.12,0.32,4.31,0.24,6.48,0.28c0.86,0.01,1.72-0.1,3.02-0.18c-0.57,0.51-0.71,0.72-0.9,0.79
		c-2.69,0.9-5.42,1.3-8.27,0.92c-0.89-0.12-1.85-0.1-2.73,0.08c-10.4,2.09-15.96,9.43-19.51,18.59c-1.76,4.53-0.76,9.1,2.9,12.45
		c3.63,3.32,8.17,3.97,12.66,2.08c5.19-2.18,8.77-6.22,11.29-11.36c-0.85-0.38-1.61-0.62-2.25-1.04c-1.35-0.89-2.83-1.7-3.93-2.86
		c-2.49-2.63-2.47-6,0.04-8.59c3.16-3.26,7.06-4.74,11.63-4.12c0.37,0.05,0.7,0.33,1.05,0.51c-0.47,0.31-0.83,0.31-1.2,0.27
		c-3.97-0.36-7.37,0.97-10.23,3.63c-2.65,2.47-2.69,5.82,0.08,8.14c1.51,1.26,3.39,2.27,5.27,2.84c5.05,1.54,10.24,1.81,15.47,0.82
		c9.38-1.77,17.98-5.42,25.96-10.61c1.14-0.74,2.3-1.45,3.46-2.17c0.11,0.15,0.21,0.29,0.32,0.44c-1.88,1.51-3.76,3.02-5.69,4.58
		c0.61,1.29,1.6,1.85,2.82,1.87c1.23,0.02,2.5-0.04,3.7-0.3c5.66-1.23,10.51-4.2,15.31-7.25c1.28-0.81,2.51-1.69,3.76-2.54
		c-0.02,0.75-0.26,1.3-0.69,1.63c-3.56,2.82-5.46,6.75-7.07,10.81c-0.76,1.93-1.22,4.02-1.48,6.08c-0.14,1.15,0.2,2.49,0.7,3.57
		c0.8,1.73,2.11,2.21,3.88,1.5c1.21-0.48,2.35-1.21,3.41-1.98c2.44-1.77,4.11-4.22,5.73-6.7c0.3-0.45,0.66-0.86,0.99-1.29
		c-0.9,4.98-4,8.32-7.95,10.96c1.04,6.29,0.97,12.53,0.62,18.73c-0.27,4.79-1.02,9.59-1.97,14.3c-0.57,2.84-0.9,5.66-1.02,8.53
		c-0.02,0.6,0.01,1.3,0.3,1.8c0.26,0.46,0.86,0.96,1.36,1.02c2.09,0.21,4.62-2.71,4.19-4.8c-0.56-2.76,0.01-5.41,0.61-8.07
		c0.1-0.44,0.45-0.81,0.68-1.22c0.21,1.19,0.14,2.28-0.05,3.33c-0.45,2.42,0.17,4.72,0.82,6.98c0.34,1.18,1.43,1.79,2.68,1.96
		c1.51,0.2,2.97-0.01,4.27-0.83c1.05-0.66,2.11-1.35,3.01-2.2c7.52-7.09,11.74-15.75,12.4-26.11c0.12-1.84-0.23-3.31-1.74-4.54
		c-1.3-1.06-2.2-2.47-2.53-4.19c1.88,1.3,3.57,2.76,5.35,4.11c1.76,1.33,3.11,1.24,4.87-0.11c1.48-1.14,1.99-2.73,2.06-4.51
		c0.22-5.94-1.94-11.12-5.2-15.91c-4.01-5.89-9.58-9.9-15.84-13.11c-3.25-1.67-6.4-3.53-9.56-5.37c-1.24-0.72-2.65-1.33-2.75-3.14
		c-0.02-0.37-0.54-0.73-0.88-1.05c-7.62-7.15-16.08-13.03-25.83-16.9c-6.29-2.5-12.8-3.94-19.62-3.31
		c-3.94,0.37-7.65,1.45-10.59,4.32c-3.62,3.54-3.02,7.52,1.43,9.79c4.01,2.04,8.32,3.02,12.74,3.59c5.94,0.77,11.89,1.44,17.84,2.17
		C578.91,21.79,579.7,21.99,580.5,22.14z M575.98,40.83c-5.76,3.23-11.57,5.75-17.92,7.4c0.6,1.14,0.97,2.16,1.61,2.97
		c0.61,0.77,1.26,1.45,0.93,2.47c-0.37,1.17-1.35,1.77-2.48,1.82c-1.31,0.06-2.62-0.16-3.94-0.22c-1.16-0.06-2.38-0.31-3.46-0.03
		c-1.33,0.34-2.52,1.16-3.8,1.73c-1.48,0.65-2.94,1.5-4.5,1.81c-2.06,0.41-3.09-0.86-2.61-2.91c0.44-1.89,1.54-3.38,2.98-4.64
		c0.55-0.48,1.08-1,1.75-1.62c-2.05-0.36-3.8-0.66-5.35-0.93c-1.9,2.72-3.71,5.32-5.62,8.04c0.03,0.12,0.12,0.42,0.2,0.71
		c1.68,6.35,2.68,12.77,2.25,19.38c-0.21,3.18-0.26,6.38-0.31,9.57c-0.06,4.32,0.44,8.57,2.24,12.54
		c4.66,10.29,13.25,15.85,23.78,18.07c10.15,2.13,19.6-0.64,27.96-6.81c2.78-2.05,5.07-4.59,6.94-7.5c0.52-0.81,0.84-1.52,0.43-2.59
		c-0.34-0.88-0.31-1.99-0.16-2.96c0.63-4.14,1.36-8.26,2.05-12.39c1.35-8.11,1.12-16.28,0.86-24.45c-0.03-1.07-0.28-2.12-0.44-3.28
		c-0.47,0.08-0.76,0.12-1.05,0.17c-2.5,0.44-3.99-0.22-5.31-2.36c-1.13-1.83-1.23-3.82-0.89-5.86c0.53-3.18,1.67-6.14,3.27-8.94
		c0.36-0.62,0.66-1.28,1.21-2.37c-1.7,0.96-2.9,1.66-4.12,2.33c-2.96,1.6-6.04,2.87-9.37,3.43
		C580.36,43.86,577.84,43.52,575.98,40.83z M509.43,167.81c-0.93-1.46-1.91-3.13-3.03-4.7c-4.24-5.96-8.24-12.07-11.8-18.47
		c-1.36-2.44-2.98-4.74-4.61-7.01c-1.16-1.61-2.48-2.11-3.79-1.48c-3.77,1.78-7.09,4.17-9.77,7.41c-0.63,0.76-0.86,1.58-0.58,2.6
		c2.29,8.33,4.86,16.55,8.37,24.46c1.48,3.34,2.99,6.67,4.43,10.03c1.08,2.52,2.34,4.9,4.17,6.97c2.17,2.45,5,3.9,7.83,5.38
		c3.34,1.76,6.81,2,10.41,0.99c6.02-1.7,11.38-4.55,15.83-9.02c4.23-4.25,8.26-8.67,11.75-13.57c1.3-1.83,2.87-3.47,4.24-5.26
		c0.39-0.5,0.76-1.2,0.74-1.8c-0.06-2.02-0.2-4.04-0.47-6.04c-1.05-7.64-0.61-15.2,1-22.71c0.17-0.78,0.28-1.57,0.49-2.76
		c-1.18,0.65-1.95,1.01-2.65,1.47c-4.79,3.14-9.11,6.83-12.29,11.63c-4.31,6.51-9.43,12.36-14.54,18.22
		c-2.92,3.34-5.88,6.64-7.94,10.63c-0.31,0.61-0.83,1.12-1.25,1.67c-0.3-0.6-0.33-1.02-0.18-1.34
		C506.94,172.73,508.13,170.39,509.43,167.81z M601.22,141.62c0,1.4-0.03,2.23,0,3.05c0.3,8.47,0.59,16.94,0.93,25.41
		c0.08,1.93,0.33,3.86,0.49,5.79c0.21,2.47,0.55,4.95,0.58,7.43c0.07,4.8,0,4.8,3.93,7.58c0.19,0.13,0.39,0.26,0.58,0.4
		c6.46,4.5,13.55,7.92,20.44,11.68c1.67,0.91,3.65,1.26,5.52,1.77c1.28,0.35,2.38-0.07,3.45-0.92c2.4-1.9,3.97-4.4,5.2-7.08
		c2.33-5.09,4.72-10.17,6.66-15.41c3.12-8.45,5.88-17.04,8.83-25.55c0.29-0.84,0.73-1.66,1.28-2.35c0.92-1.15,1.04-1.71,0.05-2.83
		c-0.51-0.57-1.12-1.11-1.79-1.47c-2.55-1.33-5.11-2.64-7.72-3.83c-1.81-0.83-3.77-0.98-5.71-0.52c-0.56,0.13-1.26,0.4-1.55,0.84
		c-2.66,4.01-5.33,7.99-6.98,12.61c-1.35,3.79-3.23,7.39-4.89,11.06c-0.53,1.18-1.13,2.33-1.63,3.35c1.55,2.42,3.4,4.34,4,6.98
		c-0.87-0.71-1.58-1.51-2.26-2.34c-2.69-3.27-5.4-6.49-8.63-9.27c-3.26-2.81-5.97-6.12-8.22-9.8c-1.38-2.26-2.69-4.56-4.16-6.75
		s-3.01-4.35-4.68-6.39C604,143.88,602.73,142.98,601.22,141.62z M690.29,132.18c0.86-2.75,1.58-5.29,2.45-7.77
		c0.87-2.47,1.06-5,1.01-7.59c-0.06-2.94,0.02-5.89-0.14-8.83c-0.17-3.1-1.02-3.71-3.69-3.47c-0.23,0.02-0.47,0.03-0.7,0.06
		c-7.72,0.84-15.36,0.45-22.97-1.23c-4.48-0.99-9.08-1.5-13.68-0.61c-4.09,0.79-8.18,0.87-12.32,0.51c-1.62-0.14-3.27-0.05-4.9-0.06
		c-1.17-0.01-1.86,0.51-2.12,1.71c-1.17,5.31-2.45,10.61-3.56,15.93c-0.73,3.5,0.44,6.6,2.52,9.39c1.38,1.85,3.18,2.79,5.56,2.93
		c6.13,0.37,12.25,0.89,18.38,1.37c0.62,0.05,1.24,0.15,1.84,0.29c2.25,0.51,4.47,0.34,6.71-0.11c2.21-0.44,4.43-0.94,6.66-1.14
		c5.11-0.47,10.23-0.78,15.35-1.14C687.86,132.33,689.02,132.26,690.29,132.18z M452.43,35.86c-6.94,9.77-12.01,20.32-13.99,32.19
		c-1.56,9.36-1.32,18.7,0.53,27.93c6.14,0.85,32.56,1.53,34.94,0.95C476.34,81.47,464,46.22,452.43,35.86z M612.56,414.11
		c2.01,0.11,3.75-0.02,5.39,0.33c4.99,1.08,7.87,4.71,10.21,8.89c0.07,0.13,0.12,0.29,0.14,0.44c0.11,0.74-0.48,1.26-1.13,0.91
		c-0.53-0.29-1-0.74-1.38-1.2c-0.79-0.96-1.47-2.02-2.27-2.96c-3.86-4.54-9.63-5.44-14.16-2.1c-2.95,2.17-4.69,5.23-5.26,8.8
		c-0.65,4.06,0.16,8.03,1.28,11.95c0.29,1.01,0.9,1.37,1.85,1.39c2.09,0.04,4.19,0.19,6.28,0.09c2.64-0.12,5.27-0.4,7.9-0.66
		c2.76-0.27,5.32-1.08,7.5-2.9c0.53-0.44,1.1-0.9,1.73-1.12c4.14-1.48,8.55-2.33,11.95-5.45c0.28-0.25,0.66-0.43,1.02-0.55
		c1.29-0.43,1.64-1.39,1.39-2.58c-0.42-1.97-0.63-4.06-1.48-5.83c-1.51-3.14-3.3-6.17-5.22-9.08c-2.5-3.77-3.98-7.71-3.37-12.3
		c0.29-2.22,0.42-4.46,0.62-6.64c-3.11-1.13-4.94-0.97-7.44,0.66c-1.17,0.76-2.3,1.59-3.44,2.42c-1.83,1.32-3.85,2.02-6.12,1.89
		c-1.47-0.08-2.94-0.22-4.41-0.38c-1.44-0.15-2.87-0.35-4.33-0.53C610.77,403.29,611.67,408.71,612.56,414.11z M545.41,391.4
		c-2.05-1.15-4.06-2.3-6.08-3.42c-1.79-0.99-3.7-1.73-5.76-1.63c-2.9,0.14-5.55-0.48-7.95-2.13c-1.29-0.89-2.49-0.8-3.88,0.07
		c-1.51,0.94-1.74,2.1-1.6,3.71c0.51,5.99,0.24,11.96-1.04,17.85c-0.75,3.45-2.22,6.61-3.69,9.79c-1.78,3.85-1.21,6.56,1.81,9.48
		c0.73,0.7,1.39,1.47,2.11,2.17c1.48,1.44,2.89,2.97,4.49,4.26c3.1,2.5,6.84,3.18,10.7,3.48c4.54,0.35,8.98-0.07,13.58-1.65
		c0-2.62,0.05-5.17-0.01-7.73c-0.1-3.99-3.47-8.06-7.35-8.93c-6.32-1.41-11.48,0.52-15.58,5.47c-0.37,0.45-0.75,0.88-1.11,1.3
		c-1.16-0.75-0.62-1.4-0.13-2.03c3.83-4.84,8.73-7.35,15.01-6.82c0.83,0.07,1.65,0.15,2.43,0.22
		C542.73,406.9,544.07,399.17,545.41,391.4z M573.88,149.7c3.29-5.9,4.73-12.28,6.4-18.57c0.12-0.44,0.1-0.93,0.06-1.38
		c-0.21-2.86-0.42-5.73-0.69-8.59c-0.12-1.3-0.38-2.58-0.62-4.11c-5.15,1.38-10.21,2.26-15.51,1.56c0,1.88-0.01,3.5,0,5.12
		c0.02,3.24-0.29,6.52,1.32,9.56c0.32,0.6,0.37,1.34,0.53,2.02c0.64,2.72,1.22,5.45,1.92,8.16c0.56,2.17,1.23,4.31,2.62,6.23
		C571.24,149.7,572.55,149.7,573.88,149.7z M549.41,377.72c-2.19-0.77-4.13-1.19-5.81-2.11c-3.06-1.68-6.25-2.25-9.67-1.96
		c-0.93,0.08-1.87,0.07-2.8,0.06c-4.38-0.07-8.67-0.48-12.55-3.44c-1.81,3.88-3.62,7.57-5.25,11.34c-0.81,1.88-0.05,2.96,1.99,3.2
		c1.79,0.21,3.33-0.44,4.75-1.54c3-2.34,3.99-2.41,7.34-0.44c1.52,0.89,3.11,1.38,4.87,1.34c3.54-0.08,6.73,0.94,9.63,2.98
		c0.88,0.62,1.88,1.11,2.88,1.5c1.77,0.68,3.67,1.2,5.32-0.12c1.71-1.38,1.36-3.39,0.96-5.21
		C550.65,381.35,549.94,379.45,549.41,377.72z M553.88,229.44c1.86-3.05,3.13-5.97,3.88-9.07c1.14-4.69,3.12-8.93,5.98-12.8
		c2.47-3.33,4.53-6.9,5.84-10.85c0.46-1.38,0.77-2.85,0.93-4.3c0.51-4.87,1.01-9.75,1.34-14.63c0.26-3.87,0.41-7.76,0.36-11.64
		c-0.04-2.8-0.71-5.53-1.97-8.11c-1.25-0.18-2.46-0.35-3.73-0.53c-0.28,0.56-0.53,1.04-0.74,1.53c-0.18,0.43-0.34,0.87-0.47,1.32
		c-1.84,6.14-2.19,12.36-1.1,18.69c1.43,8.27,0.56,16.24-3.06,23.9c-1.32,2.78-2.34,5.73-3.3,8.66
		C555.96,217.29,554.24,223.03,553.88,229.44z M614.87,267.52c-0.26-1.77-0.51-3.45-0.76-5.12c-0.36-2.46-1.04-4.92-1.03-7.37
		c0.02-5.43-2.18-10.21-3.65-15.17c-3.9,0.91-7.6,1.75-11.28,2.65c-2.31,0.56-2.74,1.13-2.86,3.54c-0.03,0.62-0.02,1.26,0.11,1.85
		c1.27,5.57,3.47,10.78,6.17,15.78c1.07,1.99,2.82,3.29,5.08,3.8C609.26,268.07,611.87,268.37,614.87,267.52z M597.25,396.72
		c5.43-1.28,10.26-1.95,15.19-1.08c1.68,0.3,3.38,0.51,5.08,0.74c2.09,0.29,4.02-0.14,5.78-1.31c1.29-0.86,2.6-1.71,3.89-2.59
		c2.41-1.64,5.01-1.99,7.79-1.22c2.39,0.66,4.71,0.2,7.31-0.38c-1.83-2.91-3.79-5.39-6.16-7.52c-0.31-0.28-1.08-0.37-1.46-0.19
		c-3.06,1.49-6.28,1.15-9.4,0.6c-3.86-0.68-7.24,0.08-10.38,2.31c-2.03,1.44-4.34,2.08-6.81,2.1c-2.79,0.03-5.57,0.01-8.57,0.01
		C598.76,390.99,598.06,393.64,597.25,396.72z M576.68,228.24c0.2-0.59,0.3-0.85,0.37-1.11c1.85-7.13,1.91-14.35,0.67-21.53
		c-1.27-7.34-1.04-14.55,0.81-21.74c1.02-3.95,1.43-7.96,1.19-12.02c-0.26-4.41-1.21-8.59-3.83-12.3c-1.09-1.54-2.27-2.25-4.14-1.43
		c0.06,0.3,0.07,0.62,0.18,0.9c1.68,4.38,1.99,8.95,1.75,13.55c-0.15,2.94-0.71,5.87-0.88,8.81c-0.49,8.46-0.92,16.93-1.29,25.4
		c-0.12,2.74,0.43,5.4,1.47,7.97c1.58,3.9,3.07,7.83,3.27,12.1C576.25,227.21,576.45,227.56,576.68,228.24z M679.12,134.7
		c-1.11,0.09-2.18,0.28-3.24,0.26c-4.7-0.08-9.26,0.95-13.82,1.87c-1.66,0.33-3.16,0.47-4.76,0.05c-2.76-0.72-5.54-0.69-8.3-0.03
		c-3.36,0.8-4.86,2.64-5.13,6.4c3.44-0.92,6.41,0.41,9.32,1.93c2.39,1.25,4.74,2.59,6.98,3.82c2.31-0.91,4.55-2,6.92-2.66
		c1.92-0.53,3.64-1.19,5.13-2.54c0.8-0.73,1.6-1.48,3.05-1.11c1.18,0.29,2.72-1.18,2.98-2.47
		C678.59,138.42,678.82,136.6,679.12,134.7z M568.13,150.18c-0.85-2.7-1.74-5.26-2.46-7.87c-0.62-2.24-1.19-4.52-1.54-6.82
		c-0.62-4.08-2.89-6.12-6.92-7.04c-4.35-0.99-8.65,3.05-7.34,7.43c0.7,2.34,1.75,4.5,3.36,6.33c2.05,2.34,4.2,4.59,6.29,6.88
		c1.45,1.58,2.89,3.17,4.26,4.68C565.37,152.45,566.8,151.27,568.13,150.18z M534.82,241.65c-1.27,8.51-2.52,16.95-3.81,25.61
		c1.56-0.16,2.8-0.23,4.01-0.43c3.97-0.65,6.98-2.49,8.09-6.64c0.2-0.74,0.59-1.44,0.82-2.17c1.5-4.72,1.8-9.54,1.15-14.51
		C541.69,242.89,538.43,242.3,534.82,241.65z M578.49,153.26c3.85-2.94,6.64-6.65,9.39-10.41c2.05-2.8,3.28-5.98,4.31-9.23
		c0.34-1.07,0.43-2.32,0.24-3.42c-0.52-2.9-4.16-4.88-6.16-3.24c-2.55,2.09-5.05,4.29-5.57,7.98c-0.57,4.08-1.93,7.98-3.75,11.69
		c-0.6,1.23-1.12,2.49-1.65,3.67C576.42,151.33,577.38,152.23,578.49,153.26z M575.84,157.62c1.93,2.28,3.3,4.64,3.92,7.32
		c0.63,2.7,1,5.46,1.51,8.33c2.67-0.1,5.34,0.67,8.11-0.15c-0.58-9.05-1.15-17.99-1.74-27.18c-0.48,0.39-0.69,0.51-0.82,0.68
		c-2.14,2.79-4.5,5.36-7.35,7.45c-0.36,0.26-0.8,0.65-0.86,1.04C578.39,156.63,577.17,157.01,575.84,157.62z M472.83,118.47
		c-0.66,7.76-0.84,15.6-1.06,23.57c1.16,0.23,2.12,0.41,3.06,0.6c2.71-2.96,5.62-5.48,9.05-7.37c1.75-0.96,2.16-1.93,1.49-3.78
		c-0.34-0.93-0.82-1.9-1.49-2.59c-3.47-3.55-7.02-7.01-10.54-10.49C473.3,118.37,473.19,118.42,472.83,118.47z M579.56,185.68
		c-2.01,6.89-1.51,16.02,0.22,23.27c0.62-0.2,1.22-0.39,1.93-0.62c-0.01,1.62-3.03,1.56-1.5,3.82c0.8-0.55,1.82-0.95,2.36-1.7
		c1.22-1.68,2.46-3.42,3.22-5.33c0.92-2.29,1.56-4.74,1.94-7.17c0.53-3.36,0.78-6.77,0.99-10.17c0.1-1.57-0.36-2.05-1.57-2.09
		C584.67,185.63,582.2,185.68,579.56,185.68z M629.97,438.76c-2.18,0.86-4.08,1.74-6.06,2.33c-1.39,0.41-2.9,0.5-4.37,0.6
		c-3.56,0.24-7.13,0.43-10.7,0.55c-1.04,0.04-2.08-0.22-3.31-0.36c0.88,2.35,1.66,4.44,2.32,6.2c1.52,0.19,2.75,0.25,3.94,0.52
		c1.78,0.4,3.49,0.65,5.25-0.12c0.62-0.27,1.36-0.31,2.05-0.34c2-0.09,4-0.11,6-0.17c0.22-0.01,0.46-0.07,0.66-0.17
		c1.47-0.67,2.93-1.36,4.4-2.04C630.72,443.39,630.77,441.04,629.97,438.76z M461.9,127.6c1.23-0.15,2.04-0.17,2.81-0.37
		c1.26-0.32,2.57-0.6,3.69-1.21c1.03-0.56,1.01-1.61,0.03-2.27c-1.75-1.18-3.59-2.18-5.83-2.08c-2.41,0.1-3.48,0.75-3.86,3.17
		c-0.35,2.19-0.26,4.44-0.32,6.67c-0.01,0.29,0.15,0.61,0.32,0.86c0.89,1.29,0.95,2.74,0.99,4.24c0.11,4.35,3.24,5.74,6.74,5.55
		c0.49-0.03,1.11-0.76,1.38-1.31c0.39-0.8-0.26-1.38-0.93-1.6c-0.95-0.31-1.98-0.38-2.96-0.59c-0.46-0.1-0.91-0.28-1.36-0.43
		c0.51-0.5,0.99-0.67,1.47-0.67c0.7,0,1.39,0.16,2.09,0.16c1.56,0.01,2.44-0.77,2.5-2.15c0.05-1.05-0.42-1.5-2-1.79
		c-0.61-0.11-1.24-0.13-1.86-0.18c-0.73-0.05-1.46-0.07-2.38-0.11c0.68-1.26,1.56-0.96,2.38-0.99c1.3-0.04,2.66,0.01,3.88-0.37
		c1.22-0.37,1.25-1.53,0.23-2.34c-0.96-0.76-2.07-0.96-3.29-0.95C464.49,128.86,463.25,129.19,461.9,127.6z M565.08,157.06
		c-2.73-2.92-5.34-5.72-8.3-8.9c-1.42,8.83-1.09,17.04,0.35,25.32c1.76,0.27,3.33,0.47,4.95-0.16
		C562.1,167.68,563.01,162.28,565.08,157.06z M563.29,184.25c-2.17-0.21-4.21-0.4-6.42-0.62c-0.7,3.59-1.44,7.01-2.03,10.45
		c-0.5,2.93-0.53,5.9,0.13,8.82c0.38,1.67,1.02,3.23,2.59,4.21C561.1,199.88,564.11,192.59,563.29,184.25z M548.98,435.44
		c-3.3,0.49-6.41,1.17-9.55,1.37c-6.24,0.39-12.29-0.31-17.41-4.46c-0.1-0.08-0.29-0.04-0.56-0.07c-0.26,2.06,0.54,3.88,0.99,5.46
		c1.54,0.49,2.76,0.93,4.01,1.26c0.81,0.22,1.73,0.56,2.46,0.36c1.82-0.49,3.39,0,4.93,0.79c3.2,1.64,6.66,1.28,10.05,1.39
		c0.42,0.01,0.84-0.35,1.28-0.5c1.03-0.37,2.06-0.72,3.57-1.24C548.82,438.61,548.91,436.95,548.98,435.44z M557.76,50.15
		c-0.65-1.41-1.5-1.45-2.5-1.31c-2,0.29-4,0.58-6.02,0.75c-3.44,0.29-5.69,2.29-7.38,5.06c-0.46,0.76-0.98,1.64-0.16,2.78
		c0.75-0.2,1.6-0.32,2.35-0.66c1.2-0.54,2.36-1.19,3.49-1.87c2.1-1.26,4.35-1.62,6.74-1.2c0.76,0.13,1.52,0.33,2.3,0.39
		c1,0.07,2.02,0.05,2.87-1.22c-0.98-0.63-1.9-1.21-3.27-2.08C556.85,50.52,557.36,50.31,557.76,50.15z M644.91,431.49
		c-2.35,1.3-4.47,2.68-6.76,3.68c-2.31,1.02-4.79,1.68-7.28,2.53c0.3,0.81,0.53,1.37,0.71,1.95c0.19,0.63,0.32,1.27,0.46,1.83
		c5.46-0.54,10.04-2.34,13.14-7.23C645.12,433.56,645.02,432.59,644.91,431.49z M468.24,107.88c-0.23,4.49-0.46,8.8-0.66,12.66
		c1.1,1.4,2.27,2.41,2.8,3.69c0.72,1.75-0.89,2.68-2.31,3.62c1.01,0.65,1.75,1.12,2.67,1.71c0.07-0.64,0.13-1.01,0.14-1.38
		c0.04-2.31-0.07-4.63,0.12-6.93c0.23-2.7,0.7-5.39,1.08-8.08c0.17-1.21,0.37-2.41,0.55-3.63
		C471.04,108.94,469.69,108.43,468.24,107.88z M571.38,156.74c0.01-0.06,0.02-0.11,0.04-0.17c1.24-0.1,2.5-0.1,3.71-0.35
		c0.68-0.14,1.63-0.6,1.79-1.12c0.17-0.56-0.29-1.49-0.75-2.02c-3.08-3.59-7.62-2.7-10.31,0.45c-0.99,1.16-0.78,1.95,0.74,2.37
		C568.15,156.33,569.78,156.47,571.38,156.74z M469.07,133.29c0.95,2.5,0.86,3.17-0.54,5.15c1.28,2.99,0.65,4.3-2.89,5.56
		c0,2.19,0,4.47,0,6.97c1.3,0,2.55,0,4.03,0c0.3-6.17,0.59-12.14,0.9-18.5C469.81,132.89,469.49,133.06,469.07,133.29z
		 M620.69,23.59c-1.14-4.47-10.45-4.17-14.89-0.8C610.76,23.96,615.55,25.44,620.69,23.59z M534.54,82.66c0-1.66,0-3.13,0-4.6
		c0-1.45,0-2.91,0-4.25c-2.56-1.02-2.86-1.06-3.75-0.56c-1.44,0.8-2.46,3.23-2.05,4.85C529.33,80.46,531.44,82.24,534.54,82.66z
		 M570.25,211.54c0-4.19,0-8.24,0-12.61c-2.25,3.82-4.3,7.3-6.38,10.85C565.88,211.08,568.06,211.36,570.25,211.54z M513.75,423.23
		c-0.18,1.26-0.16,1.97-0.39,2.59c-0.47,1.27,0.14,2.03,0.83,3.07c1.47,2.22,4.25,2.88,5.64,5.53c0.07-1.04,0-1.69,0.17-2.26
		c0.33-1.07,0.12-1.88-0.64-2.7C517.58,427.55,515.87,425.58,513.75,423.23z M605.09,20.46c1.6-2.43,1.66-4.88,1.25-7.33
		c-0.28-1.62-2-2.5-4.08-2.32C603.17,13.92,604.07,17.01,605.09,20.46z M466.23,120.27c0.12-2.3,0.23-4.26,0.34-6.26
		c-0.87-0.42-1.61-0.77-2.35-1.12C463.01,115.47,463.57,117.67,466.23,120.27z"/>
	<path class="st0" d="M315.88,320.93c3.03,0.1,8.71,0.4,14.39,0.46c3.88,0.04,7.77-0.26,11.66-0.39c1.4-0.05,2.81-0.16,4.2-0.03
		c2.9,0.27,4.57,1.89,4.73,4.81c0.14,2.63-0.02,5.28-0.12,7.92c-0.14,3.65-0.46,7.3-0.52,10.95c-0.07,3.78-0.69,7.41-1.97,10.96
		c-0.73,2.02-2.01,3.29-4.02,3.85c-1.04,0.29-2.12,0.56-3.2,0.63c-9.32,0.53-18.64,1.03-27.97,1.49c-2.1,0.1-4.2-0.02-6.3,0.02
		c-3.96,0.08-7.93,0.35-11.88,0.26c-6.14-0.14-12.27-0.39-18.39-0.88c-1.86-0.15-3.71-1.09-5.46-1.91c-1.71-0.8-2.68-2.3-2.84-4.26
		c-0.3-3.72-0.73-7.43-0.93-11.15c-0.23-4.5-0.4-9.01-0.34-13.52c0.02-1.73,0.57-3.52,1.21-5.16c0.73-1.89,2.27-2.83,4.39-2.86
		c3.34-0.05,6.68-0.23,10.02-0.36c0.54-0.02,1.08-0.07,1.62-0.14c1.68-0.23,3.36-0.66,5.05-0.68
		C297.2,320.89,305.22,320.93,315.88,320.93z M314.19,323.2c-9.4-0.09-18.81-0.52-28.2,0.33c-4.25,0.38-8.54,0.45-12.81,0.52
		c-1.86,0.03-2.94,0.89-3.5,2.49c-0.33,0.94-0.54,1.96-0.57,2.95c-0.08,2.56-0.14,5.13,0,7.68c0.3,5.59,0.75,11.17,1.12,16.76
		c0.12,1.83,1.04,3,2.68,3.75c3.34,1.53,6.92,2.01,10.48,1.84c1.78-0.09,3.51-0.07,5.27,0.06c1.01,0.07,2.02,0.09,3.03,0.07
		c4.9-0.12,9.79-0.28,14.69-0.38c2.26-0.05,4.52,0.11,6.77-0.01c9.09-0.46,18.18-0.99,27.28-1.52c0.92-0.05,1.84-0.29,2.75-0.48
		c1.52-0.31,2.38-1.27,2.88-2.73c1.08-3.12,1.63-6.29,1.7-9.6c0.08-4.12,0.41-8.24,0.6-12.36c0.09-2.02,0.23-4.05,0.16-6.06
		c-0.08-2.45-0.88-3.18-3.29-3.28c-1.09-0.04-2.18,0.02-3.27,0.07c-3.42,0.13-6.84,0.42-10.26,0.39
		C325.86,323.65,320.03,323.38,314.19,323.2z"/>
	<path class="st0" d="M352.1,280.44c7.06-0.16,13.75-0.4,20.44-0.43c5.92-0.03,11.82,0.42,17.64,1.55c3.03,0.59,3.98,1.67,4.15,4.72
		c0.12,2.17,0.13,4.36,0,6.53c-0.4,6.6-0.86,13.19-1.36,19.78c-0.15,1.98-0.67,2.55-2.39,2.35c-5.95-0.67-11.8,0.37-17.67,0.98
		c-8.85,0.92-17.7,0.96-26.56,0.13c-4.33-0.4-8.69-0.63-13.04-0.86c-3.2-0.17-6.34,0.1-9.46,1.04c-3.31,1-4.92-0.29-4.77-3.79
		c0.08-1.93,0.36-3.88,0.79-5.76c0.79-3.47,0.85-6.91,0.36-10.42c-0.47-3.39-0.82-6.79-1.11-10.2c-0.35-4.11,2.07-6.6,6.27-6.48
		C334.43,279.85,343.45,280.16,352.1,280.44z M321.63,314.48c0.89-0.19,1.58-0.28,2.23-0.48c2.63-0.82,5.31-1.2,8.05-1.07
		c4.2,0.2,8.41,0.25,12.58,0.68c10.97,1.12,21.9,0.87,32.83-0.49c3.85-0.48,7.73-0.95,11.63-0.47c0.51,0.06,1.04,0.01,1.75,0.01
		c0.12-1.71,0.23-3.33,0.34-4.95c0.1-1.55,0.2-3.1,0.27-4.66c0.24-5.36,0.54-10.72,0.68-16.08c0.06-2.44-0.36-2.9-2.71-3.27
		c-6-0.95-12.03-1.44-18.12-1.4c-11.12,0.08-22.25,0.02-33.37-0.09c-4.12-0.04-8.24-0.44-12.36-0.57c-2.95-0.1-4.24,1.36-4.01,4.32
		c0.05,0.62,0.18,1.23,0.25,1.85c0.41,3.79,0.83,7.57,1.21,11.36c0.33,3.31-0.46,6.49-1.12,9.7
		C321.41,310.6,321.1,312.36,321.63,314.48z"/>
	<path class="st0" d="M361.61,320.75c1.64-0.07,2.85-0.1,4.05-0.18c2.02-0.13,4.03-0.37,6.05-0.42c10.42-0.25,20.85-0.64,31.26,0.25
		c2.79,0.24,5.55,0.81,8.33,1.01c3.17,0.22,6.37,0.37,9.53,0.21c4.52-0.23,6.98,1.39,8.16,5.85c1.71,6.48,1.81,13.07,1.3,19.69
		c-0.06,0.84-0.41,1.66-0.58,2.49c-0.32,1.52-0.68,3.03-0.88,4.56c-0.3,2.25-1.33,3.45-3.51,3.64c-3.4,0.3-6.81,0.54-10.21,0.75
		c-4.97,0.31-9.94,0.59-14.91,0.88c-0.47,0.03-0.93,0.07-1.4,0.08c-8.4,0.15-16.8,0.32-25.2,0.44c-2.99,0.04-5.85-0.53-8.63-1.71
		c-3.17-1.35-4.65-3.76-4.81-7.07c-0.07-1.47,0-2.95,0.06-4.43c0.27-6.91,0.55-13.83,0.83-20.74c0.05-1.24,0.07-2.49,0.18-3.73
		C361.28,321.73,361.5,321.16,361.61,320.75z M363.36,322.75c-0.08,0.89-0.19,1.57-0.2,2.26c-0.06,8.01,0.07,16.01-0.82,24
		c-0.53,4.8,0.94,6.59,5.59,7.94c3.12,0.91,6.31,0.74,9.5,0.63c4.59-0.15,9.17-0.29,13.76-0.41c3.57-0.1,7.15-0.15,10.72-0.27
		c6.45-0.21,12.9-0.46,19.35-0.69c1.01-0.04,2.03,0,3.03-0.1c1.93-0.18,2.01-0.36,2.23-2.26c0.15-1.38,0.29-2.81,0.73-4.11
		c0.79-2.34,0.88-4.72,0.9-7.13c0.01-0.86-0.08-1.71-0.04-2.57c0.17-4.16-0.49-8.22-1.51-12.23c-0.79-3.11-2.22-4.08-5.41-3.82
		c-4.29,0.35-8.54,0.2-12.78-0.57c-1.98-0.36-4.01-0.66-6.02-0.7c-9.41-0.2-18.81-0.36-28.22-0.41
		C370.61,322.29,367.05,322.59,363.36,322.75z"/>
	<path class="st0" d="M422.54,366.35c6.16,0.23,13.7,0.45,21.24,0.81c4.44,0.21,8.81,0.99,13.03,2.46c2.85,0.99,3.28,1.81,3.39,4.8
		c0.14,3.57,0.42,7.13,0.8,10.68c0.4,3.74,0.6,7.44-0.45,11.11c-0.76,2.66-1.82,3.6-4.59,3.82c-1.78,0.14-3.58,0.02-5.36,0.15
		c-5.35,0.39-10.7,0.9-16.05,1.28c-6.44,0.46-12.89,0.83-19.33,1.24c-6.83,0.43-13.48-1.01-20.16-2.02
		c-3.79-0.58-5.14-2.3-4.91-6.13c0.39-6.48-0.12-12.89-0.82-19.32c-0.18-1.62,0.37-3.36,0.81-4.98c0.4-1.45,1.46-1.96,3.09-2.27
		C402.48,366.21,411.84,366.81,422.54,366.35z M424,368.43c-12.19,0.32-21.28-0.01-30.29,1.53c-0.8,0.14-1.25,0.43-1.57,1.12
		c-0.76,1.63-0.69,3.31-0.47,5.03c0.71,5.64,1.28,11.28,0.82,16.98c-0.07,0.85-0.05,1.71-0.04,2.56c0.01,1.33,0.64,2.24,1.96,2.53
		c1.59,0.36,3.19,0.69,4.79,0.95c4.84,0.77,9.67,1.64,14.6,1.39c4.97-0.25,9.93-0.64,14.9-0.91c8.77-0.49,17.47-1.99,26.29-1.73
		c0.23,0.01,0.47,0,0.7-0.02c1.7-0.17,2.11-0.51,2.59-2.17c1-3.44,0.74-6.91,0.37-10.41c-0.39-3.62-0.61-7.27-0.78-10.91
		c-0.1-2.05,0.04-2.26-2.04-2.77c-3.38-0.84-6.8-1.77-10.25-2.03C437.37,368.94,429.13,368.68,424,368.43z"/>
	<path class="st0" d="M424.75,433.24c0.7-6.4,1.35-12.51,2.03-18.61c0.18-1.62,0.46-3.23,0.66-4.85c0.06-0.45,0.07-0.93-0.02-1.37
		c-0.42-2.21,0.3-3.13,2.54-3.2c1.78-0.06,3.55-0.17,5.33-0.22c11.27-0.32,22.53-0.83,33.8-0.84c4.93,0,9.94,0.41,14.79,1.73
		c3.32,0.9,5.26,2.79,5.47,6.34c0.18,3.1,0.35,6.21,0.73,9.29c0.37,3,0.81,6.01,1.57,8.93c1.16,4.5,0.92,8.93-0.04,13.39
		c-0.46,2.15-0.84,2.48-3.02,2.29c-3.87-0.34-7.72-0.98-11.6-1.17c-9.24-0.45-18.46-1.75-27.72-0.83
		c-5.56,0.56-11.1,1.39-16.63,2.21c-3.7,0.55-5.36-0.11-6.36-3.69C425.42,439.53,425.21,436.24,424.75,433.24z M429.36,407.68
		c-0.57,4.82-1.31,9.74-1.7,14.69c-0.39,4.88-0.52,9.78-0.55,14.67c-0.01,1.75,0.42,3.56,0.98,5.24c0.77,2.31,1.46,2.51,3.86,2.13
		c5.53-0.86,11.04-2,16.61-2.41c11.2-0.83,22.38,0.34,33.56,1.15c2.37,0.17,4.73,0.51,7.25,0.78c0.93-4.48,1.21-8.68,0.14-12.93
		c-1.02-4.07-1.91-8.15-1.85-12.42c0.04-2.24-0.46-4.48-0.67-6.73c-0.19-1.96-1.31-3.08-3.13-3.6c-0.6-0.17-1.19-0.37-1.8-0.49
		c-5.44-1.07-10.94-1.48-16.47-1.47c-6.07,0.01-12.14,0.07-18.2,0.21c-3.5,0.08-6.99,0.3-10.49,0.52
		C434.51,407.18,432.12,407.44,429.36,407.68z"/>
	<path class="st0" d="M392.92,446.37c-6.37,0.32-12.74,0.58-19.1,0.98c-3.92,0.25-7.75,0.15-11.51-1.19
		c-3.69-1.31-5.94-3.58-6.58-7.64c-0.96-6.07-0.74-12.09,0.01-18.13c0.47-3.78,1.04-7.54,1.5-11.32c0.14-1.14,0.62-1.97,1.67-2.3
		c1.1-0.35,2.25-0.64,3.39-0.68c7.46-0.24,14.93-0.31,22.39-0.62c9.3-0.38,18.48,0.7,27.66,1.9c3.39,0.44,4.57,1.65,4.24,4.64
		c-0.49,4.45,0.19,8.85,0.26,13.27c0.06,3.81,0.26,7.62,0.28,11.43c0.01,2.34-0.31,4.64-1.34,6.81c-0.83,1.75-2.07,2.9-4.01,3.19
		c-1.07,0.16-2.16,0.34-3.24,0.33c-5.21-0.05-10.42-0.16-15.63-0.24C392.93,446.67,392.92,446.52,392.92,446.37z M393.84,444.21
		c0,0.22,0.01,0.44,0.01,0.66c3.81,0,7.62,0.02,11.43-0.01c1.71-0.01,3.42-0.09,5.13-0.15c1.86-0.06,3.13-1,3.58-2.78
		c0.4-1.57,0.73-3.2,0.77-4.81c0.07-3.03-0.08-6.07-0.14-9.1c-0.1-5.36-0.98-10.69-0.37-16.07c0.19-1.69-0.18-2.07-2.14-2.34
		c-8.25-1.14-16.51-2.09-24.87-1.89c-8.09,0.19-16.17,0.4-24.26,0.53c-3.5,0.06-3.75,0.14-4.17,3.71c-0.5,4.25-0.95,8.5-1.33,12.76
		c-0.41,4.58-0.41,9.16,0.35,13.73c0.44,2.66,1.83,4.39,4.29,5.34c0.94,0.36,1.9,0.68,2.87,0.95c3.46,0.93,6.95,0.45,10.44,0.28
		C381.57,444.74,387.71,444.48,393.84,444.21z"/>
	<path class="st0" d="M310.44,409.19c3.11,0.16,6.22,0.24,9.33,0.5c6.5,0.55,12.89,0,19.22-1.56c1.34-0.33,2.78-0.39,4.16-0.35
		c2.94,0.09,4.5,1.67,4.36,4.59c-0.22,4.66-0.49,9.32-1.01,13.95c-0.4,3.58-0.63,7.12-0.27,10.71c0.08,0.77,0.16,1.55,0.19,2.33
		c0.1,2.66-0.92,4.61-3.41,5.83c-3,1.48-6.15,2.18-9.46,2.15c-2.57-0.02-5.13-0.15-7.7-0.26c-8.57-0.36-17.11,0.13-25.67,0.49
		c-2.86,0.12-5.74-0.22-8.6-0.44c-1.84-0.14-3.12-1.23-4.16-2.7c-1.28-1.82-2.15-3.8-2.47-5.99c-0.79-5.39-1.47-10.79-2.27-16.17
		c-0.31-2.07-0.72-4.14-1.23-6.17c-0.37-1.47-0.05-2.58,1.12-3.51c1.09-0.86,2.1-1.82,3.23-2.63c0.4-0.29,1.02-0.35,1.54-0.38
		c3.11-0.18,6.21-0.4,9.32-0.45c4.59-0.07,9.18-0.02,13.78-0.02C310.44,409.13,310.44,409.16,310.44,409.19z M283.64,414.73
		c0.47,2.5,1.02,4.92,1.38,7.37c0.68,4.69,1.14,9.42,1.91,14.1c0.35,2.11,1.09,4.19,1.89,6.2c0.72,1.81,2.31,2.69,4.25,2.76
		c2.87,0.1,5.76,0.28,8.62,0.17c7.15-0.29,14.29-0.87,21.46-0.46c3.57,0.21,7.16,0.24,10.73,0.37c2.96,0.1,5.68-0.7,8.3-2
		c1.43-0.71,2.08-1.81,2.04-3.36c-0.01-0.62-0.04-1.25-0.13-1.86c-0.54-3.8-0.4-7.58,0.03-11.4c0.52-4.63,0.8-9.29,1.11-13.95
		c0.14-2.06-0.44-2.67-2.54-2.68c-1.39-0.01-2.82,0.1-4.16,0.44c-7.11,1.83-14.31,1.65-21.57,1.33c-8.62-0.37-17.27-0.3-25.9-0.42
		C288.06,411.3,285.74,412.72,283.64,414.73z"/>
	<path class="st0" d="M373.47,401.94c-4.96-0.41-9.93-0.7-14.87-1.26c-7.34-0.83-14.61-0.36-21.86,0.83
		c-2.76,0.45-5.51,1.01-8.28,1.44c-1.15,0.18-2.33,0.25-3.49,0.19c-1.98-0.1-2.96-1.09-3.15-3.05c-0.07-0.69-0.07-1.4-0.01-2.1
		c0.49-5.89,0.98-11.79,1.51-17.68c0.11-1.24,0.39-2.46,0.54-3.69c0.33-2.85,0.67-5.71,0.93-8.57c0.19-2.11,1.04-3.05,3.03-3.04
		c10.82,0.05,21.64,0.08,32.45,0.19c6.62,0.06,13.23,0.44,19.78,1.48c1.3,0.21,2.59,0.52,3.87,0.85c1.85,0.49,2.86,1.72,3.18,3.61
		c0.81,4.8,1.1,9.58,0.04,14.38c-0.91,4.1-1.77,8.21-2.71,12.3c-0.71,3.1-1.7,3.85-4.86,3.89c-2.02,0.02-4.05,0-6.07,0
		C373.48,401.79,373.47,401.86,373.47,401.94z M326.83,367.12c-0.11,2.4,0.04,4.53-0.34,6.57c-1.3,6.98-1.74,14.04-2.29,21.09
		c-0.1,1.32-0.35,2.63-0.4,3.94c-0.09,2.15,0.44,2.59,2.62,2.38c0.39-0.04,0.77-0.13,1.15-0.19c3.37-0.58,6.73-1.22,10.11-1.74
		c6.78-1.06,13.59-1.7,20.45-0.8c7.04,0.92,14.11,1.12,21.19,1.02c2.21-0.03,2.34-0.1,2.85-2.22c0.81-3.4,1.56-6.81,2.34-10.22
		c1.03-4.51,1.36-8.99,0.61-13.64c-0.57-3.57-1.09-3.43-4.18-4.22c-0.22-0.06-0.46-0.06-0.69-0.1c-10.49-1.69-21.05-1.87-31.64-1.77
		c-6.69,0.06-13.37-0.06-20.06-0.1C328.01,367.12,327.48,367.12,326.83,367.12z"/>
	<path class="st0" d="M249.31,315.12c1.07-0.29,1.91-0.63,2.77-0.71c1.39-0.12,2.8-0.09,4.2-0.05c5.21,0.13,10.42,0.48,15.63,0.37
		c4.97-0.1,9.94-0.54,14.89-1.07c4.34-0.46,8.62-0.9,13.01-0.43c2.81,0.3,5.72-0.31,8.59-0.51c1.3-0.09,1.94-0.78,1.98-2.1
		c0.09-2.57,0.4-5.13,0.31-7.69c-0.2-5.71,0.79-11.32,1.13-16.98c0.1-1.7,0.22-3.4,0.35-5.43c-2.55-0.43-5.04-1.13-7.54-1.21
		c-4.42-0.14-8.86,0.02-13.29,0.21c-3.1,0.13-6.18,0.56-9.28,0.76c-0.89,0.06-1.8-0.22-2.7-0.33c-0.77-0.09-1.54-0.2-2.31-0.24
		c-8.47-0.44-16.93-0.89-25.4-1.29c-2.41-0.11-4.82-0.05-7.23-0.12c-0.91-0.03-1.81-0.21-2.9-0.34c0.59-1.37,1.62-1.31,2.57-1.49
		c4.44-0.81,8.84-0.01,13.26,0.25c5.59,0.33,11.19,0.54,16.78,0.85c2.4,0.13,4.79,0.37,7.19,0.55c0.46,0.03,0.92,0.02,1.38-0.01
		c5.82-0.43,11.63-0.9,17.45-1.28c4.16-0.27,8.21,0.62,12.25,1.41c1.97,0.39,2.44,1.14,2.25,3.11c-0.51,5.26-1.11,10.52-1.49,15.79
		c-0.23,3.25-0.09,6.53-0.18,9.8c-0.05,1.63-0.2,3.26-0.38,4.88c-0.19,1.67-1.22,2.79-2.83,2.98c-3.39,0.39-6.84,1-10.2,0.74
		c-4-0.31-7.9-0.03-11.86,0.32c-2.53,0.22-5.1,0.02-7.65,0.1c-1.78,0.06-3.55,0.28-5.33,0.43c-1.01,0.08-2.01,0.23-3.02,0.22
		c-6.45-0.09-12.91-0.22-19.36-0.35C251.34,316.22,250.31,316.32,249.31,315.12z"/>
	<path class="st0" d="M258.51,400.76c2.59-0.78,5.2-1.35,7.96-1.38c4.51-0.05,9.02-0.32,13.53-0.47c1.23-0.04,2.46-0.21,3.58,0.66
		c0.43,0.33,1.18,0.29,1.79,0.35c6.59,0.57,13.18,1.21,19.77,1.64c1.82,0.12,3.69-0.4,5.53-0.64c1.28-0.17,1.87-1,1.99-2.22
		c0.25-2.63,0.47-5.27,0.75-7.9c0.45-4.33,0.94-8.66,1.42-12.99c0.29-2.63,0.23-5.24-0.06-7.96c-0.7,0-1.22-0.06-1.73,0.01
		c-4.65,0.68-9.3,0.47-13.98,0.27c-5.28-0.23-10.57-0.02-15.86-0.01c-1.01,0-2.02-0.04-3.03-0.08c-3.74-0.17-7.45-0.02-11.12,0.85
		c-1.28,0.3-2.61,0.46-3.92,0.52c-2.1,0.1-4.2,0.09-6.3,0.1c-1.72,0.01-1.82-0.04-3.03-1.35c0.64-0.93,1.64-0.66,2.51-0.7
		c3.03-0.15,6.11,0.06,9.07-0.45c4.72-0.8,9.39-1.17,14.16-0.76c1.84,0.16,3.72-0.29,5.59-0.32c3.5-0.06,7-0.1,10.5,0.01
		c5.21,0.16,10.41,0.53,15.61-0.29c2.65-0.41,3.72,0.52,3.91,3.27c0.14,2.01,0.24,4.06,0.05,6.06c-0.66,6.97-1.45,13.93-2.2,20.89
		c-0.06,0.54-0.13,1.08-0.24,1.61c-0.39,1.85-1.45,3.16-3.34,3.46c-2.21,0.35-4.48,0.82-6.69,0.67c-6.21-0.44-12.4-1.15-18.59-1.8
		c-1.68-0.17-3.41,0.01-4.98-0.95c-0.46-0.28-1.21-0.14-1.83-0.11c-5.13,0.27-10.25,0.56-15.38,0.85c-1.09,0.06-2.18,0.24-3.26,0.21
		c-0.78-0.02-1.55-0.31-2.32-0.47C258.42,401.15,258.47,400.96,258.51,400.76z"/>
	<path class="st0" d="M232.95,408.38c-0.92,0.36-1.68,0.65-2.62,1.02c-0.14-1.76-0.27-3.4-0.42-5.19c0.73-0.04,1.31-0.08,2.06-0.12
		C232.3,405.54,232.61,406.93,232.95,408.38z"/>
	<path class="st0" d="M148.89,400.57c0.24-0.97,0.44-1.76,0.68-2.73c0.72,0.17,1.33,0.32,2.01,0.48c-0.14,1.15-0.25,2.12-0.39,3.27
		C150.43,401.24,149.78,400.96,148.89,400.57z"/>
	<path class="st0" d="M469.07,133.29c0.43-0.23,0.74-0.4,1.5-0.81c-0.31,6.35-0.6,12.33-0.9,18.5c-1.48,0-2.73,0-4.03,0
		c0-2.5,0-4.78,0-6.97c3.54-1.26,4.17-2.57,2.89-5.56C469.93,136.46,470.01,135.8,469.07,133.29z"/>
	<path class="st0" d="M167.16,181.73c1.17,4.41,0.95,8.76,1.63,13.2c-1.29-0.33-1.34-1.15-1.24-1.86c0.36-2.46-0.18-4.77-0.8-7.12
		C166.18,183.81,166.27,183.69,167.16,181.73z"/>
	<path class="st0" d="M230.56,264.44c-1.73-2.4-1.09-4.79-0.41-7.22c0.18,0.74,0.36,1.48,0.52,2.22c0.19,0.83,0.38,1.66,0.52,2.5
		C231.33,262.72,231.91,263.59,230.56,264.44z"/>
	<path class="st0" d="M233.37,279.58c0.7,3.26,1.36,6.04,1.63,9.15C233.27,287.64,232.64,283.81,233.37,279.58z"/>
	<path class="st0" d="M158.44,293.22c0.21,2.65,1.32,5.29,0.21,8.43C157.71,299.89,157.61,296.36,158.44,293.22z"/>
	<path class="st0" d="M219.83,175.64c0.83,2.61,1.09,5.27,0.61,8.36C218.87,181.05,219.18,178.36,219.83,175.64z"/>
	<path class="st0" d="M247.48,340.26c-1.31-1.15-1.4-1.56-1.33-5.9C247.73,335.95,248.37,338.77,247.48,340.26z"/>
	<path class="st0" d="M222.34,209.64c1.42,2.06,1.98,4.34,2.47,7.08C223.03,215.66,222.9,215.25,222.34,209.64z"/>
	<path class="st0" d="M236.83,303.1c-1.65-2-0.45-4.34-0.78-6.51C237.33,298.61,237.46,300.79,236.83,303.1z"/>
	<path class="st0" d="M162.22,256.75c-0.36,2.48,0.51,4.97,0.04,7.69c-1.16-1.11-1.19-1.11-1.04-3.91c0.07-1.29,0.29-2.57,0.44-3.86
		C161.85,256.7,162.03,256.73,162.22,256.75z"/>
	<path class="st0" d="M158.83,284.54c0.28-1.15,0.55-2.3,0.91-3.79c0.79,2.29,0.57,5.6-0.38,7.05c-0.75-1.08-0.59-2.21-0.49-3.33
		C158.88,284.48,158.83,284.54,158.83,284.54z"/>
	<path class="st0" d="M247.7,383.93c-0.24-0.3-0.58-0.54-0.55-0.73c0.36-2.72-0.98-5.43-0.21-8.42
		C247.69,376.1,248.14,382.08,247.7,383.93z"/>
	<path class="st0" d="M166.69,176.34c-1.68-1.67-1.26-3.63-0.81-5.59C166.66,172.52,167.07,174.36,166.69,176.34z"/>
	<path class="st0" d="M248.12,388.42c0.41,1.72,1.47,3.29,1.45,5.24C247.78,393.06,247.24,391.1,248.12,388.42z"/>
	<path class="st0" d="M246.45,361.91c0.76,1.99,1.25,3.66,0.09,5.55C245.43,365.83,245.41,364.53,246.45,361.91z"/>
	<path class="st0" d="M158.86,319.5c-1.87-1.14-1.94-1.56-0.92-5.56C158.22,315.66,158.51,317.38,158.86,319.5z"/>
	<path class="st0" d="M228.63,243.76c1.01,1.99,1.23,3.28,1.04,5.4C228.23,248.68,228.05,247.85,228.63,243.76z"/>
	<path class="st0" d="M150.28,386.77c-0.14,2.13-0.65,3.57-1.76,4.98C147.72,390.4,148.15,389.19,150.28,386.77z"/>
	<path class="st0" d="M158.27,329.05c0.19-1.56,0.38-3.12,0.6-4.95c1.22,2.03,1.13,3.87-0.05,5.04
		C158.63,329.11,158.45,329.08,158.27,329.05z"/>
	<path class="st0" d="M149.74,383.97c-0.3-2.17,0.72-3.6,0.94-5.69C151.53,380.63,151.27,382.17,149.74,383.97z"/>
	<path class="st0" d="M247.69,352.74c-1.45-1.45-1.48-2.97-0.3-5.18C247.96,349.24,248.14,350.81,247.69,352.74z"/>
	<path class="st0" d="M243.4,326.99c-1.92-0.63-2.45-2.05-2.18-5.44C242.03,323.56,242.64,325.08,243.4,326.99z"/>
	<path class="st0" d="M169.04,202.63c-1.28-1.45-1.28-2.82,0-6.55C169.04,198.42,169.04,200.45,169.04,202.63z"/>
	<path class="st0" d="M158.76,305.15c0.17,2.16,0.44,3.99-0.18,6.05C157.52,309.84,157.6,308.48,158.76,305.15z"/>
	<path class="st0" d="M167.92,206.58c0.57,3.25,0.34,4.72-1.01,6.23C166.77,210.49,167.7,208.6,167.92,206.58z"/>
	<path class="st0" d="M232.22,274.66c-0.89-1.47-0.5-3.1-0.5-4.68C232.2,271.5,232.66,273.02,232.22,274.66z"/>
	<path class="st0" d="M220.2,201.25c0.19,1.17,0.38,2.34,0.58,3.52C219.35,204.75,219.17,204.04,220.2,201.25z"/>
	<path class="st0" d="M162.47,252.44c-1.28-1.2-0.5-2.34,0-3.51C162.47,250.1,162.47,251.27,162.47,252.44z"/>
	<path class="st0" d="M238.39,307c0.45,0.93,0.89,1.87,1.46,3.04C238.22,309.56,238.22,309.56,238.39,307z"/>
	<path class="st0" d="M220.13,196.88c-1.04-0.86-0.52-1.81,0.35-2.8c0.08,0.89,0.17,1.78,0.25,2.66
		C220.54,196.79,220.34,196.83,220.13,196.88z"/>
	<path class="st0" d="M220.63,186.02c0.13,0.7,0.25,1.4,0.44,2.41c-1.55-0.74-0.96-1.66-0.96-2.44
		C220.28,186,220.46,186.01,220.63,186.02z"/>
	<path class="st0" d="M163.04,243.52c-0.08,0.66-0.17,1.33-0.29,2.36C162,244.52,162,244.52,163.04,243.52z"/>
	<path class="st0" d="M146.45,106.92c2.15-3.78,5.05-7.02,6.8-11.38c-0.76,0.29-1.23,0.46-1.7,0.65c-2.95,1.24-6.06,0.82-7.81-1.09
		c-1.57-1.71-3.07-5.8-1.14-8.92c1.79-2.88,4.18-4.8,7.82-4.51c0.23,0.02,0.46,0.02,0.69,0.01c0.06,0,0.13-0.09,0.24-0.17
		c0.57-2.33-0.06-4.99,1.34-7.18c0.17,0.02,0.35,0.05,0.52,0.07c-0.04,0.73-0.02,1.47-0.13,2.19c-0.59,4-0.37,7.95,1.15,11.71
		c1.76,4.32,1.16,8.25-1.6,11.86c-1.6,2.09-3.41,4.03-5.15,6.01C147.22,106.49,146.8,106.67,146.45,106.92z M148.78,95.38
		c0.39-0.04,1.04,0,1.61-0.19c3.48-1.15,3.96-1.34,2.98-5.06c-0.47-1.79-1.04-3.56-1.49-5.36c-0.42-1.68-0.85-2.03-2.55-1.8
		c-2.64,0.36-5.54,3.22-5.94,5.85C142.8,92.79,144.86,95.41,148.78,95.38z"/>
	<path class="st0" d="M210.61,67.56c0.24,0.93,0.38,1.47,0.58,2.25c-0.74-0.31-1.27-0.54-1.94-0.82c0,0.81,0,1.47,0,1.78
		c-0.23-0.69-0.53-1.59-0.83-2.48c0.3-0.16,2.22-0.95,3.28-3.03c-2.32-0.32-3.67-1.72-4.68-3.54c-0.43-0.77-0.64-1.45-0.16-2.39
		c0.89-1.72,1.64-3.52,0.38-5.47c-0.16-0.25,0.22-0.84,0.44-1.6c-1.2-0.66-2.4-1.51-3.73-2.02c-2.7-1.02-5.07,0.44-5.38,3.33
		c-0.14,1.28,0.01,2.65,0.3,3.92c0.78,3.45,2.26,6.6,4.41,9.43c0.43,0.57,1.12,1.06,0.99,2.3c-0.61-0.46-1.09-0.67-1.37-1.04
		c-2.77-3.64-4.67-7.69-5.55-12.19c-0.12-0.6-0.14-1.24-0.11-1.86c0.21-4.58,3.83-6.9,7.94-4.97c3.31,1.55,5.55,4.21,6.84,7.61
		c0.87,2.27,1.23,4.64,1.08,7.09c-0.05,0.87,0.11,1.75,0.17,2.67c-0.26,0.02-0.61,0.04-0.95,0.06c-0.12,0.14-0.24,0.27-0.36,0.41
		c0.57,0.24,1.15,0.47,1.72,0.71c-0.12,0.18-0.25,0.35-0.37,0.53C212.56,68.05,211.81,67.86,210.61,67.56z"/>
	<path class="st0" d="M182.69,90.48c0.9,0.38,1.66,0.67,2.4,1c3.42,1.55,6.99,2.55,10.74,2.92c5.89,0.57,10.26-2.1,12.48-7.64
		c0.24-0.6,0.51-1.19,0.88-2.04c0.84,1.27,0.16,2.09-0.18,2.83c-2.98,6.6-7.31,9.08-14.53,8.14c-3.89-0.51-7.44-2.15-10.93-3.86
		c-0.27-0.13-0.5-0.36-0.72-0.58C182.74,91.16,182.77,90.97,182.69,90.48z"/>
	<path class="st0" d="M201.34,73.27c0.66-0.4,1.29-0.83,1.98-1.18c1.12-0.57,2.31-1.19,3.49-0.3c1.03,0.78,1.1,1.99,0.94,3.19
		c-0.32,2.48-1.26,4.27-3.25,6.25c-1.03-1.4-1.14-1.79-0.05-2.58c1.7-1.23,1.75-3.02,1.94-4.76c0.14-1.31-0.5-1.76-1.73-1.16
		c-1.01,0.49-1.91,1.27-2.71,2.08c-0.92,0.93-1.64,2.06-2.52,3.05c-0.38,0.43-0.93,0.72-1.44,1.1c-0.64-0.95,0.13-1.25,0.47-1.67
		c1.04-1.32,2.65-2.21,2.93-4.07L201.34,73.27z"/>
	<path class="st0" d="M201.38,73.23c-1.14,0.22-1.43-0.77-1.87-1.42c-1.62-2.4-2.76-5.03-3.4-7.86c-0.88-3.89-1.24-7.81-0.36-11.76
		c0.08-0.37,0.21-0.74,0.36-1.09c0.05-0.12,0.22-0.18,0.62-0.48c-0.06,1.01-0.05,1.82-0.15,2.61c-0.86,7.12,0.29,13.75,4.7,19.61
		c0.08,0.1,0.04,0.29,0.05,0.44C201.34,73.27,201.38,73.23,201.38,73.23z"/>
	<path class="st0" d="M201.47,78.2c0.63,2.12,0.36,2.56-1.46,2.95C199.77,79.89,200.55,79.23,201.47,78.2z"/>
	<path class="st0" d="M548.34,157.86c-0.45-3.49-0.4-7-0.21-10.5c0.01-0.21,0.35-0.41,0.71-0.8c0.1,0.55,0.26,0.87,0.17,1.09
		c-0.84,2.21-0.68,4.35,0.22,6.53C549.71,155.32,549.4,156.32,548.34,157.86z"/>
	<path class="st0" d="M601.25,203.02c-0.22-0.36-0.56-0.7-0.63-1.09c-0.51-2.68-0.96-5.37-1.49-8.38c1.32,1.02,1.3,1.03,1.79,4.7
		C601.12,199.81,601.7,201.32,601.25,203.02z"/>
	<path class="st0" d="M543.44,213.77c0.11-3.53,0.98-7.8,1.71-8.74C546,206.52,545.36,209.99,543.44,213.77z"/>
	<path class="st0" d="M604.15,228.85c1.46,2.68,2.34,5.02,2.53,7.58C605.25,235.64,604.15,232.16,604.15,228.85z"/>
	<path class="st0" d="M598.45,169.79c-0.5-2.75,0.14-5.12-0.04-7.81C600.38,164.26,600.38,166.7,598.45,169.79z"/>
	<path class="st0" d="M547.74,164.95c2.42,1.29,2.64,3.7,0.61,6.34C548.15,169.15,547.95,167.08,547.74,164.95z"/>
	<path class="st0" d="M545.7,190.82c1.6,1.37,1.44,3.74-0.51,7.22C545.21,195.33,545.06,193.14,545.7,190.82z"/>
	<path class="st0" d="M524.63,332.54c0.27,0.22,0.77,0.44,0.77,0.67c0.06,2.1,0.04,4.21,0.04,6.84c-1.15-2.67-1.43-4.95-1.35-7.29
		C524.27,332.69,524.45,332.62,524.63,332.54z"/>
	<path class="st0" d="M618.92,324.09c0.45,0.3,0.85,0.43,0.89,0.63c0.33,1.96,0.6,3.92,0.96,6.4
		C619.04,329.07,618.36,326.3,618.92,324.09z"/>
	<path class="st0" d="M603.68,224.67c-0.14-2.09-0.29-4.18-0.43-6.27c0.16-0.03,0.32-0.06,0.48-0.09c0.87,1.59,1.41,3.3,1.23,5.17
		c-0.05,0.48-0.53,0.91-0.82,1.36C603.98,224.79,603.83,224.73,603.68,224.67z"/>
	<path class="st0" d="M603.15,215.14c-1.09-2.13-1.2-4.44-1.18-6.78C602.85,210.52,604.08,212.6,603.15,215.14z"/>
	<path class="st0" d="M524.73,317.57c-0.01-2.32-0.24-4.18,0.69-6.12c0.36,0.3,0.77,0.47,0.85,0.74
		C526.61,313.37,525.98,315.68,524.73,317.57z"/>
	<path class="st0" d="M547.23,184.21c0.06-2.04-0.76-4.26,1.16-6.49C548.93,180.32,548.5,182.31,547.23,184.21z"/>
	<path class="st0" d="M524.81,320.64c0.84,2.48,0,4.45-0.41,6.66C523.32,324.94,523.43,322.33,524.81,320.64z"/>
	<path class="st0" d="M540.9,225.41c1.5,1.89,1.16,4.06-0.97,6.59C540.24,229.91,540.55,227.81,540.9,225.41z"/>
	<path class="st0" d="M617.05,315.36c1.44,1.12,1.7,2.36,1.11,4.67C616.59,318.72,616.3,317.64,617.05,315.36z"/>
	<path class="st0" d="M529.38,290.61c0.45,2.47-0.41,4.23-0.99,6.24C527.51,294.63,527.8,292.13,529.38,290.61z"/>
	<path class="st0" d="M620.2,344.27c0.47,1.57,0.51,3.71,0.08,6.05c-1.22-1.56-1.07-3.26-1.13-4.88
		C619.12,344.85,619.32,344.18,620.2,344.27z"/>
	<path class="st0" d="M620.04,340.49c-0.54-1.8-1.58-3.56-0.36-5.73C620.67,336.19,620.78,338.03,620.04,340.49z"/>
	<path class="st0" d="M527.17,300.48c1.11,1.21,1.07,2.19-0.2,4.94C526.2,303.63,526.27,301.76,527.17,300.48z"/>
	<path class="st0" d="M599.11,188.45c-0.59-1.47-0.6-2.89-0.2-4.57C600.67,186.04,600.7,187.21,599.11,188.45z"/>
	<path class="st0" d="M599.12,172.54c0.21,1.4,0.49,2.8,0.59,4.21c0.02,0.35-0.55,0.73-1.26,0.95c0-1.69,0-3.37,0-5.06
		C598.68,172.61,598.9,172.58,599.12,172.54z"/>
	<path class="st0" d="M597.12,137.19c0.9,1.53,1.45,3.11,1.12,4.82c-0.08,0.42-0.56,0.76-1.12,1.47
		C597.12,141.05,597.12,139.12,597.12,137.19z"/>
	<path class="st0" d="M613.71,287.61c-0.48-1.63-1.16-3.05-0.46-4.69C614.85,283.76,615.03,285.49,613.71,287.61z"/>
	<path class="st0" d="M615.67,303.58c1.4,1.54,1.05,3.38,0.93,5.19C615.56,307.2,615.03,305.51,615.67,303.58z"/>
	<path class="st0" d="M620.78,355.43c1.52,1.31,1.95,3.21,2.76,4.91C622,359.06,620.85,357.55,620.78,355.43z"/>
	<path class="st0" d="M529.88,285.93c0.13-1.74-0.43-3.21,1.04-4.2C531.83,283.02,531.65,283.88,529.88,285.93z"/>
	<path class="st0" d="M614.67,297.85c-0.66-1.12-1.73-2.21-0.38-3.65C615.8,295.34,615.25,296.6,614.67,297.85z"/>
	<path class="st0" d="M598.11,158.16c0-1.88,0-3.26,0-4.87C599.6,155.36,599.66,156.39,598.11,158.16z"/>
	<path class="st0" d="M525.52,340.87c0.94,1.88,0.14,3.19-0.44,4.67C524.37,343.7,524.44,342.69,525.52,340.87z"/>
	<path class="st0" d="M597.85,150.64c-0.19-0.67-0.33-0.94-0.33-1.22c-0.03-1.05-0.01-2.1-0.01-3.39
		C599.03,147.63,599.1,148.52,597.85,150.64z"/>
	<path class="st0" d="M531.7,276.91c-0.13-1.73-0.14-3.26,1.07-4.82C533.18,274.04,533,274.82,531.7,276.91z"/>
	<path class="st0" d="M612.57,278.75c-0.19-1.32-0.38-2.65-0.62-4.3C613.44,275.72,613.58,276.66,612.57,278.75z"/>
	<path class="st0" d="M541.94,220.55c0.2-1.37,0.35-2.45,0.55-3.84C543.72,218.5,543.63,219.14,541.94,220.55z"/>
	<path class="st0" d="M611.58,73.57c0.92-0.75,1.48-1.26,2.1-1.69c3.79-2.7,7.68-1.16,8.58,3.41c0.87,4.37-1.18,8.34-5.2,9.73
		c-1.2,0.42-2.56,0.37-4.11,0.57c0.76,2.07,1.53,4.2,2.4,6.58c-4.48-4.63-6.38-19.67-2.96-24.68
		C612.09,69.68,611.86,71.42,611.58,73.57z M612.49,83.91c4.61,1.04,8.47-1.74,8.79-6.12c0.18-2.42-0.92-4.93-2.58-5.6
		c-2.18-0.89-3.86,0.23-5.53,1.5c-1.25,0.95-1.73,2.1-1.52,3.63C611.95,79.54,612.22,81.77,612.49,83.91z"/>
	<path class="st0" d="M563.79,26.03c-0.54,0.2-1.1,0.38-1.62,0.62c-2.53,1.17-5.15,2.19-7.55,3.59c-1.28,0.75-2.4,2-3.22,3.27
		c-1.03,1.6-0.44,2.94,1.4,3.34c1.4,0.3,3.01,0.5,4.35,0.13c2.9-0.81,5.7-1.99,8.52-3.07c1.49-0.57,2.94-1.27,4.85-2.11
		c-0.36,0.69-0.41,0.93-0.55,1.02c-3.75,2.38-7.6,4.55-11.96,5.61c-1.92,0.47-3.86,0.48-5.75-0.17c-2.58-0.89-3.49-2.94-2.19-5.35
		c0.61-1.13,1.54-2.18,2.55-2.97c2.79-2.18,6.03-3.49,9.46-4.34c0.5-0.12,1.05-0.02,1.58-0.02
		C563.71,25.73,563.75,25.88,563.79,26.03z"/>
	<path class="st0" d="M567.15,115.55c-9.33-0.06-15.41-7.14-17.53-14.29c-0.11-0.37-0.13-0.77-0.15-1.15
		c-0.07-2.01,0.61-2.49,2.55-1.83c4.39,1.5,8.88,2.52,13.51,1.5c3.63-0.8,7.19-1.96,10.78-2.95c1.57-0.43,3.12-1.03,4.72-1.2
		c2.5-0.27,3.53,0.63,4.12,3.03c0.5,2.05,0.21,4.01-0.65,5.91C581.96,110.26,573.38,115.69,567.15,115.55z M564.61,112.03
		c1.36-2,3-3.57,5.28-4.13c1.71-0.42,3.12-1.09,4.37-2.39c1.94-2,4.31-2.98,7.19-2.39c0.79,0.16,1.65,0.02,2.7,0.02
		c0.06-1.42,0.28-2.59,0.13-3.71c-0.33-2.47-0.95-2.85-3.25-2.57c-0.92,1.31-1.49,2.68-2.51,3.49c-3.21,2.55-6.84,4.28-11.04,4.55
		c-1.02,0.07-1.84-0.08-2.33-1.35c-0.87,1.61-2.17,1.67-3.5,1.38c-2.5-0.54-4.98-1.2-7.48-1.77c-1.72-0.39-2.83-1.19-2.66-3.17
		c0.03-0.35-0.36-0.73-0.7-1.36c-1.37,3.66,3.75,11.39,7.88,13.5c0.96-1.75,2.33-1.61,3.88-0.76
		C563.12,111.68,563.76,111.77,564.61,112.03z M580.41,104.28c-0.34,0.73-0.66,1.36-0.92,2c-0.85,2.12-2.39,3.66-4.35,4.71
		c-3,1.61-6.23,2.47-9.67,2.01c-1.37-0.18-2.72-0.61-4.05-1c-0.75-0.22-1.37-0.38-1.57,0.64c7.26,4.41,20.41-0.28,23.27-8.36
		C582.26,104.28,581.43,104.28,580.41,104.28z M579.15,97.36c-4.68,1.4-8.87,2.66-13.24,3.97c0.2,0.87,0.4,1.73,0.62,2.66
		c4.52,0,8.13-1.85,11.45-4.38C578.48,99.21,578.64,98.36,579.15,97.36z M565.92,111.93c6.02,0.99,12.33-2.87,12.97-8.05
		c-1.48,0.95-2.86,1.64-4,2.61c-1.34,1.14-2.77,1.88-4.47,2.3C568.67,109.23,567.19,110.19,565.92,111.93z M564.57,101.66
		c-3.9-0.5-7.83-1.01-11.81-1.52c-0.3,0.96,0.04,1.55,1.07,1.82c2.47,0.64,4.91,1.39,7.4,1.94
		C563.66,104.43,563.88,104.2,564.57,101.66z"/>
	<path class="st0" d="M593.53,85.89c-3.3-0.48-6.62-1.05-9.89-0.11c-3.07,0.89-6.1,1.96-9.15,2.94c-0.13-0.15-0.26-0.3-0.39-0.46
		c0.6-0.31,1.2-0.62,1.94-1.01c-2.21-2.07-3.31-4.28-3.51-6.96c-0.33-4.43,2.53-8.99,6.72-10.42c3.02-1.03,5.87-0.67,8.28,1.5
		c2.52,2.26,3.36,5.19,2.78,8.46c-0.24,1.35-0.87,2.64-1.38,4.13c1.48,0.45,3.1,0.93,4.71,1.42
		C593.61,85.56,593.57,85.73,593.53,85.89z M586.32,84.32c0.66-0.33,1.03-0.4,1.16-0.61c1.41-2.34,2.12-4.85,1.58-7.59
		c-0.72-3.61-3.94-6-7.48-5.62c-5.51,0.59-9.47,7.15-7.32,12.26c0.44,1.04,1.24,1.96,1.98,2.83c0.76,0.9,1.7,1.03,2.47,0.31
		c-0.81-1.54-1.76-2.95-2.34-4.5c-1.55-4.18,1.64-7.84,6.09-7.13c0.68,3.01,1,3.25,3.97,2.83
		C587.25,79.35,586.87,81.61,586.32,84.32z"/>
	<path class="st0" d="M552.1,85.69c0.21,0.62,0.42,1.23,0.63,1.84c-0.1,0.07-0.2,0.13-0.3,0.2c-1.93-1.73-3.7-3.67-5.82-5.12
		c-2.11-1.45-4.56-2.4-6.8-3.9c0.77,0,1.54,0,2.46,0c-0.31-3.22,0.48-6.11,2.84-8.45c1.61-1.59,3.53-2.53,5.79-2.72
		c4.07-0.34,7.7,2.27,8.7,6.26C560.91,78.97,558.21,83.25,552.1,85.69z M556.19,75.41c1.32,4.92-2.21,6.72-5.37,8.98
		c0.68,0,1.07,0.08,1.42-0.01c3.83-0.97,6.74-5.03,6.44-8.96c-0.43-5.57-6.24-8.59-11.01-5.67c-2.82,1.72-4.15,4.35-4.2,7.61
		c-0.01,0.7-0.37,1.56,0.59,2.2c0.35-0.92,0.62-1.8,1.01-2.62c0.43-0.91,0.91-1.82,1.48-2.64c1.6-2.31,4.1-2.96,6.45-1.7
		c-0.84,0.99-0.69,1.91,0.1,2.9C554.08,76.71,555.04,75.73,556.19,75.41z"/>
	<path class="st0" d="M558.23,93.26c0.47,0.93,0.94,1.87,1.62,3.2c-0.81-0.38-1.33-0.5-1.68-0.81c-1.83-1.6-2.94-3.62-3.12-6.06
		c-0.21-2.93,1.59-4.72,4.54-4.58c0.77,0.04,1.52,0.2,2.38,0.32c0.17-0.46,0.31-0.86,0.52-1.43c-1.31-0.27-2.45-0.51-3.86-0.81
		c1.46-1.3,2.83-0.47,4.31-0.67c1.37-7.94,0.48-15.64-3.07-23.04c1.37-0.31,1.57,0.46,1.88,1.03c1.95,3.63,2.93,7.56,3.01,11.63
		c0.07,3.63-0.29,7.27-0.48,11.28c0.32,0.22,0.99,0.7,1.68,1.19c-1.04,0.94-2.47-1.17-2.87,1.11c2.51,1.17,5.06,2.42,6.76,5.25
		c-1.27,0.13-1.68-0.62-2.2-1.07c-1.93-1.66-4.08-2.87-6.59-3.3c-1.44-0.24-3.03-0.59-4.11,0.81c-1.04,1.35-0.55,2.84,0.07,4.2
		c0.3,0.67,0.86,1.23,1.3,1.83L558.23,93.26z"/>
	<path class="st0" d="M574.67,48.23c3.55,0.24,6.87,1.19,9.67,3.26c1.83,1.35,3.31,3.21,4.82,4.96c0.89,1.03,1.12,2.37,1,3.74
		c-0.18,1.92-1.68,3.09-3.58,2.67c-2.09-0.47-3.94-1.44-5.46-2.97c-0.27-0.28-0.59-0.53-0.8-0.85c-1.79-2.71-4.26-4.18-7.52-4.47
		c-0.95-0.09-1.97-0.56-2.76-1.13c-1.87-1.36-1.6-3.54,0.56-4.33C571.89,48.62,573.31,48.51,574.67,48.23z M569.99,50.98
		c0.7,2,2.2,2.41,3.62,2.57c3.06,0.35,5.39,1.72,7.25,4.14c1.24,1.61,2.79,2.98,4.81,3.53c0.83,0.22,1.97,0.39,2.6-0.01
		c1.03-0.65,0.81-1.91,0.4-2.97c-0.19-0.5-0.38-1.07-0.75-1.43c-1.75-1.74-3.36-3.75-5.41-5.03c-3.01-1.88-6.49-2.58-10.08-1.85
		C571.6,50.1,570.83,50.6,569.99,50.98z"/>
	<path class="st0" d="M564.01,90.8c1.92-0.02,2.23,0.28,2.58,2.32C564.89,93.01,564.78,92.91,564.01,90.8z"/>
	<path class="st0" d="M558.31,93.34c0.01-0.88,0.03-1.75,0.04-2.77c1.58,0.81,1.96,1.44,1.61,2.32c-0.38,0.95-1.05,0.7-1.73,0.37
		L558.31,93.34z"/>
	<path class="st0" d="M453.49,41.74c1.93,0.75,2.6,2.02,3.14,3.26c2.19,5.05,4.53,10.07,6.37,15.25c2.78,7.85,4.59,15.97,5.74,24.22
		c0.14,0.98,0.92,2.5-0.64,2.71c-1.28,0.17-1.13-1.44-1.26-2.35c-1.91-13.65-5.74-26.71-11.81-39.09c-0.38-0.77-0.82-1.5-1.17-2.28
		C453.68,43.07,453.67,42.62,453.49,41.74z"/>
	<path class="st0" d="M585.65,196.08c0.25,1.25,0.41,2.48-0.6,3.79C584.13,198.24,584.94,197.17,585.65,196.08z"/>
	<path class="st0" d="M582.99,205.57c0.52-0.91,0.89-1.54,1.33-2.31C584.98,205.13,584.72,205.65,582.99,205.57z"/>
	<path class="st0" d="M586.2,190.14c0.07,0.71,0.14,1.43,0.23,2.44c-1.56-0.74-1-1.6-0.87-2.36
		C585.77,190.18,585.99,190.16,586.2,190.14z"/>
	<path class="st0" d="M557,198.21c0,1.3,0,2.59,0,4.36c-1.17-1.69-1.29-3-0.6-4.38C556.6,198.19,556.8,198.2,557,198.21z"/>
	<path class="st0" d="M556.93,195.25c-0.59-1.27-0.91-2.54,0.22-3.91C558.11,192.85,556.97,194.02,556.93,195.25z"/>
	<path class="st0" d="M557.44,188.83c-0.21-1.58-0.21-2.97,0.72-4.26C558.89,185.68,558.7,186.77,557.44,188.83z"/>
	<path class="st0" d="M566.94,209.29c-0.42,0-0.83,0-1.25,0c-0.01-0.13-0.02-0.25-0.02-0.38c0.44-0.04,0.88-0.07,1.32-0.11
		C566.97,208.97,566.96,209.13,566.94,209.29z"/>
	<path class="st0" d="M148.18,86.09c0.28,0.95,0.47,1.57,0.69,2.32c0.49-0.21,0.95-0.48,1.45-0.59c0.45-0.1,0.95-0.02,1.81-0.02
		c-1.32,1.1-2.41,1.82-3.24,2.76c-0.79,0.9-1.32,2.05-2.08,3.28c-0.36-1.68,0.68-2.69,1.07-3.89
		C148.25,88.83,146.84,87.65,148.18,86.09z"/>
	<path class="st0" d="M617.65,75.16c0.57,2.89-1.71,3.62-3.68,4.76c0,0.42,0,0.92,0,1.9c-0.58-0.77-0.97-1.12-1.15-1.57
		c-0.7-1.68-0.43-2.7,1.13-4.2c0,0.56,0.01,0.95,0,1.35c-0.01,0.36-0.05,0.72-0.09,1.27C615.78,77.96,616.71,76.61,617.65,75.16z"/>
</g>
</svg>
