<?xml version="1.0" encoding="utf-8"?>
<!-- Generator: Adobe Illustrator 23.0.2, SVG Export Plug-In . SVG Version: 6.00 Build 0)  -->
<svg version="1.1" id="Layer_1" xmlns="http://www.w3.org/2000/svg" xmlns:xlink="http://www.w3.org/1999/xlink" x="0px" y="0px"
	 viewBox="0 0 500 500" style="enable-background:new 0 0 500 500;" xml:space="preserve">
<style type="text/css">
	.st0{fill:#FFFFFF;}
</style>
<g>
	<g>
		<g>
			<path class="st0" d="M431.1,442.3H69c-38,0-69-30.9-69-69V126.7c0-38,30.9-69,69-69h362c38,0,69,30.9,69,69v246.7
				C500.1,411.4,469.2,442.3,431.1,442.3z M69,78.8c-26.4,0-47.9,21.4-47.9,47.8v246.7c0,26.4,21.4,47.8,47.9,47.8h362
				c26.4,0,47.9-21.4,47.9-47.8V126.6c0-26.4-21.4-47.8-47.9-47.8H69z"/>
		</g>
	</g>
	<g>
		<g>
			<polygon class="st0" points="243.9,373.7 103.7,263.6 21.5,332.6 8,316.4 103.2,236.4 240.1,343.9 390.2,149 498.7,338.6 
				480.4,349.1 387.6,187 			"/>
		</g>
	</g>
	<g>
		<g>
			<path class="st0" d="M159.2,224.8c-35.3,0-64-28.7-64-64s28.7-64,64-64s64,28.7,64,64S194.5,224.8,159.2,224.8z M159.2,117.9
				c-23.7,0-43,19.3-43,43s19.3,43,43,43s43-19.3,43-43S182.8,117.9,159.2,117.9z"/>
		</g>
	</g>
</g>
</svg>
