<?xml version="1.0" encoding="utf-8"?>
<!-- Generator: Adobe Illustrator 23.0.2, SVG Export Plug-In . SVG Version: 6.00 Build 0)  -->
<svg version="1.1" id="Layer_1" xmlns="http://www.w3.org/2000/svg" xmlns:xlink="http://www.w3.org/1999/xlink" x="0px" y="0px"
	 viewBox="0 0 500 500" style="enable-background:new 0 0 500 500;" xml:space="preserve">
<style type="text/css">
	.st0{fill:#FFFFFF;}
</style>
<g>
	<g>
		<g>
			<path class="st0" d="M52.2,370.2l185.6,125.3c3.1,2.3,6.6,3.6,10.1,4.2c0.1,0,0.3,0,0.4,0c1.2,0.2,2.5,0.3,3.7,0.3
				s2.5-0.1,3.7-0.3c0.1,0,0.3,0,0.4,0c3.5-0.6,6.9-1.9,10.1-4.2L448,364.9c11.1-8.1,13.8-24,6.1-35.6L435,301
				c-7.8-11.6-23-14.4-34-6.4l-108.1,77L291,25.5C290.9,11.5,280,0,266.5,0h-33.1C219.9,0,209,11.5,209,25.5l1.9,346.1L99.1,299.9
				c-11.1-8.1-26.4-5.2-34,6.4l-18.9,28.3C38.3,346.2,41,362.1,52.2,370.2z"/>
		</g>
	</g>
</g>
</svg>
