<?xml version="1.0" encoding="utf-8"?>
<!-- Generator: Adobe Illustrator 23.0.2, SVG Export Plug-In . SVG Version: 6.00 Build 0)  -->
<svg version="1.1" id="Layer_1" xmlns="http://www.w3.org/2000/svg" xmlns:xlink="http://www.w3.org/1999/xlink" x="0px" y="0px"
	 viewBox="0 0 500 500" style="enable-background:new 0 0 500 500;" xml:space="preserve">
<style type="text/css">
	.st0{fill:none;}
	.st1{fill:#FFFFFF;}
</style>
<path class="st0" d="M250.1,286.8c-19.5,0-35.4,16-35.4,35.7c0,12.9,6.8,24,16.9,30.3v27.6c0,4.1,3.4,7.4,7.4,7.4h22.1
	c4.1,0,7.4-3.3,7.4-7.4v-27.6c10.1-6.3,16.9-17.4,17-30.3C285.5,302.8,269.6,286.8,250.1,286.8z"/>
<path class="st1" d="M406.9,200H395h-63.6H308H168.7v-53.9c0-45.2,36.5-82,81.4-82c42.1,0,76.9,32.4,81,73.8h63.7
	C390.4,61.1,327.2,0,250,0c-79.9,0-144.9,65.5-144.9,146.1V200H93.2c-24.3,0-44.1,19.9-44.1,44.5v211c0,24.6,19.7,44.5,44.1,44.5
	h313.7c24.3,0,44.1-19.9,44.1-44.5v-211C451,219.9,431.3,200,406.9,200z M268.5,352.8v27.6c0,4.1-3.3,7.4-7.4,7.4H239
	c-4,0-7.4-3.3-7.4-7.4v-27.6c-10.1-6.3-16.9-17.4-16.9-30.3c0-19.7,15.9-35.7,35.4-35.7s35.4,16,35.4,35.7
	C285.4,335.4,278.6,346.5,268.5,352.8z"/>
</svg>
