<?xml version="1.0" encoding="utf-8"?>
<!-- Generator: Adobe Illustrator 23.0.2, SVG Export Plug-In . SVG Version: 6.00 Build 0)  -->
<svg version="1.1" id="Layer_1" xmlns="http://www.w3.org/2000/svg" xmlns:xlink="http://www.w3.org/1999/xlink" x="0px" y="0px"
	 viewBox="0 0 500 500" style="enable-background:new 0 0 500 500;" xml:space="preserve">
<style type="text/css">
	.st0{fill:#FFFFFF;}
</style>
<g>
	<g>
		<g>
			<g>
				<path class="st0" d="M344.4,194.1H164.7l-24-42.3l0,0c-3.8-8.7-12.5-14.8-22.6-14.8H24.7C11.1,137,0,148.1,0,161.8v65.1v5.5
					v184.3c0,18,14.6,32.7,32.7,32.7h311.8c18,0,32.7-14.6,32.7-32.7V226.8C377.1,208.8,362.5,194.1,344.4,194.1z"/>
			</g>
		</g>
	</g>
	<g>
		<path class="st0" d="M432.4,50.7c-37.3,0-67.6,30.3-67.6,67.6s30.3,67.6,67.6,67.6s67.6-30.3,67.6-67.6S469.7,50.7,432.4,50.7z
			 M479.9,129.6h-36.2v36.2c0,4.1-3.4,7.4-7.4,7.4h-7.6c-4.1,0-7.4-3.4-7.4-7.4v-36.2h-36.2c-4.1,0-7.4-3.4-7.4-7.4v-7.6
			c0-4.1,3.4-7.4,7.4-7.4h36.2V71c0-4.1,3.4-7.4,7.4-7.4h7.6c4.1,0,7.4,3.4,7.4,7.4v36.2h36.2c4.1,0,7.4,3.4,7.4,7.4v7.6
			C487.3,126.2,484,129.6,479.9,129.6z"/>
	</g>
</g>
</svg>
