<?xml version="1.0" encoding="utf-8"?>
<!-- Generator: Adobe Illustrator 23.0.2, SVG Export Plug-In . SVG Version: 6.00 Build 0)  -->
<svg version="1.1" id="Layer_1" xmlns="http://www.w3.org/2000/svg" xmlns:xlink="http://www.w3.org/1999/xlink" x="0px" y="0px"
	 viewBox="0 0 500 500" style="enable-background:new 0 0 500 500;" xml:space="preserve">
<style type="text/css">
	.st0{fill:#FFFFFF;}
</style>
<g>
	<path class="st0" d="M80.1,83.5H36.3V58.6c0-8.9,7.2-16.1,16.1-16.1H64c8.9,0,16.1,7.2,16.1,16.1V83.5z"/>
	<path class="st0" d="M465.7,83.5h-45V58.6c0-8.9,7.2-16.1,16.1-16.1h12.8c8.9,0,16.1,7.2,16.1,16.1V83.5L465.7,83.5z"/>
	<g>
		<path class="st0" d="M0,175.6v259.7c0,12.2,9.9,22.1,22.1,22.1h455.7c12.2,0,22.1-9.9,22.1-22.1V175.6H0z M123.4,413.2H35.8v-87.6
			h87.6C123.4,325.6,123.4,413.2,123.4,413.2z M123.4,300.2H35.8v-87.5h87.6C123.4,212.7,123.4,300.2,123.4,300.2z M236.9,413.2
			h-87.5v-87.6H237L236.9,413.2L236.9,413.2z M236.9,300.2h-87.5v-87.5H237L236.9,300.2L236.9,300.2z M350.5,413.2h-87.6v-87.6h87.6
			V413.2z M350.5,300.2h-87.6v-87.5h87.6V300.2z M464.1,413.2h-87.6v-87.6h87.6V413.2z M464.1,300.2h-87.6v-87.5h87.6V300.2z"/>
	</g>
	<path class="st0" d="M475.6,83.5h-10v11.2c0,8.9-7.2,16.1-16.1,16.1h-12.8c-8.9,0-16.1-7.2-16.1-16.1V83.5H80.1v11.2
		c0,8.9-7.2,16.1-16.1,16.1H52.3c-8.9,0-16.1-7.2-16.1-16.1V83.5H24.3C10.9,83.5,0,94.3,0,107.8v52.6h500v-52.6
		C499.9,94.4,489,83.5,475.6,83.5z"/>
</g>
</svg>
