<?xml version="1.0" encoding="utf-8"?>
<!-- Generator: Adobe Illustrator 23.0.2, SVG Export Plug-In . SVG Version: 6.00 Build 0)  -->
<svg version="1.1" id="Layer_1" xmlns="http://www.w3.org/2000/svg" xmlns:xlink="http://www.w3.org/1999/xlink" x="0px" y="0px"
	 viewBox="0 0 500 500" style="enable-background:new 0 0 500 500;" xml:space="preserve">
<style type="text/css">
	.st0{fill:#FFFFFF;}
</style>
<g>
	<g>
		<g>
			<g>
				<path class="st0" d="M458.3,500H41.7c-12.8,0-23.2-10.4-23.2-23.2v-27.9c0-12.8,10.4-23.2,23.2-23.2h416.7
					c12.8,0,23.2,10.4,23.2,23.2v27.9C481.5,489.6,471.1,500,458.3,500z"/>
			</g>
		</g>
	</g>
	<g>
		<g>
			<g>
				<path class="st0" d="M452.3,136L262.9,4c-2.8-2-5.9-3.1-9.1-3.6c-0.1,0-0.3,0-0.4-0.1C252.2,0.1,251.2,0,250,0
					c-1.1,0-2.2,0.1-3.3,0.3c-0.1,0-0.3,0-0.4,0.1C243.1,0.9,240,2,237.2,4L47.8,136c-10,7-12.5,20.8-5.5,30.8l17.1,24.5
					c7,10,20.8,12.5,30.8,5.5L213,111.3v239.8c0,12.2,9.9,22.2,22.2,22.2H265c12.2,0,22.2-9.9,22.2-22.2V111.3l122.7,85.5
					c10,7,23.9,4.5,30.8-5.5l17.1-24.5C464.8,156.9,462.3,143,452.3,136z"/>
			</g>
		</g>
	</g>
</g>
</svg>
