<?xml version="1.0" encoding="utf-8"?>
<!-- Generator: Adobe Illustrator 23.0.2, SVG Export Plug-In . SVG Version: 6.00 Build 0)  -->
<svg version="1.1" id="Layer_1" xmlns="http://www.w3.org/2000/svg" xmlns:xlink="http://www.w3.org/1999/xlink" x="0px" y="0px"
	 viewBox="0 0 500 500" style="enable-background:new 0 0 500 500;" xml:space="preserve">
<style type="text/css">
	.st0{fill:#FFFFFF;}
</style>
<g>
	<g>
		<path class="st0" d="M177.6,36.5H62.9c-13.4,0-24.4,11-24.4,24.4v76.3l22-18.4l53.9,42.3l59.1-76.8l28.6,50V60.8
			C202,47.5,191,36.5,177.6,36.5z M82.5,114.3c-13.9,0-25.2-11.3-25.2-25.2s11.3-25.2,25.2-25.2s25.2,11.3,25.2,25.2
			C107.7,102.9,96.4,114.3,82.5,114.3z"/>
		<path class="st0" d="M201.8,0H38.7C18.3,0,1.9,16.4,1.9,36.8V200c0,20.3,16.4,36.8,36.8,36.8h163.2c20.4,0,36.9-16.5,36.8-36.8
			V36.8C238.6,16.5,222.2,0,201.8,0z M219.4,175.8c0.1,23.1-18.7,41.8-41.7,41.8H63c-23.1,0-41.8-18.8-41.8-41.8V61
			C21.1,37.9,40,19.1,63,19.1h114.8c23.1,0,41.8,18.8,41.8,41.9L219.4,175.8L219.4,175.8z"/>
		<circle class="st0" cx="82.5" cy="89" r="16.9"/>
		<path class="st0" d="M115.9,172.8l-55.2-43.3l-22.2,18.6v27.6c0,13.4,11,24.4,24.4,24.4h114.8c13.4,0,24.4-11,24.4-24.4v-24.5
			l-29.6-51.8L115.9,172.8z"/>
	</g>
	<g>
		<path class="st0" d="M177.6,299.8H62.9c-13.4,0-24.4,11-24.4,24.4v76.3l22-18.4l53.9,42.3l59.1-76.8l28.6,50v-73.5
			C202,310.8,191,299.8,177.6,299.8z M82.5,377.5c-13.9,0-25.2-11.3-25.2-25.2c0-13.9,11.3-25.2,25.2-25.2s25.2,11.3,25.2,25.2
			S96.4,377.5,82.5,377.5z"/>
		<path class="st0" d="M201.8,263.2H38.7c-20.3,0-36.8,16.4-36.8,36.8v163.2c0,20.3,16.4,36.8,36.8,36.8h163.2
			c20.4,0,36.9-16.5,36.8-36.8V300C238.6,279.7,222.2,263.2,201.8,263.2z M219.4,439c0.1,23.1-18.7,41.8-41.7,41.8H63
			c-23.1,0-41.8-18.8-41.8-41.8V324.3c0-23.1,18.8-41.9,41.8-41.9h114.8c23.1,0,41.8,18.8,41.8,41.9L219.4,439L219.4,439z"/>
		<circle class="st0" cx="82.5" cy="352.4" r="16.9"/>
		<path class="st0" d="M115.9,436.1l-55.2-43.3l-22.2,18.6V439c0,13.4,11,24.4,24.4,24.4h114.8c13.4,0,24.4-11,24.4-24.4v-24.5
			l-29.6-51.9L115.9,436.1z"/>
	</g>
	<g>
		<path class="st0" d="M437.1,36.5H322.4c-13.4,0-24.4,11-24.4,24.4v76.3l22-18.4l53.9,42.3L433,84.3l28.6,50V60.8
			C461.5,47.5,450.5,36.5,437.1,36.5z M341.9,114.3c-13.9,0-25.2-11.3-25.2-25.2s11.3-25.2,25.2-25.2c13.9,0,25.2,11.3,25.2,25.2
			C367.2,102.9,355.9,114.3,341.9,114.3z"/>
		<path class="st0" d="M461.3,0H298.2c-20.3,0-36.8,16.4-36.8,36.8V200c0,20.3,16.4,36.8,36.8,36.8h163.2
			c20.4,0,36.9-16.5,36.8-36.8V36.8C498.1,16.5,481.7,0,461.3,0z M478.9,175.8c0.1,23.1-18.7,41.8-41.7,41.8H322.4
			c-23.1,0-41.8-18.8-41.8-41.8V61c0-23.1,18.8-41.9,41.8-41.9h114.8c23.1,0,41.8,18.8,41.8,41.9L478.9,175.8L478.9,175.8z"/>
		<circle class="st0" cx="341.9" cy="89" r="16.9"/>
		<path class="st0" d="M375.3,172.8L320,129.5l-22.2,18.6v27.6c0,13.4,11,24.4,24.4,24.4H437c13.4,0,24.4-11,24.4-24.4v-24.5
			l-29.6-51.8L375.3,172.8z"/>
	</g>
	<g>
		<path class="st0" d="M437.1,299.8H322.4c-13.4,0-24.4,11-24.4,24.4v76.3l22-18.4l53.9,42.3l59.1-76.8l28.6,50v-73.5
			C461.5,310.8,450.5,299.8,437.1,299.8z M341.9,377.5c-13.9,0-25.2-11.3-25.2-25.2c0-13.9,11.3-25.2,25.2-25.2
			c13.9,0,25.2,11.3,25.2,25.2C367.2,366.2,355.9,377.5,341.9,377.5z"/>
		<path class="st0" d="M461.3,263.2H298.2c-20.3,0-36.8,16.4-36.8,36.8v163.2c0,20.3,16.4,36.8,36.8,36.8h163.2
			c20.4,0,36.9-16.5,36.8-36.8V300C498.1,279.7,481.7,263.2,461.3,263.2z M478.9,439c0.1,23.1-18.7,41.8-41.7,41.8H322.4
			c-23.1,0-41.8-18.8-41.8-41.8V324.3c0-23.1,18.8-41.9,41.8-41.9h114.8c23.1,0,41.8,18.8,41.8,41.9L478.9,439L478.9,439z"/>
		<circle class="st0" cx="341.9" cy="352.4" r="16.9"/>
		<path class="st0" d="M375.3,436.1L320,392.8l-22.2,18.6V439c0,13.4,11,24.4,24.4,24.4H437c13.4,0,24.4-11,24.4-24.4v-24.5
			l-29.6-51.8L375.3,436.1z"/>
	</g>
</g>
</svg>
