<?xml version="1.0" encoding="utf-8"?>
<!-- Generator: Adobe Illustrator 23.0.2, SVG Export Plug-In . SVG Version: 6.00 Build 0)  -->
<svg version="1.1" id="Layer_1" xmlns="http://www.w3.org/2000/svg" xmlns:xlink="http://www.w3.org/1999/xlink" x="0px" y="0px"
	 viewBox="0 0 500 500" style="enable-background:new 0 0 500 500;" xml:space="preserve">
<style type="text/css">
	.st0{fill-rule:evenodd;clip-rule:evenodd;fill:#FFFFFF;}
	.st1{fill:#FFFFFF;}
</style>
<g>
	<g>
		<g>
			<g>
				<path class="st0" d="M453.9,67.7C389.2-1.8,280.3-5.7,210.8,59c-60.1,56-71.1,144.8-31.2,212.8l-0.2-0.3L5.9,433
					c-7.5,7-7.9,18.8-0.9,26.2l20.5,22c7,7.5,18.8,7.9,26.2,0.9l172.4-160.5c65.4,49.8,158.9,46.9,221.2-10.9
					C514.7,246.2,518.6,137.3,453.9,67.7z M413.4,276.8c-50.7,47.2-130,44.4-177.3-6.4c-47.2-50.7-44.4-130,6.4-177.3
					c50.7-47.2,130-44.4,177.3,6.4C467,150.2,464.1,229.6,413.4,276.8z"/>
			</g>
		</g>
	</g>
	<g>
		<path class="st1" d="M403.3,166.2h-56.6v-56.6c0-8.7-7.1-15.9-15.9-15.9h-5.7c-8.7,0-15.9,7.1-15.9,15.9v56.6h-56.6
			c-8.7,0-15.9,7.1-15.9,15.9v5.7c0,8.7,7.1,15.9,15.9,15.9h56.6v56.6c0,8.7,7.1,15.9,15.9,15.9h5.7c8.7,0,15.9-7.1,15.9-15.9v-56.6
			h56.6c8.7,0,15.9-7.1,15.9-15.9v-5.7C419.2,173.4,412.1,166.2,403.3,166.2z"/>
	</g>
</g>
</svg>
