<?xml version="1.0" encoding="utf-8"?>
<!-- Generator: Adobe Illustrator 23.0.2, SVG Export Plug-In . SVG Version: 6.00 Build 0)  -->
<svg version="1.1" id="Layer_1" xmlns="http://www.w3.org/2000/svg" xmlns:xlink="http://www.w3.org/1999/xlink" x="0px" y="0px"
	 viewBox="0 0 500 500" style="enable-background:new 0 0 500 500;" xml:space="preserve">
<style type="text/css">
	.st0{fill:#FFFFFF;}
</style>
<g>
	<g>
		<g>
			<path class="st0" d="M250,259.9c-52.1,0-94.5-42.4-94.5-94.5s42.4-94.5,94.5-94.5s94.5,42.4,94.5,94.5
				C344.5,217.4,302.1,259.9,250,259.9z M250,90.1c-41.5,0-75.3,33.7-75.3,75.3s33.7,75.3,75.3,75.3s75.3-33.7,75.3-75.3
				S291.4,90.1,250,90.1z"/>
		</g>
	</g>
	<g>
		<g>
			<path class="st0" d="M253,500c-9.8,0-19.2-4.6-25.6-12.6c-47.3-58.9-157-205.2-157-290.3C70.4,88.5,151,0,250,0
				s179.6,88.5,179.6,197.1c0,84.9-105.2,230.9-150.5,289.7c-6.4,8.3-15.7,13.1-25.8,13.2C253.3,500,253.1,500,253,500z M250,19.2
				C161.5,19.2,89.6,99,89.6,197.1c0,81.2,117,233.5,152.8,278.2c2.8,3.4,6.6,5.4,10.6,5.4c0.1,0,0.1,0,0.2,0c4.1,0,7.9-2,10.6-5.7
				c34.4-44.6,146.5-196.7,146.5-277.9C410.4,99.1,338.4,19.2,250,19.2z"/>
		</g>
	</g>
</g>
</svg>
