<?xml version="1.0" encoding="utf-8"?>
<!-- Generator: Adobe Illustrator 23.0.2, SVG Export Plug-In . SVG Version: 6.00 Build 0)  -->
<svg version="1.1" id="Layer_1" xmlns="http://www.w3.org/2000/svg" xmlns:xlink="http://www.w3.org/1999/xlink" x="0px" y="0px"
	 viewBox="0 0 500 500" style="enable-background:new 0 0 500 500;" xml:space="preserve">
<style type="text/css">
	.st0{fill:#FFFFFF;}
</style>
<g>
	<g>
		<g>
			<path class="st0" d="M434.1,480.8H55.8v-20.1h378.3c25.2,0,45.8-20.5,45.8-45.8V85.1c0-25.2-20.5-45.8-45.8-45.8H157.4
				c-25.2,0-45.8,20.5-45.8,45.8H91.5c0-36.3,29.6-65.9,65.9-65.9h276.7c36.3,0,65.9,29.6,65.9,65.9v329.8
				C500,451.3,470.4,480.8,434.1,480.8z"/>
		</g>
	</g>
	<g>
		<g>
			<path class="st0" d="M55.8,480.8C25,480.8,0,456.8,0,427.2v-341h20.1v341c0,18.4,15.9,33.4,35.6,33.4s35.6-15,35.6-33.4
				l0.2-342.1h20.1l-0.2,342.1C111.6,456.8,86.6,480.8,55.8,480.8z"/>
		</g>
	</g>
	<g>
		<g>
			<rect x="47.3" y="50.4" class="st0" width="20.1" height="381.8"/>
		</g>
	</g>
	<g>
		<g>
			<rect x="141.1" y="74.7" class="st0" width="307.7" height="20.1"/>
		</g>
	</g>
	<g>
		<g>
			<rect x="141.1" y="140.8" class="st0" width="307.7" height="20.1"/>
		</g>
	</g>
	<g>
		<g>
			<rect x="141.1" y="405.2" class="st0" width="307.7" height="20.1"/>
		</g>
	</g>
	<g>
		<g>
			<rect x="141.1" y="206.9" class="st0" width="153.9" height="20.1"/>
		</g>
	</g>
	<g>
		<g>
			<rect x="141.1" y="273" class="st0" width="153.9" height="20.1"/>
		</g>
	</g>
	<g>
		<g>
			<rect x="141.1" y="339.1" class="st0" width="153.9" height="20.1"/>
		</g>
	</g>
	<g>
		<g>
			<path class="st0" d="M421.5,372.6h-63.9c-20.7,0-37.4-16.8-37.4-37.4V232.5c0-20.7,16.8-37.4,37.4-37.4h63.9
				c20.7,0,37.4,16.8,37.4,37.4v102.7C458.9,355.8,442.1,372.6,421.5,372.6z M357.6,215.3c-9.5,0-17.2,7.7-17.2,17.2v102.7
				c0,9.5,7.7,17.2,17.2,17.2h63.9c9.5,0,17.2-7.7,17.2-17.2V232.5c0-9.5-7.7-17.2-17.2-17.2H357.6z"/>
		</g>
	</g>
</g>
</svg>
