<?xml version="1.0" encoding="utf-8"?>
<!-- Generator: Adobe Illustrator 23.0.2, SVG Export Plug-In . SVG Version: 6.00 Build 0)  -->
<svg version="1.1" id="Layer_1" xmlns="http://www.w3.org/2000/svg" xmlns:xlink="http://www.w3.org/1999/xlink" x="0px" y="0px"
	 viewBox="0 0 500 500" style="enable-background:new 0 0 500 500;" xml:space="preserve">
<style type="text/css">
	.st0{fill:#FFFFFF;}
</style>
<g>
	<g>
		<g>
			<path class="st0" d="M44,344.6L0.1,495.9c-0.4,1.5,0.8,2.8,2.3,2.4l156.1-41.8L44,344.6z"/>
		</g>
	</g>
	<g>
		<g>
			<path class="st0" d="M491.1,96.7l-86.2-86.2c-11.9-11.9-31.3-11.9-43.2,0l-38,38L458,173.1l33-33C503,128,503,108.6,491.1,96.7z"
				/>
		</g>
	</g>
	<g>
		<g>
			<path class="st0" d="M309.6,64.5c-1.9,0.7-3.6,1.7-5.2,3.2L54.3,317.8c-1.1,1.1-1.9,2.4-2.6,3.7l130,127.1c0.7-0.5,1.4-0.9,2-1.5
				L433.9,197c2.8-2.8,4.1-6.5,4.3-10.1c1.1,0.2,2.3,0.1,3.4-0.1L309.6,64.5z"/>
		</g>
	</g>
</g>
</svg>
