<?xml version="1.0" encoding="utf-8"?>
<!-- Generator: Adobe Illustrator 23.0.2, SVG Export Plug-In . SVG Version: 6.00 Build 0)  -->
<svg version="1.1" id="Layer_1" xmlns="http://www.w3.org/2000/svg" xmlns:xlink="http://www.w3.org/1999/xlink" x="0px" y="0px"
	 viewBox="0 0 500 500" style="enable-background:new 0 0 500 500;" xml:space="preserve">
<style type="text/css">
	.st0{fill:#FFFFFF;}
</style>
<g>
	<g>
		<g>
			<path class="st0" d="M250,500C112.1,500,0,387.9,0,250C0,112.2,112.1,0,250,0s250,112.1,250,250S387.9,500,250,500z M250,22.8
				C124.7,22.8,22.9,124.7,22.9,250s102,227.1,227.1,227.1s227.1-102,227.1-227.1S375.3,22.8,250,22.8z"/>
		</g>
	</g>
	<g>
		<g>
			<rect x="233.8" y="14.2" class="st0" width="22.8" height="477.1"/>
		</g>
	</g>
	<g>
		<g>
			<path class="st0" d="M144.3,465.5c-67.5-143.3-67.4-288.4,0.4-431.7c2.1-4.4,26.8-2.9,26.8-2.9c-73,145.5-73,293,0,438.5
				C171.5,469.4,146.5,470.2,144.3,465.5z"/>
		</g>
	</g>
	<g>
		<g>
			<path class="st0" d="M329,468c98.9-142.3,98.8-285-0.2-436c0,0,24.7-3.7,27.4,0.6c92.3,149,91.9,296-1.1,437.3
				C352.7,473.6,329,468,329,468z"/>
		</g>
	</g>
	<g>
		<g>
			<rect x="11.4" y="236.3" class="st0" width="477.1" height="22.8"/>
		</g>
	</g>
	<g>
		<g>
			<path class="st0" d="M471.4,173.8c-151.1-85-294.2-85-437.4-0.1L22.5,154c144.1-85.4,293.9-88.1,445.4-8.1
				C472.8,148.5,471.4,173.8,471.4,173.8z"/>
		</g>
	</g>
	<g>
		<g>
			<path class="st0" d="M249.1,405.3c-76.7,0-152.1-18.1-225.8-54.2l10.1-20.5c141,69,288.6,69,439-0.1c0,0-0.2,25.1-5,27.2
				C393.9,389.4,321,405.3,249.1,405.3z"/>
		</g>
	</g>
</g>
</svg>
