<?xml version="1.0" encoding="utf-8"?>
<!-- Generator: Adobe Illustrator 23.0.2, SVG Export Plug-In . SVG Version: 6.00 Build 0)  -->
<svg version="1.1" id="Layer_1" xmlns="http://www.w3.org/2000/svg" xmlns:xlink="http://www.w3.org/1999/xlink" x="0px" y="0px"
	 viewBox="0 0 500 500" style="enable-background:new 0 0 500 500;" xml:space="preserve">
<style type="text/css">
	.st0{fill:#FFFFFF;}
</style>
<g>
	<g>
		<g>
			<g>
				<path class="st0" d="M326.7,439.7H37.3C16.2,439.7-1,422.5-1,401.4V164.8c0-17.1,13.9-30.9,30.9-30.9h86.7
					c7.2,0,14.1,2.5,19.4,6.9l1.1-2.2l4.9,8.7c0.9,1.4,1.8,2.8,2.5,4.4l19.9,35.1h162.3c21.1,0,38.3,17.2,38.3,38.3v176.2
					C365,422.6,347.9,439.7,326.7,439.7z M29.9,149.9c-8.3,0-15,6.7-15,15v236.6c0,12.3,10,22.3,22.3,22.3h289.4
					c12.3,0,22.3-10,22.3-22.3V225.2c0-12.3-10-22.3-22.3-22.3H155.2L138,172.5l-0.9,1.8l-6.8-15.5c-2.4-5.4-7.8-8.9-13.7-8.9
					L29.9,149.9L29.9,149.9z"/>
			</g>
		</g>
	</g>
	<g>
		<path class="st0" d="M433,196.2c-37.5,0-68-30.5-68-68s30.5-68,68-68s68,30.5,68,68C501,165.8,470.5,196.2,433,196.2z M433,64.6
			c-35.1,0-63.6,28.6-63.6,63.6s28.6,63.6,63.6,63.6c35.1,0,63.6-28.6,63.6-63.6S468.1,64.6,433,64.6z M436.8,183.9h-7.4
			c-5.2,0-9.4-4.2-9.4-9.4v-33.1h-33.1c-5.2,0-9.4-4.2-9.4-9.4v-7.4c0-5.2,4.2-9.4,9.4-9.4H420V82c0-5.2,4.2-9.4,9.4-9.4h7.4
			c5.2,0,9.4,4.2,9.4,9.4v33.1h33.1c5.2,0,9.4,4.2,9.4,9.4v7.4c0,5.2-4.2,9.4-9.4,9.4h-33.1v33.1
			C446.2,179.7,441.9,183.9,436.8,183.9z M386.8,119.5c-2.8,0-5.1,2.3-5.1,5.1v7.4c0,2.8,2.3,5.1,5.1,5.1h37.4v37.4
			c0,2.8,2.3,5.1,5.1,5.1h7.4c2.8,0,5.1-2.3,5.1-5.1v-37.4h37.4c2.8,0,5.1-2.3,5.1-5.1v-7.4c0-2.8-2.3-5.1-5.1-5.1h-37.4V82.1
			c0-2.8-2.3-5.1-5.1-5.1h-7.4c-2.8,0-5.1,2.3-5.1,5.1v37.4H386.8z"/>
	</g>
</g>
</svg>
