<?xml version="1.0" encoding="utf-8"?>
<!-- Generator: Adobe Illustrator 23.0.2, SVG Export Plug-In . SVG Version: 6.00 Build 0)  -->
<svg version="1.1" id="Layer_1" xmlns="http://www.w3.org/2000/svg" xmlns:xlink="http://www.w3.org/1999/xlink" x="0px" y="0px"
	 viewBox="0 0 500 500" style="enable-background:new 0 0 500 500;" xml:space="preserve">
<style type="text/css">
	.st0{fill:#FFFFFF;}
</style>
<path class="st0" d="M250.1,268.2c-29.9,0-54.2,24.4-54.2,54.5c0,15,6.2,29.1,16.9,39.3v18.5c0,14.5,11.7,26.2,26.2,26.2h22.1
	c14.4,0,26.2-11.8,26.2-26.2V362c10.7-10.1,16.9-24.2,17-39.3C304.3,292.7,280,268.2,250.1,268.2z M268.5,352.9v27.6
	c0,4.1-3.3,7.4-7.4,7.4H239c-4,0-7.4-3.3-7.4-7.4v-27.6c-10.1-6.3-16.9-17.4-16.9-30.3c0-19.7,15.9-35.7,35.4-35.7
	s35.4,16,35.4,35.7C285.4,335.5,278.7,346.6,268.5,352.9z"/>
<path class="st0" d="M406.9,200H395h-16.2h-2.7h-44.6H308H168.7v-53.9c0-45.2,36.5-82,81.4-82c42.1,0,76.9,32.4,81,73.8h18.8l0,0h26
	l0,0h18.9C390.4,61.1,327.2,0,250,0c-79.9,0-144.9,65.5-144.9,146.1V200H93.2c-24.3,0-44.1,19.9-44.1,44.5v211
	c0,24.6,19.7,44.5,44.1,44.5h313.7c24.3,0,44.1-19.9,44.1-44.5v-211C451.1,219.9,431.3,200,406.9,200z M432.1,455.5
	c0,14.2-11.3,25.7-25.3,25.7H93.2c-14,0-25.3-11.5-25.3-25.7v-211c0-14.1,11.4-25.7,25.3-25.7h11.9h18.8V200v-53.9
	c0-70.2,56.6-127.3,126.1-127.3c60.3,0,110.9,43,123.2,100.3h-26.7C334.8,76.6,296,45.3,250,45.3c-55.3,0-100.1,45.2-100.1,100.8
	V200v18.8h18.8h162.7h44.7h2.7h16.1h11.9c6.7,0,13,2.6,17.8,7.4s7.5,11.3,7.5,18.3V455.5z"/>
</svg>
