<?xml version="1.0" encoding="utf-8"?>
<!-- Generator: Adobe Illustrator 23.0.2, SVG Export Plug-In . SVG Version: 6.00 Build 0)  -->
<svg version="1.1" id="Layer_1" xmlns="http://www.w3.org/2000/svg" xmlns:xlink="http://www.w3.org/1999/xlink" x="0px" y="0px"
	 viewBox="0 0 500 500" style="enable-background:new 0 0 500 500;" xml:space="preserve">
<style type="text/css">
	.st0{fill:#FFFFFF;}
</style>
<g>
	<g>
		<g>
			<path class="st0" d="M368.9,500H141.6c-20.3,0-36.7-16.4-36.7-36.7V144.1h300.7v319.2C405.6,483.5,389.1,500,368.9,500z
				 M123.2,162.5v300.8c0,10.1,8.3,18.4,18.4,18.4h227.3c10.1,0,18.4-8.3,18.4-18.4V162.5H123.2z"/>
		</g>
	</g>
	<g>
		<g>
			<path class="st0" d="M99.4,139.5c-4,0-7.9-1.2-11.2-3.6c-4.2-3-7.1-7.5-7.9-12.6l-5-29.4c-1.4-8.2,0.5-16.4,5.3-23.2
				s12-11.3,20.2-12.7L384,10c16.9-2.8,33,8.6,35.9,25.6l5,29.4c1.8,10.6-5.4,20.6-16,22.4l-306.5,52
				C101.6,139.4,100.5,139.5,99.4,139.5z M389.3,27.8c-0.7,0-1.5,0.1-2.2,0.2L103.8,76c-3.4,0.5-6.3,2.4-8.3,5.2
				c-2,2.8-2.7,6.2-2.2,9.6l5,29.4c0.1,0.5,0.7,1,1.3,0.9l306.5-52c0.5-0.1,1-0.8,0.9-1.2l-5-29.4c-0.5-3.4-2.4-6.3-5.2-8.3
				C394.6,28.7,392,27.8,389.3,27.8z"/>
		</g>
	</g>
	<g>
		<g>
			<path class="st0" d="M210.8,57.9l-4.9-28.8c-0.9-5.5,0.3-11.1,3.6-15.6s8-7.6,13.6-8.5l28.2-4.8c11.4-1.9,22.1,5.8,24.1,17.1
				l4.9,28.8L210.8,57.9z M254.8,18.3c-0.2,0-0.3,0-0.4,0l-28.2,4.8c-0.9,0.2-1.3,0.6-1.6,1s-0.5,1-0.5,1.9l1.8,10.7l33.2-5.6
				l-1.8-10.7C257,19.2,255.9,18.3,254.8,18.3z"/>
		</g>
	</g>
	<g>
		<g>
			<rect x="164.9" y="194.6" class="st0" width="18.3" height="256.6"/>
		</g>
	</g>
	<g>
		<g>
			<rect x="246" y="194.6" class="st0" width="18.3" height="256.6"/>
		</g>
	</g>
	<g>
		<g>
			<rect x="328.2" y="194.6" class="st0" width="18.3" height="256.6"/>
		</g>
	</g>
</g>
</svg>
