<?xml version="1.0" encoding="utf-8"?>
<!-- Generator: Adobe Illustrator 23.0.2, SVG Export Plug-In . SVG Version: 6.00 Build 0)  -->
<svg version="1.1" id="Layer_1" xmlns="http://www.w3.org/2000/svg" xmlns:xlink="http://www.w3.org/1999/xlink" x="0px" y="0px"
	 viewBox="0 0 500 500" style="enable-background:new 0 0 500 500;" xml:space="preserve">
<style type="text/css">
	.st0{fill:#FFFFFF;}
</style>
<g>
	<g>
		<path class="st0" d="M378.8,0H121.2c-33.7,0-61,27.3-61,61v378c0,33.7,27.3,61,61,61h257.6c33.7,0,61-27.3,61-61V61
			C439.7,27.3,412.5,0,378.8,0z M118.4,55.7c0-11,8.9-19.9,19.9-19.9H371c11,0,19.9,8.9,19.9,19.9v72.8c0,11-8.9,19.9-19.9,19.9
			H138.2c-11,0-19.9-8.9-19.9-19.9V55.7H118.4z M147.2,174.9c21.6,0,39,17.5,39,39c0,21.6-17.5,39-39,39c-21.6,0-39.1-17.5-39.1-39
			C108.2,192.4,125.7,174.9,147.2,174.9z M144.1,280.2c21.6,0,39.1,17.5,39.1,39c0,21.6-17.5,39.1-39.1,39.1S105,340.8,105,319.2
			C105.1,297.7,122.6,280.2,144.1,280.2z M289.1,439.2c0,13.4-10.9,24.3-24.3,24.3H129.3c-13.4,0-24.3-10.9-24.3-24.3v-29.8
			c0-13.4,10.9-24.3,24.3-24.3h135.6c13.4,0,24.3,10.9,24.3,24.3v29.8H289.1z M209.4,318.7c0-21.6,17.5-39.1,39.1-39.1
			s39,17.5,39,39.1s-17.5,39.1-39,39.1C226.9,357.9,209.4,340.4,209.4,318.7z M250,252.6c-21.6,0-39.1-17.5-39.1-39.1
			s17.5-39,39.1-39s39,17.5,39,39C289.1,235.1,271.6,252.6,250,252.6z M352.8,463.1c-21.6,0-39-17.5-39-39s17.5-39.1,39-39.1
			c21.6,0,39.1,17.5,39.1,39.1S374.4,463.1,352.8,463.1z M352.8,357.9c-21.6,0-39-17.5-39-39.1s17.5-39.1,39-39.1
			c21.6,0,39.1,17.5,39.1,39.1S374.4,357.9,352.8,357.9z M352.8,252.6c-21.6,0-39-17.5-39-39.1s17.5-39,39-39
			c21.6,0,39.1,17.5,39.1,39C391.9,235.1,374.4,252.6,352.8,252.6z"/>
	</g>
</g>
</svg>
