<?xml version="1.0" encoding="utf-8"?>
<!-- Generator: Adobe Illustrator 23.0.2, SVG Export Plug-In . SVG Version: 6.00 Build 0)  -->
<svg version="1.1" id="Layer_1" xmlns="http://www.w3.org/2000/svg" xmlns:xlink="http://www.w3.org/1999/xlink" x="0px" y="0px"
	 viewBox="0 0 500 500" style="enable-background:new 0 0 500 500;" xml:space="preserve">
<style type="text/css">
	.st0{fill:#FFFFFF;}
</style>
<g>
	<g>
		<path class="st0" d="M450.5,310.3h-401C22.3,310.3,0,288.1,0,260.8v-21.6c0-27.3,22.3-49.5,49.5-49.5h401
			c27.3,0,49.5,22.3,49.5,49.5v21.6C500,288.1,477.7,310.3,450.5,310.3z M49.4,212.3c-14.7,0-26.8,12-26.8,26.8v21.7
			c0,14.7,12,26.8,26.8,26.8h401c14.7,0,26.8-12,26.8-26.8v-21.6c0-14.7-12-26.8-26.8-26.8L49.4,212.3L49.4,212.3z"/>
	</g>
</g>
</svg>
