<?xml version="1.0" encoding="utf-8"?>
<!-- Generator: Adobe Illustrator 23.0.2, SVG Export Plug-In . SVG Version: 6.00 Build 0)  -->
<svg version="1.1" id="Layer_1" xmlns="http://www.w3.org/2000/svg" xmlns:xlink="http://www.w3.org/1999/xlink" x="0px" y="0px"
	 viewBox="0 0 500 500" style="enable-background:new 0 0 500 500;" xml:space="preserve">
<style type="text/css">
	.st0{fill:#FFFFFF;}
</style>
<g>
	<g>
		<g>
			<g>
				<g>
					<path class="st0" d="M344.3,195.2H164.5l-24-42.3l0,0c-3.8-8.7-12.5-14.8-22.6-14.8H24.5c-13.6,0-24.7,11.1-24.7,24.7v65.1v5.5
						v184.3c0,18,14.6,32.7,32.7,32.7h311.8c18,0,32.7-14.7,32.7-32.7V227.9C376.9,209.8,362.3,195.2,344.3,195.2z"/>
				</g>
			</g>
		</g>
	</g>
	<g>
		<g>
			<path class="st0" d="M432.2,51.7c-37.3,0-67.6,30.3-67.6,67.6s30.3,67.6,67.6,67.6s67.6-30.3,67.6-67.6
				C499.8,82,469.5,51.7,432.2,51.7z M479.6,130.6h-36.2v36.2c0,4.1-3.4,7.4-7.4,7.4h-7.6c-4.1,0-7.4-3.4-7.4-7.4v-36.2h-36.2
				c-4.1,0-7.4-3.4-7.4-7.4v-7.6c0-4.1,3.4-7.4,7.4-7.4H421V71.9c0-4.1,3.4-7.4,7.4-7.4h7.6c4.1,0,7.4,3.4,7.4,7.4v36.2h36.2
				c4.1,0,7.4,3.4,7.4,7.4v7.6C487.1,127.2,483.8,130.6,479.6,130.6z"/>
		</g>
	</g>
</g>
</svg>
