<?xml version="1.0" encoding="utf-8"?>
<!-- Generator: Adobe Illustrator 23.0.2, SVG Export Plug-In . SVG Version: 6.00 Build 0)  -->
<svg version="1.1" id="Layer_1" xmlns="http://www.w3.org/2000/svg" xmlns:xlink="http://www.w3.org/1999/xlink" x="0px" y="0px"
	 viewBox="0 0 500 500" style="enable-background:new 0 0 500 500;" xml:space="preserve">
<style type="text/css">
	.st0{fill:#FFFFFF;}
</style>
<g>
	<g>
		<path class="st0" d="M250,152.7c-138,0-250,140-250,140s111.9,140,250,140c138,0,250-140,250-140S388.1,152.7,250,152.7z
			 M250,363.6c-42.7,0-77.3-34.6-77.3-77.3S207.3,209,250,209s77.3,34.6,77.3,77.3S292.7,363.6,250,363.6z"/>
	</g>
</g>
<g>
	
		<rect x="137.6" y="92.4" transform="matrix(0.9656 -0.2601 0.2601 0.9656 -30.7107 43.3388)" class="st0" width="21.6" height="90.6"/>
</g>
<g>
	
		<rect x="48.2" y="152.7" transform="matrix(0.8869 -0.4619 0.4619 0.8869 -84.2752 49.5087)" class="st0" width="21.6" height="88.4"/>
</g>
<g>
	
		<rect x="300.1" y="119.4" transform="matrix(0.2597 -0.9657 0.9657 0.2597 130.0155 429.9704)" class="st0" width="90.6" height="21.6"/>
</g>
<g>
	
		<rect x="390.5" y="179.6" transform="matrix(0.462 -0.8869 0.8869 0.462 65.0543 487.9547)" class="st0" width="88.4" height="21.6"/>
</g>
<g>
	
		<rect x="240.1" y="67.6" transform="matrix(1 -4.873018e-03 4.873018e-03 1 -0.5723 1.2241)" class="st0" width="21.6" height="100.9"/>
</g>
</svg>
