<?xml version="1.0" encoding="utf-8"?>
<!-- Generator: Adobe Illustrator 23.0.2, SVG Export Plug-In . SVG Version: 6.00 Build 0)  -->
<svg version="1.1" id="Layer_1" xmlns="http://www.w3.org/2000/svg" xmlns:xlink="http://www.w3.org/1999/xlink" x="0px" y="0px"
	 viewBox="0 0 500 500" style="enable-background:new 0 0 500 500;" xml:space="preserve">
<style type="text/css">
	.st0{fill:#FFFFFF;}
</style>
<g>
	<g>
		<g>
			<g>
				<path class="st0" d="M200.8,234.3c-47.8,0-86.7-38.9-86.7-86.7s38.9-86.7,86.7-86.7s86.7,38.9,86.7,86.7
					C287.4,195.4,248.6,234.3,200.8,234.3z M200.8,68.7c-43.5,0-78.9,35.4-78.9,78.9s35.4,78.9,78.9,78.9s78.9-35.4,78.9-78.9
					C279.7,104.2,244.3,68.7,200.8,68.7z"/>
			</g>
		</g>
		<g>
			<g>
				<path class="st0" d="M213,458.2l-4.5-13.1c-2-5.8-3.3-11.8-4-17.8c-0.9-8.4-0.1-13.5,0.8-19.3c0.7-4.2,1.4-8.9,1.6-15.8
					c0.5-10.7-0.4-21.4-2.4-31.8c-1.3-6.6-2.9-11.8-4.5-16.6c-1.1,3.7-2.2,7.6-3,12.2c-2,10.3-2.9,21.3-2.4,31.8
					c0.3,7,1.1,11.7,1.6,15.8c0.9,5.9,1.7,10.9,0.8,19.3c-0.7,6.1-2,12.1-4,17.8l-4.5,13.1l-3-13.5c-0.8-3.6-2-9-3.8-15.6
					c-3.7-14.1-6.3-20.8-8.3-26.3c-1.8-4.6-3.1-8.2-4.3-14.2c-1.1-5.3-5.5-33,7.3-59c1.4-2.8,2.5-4.6,3.7-6.6c1.3-2.1,2.7-4.4,5-8.9
					c-5.5-6.9-12.9-11.2-27.2-19.7c-5.5-3.2-10-5.5-13.5-7.5c-8.6-4.6-13.4-7.1-14.7-13.3c-1.8-9,5.7-18.9,13.8-23.6
					c7.3-4.2,16.8-5.1,26.6-2.5c11.8,3.2,22.5,10.9,27.8,20.3c1.3,2.4,1.6,3.6,2,5.8c0.1,0.5,0.2,0.9,0.3,1.6c0.8-3,1.1-4.7,1.4-6
					c0.4-2.2,0.7-3.4,2-5.7c5.3-9.3,16-17.1,27.8-20.3c9.8-2.6,19.3-1.8,26.6,2.4l0,0c8.1,4.7,15.7,14.6,13.8,23.6
					c-1.3,6.3-6.1,8.8-14.7,13.3c-3.6,1.8-8,4.2-13.5,7.5c-14.8,8.7-22.2,13.1-27.8,20.4c-0.7,0.9-1.4,1.9-2,2.8
					c0.7,1.5,1.3,2.7,1.8,3.8c2.7,5.5,4.4,8.1,5.7,10.4c1.2,2,2.3,3.7,3.7,6.6c12.8,26.1,8.3,53.8,7.3,59c-1.2,6.1-2.6,9.6-4.3,14.2
					c-2,5.4-4.6,12.1-8.3,26.2c-1.7,6.5-3,12-3.8,15.6L213,458.2z M200,319.8l5.8,16.5c2.1,6.1,4.6,13.1,6.4,22.5
					c2.2,11,3,22.4,2.6,33.6c-0.3,7.4-1.1,12.3-1.8,16.8c-0.9,5.7-1.6,10-0.8,17.3c0,0.1,0,0.2,0,0.3c3.8-14.2,6.5-21.4,8.4-26.6
					c1.7-4.4,2.9-7.6,4-13c0.6-3,5.4-29.7-6.6-54.2c-1.3-2.6-2.2-4.2-3.3-5.9c-1.5-2.4-3.2-5.2-6.1-11.1c-0.8-1.6-1.8-3.6-2.8-5.9
					l-0.9-1.8l1-1.7c1.1-1.9,2.2-3.6,3.6-5.4c6.5-8.5,14.4-13.1,30-22.4c5.6-3.3,10.2-5.7,13.9-7.7c7.7-4.1,10.2-5.5,10.8-8
					c1.1-5.1-4.4-12-10.1-15.4c-5.5-3.2-12.9-3.8-20.6-1.7c-9.8,2.6-18.8,9.2-23.1,16.6c-0.8,1.4-0.9,1.6-1.1,3.4
					c-0.4,2.1-1.1,5.7-3.6,13.5c-0.5,1.6-1,3-1.5,4.4l-4.4,12.4l-4-12.4c-2.4-7.8-3.2-11.3-3.6-13.5c-0.3-1.7-0.4-2-1.2-3.4
					c-4.2-7.5-13.3-14-23.1-16.6c-7.8-2.1-15.2-1.5-20.6,1.7c-5.7,3.3-11.1,10.3-10.1,15.4c0.5,2.6,3,4,10.8,8
					c3.7,1.9,8.2,4.4,13.9,7.7c15.6,9.2,23.5,13.9,30,22.4l1.9,2.8l-0.7,2.5c-3.2,6.5-4.9,9.3-6.4,11.7c-1.1,1.8-2,3.4-3.3,5.9
					c-11.7,23.8-7.5,49.3-6.6,54.2c1.1,5.4,2.2,8.6,4,12.9c2,5.2,4.7,12.4,8.4,26.6c0-0.1,0-0.2,0-0.3c0.8-7.4,0.1-11.5-0.8-17.3
					c-0.7-4.4-1.5-9.3-1.8-16.8c-0.5-11.1,0.5-22.8,2.6-33.6c1.8-9.4,4.2-16,6.4-22.5L200,319.8z"/>
			</g>
		</g>
		<g>
			<g>
				<g>
					<path class="st0" d="M199.9,296.4l-4-12.4c-2.4-7.8-3.2-11.3-3.6-13.5c-0.3-1.7-0.4-2-1.2-3.4l0,0c-0.9-1.6-2-3.2-3.4-4.7
						l-5.2-5.9l7.8-0.6c5.4-0.4,10.4-0.7,15.4-0.3l8.7,0.5l-3.4,5.5l-3.4-0.8v0.2l2.8,1.6c-0.8,1.3-0.9,1.6-1.1,3.4
						c-0.4,2.1-1.1,5.7-3.6,13.5c-0.5,1.6-1,3-1.5,4.4L199.9,296.4z M197.9,263.3c1.3,2.4,1.6,3.6,2,5.8c0.1,0.5,0.2,0.9,0.3,1.6
						c0.8-3,1.1-4.8,1.4-6c0.1-0.5,0.2-0.9,0.3-1.4C200.6,263.3,199.2,263.3,197.9,263.3L197.9,263.3L197.9,263.3z"/>
				</g>
			</g>
			<g>
				<g>
					<path class="st0" d="M305.2,500h-209c-18,0-32.6-14.6-32.6-32.6v-74.9c0-43.7,21.1-85.1,56.5-110.8c10.2-7.5,24-8.3,35.1-2.2
						c2,1.1,4.2,2.4,6.7,3.8c15.6,9.2,23.5,13.9,30,22.4l1.9,2.8l-0.7,2.5c-3.2,6.5-4.9,9.3-6.4,11.7c-1.1,1.8-2,3.4-3.3,5.9
						c-11.7,23.8-7.5,49.3-6.6,54.2c1.1,5.4,2.2,8.6,4,12.9c2,5.2,4.7,12.4,8.4,26.6c0-0.1,0-0.2,0-0.3c0.8-7.4,0.1-11.5-0.8-17.3
						c-0.7-4.4-1.5-9.3-1.8-16.8c-0.5-11.1,0.5-22.8,2.6-33.6c1.8-9.4,4.2-16,6.4-22.5l4.2-12l5.8,16.5c2.1,6.1,4.6,13.1,6.4,22.5
						c2.2,11,3,22.4,2.6,33.6c-0.3,7.4-1.1,12.3-1.8,16.8c-0.9,5.7-1.6,10-0.8,17.3c0,0.1,0,0.2,0,0.3c3.8-14.2,6.5-21.4,8.4-26.6
						c1.7-4.4,2.9-7.6,4-13c0.6-3,5.4-29.7-6.6-54.2c-1.3-2.6-2.2-4.2-3.3-5.9c-1.5-2.4-3.2-5.2-6.1-11.1c-0.8-1.6-1.8-3.6-2.8-5.9
						l-0.8-1.8l1-1.7c1.1-1.9,2.2-3.7,3.6-5.4c6.5-8.5,14.4-13.1,30-22.4l2.2-1.3c11.1-6.4,24.5-5.9,35.1,1.2l0,0
						c38.1,25.5,60.9,68.1,60.9,113.9v74.9C337.8,485.4,323.3,500,305.2,500z M139.5,283.2c-5.2,0-10.4,1.6-14.8,4.8
						c-33.4,24.3-53.3,63.4-53.3,104.6v74.9c0,13.7,11.1,24.9,24.9,24.9h209c13.7,0,24.9-11.1,24.9-24.9v-74.9
						c0-43.1-21.5-83.3-57.5-107.4c-8.1-5.5-18.3-5.9-26.6-1.1l-2.4,1.4c-14.8,8.7-22.2,13.1-27.8,20.4c-0.7,0.9-1.4,1.9-2,2.8
						c0.7,1.5,1.3,2.7,1.8,3.8c2.7,5.5,4.4,8.1,5.7,10.4c1.2,2,2.3,3.7,3.7,6.6c12.8,26.1,8.3,53.8,7.3,59
						c-1.2,6.1-2.6,9.6-4.3,14.2c-2,5.4-4.6,12.1-8.3,26.2c-1.7,6.5-3,12-3.8,15.6l-3,13.5l-4.5-13.1c-2-5.8-3.3-11.8-4-17.8
						c-0.9-8.4-0.1-13.5,0.8-19.3c0.7-4.2,1.4-8.9,1.6-15.8c0.5-10.7-0.4-21.4-2.4-31.8c-1.3-6.6-2.9-11.8-4.5-16.6
						c-1.1,3.7-2.2,7.6-3,12.2c-2,10.3-2.9,21.3-2.4,31.8c0.3,7,1.1,11.7,1.6,15.8c0.9,5.9,1.7,10.9,0.8,19.3
						c-0.7,6.1-2,12.1-4,17.8l-4.5,13.1l-3-13.5c-0.8-3.6-2-9-3.8-15.6c-3.7-14.1-6.3-20.8-8.3-26.3c-1.8-4.6-3.1-8.2-4.3-14.2
						c-1.1-5.3-5.5-33,7.3-59c1.4-2.8,2.5-4.6,3.7-6.6c1.3-2.1,2.7-4.4,5-8.9c-5.5-6.9-12.9-11.2-27.2-19.7
						c-2.3-1.4-4.5-2.6-6.5-3.7C147.8,284.2,143.6,283.2,139.5,283.2z"/>
				</g>
			</g>
		</g>
	</g>
	<g>
		<path class="st0" d="M370.1,132.5c-36.5,0-66.2-29.7-66.2-66.2s29.7-66.2,66.2-66.2s66.2,29.7,66.2,66.2
			C436.3,102.7,406.6,132.5,370.1,132.5z M370.1,4.2c-34.2,0-62,27.8-62,62.1c0,34.2,27.8,62,62,62s62-27.8,62-62
			C432.1,32,404.3,4.2,370.1,4.2z M373.6,120.4h-7.3c-5.1,0-9.2-4.1-9.2-9.2V79H325c-5.1,0-9.2-4.1-9.2-9.2v-7.3
			c0-5.1,4.1-9.2,9.2-9.2h32.3V21.2c0-5.1,4.1-9.2,9.2-9.2h7.3c5.1,0,9.2,4.1,9.2,9.2v32.3h32.3c5.1,0,9.2,4.1,9.2,9.2V70
			c0,5.1-4.1,9.2-9.2,9.2H383v32.3C382.9,116.3,378.7,120.4,373.6,120.4z M325,57.7c-2.8,0-4.9,2.2-4.9,4.9v7.3
			c0,2.8,2.2,4.9,4.9,4.9h36.4v36.5c0,2.8,2.2,4.9,4.9,4.9h7.3c2.8,0,4.9-2.2,4.9-4.9V74.8H415c2.8,0,4.9-2.2,4.9-4.9v-7.3
			c0-2.8-2.2-4.9-4.9-4.9h-36.5V21.2c0-2.8-2.2-4.9-4.9-4.9h-7.3c-2.8,0-4.9,2.2-4.9,4.9v36.4L325,57.7L325,57.7z"/>
	</g>
</g>
</svg>
