<?xml version="1.0" encoding="utf-8"?>
<!-- Generator: Adobe Illustrator 23.0.2, SVG Export Plug-In . SVG Version: 6.00 Build 0)  -->
<svg version="1.1" id="Layer_1" xmlns="http://www.w3.org/2000/svg" xmlns:xlink="http://www.w3.org/1999/xlink" x="0px" y="0px"
	 viewBox="0 0 500 500" style="enable-background:new 0 0 500 500;" xml:space="preserve">
<style type="text/css">
	.st0{fill:#FFFFFF;}
</style>
<g>
	<g>
		<g>
			<path class="st0" d="M169,499.6L430.5,449c4.5-0.8,8.5-2.4,12-5c0.1-0.1,0.3-0.3,0.4-0.4c1.2-0.9,2.3-1.8,3.3-2.8
				s1.9-2.2,2.8-3.3c0.1-0.1,0.3-0.3,0.4-0.4c2.4-3.5,4.2-7.5,5-12l43.1-262.6c2.6-16.1-8.5-31.7-24.8-35l-39.7-7.8
				c-16.2-3.2-31.5,7.2-33.9,23.4L373,298.6L80.2,9.1C68.4-2.7,49.5-3.1,38.2,8.2L10.4,36C-0.9,47.3-0.5,66.2,11.3,78l292.5,289.5
				l-154.4,33.8c-16.1,2.6-26.6,17.7-23.4,33.9l7.8,39.7C137.3,491.1,152.8,502.2,169,499.6z"/>
		</g>
	</g>
</g>
</svg>
