<?xml version="1.0" encoding="utf-8"?>
<!-- Generator: Adobe Illustrator 23.0.2, SVG Export Plug-In . SVG Version: 6.00 Build 0)  -->
<svg version="1.1" id="Layer_1" xmlns="http://www.w3.org/2000/svg" xmlns:xlink="http://www.w3.org/1999/xlink" x="0px" y="0px"
	 viewBox="0 0 500 500" style="enable-background:new 0 0 500 500;" xml:space="preserve">
<style type="text/css">
	.st0{fill:#FFFFFF;}
</style>
<path class="st0" d="M448.8,0H317.6c-3.8,0-6.9,3.1-6.9,6.9v21.7c0,3.8,3.1,6.9,6.9,6.9h100.2L267.1,183.6c-2.5-1.3-5-2.6-7.5-3.7
	c-40.6-19-86.2-21.1-128.5-5.8c-42.2,15.3-75.9,46-94.9,86.6c-18.9,40.6-21,86.2-5.8,128.5c15.3,42.2,46.1,75.9,86.7,94.9
	c22.6,10.6,46.6,15.9,71.1,15.9c19.1,0,38.4-3.4,57.4-10c42.3-15.4,76-46.1,94.9-86.7s21-86.2,5.8-128.5
	c-10.1-27.7-27-52.1-49.2-70.9L444.2,59.2v107.4c0,3.8,3.1,6.9,6.9,6.9h21.7c3.8,0,6.9-3.1,6.9-6.9V30.8C479.7,13.8,465.8,0,448.8,0
	z M132,452.1c-32.1-15.1-56.4-41.7-68.4-75s-10.4-69.3,4.6-101.4c21.8-46.4,69-76.4,120.3-76.4c19.4,0,38.2,4.2,56.1,12.6
	c32.1,15.1,56.4,41.7,68.4,75c12,33.4,10.4,69.4-4.6,101.4c-15.1,32.1-41.7,56.4-75,68.4S164.1,467,132,452.1z"/>
</svg>
