<?xml version="1.0" encoding="utf-8"?>
<!-- Generator: Adobe Illustrator 23.0.2, SVG Export Plug-In . SVG Version: 6.00 Build 0)  -->
<svg version="1.1" id="Layer_1" xmlns="http://www.w3.org/2000/svg" xmlns:xlink="http://www.w3.org/1999/xlink" x="0px" y="0px"
	 viewBox="0 0 500 500" style="enable-background:new 0 0 500 500;" xml:space="preserve">
<style type="text/css">
	.st0{fill:#FFFFFF;}
</style>
<g>
	<g>
		<g>
			<g>
				<path class="st0" d="M41.6,0h416.7c12.8,0,23.2,10.4,23.2,23.2v27.9c0,12.8-10.4,23.2-23.2,23.2H41.6
					c-12.8,0-23.2-10.4-23.2-23.2V23.2C18.4,10.4,28.8,0,41.6,0z"/>
			</g>
		</g>
	</g>
	<g>
		<g>
			<g>
				<path class="st0" d="M47.7,363.9L237.1,496c2.8,2,5.9,3.1,9.1,3.6c0.1,0,0.3,0,0.4,0.1c1.1,0.1,2.2,0.3,3.3,0.3s2.2-0.1,3.3-0.3
					c0.1,0,0.3,0,0.4-0.1c3.2-0.5,6.3-1.6,9.1-3.6l189.4-132.1c10-7,12.5-20.8,5.5-30.8l-17.1-24.5c-7-10-20.8-12.5-30.8-5.5
					L287,388.6V148.9c0-12.2-9.9-22.2-22.2-22.2H235c-12.2,0-22.2,9.9-22.2,22.2v239.8L90.1,303.1c-10-7-23.9-4.5-30.8,5.5
					l-17.1,24.5C35.2,343.1,37.7,357,47.7,363.9z"/>
			</g>
		</g>
	</g>
</g>
</svg>
