<?xml version="1.0" encoding="utf-8"?>
<!-- Generator: Adobe Illustrator 23.0.2, SVG Export Plug-In . SVG Version: 6.00 Build 0)  -->
<svg version="1.1" id="Layer_1" xmlns="http://www.w3.org/2000/svg" xmlns:xlink="http://www.w3.org/1999/xlink" x="0px" y="0px"
	 viewBox="0 0 500 500" style="enable-background:new 0 0 500 500;" xml:space="preserve">
<style type="text/css">
	.st0{fill:#FFFFFF;}
</style>
<g>
	<g>
		<g>
			<path class="st0" d="M431.9,108.8H68c-5.6,0-10.1-4.5-10.1-10.1V58.4c0-11.9,9.7-21.7,21.7-21.7h340.8c11.9,0,21.7,9.7,21.7,21.7
				v40.2C442.1,104.2,437.5,108.8,431.9,108.8z"/>
		</g>
	</g>
	<g>
		<g>
			<path class="st0" d="M280.1,36.8h-60.3V11.6c0-6.3,5.1-11.6,11.6-11.6h37.2c6.3,0,11.6,5.1,11.6,11.6v25.2H280.1z"/>
		</g>
	</g>
	<g>
		<path class="st0" d="M86.3,108.8v359.3c0,17.6,14.3,31.9,31.9,31.9h263.5c17.6,0,31.9-14.3,31.9-31.9V108.8H86.3z M161.2,454.1
			h-10.7V156.6h10.7V454.1z M255.3,454.1h-10.7V156.6h10.7V454.1z M350.4,454.1h-10.7V156.6h10.7V454.1z"/>
	</g>
</g>
</svg>
