<?xml version="1.0" encoding="utf-8"?>
<!-- Generator: Adobe Illustrator 23.0.2, SVG Export Plug-In . SVG Version: 6.00 Build 0)  -->
<svg version="1.1" id="Layer_1" xmlns="http://www.w3.org/2000/svg" xmlns:xlink="http://www.w3.org/1999/xlink" x="0px" y="0px"
	 viewBox="0 0 500 500" style="enable-background:new 0 0 500 500;" xml:space="preserve">
<style type="text/css">
	.st0{fill:#FFFFFF;}
</style>
<path class="st0" d="M403.3,153.3C403.3,68.8,334.6,0,250,0S96.7,68.8,96.7,153.3c0,78.9,59.9,144.1,136.6,152.4v69.1H163
	c-3.8,0-6.9,3.1-6.9,6.9v19.6c0,3.8,3.1,6.9,6.9,6.9h70.3V493c0,3.8,3.1,6.9,6.9,6.9h19.6c3.8,0,6.9-3.1,6.9-6.9v-84.8H337
	c3.8,0,6.9-3.1,6.9-6.9v-19.6c0-3.8-3.1-6.9-6.9-6.9h-70.3v-69.1C343.4,297.4,403.3,232.2,403.3,153.3z M250,33.4
	c66.1,0,119.9,53.8,119.9,119.9S316.1,273.2,250,273.2s-119.9-53.8-119.9-119.9S183.9,33.4,250,33.4z"/>
</svg>
