<?xml version="1.0" encoding="utf-8"?>
<!-- Generator: Adobe Illustrator 23.0.2, SVG Export Plug-In . SVG Version: 6.00 Build 0)  -->
<svg version="1.1" id="Layer_1" xmlns="http://www.w3.org/2000/svg" xmlns:xlink="http://www.w3.org/1999/xlink" x="0px" y="0px"
	 viewBox="0 0 500 500" style="enable-background:new 0 0 500 500;" xml:space="preserve">
<style type="text/css">
	.st0{fill:#FFFFFF;}
</style>
<g>
	<g>
		<g>
			<g>
				<path class="st0" d="M447.6,500H52.4c-19,0-34.5-15.5-34.5-34.5v-19c0-19,15.5-34.5,34.5-34.5h395.2c19,0,34.5,15.5,34.5,34.5
					v19C482.1,484.5,466.7,500,447.6,500z M52.4,428.2c-10.1,0-18.3,8.2-18.3,18.3v19c0,10.1,8.2,18.3,18.3,18.3h395.2
					c10.1,0,18.3-8.2,18.3-18.3v-19c0-10.1-8.2-18.3-18.3-18.3H52.4z"/>
			</g>
		</g>
	</g>
	<g>
		<g>
			<g>
				<path class="st0" d="M264.5,377.4h-28.9c-16.3,0-29.6-13.3-29.6-29.6V131.4l-106,73.9c-13.3,9.3-31.8,6-41.1-7.4l-16.6-23.7
					c-9.3-13.3-6-31.8,7.4-41.1L233,5.3c3.6-2.5,7.7-4.1,12.2-4.9c2.1-0.3,3.6-0.2,5-0.4c1.6,0,2.8,0.1,4.3,0.3
					c5,0.8,9.1,2.4,12.7,4.9L450.5,133c13.3,9.3,16.6,27.8,7.4,41.1l-16.6,23.7c-9.3,13.3-27.8,16.6-41.1,7.4l-106-73.9v216.5
					C294,364.2,280.8,377.4,264.5,377.4z M222.2,100.4V348c0,7.4,6,13.3,13.3,13.3h28.9c7.4,0,13.3-6,13.3-13.3V100.4L409.3,192
					c6,4.2,14.4,2.8,18.6-3.3l16.6-23.7c4.2-6,2.8-14.4-3.3-18.6L257.8,18.6c-1.6-1.1-3.4-1.8-5.5-2.1c-0.9-0.1-1.2-0.4-2.3-0.2
					c-0.9-0.2-1.5,0.1-2.2,0.2c-2.3,0.3-4.1,1.1-5.7,2.2L58.8,146.5c-6,4.2-7.5,12.5-3.3,18.6l16.6,23.7c2.1,3,5.1,4.9,8.6,5.5
					s7.1-0.1,10-2.2L222.2,100.4z"/>
			</g>
		</g>
	</g>
</g>
</svg>
