<?xml version="1.0" encoding="utf-8"?>
<!-- Generator: Adobe Illustrator 23.0.2, SVG Export Plug-In . SVG Version: 6.00 Build 0)  -->
<svg version="1.1" id="Layer_1" xmlns="http://www.w3.org/2000/svg" xmlns:xlink="http://www.w3.org/1999/xlink" x="0px" y="0px"
	 viewBox="0 0 500 500" style="enable-background:new 0 0 500 500;" xml:space="preserve">
<style type="text/css">
	.st0{fill:#FFFFFF;}
</style>
<g>
	<g>
		<circle class="st0" cx="411.6" cy="178.8" r="54.9"/>
	</g>
	<g>
		<path class="st0" d="M422.2,384.7l-3-8.7c-1.3-3.9-2.2-7.8-2.6-11.8c-0.6-5.6-0.1-8.9,0.5-12.8c0.4-2.8,0.9-5.9,1.1-10.5
			c0.3-7.1-0.3-14.2-1.6-21.1c-0.9-4.4-1.9-7.9-3-11c-0.7,2.4-1.4,5-2,8.1c-1.4,6.8-1.9,14.1-1.6,21.1c0.2,4.6,0.7,7.7,1.1,10.5
			c0.6,3.9,1.1,7.3,0.5,12.8c-0.4,4-1.3,8-2.6,11.8l-3,8.7l-2-9c-0.5-2.4-1.4-6-2.5-10.3c-2.5-9.4-4.2-13.8-5.5-17.4
			c-1.2-3-2.1-5.4-2.8-9.5c-0.7-3.5-3.7-21.9,4.8-39.2c0.9-1.9,1.6-3.1,2.5-4.3c0.8-1.4,1.8-2.9,3.3-6c-3.7-4.6-8.6-7.4-18.1-13
			c-3.6-2.1-6.6-3.7-9-4.9c-5.7-3-8.9-4.6-9.8-8.8c-1.2-6,3.8-12.6,9.2-15.7c4.9-2.8,11.1-3.4,17.6-1.7c7.8,2.1,14.9,7.3,18.4,13.4
			c0.9,1.6,1.1,2.4,1.4,3.8c0,0.3,0.1,0.6,0.2,1.1c0.5-2,0.7-3.2,0.9-4c0.3-1.4,0.4-2.3,1.4-3.8c3.5-6.2,10.6-11.3,18.5-13.4
			c6.5-1.8,12.8-1.2,17.6,1.7l0,0c5.4,3.1,10.4,9.7,9.2,15.7c-0.9,4.2-4,5.9-9.8,8.8c-2.4,1.3-5.3,2.8-9,4.9
			c-9.8,5.8-14.8,8.7-18.5,13.5c-0.5,0.6-0.9,1.3-1.3,1.9c0.4,1,0.8,1.8,1.2,2.5c1.8,3.7,2.9,5.4,3.8,6.9c0.8,1.3,1.5,2.5,2.5,4.3
			c8.5,17.3,5.5,35.7,4.8,39.2c-0.8,4-1.7,6.4-2.8,9.5c-1.4,3.6-3.1,8-5.5,17.4c-1.1,4.3-2,8-2.5,10.3L422.2,384.7z M413.5,293.2
			l3.9,10.5c1.4,4.1,3,8.7,4.2,15c1.4,7.3,2,14.8,1.7,22.3c-0.2,4.9-0.7,8.2-1.2,11.1c-0.6,3.8-1.1,6.6-0.5,11.5c0,0.1,0,0.1,0,0.2
			c2.5-9.5,4.3-14.2,5.6-17.7c1.1-2.9,1.9-5,2.6-8.6c0.4-2,3.6-19.7-4.4-35.9c-0.8-1.7-1.5-2.8-2.2-3.9c-1-1.6-2.1-3.5-4.1-7.4
			c-0.5-1.1-1.2-2.4-1.8-3.9l-0.6-1.2l0.7-1.1c0.7-1.3,1.5-2.4,2.4-3.6c4.3-5.6,9.5-8.7,19.9-14.8c3.7-2.2,5.4-3.9,7.8-5.2
			c5.1-2.7,6.1-3.7,6.5-5.5c0.7-3.4-1.8-6.4-5.6-8.7c-3.6-2.1-7-2.9-12.2-1.5c-6.5,1.8-9.6,1.5-12.4,6.4c-0.5,0.9-3.2,4.9-3.4,6
			c-0.3,1.4-1.8,3.7-3.4,8.9c-0.3,1.1-0.7,2-1,2.9l-2.9,8.2l-2.7-8.2c-1.7-5.2-2.3-7.3-3-8.5c-0.6-1.1-2-3.2-2.7-4
			c-3.6-4-6.7-5.7-13.2-7.4c-5.2-1.4-9.2-1.5-12.8,0.6c-3.8,2.2-6,5.5-5.3,8.8c0.4,1.7,0.1,2.2,5.2,4.9c2.5,1.3,5.5,2.9,9.2,5.1
			c10.4,6.1,15.6,9.2,19.9,14.8l1.3,1.8l-0.5,1.7c-2.1,4.3-3.2,6.1-4.2,7.7c-0.7,1.2-1.4,2.2-2.2,3.9c-7.7,15.8-5,32.7-4.4,35.9
			c0.7,3.6,1.5,5.7,2.6,8.6c1.3,3.5,3.2,8.2,5.6,17.7c0,0,0-0.1,0-0.2c0.5-4.9,0.1-7.7-0.5-11.5c-0.4-2.9-1-6.2-1.2-11.1
			c-0.3-7.4,0.3-15.1,1.7-22.3c1.2-6.2,2.8-10.6,4.2-14.9L413.5,293.2z"/>
	</g>
	<g>
		<ellipse class="st0" cx="246.6" cy="225.1" rx="54.9" ry="54.9"/>
	</g>
	<g>
		<path class="st0" d="M460.7,267.9c-6.1-4.1-14-4.5-20.4-0.8c-0.5,0.3-1.1,0.6-1.6,1c-10.1,6-15.2,8.9-19.2,14.2
			c-0.8,1.1-1.5,2.1-2.2,3.3c0.7,1.5,1.3,2.8,1.8,3.9c3.3,6.7,4.2,7.2,6.3,11.3c8.4,17.1,5,35.4,4.6,37.6c-1.6,8.3-3.8,9.1-8.4,26.7
			c-1.1,4.4-2,8-2.5,10.4c-0.9-2.5-2-6.4-2.5-11.3c-1-9.1,1.2-11.7,1.7-22.9c0.2-4.5,0.2-12.4-1.7-21.7c-1.2-6-2.7-10.4-4.2-14.6
			c-0.5-1.4-1-2.7-1.4-3.9c-0.1,0.4-0.2,0.6-0.4,1c-1.4,4.2-3,8.6-4.2,14.6c-1.8,9.3-1.8,17.2-1.7,21.7c0.5,11.3,2.6,13.9,1.7,22.9
			c-0.5,4.9-1.7,8.8-2.5,11.3c-0.5-2.4-1.4-6-2.5-10.4c-4.6-17.6-6.7-18.5-8.4-26.7c-0.4-2.2-3.8-20.5,4.6-37.6
			c2-4.1,2.9-4.6,6.3-11.3c0-0.1,0.1-0.3,0.2-0.4c-0.2-0.3-0.4-0.5-0.6-0.8c-4-5.3-9.1-8.2-19.2-14.2c-1.6-0.9-3-1.8-4.3-2.5
			c-6.5-3.6-14.5-3.1-20.5,1.3c-16.2,11.8-28.3,29.1-33.5,49c18.7,16.2,30.6,40.1,30.6,66.7V410H481c10.6,0,19-8.5,19-19v-49.7
			C500,310.7,484.4,283.8,460.7,267.9z"/>
	</g>
	<g>
		<circle class="st0" cx="88.4" cy="178.8" r="54.9"/>
	</g>
	<g>
		<circle class="st0" cx="181.1" cy="96.2" r="54.9"/>
	</g>
	<g>
		<circle class="st0" cx="315.5" cy="96.2" r="54.9"/>
	</g>
	<g>
		<path class="st0" d="M75.8,375.7c-0.5-2.4-1.4-6-2.5-10.3c-2.5-9.4-4.2-13.8-5.5-17.4c-1.2-3.1-2.1-5.5-2.8-9.5
			c-0.7-3.5-3.7-21.8,4.8-39.2c0.9-1.9,1.6-3.1,2.5-4.3c0.9-1.5,2-3.3,3.8-6.9c0.4-0.7,0.8-1.6,1.2-2.5c-0.4-0.7-0.8-1.3-1.3-1.9
			c-3.7-4.9-8.6-7.7-18.5-13.5c-3.6-2.1-6.6-3.7-9-4.9c-5.7-3-8.9-4.7-9.8-8.8c-1.2-6,3.8-12.6,9.2-15.7l0,0
			c4.8-2.8,11.1-3.4,17.6-1.7c7.9,2.1,14.9,7.3,18.5,13.4c0.9,1.6,1.1,2.4,1.4,3.8c0.1,0.8,0.4,2,0.9,4c0.1-0.4,0.1-0.7,0.2-1.1
			c0.3-1.4,0.4-2.3,1.4-3.8c3.5-6.2,10.6-11.3,18.4-13.4c6.6-1.8,12.8-1.2,17.6,1.7c5.4,3.1,10.4,9.7,9.2,15.7
			c-0.9,4.2-4,5.8-9.8,8.8c-2.4,1.3-5.3,2.8-9,4.9c-9.5,5.6-14.4,8.5-18.1,13c1.5,3,2.5,4.6,3.3,6c0.8,1.3,1.5,2.5,2.5,4.3
			c8.5,17.3,5.5,35.7,4.8,39.2c-0.8,4-1.7,6.4-2.8,9.5c-1.4,3.6-3.1,8-5.5,17.4c-1.1,4.3-2,8-2.5,10.3l-2,9l-3-8.7
			c-1.3-3.9-2.2-7.8-2.6-11.8c-0.6-5.6-0.1-8.9,0.5-12.8c0.4-2.8,0.9-5.9,1.1-10.5c0.3-7-0.3-14.3-1.6-21.1c-0.6-3.1-1.3-5.7-2-8.1
			c-1.1,3.2-2.1,6.7-3,11c-1.4,6.9-1.9,14-1.6,21.1c0.2,4.6,0.7,7.7,1.1,10.5c0.6,3.9,1.1,7.3,0.5,12.8c-0.4,4-1.3,8-2.6,11.8
			l-3,8.7L75.8,375.7z M89.1,300.8c1.5,4.3,3,8.7,4.2,14.9c1.4,7.2,2,14.9,1.7,22.3c-0.2,4.9-0.7,8.2-1.2,11.1
			c-0.6,3.8-1.1,6.6-0.5,11.5c0,0,0,0.1,0,0.2c2.5-9.5,4.3-14.2,5.6-17.7c1.1-2.9,1.9-5,2.6-8.6c0.6-3.2,3.4-20.1-4.4-35.9
			c-0.8-1.7-1.5-2.8-2.2-3.9c-1-1.6-2.1-3.5-4.2-7.7l-0.5-1.7l1.3-1.8c4.3-5.6,9.5-8.7,19.9-14.8c3.8-2.2,6.8-3.8,9.2-5.1
			c5.1-2.7,4.9-3.2,5.2-4.9c0.7-3.4-1.6-6.7-5.3-8.8c-3.6-2.1-7.6-2-12.8-0.6c-6.5,1.8-9.5,3.4-13.2,7.4c-0.7,0.8-2.1,2.9-2.7,4
			c-0.7,1.3-1.3,3.3-3,8.5l-2.7,8.2l-2.9-8.2c-0.4-1-0.7-1.9-1-2.9c-1.6-5.2-3.1-7.5-3.4-8.9c-0.2-1.1-2.8-5.1-3.4-6
			c-2.8-4.9-5.9-4.7-12.4-6.4c-5.2-1.4-8.5-0.6-12.2,1.5c-3.8,2.2-6.3,5.3-5.6,8.7c0.4,1.7,1.4,2.8,6.5,5.5c2.5,1.3,4.1,3,7.8,5.2
			c10.4,6.1,15.6,9.2,19.9,14.8c0.9,1.1,1.7,2.3,2.4,3.6l0.7,1.1l-0.6,1.2c-0.7,1.5-1.3,2.8-1.8,3.9c-1.9,3.9-3.1,5.7-4.1,7.4
			c-0.7,1.2-1.4,2.2-2.2,3.9c-8,16.2-4.8,34-4.4,35.9c0.7,3.6,1.5,5.7,2.6,8.6c1.3,3.5,3.2,8.2,5.6,17.7c0-0.1,0-0.1,0-0.2
			c0.5-4.9,0.1-7.7-0.5-11.5c-0.4-2.9-1-6.2-1.2-11.1c-0.3-7.5,0.3-15,1.7-22.3c1.2-6.3,2.8-10.9,4.2-15l3.9-10.5L89.1,300.8z"/>
	</g>
	<g>
		<path class="st0" d="M39.3,267.9c6.1-4.1,14-4.5,20.4-0.8c0.5,0.3,1.1,0.6,1.6,1c10.1,6,15.2,8.9,19.2,14.2
			c0.8,1.1,1.5,2.1,2.2,3.3c-0.7,1.5-1.3,2.8-1.8,3.9c-3.3,6.7-4.2,7.2-6.3,11.3c-8.4,17.1-5,35.4-4.6,37.6
			c1.6,8.3,3.8,9.1,8.4,26.7c1.1,4.4,2,8,2.5,10.4c0.9-2.5,2-6.4,2.5-11.3c1-9.1-1.2-11.7-1.7-22.9c-0.2-4.5-0.2-12.4,1.7-21.7
			c1.2-6,2.7-10.4,4.2-14.6c0.5-1.4,1-2.7,1.4-3.9c0.1,0.4,0.2,0.6,0.4,1c1.4,4.2,3,8.6,4.2,14.6c1.8,9.3,1.8,17.2,1.7,21.7
			c-0.5,11.3-2.6,13.9-1.7,22.9c0.5,4.9,1.7,8.8,2.5,11.3c0.5-2.4,1.4-6,2.5-10.4c4.6-17.6,6.7-18.5,8.4-26.7
			c0.4-2.2,3.8-20.5-4.6-37.6c-2-4.1-2.9-4.6-6.3-11.3c0-0.1-0.1-0.3-0.2-0.4c0.2-0.3,0.4-0.5,0.6-0.8c4-5.3,9.1-8.2,19.2-14.2
			c1.6-0.9,3-1.8,4.3-2.5c6.5-3.6,14.5-3.1,20.5,1.3c16.2,11.8,28.3,29.1,33.5,49c-18.7,16.2-30.6,40.1-30.6,66.7V410H19
			c-10.6,0-19-8.5-19-19v-49.7C0,310.7,15.6,283.8,39.3,267.9z"/>
	</g>
	<g>
		<path class="st0" d="M257.3,431l-3-8.7c-1.3-3.9-2.2-7.8-2.6-11.8c-0.6-5.6-0.1-8.9,0.5-12.8c0.4-2.8,0.9-5.9,1.1-10.5
			c0.3-7.1-0.3-14.2-1.6-21.1c-0.9-4.4-1.9-7.9-3-11c-0.7,2.4-1.4,5-2,8.1c-1.4,6.8-1.9,14.1-1.6,21.1c0.2,4.6,0.7,7.7,1.1,10.5
			c0.6,3.9,1.1,7.3,0.5,12.8c-0.4,4-1.3,8-2.6,11.8l-3,8.7l-2-9c-0.5-2.4-1.4-6-2.5-10.3c-2.5-9.4-4.2-13.8-5.5-17.4
			c-1.2-3-2.1-5.4-2.8-9.5c-0.7-3.5-3.7-21.9,4.8-39.2c0.9-1.9,1.6-3.1,2.5-4.3c0.8-1.4,1.8-2.9,3.3-6c-3.7-4.6-8.6-7.4-18.1-13
			c-3.6-2.1-6.6-3.7-9-4.9c-5.7-3-8.9-4.6-9.8-8.8c-1.2-6,3.8-12.6,9.2-15.7c4.9-2.8,11.1-3.4,17.6-1.7c7.8,2.1,14.9,7.3,18.4,13.4
			c0.9,1.6,1.1,2.4,1.4,3.8c0,0.3,0.1,0.6,0.2,1.1c0.5-2,0.7-3.2,0.9-4c0.3-1.4,0.4-2.3,1.4-3.8c3.5-6.2,10.6-11.3,18.5-13.4
			c6.5-1.8,12.8-1.2,17.6,1.7l0,0c5.4,3.1,10.4,9.7,9.2,15.7c-0.9,4.2-4,5.9-9.8,8.8c-2.4,1.3-5.3,2.8-9,4.9
			c-9.8,5.8-14.8,8.7-18.5,13.5c-0.5,0.6-0.9,1.3-1.3,1.9c0.4,1,0.8,1.8,1.2,2.5c1.8,3.7,2.9,5.4,3.8,6.9c0.8,1.3,1.5,2.5,2.5,4.3
			c8.5,17.3,5.5,35.7,4.8,39.2c-0.8,4-1.7,6.4-2.8,9.5c-1.4,3.6-3.1,8-5.5,17.4c-1.1,4.3-2,8-2.5,10.3L257.3,431z M248.6,339.5
			l3.9,10.5c1.4,4.1,3,8.7,4.2,15c1.4,7.3,2,14.8,1.7,22.3c-0.2,4.9-0.7,8.2-1.2,11.1c-0.6,3.8-1.1,6.6-0.5,11.5c0,0.1,0,0.1,0,0.2
			c2.5-9.5,4.3-14.2,5.6-17.7c1.1-2.9,1.9-5,2.6-8.6c0.4-2,3.6-19.7-4.4-35.9c-0.8-1.7-1.5-2.8-2.2-3.9c-1-1.6-2.1-3.5-4.1-7.4
			c-0.5-1.1-1.2-2.4-1.8-3.9l-0.6-1.2l0.7-1.1c0.7-1.3,1.5-2.4,2.4-3.6c4.3-5.6,9.5-8.7,19.9-14.8c3.7-2.2,5.4-3.9,7.8-5.2
			c5.1-2.7,6.1-3.7,6.5-5.5c0.7-3.4-1.8-6.4-5.6-8.7c-3.6-2.1-7-2.9-12.2-1.5c-6.5,1.8-9.6,1.5-12.4,6.4c-0.5,0.9-3.2,4.9-3.4,6
			c-0.3,1.4-1.8,3.7-3.4,8.9c-0.3,1.1-0.7,2-1,2.9l-2.9,8.2l-2.7-8.2c-1.7-5.2-2.3-7.3-3-8.5c-0.6-1.1-2-3.2-2.7-4
			c-3.6-4-6.7-5.7-13.2-7.4c-5.2-1.4-9.2-1.5-12.8,0.6c-3.8,2.2-6,5.5-5.3,8.8c0.4,1.7,0.1,2.2,5.2,4.9c2.5,1.3,5.5,2.9,9.2,5.1
			c10.4,6.1,15.6,9.2,19.9,14.8l1.3,1.8l-0.5,1.7c-2.1,4.3-3.2,6.1-4.2,7.7c-0.7,1.2-1.4,2.2-2.2,3.9c-7.7,15.8-5,32.7-4.4,35.9
			c0.7,3.6,1.5,5.7,2.6,8.6c1.3,3.5,3.2,8.2,5.6,17.7c0,0,0-0.1,0-0.2c0.5-4.9,0.1-7.7-0.5-11.5c-0.4-2.9-1-6.2-1.2-11.1
			c-0.3-7.4,0.3-15.1,1.7-22.3c1.2-6.2,2.8-10.6,4.2-14.9L248.6,339.5z"/>
	</g>
	<g>
		<path class="st0" d="M298.2,316.6c-6.1-4.1-14-4.5-20.4-0.8c-0.5,0.3-1.1,0.6-1.6,1c-10.1,6-15.2,8.9-19.2,14.2
			c-0.8,1.1-1.5,2.1-2.2,3.3c0.7,1.5,1.3,2.8,1.8,3.9c3.3,6.7,4.2,7.2,6.3,11.3c8.4,17.1,5,35.4,4.6,37.6c-1.6,8.3-3.8,9.1-8.4,26.7
			c-1.1,4.4-2,8-2.5,10.4c-0.9-2.5-2-6.4-2.5-11.3c-1-9.1,1.2-11.7,1.7-22.9c0.2-4.5,0.2-12.4-1.7-21.7c-1.2-6-2.7-10.4-4.2-14.6
			c-0.5-1.4-1-2.7-1.4-3.9c-0.1,0.4-0.2,0.6-0.4,1c-1.4,4.2-3,8.6-4.2,14.6c-1.8,9.3-1.8,17.2-1.7,21.7c0.5,11.3,2.6,13.9,1.7,22.9
			c-0.5,4.9-1.7,8.8-2.5,11.3c-0.5-2.4-1.4-6-2.5-10.4c-4.6-17.6-6.7-18.5-8.4-26.7c-0.4-2.2-3.8-20.5,4.6-37.6
			c2-4.1,2.9-4.6,6.3-11.3c0-0.1,0.1-0.3,0.2-0.4c-0.2-0.3-0.4-0.5-0.6-0.8c-4-5.3-9.1-8.2-19.2-14.2c-1.6-0.9-3-1.8-4.3-2.5
			c-6.5-3.6-14.5-3.1-20.5,1.3c-22.1,16.1-36.4,42.1-36.4,71.5v49.7c0,10.6,8.5,19,19,19h138.7c10.6,0,19-8.5,19-19V390
			C337.5,359.4,321.9,332.4,298.2,316.6z"/>
	</g>
</g>
</svg>
