<?xml version="1.0" encoding="utf-8"?>
<!-- Generator: Adobe Illustrator 23.0.2, SVG Export Plug-In . SVG Version: 6.00 Build 0)  -->
<svg version="1.1" id="Layer_1" xmlns="http://www.w3.org/2000/svg" xmlns:xlink="http://www.w3.org/1999/xlink" x="0px" y="0px"
	 viewBox="0 0 500 500" style="enable-background:new 0 0 500 500;" xml:space="preserve">
<style type="text/css">
	.st0{fill:#FFFFFF;}
</style>
<g>
	<g>
		<g>
			<path class="st0" d="M250,500c-64,0-128-24.4-176.9-73.1c-97.5-97.5-97.5-256.2,0-353.6C120.4,26,183.2,0,250,0
				s129.6,26,176.9,73.2c97.5,97.5,97.5,256.2,0,353.6C378,475.6,314,500,250,500z M250,21c-61.2,0-118.7,23.8-161.9,67.1
				c-89.3,89.3-89.3,234.5,0,323.9s234.5,89.3,323.9,0s89.3-234.5,0-323.9C368.7,44.9,311.2,21,250,21z M250.3,443.6
				c-50.3,0-100.2-19.3-137.4-56.5l0,0l0,0c-64-64-74.9-165.7-26-241.8l7.1-11L365.5,406l-11,7.1
				C322.8,433.6,286.5,443.6,250.3,443.6z M97.9,168.1c-35.8,66.3-24.1,150.2,29.9,204.1l0,0c53.9,53.9,137.8,65.6,204.1,29.9
				L97.9,168.1z M405.9,365.7L134.3,94l11-7.1c76.1-48.9,177.8-38,241.8,26s74.9,165.7,26,241.8L405.9,365.7z M168,98l234,234
				c35.8-66.3,24.1-150.2-29.9-204.1C318.2,73.9,234.4,62.3,168,98z"/>
		</g>
	</g>
</g>
</svg>
