<?xml version="1.0" encoding="utf-8"?>
<!-- Generator: Adobe Illustrator 23.0.2, SVG Export Plug-In . SVG Version: 6.00 Build 0)  -->
<svg version="1.1" id="Layer_1" xmlns="http://www.w3.org/2000/svg" xmlns:xlink="http://www.w3.org/1999/xlink" x="0px" y="0px"
	 viewBox="0 0 500 500" style="enable-background:new 0 0 500 500;" xml:space="preserve">
<style type="text/css">
	.st0{fill:#FFFFFF;}
</style>
<g>
	<g>
		<path class="st0" d="M484.9,210.4h-48.1c-4.9-23.4-14.1-45.2-26.8-64.5l34-34c5.9-5.9,5.9-15.4,0-21.3L409.3,56
			c-5.9-5.9-15.4-5.9-21.3,0l-34,34c-19.4-12.6-41.2-21.9-64.5-26.8V15.1c0-8.3-6.7-15.1-15.1-15.1h-49.1c-8.3,0-15.1,6.7-15.1,15.1
			v48.1c-23.2,4.9-45,14.1-64.3,26.8l-34-34c-5.9-5.9-15.4-5.9-21.3,0L56,90.7c-5.9,5.9-5.9,15.4,0,21.3l34,34
			c-12.6,19.4-21.9,41.2-26.8,64.5H15.1c-8.3,0-15.1,6.7-15.1,15.1v49.1c0,8.3,6.7,15.1,15.1,15.1h48.1
			c4.9,23.4,14.1,45.2,26.8,64.5l-34,34c-5.9,5.9-5.9,15.4,0,21.3L90.7,444c5.9,5.9,15.4,5.9,21.3,0l34-34
			c19.4,12.6,41.2,21.9,64.5,26.8v48.1c0,8.3,6.7,15.1,15.1,15.1h49.1c8.3,0,15.1-6.7,15.1-15.1v-48.1c23.4-4.9,45.2-14.1,64.5-26.8
			l34,34c5.9,5.9,15.4,5.9,21.3,0l34.7-34.7c5.9-5.9,5.9-15.4,0-21.3l-34-34c12.6-19.4,21.9-41.2,26.8-64.5h48.1
			c8.3,0,15.1-6.7,15.1-15.1v-49.1C500,217.1,493.2,210.4,484.9,210.4z M250,375.2c-69.1,0-125.3-56-125.3-125.3
			c0-69.1,56-125.3,125.3-125.3c69.1,0,125.3,56,125.3,125.3C375.3,319.1,319.2,375.2,250,375.2z"/>
	</g>
</g>
</svg>
