<?xml version="1.0" encoding="utf-8"?>
<!-- Generator: Adobe Illustrator 23.0.2, SVG Export Plug-In . SVG Version: 6.00 Build 0)  -->
<svg version="1.1" id="Layer_1" xmlns="http://www.w3.org/2000/svg" xmlns:xlink="http://www.w3.org/1999/xlink" x="0px" y="0px"
	 viewBox="0 0 500 500" style="enable-background:new 0 0 500 500;" xml:space="preserve">
<style type="text/css">
	.st0{fill:#FFFFFF;}
</style>
<g>
	<circle class="st0" cx="254.2" cy="176.5" r="60.2"/>
	<path class="st0" d="M263,402.4l-3.3-9.6c-1.4-4.2-2.4-8.6-2.9-13c-0.6-6.2-0.1-9.8,0.6-14c0.4-3,1-6.4,1.3-11.6
		c0.4-7.8-0.3-15.5-1.8-23.2c-1-4.8-2.1-8.6-3.3-12.1c-0.8,2.6-1.6,5.5-2.1,8.8c-1.5,7.4-2.1,15.5-1.8,23.2c0.1,5,0.8,8.4,1.3,11.6
		c0.8,4.3,1.3,7.9,0.6,14c-0.4,4.4-1.4,8.8-2.9,13l-3.3,9.6l-2.1-9.8c-0.6-2.6-1.5-6.6-2.8-11.3c-2.8-10.2-4.5-15.1-6-19.2
		c-1.3-3.3-2.3-5.9-3.2-10.3c-0.8-3.9-4-24.1,5.3-43c1-2.1,1.9-3.3,2.8-4.8c1-1.5,2-3.3,3.7-6.4c-4-5-9.5-8.2-19.8-14.2
		c-4-2.4-7.3-4-9.8-5.4c-6.3-3.3-9.7-5-10.7-9.7c-1.4-6.6,4.2-13.7,10-17.1c5.3-3,12.2-3.8,19.4-1.9c8.6,2.3,16.4,7.9,20.3,14.7
		c1,1.8,1.1,2.6,1.5,4.2c0.1,0.4,0.1,0.8,0.3,1.1c0.6-2.1,0.9-3.5,1-4.4c0.3-1.6,0.5-2.4,1.5-4.2c3.9-6.8,11.6-12.5,20.3-14.7
		c7.2-1.9,14-1.3,19.4,1.9l0,0c5.9,3.4,11.3,10.6,10,17.1c-1,4.5-4.4,6.4-10.7,9.7c-2.6,1.4-5.9,3-9.8,5.4
		c-10.8,6.3-16.1,9.5-20.3,14.9c-0.5,0.8-1,1.4-1.5,2.1c0.5,1,1,1.9,1.3,2.8c2,4,3.2,5.9,4.2,7.7c0.9,1.4,1.6,2.8,2.8,4.8
		c9.3,19,6,39.1,5.3,43c-0.9,4.4-1.9,7.1-3.2,10.3c-1.5,3.9-3.3,8.8-6,19.2c-1.3,4.8-2.1,8.7-2.8,11.3L263,402.4z M253.5,302.1
		l4.3,11.6c1.6,4.4,3.3,9.6,4.7,16.4c1.6,7.9,2.1,16.3,1.9,24.5c-0.3,5.3-0.8,9.1-1.3,12.2c-0.6,4.2-1.1,7.2-0.5,12.5
		c0,0.1,0,0.1,0,0.3c2.8-10.5,4.8-15.6,6.2-19.4c1.3-3.2,2.1-5.5,2.9-9.5c0.4-2.1,3.9-21.7-4.8-39.3c-0.9-1.9-1.6-3-2.4-4.3
		c-1.1-1.8-2.4-3.9-4.4-8.1c-0.6-1.1-1.3-2.6-2-4.3l-0.6-1.3l0.8-1.3c0.8-1.4,1.6-2.6,2.6-3.9c4.8-6.2,10.5-9.6,21.8-16.3
		c4.2-2.4,7.4-4.2,10.1-5.5c5.7-3,7.4-3.9,7.8-5.9c0.8-3.7-3.2-8.8-7.3-11.1c-4-2.3-9.3-2.8-15-1.3c-7.1,1.9-13.7,6.7-16.9,12.1
		c-0.5,1-0.6,1.3-0.9,2.4c-0.3,1.6-0.8,4.2-2.5,9.8c-0.4,1.1-0.8,2.1-1,3.3l-3.2,9.1l-2.9-9.1c-1.9-5.7-2.3-8.2-2.5-9.8
		c-0.3-1.3-0.3-1.5-0.9-2.4c-3-5.4-9.7-10.2-16.8-12.1c-5.7-1.6-11.1-1.1-15,1.3c-4.2,2.4-8.2,7.6-7.3,11.1c0.4,1.9,2.1,2.9,7.8,5.9
		c2.6,1.4,5.9,3.2,10.1,5.7c11.3,6.7,17.1,10.1,21.8,16.3l1.4,2l-0.5,1.9c-2.3,4.8-3.7,6.8-4.7,8.4c-0.8,1.3-1.5,2.4-2.4,4.3
		c-8.4,17.4-5.5,35.9-4.8,39.3c0.8,3.9,1.6,6.2,2.9,9.5c1.5,3.8,3.4,9.1,6.2,19.4c0-0.1,0-0.1,0-0.1c0.6-5.3,0.1-8.4-0.5-12.5
		c-0.5-3.2-1-6.8-1.3-12.2c-0.4-8.1,0.4-16.5,1.9-24.5c1.3-6.8,3-11.7,4.7-16.4L253.5,302.1z"/>
	<circle class="st0" cx="96.8" cy="222.2" r="60.2"/>
	<circle class="st0" cx="142.9" cy="96.8" r="60.2"/>
	<circle class="st0" cx="366.6" cy="83.6" r="60.2"/>
	<path class="st0" d="M105.7,448.3l-3.3-9.6c-1.4-4.2-2.4-8.6-2.9-13c-0.6-6.2-0.1-9.8,0.6-14c0.4-3,1-6.4,1.3-11.6
		c0.4-7.8-0.3-15.5-1.8-23.2c-1-4.8-2.1-8.6-3.3-12.1c-0.8,2.6-1.6,5.5-2.1,8.8c-1.5,7.4-2.1,15.5-1.8,23.2c0.1,5,0.8,8.4,1.3,11.6
		c0.8,4.3,1.3,7.9,0.6,14c-0.4,4.4-1.4,8.8-2.9,13l-3.3,9.6l-2.1-9.8c-0.6-2.6-1.5-6.6-2.8-11.3c-2.8-10.2-4.5-15.1-6-19.2
		c-1.3-3.3-2.3-5.9-3.2-10.3c-0.8-3.9-4-24.1,5.3-43c1-2.1,1.9-3.3,2.8-4.8c1-1.5,2-3.3,3.7-6.4c-4-5-9.5-8.2-19.8-14.2
		c-4-2.4-7.3-4-9.8-5.4c-6.3-3.3-9.7-5-10.7-9.7c-1.4-6.6,4.2-13.7,10-17.1c5.3-3,12.2-3.8,19.4-1.9c8.6,2.3,16.4,7.9,20.3,14.7
		c1,1.8,1.1,2.6,1.5,4.2c0.1,0.4,0.1,0.8,0.3,1.1c0.6-2.1,0.9-3.5,1-4.4c0.3-1.6,0.5-2.4,1.5-4.2c3.9-6.8,11.6-12.5,20.3-14.7
		c7.2-1.9,14-1.3,19.4,1.9l0,0c5.9,3.4,11.3,10.6,10,17.1c-1,4.5-4.4,6.4-10.7,9.7c-2.6,1.4-5.9,3-9.8,5.4
		c-10.8,6.3-16.1,9.5-20.3,14.9c-0.5,0.8-1,1.4-1.5,2.1c0.5,1,1,1.9,1.3,2.8c2,4,3.2,5.9,4.2,7.7c0.9,1.4,1.6,2.8,2.8,4.8
		c9.3,19,6,39.1,5.3,43c-0.9,4.4-1.9,7.1-3.2,10.3c-1.5,3.9-3.3,8.8-6,19.2c-1.3,4.8-2.1,8.7-2.8,11.3L105.7,448.3z M96.2,348
		l4.3,11.6c1.6,4.4,3.3,9.6,4.7,16.4c1.6,7.9,2.1,16.3,1.9,24.5c-0.3,5.3-0.8,9.1-1.3,12.2c-0.6,4.2-1.1,7.2-0.5,12.5
		c0,0.1,0,0.1,0,0.3c2.8-10.5,4.8-15.6,6.2-19.4c1.3-3.2,2.1-5.5,2.9-9.5c0.4-2.1,3.9-21.7-4.8-39.3c-0.9-1.9-1.6-3-2.4-4.3
		c-1.1-1.8-2.4-3.9-4.4-8.1c-0.6-1.1-1.3-2.6-2-4.3l-0.6-1.3l0.8-1.3c0.8-1.4,1.6-2.6,2.6-3.9c4.8-6.2,10.5-9.6,21.8-16.3
		c4.2-2.4,7.4-4.2,10.1-5.5c5.7-3,7.4-3.9,7.8-5.9c0.8-3.7-3.2-8.8-7.3-11.1c-4-2.3-9.3-2.8-15-1.3c-7.1,1.9-13.7,6.7-16.9,12.1
		c-0.5,1-0.6,1.3-0.9,2.4c-0.3,1.6-0.8,4.2-2.5,9.8c-0.4,1.1-0.8,2.1-1,3.3l-3.2,9.1l-2.9-9.1c-1.9-5.7-2.3-8.2-2.5-9.8
		c-0.3-1.3-0.3-1.5-0.9-2.4c-3-5.4-9.7-10.2-16.8-12.1c-5.7-1.6-11.1-1.1-15,1.3c-4.2,2.4-8.2,7.6-7.3,11.1c0.4,1.9,2.1,2.9,7.8,5.9
		c2.6,1.4,5.9,3.2,10.1,5.7c11.3,6.7,17.1,10.1,21.8,16.3l1.4,2l-0.5,1.9c-2.3,4.8-3.7,6.8-4.7,8.4c-0.8,1.3-1.5,2.4-2.4,4.3
		c-8.4,17.4-5.5,35.9-4.8,39.3c0.8,3.9,1.6,6.2,2.9,9.5c1.5,3.8,3.4,9.1,6.2,19.4c0-0.1,0-0.1,0-0.1c0.6-5.3,0.1-8.4-0.5-12.5
		c-0.5-3.2-1-6.8-1.3-12.2c-0.4-8.1,0.4-16.5,1.9-24.5c1.3-6.8,3-11.7,4.7-16.4L96.2,348z"/>
	<circle class="st0" cx="403.2" cy="223" r="60.2"/>
	<path class="st0" d="M412.1,449.1l-3.3-9.6c-1.4-4.2-2.4-8.6-2.9-13c-0.6-6.2-0.1-9.8,0.6-14c0.4-3,1-6.4,1.3-11.6
		c0.4-7.8-0.3-15.5-1.8-23.2c-1-4.8-2.1-8.6-3.3-12.1c-0.8,2.6-1.6,5.5-2.1,8.8c-1.5,7.4-2.1,15.5-1.8,23.2c0.1,5,0.8,8.4,1.3,11.6
		c0.8,4.3,1.3,7.9,0.6,14c-0.4,4.4-1.4,8.8-2.9,13l-3.3,9.6l-2.1-9.8c-0.6-2.6-1.5-6.6-2.8-11.3c-2.8-10.2-4.5-15.1-6-19.2
		c-1.3-3.3-2.3-5.9-3.2-10.3c-0.8-3.9-4-24.1,5.3-43c1-2.1,1.9-3.3,2.8-4.8c1-1.5,2-3.3,3.7-6.4c-4-5-9.5-8.2-19.8-14.2
		c-4-2.4-7.3-4-9.8-5.4c-6.3-3.3-9.7-5-10.7-9.7c-1.4-6.6,4.2-13.7,10-17.1c5.3-3,12.2-3.8,19.4-1.9c8.6,2.3,16.4,7.9,20.3,14.7
		c1,1.8,1.1,2.6,1.5,4.2c0.1,0.4,0.1,0.8,0.3,1.1c0.6-2.1,0.9-3.5,1-4.4c0.3-1.6,0.5-2.4,1.5-4.2c3.9-6.8,11.6-12.5,20.3-14.7
		c7.2-1.9,14-1.3,19.4,1.9l0,0c5.9,3.4,11.3,10.6,10,17.1c-1,4.5-4.4,6.4-10.7,9.7c-2.6,1.4-5.9,3-9.8,5.4
		c-10.8,6.3-16.1,9.5-20.3,14.9c-0.5,0.8-1,1.4-1.5,2.1c0.5,1,1,1.9,1.3,2.8c2,4,3.2,5.9,4.2,7.7c0.9,1.4,1.6,2.8,2.8,4.8
		c9.3,19,6,39.1,5.3,43c-0.9,4.4-1.9,7.1-3.2,10.3c-1.5,3.9-3.3,8.8-6,19.2c-1.3,4.8-2.1,8.7-2.8,11.3L412.1,449.1z M402.6,348.8
		l4.3,11.6c1.6,4.4,3.3,9.6,4.7,16.4c1.6,7.9,2.1,16.3,1.9,24.5c-0.3,5.3-0.8,9.1-1.3,12.2c-0.6,4.2-1.1,7.2-0.5,12.5
		c0,0.1,0,0.1,0,0.3c2.8-10.5,4.8-15.6,6.2-19.4c1.3-3.2,2.1-5.5,2.9-9.5c0.4-2.1,3.9-21.7-4.8-39.3c-0.9-1.9-1.6-3-2.4-4.3
		c-1.1-1.8-2.4-3.9-4.4-8.1c-0.6-1.1-1.3-2.6-2-4.3l-0.6-1.3l0.8-1.3c0.8-1.4,1.6-2.6,2.6-3.9c4.8-6.2,10.5-9.6,21.8-16.3
		c4.2-2.4,7.4-4.2,10.1-5.5c5.7-3,7.4-3.9,7.8-5.9c0.8-3.7-3.2-8.8-7.3-11.1c-4-2.3-9.3-2.8-15-1.3c-7.1,1.9-13.7,6.7-16.9,12.1
		c-0.5,1-0.6,1.3-0.9,2.4c-0.3,1.6-0.8,4.2-2.5,9.8c-0.4,1.1-0.8,2.1-1,3.3l-3.2,9.1l-2.9-9.1c-1.9-5.7-2.3-8.2-2.5-9.8
		c-0.3-1.3-0.3-1.5-0.9-2.4c-3-5.4-9.7-10.2-16.8-12.1c-5.7-1.6-11.1-1.1-15,1.3c-4.2,2.4-8.2,7.6-7.3,11.1c0.4,1.9,2.1,2.9,7.8,5.9
		c2.6,1.4,5.9,3.2,10.1,5.7c11.3,6.7,17.1,10.1,21.8,16.3l1.4,2l-0.5,1.9c-2.3,4.8-3.7,6.8-4.7,8.4c-0.8,1.3-1.5,2.4-2.4,4.3
		c-8.4,17.4-5.5,35.9-4.8,39.3c0.8,3.9,1.6,6.2,2.9,9.5c1.5,3.8,3.4,9.1,6.2,19.4c0-0.1,0-0.1,0-0.1c0.6-5.3,0.1-8.4-0.5-12.5
		c-0.5-3.2-1-6.8-1.3-12.2c-0.4-8.1,0.4-16.5,1.9-24.5c1.3-6.8,3-11.7,4.7-16.4L402.6,348.8z"/>
	<path class="st0" d="M457,320.8c-6.8-4.4-15.4-4.9-22.3-0.9c-0.6,0.4-1.1,0.8-1.8,1c-11.1,6.6-16.6,9.8-21,15.5
		c-0.9,1.1-1.6,2.4-2.4,3.7c0.8,1.6,1.4,3,2,4.2c3.7,7.3,4.7,7.9,6.8,12.4c9.2,18.7,5.5,38.8,5,41.2c-1.8,9.1-4.2,10-9.1,29.2
		c-1.3,4.8-2.1,8.8-2.8,11.3c-1-2.8-2.1-7.1-2.8-12.4c-1-10,1.3-12.9,1.9-25.2c0.1-4.9,0.1-13.6-1.9-23.8c-1.3-6.7-3-11.3-4.5-16
		c-0.5-1.6-1-3-1.5-4.3c-0.1,0.4-0.3,0.8-0.4,1c-1.6,4.5-3.3,9.3-4.5,16c-2,10.2-2,18.9-1.9,23.8c0.5,12.4,2.9,15.3,1.9,25.2
		c-0.6,5.3-1.9,9.7-2.8,12.4c-0.6-2.6-1.5-6.7-2.8-11.3c-5-19.3-7.3-20.3-9.1-29.2c-0.4-2.4-4.2-22.4,5-41.2c2.1-4.4,3.3-5,6.8-12.4
		c0.1-0.1,0.1-0.4,0.1-0.4c-0.1-0.3-0.4-0.6-0.6-0.9c-4.4-5.8-10-9.1-21-15.5c-1.8-1-3.3-1.9-4.8-2.8c-7.2-3.9-15.9-3.3-22.6,1.5
		c-24.2,17.6-40,46.1-40,78.4v54.4c0,11.6,9.3,20.9,20.9,20.9h152c11.6,0,20.9-9.3,20.9-20.9v-54.4C500.1,367.7,483,338.2,457,320.8
		z"/>
	<path class="st0" d="M150.9,316.4c-6.8-4.4-15.4-4.9-22.3-0.9c-0.6,0.4-1.1,0.8-1.8,1c-11.1,6.6-16.6,9.8-21,15.5
		c-0.9,1.1-1.6,2.4-2.4,3.7c0.8,1.6,1.4,3,2,4.2c3.7,7.3,4.7,7.9,6.8,12.4c9.2,18.7,5.5,38.8,5,41.2c-1.8,9.1-4.2,10-9.1,29.2
		c-1.3,4.8-2.1,8.8-2.8,11.3c-1-2.8-2.1-7.1-2.8-12.4c-1-10,1.3-12.9,1.9-25.2c0.1-4.9,0.1-13.6-1.9-23.8c-1.3-6.7-3-11.3-4.5-16
		c-0.5-1.6-1-3-1.5-4.3c-0.1,0.4-0.3,0.8-0.4,1c-1.6,4.5-3.3,9.3-4.5,16c-2,10.2-2,18.9-1.9,23.8c0.5,12.4,2.9,15.3,1.9,25.2
		c-0.6,5.3-1.9,9.7-2.8,12.4c-0.6-2.6-1.5-6.7-2.8-11.3c-5-19.3-7.3-20.3-9.1-29.2c-0.4-2.4-4.2-22.4,5-41.2c2.1-4.4,3.3-5,6.8-12.4
		c0.1-0.1,0.1-0.4,0.1-0.4c-0.1-0.3-0.4-0.6-0.6-0.9c-4.4-5.8-10-9.1-21-15.5c-1.8-1-3.3-1.9-4.8-2.8c-7.2-3.9-15.9-3.3-22.6,1.5
		c-24.2,17.6-40,46.1-40,78.4v54.4c0,11.6,9.3,20.9,20.9,20.9h152c11.6,0,20.9-9.3,20.9-20.9v-54.4
		C193.8,363.2,176.8,333.8,150.9,316.4z"/>
	<path class="st0" d="M296.4,430.8v-32.4c0-32.3,15.8-60.8,40-78.4c1.3-1,2.8-1.6,4.2-2.3c-7.4-17.5-19.8-32.5-35.4-43
		c-6.8-4.4-15.4-4.9-22.3-0.9c-0.6,0.4-1.1,0.8-1.8,1c-11.1,6.6-16.6,9.8-21,15.5c-0.9,1.1-1.6,2.4-2.4,3.7c0.8,1.6,1.4,3,2,4.2
		c3.7,7.3,4.7,7.9,6.8,12.4c9.2,18.7,5.5,38.8,5,41.2c-1.8,9.1-4.2,10-9.1,29.2c-1.3,4.8-2.1,8.8-2.8,11.3c-1-2.8-2.1-7.1-2.8-12.4
		c-1-10,1.3-12.9,1.9-25.2c0.1-4.9,0.1-13.6-1.9-23.8c-1.3-6.7-3-11.3-4.5-16c-0.5-1.6-1-3-1.5-4.3c-0.1,0.4-0.3,0.8-0.4,1
		c-1.6,4.5-3.3,9.3-4.5,16c-2,10.2-2,18.9-1.9,23.8c0.5,12.4,2.9,15.3,1.9,25.2c-0.6,5.3-1.9,9.7-2.8,12.4
		c-0.6-2.6-1.5-6.7-2.8-11.3c-5-19.3-7.3-20.3-9.1-29.2c-0.4-2.4-4.2-22.4,5-41.2c2.1-4.4,3.3-5,6.8-12.4c0.1-0.1,0.1-0.4,0.1-0.4
		c-0.1-0.3-0.4-0.6-0.6-0.9c-4.4-5.8-10-9.1-21-15.5c-1.8-1-3.3-1.9-4.8-2.8c-7.2-3.9-15.9-3.3-22.6,1.5
		c-12.5,9.1-22.7,21.2-29.6,35c22.7,17.8,37.4,45.1,37.4,76.3v42.3h94.4L296.4,430.8L296.4,430.8z"/>
</g>
</svg>
