<?xml version="1.0" encoding="utf-8"?>
<!-- Generator: Adobe Illustrator 23.0.2, SVG Export Plug-In . SVG Version: 6.00 Build 0)  -->
<svg version="1.1" id="Layer_1" xmlns="http://www.w3.org/2000/svg" xmlns:xlink="http://www.w3.org/1999/xlink" x="0px" y="0px"
	 viewBox="0 0 500 500" style="enable-background:new 0 0 500 500;" xml:space="preserve">
<style type="text/css">
	.st0{fill:#FFFFFF;}
</style>
<g>
	<g>
		<polygon class="st0" points="117.4,182.8 51.8,131.3 13.3,163.5 7.1,156 51.6,118.6 115.6,168.8 185.9,77.6 236.6,166.4 
			228,171.3 184.6,95.4 		"/>
	</g>
	<g>
		<path class="st0" d="M77.8,113.2c-16.5,0-30-13.4-30-30c0-16.5,13.4-30,30-30s30,13.4,30,30C107.7,99.7,94.3,113.2,77.8,113.2z
			 M77.8,63.1c-11.1,0-20.1,9-20.1,20.1s9,20.1,20.1,20.1s20.1-9,20.1-20.1C97.8,72.2,88.8,63.1,77.8,63.1z"/>
	</g>
	<g>
		<g>
			<polygon class="st0" points="372.9,182.8 307.3,131.3 268.8,163.5 262.4,156 307,118.6 371.1,168.8 441.2,77.6 492.1,166.4 
				483.5,171.3 440.1,95.4 			"/>
		</g>
	</g>
	<g>
		<g>
			<path class="st0" d="M333.2,113.2c-16.5,0-30-13.4-30-30c0-16.5,13.4-30,30-30c16.5,0,30,13.4,30,30
				C363.2,99.7,349.8,113.2,333.2,113.2z M333.2,63.1c-11.1,0-20.1,9-20.1,20.1s9,20.1,20.1,20.1s20.1-9,20.1-20.1
				C353.3,72.2,344.3,63.1,333.2,63.1z"/>
		</g>
	</g>
	<g>
		<g>
			<path class="st0" d="M191,236H54.5c-27.4,0-49.8-22.3-49.8-49.8V49.8C4.8,22.4,27.1,0,54.5,0h136.4c27.4,0,49.8,22.3,49.8,49.8
				v136.4C240.7,213.7,218.4,236,191,236z M54.5,20.7c-16,0-29,13.1-29,29v136.4c0,16,13.1,29,29,29h136.4c16,0,29-13.1,29-29V49.8
				c0-16-13.1-29-29-29L54.5,20.7L54.5,20.7z"/>
		</g>
	</g>
	<g>
		<g>
			<path class="st0" d="M445.5,236H309.1c-27.4,0-49.8-22.3-49.8-49.8V49.8c0-27.4,22.3-49.8,49.8-49.8h136.4
				c27.4,0,49.8,22.3,49.8,49.8v136.4C495.3,213.7,473,236,445.5,236z M309.1,20.7c-16,0-29,13.1-29,29v136.4c0,16,13.1,29,29,29
				h136.4c16,0,29-13.1,29-29V49.8c0-16-13.1-29-29-29L309.1,20.7L309.1,20.7z"/>
		</g>
	</g>
	<g>
		<g>
			<g>
				<polygon class="st0" points="117.4,446.8 51.8,395.3 13.3,427.6 7.1,420 51.6,382.6 115.6,432.9 185.9,341.7 236.6,430.4 
					228,435.3 184.6,359.5 				"/>
			</g>
		</g>
		<g>
			<g>
				<path class="st0" d="M77.8,377.2c-16.5,0-30-13.4-30-30c0-16.5,13.4-30,30-30s30,13.4,30,30C107.7,363.7,94.3,377.2,77.8,377.2z
					 M77.8,327.1c-11.1,0-20.1,9-20.1,20.1s9,20.1,20.1,20.1s20.1-9,20.1-20.1C97.8,336.2,88.8,327.1,77.8,327.1z"/>
			</g>
		</g>
		<g>
			<g>
				<polygon class="st0" points="372.9,446.8 307.3,395.3 268.8,427.6 262.4,420 307,382.6 371.1,432.9 441.2,341.7 492.1,430.4 
					483.5,435.3 440.1,359.5 				"/>
			</g>
		</g>
		<g>
			<g>
				<path class="st0" d="M333.2,377.2c-16.5,0-30-13.4-30-30c0-16.5,13.4-30,30-30c16.5,0,30,13.4,30,30
					C363.2,363.7,349.8,377.2,333.2,377.2z M333.2,327.1c-11.1,0-20.1,9-20.1,20.1s9,20.1,20.1,20.1s20.1-9,20.1-20.1
					C353.3,336.2,344.3,327.1,333.2,327.1z"/>
			</g>
		</g>
		<g>
			<g>
				<g>
					<path class="st0" d="M191,500H54.5c-27.4,0-49.8-22.3-49.8-49.8V313.9c0-27.4,22.3-49.8,49.8-49.8h136.4
						c27.4,0,49.8,22.3,49.8,49.8v136.4C240.7,477.7,218.4,500,191,500z M54.5,284.8c-16,0-29,13.1-29,29v136.4c0,16,13.1,29,29,29
						h136.4c16,0,29-13.1,29-29V313.8c0-16-13.1-29-29-29H54.5z"/>
				</g>
			</g>
			<g>
				<g>
					<path class="st0" d="M445.5,500H309.1c-27.4,0-49.8-22.3-49.8-49.8V313.9c0-27.4,22.3-49.8,49.8-49.8h136.4
						c27.4,0,49.8,22.3,49.8,49.8v136.4C495.3,477.7,473,500,445.5,500z M309.1,284.8c-16,0-29,13.1-29,29v136.4c0,16,13.1,29,29,29
						h136.4c16,0,29-13.1,29-29V313.8c0-16-13.1-29-29-29H309.1z"/>
				</g>
			</g>
		</g>
	</g>
</g>
</svg>
