<?xml version="1.0" encoding="utf-8"?>
<!-- Generator: Adobe Illustrator 23.0.2, SVG Export Plug-In . SVG Version: 6.00 Build 0)  -->
<svg version="1.1" id="Layer_1" xmlns="http://www.w3.org/2000/svg" xmlns:xlink="http://www.w3.org/1999/xlink" x="0px" y="0px"
	 viewBox="0 0 500 500" style="enable-background:new 0 0 500 500;" xml:space="preserve">
<style type="text/css">
	.st0{fill:#FFFFFF;}
</style>
<g>
	<g>
		<g>
			<path class="st0" d="M169.5,500c-20.2,0-38.7-14.7-42.7-35.1l-7.4-37.4c-2.3-11.3,0.1-22.7,6.5-32c6.4-9.2,16-15.1,27.1-17
				l119-26.1L14.9,98C6.7,89.8,2.3,79.3,2,68.2c-0.2-11.4,4-22.1,12-30L40.2,12C56.4-4.3,83.3-3.9,100,12.8l256.3,253.5l20.1-119.6
				c1.7-11,7.8-20.6,17-27c9.3-6.4,20.6-8.7,32-6.5l37.4,7.4c22.7,4.5,38.3,26.5,34.7,49.2l-40.6,247.7c-1,6.2-3.4,12-7.1,17.2
				c-1.8,2.4-3.2,4-4.7,5.6c-1.2,1.2-2.9,2.7-4.6,3.9c-5.9,4.2-11.8,6.7-17.9,7.6l-246.3,47.7C173.8,499.8,171.7,500,169.5,500z
				 M69.4,28.5c-3.3,0-6.5,1.2-9,3.6L34.2,58.3c-2.4,2.4-3.6,5.7-3.6,9.2c0.1,3.8,1.7,7.4,4.5,10.2L329.5,369l-171.1,37.4
				c-4.2,0.7-7.1,2.5-9.1,5.2c-2.1,2.9-2.7,6.4-1.9,10.1l7.4,37.4c1.6,7.6,9.2,13.1,16.6,12l246.1-47.7c2.3-0.4,4-1.1,5.7-2.3
				c0.7-0.5,1.2-0.8,1.6-1.3c0.7-0.7,1.1-1.2,1.5-1.7c1.3-1.8,2.1-3.5,2.3-5.5L469.1,165c1.2-7.5-4.4-15.1-12-16.7l-37.4-7.4
				c-3.6-0.7-7.3,0-10.1,2.1c-2.8,1.9-4.6,4.8-5.1,8.2L375.3,325L79.9,32.8C77,30,73.1,28.5,69.4,28.5z"/>
		</g>
	</g>
</g>
</svg>
