<?xml version="1.0" encoding="utf-8"?>
<!-- Generator: Adobe Illustrator 23.0.2, SVG Export Plug-In . SVG Version: 6.00 Build 0)  -->
<svg version="1.1" id="Layer_1" xmlns="http://www.w3.org/2000/svg" xmlns:xlink="http://www.w3.org/1999/xlink" x="0px" y="0px"
	 viewBox="0 0 500 500" style="enable-background:new 0 0 500 500;" xml:space="preserve">
<style type="text/css">
	.st0{fill:#FFFFFF;}
</style>
<g>
	<g>
		<g>
			<path class="st0" d="M318.8,454.3l-26.9-18c-8.1-5.5-13.6-13.7-15.2-23.1s0.5-18.8,6.1-26.4l59.7-83.8l-306.1-1.6
				C16.4,301.2,0,285.3,0,265.8v-31.5c0-19.5,16.3-35.4,36.4-35.4l307.2,1.6l-55.8-87.1c-5.7-7.8-7.8-17.2-6.2-26.5
				c1.6-9.5,7.1-17.7,15.2-23.1l27-18c16.3-10.9,38.9-7,50.3,8.7l119.2,176.6c3.1,4.3,5.1,9.3,6.2,15.3c0.3,1.9,0.4,3.7,0.4,5.2
				c0.1,1.9-0.1,3.7-0.3,4.8l-0.2,1.3c-0.9,5.5-3,10.4-6.1,14.6L369,445.3c-7.1,9.7-18.4,14.9-29.8,14.9
				C332.2,460.4,325.1,458.5,318.8,454.3z M337.4,66.1l-27,18c-2.6,1.7-4.3,4.3-4.8,7.2c-0.5,2.9,0.1,5.7,2.3,8.6l80.2,125.2
				l-351.6-2c-6.7,0-12.1,5-12.1,11.2v31.5c0,6.2,5.5,11.2,12.2,11.2l352.8,2l-86.8,122c-1.6,2.4-2.4,5.2-1.9,8
				c0.5,2.9,2.2,5.5,4.8,7.2l26.9,18c5.7,3.7,13.5,2.4,17.3-2.8l124.3-173c0.9-1.3,1.5-2.8,1.9-4.7c0-0.5,0.1-1.1,0.1-1.9
				c0-0.5-0.1-1-0.2-1.7c-0.3-1.7-0.9-3.2-2.1-4.8L354.5,68.8C350.6,63.6,342.8,62.4,337.4,66.1z"/>
		</g>
	</g>
</g>
</svg>
