<?xml version="1.0" encoding="utf-8"?>
<!-- Generator: Adobe Illustrator 23.0.2, SVG Export Plug-In . SVG Version: 6.00 Build 0)  -->
<svg version="1.1" id="Layer_1" xmlns="http://www.w3.org/2000/svg" xmlns:xlink="http://www.w3.org/1999/xlink" x="0px" y="0px"
	 viewBox="0 0 500 500" style="enable-background:new 0 0 500 500;" xml:space="preserve">
<style type="text/css">
	.st0{fill:#FFFFFF;}
</style>
<g>
	<g>
		<g>
			<path class="st0" d="M98.4,336.5c-42.6,0-78.7-33.2-81.5-76.4c-1.5-21.8,5.8-42.8,20.2-59.2s34.3-26.2,56.1-27.7
				s42.8,5.8,59.2,20.2s26.2,34.3,27.7,56.1s-5.8,42.8-20.2,59.2s-34.3,26.2-56.1,27.7C102,336.5,100.1,336.5,98.4,336.5z
				 M98.5,194.5c-1.4,0-2.6,0.1-4,0.1c-16.1,1-30.8,8.3-41.4,20.4c-10.6,12-15.9,27.6-14.9,43.6c2.2,33.1,30.9,58.2,64,56.1
				c16.1-1,30.8-8.3,41.4-20.4c10.6-12,15.9-27.6,14.8-43.6l0,0c-1-16.1-8.3-30.8-20.4-41.4C127.1,199.8,113.1,194.5,98.5,194.5z"/>
		</g>
	</g>
	<g>
		<g>
			<path class="st0" d="M401.4,163.5c-42.6,0-78.7-33.2-81.5-76.4c-1.5-21.8,5.8-42.8,20.2-59.2s34.3-26.2,56.1-27.7
				S439,6,455.4,20.4c16.4,14.4,26.2,34.3,27.7,56.1c2.9,45-31.3,83.9-76.2,86.9C405,163.5,403.2,163.5,401.4,163.5z M401.6,21.5
				c-1.4,0-2.6,0.1-4,0.1c-16.1,1-30.8,8.3-41.4,20.4c-10.6,12-15.9,27.6-14.9,43.6c2.2,33.1,30.9,58.3,64,56.1s58.3-30.9,56.1-64
				l0,0c-1-16.1-8.3-30.8-20.4-41.4C430.1,26.8,416.2,21.5,401.6,21.5z"/>
		</g>
	</g>
	<g>
		<g>
			
				<rect x="169.6" y="151.5" transform="matrix(0.8572 -0.515 0.515 0.8572 -48.5827 149.2419)" class="st0" width="150.4" height="21.5"/>
		</g>
	</g>
	<g>
		<g>
			<path class="st0" d="M401.3,500c-19.8,0-38.8-7.1-53.8-20.3c-16.4-14.4-26.2-34.3-27.7-56.1c-1.5-21.8,5.8-42.8,20.2-59.2
				s34.3-26.2,56.1-27.7c21.8-1.4,42.8,5.8,59.2,20.2c16.4,14.4,26.2,34.3,27.7,56.1c1.5,21.8-5.8,42.8-20.2,59.2l0,0
				c-14.4,16.4-34.3,26.2-56.1,27.7C405,500,403.1,500,401.3,500z M401.6,358c-1.4,0-2.6,0-4,0.2c-16.1,1-30.8,8.3-41.4,20.4
				s-15.9,27.6-14.9,43.6c1,16.1,8.3,30.8,20.4,41.4s27.6,16,43.6,14.9c16.1-1,30.8-8.3,41.4-20.4l0,0
				c10.6-12.1,15.9-27.6,14.9-43.6c-1-16.1-8.3-30.8-20.4-41.4C430.1,363.3,416.2,358,401.6,358z"/>
		</g>
	</g>
	<g>
		<g>
			
				<rect x="234.4" y="271.4" transform="matrix(0.4374 -0.8993 0.8993 0.4374 -173.7234 415.4628)" class="st0" width="21.5" height="150.4"/>
		</g>
	</g>
</g>
</svg>
