<?xml version="1.0" encoding="utf-8"?>
<!-- Generator: Adobe Illustrator 23.0.2, SVG Export Plug-In . SVG Version: 6.00 Build 0)  -->
<svg version="1.1" id="Layer_1" xmlns="http://www.w3.org/2000/svg" xmlns:xlink="http://www.w3.org/1999/xlink" x="0px" y="0px"
	 viewBox="0 0 500 500" style="enable-background:new 0 0 500 500;" xml:space="preserve">
<style type="text/css">
	.st0{fill:#FFFFFF;}
</style>
<g>
	<path class="st0" d="M250,0C111.9,0,0,111.9,0,250s111.9,250,250,250s250-111.9,250-250S388.1,0,250,0z M425.5,291.7H291.7v133.9
		c0,15.3-12.4,27.5-27.5,27.5H236c-15.3,0-27.5-12.4-27.5-27.5V291.7h-134c-15.3,0-27.5-12.4-27.5-27.5V236
		c0-15.3,12.4-27.5,27.5-27.5h133.9v-134c0-15.3,12.4-27.5,27.5-27.5h28.2c15.3,0,27.5,12.4,27.5,27.5v133.9h133.9
		c15.3,0,27.5,12.4,27.5,27.5v28.2C453.1,279.4,440.7,291.7,425.5,291.7z"/>
</g>
</svg>
