<?xml version="1.0" encoding="utf-8"?>
<!-- Generator: Adobe Illustrator 23.0.2, SVG Export Plug-In . SVG Version: 6.00 Build 0)  -->
<svg version="1.1" id="Layer_1" xmlns="http://www.w3.org/2000/svg" xmlns:xlink="http://www.w3.org/1999/xlink" x="0px" y="0px"
	 viewBox="0 0 500 500" style="enable-background:new 0 0 500 500;" xml:space="preserve">
<style type="text/css">
	.st0{fill:#FFFFFF;}
</style>
<g>
	<ellipse transform="matrix(0.7071 -0.7071 0.7071 0.7071 -17.5254 217.7124)" class="st0" cx="254" cy="130" rx="60.2" ry="60.2"/>
	<path class="st0" d="M262.9,356l-3.2-9.6c-1.4-4.2-2.5-8.6-2.9-13c-0.6-6.1-0.1-9.8,0.6-14c0.4-3.1,1.1-6.5,1.2-11.6
		c0.4-7.8-0.3-15.5-1.8-23.1c-1-4.8-2.1-8.6-3.2-12.1c-0.8,2.6-1.6,5.5-2.2,8.9c-1.5,7.5-2.1,15.5-1.8,23.1
		c0.2,5.1,0.7,8.5,1.2,11.6c0.7,4.3,1.2,8,0.6,14c-0.4,4.4-1.4,8.8-2.9,13l-3.2,9.6l-2.2-9.8c-0.6-2.6-1.5-6.6-2.7-11.3
		c-2.7-10.3-4.6-15.2-6.1-19.1c-1.3-3.3-2.3-6-3.2-10.3c-0.8-3.9-4-24,5.3-43c1.1-2.1,1.8-3.3,2.7-4.7c1-1.5,2-3.2,3.7-6.5
		c-4-5-9.5-8.2-19.8-14.3c-4-2.4-7.3-4-9.8-5.4c-6.3-3.3-9.7-5.1-10.7-9.7c-1.4-6.6,4.1-13.8,10-17.2c5.3-3.1,12.2-3.8,19.4-1.8
		c8.6,2.3,16.4,8,20.3,14.7c1,1.8,1.1,2.6,1.5,4.2c0.1,0.4,0.1,0.7,0.3,1.1c0.6-2.2,0.9-3.5,1-4.4c0.3-1.6,0.5-2.5,1.5-4.2
		c3.9-6.8,11.6-12.5,20.3-14.7c7.2-1.9,14-1.3,19.4,1.8l0,0c5.9,3.4,11.4,10.6,10,17.2c-1,4.6-4.4,6.4-10.7,9.7
		c-2.6,1.4-5.9,3.1-9.8,5.4c-10.8,6.3-16.1,9.5-20.3,14.8c-0.5,0.7-1,1.4-1.5,2.1c0.5,1.1,1,1.9,1.3,2.8c2,4,3.2,5.9,4.2,7.6
		c0.9,1.4,1.7,2.7,2.7,4.7c9.3,19,6.1,39.1,5.3,43c-0.9,4.4-1.8,7-3.2,10.3c-1.5,3.9-3.3,8.8-6.1,19.1c-1.2,4.7-2.1,8.7-2.7,11.3
		L262.9,356z M253.3,255.7l4.3,11.6c1.6,4.5,3.3,9.6,4.6,16.4c1.6,8,2.2,16.2,1.9,24.5c-0.3,5.3-0.8,9-1.3,12.2
		c-0.6,4.2-1.1,7.2-0.5,12.5c0,0.1,0,0.2,0,0.3c2.7-10.4,4.7-15.6,6.1-19.4c1.2-3.2,2.1-5.5,2.9-9.5c0.4-2.2,3.9-21.7-4.8-39.4
		c-0.9-1.8-1.6-3-2.5-4.3c-1.1-1.8-2.4-3.9-4.5-8.1c-0.6-1.1-1.3-2.6-2-4.3l-0.6-1.3l0.7-1.2c0.8-1.4,1.7-2.6,2.6-3.9
		c4.7-6.2,10.4-9.6,21.8-16.3c4.1-2.5,7.5-4.1,10.1-5.5c5.6-3,7.5-3.9,7.8-5.9c0.8-3.7-3.2-8.8-7.4-11.1c-4-2.3-9.3-2.8-15-1.2
		c-7.1,1.9-13.7,6.7-16.8,12.1c-0.5,1-0.6,1.2-0.9,2.5c-0.3,1.6-0.8,4.1-2.5,9.8c-0.4,1.1-0.7,2.2-1.1,3.2l-3.2,9l-2.9-9
		c-1.8-5.7-2.3-8.2-2.5-9.8c-0.3-1.2-0.3-1.5-0.9-2.5c-3.1-5.4-9.6-10.2-16.7-12.1c-5.7-1.6-11-1.1-15,1.2
		c-4.2,2.5-8.2,7.5-7.4,11.1c0.4,1.8,2.2,2.9,7.8,5.9c2.6,1.4,6,3.2,10.1,5.6c11.4,6.7,17.1,10.1,21.8,16.3l1.4,2l-0.5,1.8
		c-2.3,4.7-3.6,6.8-4.6,8.5c-0.8,1.3-1.5,2.5-2.5,4.3c-8.5,17.4-5.5,35.9-4.8,39.4c0.8,3.9,1.7,6.2,2.9,9.5c1.5,3.8,3.4,9,6.1,19.4
		c0-0.1,0-0.2,0-0.2c0.6-5.3,0.1-8.4-0.5-12.5c-0.5-3.2-1.1-6.8-1.3-12.2c-0.4-8.1,0.4-16.6,1.9-24.5c1.3-6.8,3.1-11.7,4.6-16.4
		L253.3,255.7z"/>
	<circle class="st0" cx="96.6" cy="175.8" r="60.2"/>
	<path class="st0" d="M105.5,401.9l-3.2-9.6c-1.4-4.2-2.5-8.6-2.9-13c-0.6-6.1-0.1-9.8,0.6-14c0.4-3.1,1.1-6.5,1.2-11.6
		c0.4-7.8-0.3-15.5-1.8-23.1c-1-4.8-2.1-8.6-3.2-12.1c-0.8,2.6-1.6,5.5-2.2,8.9c-1.5,7.5-2.1,15.5-1.8,23.1
		c0.2,5.1,0.7,8.5,1.2,11.6c0.7,4.3,1.2,8,0.6,14c-0.4,4.4-1.4,8.8-2.9,13l-3.2,9.6l-2.2-9.8c-0.6-2.6-1.5-6.6-2.7-11.3
		c-2.7-10.3-4.6-15.2-6.1-19.1c-1.3-3.3-2.3-6-3.2-10.3c-0.8-3.9-4-24,5.3-43c1.1-2.1,1.8-3.3,2.7-4.7c1-1.5,2-3.2,3.7-6.5
		c-4-5-9.5-8.2-19.8-14.3c-4-2.4-7.3-4-9.8-5.4c-6.3-3.3-9.7-5.1-10.7-9.7c-1.4-6.6,4.1-13.8,10-17.2c5.3-3.1,12.2-3.8,19.4-1.8
		c8.6,2.3,16.4,8,20.3,14.7c1,1.8,1.1,2.6,1.5,4.2c0.1,0.4,0.1,0.7,0.3,1.1c0.6-2.2,0.9-3.5,1-4.4c0.3-1.6,0.5-2.5,1.5-4.2
		c3.9-6.8,11.6-12.5,20.3-14.7c7.2-1.9,14-1.3,19.4,1.8l0,0c5.9,3.4,11.4,10.6,10,17.2c-1,4.6-4.4,6.4-10.7,9.7
		c-2.6,1.4-5.9,3.1-9.8,5.4c-10.8,6.3-16.1,9.5-20.3,14.8c-0.5,0.7-1,1.4-1.5,2.1c0.5,1.1,1,1.9,1.3,2.8c2,4,3.2,5.9,4.2,7.6
		c0.9,1.4,1.7,2.7,2.7,4.7c9.3,19,6.1,39.1,5.3,43c-0.9,4.4-1.8,7-3.2,10.3c-1.5,3.9-3.3,8.8-6.1,19.1c-1.2,4.7-2.1,8.7-2.7,11.3
		L105.5,401.9z M95.9,301.6l4.3,11.6c1.6,4.5,3.3,9.6,4.6,16.4c1.6,8,2.2,16.2,1.9,24.5c-0.3,5.3-0.8,9-1.3,12.2
		c-0.6,4.2-1.1,7.2-0.5,12.5c0,0.1,0,0.2,0,0.3c2.7-10.4,4.7-15.6,6.1-19.4c1.2-3.2,2.1-5.5,2.9-9.5c0.4-2.2,3.9-21.7-4.8-39.4
		c-0.9-1.8-1.6-3-2.5-4.3c-1.1-1.8-2.4-3.9-4.5-8.1c-0.6-1.1-1.3-2.6-2-4.3l-0.6-1.3l0.7-1.2c0.8-1.4,1.7-2.6,2.6-3.9
		c4.7-6.2,10.4-9.6,21.8-16.3c4.1-2.5,7.5-4.1,10.1-5.5c5.6-3,7.5-3.9,7.8-5.9c0.8-3.7-3.2-8.8-7.4-11.1c-4-2.3-9.3-2.8-15-1.2
		c-7.1,1.9-13.7,6.7-16.8,12.1c-0.5,1-0.6,1.2-0.9,2.5c-0.3,1.6-0.8,4.1-2.5,9.8c-0.4,1.1-0.7,2.2-1.1,3.2l-3.2,9l-2.9-9
		c-1.8-5.7-2.3-8.2-2.5-9.8c-0.3-1.2-0.3-1.5-0.9-2.5c-3.1-5.4-9.6-10.2-16.7-12.1c-5.7-1.6-11-1.1-15,1.2
		c-4.2,2.5-8.2,7.5-7.4,11.1c0.4,1.8,2.2,2.9,7.8,5.9c2.6,1.4,6,3.2,10.1,5.6c11.4,6.7,17.1,10.1,21.8,16.3l1.4,2l-0.5,1.8
		c-2.3,4.7-3.6,6.8-4.6,8.5c-0.8,1.3-1.5,2.5-2.5,4.3c-8.5,17.4-5.5,35.9-4.8,39.4c0.8,3.9,1.7,6.2,2.9,9.5c1.5,3.8,3.4,9,6.1,19.4
		c0-0.1,0-0.2,0-0.2c0.6-5.3,0.1-8.4-0.5-12.5c-0.5-3.2-1.1-6.8-1.3-12.2c-0.4-8.1,0.4-16.6,1.9-24.5c1.3-6.8,3.1-11.7,4.6-16.4
		L95.9,301.6z"/>
	<circle class="st0" cx="403" cy="176.6" r="60.2"/>
	<path class="st0" d="M411.9,402.7l-3.2-9.6c-1.4-4.2-2.5-8.6-2.9-13c-0.6-6.1-0.1-9.8,0.6-14c0.4-3.1,1.1-6.5,1.2-11.6
		c0.4-7.8-0.3-15.5-1.8-23.1c-1-4.8-2.1-8.6-3.2-12.1c-0.8,2.6-1.6,5.5-2.2,8.9c-1.5,7.5-2.1,15.5-1.8,23.1
		c0.2,5.1,0.7,8.5,1.2,11.6c0.7,4.3,1.2,8,0.6,14c-0.4,4.4-1.4,8.8-2.9,13l-3.2,9.6l-2.2-9.8c-0.6-2.6-1.5-6.6-2.7-11.3
		c-2.7-10.3-4.6-15.2-6.1-19.1c-1.3-3.3-2.3-6-3.2-10.3c-0.8-3.9-4-24,5.3-43c1.1-2.1,1.8-3.3,2.7-4.7c1-1.5,2-3.2,3.7-6.5
		c-4-5-9.5-8.2-19.8-14.3c-4-2.4-7.3-4-9.8-5.4c-6.3-3.3-9.7-5.1-10.7-9.7c-1.4-6.6,4.1-13.8,10-17.2c5.3-3.1,12.2-3.8,19.4-1.8
		c8.6,2.3,16.4,8,20.3,14.7c1,1.8,1.1,2.6,1.5,4.2c0.1,0.4,0.1,0.7,0.3,1.1c0.6-2.2,0.9-3.5,1-4.4c0.3-1.6,0.5-2.5,1.5-4.2
		c3.9-6.8,11.6-12.5,20.3-14.7c7.2-1.9,14-1.3,19.4,1.8l0,0c5.9,3.4,11.4,10.6,10,17.2c-1,4.6-4.4,6.4-10.7,9.7
		c-2.6,1.4-5.9,3.1-9.8,5.4c-10.8,6.3-16.1,9.5-20.3,14.8c-0.5,0.7-1,1.4-1.5,2.1c0.5,1.1,1,1.9,1.3,2.8c2,4,3.2,5.9,4.2,7.6
		c0.9,1.4,1.7,2.7,2.7,4.7c9.3,19,6.1,39.1,5.3,43c-0.9,4.4-1.8,7-3.2,10.3c-1.5,3.9-3.3,8.8-6.1,19.1c-1.2,4.7-2.1,8.7-2.7,11.3
		L411.9,402.7z M402.3,302.4l4.3,11.6c1.6,4.5,3.3,9.6,4.6,16.4c1.6,8,2.2,16.2,1.9,24.5c-0.3,5.3-0.8,9-1.3,12.2
		c-0.6,4.2-1.1,7.2-0.5,12.5c0,0.1,0,0.2,0,0.3c2.7-10.4,4.7-15.6,6.1-19.4c1.2-3.2,2.1-5.5,2.9-9.5c0.4-2.2,3.9-21.7-4.8-39.4
		c-0.9-1.8-1.6-3-2.5-4.3c-1.1-1.8-2.4-3.9-4.5-8.1c-0.6-1.1-1.3-2.6-2-4.3l-0.6-1.3l0.7-1.2c0.8-1.4,1.7-2.6,2.6-3.9
		c4.7-6.2,10.4-9.6,21.8-16.3c4.1-2.5,7.5-4.1,10.1-5.5c5.6-3,7.5-3.9,7.8-5.9c0.8-3.7-3.2-8.8-7.4-11.1c-4-2.3-9.3-2.8-15-1.2
		c-7.1,1.9-13.7,6.7-16.8,12.1c-0.5,1-0.6,1.2-0.9,2.5c-0.3,1.6-0.8,4.1-2.5,9.8c-0.4,1.1-0.7,2.2-1.1,3.2l-3.2,9l-2.9-9
		c-1.8-5.7-2.3-8.2-2.5-9.8c-0.3-1.2-0.3-1.5-0.9-2.5c-3.1-5.4-9.6-10.2-16.7-12.1c-5.7-1.6-11-1.1-15,1.2
		c-4.2,2.5-8.2,7.5-7.4,11.1c0.4,1.8,2.2,2.9,7.8,5.9c2.6,1.4,6,3.2,10.1,5.6c11.4,6.7,17.1,10.1,21.8,16.3l1.4,2l-0.5,1.8
		c-2.3,4.7-3.6,6.8-4.6,8.5c-0.8,1.3-1.5,2.5-2.5,4.3c-8.5,17.4-5.5,35.9-4.8,39.4c0.8,3.9,1.7,6.2,2.9,9.5c1.5,3.8,3.4,9,6.1,19.4
		c0-0.1,0-0.2,0-0.2c0.6-5.3,0.1-8.4-0.5-12.5c-0.5-3.2-1.1-6.8-1.3-12.2c-0.4-8.1,0.4-16.6,1.9-24.5c1.3-6.8,3.1-11.7,4.6-16.4
		L402.3,302.4z"/>
	<path class="st0" d="M456.9,274.4c-6.8-4.5-15.3-4.9-22.4-0.9c-0.6,0.4-1.1,0.7-1.8,1.1c-11.1,6.6-16.7,9.8-21,15.5
		c-0.9,1.1-1.7,2.4-2.4,3.6c0.7,1.6,1.4,3.1,2,4.2c3.7,7.4,4.6,7.9,6.8,12.4c9.2,18.7,5.5,38.8,5,41.2c-1.8,9-4.1,10-9.1,29.3
		c-1.2,4.8-2.2,8.8-2.7,11.4c-1-2.7-2.2-7-2.7-12.4c-1.1-9.9,1.3-12.9,1.8-25.2c0.2-4.9,0.2-13.6-1.8-23.8c-1.3-6.7-3-11.4-4.6-16
		c-0.5-1.6-1.1-3-1.5-4.3c-0.1,0.4-0.3,0.7-0.4,1.1c-1.6,4.6-3.2,9.4-4.6,16c-2,10.3-2,18.9-1.8,23.8c0.5,12.4,2.9,15.3,1.8,25.2
		c-0.6,5.3-1.8,9.6-2.7,12.4c-0.6-2.6-1.5-6.7-2.7-11.4c-5-19.3-7.4-20.3-9.1-29.3c-0.4-2.4-4.1-22.4,5-41.2c2.2-4.5,3.2-5,6.8-12.4
		c0.1-0.1,0.2-0.4,0.2-0.4c-0.2-0.3-0.4-0.6-0.6-0.9c-4.4-5.8-10-9-21-15.5c-1.8-1.1-3.3-1.9-4.7-2.7c-7.2-3.9-15.9-3.3-22.5,1.5
		c-24.2,17.6-40,46.1-40,78.4v54.5c0,11.6,9.4,20.9,20.9,20.9h152.1c11.6,0,20.9-9.4,20.9-20.9V355
		C499.9,321.3,482.8,291.7,456.9,274.4z"/>
	<path class="st0" d="M150.6,269.9c-6.8-4.5-15.3-4.9-22.4-0.9c-0.6,0.4-1.1,0.7-1.8,1.1c-11.1,6.6-16.7,9.8-21,15.5
		c-0.9,1.1-1.7,2.4-2.4,3.6c0.7,1.7,1.4,3.1,2,4.2c3.7,7.4,4.6,7.9,6.8,12.4c9.2,18.7,5.5,38.8,5,41.2c-1.8,9-4.1,10-9.1,29.3
		c-1.2,4.8-2.2,8.8-2.7,11.4c-1-2.7-2.2-7-2.7-12.4c-1.1-9.9,1.3-12.9,1.8-25.2c0.2-4.9,0.2-13.6-1.8-23.8c-1.3-6.7-3-11.4-4.6-16
		c-0.5-1.6-1.1-3-1.5-4.3c-0.1,0.4-0.3,0.7-0.4,1.1c-1.6,4.6-3.2,9.4-4.6,16c-2,10.3-2,18.9-1.8,23.8c0.5,12.4,2.9,15.3,1.8,25.2
		c-0.6,5.3-1.8,9.6-2.7,12.4c-0.6-2.6-1.5-6.7-2.7-11.4c-5-19.3-7.4-20.3-9.1-29.3c-0.4-2.4-4.1-22.4,5-41.2c2.2-4.5,3.2-5,6.8-12.4
		c0.1-0.1,0.2-0.4,0.2-0.4c-0.2-0.3-0.4-0.6-0.6-0.9c-4.4-5.8-10-9-21-15.5c-1.8-1.1-3.3-1.9-4.7-2.7c-7.2-3.9-15.9-3.3-22.5,1.5
		c-24.2,17.6-40,46.1-40,78.4v54.5c0,11.6,9.4,20.9,20.9,20.9h152.1c11.6,0,20.9-9.4,20.9-20.9v-54.5
		C193.7,316.8,176.6,287.3,150.6,269.9z"/>
	<path class="st0" d="M296.3,384.3V352c0-32.3,15.8-60.8,40-78.4c1.3-1,2.7-1.6,4.2-2.2c-7.5-17.5-19.7-32.4-35.4-43
		c-6.8-4.5-15.3-4.9-22.4-0.9c-0.6,0.4-1.1,0.7-1.8,1.1c-11.1,6.6-16.7,9.8-21,15.5c-0.9,1.1-1.7,2.4-2.4,3.6c0.7,1.6,1.4,3.1,2,4.2
		c3.7,7.4,4.6,7.9,6.8,12.4c9.2,18.7,5.5,38.8,5,41.2c-1.8,9-4.1,10-9.1,29.3c-1.2,4.8-2.2,8.8-2.7,11.4c-1-2.7-2.2-7-2.7-12.4
		c-1.1-9.9,1.3-12.9,1.8-25.2c0.2-4.9,0.2-13.6-1.8-23.8c-1.3-6.7-3-11.4-4.6-16c-0.5-1.6-1.1-3-1.5-4.3c-0.1,0.4-0.3,0.7-0.4,1.1
		c-1.6,4.6-3.2,9.4-4.6,16c-2,10.3-2,18.9-1.8,23.8c0.5,12.4,2.9,15.3,1.8,25.2c-0.6,5.3-1.8,9.6-2.7,12.4
		c-0.6-2.6-1.5-6.7-2.7-11.4c-5-19.3-7.4-20.3-9.1-29.3c-0.4-2.4-4.1-22.4,5-41.2c2.2-4.5,3.2-5,6.8-12.4c0.1-0.1,0.2-0.4,0.2-0.4
		c-0.2-0.3-0.4-0.6-0.6-0.9c-4.4-5.8-10-9-21-15.5c-1.8-1.1-3.3-1.9-4.7-2.7c-7.2-3.9-15.9-3.3-22.5,1.5
		c-12.5,9.1-22.7,21.1-29.7,35.1c22.7,17.7,37.4,45.2,37.5,76.3v42.4L296.3,384.3L296.3,384.3z"/>
</g>
</svg>
