<?xml version="1.0" encoding="utf-8"?>
<!-- Generator: Adobe Illustrator 23.0.2, SVG Export Plug-In . SVG Version: 6.00 Build 0)  -->
<svg version="1.1" id="Layer_1" xmlns="http://www.w3.org/2000/svg" xmlns:xlink="http://www.w3.org/1999/xlink" x="0px" y="0px"
	 viewBox="0 0 500 500" style="enable-background:new 0 0 500 500;" xml:space="preserve">
<style type="text/css">
	.st0{fill:#FFFFFF;}
</style>
<path class="st0" d="M208.2,224c51.8,0,93.9-42.2,93.9-93.9s-42.1-94-93.9-94s-93.9,42.2-93.9,93.9S156.4,224,208.2,224z"/>
<path class="st0" d="M286.9,269.6c-2-1.4-4.2-2.5-6.3-3.4c1.5-1.8,2.5-4,3.1-6.6c2.4-11.1-6.1-22.4-15.7-28
	c-8.3-4.9-18.8-5.8-29.8-3c-10.6,2.9-20.3,9.1-26.6,16.9c-3.4-0.2-6.6-0.1-10.5,0.1c-6.1-5.7-14.2-10.4-22.8-12.7
	c-11-2.9-21.5-1.8-29.7,3c-9.5,5.5-18,16.9-15.7,28c0.3,1.4,0.7,2.6,1.3,3.7c-3.4,1.2-6.4,2.8-9.4,4.9
	C88,299.2,66.1,342.2,66.1,387.4v75.4c0,20.3,16.4,36.7,36.7,36.7h210.7c9.9,0,19.1-3.9,26.1-10.9c6.8-6.9,10.6-16.1,10.5-25.8
	v-75.4C350.1,340.2,326.5,296.1,286.9,269.6z M273,257.2l-0.1,0.3c-0.7,2.7-2.6,3.9-11.2,8.5c-0.7,0.4-1.5,0.8-2.3,1.3
	c-3.2,1.7-7.2,3.9-11.9,6.6c-15.9,9.4-23.3,13.9-29.7,22c0,0,0,0.1-0.1,0.1l-0.1,0.3l-0.3,0.4c-0.9,1.2-1.8,2.4-2.5,3.7l0,0
	l-0.5,0.8c-0.1,0.1-0.1,0.2-0.2,0.3l-0.8,1.5l0.6,1.3c0.7,1.7,1.5,3.3,2.2,4.7l0.1,0.3l0.4,1c2.8,5.6,4.5,8.4,6,10.8l0.7,1.2
	c0.2,0.5,0.5,0.9,0.8,1.3c0.6,1,1.3,2.2,2,3.8c11.2,23,8,47.9,6.7,55c-0.6,3.3-1.4,5.7-2.3,8.4l-9.5,28.4v-29.9c0-0.4,0-0.8,0.1-1.2
	c0-0.1,0-0.2,0-0.3v-0.2c0.5-10.9-0.4-22.2-2.6-33.7c-1.1-5.7-3-10.4-4.9-14.9c-1-2.5-2-5-2.8-7.5l-3.9-13v0.1l-3.2,8.3
	c-2.2,6.1-4.5,12.9-6.3,22.5c-2.2,11.1-3.1,22.5-2.6,33.7v0.2c0,0,0,0.1,0,0.2c0,0.3,0.1,0.7,0.1,1.2v32.6l-9.7-31.8
	c-0.7-2.1-1.3-4.4-1.9-7.3c-0.9-5-5-31.1,6.7-55.2c1.2-2.6,2.2-4.3,3.4-6.1c1.5-2.5,3.2-5.3,6.2-11.4l0.7-2.4l-1.7-2.4
	c-5.1-6.5-10.7-10.6-19.2-15.9l-1.4-0.9c-2.9-1.8-5.9-3.6-9.4-5.6c-5.6-3.3-10.1-5.7-14-7.7l-0.9-0.5c-7.3-3.8-9.8-5.3-10.4-8.3
	c-1.1-5.5,4.6-13,10.6-16.5c5.6-3.4,13.4-4.1,21.3-1.8c7.1,1.9,14.1,5.9,19.2,11.2l0.1,0.1l1.1,1.2c1.2,1.3,2.2,2.7,3.4,4.6
	c1,1.4,1.2,2.2,1.4,3.9c0.5,2.8,1.4,6.4,3.5,13.4l3.1,9.7l3.4-9.5c0.2-0.5,0.4-1.1,0.6-1.8c0.3-0.9,0.6-1.8,0.9-2.7
	c2.7-8.5,3.3-11.6,3.5-13.4v-0.1c0.2-1.6,0.4-2.2,1.2-3.7l0.1-0.1l2.3-3.7l0.3-0.3c5.4-6.2,13.2-11.1,21.4-13.4h0.1
	c8.4-2.2,16-1.5,21.5,1.9C268.3,244.3,274,251.5,273,257.2z"/>
<g>
	
		<rect x="348" y="61.8" transform="matrix(0.7071 -0.7071 0.7071 0.7071 57.1271 311.5535)" class="st0" width="113.2" height="50"/>
	<polygon class="st0" points="333.1,157.4 374.8,147.7 343.6,116.5 	"/>
	<path class="st0" d="M479.5,39l-27.1-27.1c-2.2-2.2-5.9-2.2-8.3,0l-11.8,11.8L467.6,59l11.8-11.8C481.7,45,481.7,41.3,479.5,39z"/>
</g>
</svg>
