<?xml version="1.0" encoding="utf-8"?>
<!-- Generator: Adobe Illustrator 23.0.2, SVG Export Plug-In . SVG Version: 6.00 Build 0)  -->
<svg version="1.1" id="Layer_1" xmlns="http://www.w3.org/2000/svg" xmlns:xlink="http://www.w3.org/1999/xlink" x="0px" y="0px"
	 viewBox="0 0 500 500" style="enable-background:new 0 0 500 500;" xml:space="preserve">
<style type="text/css">
	.st0{fill:#FFFFFF;}
</style>
<g>
	<g>
		<g>
			<path class="st0" d="M250,24.8"/>
		</g>
	</g>
	<g>
		<g>
			<path class="st0" d="M426.5,403.9h-353V184.4c0-73.7,59.8-133.5,133.5-133.5h86.1c73.7,0,133.5,59.8,133.5,133.5v219.5H426.5z"/>
		</g>
	</g>
	<g>
		<g>
			<path class="st0" d="M191.7,441.3c0,1.2-0.2,2.5-0.1,3.8c2.1,32.3,30,56.9,62.4,54.8c31.1-2,54.6-27.9,54.6-58.6L191.7,441.3
				L191.7,441.3z"/>
		</g>
	</g>
	<g>
		<g>
			<path class="st0" d="M257,0h-14c-7,0-12.7,5.6-12.7,12.7v38.2h39.2V12.7C269.6,5.6,263.9,0,257,0z"/>
		</g>
	</g>
	<g>
		<g>
			<path class="st0" d="M443.5,441.3h-387c-7.6,0-13.8-6.2-13.8-13.8v-9.6c0-7.6,6.2-13.8,13.8-13.8h387c7.6,0,13.8,6.2,13.8,13.8
				v9.6C457.3,435.1,451.1,441.3,443.5,441.3z"/>
		</g>
	</g>
</g>
</svg>
