<?xml version="1.0" encoding="utf-8"?>
<!-- Generator: Adobe Illustrator 23.0.2, SVG Export Plug-In . SVG Version: 6.00 Build 0)  -->
<svg version="1.1" id="Layer_1" xmlns="http://www.w3.org/2000/svg" xmlns:xlink="http://www.w3.org/1999/xlink" x="0px" y="0px"
	 viewBox="0 0 500 500" style="enable-background:new 0 0 500 500;" xml:space="preserve">
<style type="text/css">
	.st0{fill:#FFFFFF;}
</style>
<g>
	<g>
		<g>
			<path class="st0" d="M447.7,458.9H52.3C23.5,458.9,0,435.4,0,406.5V83.3C0,60,19,41.1,42.2,41.1h118.4c9.9,0,19.2,3.4,26.5,9.4
				c0,0,7,5.8,8.2,9c0.8,2.1,30.6,54,30.6,54h221.7c28.9,0,52.3,23.5,52.3,52.3v240.8C500,435.5,476.6,458.9,447.7,458.9z
				 M42.2,62.9c-11.3,0-20.4,9.2-20.4,20.4v323.3c0,16.8,13.7,30.5,30.5,30.5h395.4c16.8,0,30.5-13.7,30.5-30.5V165.9
				c0-16.8-13.7-30.5-30.5-30.5H213.4L189.9,94l-10.5-18.7c-3.2-7.4-10.6-12.2-18.7-12.2L42.2,62.9L42.2,62.9z"/>
		</g>
	</g>
</g>
</svg>
