<?xml version="1.0" encoding="utf-8"?>
<!-- Generator: Adobe Illustrator 23.0.2, SVG Export Plug-In . SVG Version: 6.00 Build 0)  -->
<svg version="1.1" id="Layer_1" xmlns="http://www.w3.org/2000/svg" xmlns:xlink="http://www.w3.org/1999/xlink" x="0px" y="0px"
	 viewBox="0 0 500 500" style="enable-background:new 0 0 500 500;" xml:space="preserve">
<style type="text/css">
	.st0{fill:#FFFFFF;}
</style>
<g>
	<g>
		<g>
			<g>
				<path class="st0" d="M228.3,333.5c-0.8-0.5-1.5-1-2.2-1.5L67,480.2c-5.2,4.9-12,7.5-19.1,7.5c-0.3,0-0.7,0-1,0
					c-7.5-0.3-14.4-3.4-19.6-8.9L7.5,457.7C2.3,452.2-0.3,445,0,437.5s3.4-14.4,8.9-19.6l160.6-149.5c-36-69-21.5-155.8,35.9-209.3
					C276.2-6.7,387.3-2.8,453.1,68l0,0c65.8,70.7,61.9,181.9-8.9,247.7C385.9,370,299.5,377.8,233,336.6 M182,285L23,433
					c-1.5,1.4-2.4,3.2-2.4,5.2c-0.1,2,0.6,3.9,2,5.4l19.7,21.1c1.4,1.5,3.2,2.4,5.2,2.4s3.9-0.6,5.4-2l159.4-148.4L182,285z
					 M224.6,305.3l6.9,5.2c60,45.6,143.7,41.5,198.8-9.9c62.4-58.1,66-156.2,7.9-218.6l0,0C380.1,19.6,282,16,219.5,74.1
					c-52.6,48.9-64.3,129.4-28.1,191.3L224.6,305.3L224.6,305.3z M325,318c-35,0-69.9-14-95.6-41.5c-49-52.7-46.1-135.5,6.6-184.6
					c52.7-49,135.5-46.1,184.6,6.6c49,52.7,46.1,135.5-6.6,184.6l0,0C388.8,306.3,356.9,318,325,318z M324.9,77.5
					c-26.8,0-53.8,9.7-74.9,29.5c-44.4,41.3-46.9,111.1-5.6,155.5s111.1,46.9,155.5,5.6l0,0c44.4-41.3,46.8-111.1,5.6-155.5
					C383.8,89.2,354.4,77.5,324.9,77.5z"/>
			</g>
		</g>
	</g>
	<g>
		<g>
			<path class="st0" d="M404.1,211.2h-158c-10.8,0-19.5-8.7-19.5-19.5v-8.5c0-10.8,8.7-19.5,19.5-19.5h158
				c10.8,0,19.5,8.7,19.5,19.5v8.5C423.6,202.4,414.8,211.2,404.1,211.2z M246,172.6c-5.9,0-10.6,4.7-10.6,10.6v8.5
				c0,5.9,4.7,10.6,10.6,10.6h158c5.9,0,10.6-4.7,10.6-10.6v-8.5c0-5.9-4.7-10.6-10.6-10.6H246z"/>
		</g>
	</g>
</g>
</svg>
