<?xml version="1.0" encoding="utf-8"?>
<!-- Generator: Adobe Illustrator 23.0.2, SVG Export Plug-In . SVG Version: 6.00 Build 0)  -->
<svg version="1.1" id="Layer_1" xmlns="http://www.w3.org/2000/svg" xmlns:xlink="http://www.w3.org/1999/xlink" x="0px" y="0px"
	 viewBox="0 0 500 500" style="enable-background:new 0 0 500 500;" xml:space="preserve">
<style type="text/css">
	.st0{fill:#FFFFFF;}
</style>
<g>
	<g>
		<g>
			<path class="st0" d="M160.7,460.4c-11.4,0-22.7-5.2-29.8-14.9L6.6,272.5c-3.1-4.2-5.1-9.2-6.1-14.6l-0.2-1.3
				c-0.2-1.1-0.4-3-0.3-4.8c0-1.5,0.1-3.4,0.4-5.2c1-6.1,3.1-11,6.2-15.3L125.8,54.5c11.4-15.7,34.1-19.6,50.3-8.7l27,18
				c8.1,5.5,13.6,13.7,15.2,23.1c1.6,9.4-0.5,18.7-6.2,26.5l-55.8,87.1l307.2-1.6c20.2,0,36.4,15.8,36.4,35.4v31.5
				c0,19.5-16.4,35.4-36.4,35.4l-306.1,1.6l59.7,83.8c5.6,7.6,7.7,17.1,6.1,26.4c-1.6,9.5-7.1,17.7-15.2,23.1l-26.9,18
				C174.9,458.5,167.8,460.4,160.7,460.4z M145.5,68.8L26.4,245.2c-1.1,1.6-1.7,3.1-2.1,4.8c-0.1,0.7-0.2,1.2-0.2,1.7
				c0,0.7,0.1,1.3,0.1,1.9c0.3,2,0.9,3.4,1.9,4.7l124.3,173c3.8,5.1,11.6,6.5,17.3,2.8l26.9-18c2.7-1.7,4.3-4.3,4.8-7.2
				c0.5-2.8-0.2-5.7-1.9-8L110.7,279l352.8-2c6.8,0,12.2-5,12.2-11.2v-31.5c0-6.2-5.5-11.2-12.1-11.2l-351.6,2L192.1,100
				c2.2-3,2.8-5.8,2.3-8.6c-0.5-2.9-2.3-5.5-4.8-7.2l-27-18C157.2,62.4,149.4,63.6,145.5,68.8z"/>
		</g>
	</g>
</g>
</svg>
