<?xml version="1.0" encoding="utf-8"?>
<!-- Generator: Adobe Illustrator 23.0.2, SVG Export Plug-In . SVG Version: 6.00 Build 0)  -->
<svg version="1.1" id="Layer_1" xmlns="http://www.w3.org/2000/svg" xmlns:xlink="http://www.w3.org/1999/xlink" x="0px" y="0px"
	 viewBox="0 0 500 500" style="enable-background:new 0 0 500 500;" xml:space="preserve">
<style type="text/css">
	.st0{fill:#FFFFFF;stroke:#FFFFFF;stroke-width:2;stroke-miterlimit:10;}
	.st1{fill:#FFFFFF;}
</style>
<g>
	<g>
		<g>
			<g>
				<path class="st0" d="M250,34.5"/>
			</g>
		</g>
	</g>
	<g>
		<g>
			<g>
				<path class="st1" d="M429.6,408H70.3V209.8c0-88.9,72.2-161.1,161.1-161.1h37.1c88.9,0,161.1,72.2,161.1,161.1V408z M91.8,386.5
					h316.4V209.8c0-77-62.7-139.7-139.7-139.7h-37.1c-77,0-139.7,62.7-139.7,139.7L91.8,386.5L91.8,386.5z"/>
			</g>
		</g>
	</g>
	<g>
		<g>
			<g>
				<path class="st1" d="M250,500c-34.9,0-64.4-27.2-66.8-62.6c-0.1-1.3,0-2.5,0.1-3.6V423l10.8-0.7h122.6v10.8
					c0,35.1-27.4,64.5-62.3,66.8C252.9,499.9,251.5,500,250,500z M206,443.8c5.2,21.3,24.5,35.9,47,34.6c20-1.3,36.4-15.8,41-34.6
					H206z"/>
			</g>
		</g>
	</g>
	<g>
		<g>
			<g>
				<path class="st1" d="M279.5,70.2h-58.9V25c0-13.8,11.2-25,25-25h9c13.8,0,25,11.2,25,25L279.5,70.2L279.5,70.2z M242,48.7h16V25
					c0-1.9-1.6-3.5-3.5-3.5h-9c-1.9,0-3.5,1.6-3.5,3.5V48.7z"/>
			</g>
		</g>
	</g>
	<g>
		<g>
			<g>
				<path class="st1" d="M432.8,443.8H67.2c-14.5,0-26.4-11.9-26.4-26.4v-4.6c0-14.5,11.9-26.4,26.4-26.4h365.6
					c14.5,0,26.4,11.9,26.4,26.4v4.6C459.2,431.9,447.3,443.8,432.8,443.8z M67.2,408c-2.6,0-4.8,2.2-4.8,4.8v4.6
					c0,2.6,2.2,4.8,4.8,4.8h365.6c2.6,0,4.8-2.2,4.8-4.8v-4.6c0-2.6-2.2-4.8-4.8-4.8H67.2z"/>
			</g>
		</g>
	</g>
</g>
</svg>
