<?xml version="1.0" encoding="utf-8"?>
<!-- Generator: Adobe Illustrator 23.0.2, SVG Export Plug-In . SVG Version: 6.00 Build 0)  -->
<svg version="1.1" id="Layer_1" xmlns="http://www.w3.org/2000/svg" xmlns:xlink="http://www.w3.org/1999/xlink" x="0px" y="0px"
	 viewBox="0 0 500 500" style="enable-background:new 0 0 500 500;" xml:space="preserve">
<style type="text/css">
	.st0{fill:#FFFFFF;}
</style>
<g>
	<g>
		<g>
			<path class="st0" d="M251.9,500c-0.2,0-0.3,0-0.5,0c-1.5,0-3.3-0.2-4.9-0.4c-6.1-1-11-3.1-15.3-6.2L54.5,374.2
				c-15.7-11.4-19.6-34.1-8.7-50.3l18-27c5.5-8.1,13.7-13.6,23.1-15.2s18.7,0.5,26.5,6.2l87.1,55.8l-1.6-307.2
				c0-20.2,15.8-36.4,35.4-36.4h31.5c19.5,0,35.4,16.4,35.4,36.4l1.6,306.1l83.8-59.7c7.6-5.6,17.1-7.7,26.4-6.1
				c9.5,1.6,17.7,7.1,23.1,15.2l18,26.9c10.9,16.4,7,38.9-8.7,50.3l-173,124.3c-4.2,3.1-9.2,5.1-14.6,6.1l-1.2,0.1
				C255.3,499.9,253.5,500,251.9,500z M251.6,475.8c0.7-0.1,1.3-0.1,1.9-0.1c2-0.3,3.4-0.9,4.7-1.9l173-124.3
				c5.1-3.8,6.5-11.7,2.8-17.3l-18-26.9c-1.7-2.7-4.3-4.3-7.2-4.8c-2.8-0.5-5.7,0.2-8,1.9l-121.9,86.8l-2-352.8
				c0-6.8-5-12.2-11.2-12.2h-31.5c-6.2,0-11.2,5.5-11.2,12.1l2,351.6L99.7,307.8c-3-2.2-5.9-2.8-8.6-2.3c-2.9,0.5-5.5,2.3-7.2,4.8
				l-18,27c-3.7,5.5-2.5,13.3,2.7,17.2L245,473.7c1.6,1.1,3.1,1.7,4.8,2.1C250.6,475.7,250.5,475.9,251.6,475.8z"/>
		</g>
	</g>
</g>
</svg>
