<?xml version="1.0" encoding="utf-8"?>
<!-- Generator: Adobe Illustrator 23.0.2, SVG Export Plug-In . SVG Version: 6.00 Build 0)  -->
<svg version="1.1" id="Layer_1" xmlns="http://www.w3.org/2000/svg" xmlns:xlink="http://www.w3.org/1999/xlink" x="0px" y="0px"
	 viewBox="0 0 500 500" style="enable-background:new 0 0 500 500;" xml:space="preserve">
<style type="text/css">
	.st0{fill:#FFFFFF;}
</style>
<g>
	<g>
		<g>
			<path class="st0" d="M388.1,352.1c-8,0-14.5-6.5-14.5-14.5v-91.5c0-8,6.5-14.5,14.5-14.5H500v-81.9c0-23.9-19.3-43.3-43.3-43.3
				H43.3C19.4,106.4,0,125.8,0,149.8v270.4c0,23.9,19.3,43.3,43.3,43.3h413.4c23.9,0,43.3-19.4,43.3-43.3v-68H388.1V352.1z"/>
		</g>
	</g>
	<g>
		<g>
			<path class="st0" d="M164.4,161.8"/>
		</g>
	</g>
	<g>
		<g>
			<path class="st0" d="M424.6,106.4"/>
		</g>
	</g>
	<g>
		<g>
			<path class="st0" d="M396.4,92.5l-1.7-13.7c-3.4-27-24.5-45.6-47.2-41.7L57.6,87.7c-2.9,0.5-2.6,4.8,0.4,4.8H396.4z"/>
		</g>
	</g>
	<g>
		<g>
			<circle class="st0" cx="428.6" cy="291.9" r="27.8"/>
		</g>
	</g>
</g>
</svg>
