<?xml version="1.0" encoding="utf-8"?>
<!-- Generator: Adobe Illustrator 23.0.2, SVG Export Plug-In . SVG Version: 6.00 Build 0)  -->
<svg version="1.1" id="Layer_1" xmlns="http://www.w3.org/2000/svg" xmlns:xlink="http://www.w3.org/1999/xlink" x="0px" y="0px"
	 viewBox="0 0 500 500" style="enable-background:new 0 0 500 500;" xml:space="preserve">
<style type="text/css">
	.st0{fill:#FFFFFF;}
</style>
<g>
	<g>
		<path class="st0" d="M208.2,224c51.8,0,93.9-42.2,93.9-93.9S260,36,208.2,36s-93.9,42.2-93.9,93.9S156.4,224,208.2,224z M208.2,52
			c42.9,0,77.8,34.9,77.8,77.8s-34.9,77.8-77.8,77.8s-77.8-34.9-77.8-77.8S165.3,52,208.2,52z"/>
		<path class="st0" d="M289.3,262.6c-2-1.4-4.3-2.5-6.5-3.5c1.5-1.8,2.5-4.1,3.2-6.8c2.4-11.4-6.3-23-16.2-28.9
			c-8.6-5-19.4-6-30.7-3.1c-10.9,3-20.9,9.4-27.4,17.4c-3.5-0.2-6.8-0.1-10.8,0.1c-6.3-5.9-14.6-10.7-23.5-13.1
			c-11.3-3-22.1-1.8-30.6,3.1c-9.8,5.7-18.6,17.4-16.2,28.9c0.3,1.4,0.7,2.7,1.3,3.8c-3.5,1.2-6.6,2.9-9.7,5.1
			C84.4,293.1,61.8,337.4,61.8,384v77.7c0,20.9,16.9,37.8,37.8,37.8h217c10.2,0,19.7-4,26.9-11.2c7-7.1,10.9-16.6,10.8-26.6V384
			C354.3,335.4,330.1,290,289.3,262.6z M173,240.5c6.6,1.7,13.1,5.6,17.5,10.2l1.1,1.2c1.1,1.2,2,2.5,3,4.1c0.5,0.7,0.5,0.7,0.7,2.1
			c0.5,2.7,1.3,6.5,3.8,14.5l7.9,24.3v-0.1l0.1,0.2l-4.9,14.3l-3.3,8.6c-2.4,6.8-4.8,13.9-6.7,24c-2.3,11.8-3.3,24.1-2.8,35.9
			c0,0.5,0.1,0.9,0.1,1.4c-0.7-2.3-1.4-4.6-2-7.6c-0.9-4.9-4.9-30.3,6.5-53.7c1.2-2.5,2.1-4.1,3.3-5.8c1.7-2.9,3.6-5.9,6.8-12.5
			l1.5-5.2l-3.2-4.6c-5.5-7-11.5-11.6-21.2-17.6c-3.4-2-7-4.3-11.2-6.7c-5.9-3.5-10.7-6-14.6-8.1c-3.7-1.9-8.9-4.6-9.1-5.6
			c-0.5-2.7,3.2-8.6,8.6-11.7C159.5,239.1,166,238.5,173,240.5z M243.1,235.8c7.1-1.8,13.8-1.4,18.4,1.4c5.4,3.2,9.1,9,8.6,11.7
			c-0.2,0.8-4.7,3.3-9.1,5.6c-3.8,2-8.7,4.6-14.8,8.2c-16.6,9.8-24.9,14.8-32.2,24.2c-0.1,0.2-0.2,0.3-0.3,0.5
			c-1.4,1.8-2.5,3.6-3.6,5.4c0,0.1-0.1,0.1-0.1,0.2l-2,3.6l0,0l-0.1,0.1l1.6,3.7c0.8,1.8,1.6,3.6,2.3,5l0.5,1.2
			c3.1,6.2,4.9,9.2,6.5,11.8l0.5,0.8c0.8,1.5,1.7,2.9,2.8,5.1c11.8,24.2,7,50.8,6.5,53.6c-0.6,3.2-1.3,5.5-2.1,8
			c0-0.5,0.1-1,0.1-1.5c0.5-12-0.5-24.1-2.8-35.9c-1.9-9.8-4.5-17-6.7-24l-9.8-27.6l-0.1,0.2l-0.2-0.5l8.4-23.6
			c0.5-1.5,1.1-3.2,1.6-4.8c2.7-8.5,3.5-12.2,3.8-14.7c0.2-1.3,0.2-1.3,0.6-2l2.1-3.5C228.3,242.5,235.4,238,243.1,235.8z
			 M206.2,378.8c-0.5-9.4,0.2-19.2,1.8-28.7c0.1,0.5,0.2,0.8,0.3,1.3c2,10.7,2.9,21.4,2.5,32.1c-0.3,7.1-1,12-1.6,15.9
			c-0.1,0.6-0.2,1.4-0.3,2.1c-0.3-2.3-0.5-4.6-0.9-6.7l-0.3-1.6C207,389.3,206.3,385,206.2,378.8z M153.7,276.6
			c2.4,1.3,5.1,2.8,8.2,4.6c13,7.6,20.2,11.9,25.4,17.4c-1.5,3-2.7,4.8-3.8,6.6L183,306c-1.1,1.8-2.2,3.7-3.6,6.4
			c-14,28.4-9,58.1-7.9,63.8c1.3,6.5,2.7,10.4,4.7,15.8c2,5.5,4.6,12.3,8.4,26.5c1.7,6.6,3.1,12.3,3.9,15.9l6.2,28.3l0.1-0.4
			l0.1,0.3l5.4-15.8v0.2l3.9-11.7c1.7-5,3-10.2,3.8-15.5c0,0.3,0.1,0.5,0.1,0.9c0.7,6.6,2.1,13.1,4.3,19.4l3.6,10.2v0.7l0.1-0.4v0.1
			v0.3v-0.2l5.6,16.6l0.1-0.5l0.1,0.4l6.2-28.3c0.8-3.6,2.1-9.3,3.9-16c3.7-14.1,6.2-20.9,8.6-26.8l0.3-0.7
			c1.6-4.6,3.2-8.4,4.4-14.7c1.1-5.6,6.1-35.4-7.9-63.8c-1.3-2.7-2.3-4.5-3.5-6.2l-1-1.6c-1.4-2.3-2.9-4.8-5.5-10
			c-0.3-0.5-0.5-1.1-0.8-1.7c0.2-0.3,0.4-0.5,0.6-0.8c1.3-1.6,2.8-3.3,4.5-4.7c5-4.5,11.9-8.7,23-15.2c1.5-0.8,2.8-1.5,4.1-2.3
			c6.9-3.4,15.2-2.8,21.9,1.7c36.2,24.2,57.9,64.7,57.9,108.1V462c0,11.9-9.8,21.8-21.8,21.8H99.9c-11.9,0-21.8-9.8-21.8-21.8v-77.7
			c0-41.5,20-80.8,53.7-105.2c3.7-2.8,8.2-4.2,12.9-4.2C147.7,274.7,150.8,275.4,153.7,276.6z"/>
	</g>
	<path class="st0" d="M486.7,31.7l-27-27c-3-3-7.1-4.7-11.4-4.7s-8.4,1.7-11.4,4.7l-12.5,12.5c-0.9,0.9-1.6,2-2.1,3.1
		c-1.3,0.6-2.4,1.3-3.4,2.3L340.4,101c-1,1-1.7,2.1-2.3,3.3c-1.5,1-2.6,2.5-3,4.2l-13.3,51.3c-0.6,2.4,0,5.1,1.8,6.8
		c1.4,1.4,3.2,2.2,5.1,2.2c0.5,0,1-0.1,1.5-0.2l52.6-12.3c1.9-0.4,3.7-1.7,4.7-3.4c1.1-0.6,2.1-1.3,2.9-2.1l78.4-78.4
		c1-1,1.7-2.1,2.3-3.3c1.2-0.5,2.2-1.2,3.1-2.1l12.5-12.5C493,48.2,493,38,486.7,31.7z M458.3,64.4l-76,76L351,109.1l76-76
		L458.3,64.4z M369.2,146.1l-32.2,7.6l8.2-31.6L369.2,146.1z M477.5,45.3l-9.8,9.8l-31.3-31.3l9.8-9.8c1.2-1.2,3.1-1.2,4.3,0l27,27
		C478.6,42.2,478.6,44.1,477.5,45.3z"/>
</g>
</svg>
