<?xml version="1.0" encoding="utf-8"?>
<!-- Generator: Adobe Illustrator 23.0.2, SVG Export Plug-In . SVG Version: 6.00 Build 0)  -->
<svg version="1.1" id="Layer_1" xmlns="http://www.w3.org/2000/svg" xmlns:xlink="http://www.w3.org/1999/xlink" x="0px" y="0px"
	 viewBox="0 0 500 500" style="enable-background:new 0 0 500 500;" xml:space="preserve">
<style type="text/css">
	.st0{fill:#FFFFFF;}
</style>
<g>
	<g>
		<g>
			<path class="st0" d="M273.5,499.9h-47.2c-13.2,0-24.1-10.8-24.1-24.1v-38.6c-17.9-4.6-35-11.6-50.9-21.2L124,443.3
				c-9.1,9.1-24.9,9.1-34.1,0L56.5,410c-4.6-4.6-7-10.6-7-17s2.5-12.5,7-17l27.3-27.3c-9.5-15.9-16.6-33-21.2-50.9H24.1
				C10.9,297.7,0,286.9,0,273.6v-47.2c0-13.2,10.8-24.1,24.1-24.1h38.6c4.6-17.9,11.6-35,21.2-50.9L56.6,124c-4.6-4.6-7-10.6-7-17
				c0-6.5,2.5-12.5,7-17L90,56.6c9.1-9.1,24.9-9.1,34.1,0L151.3,84c15.9-9.5,33-16.6,50.9-21.2V24.2c0-13.2,10.8-24.1,24.1-24.1
				h47.2c13.2,0,24.1,10.8,24.1,24.1v38.6c17.9,4.6,35,11.6,50.9,21.2L376,56.7c9.4-9.4,24.7-9.4,34.1,0L443.4,90
				c4.6,4.6,7,10.6,7,17c0,6.5-2.5,12.5-7,17l-27.3,27.3c9.5,15.9,16.6,33,21.2,50.9h38.6c13.2,0,24.1,10.8,24.1,24.1v47.2
				c0,13.2-10.8,24.1-24.1,24.1h-38.6c-4.6,17.9-11.6,35-21.2,50.9l27.3,27.3c9.4,9.4,9.4,24.7,0,34.1L410,443.3
				c-9.4,9.4-24.7,9.4-34.1,0L348.6,416c-15.9,9.5-33,16.6-50.9,21.2v38.6C297.6,489.1,286.8,499.9,273.5,499.9z M148.6,391.5
				l6.5,4.3c18.1,11.8,37.8,20,58.7,24.4l7.6,1.6v54c0,2.7,2.2,4.8,4.8,4.8h47.2c2.7,0,4.8-2.2,4.8-4.8v-54l7.6-1.6
				c20.9-4.4,40.7-12.6,58.7-24.4l6.5-4.3l38.3,38.3c1.9,1.9,5,1.9,6.9,0l33.4-33.4c1.9-1.9,1.9-5,0-6.9l-38.3-38.3l4.3-6.5
				c11.8-18.1,20-37.8,24.4-58.7l1.6-7.6h54c2.7,0,4.8-2.2,4.8-4.8v-47.2c0-2.7-2.2-4.8-4.8-4.8h-54L420,214
				c-4.4-20.9-12.6-40.6-24.4-58.7l-4.3-6.5l38.3-38.3c1.2-1.2,1.4-2.7,1.4-3.4c0-0.7-0.2-2.2-1.4-3.4l-33.4-33.4
				c-1.9-1.9-5-1.9-6.9,0L351,108.6l-6.5-4.3c-18.1-11.8-37.9-20-58.7-24.4l-7.6-1.6v-54c0-2.7-2.2-4.8-4.8-4.8h-47.2
				c-2.7,0-4.8,2.2-4.8,4.8v54l-7.6,1.6c-20.9,4.4-40.6,12.6-58.7,24.4l-6.5,4.3l-38.3-38.3c-1.2-1.2-2.7-1.4-3.4-1.4
				c-0.7,0-2.2,0.2-3.4,1.4l-33.4,33.4c-1.2,1.2-1.4,2.7-1.4,3.4c0,0.7,0.2,2.2,1.4,3.4l38.3,38.3l-4.3,6.5
				c-11.8,18.1-20,37.8-24.4,58.7l-1.6,7.6h-54c-2.7,0-4.8,2.2-4.8,4.8v47.2c0,2.7,2.2,4.8,4.8,4.8h54l1.6,7.6
				c4.4,20.9,12.6,40.7,24.4,58.7l4.3,6.5l-38.3,38.3c-1.2,1.2-1.4,2.7-1.4,3.4s0.2,2.2,1.4,3.4l33.4,33.4c1.2,1.2,2.7,1.4,3.4,1.4
				c0.7,0,2.2-0.2,3.4-1.4L148.6,391.5z M250,380c-71.7,0-130-58.3-130-130s58.3-130,130-130s130,58.3,130,130S321.7,380,250,380z
				 M250,139.2c-61.1,0-110.8,49.7-110.8,110.8S188.9,360.8,250,360.8S360.8,311,360.8,250S311,139.2,250,139.2z"/>
		</g>
	</g>
</g>
</svg>
