<?xml version="1.0" encoding="utf-8"?>
<!-- Generator: Adobe Illustrator 23.0.2, SVG Export Plug-In . SVG Version: 6.00 Build 0)  -->
<svg version="1.1" id="Layer_1" xmlns="http://www.w3.org/2000/svg" xmlns:xlink="http://www.w3.org/1999/xlink" x="0px" y="0px"
	 viewBox="0 0 500 500" style="enable-background:new 0 0 500 500;" xml:space="preserve">
<style type="text/css">
	.st0{fill:#FFFFFF;}
</style>
<g>
	<g>
		<g>
			<path class="st0" d="M479.9,232.4c0-16.2-6.1-31-16.2-42.1L319,323.9l147.4,151.8c8.4-10.7,13.5-24.2,13.5-38.9V232.4
				L479.9,232.4z"/>
		</g>
	</g>
	<g>
		<g>
			<g>
				<g>
					<path class="st0" d="M414.3,190.3c12.5,0,24.1-3.7,34-10L256.6,3.5c-5-4.6-12.8-4.6-17.8,0L47.2,180.3c9.8,6.3,21.5,10,34,10
						H414.3z"/>
				</g>
			</g>
		</g>
		<g>
			<g>
				<g>
					<path class="st0" d="M36.3,190.3c-10,11.2-16.2,26-16.2,42.1v204.4c0,13.5,4.3,26,11.5,36.4l149.2-149.4L36.3,190.3z"/>
				</g>
			</g>
		</g>
		<g>
			<g>
				<g>
					<path class="st0" d="M416.5,500c14.1,0,27.1-4.7,37.5-12.5L306.4,335.4l-35.8,33.1c-5.8,5.3-13.2,8-20.6,8
						c-7.5,0-14.8-2.6-20.6-8l-35.9-33.1L43.4,485.7c10.9,8.9,24.9,14.3,40.1,14.3H416.5L416.5,500z"/>
				</g>
			</g>
		</g>
	</g>
</g>
</svg>
