<?xml version="1.0" encoding="utf-8"?>
<!-- Generator: Adobe Illustrator 23.0.2, SVG Export Plug-In . SVG Version: 6.00 Build 0)  -->
<svg version="1.1" id="Layer_1" xmlns="http://www.w3.org/2000/svg" xmlns:xlink="http://www.w3.org/1999/xlink" x="0px" y="0px"
	 viewBox="0 0 500 500" style="enable-background:new 0 0 500 500;" xml:space="preserve">
<style type="text/css">
	.st0{fill:#FFFFFF;}
</style>
<g>
	<g>
		<g>
			<polygon class="st0" points="335.1,90 261.9,16.9 261.9,163.2 408.2,163.2 			"/>
		</g>
	</g>
	<g>
		<path class="st0" d="M254.6,187c-9.1,0-16.5-7.4-16.5-16.5V0H108.3C89.9,0,74.9,15,74.9,33.4v433.1c0,18.4,15,33.4,33.4,33.4
			h283.3c18.4,0,33.4-15,33.4-33.4V187H254.6L254.6,187z M112.3,475.6c-0.8,0.2-1.3-0.5-1.2-1.2l21.6-74.4l56.3,55L112.3,475.6z
			 M326.6,322.6c-0.1,1.8-0.8,3.6-2.1,5l-123,123c-0.3,0.3-0.7,0.5-1,0.8L136.6,389c0.3-0.7,0.7-1.3,1.3-1.8l123-123
			c0.8-0.8,1.6-1.3,2.5-1.6l65,60.2C327.6,322.6,327.1,322.7,326.6,322.6z M352.5,299.5l-16.3,16.3l-66-61.2l18.6-18.6
			c5.9-5.9,15.4-5.9,21.2,0l42.3,42.3C358.4,284.1,358.4,293.6,352.5,299.5z"/>
	</g>
</g>
</svg>
