<?xml version="1.0" encoding="utf-8"?>
<!-- Generator: Adobe Illustrator 23.0.2, SVG Export Plug-In . SVG Version: 6.00 Build 0)  -->
<svg version="1.1" id="Layer_1" xmlns="http://www.w3.org/2000/svg" xmlns:xlink="http://www.w3.org/1999/xlink" x="0px" y="0px"
	 viewBox="0 0 500 500" style="enable-background:new 0 0 500 500;" xml:space="preserve">
<style type="text/css">
	.st0{fill:#FFFFFF;}
</style>
<g>
	<path class="st0" d="M250.1,202.7c55.9,0,101.3-45.5,101.3-101.3S306,0,250.1,0S148.8,45.5,148.8,101.3S194.2,202.7,250.1,202.7z
		 M250.1,17.4c46.3,0,83.9,37.6,83.9,83.9s-37.6,83.9-83.9,83.9s-83.9-37.6-83.9-83.9S203.8,17.4,250.1,17.4z"/>
	<path class="st0" d="M337.5,244.4c-2.2-1.5-4.6-2.7-7-3.7c1.6-2,2.8-4.4,3.4-7.4c2.6-12.3-6.8-24.9-17.5-31.1
		c-9.2-5.4-20.9-6.5-33.1-3.3c-11.8,3.2-22.5,10.1-29.6,18.8c-3.7-0.2-7.4-0.1-11.6,0.1c-6.8-6.4-15.7-11.5-25.3-14.1
		c-12.2-3.2-23.9-2-33,3.3c-10.6,6.2-20,18.8-17.5,31.1c0.3,1.5,0.8,2.9,1.4,4.1c-3.7,1.3-7.2,3.1-10.4,5.5
		c-40.7,29.6-65,77.3-65,127.5v83.8c0,22.5,18.3,40.8,40.8,40.8H367c11,0,21.2-4.3,29-12.1c7.6-7.7,11.8-17.9,11.6-28.7v-83.8
		C407.6,322.8,381.4,273.9,337.5,244.4z M212.1,220.5c7.2,1.9,14.1,6.1,18.9,11l1.2,1.3c1.2,1.3,2.2,2.7,3.2,4.4
		c0.5,0.8,0.5,0.8,0.8,2.3c0.5,2.9,1.4,7,4.1,15.6l8.5,26.2l0-0.1l0.1,0.2l-5.3,15.4l-3.5,9.2c-2.6,7.4-5.2,15-7.3,25.8
		c-2.5,12.7-3.5,26-3,38.7c0,0.5,0.1,1,0.1,1.5c-0.8-2.5-1.5-4.9-2.2-8.3c-1-5.3-5.3-32.7,7-57.9c1.3-2.7,2.3-4.4,3.5-6.3
		c1.9-3.1,3.8-6.4,7.4-13.5l1.6-5.6l-3.4-4.9c-5.9-7.6-12.4-12.5-22.9-19c-3.6-2.2-7.6-4.6-12.1-7.3c-6.4-3.7-11.5-6.5-15.7-8.7
		c-4-2.1-9.6-5-9.8-6c-0.6-2.9,3.4-9.2,9.2-12.6C197.5,219,204.5,218.4,212.1,220.5z M287.7,215.5c7.7-2,14.8-1.5,19.8,1.5
		c5.8,3.4,9.8,9.7,9.2,12.6c-0.2,0.9-5.1,3.5-9.8,6c-4.1,2.2-9.3,4.9-15.9,8.8c-17.9,10.6-26.8,15.9-34.7,26.1
		c-0.1,0.2-0.2,0.3-0.3,0.5c-1.5,2-2.7,3.9-3.8,5.8c0,0.1-0.1,0.1-0.1,0.2l-2.2,3.9l0,0l-0.1,0.1l1.8,4c0.9,2,1.8,3.8,2.5,5.4
		l0.6,1.3c3.3,6.7,5.3,9.9,7,12.7l0.5,0.9c0.9,1.6,1.9,3.1,3,5.5c12.8,26.1,7.6,54.7,7,57.8c-0.7,3.4-1.4,5.9-2.3,8.6
		c0-0.5,0.1-1.1,0.1-1.7c0.5-13-0.5-26-3-38.7c-2.1-10.5-4.8-18.4-7.3-25.8l-10.5-29.8l-0.1,0.2l-0.2-0.6l9-25.4
		c0.6-1.6,1.2-3.4,1.8-5.2c2.9-9.1,3.7-13.2,4.1-15.8c0.2-1.4,0.2-1.4,0.7-2.2l2.3-3.7C271.7,222.8,279.4,217.8,287.7,215.5z
		 M247.8,369.6c-0.5-10.1,0.2-20.7,2-30.9c0.1,0.5,0.2,0.9,0.3,1.4c2.2,11.5,3.1,23.1,2.7,34.6c-0.3,7.7-1.1,13-1.8,17.2
		c-0.1,0.7-0.2,1.5-0.3,2.3c-0.3-2.5-0.6-4.9-1-7.3l-0.3-1.8C248.7,381,248,376.3,247.8,369.6z M191.3,259.5c2.6,1.4,5.5,3,8.8,4.9
		c14,8.3,21.8,12.9,27.4,18.8c-1.7,3.2-2.9,5.2-4.1,7.1l-0.5,0.8c-1.2,2-2.4,4-3.8,6.9c-15.1,30.6-9.7,62.7-8.5,68.8
		c1.4,7,2.9,11.2,5.1,17c2.2,5.9,5,13.3,9,28.6c1.9,7.2,3.3,13.3,4.2,17.2l6.7,30.4l0.1-0.4l0.1,0.3l5.8-17l0,0.2l4.2-12.6
		c1.9-5.4,3.2-11,4.1-16.7c0,0.3,0.1,0.6,0.1,1c0.8,7.1,2.3,14.1,4.6,20.9l3.8,11v0.8l0.1-0.4l0,0.1v0.3l0-0.2l6.1,17.9l0.1-0.5
		l0.1,0.4l6.7-30.4c0.9-3.9,2.3-10,4.2-17.3c4-15.2,6.7-22.5,9.2-28.9l0.3-0.8c1.8-4.9,3.4-9,4.7-15.8c1.2-6.1,6.6-38.1-8.5-68.8
		c-1.4-2.9-2.5-4.8-3.7-6.7l-1.1-1.8c-1.5-2.5-3.1-5.2-5.9-10.8c-0.3-0.6-0.6-1.2-0.9-1.9c0.2-0.3,0.4-0.6,0.7-0.9
		c1.4-1.8,3-3.5,4.8-5.1c5.4-4.8,12.9-9.3,24.9-16.4c1.6-0.9,3-1.7,4.4-2.5c7.5-3.6,16.4-3,23.6,1.9c39,26.1,62.4,69.7,62.4,116.5
		v83.8c0,12.9-10.5,23.5-23.5,23.5H133.3c-12.9,0-23.5-10.5-23.5-23.5v-83.8c0-44.7,21.6-87.1,57.9-113.5c4-3,8.8-4.5,13.9-4.5
		C184.9,257.4,188.2,258.2,191.3,259.5z"/>
</g>
</svg>
