<?xml version="1.0" encoding="utf-8"?>
<!-- Generator: Adobe Illustrator 23.0.2, SVG Export Plug-In . SVG Version: 6.00 Build 0)  -->
<svg version="1.1" id="Layer_1" xmlns="http://www.w3.org/2000/svg" xmlns:xlink="http://www.w3.org/1999/xlink" x="0px" y="0px"
	 viewBox="0 0 500 500" style="enable-background:new 0 0 500 500;" xml:space="preserve">
<style type="text/css">
	.st0{fill:#FFFFFF;}
</style>
<g>
	<g>
		<g>
			<path class="st0" d="M133.7,214.6c-46.8,0-84.9-38.1-84.9-84.9s38.1-84.9,84.9-84.9s84.9,38.1,84.9,84.9
				C218.8,176.5,180.7,214.6,133.7,214.6z M133.7,54.3c-41.5,0-75.3,33.8-75.3,75.3s33.8,75.3,75.3,75.3s75.3-33.8,75.3-75.3
				S175.3,54.3,133.7,54.3z"/>
		</g>
	</g>
	<g>
		<g>
			<path class="st0" d="M145.8,434.3l-5.6-16.4c-2-5.8-3.3-11.6-3.9-17.5c-0.9-8.2-0.1-13.2,0.8-19c0.7-4,1.3-8.5,1.6-15.2
				c0.4-10.3-0.3-20.5-2.4-30.5c-1-4.8-2.1-9-3.2-12.7c-0.7,2.5-1.4,5.3-2,8.3c-2,10-2.8,20.3-2.4,30.5c0.2,6.7,1,11.3,1.6,15.2
				c0.9,5.8,1.7,10.7,0.8,19c-0.7,5.9-2,11.7-3.9,17.5l-5.6,16.4l-3.7-17c-0.7-3.4-2-8.7-3.6-15c-3.5-13.6-6-20-8-25.3
				c-1.7-4.5-3-8.1-4.3-14c-1-5.2-5.4-32.4,7.1-57.8c1.4-2.8,2.5-4.5,3.6-6.4c1.2-1.9,2.5-4,4.5-8c-5.2-6.2-12.3-10.4-25.6-18.2
				c-5.3-3.1-9.6-5.3-13.1-7.1c-8.4-4.4-13.4-7.1-14.8-13.6c-2-9.4,5.5-19.1,13.9-24.1c7.3-4.3,16.8-5.2,26.5-2.5
				c11.7,3.2,22.3,10.8,27.5,20.1c0.7,1.1,1.1,2.1,1.4,2.9c0.1-0.5,0.2-0.9,0.2-1.3c0.4-2.2,0.7-3.4,2.1-5.9
				c5.3-9.3,15.9-16.9,27.5-20.1c9.8-2.6,19.2-1.7,26.5,2.5l0,0c8.4,4.8,15.8,14.7,13.9,24.1c-1.4,6.6-6.4,9.3-14.8,13.6
				c-3.5,1.8-7.8,4.1-13.1,7.2c-14.2,8.4-21.3,12.6-26.6,19.5c-0.6,0.7-1.1,1.5-1.6,2.2c0.6,1.1,1.1,2.2,1.5,3.1
				c2.6,5.3,4.2,7.8,5.5,10c1.2,2,2.2,3.6,3.6,6.5c12.6,25.6,8.1,52.7,7.1,57.8c-1.2,5.9-2.5,9.4-4.3,14c-2,5.2-4.4,11.7-8,25.3
				c-1.6,6.3-2.9,11.6-3.6,15L145.8,434.3z M133,293.1l6.6,18.8c2.2,6.3,4.4,12.8,6.2,21.9c2.1,10.7,3,21.8,2.5,32.8
				c-0.3,7.2-1.1,12.1-1.7,16.3c-0.6,3.6-1.1,6.6-1.1,10.2c2.8-9.7,4.8-15.2,6.5-19.5c1.6-4.4,2.8-7.2,3.8-12.4
				c0.6-2.9,5.2-28.4-6.3-51.7c-1.2-2.5-2.1-3.9-3.2-5.7c-1.5-2.4-3.1-5.1-5.9-10.8c-0.8-1.6-1.7-3.5-2.7-5.8l-1.1-2.3l1.2-2.1
				c1.1-1.9,2.2-3.6,3.5-5.3c6.4-8.4,14.1-12.9,29.4-21.9c5.5-3.2,9.9-5.6,13.5-7.4c7.5-3.9,9.4-5.1,9.8-7.1
				c0.9-4.4-4.2-10.8-9.3-13.7l0,0c-5.1-3-11.9-3.4-19.1-1.6c-9.2,2.5-17.7,8.5-21.7,15.5c-0.7,1.1-0.7,1.3-1,3
				c-0.4,2.1-1.1,5.5-3.5,13.1c-0.5,1.6-1,3-1.5,4.4l-5.2,14.9l-5-14.9c-2.4-7.6-3-11.1-3.5-13.1c-0.3-1.6-0.3-1.8-1-3
				c-3.9-7-12.5-13.1-21.7-15.6c-7.3-2-14.1-1.4-19.2,1.6s-10.2,9.4-9.3,13.7c0.4,1.9,2.4,3.1,9.9,7.1c3.5,1.9,8,4.2,13.5,7.4
				c15.3,9,22.9,13.5,29.4,21.9l2.2,3.1l-0.8,3c-3.1,6.4-4.8,9.1-6.3,11.5c-1.1,1.6-2,3.2-3.2,5.7c-11.2,22.7-7.2,47.1-6.3,51.8
				c1,5.1,2.1,8,3.8,12.3c1.6,4.3,3.7,9.8,6.5,19.5c0-3.6-0.5-6.6-1.1-10.2c-0.7-4.3-1.4-9.1-1.7-16.3c-0.5-11,0.4-22,2.5-32.8
				c1.8-9.2,4.2-15.9,6.2-21.9L133,293.1z M122.2,285.8l0.2,0.1l0.3-0.3L122.2,285.8z"/>
		</g>
	</g>
	<g>
		<g>
			<g>
				<path class="st0" d="M132.9,276.8l-5-14.9c-2.4-7.6-3-11.1-3.5-13.1c-0.3-1.6-0.3-1.8-1-3l0,0c-0.8-1.5-1.9-3-3.2-4.4l-6.5-7.3
					l9.7-0.7c4.9-0.4,10-0.7,15-0.2l10.4,0.6l-4.4,7l-4.2-1.3v0.2l3.6,2.1c-0.7,1.1-0.7,1.3-1,3c-0.4,2.1-1.1,5.5-3.5,13.2
					c-0.5,1.6-1,3-1.5,4.4L132.9,276.8z M132.8,242.6c0.2,0.5,0.4,0.9,0.6,1.3c0.1-0.5,0.2-0.9,0.2-1.3c0,0,0,0,0-0.1
					C133.3,242.6,133,242.6,132.8,242.6z"/>
			</g>
		</g>
		<g>
			<g>
				<path class="st0" d="M234.9,471.9H32.6c-18,0-32.6-14.6-32.6-32.6v-72.5c0-42.6,20.6-83,55.1-108.1c10.3-7.5,24.1-8.4,35.1-2.2
					c2,1.1,4.1,2.3,6.5,3.7c15.3,9,22.9,13.5,29.4,21.9l2.2,3.1l-0.8,3c-3.1,6.4-4.8,9.1-6.3,11.5c-1.1,1.6-2,3.2-3.2,5.7
					c-11.2,22.7-7.2,47.1-6.3,51.8c1,5.1,2.1,8,3.8,12.3c1.6,4.3,3.7,9.8,6.5,19.5c0-3.6-0.5-6.6-1.1-10.2
					c-0.7-4.3-1.4-9.1-1.7-16.3c-0.4-10.8,0.4-22.2,2.5-32.8c1.8-9.2,4.2-16,6.2-21.9l5-14.5l6.6,18.8c2.2,6.3,4.4,12.8,6.2,21.9
					c2.1,10.7,3,21.8,2.5,32.8c-0.3,7.2-1.1,12.1-1.7,16.3c-0.6,3.6-1.1,6.6-1.1,10.2c2.8-9.7,4.8-15.2,6.5-19.5
					c1.6-4.4,2.8-7.2,3.8-12.4c0.6-2.9,5.2-28.4-6.3-51.7c-1.2-2.5-2.1-3.9-3.2-5.7c-1.5-2.4-3.1-5.1-5.9-10.8
					c-0.8-1.6-1.7-3.5-2.7-5.8l-1.1-2.3l1.2-2.1c1.1-1.9,2.2-3.6,3.5-5.3c6.4-8.4,14.1-12.9,29.3-21.9l2.5-1.4
					c10.8-6.2,24.2-5.8,34.8,1.4l0,0c37.2,24.9,59.5,66.5,59.5,111.1v72.5C267.6,457.2,253,471.9,234.9,471.9z M74.5,262
					c-4.8,0-9.6,1.5-13.7,4.4c-32,23.3-51.1,60.8-51.1,100.3v72.5c0,12.7,10.3,23,23,23H235c12.7,0,22.9-10.3,22.9-23v-72.5
					c0-41.4-20.6-79.9-55.1-103l0,0c-7.5-5-16.9-5.4-24.6-1l-2,1.1c-14.6,8.5-21.7,12.8-27,19.7c-0.6,0.7-1.1,1.5-1.6,2.2
					c0.6,1.1,1.1,2.2,1.5,3.1c2.6,5.3,4.2,7.8,5.5,10c1.2,2,2.2,3.6,3.6,6.5c12.6,25.6,8.1,52.7,7.1,57.8c-1.2,5.9-2.5,9.4-4.3,14
					c-2,5.2-4.4,11.7-8,25.3c-1.6,6.3-2.9,11.6-3.6,15l-3.7,16.9l-5.6-16.4c-2-5.8-3.3-11.6-3.9-17.5c-0.9-8.2-0.1-13.2,0.8-19
					c0.7-4,1.3-8.5,1.6-15.2c0.4-10.3-0.3-20.5-2.4-30.5c-1-4.8-2.1-9-3.2-12.7c-0.7,2.5-1.4,5.3-2,8.3c-2,9.9-2.8,20.5-2.4,30.5
					c0.2,6.7,1,11.3,1.6,15.2c0.9,5.8,1.7,10.7,0.8,19c-0.7,5.9-2,11.7-3.9,17.5l-5.6,16.3l-3.7-16.8c-0.7-3.4-2-8.7-3.6-15
					c-3.5-13.6-6-20-8-25.3c-1.7-4.5-3-8.1-4.3-14c-1-5.2-5.4-32.4,7.1-57.8c1.4-2.8,2.5-4.5,3.6-6.4c1.2-1.9,2.5-4,4.5-8
					c-5.2-6.2-12.3-10.4-25.6-18.2c-2.2-1.3-4.4-2.5-6.2-3.5C82.2,262.9,78.3,262,74.5,262z M122.2,285.8l0.2,0.1l0.3-0.3
					L122.2,285.8z"/>
			</g>
		</g>
	</g>
	<g>
		<g>
			<path class="st0" d="M366.3,198c-46.8,0-84.9-38.1-84.9-84.9s38.1-84.9,84.9-84.9s84.9,38.1,84.9,84.9S413.2,198,366.3,198z
				 M366.3,37.8c-41.5,0-75.3,33.8-75.3,75.3s33.8,75.3,75.3,75.3s75.3-33.8,75.3-75.3C441.6,71.5,407.8,37.8,366.3,37.8z"/>
		</g>
	</g>
	<g>
		<g>
			<path class="st0" d="M378.3,417.7l-5.6-16.3c-2-5.7-3.3-11.6-3.9-17.5c-0.9-8.2-0.1-13.2,0.8-19c0.7-4,1.3-8.5,1.6-15.2
				c0.4-10.3-0.3-20.5-2.4-30.5c-1-4.8-2.1-9-3.2-12.7c-0.7,2.5-1.4,5.3-2,8.4c-2,9.9-2.8,20.5-2.3,30.5c0.2,6.7,1,11.2,1.6,15.2
				c0.9,5.8,1.6,10.7,0.8,19c-0.7,5.9-2,11.8-3.9,17.5l-5.6,16.3l-3.7-16.8c-0.7-3.4-2-8.7-3.6-15c-3.5-13.6-6-20-8-25.3
				c-1.7-4.5-3-8.1-4.3-14c-1-5.2-5.5-32.3,7.1-57.8c1.4-2.8,2.5-4.5,3.6-6.4c1.2-1.9,2.5-4,4.5-8c-5.2-6.2-12.3-10.4-25.6-18.2
				c-5.3-3.1-9.6-5.4-13.1-7.2c-8.4-4.4-13.4-7.1-14.8-13.6c-2-9.4,5.5-19.1,13.9-24.1c7.3-4.3,16.8-5.1,26.5-2.5
				c11.7,3.1,22.3,10.8,27.6,20.1c0.7,1.1,1.1,2.1,1.3,2.9c0.1-0.5,0.2-0.9,0.2-1.2c0.4-2.2,0.7-3.4,2.1-5.9
				c5.3-9.3,15.9-16.9,27.6-20.1c9.9-2.6,19.2-1.7,26.5,2.5l0,0c8.4,4.8,15.8,14.7,13.9,24c-1.4,6.6-6.4,9.3-14.8,13.6
				c-3.5,1.8-7.7,4.1-13.1,7.2c-14.2,8.4-21.4,12.6-26.6,19.5c-0.6,0.7-1.1,1.4-1.6,2.1c0.6,1.1,1.1,2.2,1.5,3.1
				c2.6,5.3,4.2,7.8,5.5,10c1.2,1.9,2.2,3.6,3.6,6.4c12.5,25.5,8.1,52.7,7.1,57.8c-1.2,5.9-2.5,9.4-4.3,14c-2,5.2-4.4,11.7-8,25.3
				c-1.6,6.3-2.9,11.6-3.6,15L378.3,417.7z M365.4,277.1l6.7,18.2c2.2,6.3,4.4,12.8,6.2,21.9c2.1,10.8,3,21.8,2.5,32.8
				c-0.3,7.2-1.1,12.1-1.7,16.3c-0.6,3.6-1.1,6.6-1.1,10.2c2.8-9.8,4.8-15.3,6.5-19.5c1.6-4.4,2.8-7.2,3.8-12.4
				c0.9-4.7,4.8-29-6.3-51.8c-1.2-2.5-2.1-3.9-3.1-5.6c-1.5-2.4-3.1-5.1-6-10.8c-0.8-1.6-1.7-3.5-2.7-5.8l-1.1-2.3l1.2-2.1
				c1.1-1.9,2.2-3.6,3.5-5.3c6.4-8.4,14.1-12.9,29.3-21.9c5.5-3.3,9.9-5.6,13.6-7.5c7.5-3.9,9.4-5.1,9.9-7.1
				c0.9-4.4-4.2-10.8-9.3-13.7l0,0c-5.1-3-11.8-3.5-19.1-1.6c-9.2,2.5-17.7,8.5-21.7,15.5c-0.7,1.1-0.7,1.3-1,3
				c-0.4,2.1-1.1,5.5-3.5,13.1c-0.5,1.5-0.9,2.8-1.4,4.2l-5.3,15.4l-4.4-14l-0.4-1.3c-2.4-7.6-3-11.1-3.5-13.1c-0.3-1.6-0.3-1.8-1-3
				c-4-7-12.5-13.1-21.7-15.5c-7.3-2-14.1-1.4-19.1,1.6c-5.1,3-10.2,9.4-9.3,13.7c0.4,1.9,2.4,3.1,9.8,7.1c3.5,1.9,8,4.2,13.5,7.4
				c15.3,9,22.9,13.5,29.4,21.9l2.4,3.4l-1.1,2.8c-3.1,6.2-4.8,9-6.2,11.4c-1.1,1.7-2,3.2-3.1,5.6c-11.4,23.3-6.8,48.9-6.3,51.8
				c1,5.1,2.1,8,3.8,12.4c1.6,4.2,3.7,9.8,6.5,19.5c0-3.6-0.5-6.6-1.1-10.2c-0.7-4.3-1.4-9.1-1.7-16.3c-0.5-11,0.4-22,2.5-32.8
				c1.8-9.1,4.1-15.6,6.2-21.9L365.4,277.1z M353.9,268.9l0.2,0.1l0.6-0.7L353.9,268.9z"/>
		</g>
	</g>
	<g>
		<g>
			<g>
				<path class="st0" d="M365.3,259.5l-4.4-14l-0.4-1.3c-2.4-7.6-3-11.1-3.5-13.1c-0.3-1.6-0.3-1.8-1-3l0,0c-0.8-1.5-2-3-3.2-4.4
					l-6.5-7.3l9.7-0.7c4.9-0.4,10.1-0.6,15-0.2l10.4,0.6l-4.4,7l-4.2-1.4v0.2l3.6,2.1c-0.7,1.1-0.7,1.3-1,3
					c-0.4,2.1-1.1,5.5-3.5,13.1c-0.5,1.5-1,2.9-1.5,4.3L365.3,259.5z M365.3,224.8c0.2,0.5,0.4,0.9,0.6,1.3c0.1-0.5,0.2-0.9,0.2-1.3
					c0,0,0,0,0-0.1C365.8,224.8,365.5,224.8,365.3,224.8z"/>
			</g>
		</g>
		<g>
			<g>
				<path class="st0" d="M478.1,454H303.4c-12.2,0-22-9.9-22-22v-68.9c0-25.1-7.4-49.1-21.4-69.8c-5.4-8-5.3-18.4,0.5-25.8
					c9.4-12.3,20.9-22.8,34.1-31.2c6.7-4.3,15.2-4.7,22.3-1c3.4,1.8,7.6,4,12.5,6.9c15.3,9,22.9,13.5,29.4,21.9l2.2,3.3l-0.9,3
					c-3.1,6.4-4.8,9.1-6.3,11.5c-1.1,1.7-2,3.2-3.1,5.6c-11.4,23.3-6.8,48.9-6.3,51.8c1,5.1,2.1,8.1,3.8,12.4
					c1.6,4.2,3.7,9.8,6.5,19.5c0-3.6-0.5-6.6-1.1-10.2c-0.7-4.3-1.4-9.1-1.7-16.3c-0.5-11,0.4-22,2.5-32.8
					c1.8-9.1,4.1-15.6,6.2-21.9l5.2-14.3l6.5,18.6c2.2,6.3,4.4,12.8,6.2,21.9c2.1,10.8,3,21.8,2.5,32.8c-0.3,7.2-1.1,12.1-1.7,16.3
					c-0.6,3.6-1.1,6.6-1.1,10.2c2.8-9.8,4.8-15.3,6.5-19.5c1.6-4.4,2.8-7.2,3.8-12.4c0.9-4.7,4.8-29-6.3-51.7
					c-1.2-2.5-2.1-3.9-3.2-5.7c-1.5-2.4-3.1-5.1-6-10.8c-0.8-1.6-1.7-3.5-2.7-5.8l-1.1-2.2l1.2-2.1c1.1-1.9,2.2-3.6,3.5-5.3
					c6.4-8.4,14.1-12.9,29.4-21.9c3.2-1.9,6-3.4,8.5-4.8c6.8-3.7,15-3.5,21.9,0.5l0,0C474.6,257.6,500,301.9,500,349v83.1
					C500.1,444.2,490.1,454,478.1,454z M306.4,242.4c-2.4,0-4.7,0.7-6.7,2c-12.2,7.8-22.8,17.6-31.6,29c-3.2,4.1-3.2,9.9-0.2,14.5
					c15.1,22.3,23.2,48.2,23.2,75.3V432c0,6.8,5.6,12.4,12.4,12.4h174.7c6.8,0,12.4-5.6,12.4-12.4v-83c0-43.8-23.6-84.8-61.5-107
					l0,0c-3.9-2.3-8.5-2.4-12.3-0.3c-2.4,1.3-5.2,2.8-8.2,4.6c-14.2,8.4-21.3,12.6-26.6,19.5c-0.6,0.7-1.1,1.4-1.6,2.1
					c0.6,1.1,1.1,2.2,1.5,3.1c2.6,5.3,4.2,7.8,5.5,10c1.2,1.9,2.2,3.6,3.6,6.4c12.5,25.5,8.1,52.7,7.1,57.8c-1.2,5.9-2.5,9.4-4.3,14
					c-2,5.2-4.4,11.7-8.1,25.3c-1.6,6.3-2.9,11.6-3.6,15l-3.7,16.8l-5.6-16.3c-2-5.7-3.3-11.6-3.9-17.5c-0.9-8.2-0.1-13.2,0.8-19
					c0.7-4,1.3-8.5,1.6-15.2c0.4-10.3-0.3-20.5-2.4-30.5c-1-4.8-2.1-9-3.2-12.7c-0.7,2.5-1.4,5.3-2,8.4c-2,9.9-2.8,20.5-2.3,30.5
					c0.2,6.7,1,11.2,1.6,15.2c0.9,5.8,1.6,10.7,0.8,19c-0.7,5.8-1.9,11.7-3.9,17.5l-5.6,16.4l-3.7-17c-0.7-3.4-2-8.7-3.6-15
					c-3.5-13.6-6-20-8-25.3c-1.7-4.5-3-8.1-4.3-14c-1-5.2-5.5-32.3,7.1-57.8c1.4-2.8,2.5-4.5,3.6-6.4c1.2-1.9,2.5-4,4.5-8
					c-5.2-6.2-12.3-10.4-25.6-18.2c-4.8-2.9-8.9-5-12.2-6.7C310.4,242.9,308.4,242.4,306.4,242.4z M354.9,268L354.9,268l0.3-0.2
					L354.9,268z"/>
			</g>
		</g>
	</g>
</g>
</svg>
