<?xml version="1.0" encoding="utf-8"?>
<!-- Generator: Adobe Illustrator 23.0.2, SVG Export Plug-In . SVG Version: 6.00 Build 0)  -->
<svg version="1.1" id="Layer_1" xmlns="http://www.w3.org/2000/svg" xmlns:xlink="http://www.w3.org/1999/xlink" x="0px" y="0px"
	 viewBox="0 0 500 500" style="enable-background:new 0 0 500 500;" xml:space="preserve">
<style type="text/css">
	.st0{fill:#FFFFFF;}
</style>
<path class="st0" d="M406.9,200H395v-53.9C394.9,65.5,329.9,0,250,0S105.1,65.5,105.1,146.1V200H93.2c-24.3,0-44.1,19.9-44.1,44.5
	v211c0,24.6,19.7,44.5,44.1,44.5h313.7c24.3,0,44.1-19.9,44.1-44.5v-211C451,219.9,431.3,200,406.9,200L406.9,200z M268.5,352.8
	v27.6c0,4.1-3.3,7.4-7.4,7.4H239c-4,0-7.4-3.3-7.4-7.4v-27.6c-10.1-6.3-16.9-17.4-16.9-30.3c0-19.7,15.9-35.7,35.4-35.7
	s35.4,16,35.4,35.7C285.4,335.4,278.6,346.5,268.5,352.8L268.5,352.8z M331.4,200H168.7v-53.9c0-45.2,36.5-82,81.4-82
	c44.8,0,81.4,36.8,81.4,82L331.4,200z"/>
</svg>
