<?xml version="1.0" encoding="utf-8"?>
<!-- Generator: Adobe Illustrator 23.0.2, SVG Export Plug-In . SVG Version: 6.00 Build 0)  -->
<svg version="1.1" id="Layer_1" xmlns="http://www.w3.org/2000/svg" xmlns:xlink="http://www.w3.org/1999/xlink" x="0px" y="0px"
	 viewBox="0 0 500 500" style="enable-background:new 0 0 500 500;" xml:space="preserve">
<style type="text/css">
	.st0{fill:#FFFFFF;}
</style>
<g>
	<g>
		<g>
			<path class="st0" d="M447.2,430.8l2.3-9.5c1.1-4.7-0.9-9.5-5-11.9c-2.5-1.4-5.4-1.9-8.2-1c-2.8,0.7-5.1,2.5-6.6,5l-6.6,11.5
				l-19.1-11l10-17.2c1.4-2.5,1.8-5.4,1-8.2c-0.7-2.8-2.5-5.1-5-6.6c-2.5-1.4-5.4-1.8-8.2-1c-2.8,0.7-5.1,2.5-6.6,5l-10,17.2
				L360.7,389l4.3-7.3c3-5.2,1.2-11.8-4-14.7s-11.8-1.2-14.7,4l-4.3,7.3L317.2,364l10-17.2c3-5.2,1.2-11.8-4-14.7s-11.8-1.2-14.7,4
				l-10,17.2l-21.2-12.2l0.6-4.2c0.6-4.4-1.5-8.6-5.3-10.9c-3.8-2.2-8.5-1.9-12.1,0.8l-3.3,2.5L237,317.6l4.3-7.3
				c3-5.2,1.2-11.8-4-14.7c-2.5-1.4-5.4-1.8-8.2-1c-2.8,0.7-5.1,2.5-6.6,5l-4.3,7.3l-13.2-7.6c-1.6-1-3.2-1.9-4.7-3.1
				c-21.6,15.9-47.9,24.7-74.8,24.7C56.4,320.6,0,264.2,0,194.9S56.4,69.2,125.7,69.2s125.7,56.4,125.7,125.7c0,2.5-0.1,4.9-0.2,7.4
				c2.7,1,5.3,2.2,7.7,3.6l214.4,123.8c25.6,14.8,34.4,47.7,19.6,73.3c-7.7,13.4-20.9,22.8-36.1,25.7L447.2,430.8z M439.1,395.4
				c4,0,8,1,11.6,3.1c6.1,3.5,10,9.3,11.2,15.8c8.5-3.4,15.6-9.5,20.1-17.5c11.4-19.7,4.6-44.9-15-56.2L252.7,216.8
				c-2.9-1.7-6.2-3.1-9.7-4l-5.1-1.4l0.5-5.2c0.4-3.7,0.5-7.6,0.5-11.2c0-62.4-50.7-113.2-113.2-113.2S12.6,132.6,12.6,195
				s50.7,113.2,113.2,113.2c26.1,0,50.6-8.7,71-25l4.1-3.3l4,3.5c2.1,1.8,4.3,3.4,6.7,4.9l2.6,1.5c3.1-3.7,7.2-6.3,11.8-7.6
				c6-1.6,12.3-0.8,17.7,2.3c10,5.8,14.1,17.7,10.3,28.2l2.8,1.6c7-3.6,15.3-3.4,22.2,0.6c7,4,11.2,11.2,11.6,19l3.4,2l3.7-6.4
				c6.4-11.2,20.7-15,31.8-8.5c11.2,6.4,15,20.7,8.5,31.8l-3.7,6.4l3.4,2c7.1-8.5,19.6-11,29.6-5.2s14.1,17.7,10.3,28.2l3.1,1.8
				l3.7-6.4c3.1-5.4,8.2-9.3,14.1-10.9c6-1.6,12.3-0.8,17.7,2.3s9.3,8.2,10.9,14.1c1.3,4.7,1,9.5-0.6,14c2-1.3,4.2-2.2,6.5-2.8
				C435.1,395.7,437.1,395.4,439.1,395.4z M84.4,196.6c-20.3,0-36.8-16.5-36.8-36.8S64.1,123,84.4,123s36.8,16.5,36.8,36.8
				C121.3,180.1,104.7,196.6,84.4,196.6z M84.4,135.5c-13.4,0-24.3,10.9-24.3,24.3c0,13.4,10.9,24.3,24.3,24.3s24.3-10.9,24.3-24.3
				C108.8,146.4,97.8,135.5,84.4,135.5z"/>
		</g>
	</g>
</g>
</svg>
