<?xml version="1.0" encoding="utf-8"?>
<!-- Generator: Adobe Illustrator 23.0.2, SVG Export Plug-In . SVG Version: 6.00 Build 0)  -->
<svg version="1.1" id="Layer_1" xmlns="http://www.w3.org/2000/svg" xmlns:xlink="http://www.w3.org/1999/xlink" x="0px" y="0px"
	 viewBox="0 0 500 500" style="enable-background:new 0 0 500 500;" xml:space="preserve">
<style type="text/css">
	.st0{fill:#FFFFFF;}
</style>
<g>
	<path class="st0" d="M250,500C112.1,500,0,387.8,0,250C0,112.1,112.2,0,250,0s250,112.2,250,250S387.9,500,250,500z M250,15.8
		c-129.1,0-234.1,105-234.1,234.1S120.9,484,250,484s234.1-105,234.1-234.1S379.1,15.8,250,15.8z M263.7,454.5h-27.3
		c-19.1,0-34.6-15.6-34.6-34.6V298.2H80c-19.1,0-34.6-15.6-34.6-34.6v-27.3c0-19.1,15.6-34.6,34.6-34.6h121.7V79.9
		c0-19.1,15.6-34.6,34.6-34.6h27.3c19.1,0,34.6,15.6,34.6,34.6v121.7H420c19.1,0,34.6,15.6,34.6,34.6v27.3
		c0,19.1-15.6,34.6-34.6,34.6H298.3v121.7C298.3,439,282.7,454.5,263.7,454.5z M80,217.5c-10.3,0-18.7,8.4-18.7,18.7v27.3
		c0,10.3,8.4,18.7,18.7,18.7h137.6v137.6c0,10.3,8.4,18.7,18.7,18.7h27.3c10.3,0,18.7-8.4,18.7-18.7V282.3H420
		c10.3,0,18.7-8.4,18.7-18.7v-27.3c0-10.3-8.4-18.7-18.7-18.7H282.4V79.9c0-10.3-8.4-18.7-18.7-18.7h-27.3
		c-10.3,0-18.7,8.4-18.7,18.7v137.6H80z"/>
</g>
</svg>
