<?xml version="1.0" encoding="utf-8"?>
<!-- Generator: Adobe Illustrator 23.0.2, SVG Export Plug-In . SVG Version: 6.00 Build 0)  -->
<svg version="1.1" id="Layer_1" xmlns="http://www.w3.org/2000/svg" xmlns:xlink="http://www.w3.org/1999/xlink" x="0px" y="0px"
	 viewBox="0 0 500 500" style="enable-background:new 0 0 500 500;" xml:space="preserve">
<style type="text/css">
	.st0{fill:#FFFFFF;}
</style>
<g>
	<g>
		<g>
			<path class="st0" d="M378.4,106H62.5c-6.5,0-11.8-4.9-12.4-11.4c-0.5-6.4,3.8-12.2,10.3-13.3L321,35.9c11.6-2,23.3,0.9,33,8.1
				c11.6,8.6,19.4,22.5,21.3,38.2L378.4,106z M155.3,85.6h199.9l-0.1-0.9c-1.2-10.2-6.1-19-13.1-24.3c-3.7-2.7-9.7-5.7-17.3-4.3
				L155.3,85.6z"/>
		</g>
	</g>
	<g>
		<g>
			<g>
				<path class="st0" d="M476.7,364.7H359.4c-12.9,0-23.3-10.4-23.3-23.3v-82.3c0-12.9,10.4-23.3,23.3-23.3h117.3
					c12.9,0,23.3,10.4,23.3,23.3v82.3C500,354.2,489.6,364.7,476.7,364.7z M359.4,256.2c-1.6,0-2.9,1.3-2.9,2.9v82.3
					c0,1.6,1.3,2.9,2.9,2.9h117.3c1.6,0,2.9-1.3,2.9-2.9v-82.3c0-1.6-1.3-2.9-2.9-2.9L359.4,256.2L359.4,256.2z"/>
			</g>
		</g>
		<g>
			<g>
				<path class="st0" d="M421,464.7H49.2c-27.1,0-49.2-22-49.2-49.2V172.4c0-27.1,22.1-49.2,49.2-49.2H421
					c27.1,0,49.1,22.1,49.1,49.2v83.8H359.3c-1.6,0-2.9,1.3-2.9,2.9v82.3c0,1.6,1.3,2.9,2.9,2.9h110.8v71.4
					C470.2,442.7,448.1,464.7,421,464.7z M49.2,143.7c-15.8,0-28.7,12.9-28.7,28.7v243.1c0,15.8,12.9,28.7,28.7,28.7H421
					c15.8,0,28.7-12.9,28.7-28.7v-50.9h-90.3c-12.9,0-23.3-10.4-23.3-23.3V259c0-12.9,10.4-23.3,23.3-23.3h90.3v-63.4
					c0-15.8-12.9-28.7-28.7-28.7L49.2,143.7L49.2,143.7z"/>
			</g>
		</g>
		<g>
			<g>
				<path class="st0" d="M395.7,335.4c-19.4,0-35.2-15.8-35.2-35.2s15.7-35.2,35.2-35.2c19.4,0,35.2,15.8,35.2,35.2
					C431,319.6,415.1,335.4,395.7,335.4z M395.7,285.5c-8.1,0-14.7,6.6-14.7,14.7s6.6,14.7,14.7,14.7s14.7-6.6,14.7-14.7
					C410.4,292.1,403.8,285.5,395.7,285.5z"/>
			</g>
		</g>
	</g>
</g>
</svg>
