<?xml version="1.0" encoding="utf-8"?>
<!-- Generator: Adobe Illustrator 23.0.2, SVG Export Plug-In . SVG Version: 6.00 Build 0)  -->
<svg version="1.1" id="Layer_1" xmlns="http://www.w3.org/2000/svg" xmlns:xlink="http://www.w3.org/1999/xlink" x="0px" y="0px"
	 viewBox="0 0 500 500" style="enable-background:new 0 0 500 500;" xml:space="preserve">
<style type="text/css">
	.st0{fill:#FFFFFF;}
</style>
<g>
	<g>
		<g>
			<path class="st0" d="M250,358.5C115.8,358.5,9.6,227.7,5.1,222.1L0,215.7l5.1-6.5C9.6,203.6,115.8,72.8,250,72.8
				s240.4,130.8,244.9,136.4l5.1,6.5l-5.1,6.5C490.4,227.7,384.2,358.5,250,358.5z M26.7,215.7C49.7,241.7,142,338,250,338
				c108.1,0,200.4-96.2,223.3-122.3C450.3,189.6,358,93.4,250,93.4S49.7,189.7,26.7,215.7z"/>
		</g>
	</g>
	<g>
		<g>
			<rect x="239.7" y="352.4" class="st0" width="20.5" height="74.8"/>
		</g>
	</g>
	<g>
		<g>
			
				<rect x="336" y="336.4" transform="matrix(0.9545 -0.2983 0.2983 0.9545 -95.7412 120.3061)" class="st0" width="20.5" height="74.8"/>
		</g>
	</g>
	<g>
		<g>
			
				<rect x="421.2" y="286.8" transform="matrix(0.8558 -0.5173 0.5173 0.8558 -105.4923 269.9688)" class="st0" width="20.6" height="74.8"/>
		</g>
	</g>
	<g>
		<g>
			
				<rect x="122" y="368.4" transform="matrix(0.2987 -0.9543 0.9543 0.2987 -249.6516 417.6783)" class="st0" width="74.8" height="20.6"/>
		</g>
	</g>
	<g>
		<g>
			
				<rect x="37.5" y="319.8" transform="matrix(0.5174 -0.8557 0.8557 0.5174 -246.2843 223.4197)" class="st0" width="74.8" height="20.6"/>
		</g>
	</g>
</g>
</svg>
