<?xml version="1.0" encoding="utf-8"?>
<!-- Generator: Adobe Illustrator 23.0.2, SVG Export Plug-In . SVG Version: 6.00 Build 0)  -->
<svg version="1.1" id="Layer_1" xmlns="http://www.w3.org/2000/svg" xmlns:xlink="http://www.w3.org/1999/xlink" x="0px" y="0px"
	 viewBox="0 0 500 500" style="enable-background:new 0 0 500 500;" xml:space="preserve">
<style type="text/css">
	.st0{fill:#FFFFFF;stroke:#FFFFFF;stroke-width:2;stroke-miterlimit:10;}
	.st1{fill:#FFFFFF;}
	.st2{fill:#FFFFFF;stroke:#FFFFFF;stroke-miterlimit:10;}
</style>
<g>
	<g>
		<g>
			<path class="st0" d="M257.7,380.3"/>
		</g>
	</g>
	<g>
		<g>
			<g>
				<g>
					<g>
						<path class="st1" d="M276.4,337c-1,0-2,0-3-0.1c-15.7-0.8-30.1-7.6-40.6-19.3l-44.6-49.3l24.7-22.4l44.6,49.3
							c4.5,5,10.9,8,17.7,8.4c6.9,0.1,13.4-2.1,18.4-6.6l164.7-149c10.4-9.4,11.2-25.6,1.8-36.1l-40.9-45.1
							c-9.4-10.4-25.6-11.2-36.1-1.8L268.9,168.3l-22.4-24.7L360.7,40.3c24.1-21.7,61.4-19.9,83.2,4.2l40.9,45.1
							c21.8,24.1,19.9,61.4-4.2,83.2L316,321.8C304.9,331.6,290.9,337,276.4,337z M203.8,269.1l37.1,41.1c8.6,9.4,20.3,15,33.1,15.7
							c0.8,0,1.7,0.1,2.5,0.1c11.8,0,23.1-4.3,32-12.4l164.7-149c19.5-17.7,21.1-47.9,3.4-67.4l-41-45.2
							c-17.7-19.5-47.9-21.1-67.4-3.4l-105.9,95.8l7.5,8.2l105.9-95.8c15-13.5,38.1-12.4,51.7,2.5l40.9,45.1
							c13.5,15,12.4,38.1-2.5,51.7L301,305.3c-7.1,6.4-16.3,9.7-26.3,9.4c-9.9-0.5-18.9-4.7-25.4-12l-37.1-41.1L203.8,269.1z"/>
					</g>
				</g>
			</g>
			<g>
				<g>
					<g>
						<path class="st1" d="M99.8,474.9c-1,0-2,0-3-0.1c-15.7-0.8-30.1-7.6-40.7-19.3l-40.9-45.1c-10.6-11.7-16-26.7-15.1-42.5
							c0.8-15.7,7.6-30.1,19.3-40.7l164.7-149c11.8-10.7,26.9-16.1,42.5-15.1c15.7,0.8,30.1,7.6,40.7,19.3l44.6,49.3L287.1,254
							l-44.6-49.3c-9.4-10.4-25.6-11.2-36.1-1.8l-164.7,149c-5.1,4.5-8,10.9-8.4,17.7s2,13.3,6.5,18.4l40.9,45.1
							c4.6,5.1,10.9,8,17.7,8.4c6.9,0.3,13.3-2,18.4-6.6L231,331.6l22.4,24.7L139.2,459.7C128.4,469.5,114.3,474.9,99.8,474.9z
							 M223.1,174.1c-11.6,0-22.8,4.3-31.6,12.4L26.8,335.4c-9.4,8.6-15,20.3-15.7,33.1c-0.7,12.7,3.7,24.9,12.3,34.5l40.9,45
							c8.6,9.4,20.3,15,33.1,15.7c12.4,0.5,25-3.8,34.5-12.3l105.9-95.8l-7.5-8.2l-105.9,95.8c-7.4,6.6-16.4,9.9-26.4,9.4
							c-9.8-0.5-18.8-4.7-25.3-12l-40.9-45.1c-6.6-7.3-9.9-16.6-9.4-26.4c0.5-9.7,4.7-18.8,12-25.3L199,194.7
							c15-13.5,38.2-12.4,51.7,2.5l37.1,41.1l8.2-7.5l-37.1-41.1c-8.6-9.4-20.3-15-33.1-15.7C225,174.1,224.1,174.1,223.1,174.1z"/>
					</g>
				</g>
			</g>
		</g>
		<g>
			<g>
				<g>
					<path class="st2" d="M210.2,337.2"/>
				</g>
			</g>
		</g>
	</g>
</g>
</svg>
