<?xml version="1.0" encoding="utf-8"?>
<!-- Generator: Adobe Illustrator 23.0.2, SVG Export Plug-In . SVG Version: 6.00 Build 0)  -->
<svg version="1.1" id="Layer_1" xmlns="http://www.w3.org/2000/svg" xmlns:xlink="http://www.w3.org/1999/xlink" x="0px" y="0px"
	 viewBox="0 0 685.5 745" style="enable-background:new 0 0 685.5 745;" xml:space="preserve">
<style type="text/css">
	.st0{display:none;}
	.st1{display:inline;}
	.st2{fill:#78863F;}
	.st3{fill:#FFFFFF;}
</style>
<g class="st0">
	<g class="st1">
		<g>
			<path class="st2" d="M558.5,581.7c10.8-37.4,21.5-74.8,32.3-112.2c1.6-5.4,3.1-10.9,4.7-16.4c-3.9-0.3-7.7-0.3-11.6,0
				c-19.9,3-39.5,6.2-59.1,9.6c-0.6,0.1-1.8,0.4-1.8,0.8c-0.8,2.3-1.3,4.2-2,6.6h8.6c3,0.1,5.9,1.4,7.9,3.7c2,2.3,3,5.3,2.7,8.3
				c-0.4,3.8-1.1,7.6-2,11.2c-7.6,26.7-15.5,53.5-23.1,80.3c-2.5,8.7-4.9,17.4-6.6,26.3c-0.8,3.7-0.6,7.5,0.6,11.1
				c1.2,3.6,3.2,6.8,6.1,9.3c6.5,5.7,15.2,8,23.6,6.4c9.2-1.3,17.8-5.3,24.8-11.5c10.5-9,19.3-19.7,26.2-31.7l2.8-4.8l-6.2-3.6v0
				c-0.4,0.5-0.7,1-1,1.5c-3.1,4.3-6,8.8-9.4,12.9c-3.4,3.9-7,7.6-10.8,11.1c-1.7,2-4.7,2.4-6.9,1c-2.4-1.4-3.6-4.3-2.8-7
				C556.6,590.2,557.3,586,558.5,581.7z"/>
		</g>
		<g>
			<g>
				<path class="st2" d="M703.9,353.9c-38.2-38.2-90-59.7-144.1-59.8l0,0c-54.1,0-105.9,21.5-144.2,59.7
					c-38.2,38.2-59.7,90.1-59.7,144.2c0,54.1,21.5,105.9,59.7,144.2c38.2,38.2,90.1,59.7,144.2,59.7c54.1,0,105.9-21.5,144.2-59.7
					c38.2-38.2,59.7-90.1,59.7-144.2C763.6,444,742.1,392.1,703.9,353.9z M678.3,616.5c-31.4,31.4-74,49.1-118.5,49.1l0,0
					c-44.5,0-87.1-17.7-118.5-49.1c-31.4-31.4-49.1-74.1-49.1-118.5c0-44.5,17.7-87.1,49.1-118.6c31.4-31.4,74.1-49.1,118.5-49.1
					s87.1,17.7,118.5,49.1c31.4,31.4,49.1,74.1,49.1,118.6C727.4,542.5,709.7,585.1,678.3,616.5z"/>
			</g>
		</g>
		<g>
			<path class="st2" d="M584.3,369.2c-7,0.1-13.7,2.9-18.6,7.9c-4.9,5-7.6,11.7-7.6,18.8v0.2c0,7.1,2.9,14,7.9,19
				c5.1,5,11.9,7.8,19.1,7.7s13.9-3,18.9-8.1c5-5.1,7.7-12,7.6-19.1c-0.1-7.1-3.1-13.9-8.2-18.9
				C598.3,371.8,591.4,369.1,584.3,369.2z"/>
		</g>
	</g>
</g>
<g>
	<path class="st3" d="M339.5,687.5c-2-1.3-3.6-3.2-5.4-4.8c-3.9-3.5-8.3-5.1-13.8-5.1c-77.1,0.2-154.3,0.1-231.4,0.1
		c-4.8,0-9.6-0.3-14.4-0.3c-20.1,0.1-28.8-12-35.4-30.7c-2.4-6.8-1.6-14.8-1.6-22.2C37.3,448,37.3,271.4,37.3,94.8
		c0-3.8-0.2-7.6,0.2-11.4c1-8.1,1.7-16.4,3.7-24.3C43.6,49.5,50,43.3,60.3,42c2.8-0.4,5.6-0.3,8.4-0.3c140,0,279.9,0,419.9,0
		c2.3,0,4.6,0,6.8,0.1c13.8,0.6,21.8,7.6,23.9,21.3c0.6,3.6,0.8,7.3,0.8,11c0,96.3-0.1,192.5-0.1,288.8c0,1.5,0,3,0,4.6
		c0.3,6.2,3.4,10.2,9.3,11.9c5.9,1.7,11.8,1.7,17.6-0.2c7-2.3,10.2-6.8,10.2-14.2c0-99.9,0.1-199.9-0.1-299.8c0-8.7-1-17.5-3-25.9
		c-4.3-18.3-14.5-31.9-33.5-37.3c-2.7-0.8-5.4-1.3-8.1-1.9C357.3,0,202.2,0,47.1,0C35.4,3.1,25.2,8.9,16.8,17.7
		C8.1,26.7,2.2,37,0.6,49.6C0.5,50,0.2,50.5,0,50.9c0,194.3,0,388.7,0,583c0.3,2.8,0.7,5.5,0.7,8.3c0.5,17.9,6.9,33,20.7,44.7
		c10.1,8.6,22.1,13.6,34.2,18.5c11,4.5,22.5,4.8,34.2,4.8c78.5-0.2,157.1-0.1,235.6-0.1c1.9,0,3.8,0.1,5.7-0.2
		c6.1-0.8,9.1-4.9,11-10.2C344,695.1,344.3,690.8,339.5,687.5z"/>
	<path class="st3" d="M16.8,17.7C25.2,8.9,35.4,3.1,47.1,0C31.4,0,15.7,0,0,0c0,17,0,34,0,50.9c0.2-0.5,0.5-0.9,0.6-1.4
		C2.2,37,8.1,26.7,16.8,17.7z"/>
	<path class="st3" d="M676.9,704.5c-14.6-14.3-29.1-28.6-43.2-43.3c-6.8-7.1-13.7-12.8-24.2-11.4c-0.1,0-0.2-0.1-0.7-0.6
		c1-1.3,1.9-2.5,2.8-3.7c23.1-30.6,34-64.3,27-102.9c-10.9-59.9-62.5-104-122.8-106.1c-37.2-1.3-69.2,11.9-95.2,38
		c-35.5,35.6-48.4,78.4-34.8,127.1c13.3,47.6,45.5,78,93.1,90.5c37.2,9.7,72.6,4.3,104.4-18.8c1.9-1.4,3.8-2.8,6.2-4.6
		c0,9.2,5.6,14.6,11.1,20c15.8,15.9,31.7,31.7,47.6,47.6c1.3,1.3,2.5,2.5,3.9,3.6c8.4,6.8,20,6.8,28.3-0.1c0.9-0.7,1.9-1.5,2.2-2.5
		C686.7,724.7,687.7,715.1,676.9,704.5z M594.3,568.7c-0.8,37.7-23.2,67.7-58,77.6c-59.4,16.9-105.6-29.4-108.8-74.6
		c-2-27.4,9-49.9,29.4-67.8c15.2-13.4,33.1-20.7,54.5-21.3c23,0.7,42.5,11.1,58.6,28.1C585.3,526.9,594.7,545.9,594.3,568.7z"/>
	<path class="st3" d="M450,206.7c0-3.6-2.5-7.2-4-10.7c-3-7.3-8.3-10.4-16.3-10.4c-96,0.1-192,0.1-288.1,0.1
		c-8.3,0-13.5,3.8-15.1,12c-0.8,3.9-0.9,8.1-0.2,12c1.5,9.3,6.5,13.2,16,13.2c48,0,96,0,144,0c47.6,0,95.3,0,142.9,0
		c1.6,0,3.3,0,4.9-0.1C443.5,222,450,215.9,450,206.7z"/>
	<path class="st3" d="M433.8,375.8c5.7-0.5,9.7-3.7,10.7-9.2c0.9-5,1.2-10.4,0.6-15.4c-0.8-6.2-4.9-10.2-11.1-11.5
		c-2.6-0.5-5.3-0.8-7.9-0.8c-95,0-190,0-285,0c-7.5,0-12.1,2.9-14,10.2c-1.1,4-1.5,8.5-1,12.7c1.4,10.2,6.5,14.2,16.7,14.2
		c47.6,0,95.3,0,142.9,0c47.5,0,95,0,142.5,0C430,376,431.9,375.9,433.8,375.8z"/>
	<path class="st3" d="M300,496.6c-52.8,0-105.6,0-158.4,0c-8.3,0-13.5,3.8-15.1,11.9c-0.8,4-0.8,8.4-0.2,12.4
		c1.5,8.9,6.6,12.8,15.5,12.8c26.5,0,52.9,0,79.4,0c4.3,0,8.6,0,12.9,0c22.8,0,45.6,0,68.4-0.1c7.4,0,13.4-2.8,16.4-10
		c6.1-14.8-1.8-26.8-17.7-27C300.8,496.6,300.4,496.6,300,496.6z"/>
</g>
</svg>
