<?xml version="1.0" encoding="utf-8"?>
<!-- Generator: Adobe Illustrator 23.0.2, SVG Export Plug-In . SVG Version: 6.00 Build 0)  -->
<svg version="1.1" id="Layer_1" xmlns="http://www.w3.org/2000/svg" xmlns:xlink="http://www.w3.org/1999/xlink" x="0px" y="0px"
	 viewBox="0 0 500 500" style="enable-background:new 0 0 500 500;" xml:space="preserve">
<style type="text/css">
	.st0{fill:#FFFFFF;}
</style>
<g>
	<g>
		<g>
			<path class="st0" d="M165.1,442.8c-0.1,0-0.1,0-0.1,0c-9.4,0-18.3-3.7-25-10.3L10.3,302.8c-13.8-13.8-13.8-36.2,0-50l15.5-15.4
				c13.8-13.8,36.2-13.8,50,0l89.2,89.2L424.2,67.5c13.8-13.8,36.2-13.8,50,0l15.5,15.4c13.8,13.8,13.8,36.2,0,50L190.2,432.5
				C183.4,439.1,174.5,442.8,165.1,442.8z M165,427.3C165.1,427.3,165.1,427.3,165,427.3c5.4,0,10.4-2,14.1-5.8L478.6,122
				c7.7-7.7,7.7-20.4,0-28.1l-15.5-15.4c-7.7-7.8-20.4-7.8-28.1,0L164.9,348.6L64.7,248.5c-7.5-7.5-20.6-7.5-28.1,0l-15.5,15.4
				c-7.7,7.7-7.7,20.4,0,28.1l129.6,129.6C154.6,425.2,159.7,427.3,165,427.3L165,427.3z"/>
		</g>
	</g>
</g>
</svg>
