<?xml version="1.0" encoding="utf-8"?>
<!-- Generator: Adobe Illustrator 23.0.2, SVG Export Plug-In . SVG Version: 6.00 Build 0)  -->
<svg version="1.1" id="Layer_1" xmlns="http://www.w3.org/2000/svg" xmlns:xlink="http://www.w3.org/1999/xlink" x="0px" y="0px"
	 viewBox="0 0 500 500" style="enable-background:new 0 0 500 500;" xml:space="preserve">
<style type="text/css">
	.st0{fill:#FFFFFF;}
</style>
<g>
	<rect x="226.1" y="339.3" class="st0" width="47.7" height="103.1"/>
	<path class="st0" d="M207.2,118.1h60.1V58C235.9,61.8,211,86.8,207.2,118.1z"/>
	<rect x="330.1" y="297.7" class="st0" width="47.7" height="144.8"/>
	<rect x="122.2" y="256" class="st0" width="47.7" height="186.5"/>
	<path class="st0" d="M416.6,0H83.4c-13.8,0-25,11.2-25,25v450c0,13.8,11.2,25,25,25h333.2c13.8,0,25-11.2,25-25V25
		C441.6,11.2,430.4,0,416.6,0z M186.6,450.7c0,4.6-3.7,8.3-8.3,8.3h-64.4c-4.6,0-8.3-3.7-8.3-8.3V247.6c0-4.6,3.7-8.3,8.3-8.3
		l64.4,0.1c4.6,0,8.3,3.7,8.3,8.3V450.7z M190,126.4c0-47.1,38.4-85.5,85.5-85.5c4.6,0,8.3,3.7,8.3,8.3v77.2c0,4.6-3.7,8.3-8.3,8.3
		h-77.2C193.7,134.7,190,131,190,126.4z M290.5,450.8c0,4.6-3.7,8.3-8.3,8.3h-64.4c-4.6,0-8.3-3.7-8.3-8.3V331
		c0-4.6,3.7-8.3,8.3-8.3h64.4c4.6,0,8.3,3.7,8.3,8.3V450.8z M394.5,450.8c0,4.6-3.7,8.3-8.3,8.3h-64.4c-4.6,0-8.3-3.7-8.3-8.3V289.3
		c0-4.6,3.7-8.3,8.3-8.3h64.4c4.6,0,8.3,3.7,8.3,8.3V450.8z M309,245.4c-47.2,0-85.6-38.4-85.6-85.6c-0.1-4.6,3.7-8.4,8.4-8.4h68.9
		V82.5c0-4.6,3.7-8.3,8.3-8.3c47.2,0,85.6,38.4,85.6,85.6S356.2,245.4,309,245.4z"/>
	<path class="st0" d="M317.2,91.4v68.4c0,4.6-3.7,8.3-8.3,8.3h-68.4c4.1,34.1,33.2,60.6,68.4,60.6c38,0,68.9-30.9,68.9-68.9
		C377.8,124.6,351.3,95.5,317.2,91.4z"/>
</g>
</svg>
