<?xml version="1.0" encoding="utf-8"?>
<!-- Generator: Adobe Illustrator 23.0.2, SVG Export Plug-In . SVG Version: 6.00 Build 0)  -->
<svg version="1.1" id="Layer_1" xmlns="http://www.w3.org/2000/svg" xmlns:xlink="http://www.w3.org/1999/xlink" x="0px" y="0px"
	 viewBox="0 0 500 500" style="enable-background:new 0 0 500 500;" xml:space="preserve">
<style type="text/css">
	.st0{fill:#FFFFFF;}
</style>
<g>
	<g>
		<g>
			<path class="st0" d="M129.8,52.2L4.5,237.7c-2.3,3.1-3.6,6.6-4.2,10.1c0,0.1,0,0.3,0,0.4c-0.2,1.2-0.3,2.5-0.3,3.7
				s0.1,2.5,0.3,3.7c0,0.1,0,0.3,0,0.4c0.6,3.5,1.9,6.9,4.2,10.1l130.6,181.8c8.1,11.1,24,13.8,35.6,6.1l28.3-19
				c11.6-7.8,14.4-23,6.4-34l-77-108.1l346.1-1.9c14.1,0,25.5-10.9,25.5-24.4v-33.1c0-13.5-11.5-24.4-25.5-24.4L128.4,211
				l71.7-111.9c8.1-11.1,5.2-26.4-6.4-34l-28.3-18.9C153.8,38.3,137.9,41,129.8,52.2z"/>
		</g>
	</g>
</g>
</svg>
