<?xml version="1.0" encoding="utf-8"?>
<!-- Generator: Adobe Illustrator 23.0.2, SVG Export Plug-In . SVG Version: 6.00 Build 0)  -->
<svg version="1.1" id="Layer_1" xmlns="http://www.w3.org/2000/svg" xmlns:xlink="http://www.w3.org/1999/xlink" x="0px" y="0px"
	 viewBox="0 0 500 500" style="enable-background:new 0 0 500 500;" xml:space="preserve">
<style type="text/css">
	.st0{fill:#FFFFFF;}
</style>
<g>
	<g>
		<g>
			<path class="st0" d="M430.9,411.1h-63.3V392h63.3c9.2,0,17-6,17-13.2V197.9c0-7.2-7.8-13.2-17-13.2H69.1c-9.2,0-17,6-17,13.2
				v180.9c0,7.2,7.8,13.2,17,13.2h69.8v19.1H69.1c-19.9,0-36.2-14.5-36.2-32.3V197.9c0-17.8,16.2-32.4,36.2-32.4h361.8
				c19.9,0,36.2,14.5,36.2,32.4v180.9C467.1,396.6,450.8,411.1,430.9,411.1z"/>
		</g>
	</g>
	<g>
		<g>
			<path class="st0" d="M96.3,248c-13.1,0-23.7-10.7-23.7-23.7s10.7-23.7,23.7-23.7s23.7,10.7,23.7,23.7
				C120.1,237.4,109.4,248,96.3,248z M96.3,219.7c-2.5,0-4.6,2.1-4.6,4.6s2.1,4.6,4.6,4.6s4.6-2.1,4.6-4.6S98.9,219.7,96.3,219.7z"
				/>
		</g>
	</g>
	<g>
		<g>
			<path class="st0" d="M339.3,500h-173c-14.5,0-26.3-11.8-26.3-26.3V267.6h225.4v206.1C365.5,488.3,353.7,500,339.3,500z
				 M159.3,286.8v186.9c0,3.9,3.2,7.1,7.1,7.1h172.9c3.9,0,7.1-3.2,7.1-7.1V286.8H159.3z"/>
		</g>
	</g>
	<g>
		<g>
			<rect x="174" y="325" class="st0" width="157.6" height="19.1"/>
		</g>
	</g>
	<g>
		<g>
			<rect x="174" y="378" class="st0" width="157.6" height="19.1"/>
		</g>
	</g>
	<g>
		<g>
			<rect x="174" y="421.5" class="st0" width="157.6" height="19.1"/>
		</g>
	</g>
	<g>
		<g>
			<g>
				<path class="st0" d="M166.7,175.1h-19.1V32c0-17.6,15.5-32,34.6-32H264l109,97.8v72.4h-19v-63.9l-97.2-87.2h-74.5
					c-8.5,0-15.4,5.8-15.4,12.8L166.7,175.1L166.7,175.1z"/>
			</g>
		</g>
		<g>
			<g>
				<path class="st0" d="M360.5,111.7h-97.6c-6.7,0-12.1-5.3-12.1-11.9V12.7c0-4.2,2.5-8.1,6.4-9.8c4-1.8,8.6-1.1,12,1.8l0.1,0.1
					l98.6,88.4c3.3,2.9,4.4,7.6,2.8,11.7C369,109,365,111.7,360.5,111.7z M355,107.3C355,107.3,355,107.4,355,107.3L355,107.3z
					 M269.9,92.5h68.5L269.9,31V92.5z"/>
			</g>
		</g>
	</g>
</g>
</svg>
