<?xml version="1.0" encoding="utf-8"?>
<!-- Generator: Adobe Illustrator 23.0.2, SVG Export Plug-In . SVG Version: 6.00 Build 0)  -->
<svg version="1.1" id="Layer_1" xmlns="http://www.w3.org/2000/svg" xmlns:xlink="http://www.w3.org/1999/xlink" x="0px" y="0px"
	 viewBox="0 0 500 500" style="enable-background:new 0 0 500 500;" xml:space="preserve">
<style type="text/css">
	.st0{fill:#FFFFFF;}
</style>
<g>
	<g>
		<g>
			<path class="st0" d="M186.5,500c-24,0-47.8-5.3-70.1-15.7c-40.1-18.8-70.4-52-85.5-93.6c-15-41.6-13-86.6,5.7-126.7
				c38.7-82.7,137.5-118.5,220.3-79.7c40.1,18.8,70.4,52,85.5,93.6c15,41.6,13,86.6-5.7,126.7s-52,70.4-93.6,85.5
				C224.6,496.6,205.5,500,186.5,500z M186.8,190.8c-54,0-105.7,30.6-130.1,82.6l0,0c-16.2,34.7-18,73.6-5,109.7s39.3,64.8,74,81.1
				c34.7,16.2,73.6,18,109.7,5c36-13,64.8-39.3,81.1-74s18-73.6,5-109.7c-13-36-39.3-64.8-74-81.1
				C227.8,195.2,207.2,190.8,186.8,190.8z"/>
		</g>
	</g>
	<g>
		<g>
			<path class="st0" d="M479.1,164.2h-22.3V24.6c0-1.3-1-2.3-2.3-2.3h-135V0h135c13.6,0,24.6,11,24.6,24.6L479.1,164.2L479.1,164.2z
				"/>
		</g>
	</g>
	<g>
		<g>
			
				<rect x="232.9" y="101.5" transform="matrix(0.7129 -0.7012 0.7012 0.7129 25.437 287.4748)" class="st0" width="261.8" height="22.3"/>
		</g>
	</g>
</g>
</svg>
