<?xml version="1.0" encoding="utf-8"?>
<!-- Generator: Adobe Illustrator 23.0.2, SVG Export Plug-In . SVG Version: 6.00 Build 0)  -->
<svg version="1.1" id="Layer_1" xmlns="http://www.w3.org/2000/svg" xmlns:xlink="http://www.w3.org/1999/xlink" x="0px" y="0px"
	 viewBox="0 0 500 500" style="enable-background:new 0 0 500 500;" xml:space="preserve">
<style type="text/css">
	.st0{fill:#FFFFFF;}
</style>
<g>
	<g>
		<path class="st0" d="M475.8,338.1L255.9,211.2c-3.7-2.1-7.5-3.7-11.5-4.8c0.4-4,0.6-8.1,0.6-12.1c0-67.6-54.8-122.5-122.5-122.5
			C54.9,71.8,0,126.6,0,194.3s54.8,122.6,122.5,122.6c29.1,0,55.8-10.1,76.8-27.1c2.4,2.1,5.1,4.1,8,5.8l8,4.6l1.2-2
			c4.8-8.4,15.5-11.2,23.9-6.4s11.2,15.5,6.4,23.9l-1.2,2l11.4,6.6c5.5-4.2,13.1-5,19.5-1.4c6.4,3.7,9.5,10.7,8.6,17.6l12.4,7.2
			l7-12.1c4.8-8.4,15.5-11.2,23.9-6.4l0,0c8.4,4.8,11.2,15.5,6.4,23.9l-7,12.1l14.4,8.3l1.2-2c4.8-8.4,15.5-11.2,23.9-6.4
			s11.2,15.5,6.4,23.9l-1.2,2l14,8.1l7-12.1c4.8-8.4,15.5-11.2,23.9-6.4s11.2,15.5,6.4,23.9l-7,12.1l8.4,4.9l3.5-6.1
			c4.8-8.4,15.5-11.2,23.9-6.4c6.9,4,10,11.9,8.2,19.3c13.3-2.6,25.4-10.7,32.7-23.3l0,0C507,381.3,499,351.6,475.8,338.1z
			 M80.1,189.6c-17.3,0-31.4-14-31.4-31.4c0-17.3,14-31.4,31.4-31.4s31.4,14,31.4,31.4C111.5,175.5,97.5,189.6,80.1,189.6z"/>
	</g>
</g>
</svg>
