<?xml version="1.0" encoding="utf-8"?>
<!-- Generator: Adobe Illustrator 23.0.2, SVG Export Plug-In . SVG Version: 6.00 Build 0)  -->
<svg version="1.1" id="Layer_1" xmlns="http://www.w3.org/2000/svg" xmlns:xlink="http://www.w3.org/1999/xlink" x="0px" y="0px"
	 viewBox="0 0 500 500" style="enable-background:new 0 0 500 500;" xml:space="preserve">
<style type="text/css">
	.st0{fill:#FFFFFF;}
</style>
<g>
	<g>
		<g>
			<circle class="st0" cx="177.9" cy="172.5" r="77.8"/>
		</g>
	</g>
	<g>
		<g>
			<path class="st0" d="M189.3,464.4l-4.2-12.3c-1.9-5.5-3.1-11.1-3.7-16.7c-0.9-7.9-0.1-12.6,0.7-18.2c0.6-3.9,1.3-8.4,1.5-14.9
				c0.4-10-0.4-20.1-2.3-29.9c-1.2-6.2-2.7-11.2-4.2-15.6c-1.1,3.4-2,7.1-2.9,11.5c-1.9,9.7-2.7,20-2.3,29.9c0.2,6.6,1,11,1.5,14.9
				c0.9,5.5,1.6,10.3,0.7,18.2c-0.6,5.6-1.9,11.3-3.7,16.7l-4.2,12.3l-2.8-12.7c-0.7-3.3-1.9-8.5-3.5-14.6
				c-3.5-13.3-5.9-19.6-7.8-24.7c-1.7-4.3-2.9-7.7-4-13.4c-1-5-5.2-31.1,6.8-55.5c1.3-2.7,2.3-4.3,3.5-6.1c1.2-2,2.5-4.2,4.7-8.4
				c-5.2-6.4-12.2-10.5-25.6-18.5c-5.1-3-9.4-5.3-12.7-7c-8.1-4.3-12.6-6.6-13.8-12.5c-1.7-8.5,5.4-17.8,13-22.2
				c6.9-4,15.7-4.8,25-2.4c11.1,3,21.1,10.3,26.1,19c1.2,2.2,1.5,3.4,1.9,5.5c0.1,0.4,0.2,0.9,0.3,1.5c0.7-2.9,1.1-4.5,1.3-5.6
				c0.4-2,0.6-3.2,1.9-5.4c5-8.7,15-16.1,26.2-19c9.2-2.5,18.1-1.7,25,2.4l0,0c7.6,4.4,14.8,13.7,13,22.2c-1.2,6-5.7,8.3-13.8,12.5
				c-3.3,1.8-7.6,4-12.7,7c-13.9,8.2-20.9,12.3-26.2,19.2c-0.7,0.9-1.3,1.8-1.9,2.7c0.6,1.4,1.2,2.5,1.7,3.6
				c2.5,5.2,4.1,7.6,5.4,9.8c1.1,1.9,2.2,3.5,3.5,6.1c12,24.6,7.8,50.5,6.8,55.5c-1.1,5.7-2.4,9.1-4,13.4
				c-1.9,5.1-4.3,11.3-7.8,24.7c-1.6,6.1-2.8,11.3-3.5,14.6L189.3,464.4z M177,334.9l5.6,14.9c2,5.8,4.3,12.3,6,21.2
				c2,10.4,2.9,21,2.4,31.6c-0.3,6.9-1,11.6-1.7,15.7c-0.9,5.4-1.5,9.3-0.7,16.2c0,0.1,0,0.2,0.1,0.3c3.5-13.5,6.1-20.1,7.9-25
				c1.5-4.2,2.7-7.1,3.7-12.2c0.6-2.8,5.1-28-6.2-50.9c-1.2-2.4-2.1-3.9-3.1-5.5c-1.4-2.3-3-4.9-5.8-10.4c-0.7-1.5-1.7-3.4-2.6-5.5
				l-0.8-1.7l0.9-1.6c1.1-1.8,2.1-3.4,3.3-5.1c6.1-8,13.5-12.3,28.2-21c5.3-3.1,9.6-5.4,13-7.2c7.3-3.8,9.6-5.1,10.1-7.6
				c1-4.8-4.1-11.3-9.5-14.4c-5.1-3-12-3.6-19.4-1.6c-9.2,2.5-17.7,8.6-21.7,15.6c-0.7,1.3-0.8,1.5-1.1,3.2c-0.4,2-1,5.3-3.3,12.6
				c-0.4,1.5-0.9,2.9-1.4,4.2l-4.1,11.7l-3.8-11.7c-2.4-7.4-3-10.7-3.3-12.6c-0.3-1.6-0.4-1.9-1.1-3.2c-4-7-12.5-13.1-21.7-15.6
				c-7.4-2-14.3-1.4-19.4,1.6c-5.4,3.2-10.5,9.7-9.5,14.4c0.5,2.4,2.9,3.7,10,7.6c3.5,1.8,7.7,4.1,13.1,7.2
				c14.7,8.7,22.1,13,28.2,21l1.9,2.6l-0.7,2.4c-3,6.1-4.6,8.7-6,11c-1.1,1.7-1.9,3.1-3.1,5.5c-11,22.4-7.1,46.3-6.2,50.9
				c1,5.1,2.1,8.1,3.7,12.2c1.9,4.9,4.5,11.7,7.9,25c0-0.1,0-0.2,0-0.2c0.7-6.9,0.1-10.8-0.7-16.2c-0.6-4.1-1.4-8.7-1.7-15.7
				c-0.4-10.4,0.4-21.4,2.4-31.6c1.7-8.8,3.9-15.1,6-21.1L177,334.9z"/>
		</g>
	</g>
	<g>
		<g>
			<g>
				<path class="st0" d="M172,283.1c2.2,3.8,0.4,2.9,4.7,16.6c0.1,0.4,0.3,0.8,0.4,1.2c0.6-1.8,1.2-3.5,1.9-5.5
					c4.3-13.7,2.6-12.8,4.7-16.6c0.2-0.4,0.4-0.7,0.7-1c-2.2-0.1-4.3-0.3-6.5-0.3l0,0c-3.2,0-6.4,0.2-9.5,0.5
					C169.8,279.6,171,281.3,172,283.1z"/>
			</g>
		</g>
		<g>
			<g>
				<path class="st0" d="M247.4,298.8c-8.7-5.8-19.8-6.4-28.8-1.2c-0.7,0.4-1.5,0.9-2.3,1.4c-14.3,8.4-21.5,12.6-27.2,20.1
					c-1.2,1.5-2.2,3-3.1,4.6c0.9,2.1,1.9,3.9,2.5,5.5c4.7,9.5,6,10.2,8.9,15.9c11.8,24.2,7.1,50.2,6.5,53.2
					c-2.3,11.7-5.3,12.9-11.8,37.8c-1.6,6.2-2.8,11.3-3.5,14.8c-1.2-3.5-2.8-9.1-3.5-15.9c-1.4-12.8,1.7-16.6,2.4-32.5
					c0.2-6.4,0.2-17.5-2.4-30.7c-1.7-8.6-3.8-14.8-5.9-20.7c-0.7-2-1.4-3.8-1.9-5.6c-0.2,0.5-0.3,0.9-0.5,1.4
					c-2,6-4.2,12.2-5.9,20.7c-2.6,13.2-2.6,24.4-2.4,30.7c0.7,15.9,3.7,19.7,2.4,32.5c-0.7,6.9-2.4,12.4-3.5,15.9
					c-0.7-3.4-1.9-8.6-3.5-14.8c-6.5-24.9-9.5-26.2-11.8-37.8c-0.6-3.1-5.3-29,6.5-53.2c2.9-5.8,4.2-6.4,8.9-15.9
					c0.1-0.2,0.2-0.4,0.3-0.6c-0.2-0.4-0.5-0.7-0.8-1.1c-5.7-7.4-12.8-11.7-27.2-20.1c-2.2-1.3-4.3-2.5-6.1-3.5
					c-9.2-5.1-20.5-4.3-29.1,1.9C73.1,324.2,52.8,361,52.8,402.7V473c0,14.9,12.1,27,27,27h196.4c14.9,0,27-12.1,27-27v-70.4
					C303.1,359.3,281,321.2,247.4,298.8z"/>
			</g>
		</g>
	</g>
	<g>
		<g>
			<line class="st0" x1="296.3" y1="106.2" x2="342" y2="151.8"/>
		</g>
	</g>
	<g>
		<g>
			<g>
				<path class="st0" d="M296.6,113.3l-14.5,50c-0.1,0.5,0.3,0.9,0.8,0.8l51.6-13.8L296.6,113.3z"/>
			</g>
		</g>
		<g>
			<g>
				<path class="st0" d="M444.3,31.4L415.8,3c-4-4-10.4-4-14.3,0L389,15.5l44.4,41.2l10.9-10.9C448.2,41.8,448.2,35.4,444.3,31.4z"
					/>
			</g>
		</g>
		<g>
			<g>
				<path class="st0" d="M384.3,20.8c-0.6,0.2-1.2,0.6-1.7,1.1L300,104.5c-0.4,0.4-0.6,0.8-0.9,1.2l43,42c0.2-0.1,0.4-0.3,0.7-0.5
					l82.6-82.6c0.9-0.9,1.4-2.1,1.4-3.3c0.4,0.1,0.7,0.1,1.2,0L384.3,20.8z"/>
			</g>
		</g>
	</g>
</g>
</svg>
