<?xml version="1.0" encoding="utf-8"?>
<!-- Generator: Adobe Illustrator 23.0.2, SVG Export Plug-In . SVG Version: 6.00 Build 0)  -->
<svg version="1.1" id="Layer_1" xmlns="http://www.w3.org/2000/svg" xmlns:xlink="http://www.w3.org/1999/xlink" x="0px" y="0px"
	 viewBox="0 0 500 500" style="enable-background:new 0 0 500 500;" xml:space="preserve">
<style type="text/css">
	.st0{fill:#FFFFFF;}
</style>
<g>
	<path class="st0" d="M444.9,189.3l-2.1-1.6l-0.7,0.6l-1-1L257,357.2c-4,3.6-10.1,3.6-13.9,0L60.6,188.7l-1.7-2.1l-2.7,1.8
		c-14.4,10-22.9,26.3-22.9,43.7v214.6c0,29.4,23.9,53.3,53.3,53.3h326.7c29.3,0,53.3-23.9,53.3-53.3V232.1
		C466.6,215.4,458.5,199.4,444.9,189.3z M55,463.3c-2.6-5-4.1-10.6-4.1-16.5V232.2c0-8,2.7-15.6,7.5-21.8L188,330L55,463.3z
		 M200.8,341.9l30.4,28.1c5.1,4.7,11.8,7.3,18.8,7.3s13.6-2.6,18.9-7.2l30.3-28L431,477.9c-5.2,3-11.2,4.7-17.7,4.7H86.6
		c-7.4,0-14.3-2.3-20-6.2L200.8,341.9z M312,330.3l129.7-119.8c4.7,6.1,7.4,13.7,7.4,21.7v214.6c0,7-2,13.5-5.5,19L312,330.3z"/>
	<path class="st0" d="M94.4,191.5h311.2c12.5,0,24.7-3.6,35.5-10.4l7.5-4.8L263,5.1c-7.2-6.8-18.7-6.8-25.9,0L51.6,176.3l7.5,4.8
		C69.7,187.9,81.9,191.5,94.4,191.5z M425.5,173.9c-6.3,2.7-13.1,4-20,4H94.4c-6.8,0-13.6-1.4-20-4L246.3,15.2
		c2.1-1.9,5.3-1.9,7.3,0L425.5,173.9z"/>
</g>
</svg>
