<?xml version="1.0" encoding="utf-8"?>
<!-- Generator: Adobe Illustrator 23.0.2, SVG Export Plug-In . SVG Version: 6.00 Build 0)  -->
<svg version="1.1" id="Layer_1" xmlns="http://www.w3.org/2000/svg" xmlns:xlink="http://www.w3.org/1999/xlink" x="0px" y="0px"
	 viewBox="0 0 500 500" style="enable-background:new 0 0 500 500;" xml:space="preserve">
<style type="text/css">
	.st0{fill:#FFFFFF;}
</style>
<g>
	<g>
		<g>
		</g>
	</g>
	<g>
		<g>
			<path class="st0" d="M250,427.2C115.8,427.2,9.6,296.3,5.1,290.8L0,284.3l5.1-6.5c4.4-5.6,110.6-136.4,244.9-136.4
				c134.2,0,240.4,130.8,244.9,136.4l5.1,6.5l-5.1,6.5C490.4,296.3,384.2,427.2,250,427.2z M26.7,284.3
				C49.7,310.4,142,406.6,250,406.6c108.1,0,200.4-96.2,223.3-122.3C450.3,258.2,358,162,250,162C141.8,162,49.6,258.3,26.7,284.3z"
				/>
		</g>
	</g>
	<g>
		<g>
			<path class="st0" d="M250,361.9c-46,0-83.5-37.5-83.5-83.5s37.5-83.5,83.5-83.5s83.5,37.5,83.5,83.5
				C333.5,324.5,296,361.9,250,361.9z M250,215.4c-34.7,0-62.9,28.2-62.9,62.9s28.2,62.9,62.9,62.9s62.9-28.2,62.9-62.9
				S284.7,215.4,250,215.4z"/>
		</g>
	</g>
	<g>
		<g>
			<rect x="239.7" y="72.8" class="st0" width="20.5" height="74.8"/>
		</g>
	</g>
	<g>
		<g>
			
				<rect x="143.8" y="89.6" transform="matrix(0.9544 -0.2984 0.2984 0.9544 -30.8736 51.7711)" class="st0" width="20.6" height="74.8"/>
		</g>
	</g>
	<g>
		<g>
			
				<rect x="58.6" y="138" transform="matrix(0.8558 -0.5173 0.5173 0.8558 -80.8107 60.9336)" class="st0" width="20.6" height="74.8"/>
		</g>
	</g>
	<g>
		<g>
			
				<rect x="302.5" y="110.2" transform="matrix(0.2987 -0.9543 0.9543 0.2987 123.4327 408.8818)" class="st0" width="74.8" height="20.6"/>
		</g>
	</g>
	<g>
		<g>
			
				<rect x="387.2" y="159.1" transform="matrix(0.5174 -0.8557 0.8557 0.5174 59.9468 445.0403)" class="st0" width="74.8" height="20.6"/>
		</g>
	</g>
</g>
</svg>
