<?xml version="1.0" encoding="utf-8"?>
<!-- Generator: Adobe Illustrator 23.0.2, SVG Export Plug-In . SVG Version: 6.00 Build 0)  -->
<svg version="1.1" id="Layer_1" xmlns="http://www.w3.org/2000/svg" xmlns:xlink="http://www.w3.org/1999/xlink" x="0px" y="0px"
	 viewBox="0 0 500 500" style="enable-background:new 0 0 500 500;" xml:space="preserve">
<style type="text/css">
	.st0{fill:#FFFFFF;}
</style>
<g>
	<g>
		<g>
			<g>
				<polygon class="st0" points="261.9,134.7 196.7,69.5 196.7,199.9 327.1,199.9 				"/>
			</g>
		</g>
		<g>
			<g>
				<path class="st0" d="M59.9,54.5c-16.4,0-29.8,13.4-29.8,29.8v385.9c0,16.4,13.4,29.8,29.8,29.8h252.4
					c16.4,0,29.8-13.4,29.8-29.8V221.1H190.2c-8.1,0-14.7-6.6-14.7-14.7V54.5H59.9L59.9,54.5z"/>
			</g>
		</g>
	</g>
	<g>
		<path class="st0" d="M390.3,0c-44,0-79.6,35.6-79.6,79.6s35.6,79.6,79.6,79.6s79.6-35.6,79.6-79.6S434.2,0,390.3,0z M446.2,92.9
			h-42.6v42.6c0,4.8-4,8.8-8.8,8.8h-8.9c-4.8,0-8.8-4-8.8-8.8V92.9h-42.6c-4.8,0-8.8-4-8.8-8.8v-8.9c0-4.8,4-8.8,8.8-8.8h42.6V23.9
			c0-4.8,4-8.8,8.8-8.8h8.9c4.8,0,8.8,4,8.8,8.8v42.6h42.6c4.8,0,8.8,4,8.8,8.8v8.9C454.9,89,451,92.9,446.2,92.9z"/>
	</g>
</g>
</svg>
