<?xml version="1.0" encoding="utf-8"?>
<!-- Generator: Adobe Illustrator 23.0.2, SVG Export Plug-In . SVG Version: 6.00 Build 0)  -->
<svg version="1.1" id="Layer_1" xmlns="http://www.w3.org/2000/svg" xmlns:xlink="http://www.w3.org/1999/xlink" x="0px" y="0px"
	 viewBox="0 0 500 500" style="enable-background:new 0 0 500 500;" xml:space="preserve">
<style type="text/css">
	.st0{fill:#FFFFFF;}
</style>
<g>
	<g>
		<path class="st0" d="M408.8,197.7c-32.1,0-58.3-26.2-58.3-58.3s26.2-58.3,58.3-58.3s58.3,26.2,58.3,58.3S440.9,197.7,408.8,197.7z
			 M408.8,89.7c-27.4,0-49.7,22.3-49.7,49.7s22.3,49.7,49.7,49.7c27.4,0,49.7-22.3,49.7-49.7S436.2,89.7,408.8,89.7z"/>
	</g>
	<g>
		<path class="st0" d="M419.2,341.7l-2.9-8.6c-1.3-3.8-2.2-7.7-2.6-11.6c-0.6-5.5-0.1-8.8,0.5-12.6c0.4-2.7,0.9-5.8,1.1-10.3
			c0.3-7-0.3-13.9-1.6-20.7c-0.9-4.3-1.9-7.7-2.9-10.8c-0.7,2.4-1.4,4.9-2,8c-1.3,6.7-1.9,13.9-1.6,20.7c0.2,4.6,0.7,7.6,1.1,10.3
			c0.6,3.8,1.1,7.1,0.5,12.6c-0.4,3.9-1.3,7.8-2.6,11.6l-2.9,8.6l-1.9-8.8c-0.5-2.3-1.3-5.9-2.5-10.2c-2.4-9.2-4.1-13.6-5.4-17.1
			c-1.2-3-2-5.3-2.8-9.3c-0.7-3.4-3.6-21.6,4.7-38.5c0.9-1.9,1.6-3,2.4-4.3c0.8-1.4,1.8-2.9,3.3-5.9c-3.6-4.5-8.4-7.3-17.8-12.8
			c-3.6-2.1-6.5-3.7-8.8-4.9c-5.6-3-8.7-4.6-9.6-8.7c-1.2-5.9,3.7-12.3,9-15.4c4.8-2.8,10.9-3.4,17.3-1.6
			c7.7,2.1,14.7,7.1,18.1,13.2c0.9,1.5,1.1,2.4,1.3,3.7c0,0.3,0.1,0.6,0.2,1c0.5-2,0.7-3.1,0.9-3.9c0.3-1.4,0.4-2.2,1.3-3.7
			c3.4-6.1,10.4-11.1,18.2-13.2c6.4-1.7,12.6-1.2,17.3,1.6l0,0c5.3,3.1,10.2,9.5,9,15.4c-0.9,4.1-4,5.8-9.6,8.7
			c-2.3,1.2-5.2,2.8-8.8,4.9c-9.6,5.7-14.5,8.5-18.2,13.3c-0.5,0.6-0.9,1.2-1.3,1.9c0.4,0.9,0.8,1.8,1.2,2.5
			c1.8,3.6,2.8,5.3,3.7,6.8c0.8,1.3,1.5,2.4,2.4,4.3c8.3,17,5.4,35.1,4.7,38.6c-0.8,4-1.7,6.3-2.8,9.3c-1.3,3.5-3,7.9-5.4,17.1
			c-1.1,4.3-1.9,7.8-2.5,10.2L419.2,341.7z M410.7,251.9l3.9,10.3c1.4,4,3,8.6,4.2,14.7c1.4,7.2,2,14.5,1.7,21.9
			c-0.2,4.8-0.7,8-1.2,10.9c-0.6,3.7-1,6.5-0.5,11.3c0,0.1,0,0.1,0,0.2c2.5-9.3,4.2-14,5.5-17.4c1.1-2.9,1.9-4.9,2.6-8.5
			c0.4-1.9,3.5-19.4-4.3-35.3c-0.8-1.7-1.5-2.7-2.2-3.8c-1-1.6-2.1-3.4-4-7.2c-0.5-1.1-1.2-2.4-1.8-3.8L414,244l0.6-1.1
			c0.7-1.2,1.5-2.4,2.3-3.5c4.3-5.6,9.4-8.6,19.6-14.6c3.7-2.2,5.3-3.9,7.7-5.1c5-2.7,6-3.7,6.4-5.4c0.7-3.3-1.7-6.3-5.5-8.5
			c-3.6-2.1-6.8-2.9-12-1.5c-6.4,1.7-9.4,1.5-12.2,6.3c-0.5,0.9-3.1,4.8-3.3,5.9c-0.3,1.4-1.7,3.7-3.3,8.7c-0.3,1-0.6,2-1,2.9
			l-2.8,8.1l-2.6-8.1c-1.6-5.1-2.2-7.1-2.9-8.3c-0.6-1-1.9-3.1-2.6-3.9c-3.6-4-6.6-5.6-13-7.3c-5.1-1.4-9-1.5-12.6,0.6
			c-3.7,2.2-5.9,5.4-5.2,8.7c0.3,1.7,0.1,2.2,5.1,4.8c2.4,1.2,5.4,2.8,9.1,5c10.2,6,15.3,9,19.6,14.6l1.3,1.8l-0.5,1.6
			c-2.1,4.2-3.2,6-4.2,7.6c-0.7,1.2-1.3,2.2-2.2,3.8c-7.6,15.5-4.9,32.1-4.3,35.3c0.7,3.5,1.5,5.6,2.6,8.4c1.3,3.4,3.1,8.1,5.5,17.4
			c0,0,0-0.1,0-0.2c0.5-4.8,0.1-7.5-0.5-11.3c-0.4-2.8-0.9-6.1-1.2-10.9c-0.3-7.2,0.3-14.8,1.7-21.9c1.2-6.1,2.7-10.5,4.2-14.7
			L410.7,251.9z"/>
	</g>
	<g>
		<path class="st0" d="M246.7,243.2c-32.1,0-58.3-26.2-58.3-58.3s26.2-58.3,58.3-58.3s58.3,26.2,58.3,58.3S278.8,243.2,246.7,243.2z
			 M246.7,135.2c-27.4,0-49.7,22.3-49.7,49.7s22.3,49.7,49.7,49.7s49.7-22.3,49.7-49.7S274.1,135.2,246.7,135.2z"/>
	</g>
	<g>
		<path class="st0" d="M476.9,371H350.5v-28.3c0-23.9-10.4-46.6-28.6-62.3l-2-1.8l0.7-2.6c5.3-20.3,17.6-38.2,34.6-50.6
			c7.2-5.2,17-5.9,24.8-1.6c1.3,0.7,2.8,1.5,4.4,2.5c10.1,5.9,15.6,9.2,20.1,15.1l1.9,2.7l-1.1,3c-1.9,3.9-3.1,5.8-4.1,7.4
			c-0.7,1.1-1.3,2.1-2.1,3.7c-7.5,15.4-4.5,32.3-4.1,34.2c0.6,3.4,1.4,5.3,2.5,8.2c0.3,0.9,0.7,1.8,1.1,2.8c-0.3-2-0.5-4.3-0.6-7.1
			c-0.3-7.5,0.3-15,1.7-22.3c1.2-6.2,2.8-10.8,4.3-14.9l4.3-12.3l5.5,15.3c1.4,4,3,8.7,4.3,14.9c1.5,7.3,2,14.8,1.7,22.3
			c-0.1,2.8-0.3,5.1-0.6,7.1c0.4-1,0.7-2,1.1-2.8c1.1-2.9,1.9-4.8,2.5-8.2c0.4-1.9,3.4-18.8-4.2-34.2c-0.8-1.6-1.4-2.6-2.1-3.7
			c-0.9-1.5-2.2-3.5-4-7.4c-0.5-1.1-1.2-2.4-1.9-3.9l-0.9-2l1.1-1.9c0.8-1.4,1.6-2.6,2.5-3.7c4.5-5.8,10-9.1,20.1-15l1.6-0.9
			c7.7-4.4,17.1-4,24.6,0.9l0,0c25.4,17,40.5,45.3,40.5,75.7v48.8C500,360.7,489.6,371,476.9,371z M359.1,362.4h117.8
			c8,0,14.4-6.5,14.4-14.4v-48.9c0-27.5-13.7-53.2-36.7-68.6l0,0c-4.7-3.2-10.7-3.4-15.5-0.6l-1.5,0.9c-9.7,5.7-14.2,8.3-17.6,12.9
			c-0.2,0.3-0.5,0.6-0.7,0.9c0.3,0.6,0.5,1.1,0.7,1.5c1.7,3.5,2.8,5.2,3.7,6.7c0.8,1.3,1.5,2.5,2.5,4.4c8.6,17.5,5.6,36.1,4.9,39.6
			c-0.8,4.1-1.7,6.5-2.9,9.6c-1.3,3.5-3,7.8-5.4,16.9c-1.1,4.3-1.9,7.7-2.4,10.1l-3.3,15l-5-14.5c-1.3-3.9-2.2-8-2.7-12
			c-0.6-5.7-0.1-9.1,0.6-13.1c0.4-2.7,0.9-5.7,1.1-10.1c0.3-6.8-0.3-13.7-1.5-20.3c-0.3-1.7-0.7-3.2-1.1-4.7
			c-0.1,0.6-0.3,1.2-0.4,1.8c-1.3,6.7-1.9,13.5-1.5,20.3c0.2,4.4,0.6,7.4,1.1,10.2c0.6,4,1.2,7.4,0.6,13.1c-0.4,4-1.3,8.1-2.7,12
			l-4.9,14.6l-3.3-15c-0.5-2.3-1.3-5.9-2.4-10.1c-2.4-9.1-4-13.5-5.4-17c-1.2-3.1-2.1-5.5-2.9-9.6c-0.7-3.5-3.7-22.1,4.9-39.6
			c0.9-1.9,1.7-3.1,2.5-4.4c0.7-1.2,1.5-2.5,2.7-4.6c-3.4-3.9-7.9-6.5-16.5-11.6c-1.5-0.9-2.9-1.7-4.2-2.4c-4.9-2.7-11-2.3-15.6,1
			c-14.7,10.7-25.5,26-30.6,43.3c18.8,17.3,29.5,41.5,29.5,67L359.1,362.4L359.1,362.4z"/>
	</g>
	<g>
		<path class="st0" d="M91.2,197.7c-32.1,0-58.3-26.2-58.3-58.3s26.2-58.3,58.3-58.3s58.3,26.2,58.3,58.3S123.4,197.7,91.2,197.7z
			 M91.2,89.7c-27.4,0-49.7,22.3-49.7,49.7s22.3,49.7,49.7,49.7s49.7-22.3,49.7-49.7S118.6,89.7,91.2,89.7z"/>
	</g>
	<g>
		<path class="st0" d="M78.8,332.9c-0.5-2.3-1.3-5.9-2.5-10.2c-2.4-9.2-4.1-13.6-5.4-17.1c-1.2-3-2.1-5.4-2.8-9.3
			c-0.7-3.4-3.7-21.5,4.7-38.6c0.9-1.9,1.6-3,2.4-4.3c0.9-1.5,2-3.2,3.7-6.8c0.3-0.7,0.8-1.5,1.2-2.5c-0.4-0.6-0.8-1.2-1.3-1.9
			c-3.7-4.8-8.5-7.6-18.2-13.3c-3.6-2.1-6.5-3.6-8.8-4.9c-5.6-3-8.7-4.6-9.6-8.7c-1.2-5.9,3.7-12.3,9-15.4l0,0
			c4.7-2.8,10.9-3.4,17.3-1.6c7.7,2.1,14.7,7.1,18.2,13.2c0.9,1.5,1.1,2.4,1.3,3.7c0.1,0.8,0.4,1.9,0.9,3.9c0.1-0.4,0.1-0.7,0.2-1
			c0.3-1.4,0.4-2.2,1.3-3.7c3.4-6.1,10.4-11.1,18.1-13.2c6.5-1.7,12.6-1.2,17.3,1.6c5.3,3.1,10.2,9.5,9,15.4c-0.9,4.1-4,5.7-9.6,8.7
			c-2.3,1.2-5.2,2.8-8.8,4.9c-9.3,5.5-14.2,8.3-17.8,12.8c1.5,2.9,2.5,4.5,3.3,5.9c0.8,1.3,1.5,2.4,2.4,4.3
			c8.3,17,5.4,35.1,4.7,38.5c-0.8,4-1.7,6.3-2.8,9.3c-1.3,3.5-3,7.9-5.4,17.1c-1.1,4.3-1.9,7.8-2.5,10.2l-1.9,8.8l-2.9-8.6
			c-1.3-3.8-2.2-7.7-2.6-11.6c-0.6-5.5-0.1-8.8,0.5-12.6c0.4-2.7,0.9-5.8,1.1-10.3c0.3-6.8-0.3-14-1.6-20.7c-0.6-3-1.3-5.6-2-8
			c-1,3.1-2.1,6.5-2.9,10.8c-1.3,6.8-1.9,13.8-1.6,20.7c0.2,4.6,0.7,7.6,1.1,10.3c0.6,3.8,1.1,7.1,0.5,12.6
			c-0.4,3.9-1.3,7.8-2.6,11.6l-2.9,8.6L78.8,332.9z M91.9,259.3c1.5,4.2,3,8.6,4.2,14.7c1.4,7.1,2,14.7,1.7,21.9
			c-0.2,4.8-0.7,8-1.2,10.9c-0.6,3.7-1,6.5-0.5,11.3c0,0,0,0.1,0,0.2c2.5-9.3,4.2-14,5.5-17.4c1.1-2.9,1.9-4.9,2.6-8.4
			c0.6-3.2,3.3-19.8-4.3-35.3c-0.8-1.7-1.5-2.7-2.2-3.8c-1-1.6-2.1-3.4-4.2-7.6l-0.5-1.6l1.3-1.8c4.3-5.6,9.4-8.6,19.6-14.6
			c3.7-2.2,6.7-3.7,9.1-5c5-2.6,4.8-3.1,5.1-4.8c0.7-3.3-1.5-6.5-5.2-8.7c-3.6-2.1-7.4-2-12.6-0.6c-6.4,1.7-9.4,3.4-13,7.3
			c-0.7,0.8-2.1,2.9-2.6,3.9c-0.7,1.2-1.3,3.3-2.9,8.3l-2.6,8.1l-2.8-8.1c-0.3-0.9-0.6-1.9-1-2.9c-1.6-5.1-3.1-7.4-3.3-8.7
			c-0.2-1.1-2.8-5-3.3-5.9c-2.8-4.9-5.8-4.6-12.2-6.3c-5.1-1.4-8.4-0.6-12,1.5c-3.7,2.2-6.2,5.2-5.5,8.5c0.3,1.7,1.3,2.7,6.4,5.4
			c2.4,1.2,4,3,7.7,5.1c10.2,6,15.3,9,19.6,14.6c0.9,1.1,1.6,2.3,2.3,3.5l0.6,1.1l-0.6,1.2c-0.7,1.5-1.3,2.8-1.8,3.8
			c-1.9,3.8-3,5.6-4,7.2c-0.7,1.2-1.3,2.2-2.2,3.8c-7.8,15.9-4.7,33.4-4.3,35.3c0.7,3.5,1.5,5.6,2.6,8.5c1.3,3.4,3.1,8.1,5.5,17.4
			c0-0.1,0-0.1,0-0.2c0.5-4.8,0.1-7.5-0.5-11.3c-0.4-2.8-0.9-6.1-1.2-10.9c-0.3-7.4,0.3-14.8,1.7-21.9c1.2-6.2,2.8-10.7,4.2-14.7
			L89,252L91.9,259.3z"/>
	</g>
	<g>
		<path class="st0" d="M149.5,371H23c-12.7,0-23-10.3-23-23v-48.9c0-30.4,15.1-58.7,40.5-75.7l0,0c7.5-5,16.9-5.4,24.6-0.9l1.6,0.9
			c10.1,5.9,15.6,9.2,20.1,15.1c0.9,1.1,1.7,2.4,2.5,3.7l1.1,1.9l-0.9,2c-0.7,1.5-1.3,2.8-1.9,3.9c-1.9,3.9-3.1,5.8-4,7.4
			c-0.7,1.1-1.3,2.1-2.1,3.7c-7.5,15.4-4.5,32.3-4.2,34.2c0.6,3.4,1.4,5.3,2.5,8.2c0.3,0.9,0.7,1.8,1.1,2.8c-0.3-2-0.5-4.3-0.6-7.1
			c-0.3-7.5,0.3-15,1.7-22.3c1.2-6.2,2.8-10.6,4.3-14.9l5.5-15.6l4.3,12.4c1.5,4.3,3.1,8.9,4.3,15.2c1.5,7.3,2,14.8,1.7,22.3
			c-0.1,2.8-0.3,5.1-0.6,7.1c0.4-1,0.7-2,1.1-2.8c1.1-2.9,1.9-4.8,2.5-8.2c0.4-1.9,3.4-18.8-4.2-34.2c-0.8-1.6-1.4-2.6-2.1-3.7
			c-0.9-1.5-2.2-3.5-4-7.4l-1.2-2.3l1.3-2.5c0.3-0.5,0.5-0.7,0.6-0.9c4.5-5.8,10-9.1,20.1-15c1.6-0.9,3.1-1.8,4.4-2.5
			c7.8-4.3,17.5-3.7,24.8,1.6c17,12.4,29.3,30.3,34.6,50.6l0.7,2.6l-2,1.8c-18.2,15.7-28.6,38.4-28.6,62.3L149.5,371L149.5,371z
			 M45.3,230.6c-23,15.4-36.7,41-36.7,68.6V348c0,8,6.5,14.4,14.4,14.4h117.8v-19.7c0-25.5,10.7-49.8,29.5-67
			c-5.1-17.3-15.9-32.6-30.6-43.3c-4.6-3.3-10.7-3.7-15.6-1c-1.3,0.7-2.7,1.5-4.2,2.4c-8.7,5.2-13.2,7.8-16.6,11.5
			c1.2,2.2,1.9,3.5,2.7,4.6c0.8,1.3,1.5,2.5,2.5,4.4c8.6,17.5,5.6,36.1,4.9,39.6c-0.8,4.1-1.7,6.5-2.9,9.6c-1.3,3.5-3,7.8-5.4,17
			c-1.1,4.3-1.9,7.7-2.4,10.1l-3.3,15l-5-14.5c-1.3-3.9-2.2-8-2.7-12c-0.6-5.7-0.1-9.1,0.6-13.1c0.4-2.7,0.9-5.7,1.1-10.2
			c0.3-6.8-0.3-13.7-1.5-20.3c-0.1-0.6-0.3-1.2-0.4-1.8c-0.4,1.5-0.7,3-1.1,4.7c-1.3,6.7-1.9,13.5-1.5,20.3
			c0.2,4.4,0.6,7.5,1.1,10.2c0.6,4,1.2,7.4,0.6,13.1c-0.4,4.1-1.3,8.1-2.7,12l-5,14.5l-3.3-15c-0.5-2.3-1.3-5.9-2.4-10.1
			c-2.4-9.1-4-13.5-5.4-17c-1.2-3.1-2.1-5.5-2.9-9.6c-0.7-3.5-3.7-22.1,4.9-39.6c0.9-1.9,1.7-3.1,2.5-4.4c0.9-1.5,1.9-3.1,3.7-6.7
			c0.2-0.5,0.5-1,0.8-1.5c-0.2-0.3-0.4-0.6-0.7-0.9c-3.4-4.5-7.9-7.1-17.6-12.9l-1.5-0.9C56,227.2,50,227.4,45.3,230.6L45.3,230.6z"
			/>
	</g>
	<g>
		<path class="st0" d="M257.1,387.3l-2.9-8.6c-1.3-3.8-2.2-7.7-2.6-11.6c-0.6-5.5-0.1-8.8,0.5-12.6c0.4-2.7,0.9-5.8,1.1-10.3
			c0.3-7-0.3-13.9-1.6-20.7c-0.9-4.3-1.9-7.7-2.9-10.8c-0.7,2.4-1.4,4.9-2,8c-1.3,6.7-1.9,13.9-1.6,20.7c0.2,4.6,0.7,7.6,1.1,10.3
			c0.6,3.8,1.1,7.1,0.5,12.6c-0.4,3.9-1.3,7.8-2.6,11.6l-2.9,8.5l-1.9-8.8c-0.5-2.3-1.3-5.9-2.5-10.2c-2.4-9.2-4.1-13.6-5.4-17.1
			c-1.2-3-2-5.3-2.8-9.3c-0.7-3.4-3.6-21.6,4.7-38.5c0.9-1.9,1.6-3,2.4-4.3c0.8-1.4,1.8-2.9,3.3-5.9c-3.6-4.5-8.4-7.3-17.8-12.8
			c-3.6-2.1-6.5-3.7-8.8-4.9c-5.6-3-8.7-4.6-9.6-8.7c-1.2-5.9,3.7-12.3,9-15.4c4.8-2.8,10.9-3.4,17.3-1.6
			c7.7,2.1,14.7,7.1,18.1,13.2c0.9,1.5,1.1,2.4,1.3,3.7c0,0.3,0.1,0.6,0.2,1c0.5-2,0.7-3.1,0.9-3.9c0.3-1.4,0.4-2.2,1.3-3.7
			c3.4-6.1,10.4-11.1,18.2-13.2c6.4-1.7,12.6-1.2,17.3,1.6l0,0c5.3,3.1,10.2,9.5,9,15.4c-0.9,4.1-4,5.8-9.6,8.7
			c-2.3,1.2-5.2,2.8-8.8,4.9c-9.6,5.7-14.5,8.5-18.2,13.3c-0.5,0.6-0.9,1.2-1.3,1.9c0.4,0.9,0.8,1.8,1.2,2.5
			c1.8,3.6,2.8,5.3,3.7,6.8c0.8,1.3,1.5,2.4,2.4,4.3c8.3,17,5.4,35.1,4.7,38.6c-0.8,4-1.7,6.3-2.8,9.3c-1.3,3.5-3,7.9-5.4,17.1
			c-1.1,4.3-1.9,7.8-2.5,10.2L257.1,387.3z M248.6,297.4l3.9,10.3c1.4,4,3,8.6,4.2,14.7c1.4,7.2,2,14.5,1.7,21.9
			c-0.2,4.8-0.7,8-1.2,10.9c-0.6,3.7-1,6.5-0.5,11.3c0,0.1,0,0.1,0,0.2c2.5-9.3,4.2-14,5.5-17.4c1.1-2.9,1.9-4.9,2.6-8.5
			c0.4-1.9,3.5-19.4-4.3-35.3c-0.8-1.7-1.5-2.7-2.2-3.8c-1-1.6-2.1-3.4-4-7.2c-0.5-1.1-1.2-2.4-1.8-3.8l-0.6-1.2l0.6-1.1
			c0.7-1.2,1.5-2.4,2.3-3.5c4.3-5.6,9.4-8.6,19.6-14.6c3.7-2.2,5.3-3.9,7.7-5.1c5-2.7,6-3.7,6.4-5.4c0.7-3.3-1.7-6.3-5.5-8.5
			c-3.6-2.1-6.8-2.9-12-1.5c-6.4,1.7-9.4,1.5-12.2,6.3c-0.5,0.9-3.1,4.8-3.3,5.9c-0.3,1.4-1.7,3.7-3.3,8.7c-0.3,1-0.6,2-1,2.9
			l-2.8,8.1l-2.6-8.1c-1.6-5.1-2.2-7.1-2.9-8.3c-0.6-1-1.9-3.1-2.6-3.9c-3.6-4-6.6-5.6-13-7.3c-5.1-1.4-9-1.5-12.6,0.6
			c-3.7,2.2-5.9,5.4-5.2,8.7c0.3,1.7,0.1,2.2,5.1,4.8c2.4,1.2,5.4,2.8,9.1,5c10.2,6,15.3,9,19.6,14.6l1.3,1.8l-0.5,1.6
			c-2.1,4.2-3.2,6-4.2,7.6c-0.7,1.2-1.3,2.2-2.2,3.8c-7.6,15.5-4.9,32.1-4.3,35.3c0.7,3.5,1.5,5.6,2.6,8.4c1.3,3.4,3.1,8.1,5.5,17.4
			c0,0,0-0.1,0-0.2c0.5-4.8,0.1-7.5-0.5-11.3c-0.4-2.8-0.9-6.1-1.2-10.9c-0.3-7.2,0.3-14.8,1.7-21.9c1.2-6.1,2.7-10.5,4.2-14.7
			L248.6,297.4z"/>
	</g>
	<g>
		<path class="st0" d="M317.3,418.9H181c-12.7,0-23-10.3-23-23V347c0-29,14-56.6,37.6-73.7c7.2-5.2,17-5.9,24.8-1.6
			c1.3,0.7,2.8,1.5,4.4,2.5c10.1,5.9,15.6,9.2,20.1,15.1l1.9,2.7l-1.1,3c-1.9,3.9-3.1,5.8-4.1,7.4c-0.7,1.1-1.3,2.1-2.1,3.7
			c-7.5,15.4-4.5,32.3-4.2,34.2c0.6,3.4,1.4,5.3,2.5,8.2c0.3,0.9,0.7,1.8,1.1,2.8c-0.3-2-0.5-4.3-0.6-7.1c-0.3-7.5,0.3-15,1.7-22.3
			c1.2-6.2,2.8-10.8,4.3-14.9l4.3-12.3l5.5,15.3c1.5,4.3,3,8.7,4.3,14.9c1.5,7.3,2,14.8,1.7,22.3c-0.1,2.8-0.3,5.1-0.6,7.1
			c0.4-1,0.7-2,1.1-2.8c1.1-2.9,1.9-4.8,2.5-8.2c0.4-1.9,3.4-18.8-4.2-34.2c-0.8-1.6-1.4-2.6-2.1-3.7c-0.9-1.5-2.2-3.5-4-7.4
			c-0.5-1.1-1.2-2.4-1.9-3.9l-0.9-2l1.1-1.9c0.8-1.3,1.6-2.6,2.5-3.7c4.5-5.8,10-9.1,20.1-15l1.6-0.9c7.7-4.4,17.1-4,24.6,0.9l0,0
			c25.4,17,40.5,45.3,40.5,75.7V396C340.3,408.5,330,418.9,317.3,418.9z M209.2,277.5c-3.1,0-6.1,0.9-8.6,2.8
			c-21.3,15.5-34,40.5-34,66.8v48.8c0,8,6.5,14.4,14.4,14.4h136.3c8,0,14.4-6.5,14.4-14.4V347c0-27.5-13.7-53.2-36.7-68.6l0,0
			c-4.7-3.2-10.7-3.4-15.5-0.6l-1.5,0.9c-9.8,5.8-14.2,8.3-17.6,12.9c-0.2,0.3-0.5,0.6-0.7,0.9c0.3,0.6,0.5,1.1,0.7,1.5
			c1.7,3.5,2.8,5.2,3.7,6.7c0.8,1.3,1.5,2.5,2.5,4.4c8.6,17.6,5.6,36.1,4.9,39.6c-0.8,4.1-1.7,6.5-2.9,9.6c-1.3,3.5-3,7.8-5.4,16.9
			c-1.1,4.3-1.9,7.7-2.4,10.1l-3.3,15l-5-14.5c-1.3-3.9-2.2-8-2.7-12c-0.6-5.7-0.1-9.1,0.6-13.1c0.4-2.7,0.9-5.7,1.1-10.2
			c0.3-6.8-0.3-13.7-1.5-20.3c-0.3-1.7-0.7-3.2-1.1-4.7c-0.1,0.6-0.3,1.2-0.4,1.8c-1.3,6.7-1.9,13.5-1.5,20.3
			c0.2,4.4,0.6,7.4,1.1,10.1c0.6,4,1.2,7.4,0.6,13.1c-0.4,4-1.3,8.1-2.7,12l-5,14.5l-3.3-15c-0.5-2.3-1.3-5.9-2.4-10.1
			c-2.4-9.1-4-13.5-5.4-16.9c-1.2-3.1-2.1-5.5-2.9-9.6c-0.7-3.5-3.7-22.1,4.9-39.6c0.9-1.9,1.7-3.1,2.5-4.4c0.7-1.2,1.5-2.5,2.7-4.6
			c-3.3-3.7-7.8-6.4-16.5-11.5c-1.5-0.9-2.9-1.7-4.2-2.4C214,278,211.6,277.5,209.2,277.5z M240.9,292.2h0.1l0.4-0.4L240.9,292.2z"
			/>
	</g>
</g>
</svg>
