<?xml version="1.0" encoding="utf-8"?>
<!-- Generator: Adobe Illustrator 23.0.2, SVG Export Plug-In . SVG Version: 6.00 Build 0)  -->
<svg version="1.1" id="Layer_1" xmlns="http://www.w3.org/2000/svg" xmlns:xlink="http://www.w3.org/1999/xlink" x="0px" y="0px"
	 viewBox="0 0 500 500" style="enable-background:new 0 0 500 500;" xml:space="preserve">
<style type="text/css">
	.st0{fill:#FFFFFF;}
</style>
<g>
	<g>
		<g>
			<g>
				<path class="st0" d="M379.4,500H120.7c-28.9,0-52.3-23.5-52.3-52.3V52.3C68.4,23.5,91.9,0,120.7,0h133.8l177.1,177.1v270.6
					C431.6,476.6,408.2,500,379.4,500z M120.7,21.9c-16.8,0-30.5,13.7-30.5,30.5v395.3c0,16.8,13.7,30.5,30.5,30.5h258.6
					c16.8,0,30.5-13.7,30.5-30.5V186.2L245.6,21.9H120.7z"/>
			</g>
		</g>
		<g>
			<g>
				<path class="st0" d="M415.8,192.6H254.3c-8.3,0-15.1-6.8-15.1-15.1V16.6c0-5.4,3.2-10.2,8.1-12.2c5-2,10.6-0.9,14.4,2.9
					L425,170.5c3.7,3.8,4.8,9.2,2.8,14.1C425.7,189.5,421.1,192.6,415.8,192.6z M260.9,170.8h133.5L260.9,37.3V170.8z"/>
			</g>
		</g>
	</g>
	<g>
		<g>
			<path class="st0" d="M200.3,440.6c-3.4,0-6.8-1.3-9.4-3.9l-52.2-52.2c-5.2-5.2-5.2-13.7,0-18.9L260.3,244
				c5.2-5.2,13.7-5.2,18.9,0l52.2,52.2c5.2,5.2,5.2,13.7,0,18.9L209.8,436.7C207.2,439.3,203.8,440.6,200.3,440.6z M199,428.5
				c0.7,0.7,1.8,0.7,2.5,0l121.6-121.6c0.7-0.7,0.7-1.8,0-2.5L271,252.3c-0.7-0.7-1.8-0.7-2.5,0L146.9,373.9c-0.7,0.7-0.7,1.8,0,2.5
				L199,428.5z"/>
		</g>
	</g>
	<g>
		<g>
			<path class="st0" d="M117.3,463.3c-1.8,0-3.5-0.7-4.8-2c-1.7-1.7-2.3-4.1-1.7-6.4l20.6-79.5c0.6-2.3,2.4-4.2,4.8-4.8
				c2.3-0.6,4.8,0,6.6,1.8l60.5,60.5c1.8,1.8,2.4,4.3,1.8,6.6c-0.6,2.3-2.6,4.2-4.9,4.7l-81.1,19
				C118.4,463.2,117.9,463.3,117.3,463.3z M140.5,386.4L124,450.1l64.9-15.3L140.5,386.4z M134.5,380.3
				C134.5,380.3,134.5,380.4,134.5,380.3L134.5,380.3z"/>
		</g>
	</g>
	<g>
		<g>
			<path class="st0" d="M332.6,309.7L332.6,309.7c-2.7,0-5.2-1-7.1-3l-56.9-56.9c-3.9-3.9-3.9-10.3,0-14.1l19.4-19.4
				c8-8,21.2-8,29.2,0l41.9,41.9c8,8,8,21.2,0,29.2l-19.4,19.4C337.8,308.7,335.3,309.7,332.6,309.7z M333.7,298.6L333.7,298.6
				L333.7,298.6z M277.9,242.8l54.7,54.7l18.3-18.3c3.5-3.5,3.5-9.3,0-12.9L309,224.4c-3.5-3.5-9.2-3.5-12.9,0L277.9,242.8z"/>
		</g>
	</g>
</g>
</svg>
