<?xml version="1.0" encoding="utf-8"?>
<!-- Generator: Adobe Illustrator 23.0.2, SVG Export Plug-In . SVG Version: 6.00 Build 0)  -->
<svg version="1.1" id="Layer_1" xmlns="http://www.w3.org/2000/svg" xmlns:xlink="http://www.w3.org/1999/xlink" x="0px" y="0px"
	 viewBox="0 0 500 500" style="enable-background:new 0 0 500 500;" xml:space="preserve">
<style type="text/css">
	.st0{fill:#FFFFFF;}
</style>
<g>
	<g>
		<g>
			<path class="st0" d="M494.8,429.9L315,250L494.8,70.1c6.9-6.9,6.9-18.1,0-25L454.9,5.2c-6.9-6.9-18.1-6.9-25,0L250,185L70.1,5.2
				c-6.9-6.9-18.1-6.9-25,0L5.2,45.1c-6.9,6.9-6.9,18.1,0,25L185,250L5.2,429.9c-6.9,6.9-6.9,18.1,0,25l39.9,39.9
				c6.9,6.9,18.1,6.9,25,0L250,315l179.9,179.9c6.9,6.9,18.1,6.9,25,0l39.9-39.9C501.7,448,501.7,436.8,494.8,429.9z"/>
		</g>
	</g>
</g>
</svg>
