<?xml version="1.0" encoding="utf-8"?>
<!-- Generator: Adobe Illustrator 23.0.2, SVG Export Plug-In . SVG Version: 6.00 Build 0)  -->
<svg version="1.1" id="Layer_1" xmlns="http://www.w3.org/2000/svg" xmlns:xlink="http://www.w3.org/1999/xlink" x="0px" y="0px"
	 viewBox="0 0 500 500" style="enable-background:new 0 0 500 500;" xml:space="preserve">
<style type="text/css">
	.st0{fill:#FFFFFF;}
</style>
<g>
	<g>
		<g>
			<path class="st0" d="M250,200.4c-55.2,0-100.2-45-100.2-100.2S194.8,0,250,0s100.2,45,100.2,100.2S305.3,200.4,250,200.4z
				 M250,14.8c-47.1,0-85.4,38.3-85.4,85.4s38.3,85.4,85.4,85.4s85.4-38.3,85.4-85.4S297.1,14.8,250,14.8z"/>
		</g>
	</g>
	<g>
		<g>
			<path class="st0" d="M263.7,448.2l-5-14.7c-2.2-6.5-3.7-13.2-4.4-20c-1-9.4-0.1-15.1,0.9-21.7c0.7-4.7,1.6-10,1.8-17.7
				c0.5-12-0.4-24-2.7-35.6c-1.5-7.4-3.3-13.3-5-18.6c-1.3,4.1-2.4,8.5-3.4,13.7c-2.3,11.5-3.3,23.8-2.7,35.6
				c0.3,7.8,1.2,13.1,1.8,17.7c1,6.6,1.9,12.3,0.9,21.7c-0.7,6.7-2.2,13.5-4.4,20l-5,14.7l-3.3-15.2c-0.9-4-2.3-10.1-4.2-17.4
				c-4.1-15.8-7-23.4-9.3-29.4c-2-5.1-3.5-9.2-4.8-16c-1.2-5.9-6.2-37,8.1-66.2c1.6-3.2,2.7-5.2,4.1-7.3c1.4-2.4,3-5,5.6-10.1
				c-6.2-7.7-14.5-12.6-30.5-22c-6.1-3.6-11.2-6.3-15.2-8.4c-9.7-5.1-15-7.8-16.5-14.9c-2.1-10.1,6.4-21.2,15.5-26.5
				c8.2-4.7,18.8-5.8,29.8-2.8c13.2,3.5,25.2,12.3,31.1,22.7c1.5,2.7,1.8,4.1,2.3,6.4c0.1,0.5,0.2,1,0.4,1.8
				c0.9-3.4,1.3-5.3,1.6-6.7c0.4-2.4,0.7-3.8,2.3-6.4c5.9-10.4,17.9-19.1,31.2-22.7c11-3,21.6-2,29.8,2.8l0,0
				c9.1,5.2,17.6,16.3,15.5,26.5c-1.5,7.1-6.8,9.9-16.5,14.9c-4,2.1-9,4.7-15.2,8.4c-16.6,9.8-24.9,14.6-31.2,22.8
				c-0.8,1-1.6,2.1-2.2,3.2c0.7,1.6,1.4,3,2.1,4.3c3,6.2,4.9,9.1,6.4,11.7c1.3,2.2,2.6,4.1,4.1,7.3c14.3,29.3,9.3,60.3,8.1,66.2
				c-1.3,6.8-2.9,10.8-4.8,16c-2.3,6.1-5.2,13.5-9.3,29.4c-1.9,7.3-3.3,13.5-4.2,17.4L263.7,448.2z M249,293.8l6.7,17.7
				c2.4,6.9,5.1,14.7,7.2,25.3c2.4,12.3,3.4,25,2.9,37.7c-0.4,8.3-1.2,13.8-2,18.8c-1,6.4-1.8,11.1-0.9,19.4c0,0.1,0,0.2,0.1,0.4
				c4.2-16,7.2-24,9.5-29.9c1.8-5,3.3-8.5,4.4-14.6c0.7-3.3,6.1-33.3-7.4-60.7c-1.4-2.9-2.5-4.7-3.7-6.6c-1.7-2.7-3.6-5.8-6.9-12.4
				c-0.9-1.8-2-4.1-3.1-6.6l-1-2.1l1.1-1.9c1.3-2.1,2.5-4.1,4-6.1c7.3-9.5,16.1-14.7,33.6-25.1c6.3-3.7,9.1-6.7,13.2-8.8
				c8.6-4.6,10.4-6.3,10.9-9.2c1.2-5.7-3-10.9-9.4-14.6c-6.1-3.5-11.8-5-20.6-2.6c-10.9,3-16.2,2.5-20.9,10.9
				c-0.9,1.6-5.3,8.3-5.7,10.2c-0.4,2.4-3,6.3-5.7,15c-0.5,1.8-1.1,3.4-1.7,5l-4.9,13.9l-4.5-13.9c-2.8-8.8-3.8-12.3-5-14.3
				c-1-1.8-3.3-5.4-4.5-6.7c-6.1-6.8-11.3-9.6-22.3-12.5c-8.8-2.4-15.5-2.5-21.6,1c-6.4,3.8-10.2,9.3-9,14.9
				c0.6,2.9,0.1,3.7,8.8,8.2c4.1,2.1,9.2,4.9,15.6,8.6c17.5,10.4,26.3,15.5,33.6,25.1l2.2,3.1l-0.8,2.8c-3.5,7.2-5.5,10.4-7.2,13.1
				c-1.3,2-2.3,3.7-3.7,6.6c-13.1,26.7-8.4,55.2-7.4,60.7c1.2,6.1,2.5,9.6,4.4,14.5c2.2,5.8,5.3,13.9,9.5,29.9c0-0.1,0-0.2,0-0.3
				c0.9-8.3,0.1-12.9-0.9-19.4c-0.7-4.9-1.6-10.4-2-18.8c-0.5-12.4,0.5-25.5,2.9-37.7c2.1-10.5,4.7-18,7.2-25.2L249,293.8z"/>
		</g>
	</g>
	<g>
		<g>
			<path class="st0" d="M367.1,500H133c-21.8,0-39.6-17.7-39.6-39.6v-83.9c0-49.9,24.1-97.2,64.5-126.6c12.4-9.1,29.1-10.1,42.6-2.7
				c2.3,1.3,4.8,2.7,7.5,4.3c17.3,10.2,26.8,15.8,34.5,25.9l3.3,4.7l-1.8,5.2c-3.3,6.7-5.3,10-6.9,12.6c-1.2,1.9-2.2,3.6-3.5,6.4
				c-12.9,26.4-7.8,55.5-7.1,58.8c1.1,5.8,2.4,9.1,4.3,14c0.6,1.5,1.2,3,1.8,4.8c-0.4-3.4-0.8-7.3-1-12.2c-0.5-12.9,0.4-25.8,3-38.4
				c2.1-10.7,4.9-18.6,7.3-25.7l7.4-21.1l9.5,26c2.4,6.9,5.2,14.9,7.3,25.7c2.5,12.6,3.5,25.5,3,38.4c-0.2,4.9-0.6,8.8-1,12.2
				c0.7-1.8,1.3-3.4,1.8-4.8c1.9-5,3.2-8.3,4.3-14c0.7-3.3,5.8-32.4-7.2-58.8c-1.3-2.8-2.4-4.4-3.5-6.4c-1.6-2.7-3.7-6-6.9-12.6
				c-0.9-1.8-2-4.1-3.2-6.7l-1.6-3.5l1.9-3.3c1.3-2.2,2.7-4.3,4.2-6.4c7.7-10.1,17.2-15.7,34.5-25.9l2.8-1.6
				c13.2-7.5,29.4-6.9,42.2,1.6l0,0C381,275.6,407,324.3,407,376.5v83.9C406.7,482.3,389,500,367.1,500z M181.4,257
				c-5.2,0-10.4,1.6-14.8,4.8c-36.6,26.7-58.5,69.6-58.5,114.7v83.9c0,13.7,11.1,24.8,24.8,24.8h234.2c13.7,0,24.8-11.1,24.8-24.8
				v-83.9c0-47.3-23.6-91.4-63.1-117.8c-8.1-5.5-18.3-5.8-26.6-1.1l-2.7,1.6c-16.7,9.8-24.4,14.3-30.3,22.1c-0.4,0.5-0.8,1-1.2,1.6
				c0.4,1,0.9,1.8,1.3,2.7c3,6.1,4.7,8.9,6.3,11.5c1.4,2.3,2.7,4.3,4.3,7.6c14.8,30.1,9.5,62,8.4,68.1c-1.4,7-3,11.2-5,16.5
				c-2.3,6-5.1,13.4-9.2,29.1c-1.9,7.3-3.3,13.3-4.1,17.4l-5.7,25.8l-8.6-25c-2.3-6.7-3.8-13.7-4.6-20.6c-1-9.8-0.1-15.7,1-22.5
				c0.7-4.6,1.6-9.8,1.8-17.4c0.4-11.8-0.4-23.5-2.7-34.9c-0.6-2.9-1.2-5.5-1.8-8.1c-0.2,1-0.4,2-0.7,3.1
				c-2.3,11.5-3.2,23.1-2.7,34.9c0.3,7.6,1.1,12.8,1.8,17.4c1,6.8,2,12.6,1,22.5c-0.7,6.9-2.3,13.9-4.6,20.6l-8.5,25.1l-5.7-25.8
				c-0.9-4-2.3-10.1-4.1-17.4c-4.1-15.7-6.9-23.1-9.2-29.1c-2-5.2-3.6-9.5-5-16.5c-1.2-6.1-6.4-38,8.4-68.1c1.6-3.3,2.9-5.3,4.3-7.6
				c1.3-2,2.6-4.2,4.5-8c-5.9-6.7-13.6-11.2-28.4-19.9c-2.6-1.6-5-2.9-7.2-4.1C189.6,258,185.5,257,181.4,257z"/>
		</g>
	</g>
	<g>
		<path class="st0" d="M448.7,186.5c-37.3,0-57.7-48.1-74.4-87.4C365.6,78.6,354.8,53,346.8,52c-2.2-0.2-5.5,2.3-9.2,6.9l-5.5,7.1
			l-21-24.3l2.5-4.5c7.7-13.7,16.5-21.2,27-23c19.1-3.3,37.9,13.5,59.7,32.8c25.2,22.3,53.7,47.7,86.6,45.8l11.4-0.7l-34.6,92.1
			l-3.8,0.9C456,186.2,452.3,186.5,448.7,186.5z M346.4,37.2c0.7,0,1.6,0.1,2.3,0.1c16.3,2.1,26.5,26,39.3,56
			c16.3,38.4,34.6,81.6,64.8,78.1l24.1-64.1c-34-3-62.7-28.5-86.2-49.3c-18.2-16.1-35.3-31.3-47.5-29.3c-4.9,0.8-9.5,4.5-13.9,11.2
			l2.8,3.3C336.6,39.3,341.5,37.2,346.4,37.2z"/>
	</g>
	<g>
		<path class="st0" d="M51.3,185.8c-3.5,0-7.2-0.4-11.2-1.3l-3.8-0.9L1.7,91.5L13,92.1C45.8,94,74.4,68.7,99.6,46.4
			c21.8-19.4,40.7-36.1,59.7-32.8c10.5,1.8,19.4,9.3,27,23l2.5,4.5l-21,24.3l-5.5-7.1c-3.7-4.7-7-7.2-9.2-6.9
			c-8,1-18.9,26.6-27.6,47.2C109,137.7,88.6,185.8,51.3,185.8z M47.4,170.7c30.1,3.6,48.4-39.8,64.8-78.1
			c12.8-30.1,22.9-53.9,39.3-56c5.7-0.7,11.3,1.3,16.7,6l2.8-3.3c-4.5-6.7-9.1-10.4-13.9-11.2c-12.2-2.1-29.3,13.2-47.5,29.3
			c-23.5,20.8-52.1,46.3-86.2,49.3L47.4,170.7z"/>
	</g>
</g>
</svg>
