<?xml version="1.0" encoding="utf-8"?>
<!-- Generator: Adobe Illustrator 23.0.2, SVG Export Plug-In . SVG Version: 6.00 Build 0)  -->
<svg version="1.1" id="Layer_1" xmlns="http://www.w3.org/2000/svg" xmlns:xlink="http://www.w3.org/1999/xlink" x="0px" y="0px"
	 viewBox="0 0 56.69 56.69" style="enable-background:new 0 0 56.69 56.69;" xml:space="preserve">
<style type="text/css">
	.st0{fill:#FFFFFF;}
</style>
<g>
	<path class="st0" d="M23.95,14.55c-4.1,0-7.44,3.34-7.44,7.44c0,4.1,3.34,7.44,7.44,7.44s7.44-3.34,7.44-7.44
		C31.39,17.88,28.05,14.55,23.95,14.55z M23.95,30.95c-4.95,0-8.97-4.03-8.97-8.97c0-4.95,4.03-8.97,8.97-8.97s8.97,4.03,8.97,8.97
		C32.92,26.93,28.9,30.95,23.95,30.95z"/>
	<path class="st0" d="M10.47,33.22c-0.79,0-1.43,0.64-1.43,1.43v1.73c0,0.79,0.64,1.43,1.43,1.43h3.01c1.64,0,2.97,1.33,2.97,2.97
		v12.94c0,0.79,0.64,1.43,1.43,1.43h12c0.79,0,1.43-0.64,1.43-1.43V40.78c0-1.64,1.33-2.97,2.97-2.97h3.01
		c0.79,0,1.43-0.64,1.43-1.43v-1.73c0-0.79-0.64-1.43-1.43-1.43H10.47z M29.89,56.69h-12c-1.64,0-2.97-1.33-2.97-2.97V40.79
		c0-0.79-0.64-1.43-1.43-1.43h-3.01c-1.64,0-2.97-1.33-2.97-2.97v-1.73c0-1.64,1.33-2.97,2.97-2.97h26.84
		c1.64,0,2.97,1.33,2.97,2.97v1.73c0,1.64-1.33,2.97-2.97,2.97H34.3c-0.79,0-1.43,0.64-1.43,1.43v12.94
		C32.85,55.37,31.53,56.69,29.89,56.69z"/>
	<path class="st0" d="M31.65,9.03c-0.15,0-0.28,0.13-0.28,0.28v0.76c0,0.15,0.13,0.28,0.28,0.28h7.2v7.2c0,0.15,0.13,0.28,0.28,0.28
		h0.76c0.15,0,0.28-0.13,0.28-0.28v-7.2h7.2c0.15,0,0.28-0.13,0.28-0.28V9.31c0-0.15-0.13-0.28-0.28-0.28h-7.2v-7.2
		c0-0.15-0.13-0.28-0.28-0.28h-0.76c-0.15,0-0.28,0.13-0.28,0.28v7.2H31.65z M39.89,19.36h-0.76c-1,0-1.82-0.81-1.82-1.82v-5.67
		h-5.67c-1,0-1.82-0.81-1.82-1.82V9.3c0-1,0.81-1.82,1.82-1.82h5.67V1.82c0-1,0.81-1.82,1.82-1.82h0.76c1,0,1.82,0.81,1.82,1.82
		v5.67h5.67c1,0,1.82,0.81,1.82,1.82v0.76c0,1-0.81,1.82-1.82,1.82H41.7v5.67C41.7,18.55,40.89,19.36,39.89,19.36z"/>
</g>
</svg>
