<?xml version="1.0" encoding="utf-8"?>
<!-- Generator: Adobe Illustrator 23.0.2, SVG Export Plug-In . SVG Version: 6.00 Build 0)  -->
<svg version="1.1" id="Layer_1" xmlns="http://www.w3.org/2000/svg" xmlns:xlink="http://www.w3.org/1999/xlink" x="0px" y="0px"
	 viewBox="0 0 56.69 56.69" style="enable-background:new 0 0 56.69 56.69;" xml:space="preserve">
<style type="text/css">
	.st0{fill:#FFFFFF;}
</style>
<g>
	<path class="st0" d="M23.83,30.24c4.66,0,8.43-3.78,8.43-8.43c0-4.66-3.78-8.43-8.43-8.43s-8.43,3.78-8.43,8.43
		C15.4,26.46,19.17,30.24,23.83,30.24z"/>
	<path class="st0" d="M39.82,34.83c0-1.25-1.02-2.26-2.26-2.26H32.2H15.33H9.97c-1.25,0-2.26,1.02-2.26,2.26v1.77
		c0,1.25,1.02,2.26,2.26,2.26h3.1c1.25,0,2.26,1.02,2.26,2.26v13.3c0,1.25,1.02,2.26,2.26,2.26h12.34c1.25,0,2.26-1.02,2.26-2.26
		v-13.3c0-1.25,1.02-2.26,2.26-2.26h3.1c1.25,0,2.26-1.02,2.26-2.26L39.82,34.83L39.82,34.83z"/>
	<path class="st0" d="M47.9,7.69h-6.61V1.08c0-0.6-0.48-1.08-1.08-1.08h-0.78c-0.6,0-1.08,0.48-1.08,1.08v6.61h-6.61
		c-0.6,0-1.08,0.48-1.08,1.08v0.78c0,0.6,0.48,1.08,1.08,1.08h6.61v6.61c0,0.6,0.48,1.08,1.08,1.08h0.78c0.6,0,1.08-0.48,1.08-1.08
		v-6.61h6.61c0.6,0,1.08-0.48,1.08-1.08V8.77C48.98,8.17,48.5,7.69,47.9,7.69z"/>
</g>
</svg>
