<?xml version="1.0" encoding="utf-8"?>
<!-- Generator: Adobe Illustrator 23.0.2, SVG Export Plug-In . SVG Version: 6.00 Build 0)  -->
<svg version="1.1" id="Layer_1" xmlns="http://www.w3.org/2000/svg" xmlns:xlink="http://www.w3.org/1999/xlink" x="0px" y="0px"
	 viewBox="0 0 56.69 56.69" style="enable-background:new 0 0 56.69 56.69;" xml:space="preserve">
<style type="text/css">
	.st0{fill:#79863E;}
</style>
<path class="st0" d="M10.04,26.58c-0.84,0-1.35,0.41-1.54,0.76c-0.14,0.28-0.11,0.53,0.08,0.81l18.3,25.7
	c0.28,0.4,0.84,0.64,1.46,0.64s1.17-0.24,1.46-0.64l18.3-25.7c0.19-0.27,0.21-0.53,0.08-0.81c-0.18-0.35-0.7-0.76-1.54-0.76h-5.25
	V6.63c0-2.44-1.98-4.42-4.42-4.42H19.71c-2.44,0-4.42,1.98-4.42,4.42v19.95H10.04z M28.34,56.69c-1.34,0-2.56-0.58-3.26-1.57
	l-18.3-25.7c-0.66-0.94-0.75-2.1-0.24-3.09c0.62-1.2,1.97-1.96,3.5-1.96h3.04V6.63c0-3.66,2.97-6.63,6.63-6.63h17.26
	c3.66,0,6.63,2.97,6.63,6.63v17.74h3.04c1.54,0,2.87,0.75,3.5,1.96c0.52,1.01,0.43,2.17-0.24,3.09l-18.3,25.7
	C30.91,56.11,29.69,56.69,28.34,56.69z"/>
</svg>
