<?xml version="1.0" encoding="utf-8"?>
<!-- Generator: Adobe Illustrator 23.0.2, SVG Export Plug-In . SVG Version: 6.00 Build 0)  -->
<svg version="1.1" id="Layer_1" xmlns="http://www.w3.org/2000/svg" xmlns:xlink="http://www.w3.org/1999/xlink" x="0px" y="0px"
	 viewBox="0 0 56.69 56.69" style="enable-background:new 0 0 56.69 56.69;" xml:space="preserve">
<style type="text/css">
	.st0{fill:#79863E;}
</style>
<path class="st0" d="M19.36,0.45l-2.7,1.86c-1.18,0.81-1.47,2.42-0.66,3.6l15.45,22.43L16,50.77c-0.81,1.18-0.52,2.79,0.66,3.6
	l2.7,1.86c1.18,0.81,2.79,0.52,3.6-0.66l17.74-25.75c0.01-0.01,0.01-0.02,0.01-0.03c0.07-0.1,0.12-0.2,0.18-0.31
	c0.02-0.05,0.05-0.1,0.07-0.15c0.04-0.1,0.06-0.19,0.09-0.28c0.02-0.07,0.04-0.14,0.06-0.2c0.02-0.09,0.02-0.17,0.03-0.25
	c0.01-0.08,0.02-0.16,0.02-0.24c0-0.08-0.01-0.16-0.02-0.24c-0.01-0.09-0.01-0.18-0.03-0.25c-0.01-0.07-0.04-0.14-0.06-0.2
	c-0.03-0.1-0.05-0.2-0.09-0.28c-0.02-0.05-0.05-0.1-0.07-0.15c-0.05-0.11-0.11-0.21-0.18-0.31c-0.01-0.01-0.01-0.02-0.01-0.03
	L22.96,1.14C22.14-0.05,20.53-0.36,19.36,0.45z"/>
</svg>
