<?xml version="1.0" encoding="utf-8"?>
<!-- Generator: Adobe Illustrator 23.0.2, SVG Export Plug-In . SVG Version: 6.00 Build 0)  -->
<svg version="1.1" id="Layer_1" xmlns="http://www.w3.org/2000/svg" xmlns:xlink="http://www.w3.org/1999/xlink" x="0px" y="0px"
	 viewBox="0 0 56.69 56.69" style="enable-background:new 0 0 56.69 56.69;" xml:space="preserve">
<style type="text/css">
	.st0{fill:#79863E;}
</style>
<g>
	<path class="st0" d="M20.19,2.15l-2.61,1.8c-0.34,0.24-0.58,0.59-0.65,1c-0.08,0.41,0.01,0.82,0.25,1.17l15.31,22.23L17.17,50.58
		c-0.24,0.34-0.32,0.76-0.25,1.17c0.08,0.42,0.3,0.76,0.65,1l2.61,1.8c0.34,0.24,0.75,0.32,1.17,0.25c0.41-0.08,0.76-0.3,1-0.65
		l17.16-24.92c0.04-0.07,0.08-0.12,0.1-0.19l0.05-0.09c0.02-0.04,0.03-0.08,0.04-0.12l0.08-0.52l-0.06-0.37
		c-0.03-0.08-0.04-0.13-0.05-0.17c-0.08-0.15-0.1-0.22-0.15-0.27l-0.04-0.07L22.37,2.56C21.87,1.84,20.9,1.66,20.19,2.15z
		 M21.07,56.69c-0.69,0-1.37-0.21-1.94-0.61l-2.61-1.8c-0.76-0.52-1.26-1.3-1.43-2.21c-0.17-0.91,0.03-1.82,0.55-2.58l14.57-21.15
		L15.62,7.19c-0.52-0.75-0.72-1.67-0.55-2.58c0.17-0.91,0.68-1.69,1.43-2.21l2.61-1.8c1.57-1.08,3.72-0.68,4.79,0.89l17.2,24.99
		c0.08,0.11,0.14,0.25,0.2,0.37c0.04,0.08,0.07,0.13,0.09,0.19c0.05,0.11,0.08,0.23,0.11,0.34c0.05,0.15,0.07,0.23,0.08,0.31
		c0.02,0.09,0.03,0.19,0.04,0.29l-0.92,0.21l0.93-0.11c0.01,0.09,0.02,0.18,0.02,0.27c0,0.09-0.01,0.18-0.02,0.27l-0.95,0.03
		l0.94,0.07c-0.01,0.1-0.02,0.2-0.04,0.29c-0.02,0.08-0.04,0.15-0.06,0.23c-0.06,0.19-0.08,0.3-0.13,0.41
		c-0.03,0.07-0.06,0.12-0.08,0.18c-0.07,0.14-0.13,0.26-0.21,0.39l-0.05,0.08L23.93,55.21c-0.52,0.75-1.31,1.26-2.22,1.43
		C21.48,56.67,21.27,56.69,21.07,56.69z"/>
</g>
</svg>
