<?xml version="1.0" encoding="utf-8"?>
<!-- Generator: Adobe Illustrator 23.0.2, SVG Export Plug-In . SVG Version: 6.00 Build 0)  -->
<svg version="1.1" id="Layer_1" xmlns="http://www.w3.org/2000/svg" xmlns:xlink="http://www.w3.org/1999/xlink" x="0px" y="0px"
	 viewBox="0 0 56.69 56.69" style="enable-background:new 0 0 56.69 56.69;" xml:space="preserve">
<style type="text/css">
	.st0{fill:#FFFFFF;}
</style>
<g>
	<path class="st0" d="M21.08,1.89c-0.3,0-0.61,0.08-0.88,0.27l-2.61,1.8c-0.71,0.49-0.89,1.46-0.4,2.17L32.5,28.36L17.19,50.58
		c-0.49,0.71-0.31,1.68,0.4,2.17l2.61,1.8c0.71,0.49,1.68,0.31,2.17-0.4l17.15-24.92c0.05-0.07,0.08-0.13,0.1-0.19l0.05-0.09
		c0.02-0.04,0.03-0.08,0.04-0.13l0.07-0.5l-0.06-0.36c-0.03-0.08-0.04-0.13-0.06-0.18l-0.05-0.09c-0.03-0.06-0.06-0.12-0.09-0.19
		l-0.04-0.07L22.37,2.59C22.06,2.12,21.57,1.89,21.08,1.89z M21.08,56.69c-0.67,0-1.35-0.2-1.95-0.6l-2.61-1.8
		c-1.57-1.08-1.96-3.23-0.89-4.79L30.2,28.35L15.63,7.2c-1.08-1.57-0.68-3.72,0.89-4.79l2.61-1.8c1.57-1.08,3.71-0.68,4.79,0.89
		l17.2,24.99c0.08,0.11,0.14,0.25,0.2,0.37c0.04,0.08,0.07,0.13,0.09,0.19c0.05,0.12,0.08,0.24,0.11,0.36
		c0.04,0.13,0.07,0.21,0.08,0.28c0.02,0.1,0.03,0.2,0.04,0.29l-0.92,0.21l0.93-0.11c0.01,0.09,0.02,0.18,0.02,0.27
		c0,0.09-0.01,0.18-0.02,0.27l-0.95,0.03l0.94,0.07c-0.01,0.09-0.02,0.2-0.04,0.29c-0.02,0.08-0.04,0.16-0.07,0.24
		c-0.05,0.18-0.08,0.29-0.13,0.41l-0.08,0.18c-0.07,0.14-0.13,0.26-0.21,0.39l-0.05,0.08L23.91,55.2
		C23.25,56.16,22.18,56.69,21.08,56.69z"/>
</g>
</svg>
