<?xml version="1.0" encoding="utf-8"?>
<!-- Generator: Adobe Illustrator 23.0.2, SVG Export Plug-In . SVG Version: 6.00 Build 0)  -->
<svg version="1.1" id="Layer_1" xmlns="http://www.w3.org/2000/svg" xmlns:xlink="http://www.w3.org/1999/xlink" x="0px" y="0px"
	 viewBox="0 0 56.69 56.69" style="enable-background:new 0 0 56.69 56.69;" xml:space="preserve">
<style type="text/css">
	.st0{fill:#79863E;}
</style>
<path class="st0" d="M18.72,48.46C18.72,48.46,18.73,48.46,18.72,48.46c0.62,0,1.18-0.24,1.6-0.66l33.96-33.96
	c0.88-0.88,0.88-2.3,0-3.18L52.53,8.9c-0.88-0.88-2.31-0.88-3.18,0L18.72,39.53L7.35,28.17c-0.85-0.85-2.33-0.85-3.18,0l-1.75,1.75
	c-0.88,0.88-0.88,2.31,0,3.18l14.7,14.7C17.55,48.23,18.11,48.46,18.72,48.46z M18.73,50.22c-0.01,0-0.02,0-0.03,0
	c-1.06,0-2.07-0.41-2.83-1.17l-14.7-14.7c-1.57-1.57-1.57-4.11,0-5.67l1.75-1.75c0.76-0.76,1.77-1.18,2.83-1.18
	c1.06,0,2.08,0.41,2.83,1.18l10.12,10.12L48.09,7.65c1.57-1.57,4.11-1.57,5.67,0l1.75,1.75c1.57,1.57,1.57,4.11,0,5.67L21.56,49.04
	C20.81,49.8,19.8,50.22,18.73,50.22z"/>
</svg>
