<?xml version="1.0" encoding="utf-8"?>
<!-- Generator: Adobe Illustrator 23.0.2, SVG Export Plug-In . SVG Version: 6.00 Build 0)  -->
<svg version="1.1" id="Layer_1" xmlns="http://www.w3.org/2000/svg" xmlns:xlink="http://www.w3.org/1999/xlink" x="0px" y="0px"
	 viewBox="0 0 56.69 56.69" style="enable-background:new 0 0 56.69 56.69;" xml:space="preserve">
<style type="text/css">
	.st0{fill:#FFFFFF;}
</style>
<path class="st0" d="M18.57,49.22c0.71-0.02,1.42-0.29,1.95-0.8l34.5-34.5c1.06-1.06,1.06-2.8,0-3.87l-1.78-1.78
	c-1.06-1.06-2.8-1.06-3.87,0l-30.8,30.8L7.35,27.84c-1.04-1.04-2.83-1.04-3.87,0L1.7,29.62c-0.52,0.52-0.8,1.21-0.8,1.93
	c0,0.73,0.29,1.41,0.8,1.93l14.93,14.93C17.15,48.94,17.84,49.22,18.57,49.22z M18.59,50.12c-0.01,0-0.02,0-0.03,0
	c-0.97,0-1.88-0.38-2.56-1.06L1.06,34.12C0.38,33.43,0,32.52,0,31.55c0-0.97,0.38-1.88,1.06-2.57l1.78-1.78
	c0.69-0.69,1.6-1.06,2.56-1.06s1.88,0.38,2.57,1.06L18.56,37.8L48.73,7.64c1.41-1.41,3.72-1.41,5.13,0l1.78,1.78
	c1.41,1.41,1.41,3.72,0,5.13l-34.5,34.5C20.47,49.74,19.55,50.12,18.59,50.12z"/>
</svg>
