<?xml version="1.0" encoding="utf-8"?>
<!-- Generator: Adobe Illustrator 23.0.2, SVG Export Plug-In . SVG Version: 6.00 Build 0)  -->
<svg version="1.1" id="Layer_1" xmlns="http://www.w3.org/2000/svg" xmlns:xlink="http://www.w3.org/1999/xlink" x="0px" y="0px"
	 viewBox="0 0 56.69 56.69" style="enable-background:new 0 0 56.69 56.69;" xml:space="preserve">
<style type="text/css">
	.st0{fill:#79863E;}
</style>
<g>
	<path class="st0" d="M18.56,10.9l27.25,27.25c4.34-7.72,3.03-17.62-3.29-23.94C36.17,7.87,26.28,6.56,18.56,10.9z M46.15,41.18
		L15.52,10.55l0.99-0.64c8.6-5.54,20.09-4.3,27.34,2.94c7.23,7.23,8.47,18.74,2.94,27.34L46.15,41.18z M10.91,18.56
		C6.57,26.28,7.88,36.18,14.2,42.5c6.32,6.33,16.22,7.63,23.94,3.29L10.91,18.56z M28.39,50.23c-5.68,0-11.32-2.17-15.54-6.39
		c-7.23-7.23-8.47-18.74-2.94-27.34l0.64-0.99l30.63,30.63l-0.99,0.64C36.59,49.11,32.48,50.23,28.39,50.23z M28.35,1.9
		c-7.06,0-13.7,2.76-18.7,7.75c-10.31,10.31-10.31,27.09,0,37.4c4.99,4.99,11.63,7.75,18.7,7.75c7.06,0,13.7-2.76,18.7-7.75
		c10.31-10.31,10.31-27.09,0-37.4C42.06,4.66,35.42,1.9,28.35,1.9z M28.35,56.69c-7.58,0-14.69-2.95-20.05-8.3
		C-2.75,37.34-2.75,19.35,8.3,8.3C13.65,2.95,20.77,0,28.35,0c7.58,0,14.69,2.95,20.05,8.3c11.05,11.05,11.05,29.04,0,40.08
		C43.04,53.74,35.92,56.69,28.35,56.69z"/>
</g>
</svg>
