<?xml version="1.0" encoding="utf-8"?>
<!-- Generator: Adobe Illustrator 23.0.2, SVG Export Plug-In . SVG Version: 6.00 Build 0)  -->
<svg version="1.1" id="Layer_1" xmlns="http://www.w3.org/2000/svg" xmlns:xlink="http://www.w3.org/1999/xlink" x="0px" y="0px"
	 viewBox="0 0 56.69 56.69" style="enable-background:new 0 0 56.69 56.69;" xml:space="preserve">
<style type="text/css">
	.st0{fill:#FFFFFF;}
</style>
<g>
	<path class="st0" d="M18.56,10.89l27.26,27.26c4.34-7.73,3.03-17.63-3.29-23.96C36.18,7.86,26.29,6.55,18.56,10.89z M46.17,41.18
		L15.52,10.53l0.99-0.64c8.61-5.54,20.12-4.3,27.35,2.94c7.24,7.24,8.48,18.75,2.94,27.35L46.17,41.18z M10.89,18.55
		c-4.34,7.73-3.03,17.63,3.29,23.96c6.34,6.34,16.23,7.64,23.96,3.29L10.89,18.55z M28.4,50.24c-5.69,0-11.33-2.18-15.55-6.39
		C5.61,36.61,4.37,25.1,9.91,16.5l0.64-0.99L41.2,46.15l-0.99,0.64C36.59,49.12,32.49,50.24,28.4,50.24z M28.35,1.89
		c-6.77,0-13.55,2.58-18.72,7.74c-10.32,10.31-10.32,27.1,0,37.42c10.31,10.31,27.1,10.31,37.42,0c10.32-10.31,10.32-27.1,0-37.42
		C41.9,4.47,35.13,1.89,28.35,1.89z M28.35,56.7c-7.26,0-14.52-2.77-20.06-8.3c-11.06-11.06-11.06-29.05,0-40.11
		c11.06-11.06,29.05-11.06,40.11,0c11.06,11.06,11.06,29.05,0,40.11C42.88,53.93,35.62,56.7,28.35,56.7z"/>
</g>
</svg>
