<?xml version="1.0" encoding="utf-8"?>
<!-- Generator: Adobe Illustrator 23.0.2, SVG Export Plug-In . SVG Version: 6.00 Build 0)  -->
<svg version="1.1" id="Layer_1" xmlns="http://www.w3.org/2000/svg" xmlns:xlink="http://www.w3.org/1999/xlink" x="0px" y="0px"
	 viewBox="0 0 56.69 56.69" style="enable-background:new 0 0 56.69 56.69;" xml:space="preserve">
<style type="text/css">
	.st0{fill:#FFFFFF;}
</style>
<g>
	<path class="st0" d="M51.45,8.19c0.93,0,1.7-0.76,1.7-1.7V3.19c0-0.93-0.76-1.7-1.7-1.7H5.22c-0.93,0-1.7,0.76-1.7,1.7v3.31
		c0,0.93,0.76,1.7,1.7,1.7H51.45z M5.23,0h46.23c1.76,0,3.2,1.43,3.2,3.2V6.5c0,1.76-1.43,3.2-3.2,3.2H5.23
		c-1.76,0-3.2-1.43-3.2-3.2V3.2C2.03,1.43,3.47,0,5.23,0z"/>
	<path class="st0" d="M31.69,45.09V17.19c0-0.93-0.76-1.7-1.7-1.7h-3.31c-0.93,0-1.7,0.76-1.7,1.7v27.91L10.26,34.83
		c-0.77-0.54-1.83-0.35-2.36,0.42l-1.89,2.71c-0.54,0.77-0.34,1.83,0.42,2.36L27.34,54.9c0.2,0.14,0.43,0.23,0.69,0.28
		c0.12,0.02,0.18,0.03,0.29,0.03c0.12,0,0.18-0.01,0.27-0.02c0.3-0.05,0.53-0.14,0.73-0.28l20.91-14.58
		c0.77-0.54,0.95-1.6,0.42-2.36l-1.89-2.71c-0.54-0.77-1.6-0.95-2.36-0.42L31.69,45.09z M26.68,13.98h3.31c1.76,0,3.2,1.43,3.2,3.2
		v25.04l12.37-8.63c1.44-1.01,3.44-0.66,4.45,0.79l1.89,2.71c1.01,1.45,0.66,3.44-0.79,4.45L30.19,56.12
		c-0.39,0.27-0.83,0.44-1.31,0.53l-0.08,0.01c-0.14,0.02-0.3,0.04-0.46,0.04c-0.15,0-0.3-0.02-0.47-0.04
		c-0.54-0.08-0.99-0.27-1.38-0.54L5.58,41.54c-1.44-1.01-1.8-3-0.79-4.45l1.89-2.71c1.01-1.44,3-1.8,4.45-0.79l12.37,8.63V17.18
		C23.49,15.42,24.93,13.98,26.68,13.98z"/>
</g>
</svg>
