<?xml version="1.0" encoding="utf-8"?>
<!-- Generator: Adobe Illustrator 23.0.2, SVG Export Plug-In . SVG Version: 6.00 Build 0)  -->
<svg version="1.1" id="Layer_1" xmlns="http://www.w3.org/2000/svg" xmlns:xlink="http://www.w3.org/1999/xlink" x="0px" y="0px"
	 viewBox="0 0 56.69 56.69" style="enable-background:new 0 0 56.69 56.69;" xml:space="preserve">
<style type="text/css">
	.st0{fill:#FFFFFF;}
</style>
<g>
	<path class="st0" d="M5.19,0H51.5c1.71,0,3.09,1.38,3.09,3.09v2.23c0,1.71-1.38,3.09-3.09,3.09H5.19c-1.71,0-3.09-1.38-3.09-3.09
		V3.09C2.1,1.38,3.48,0,5.19,0z"/>
	<path class="st0" d="M5.42,41.27l21.47,14.98c0.32,0.22,0.67,0.35,1.03,0.41c0.02,0,0.03,0,0.05,0.01
		c0.12,0.02,0.26,0.03,0.38,0.03c0.12,0,0.26-0.01,0.38-0.03c0.02,0,0.03,0,0.05-0.01c0.36-0.06,0.71-0.19,1.03-0.41l21.47-14.98
		c1.14-0.8,1.41-2.36,0.63-3.5l-1.94-2.78c-0.8-1.14-2.36-1.41-3.5-0.63l-13.91,9.7V16.87c0-1.38-1.13-2.51-2.51-2.51h-3.4
		c-1.38,0-2.51,1.13-2.51,2.51v27.19l-13.91-9.7c-1.14-0.8-2.7-0.51-3.5,0.63l-1.94,2.78C3.99,38.91,4.28,40.48,5.42,41.27z"/>
</g>
</svg>
