<?xml version="1.0" encoding="utf-8"?>
<!-- Generator: Adobe Illustrator 23.0.2, SVG Export Plug-In . SVG Version: 6.00 Build 0)  -->
<svg version="1.1" id="Layer_1" xmlns="http://www.w3.org/2000/svg" xmlns:xlink="http://www.w3.org/1999/xlink" x="0px" y="0px"
	 viewBox="0 0 56.69 56.69" style="enable-background:new 0 0 56.69 56.69;" xml:space="preserve">
<style type="text/css">
	.st0{fill:#79863E;}
</style>
<g>
	<path class="st0" d="M6.61,8.88c-2.87,0-5.21,2.33-5.21,5.21v28.53c0,2.87,2.33,5.21,5.21,5.21h43.45c2.87,0,5.21-2.33,5.21-5.21
		V14.08c0-2.87-2.33-5.21-5.21-5.21H6.61z M50.07,49.23H6.62C2.97,49.23,0,46.26,0,42.61V14.08c0-3.65,2.97-6.62,6.62-6.62h43.45
		c3.65,0,6.62,2.97,6.62,6.62v28.53C56.68,46.26,53.72,49.23,50.07,49.23z"/>
	<path class="st0" d="M28.34,32.92c-0.79,0-1.58-0.28-2.18-0.85L2,9.78l0.96-1.04l24.15,22.29c0.69,0.64,1.77,0.64,2.45,0
		L53.71,8.74l0.96,1.04L30.52,32.07C29.91,32.64,29.12,32.92,28.34,32.92z"/>
	
		<rect x="-2.16" y="36.29" transform="matrix(0.7064 -0.7078 0.7078 0.7064 -22.7057 19.257)" class="st0" width="28.05" height="1.42"/>
	
		<rect x="43.83" y="23.15" transform="matrix(0.717 -0.6971 0.6971 0.717 -13.1748 41.5129)" class="st0" width="1.42" height="27.67"/>
</g>
</svg>
