<?xml version="1.0" encoding="utf-8"?>
<!-- Generator: Adobe Illustrator 23.0.2, SVG Export Plug-In . SVG Version: 6.00 Build 0)  -->
<svg version="1.1" id="Layer_1" xmlns="http://www.w3.org/2000/svg" xmlns:xlink="http://www.w3.org/1999/xlink" x="0px" y="0px"
	 viewBox="0 0 56.69 56.69" style="enable-background:new 0 0 56.69 56.69;" xml:space="preserve">
<style type="text/css">
	.st0{fill:#FFFFFF;}
</style>
<g>
	<path class="st0" d="M56.69,15.75c0-2-0.76-3.81-2-5.2L36.85,27.02l18.17,18.72c1.03-1.33,1.65-2.98,1.65-4.79L56.69,15.75
		L56.69,15.75z"/>
	<path class="st0" d="M7.81,7.94c-1.54,0-2.97,0.46-4.19,1.23l23.62,21.82c0.61,0.56,1.57,0.56,2.19,0L53.05,9.17
		c-1.21-0.77-2.64-1.23-4.19-1.23H7.81z"/>
	<path class="st0" d="M2,10.55c-1.24,1.39-2,3.2-2,5.2v25.19c0,1.66,0.53,3.21,1.43,4.48L19.82,27L2,10.55z"/>
	<path class="st0" d="M48.88,48.75c1.74,0,3.34-0.57,4.63-1.54L35.3,28.45l-4.42,4.08c-0.71,0.65-1.62,0.99-2.53,0.99
		c-0.91,0-1.82-0.33-2.53-0.99l-4.42-4.09L2.88,46.98c1.35,1.11,3.07,1.77,4.94,1.77H48.88z"/>
</g>
</svg>
