<?xml version="1.0" encoding="utf-8"?>
<!-- Generator: Adobe Illustrator 23.0.2, SVG Export Plug-In . SVG Version: 6.00 Build 0)  -->
<svg version="1.1" id="Layer_1" xmlns="http://www.w3.org/2000/svg" xmlns:xlink="http://www.w3.org/1999/xlink" x="0px" y="0px"
	 viewBox="0 0 56.69 56.69" style="enable-background:new 0 0 56.69 56.69;" xml:space="preserve">
<style type="text/css">
	.st0{fill:#FFFFFF;}
</style>
<g>
	<path class="st0" d="M40.3,19.22v0.64c0,0.79-0.64,1.43-1.43,1.43h-6.52c-2.31,0-4.18,1.87-4.18,4.18v5.73
		c0,2.31,1.87,4.18,4.18,4.18h6.52c0.79,0,1.43,0.64,1.43,1.43v0.63c0,1.05,0.91,1.7,1.65,1.18l6.4-4.56l4.76-3.39
		c1.61-1.15,1.61-3.55,0-4.69l-4.76-3.39l-6.4-4.56C41.21,17.53,40.3,18.19,40.3,19.22z"/>
	<path class="st0" d="M31.08,0h-20.7H5.59c-1.77,0-3.2,1.43-3.2,3.2v4.79V48.7v4.79c0,1.77,1.43,3.2,3.2,3.2h4.79h20.7h4.79
		c1.77,0,3.2-1.43,3.2-3.2V48.7v-1.43c0-1.77-1.43-3.2-3.2-3.2h-1.59c-1.77,0-3.2,1.43-3.2,3.2c0,0.79-0.64,1.43-1.43,1.43H13.59
		c-1.77,0-3.2-1.43-3.2-3.2V11.2c0-1.77,1.43-3.2,3.2-3.2h16.05c0.79,0,1.43,0.64,1.43,1.43c0,1.77,1.43,3.2,3.2,3.2h1.59
		c1.77,0,3.2-1.43,3.2-3.2V7.99V3.2c0-1.77-1.43-3.2-3.2-3.2H31.08z"/>
</g>
</svg>
