<?xml version="1.0" encoding="utf-8"?>
<!-- Generator: Adobe Illustrator 23.0.2, SVG Export Plug-In . SVG Version: 6.00 Build 0)  -->
<svg version="1.1" id="Layer_1" xmlns="http://www.w3.org/2000/svg" xmlns:xlink="http://www.w3.org/1999/xlink" x="0px" y="0px"
	 viewBox="0 0 56.69 56.69" style="enable-background:new 0 0 56.69 56.69;" xml:space="preserve">
<style type="text/css">
	.st0{fill:#FFFFFF;}
</style>
<g>
	<path class="st0" d="M32.19,22.61c-1.64,0-2.97,1.34-2.97,2.97v5.51c0,1.64,1.34,2.97,2.97,2.97h6.27c1.35,0,2.44,1.09,2.44,2.44
		v0.6c0,0.08,0.01,0.14,0.03,0.18l10.63-7.57c0.46-0.33,0.72-0.84,0.72-1.4c0-0.56-0.26-1.07-0.72-1.39l-10.63-7.57
		c-0.02,0.04-0.03,0.11-0.03,0.18v0.64c0,1.35-1.09,2.44-2.44,2.44H32.19z M40.9,39.48c-0.31,0-0.6-0.07-0.89-0.22
		c-0.75-0.39-1.23-1.22-1.23-2.15v-0.6c0-0.18-0.15-0.32-0.32-0.32h-6.27c-2.81,0-5.09-2.29-5.09-5.09v-5.51
		c0-2.81,2.29-5.09,5.09-5.09h6.27c0.18,0,0.32-0.15,0.32-0.32v-0.6c0-0.93,0.47-1.76,1.23-2.15c0.66-0.34,1.42-0.29,2.03,0.16
		l10.75,7.65c1.02,0.73,1.61,1.86,1.61,3.11c0,1.25-0.58,2.4-1.61,3.13l-10.75,7.65C41.69,39.36,41.3,39.48,40.9,39.48z"/>
	<path class="st0" d="M6.44,2.12c-1.11,0-2.02,0.91-2.02,2.02v48.41c0,1.11,0.91,2.02,2.02,2.02h29.15c1.11,0,2.02-0.91,2.02-2.02
		v-6c0-1.11-0.91-2.02-2.02-2.02h-1.53c-1.11,0-2.02,0.91-2.02,2.02c0,1.35-1.09,2.44-2.44,2.44H14.15c-2.29,0-4.14-1.85-4.14-4.14
		V11.84c0-2.29,1.85-4.14,4.14-4.14H29.6c1.35,0,2.44,1.09,2.44,2.44c0,1.11,0.91,2.02,2.02,2.02h1.53c1.11,0,2.02-0.91,2.02-2.02
		v-6c0-1.11-0.91-2.02-2.02-2.02H6.44V2.12z M35.59,56.69H6.44c-2.29,0-4.14-1.85-4.14-4.14V4.14C2.29,1.85,4.15,0,6.44,0h29.15
		c2.29,0,4.14,1.85,4.14,4.14v6c0,2.29-1.85,4.14-4.14,4.14h-1.53c-2.29,0-4.14-1.85-4.14-4.14c0-0.18-0.15-0.32-0.32-0.32H14.15
		c-1.11,0-2.02,0.91-2.02,2.02v33.01c0,1.11,0.91,2.02,2.02,2.02H29.6c0.18,0,0.32-0.15,0.32-0.32c0-2.29,1.85-4.14,4.14-4.14h1.53
		c2.29,0,4.14,1.85,4.14,4.14v6C39.73,54.83,37.88,56.69,35.59,56.69z"/>
</g>
</svg>
