<?xml version="1.0" encoding="utf-8"?>
<!-- Generator: Adobe Illustrator 23.0.2, SVG Export Plug-In . SVG Version: 6.00 Build 0)  -->
<svg version="1.1" id="Layer_1" xmlns="http://www.w3.org/2000/svg" xmlns:xlink="http://www.w3.org/1999/xlink" x="0px" y="0px"
	 viewBox="0 0 56.69 56.69" style="enable-background:new 0 0 56.69 56.69;" xml:space="preserve">
<style type="text/css">
	.st0{fill-rule:evenodd;clip-rule:evenodd;fill:#FFFFFF;}
</style>
<path class="st0" d="M32.63,17.02v-4.53c0-2.23,1.48-2.73,2.52-2.73h3.67c1.5,0,2.7-1.21,2.7-2.7V2.73c0-1.49-1.2-2.69-2.68-2.7
	L32.75,0C23.03,0,20.8,7.27,20.8,11.89v5.13h-2.92c-1.5,0-2.7,1.21-2.7,2.7v4.15v1.78c0,1.5,1.21,2.7,2.7,2.7h2.96v25.64
	c0,1.5,1.21,2.7,2.7,2.7h5.93c1.5,0,2.7-1.21,2.7-2.7V28.35h5.96c1.39,0,2.56-1.06,2.69-2.45l0.19-2.01l0.36-3.93
	c0.15-1.58-1.1-2.95-2.69-2.95H32.63z"/>
</svg>
