<?xml version="1.0" encoding="utf-8"?>
<!-- Generator: Adobe Illustrator 23.0.2, SVG Export Plug-In . SVG Version: 6.00 Build 0)  -->
<svg version="1.1" id="Layer_1" xmlns="http://www.w3.org/2000/svg" xmlns:xlink="http://www.w3.org/1999/xlink" x="0px" y="0px"
	 viewBox="0 0 56.69 56.69" style="enable-background:new 0 0 56.69 56.69;" xml:space="preserve">
<style type="text/css">
	.st0{fill:#FFFFFF;}
</style>
<g>
	<path class="st0" d="M18.18,18.18c-0.99,0-1.79,0.8-1.79,1.79v5.76c0,0.99,0.8,1.79,1.79,1.79h3.71v25.71
		c0,0.99,0.8,1.79,1.79,1.79h5.75c0.99,0,1.79-0.8,1.79-1.79V27.53h6.62c0.93,0,1.7-0.7,1.78-1.63l0.53-5.76
		c0.05-0.51-0.12-1-0.46-1.37c-0.35-0.37-0.81-0.58-1.33-0.58h-6.72v-5.22c0-2.57,1.77-3.48,3.28-3.48h3.56
		c0.99,0,1.79-0.8,1.79-1.79V3.5c0-0.98-0.8-1.78-1.78-1.79l-5.9-0.03c-9.98,0-10.75,8.2-10.75,10.71v5.81h-3.64V18.18z
		 M29.44,56.69h-5.75c-1.9,0-3.45-1.55-3.45-3.45V29.19h-2.05c-1.9,0-3.45-1.55-3.45-3.45v-5.76c0-1.9,1.55-3.45,3.45-3.45h2.01
		v-4.15C20.2,10.31,20.79,0,32.62,0l5.9,0.03c1.89,0.01,3.43,1.56,3.43,3.45v4.2c0,1.9-1.55,3.45-3.45,3.45h-3.56
		c-1.07,0-1.62,0.61-1.62,1.82v3.57h5.07c0.97,0,1.9,0.41,2.55,1.13c0.66,0.71,0.98,1.68,0.89,2.64l-0.53,5.76
		c-0.17,1.78-1.64,3.13-3.43,3.13h-4.96v24.06C32.89,55.14,31.34,56.69,29.44,56.69z"/>
</g>
</svg>
