<?xml version="1.0" encoding="utf-8"?>
<!-- Generator: Adobe Illustrator 23.0.2, SVG Export Plug-In . SVG Version: 6.00 Build 0)  -->
<svg version="1.1" id="Layer_1" xmlns="http://www.w3.org/2000/svg" xmlns:xlink="http://www.w3.org/1999/xlink" x="0px" y="0px"
	 viewBox="0 0 56.69 56.69" style="enable-background:new 0 0 56.69 56.69;" xml:space="preserve">
<style type="text/css">
	.st0{fill-rule:evenodd;clip-rule:evenodd;fill:#79863E;}
</style>
<g>
	<path class="st0" d="M53.62,22.51c-6.15,0.09-12.34,0-18.52,0c-1.74,0-3.53,0-5.27,0.05c-0.35,0.05-0.96,0.44-0.96,0.66
		c-0.03,3.31-0.05,6.6-0.05,10.07c0,0.45,0.37,0.82,0.82,0.82H42.9c0.53,0,0.92,0.51,0.79,1.03c-0.07,0.25-0.14,0.5-0.22,0.72
		c-2.31,6.88-9.41,10.28-17.04,9.07c-9.46-1.57-15.34-10.33-13.69-19.79c0.27-1.35,0.66-2.61,1.22-3.83
		c3.14-6.88,10.85-11.03,18.52-9.37c2.49,0.55,4.62,1.68,6.53,3.22c0.33,0.27,0.81,0.25,1.11-0.06c2.34-2.38,4.64-4.71,7.08-7.16
		c0.32-0.34,0.3-0.86-0.02-1.18c0,0,0,0-0.01-0.01C40.45,1.08,32.83-0.97,24.2,0.42C11.86,2.47,2.98,12.19,1.02,23.52
		C0.15,28.4,0.54,33.55,2.5,38.52c4.7,12.07,16.82,19.44,29.8,18c6.32-0.69,11.94-2.97,16.38-7.67c6.49-6.93,8.19-15.34,7.15-24.53
		C55.68,22.77,55.06,22.46,53.62,22.51z"/>
</g>
</svg>
