<?xml version="1.0" encoding="utf-8"?>
<!-- Generator: Adobe Illustrator 23.0.2, SVG Export Plug-In . SVG Version: 6.00 Build 0)  -->
<svg version="1.1" id="Layer_1" xmlns="http://www.w3.org/2000/svg" xmlns:xlink="http://www.w3.org/1999/xlink" x="0px" y="0px"
	 viewBox="0 0 56.69 56.69" style="enable-background:new 0 0 56.69 56.69;" xml:space="preserve">
<style type="text/css">
	.st0{fill:#79863E;}
</style>
<path class="st0" d="M29.95,23.42c0,0.01,0,0.01,0,0.02C29.95,23.44,29.95,23.42,29.95,23.42z M29.3,2.21
	c-1.54,0-3.13,0.13-4.76,0.4C13.65,4.42,5.07,12.98,3.18,23.9c-0.83,4.67-0.37,9.45,1.37,13.81C8.86,48.8,20.17,55.64,32.03,54.32
	c6.33-0.7,11.26-3,15.06-7.03c5.49-5.86,7.64-13.29,6.57-22.69c-0.07-0.54-0.17-0.65-0.17-0.65c-0.01-0.01-0.16-0.11-0.83-0.08
	h-0.02c-3.94,0.06-7.97,0.04-11.87,0.02c-1.99-0.01-3.96-0.07-5.97-0.02c-1.61,0-3.25,0-4.86,0.03c-0.03,2.93-0.03,5.83-0.03,8.88
	h12.41c0.6,0,1.14,0.27,1.5,0.74c0.37,0.48,0.48,1.08,0.32,1.64c-0.08,0.28-0.16,0.54-0.24,0.78c-2.33,6.94-9.39,10.73-17.59,9.42
	c-4.58-0.77-8.55-3.22-11.17-6.92c-2.71-3.83-3.74-8.58-2.9-13.39c0.28-1.44,0.69-2.74,1.25-3.96c3.3-7.24,11.31-11.29,19.04-9.62
	c2.36,0.52,4.5,1.55,6.52,3.14c2.11-2.14,4.17-4.24,6.36-6.44C40.61,4.2,35.28,2.21,29.3,2.21z M29.11,56.69
	c-11.67,0-22.35-7.14-26.64-18.17c-1.88-4.75-2.39-9.94-1.49-15.01C3.03,11.67,12.35,2.38,24.17,0.41
	c8.63-1.39,16.35,0.73,22.97,6.32c0.43,0.42,0.63,0.89,0.64,1.39c0.01,0.52-0.18,1.01-0.54,1.39c-2.34,2.35-4.55,4.58-6.8,6.88
	c-0.69,0.7-1.79,0.75-2.55,0.13c-1.82-1.47-3.72-2.41-5.82-2.87c-6.72-1.45-13.68,2.08-16.55,8.38c-0.5,1.07-0.85,2.19-1.1,3.44
	c-0.73,4.2,0.17,8.36,2.53,11.7c2.28,3.21,5.73,5.35,9.71,6.01c7.08,1.13,13.17-2.08,15.14-7.97c0.02-0.07,0.04-0.14,0.08-0.21
	h-12.3c-1.04,0-1.9-0.85-1.9-1.9c0-3.35,0-6.5,0.04-9.69c0-1.04,1.33-1.64,1.9-1.72l0.11-0.01c3.66-0.09,7.38-0.04,11.05-0.02
	c3.89,0.02,7.89,0.03,11.82-0.02c1.45-0.04,2.99,0.24,3.26,2.7c1.14,10.09-1.2,18.09-7.16,24.47c-4.18,4.44-9.56,6.96-16.43,7.71
	C31.21,56.64,30.15,56.69,29.11,56.69z"/>
</svg>
