<?xml version="1.0" encoding="utf-8"?>
<!-- Generator: Adobe Illustrator 23.0.2, SVG Export Plug-In . SVG Version: 6.00 Build 0)  -->
<svg version="1.1" id="Layer_1" xmlns="http://www.w3.org/2000/svg" xmlns:xlink="http://www.w3.org/1999/xlink" x="0px" y="0px"
	 viewBox="0 0 56.69 56.69" style="enable-background:new 0 0 56.69 56.69;" xml:space="preserve">
<style type="text/css">
	.st0{fill:#FFFFFF;}
</style>
<path class="st0" d="M28.35,15.76c-6.94,0-12.57,5.64-12.57,12.57c0,6.94,5.64,12.57,12.57,12.57c6.94,0,12.57-5.64,12.57-12.57
	C40.92,21.4,35.28,15.76,28.35,15.76z M28.35,43.09c-8.14,0-14.76-6.62-14.76-14.76c0-8.14,6.62-14.76,14.76-14.76
	c8.14,0,14.76,6.62,14.76,14.76C43.1,36.47,36.48,43.09,28.35,43.09z M16.85,44.39l0.74,0.48c2.04,1.33,4.29,2.26,6.66,2.76
	l0.86,0.19v6.14c0,0.31,0.25,0.55,0.55,0.55h5.35c0.31,0,0.55-0.25,0.55-0.55v-6.14l0.86-0.19c2.37-0.5,4.62-1.43,6.66-2.76
	l0.74-0.48l4.34,4.34c0.22,0.22,0.57,0.21,0.78,0l3.78-3.78c0.22-0.22,0.22-0.56,0-0.78l-4.34-4.34l0.48-0.74
	c1.33-2.04,2.26-4.29,2.76-6.66l0.19-0.86h6.14c0.31,0,0.55-0.25,0.55-0.55v-5.35c0-0.31-0.25-0.55-0.55-0.55h-6.14l-0.19-0.86
	c-0.5-2.37-1.43-4.62-2.76-6.66l-0.48-0.74l4.34-4.34c0.14-0.14,0.16-0.31,0.16-0.39c0-0.09-0.02-0.25-0.16-0.38l-3.78-3.79
	c-0.22-0.22-0.57-0.22-0.78,0l-4.34,4.34l-0.74-0.48c-2.05-1.33-4.29-2.26-6.66-2.76l-0.86-0.19V2.72c0-0.31-0.25-0.55-0.55-0.55
	h-5.35c-0.31,0-0.55,0.25-0.55,0.55v6.14l-0.86,0.19c-2.37,0.5-4.62,1.43-6.66,2.76l-0.74,0.48l-4.34-4.34
	c-0.14-0.14-0.31-0.16-0.39-0.16c-0.09,0-0.25,0.02-0.39,0.16l-3.78,3.78c-0.14,0.14-0.16,0.31-0.16,0.38
	c0,0.09,0.02,0.25,0.16,0.39l4.34,4.34l-0.48,0.74c-1.33,2.04-2.26,4.29-2.76,6.66l-0.19,0.86H2.72c-0.31,0-0.55,0.25-0.55,0.55
	v5.35c0,0.31,0.25,0.55,0.55,0.55h6.14l0.19,0.86c0.5,2.37,1.43,4.62,2.76,6.66l0.48,0.74l-4.34,4.34
	c-0.14,0.14-0.16,0.31-0.16,0.39s0.02,0.25,0.16,0.39l3.78,3.78c0.14,0.14,0.31,0.16,0.39,0.16c0.09,0,0.25-0.02,0.38-0.16
	L16.85,44.39z M31.02,56.69h-5.35c-1.51,0-2.73-1.22-2.73-2.73v-4.38c-2.03-0.51-3.98-1.32-5.78-2.4l-3.1,3.1
	c-1.03,1.04-2.83,1.04-3.87,0L6.41,46.5c-0.51-0.51-0.8-1.2-0.8-1.93s0.28-1.42,0.8-1.93l3.1-3.1c-1.08-1.81-1.88-3.75-2.4-5.78
	H2.73C1.22,33.75,0,32.53,0,31.02v-5.35c0-1.51,1.22-2.73,2.73-2.73h4.38c0.51-2.03,1.32-3.98,2.4-5.78l-3.1-3.1
	c-0.51-0.51-0.8-1.2-0.8-1.93c0-0.73,0.28-1.42,0.8-1.93l3.78-3.78c1.04-1.04,2.83-1.04,3.87,0l3.1,3.1
	c1.81-1.08,3.75-1.89,5.78-2.4V2.73c0-1.51,1.22-2.73,2.73-2.73h5.35c1.51,0,2.73,1.22,2.73,2.73v4.38c2.03,0.51,3.98,1.32,5.78,2.4
	l3.1-3.1c1.07-1.07,2.8-1.07,3.87,0l3.78,3.78c0.51,0.51,0.8,1.2,0.8,1.93c0,0.73-0.28,1.42-0.8,1.93l-3.1,3.1
	c1.08,1.81,1.89,3.75,2.4,5.78h4.38c1.51,0,2.73,1.22,2.73,2.73v5.35c0,1.51-1.22,2.73-2.73,2.73h-4.38
	c-0.51,2.03-1.32,3.98-2.4,5.78l3.1,3.1c1.07,1.07,1.07,2.8,0,3.87l-3.78,3.78c-1.07,1.07-2.8,1.07-3.87,0l-3.1-3.1
	c-1.81,1.08-3.75,1.88-5.78,2.4v4.38C33.76,55.47,32.53,56.69,31.02,56.69z"/>
</svg>
