<?xml version="1.0" encoding="utf-8"?>
<!-- Generator: Adobe Illustrator 23.0.2, SVG Export Plug-In . SVG Version: 6.00 Build 0)  -->
<svg version="1.1" id="Layer_1" xmlns="http://www.w3.org/2000/svg" xmlns:xlink="http://www.w3.org/1999/xlink" x="0px" y="0px"
	 viewBox="0 0 56.69 56.69" style="enable-background:new 0 0 56.69 56.69;" xml:space="preserve">
<style type="text/css">
	.st0{fill:#79863E;}
</style>
<path class="st0" d="M28.34,42.57c-7.85,0-14.21-6.36-14.21-14.21s6.36-14.21,14.21-14.21c7.85,0,14.21,6.36,14.21,14.21
	S36.19,42.57,28.34,42.57z M54.99,23.86h-5.46c-0.56-2.65-1.6-5.12-3.03-7.32l3.86-3.86c0.67-0.67,0.67-1.75,0-2.42l-3.93-3.93
	c-0.67-0.67-1.75-0.67-2.42,0l-3.86,3.86c-2.19-1.43-4.67-2.48-7.32-3.03V1.7c0-0.94-0.76-1.7-1.7-1.7h-5.57
	c-0.94,0-1.7,0.76-1.7,1.7v5.46c-2.65,0.56-5.12,1.6-7.32,3.03l-3.86-3.86c-0.67-0.67-1.75-0.67-2.41,0l-3.93,3.93
	c-0.67,0.67-0.67,1.75,0,2.42l3.86,3.86c-1.43,2.19-2.48,4.67-3.03,7.32H1.7c-0.94,0-1.7,0.76-1.7,1.7v5.57c0,0.94,0.76,1.7,1.7,1.7
	h5.46c0.56,2.65,1.6,5.12,3.03,7.32l-3.86,3.86c-0.67,0.67-0.67,1.75,0,2.42l3.93,3.93c0.67,0.67,1.75,0.67,2.41,0l3.86-3.86
	c2.19,1.43,4.67,2.48,7.32,3.03V55c0,0.94,0.76,1.7,1.7,1.7h5.57c0.94,0,1.7-0.76,1.7-1.7v-5.46c2.65-0.56,5.12-1.6,7.32-3.03
	L44,50.36c0.67,0.67,1.75,0.67,2.42,0l3.93-3.93c0.67-0.67,0.67-1.75,0-2.42l-3.86-3.86c1.43-2.19,2.48-4.67,3.03-7.32h5.46
	c0.94,0,1.7-0.76,1.7-1.7v-5.57C56.7,24.63,55.93,23.86,54.99,23.86z"/>
</svg>
