<?xml version="1.0" encoding="utf-8"?>
<!-- Generator: Adobe Illustrator 23.0.2, SVG Export Plug-In . SVG Version: 6.00 Build 0)  -->
<svg version="1.1" id="Layer_1" xmlns="http://www.w3.org/2000/svg" xmlns:xlink="http://www.w3.org/1999/xlink" x="0px" y="0px"
	 viewBox="0 0 56.69 56.69" style="enable-background:new 0 0 56.69 56.69;" xml:space="preserve">
<style type="text/css">
	.st0{fill:#FFFFFF;}
</style>
<g>
	<path class="st0" d="M9.55,15.35c-1.52,0-2.76,1.24-2.76,2.76c0,1.52,1.24,2.76,2.76,2.76c1.52,0,2.76-1.24,2.76-2.76
		C12.31,16.59,11.07,15.35,9.55,15.35z M9.55,22.3c-2.31,0-4.18-1.87-4.18-4.18c0-2.31,1.88-4.18,4.18-4.18
		c2.3,0,4.18,1.88,4.18,4.18C13.73,20.42,11.85,22.3,9.55,22.3z M49.78,44.84c0.46,0,0.91,0.12,1.32,0.36
		c0.68,0.4,1.13,1.05,1.27,1.79c0.96-0.39,1.76-1.08,2.28-1.99c1.29-2.23,0.52-5.09-1.71-6.38L28.63,24.58
		c-0.33-0.19-0.71-0.35-1.1-0.45l-0.58-0.16l0.06-0.59c0.04-0.43,0.06-0.86,0.06-1.28c0-7.07-5.76-12.83-12.83-12.83
		c-7.07,0-12.83,5.76-12.83,12.83s5.76,12.83,12.83,12.83c2.96,0,5.75-0.98,8.04-2.84l0.47-0.38l0.45,0.4
		c0.23,0.21,0.49,0.39,0.77,0.55l0.3,0.17c0.35-0.42,0.81-0.71,1.35-0.86c0.68-0.18,1.4-0.09,2.01,0.26c1.13,0.65,1.6,2.02,1.16,3.2
		l0.32,0.18c0.79-0.41,1.74-0.39,2.53,0.06c0.79,0.46,1.27,1.27,1.32,2.15l0.39,0.23l0.42-0.72c0.73-1.26,2.35-1.7,3.61-0.97
		c1.26,0.73,1.7,2.35,0.97,3.61l-0.42,0.72l0.39,0.23c0.81-0.97,2.22-1.24,3.35-0.59c1.13,0.65,1.6,2.02,1.16,3.2l0.35,0.2
		l0.42-0.72c0.35-0.61,0.92-1.05,1.61-1.23c0.68-0.18,1.39-0.09,2.01,0.26c0.61,0.35,1.05,0.92,1.23,1.61
		c0.14,0.53,0.12,1.08-0.07,1.59c0.23-0.14,0.48-0.25,0.74-0.33C49.32,44.87,49.55,44.84,49.78,44.84z M50.7,48.85l0.26-1.08
		c0.13-0.53-0.1-1.08-0.57-1.35c-0.28-0.16-0.61-0.21-0.93-0.12c-0.32,0.08-0.58,0.29-0.74,0.57l-0.75,1.3l-2.17-1.25l1.13-1.95
		c0.16-0.28,0.21-0.61,0.12-0.93c-0.08-0.32-0.29-0.58-0.57-0.74c-0.28-0.16-0.61-0.21-0.93-0.12c-0.32,0.09-0.58,0.29-0.74,0.57
		l-1.13,1.95l-2.77-1.6l0.48-0.83c0.34-0.59,0.14-1.34-0.45-1.68c-0.59-0.34-1.34-0.14-1.68,0.45l-0.48,0.83l-2.81-1.62l1.13-1.95
		c0.34-0.59,0.14-1.34-0.45-1.68c-0.59-0.34-1.34-0.14-1.68,0.45l-1.13,1.95l-2.4-1.39l0.07-0.47c0.07-0.5-0.17-0.98-0.6-1.23
		c-0.43-0.25-0.97-0.21-1.37,0.09l-0.38,0.29l-2.3-1.33l0.48-0.83c0.34-0.59,0.14-1.34-0.45-1.68c-0.28-0.16-0.61-0.21-0.93-0.12
		c-0.32,0.08-0.58,0.29-0.74,0.57l-0.48,0.83l-1.5-0.86c-0.18-0.11-0.36-0.22-0.53-0.35c-2.44,1.81-5.44,2.8-8.48,2.8
		C6.4,36.35,0,29.95,0,22.1S6.4,7.85,14.25,7.85c7.85,0,14.25,6.39,14.25,14.25c0,0.28-0.01,0.56-0.03,0.85
		c0.31,0.11,0.6,0.25,0.87,0.41l24.31,14.04c2.91,1.68,3.91,5.41,2.23,8.31c-0.88,1.52-2.37,2.58-4.1,2.92L50.7,48.85z"/>
</g>
</svg>
