<?xml version="1.0" encoding="utf-8"?>
<!-- Generator: Adobe Illustrator 23.0.2, SVG Export Plug-In . SVG Version: 6.00 Build 0)  -->
<svg version="1.1" id="Layer_1" xmlns="http://www.w3.org/2000/svg" xmlns:xlink="http://www.w3.org/1999/xlink" x="0px" y="0px"
	 viewBox="0 0 56.69 56.69" style="enable-background:new 0 0 56.69 56.69;" xml:space="preserve">
<style type="text/css">
	.st0{fill:#FFFFFF;}
</style>
<g>
	<path class="st0" d="M9.07,21.53c-1.97,0-3.56-1.59-3.56-3.56s1.59-3.56,3.56-3.56c1.97,0,3.56,1.59,3.56,3.56
		S11.04,21.53,9.07,21.53z M53.94,38.37L29,23.98c-0.42-0.25-0.86-0.42-1.3-0.53c0.04-0.45,0.07-0.91,0.07-1.38
		c0-7.67-6.22-13.89-13.89-13.89C6.22,8.18,0,14.4,0,22.06c0,7.67,6.22,13.89,13.89,13.89c3.3,0,6.32-1.15,8.71-3.07
		c0.28,0.25,0.57,0.46,0.9,0.65l0.9,0.52l0.13-0.23c0.54-0.95,1.76-1.27,2.71-0.73c0.95,0.54,1.27,1.76,0.73,2.71l-0.13,0.23
		l1.3,0.75c0.61-0.48,1.49-0.56,2.2-0.15c0.72,0.42,1.08,1.21,0.97,1.99l1.41,0.81l0.79-1.37c0.54-0.95,1.76-1.27,2.71-0.73
		c0.95,0.54,1.27,1.76,0.73,2.71l-0.79,1.37l1.63,0.94l0.13-0.23c0.54-0.95,1.76-1.27,2.71-0.73c0.95,0.54,1.27,1.76,0.73,2.71
		l-0.13,0.23l1.59,0.91l0.79-1.37c0.54-0.95,1.76-1.27,2.71-0.73c0.95,0.54,1.27,1.76,0.73,2.71l-0.79,1.37l0.96,0.55l0.4-0.7
		c0.54-0.95,1.76-1.27,2.71-0.73c0.78,0.45,1.13,1.35,0.93,2.18c1.51-0.3,2.88-1.21,3.71-2.64C57.47,43.27,56.57,39.9,53.94,38.37z"
		/>
</g>
</svg>
