<?xml version="1.0" encoding="utf-8"?>
<!-- Generator: Adobe Illustrator 23.0.2, SVG Export Plug-In . SVG Version: 6.00 Build 0)  -->
<svg version="1.1" id="Layer_1" xmlns="http://www.w3.org/2000/svg" xmlns:xlink="http://www.w3.org/1999/xlink" x="0px" y="0px"
	 viewBox="0 0 56.69 56.69" style="enable-background:new 0 0 56.69 56.69;" xml:space="preserve">
<style type="text/css">
	.st0{fill-rule:evenodd;clip-rule:evenodd;fill:#79863E;}
</style>
<path class="st0" d="M46.88,31.37c-5.75,5.35-14.74,5.02-20.09-0.72c-5.35-5.75-5.02-14.74,0.72-20.09
	c5.75-5.35,14.74-5.02,20.09,0.72C52.95,17.02,52.63,26.02,46.88,31.37z M51.47,7.67C44.13-0.21,31.79-0.66,23.9,6.69
	c-6.81,6.34-8.05,16.42-3.54,24.12l-0.02-0.02L0.67,49.09c-0.85,0.79-0.9,2.13-0.11,2.98l2.32,2.49c0.79,0.85,2.13,0.9,2.98,0.11
	l19.55-18.2c7.42,5.64,18.01,5.31,25.07-1.24C58.36,27.9,58.8,15.56,51.47,7.67z"/>
</svg>
