<?xml version="1.0" encoding="utf-8"?>
<!-- Generator: Adobe Illustrator 23.0.2, SVG Export Plug-In . SVG Version: 6.00 Build 0)  -->
<svg version="1.1" id="Layer_1" xmlns="http://www.w3.org/2000/svg" xmlns:xlink="http://www.w3.org/1999/xlink" x="0px" y="0px"
	 viewBox="0 0 56.69 56.69" style="enable-background:new 0 0 56.69 56.69;" xml:space="preserve">
<style type="text/css">
	.st0{fill:#FFFFFF;}
</style>
<g>
	<path class="st0" d="M36.84,8.79c-3.04,0-6.09,1.11-8.49,3.34c-5.03,4.69-5.32,12.59-0.63,17.63s12.59,5.32,17.63,0.63
		c5.03-4.69,5.32-12.59,0.63-17.63C43.51,10.13,40.18,8.79,36.84,8.79z M36.84,36.05c-3.97,0-7.93-1.59-10.84-4.71
		c-5.56-5.97-5.23-15.36,0.75-20.93s15.36-5.23,20.93,0.75s5.23,15.36-0.75,20.93C44.07,34.74,40.46,36.05,36.84,36.05z
		 M25.47,34.61l0.78,0.59c6.8,5.18,16.28,4.71,22.54-1.12c7.08-6.59,7.48-17.71,0.89-24.79c-6.59-7.08-17.71-7.48-24.79-0.89
		c-5.96,5.55-7.29,14.68-3.17,21.7L25.47,34.61z M20.64,32.32L2.62,49.09c-0.16,0.15-0.27,0.36-0.27,0.59
		c-0.01,0.23,0.07,0.44,0.23,0.61l2.23,2.39c0.15,0.16,0.36,0.27,0.59,0.27s0.44-0.07,0.61-0.23L24.08,35.9L20.64,32.32z
		 M25.89,37.81c-0.08-0.06-0.16-0.12-0.26-0.16L7.59,54.45c-0.59,0.55-1.36,0.85-2.17,0.85c-0.03,0-0.08,0-0.12,0
		c-0.85-0.04-1.63-0.39-2.22-1.02l-2.23-2.39C0.27,51.27-0.03,50.46,0,49.6c0.03-0.85,0.38-1.63,1.01-2.22l18.21-16.95
		c-4.08-7.83-2.44-17.66,4.07-23.73c8.03-7.47,20.61-7.01,28.08,1c7.47,8.03,7.01,20.61-1,28.08c-6.61,6.16-16.39,7.03-23.94,2.37
		L25.89,37.81z"/>
</g>
</svg>
