<?xml version="1.0" encoding="utf-8"?>
<!-- Generator: Adobe Illustrator 23.0.2, SVG Export Plug-In . SVG Version: 6.00 Build 0)  -->
<svg version="1.1" id="Layer_1" xmlns="http://www.w3.org/2000/svg" xmlns:xlink="http://www.w3.org/1999/xlink" x="0px" y="0px"
	 viewBox="0 0 56.69 56.69" style="enable-background:new 0 0 56.69 56.69;" xml:space="preserve">
<style type="text/css">
	.st0{fill:#FFFFFF;}
</style>
<g>
	<path class="st0" d="M5.24,48.49c-0.93,0-1.7,0.76-1.7,1.7v3.3c0,0.93,0.76,1.7,1.7,1.7h46.22c0.93,0,1.7-0.76,1.7-1.7v-3.3
		c0-0.93-0.76-1.7-1.7-1.7H5.24z M51.46,56.69H5.24c-1.76,0-3.19-1.43-3.19-3.19v-3.3c0-1.76,1.43-3.2,3.19-3.2h46.22
		c1.76,0,3.19,1.43,3.19,3.2v3.3C54.65,55.25,53.22,56.69,51.46,56.69z"/>
	<path class="st0" d="M25,11.61v27.9c0,0.93,0.76,1.7,1.7,1.7h3.31c0.93,0,1.7-0.76,1.7-1.7v-27.9l14.72,10.27
		c0.77,0.54,1.83,0.35,2.36-0.42l1.89-2.71c0.54-0.77,0.35-1.83-0.42-2.36L29.35,1.8c-0.2-0.14-0.43-0.23-0.69-0.28
		c-0.12-0.02-0.2-0.03-0.29-0.03c-0.1,0-0.18,0.01-0.27,0.02c-0.3,0.05-0.53,0.14-0.73,0.28L6.47,16.37
		c-0.77,0.54-0.95,1.6-0.42,2.36l1.89,2.71c0.26,0.37,0.65,0.62,1.09,0.7c0.44,0.07,0.9-0.02,1.26-0.28L25,11.61z M30,42.7h-3.31
		c-1.76,0-3.19-1.43-3.19-3.19V14.48L11.14,23.1c-1.45,1.01-3.44,0.66-4.45-0.79L4.79,19.6c-1.01-1.45-0.66-3.44,0.79-4.45
		l20.9-14.58c0.39-0.27,0.83-0.44,1.31-0.53l0.08-0.01C28.02,0.02,28.19,0,28.35,0c0.17,0,0.31,0.02,0.47,0.04
		c0.54,0.08,0.99,0.26,1.38,0.54l20.9,14.58c1.44,1.01,1.8,3,0.79,4.45L50,22.31c-1.01,1.44-3,1.8-4.45,0.79l-12.36-8.62v25.03
		C33.19,41.27,31.76,42.7,30,42.7z"/>
</g>
</svg>
