<?xml version="1.0" encoding="utf-8"?>
<!-- Generator: Adobe Illustrator 23.0.2, SVG Export Plug-In . SVG Version: 6.00 Build 0)  -->
<svg version="1.1" id="Layer_1" xmlns="http://www.w3.org/2000/svg" xmlns:xlink="http://www.w3.org/1999/xlink" x="0px" y="0px"
	 viewBox="0 0 56.69 56.69" style="enable-background:new 0 0 56.69 56.69;" xml:space="preserve">
<style type="text/css">
	.st0{fill:#79863E;}
</style>
<g>
	<path class="st0" d="M51.5,56.69H5.19c-1.71,0-3.09-1.38-3.09-3.09v-2.23c0-1.71,1.38-3.09,3.09-3.09H51.5
		c1.71,0,3.09,1.38,3.09,3.09v2.23C54.6,55.31,53.21,56.69,51.5,56.69z"/>
	<path class="st0" d="M51.28,15.42L29.8,0.45c-0.32-0.22-0.67-0.35-1.03-0.41c-0.02,0-0.03,0-0.05-0.01C28.6,0.01,28.47,0,28.34,0
		s-0.26,0.01-0.38,0.03c-0.02,0-0.03,0-0.05,0.01c-0.36,0.06-0.71,0.19-1.03,0.41L5.41,15.42c-1.14,0.8-1.41,2.36-0.63,3.5
		l1.94,2.78c0.8,1.14,2.36,1.41,3.5,0.63l13.91-9.7v27.19c0,1.38,1.13,2.51,2.51,2.51h3.4c1.38,0,2.51-1.13,2.51-2.51V12.63
		l13.91,9.7c1.14,0.8,2.7,0.51,3.5-0.63l1.94-2.78C52.7,17.78,52.42,16.22,51.28,15.42z"/>
</g>
</svg>
