<?xml version="1.0" encoding="utf-8"?>
<!-- Generator: Adobe Illustrator 23.0.2, SVG Export Plug-In . SVG Version: 6.00 Build 0)  -->
<svg version="1.1" id="Layer_1" xmlns="http://www.w3.org/2000/svg" xmlns:xlink="http://www.w3.org/1999/xlink" x="0px" y="0px"
	 viewBox="0 0 56.69 56.69" style="enable-background:new 0 0 56.69 56.69;" xml:space="preserve">
<style type="text/css">
	.st0{fill:#FFFFFF;}
</style>
<g>
	<path class="st0" d="M28.43,22.07c6.1,0,11.04-4.94,11.04-11.04C39.47,4.94,34.52,0,28.43,0S17.39,4.94,17.39,11.04
		C17.39,17.13,22.33,22.07,28.43,22.07z"/>
	<path class="st0" d="M49.36,28.09c0-1.64-1.33-2.96-2.96-2.96h-7.01H17.31h-7.01c-1.64,0-2.96,1.33-2.96,2.96v2.32
		c0,1.64,1.33,2.96,2.96,2.96h4.05c1.64,0,2.96,1.33,2.96,2.96v17.4c0,1.64,1.33,2.96,2.96,2.96h16.14c1.64,0,2.96-1.33,2.96-2.96
		v-17.4c0-1.64,1.33-2.96,2.96-2.96h4.05c1.64,0,2.96-1.33,2.96-2.96v-2.32H49.36z"/>
</g>
</svg>
