<?xml version="1.0" encoding="utf-8"?>
<!-- Generator: Adobe Illustrator 23.0.2, SVG Export Plug-In . SVG Version: 6.00 Build 0)  -->
<svg version="1.1" id="Layer_1" xmlns="http://www.w3.org/2000/svg" xmlns:xlink="http://www.w3.org/1999/xlink" x="0px" y="0px"
	 viewBox="0 0 56.69 56.69" style="enable-background:new 0 0 56.69 56.69;" xml:space="preserve">
<style type="text/css">
	.st0{fill:#79863E;}
</style>
<g>
	<path class="st0" d="M28.43,1.99c-5.32,0-9.65,4.33-9.65,9.65c0,5.32,4.33,9.65,9.65,9.65c5.32,0,9.65-4.33,9.65-9.65
		C38.08,6.32,33.75,1.99,28.43,1.99z M28.43,23.28c-6.42,0-11.64-5.22-11.64-11.64S22.01,0,28.43,0c6.42,0,11.64,5.22,11.64,11.64
		S34.84,23.28,28.43,23.28z"/>
	<path class="st0" d="M10.92,26.23c-1.02,0-1.86,0.84-1.86,1.86v2.24c0,1.03,0.84,1.86,1.86,1.86h3.91c2.13,0,3.85,1.73,3.85,3.85
		v16.79c0,1.03,0.84,1.86,1.86,1.86h15.57c1.02,0,1.86-0.84,1.86-1.86V36.04c0-2.13,1.73-3.85,3.85-3.85h3.91
		c1.02,0,1.86-0.84,1.86-1.86v-2.24c0-1.02-0.84-1.86-1.86-1.86H10.92z M36.13,56.69H20.56c-2.13,0-3.85-1.73-3.85-3.85V36.06
		c0-1.03-0.84-1.86-1.86-1.86h-3.91c-2.13,0-3.85-1.73-3.85-3.85v-2.24c0-2.13,1.73-3.85,3.85-3.85h34.83
		c2.13,0,3.85,1.73,3.85,3.85v2.24c0,2.13-1.73,3.85-3.85,3.85h-3.91c-1.02,0-1.86,0.84-1.86,1.86v16.79
		C39.98,54.96,38.26,56.69,36.13,56.69z"/>
</g>
</svg>
