<?xml version="1.0" encoding="utf-8"?>
<!-- Generator: Adobe Illustrator 23.0.2, SVG Export Plug-In . SVG Version: 6.00 Build 0)  -->
<svg version="1.1" id="Layer_1" xmlns="http://www.w3.org/2000/svg" xmlns:xlink="http://www.w3.org/1999/xlink" x="0px" y="0px"
	 viewBox="0 0 56.69 56.69" style="enable-background:new 0 0 56.69 56.69;" xml:space="preserve">
<style type="text/css">
	.st0{fill:#79863E;}
</style>
<g>
	<path class="st0" d="M28.33,33.68l20.39,20.38c0.27,0.27,0.74,0.27,1.02,0l4.34-4.34c0.13-0.13,0.21-0.31,0.21-0.51
		c0-0.19-0.07-0.38-0.21-0.51L33.68,28.33L54.07,7.93c0.13-0.13,0.21-0.31,0.21-0.51s-0.07-0.37-0.21-0.51l-4.34-4.34
		c-0.27-0.27-0.74-0.27-1.02,0L28.33,22.96L7.94,2.58c-0.27-0.27-0.74-0.27-1.02,0L2.58,6.92C2.3,7.2,2.3,7.66,2.58,7.93
		l20.39,20.39L2.58,48.7c-0.28,0.28-0.28,0.74,0,1.02l4.34,4.34c0.27,0.27,0.74,0.27,1.02,0L28.33,33.68z M49.22,56.69
		c-0.83,0-1.62-0.33-2.21-0.92L28.34,37.1L9.66,55.77c-1.18,1.19-3.25,1.19-4.42,0L0.9,51.44c-1.22-1.22-1.22-3.2,0-4.44
		l18.67-18.67L0.9,9.65c-1.22-1.22-1.22-3.2,0-4.42l4.34-4.34c1.18-1.18,3.25-1.18,4.42,0l18.67,18.67L47.01,0.89
		c1.18-1.18,3.24-1.18,4.44,0l4.34,4.34c0.59,0.59,0.92,1.38,0.92,2.21c0,0.83-0.33,1.62-0.92,2.21L37.11,28.33L55.79,47
		c0.59,0.59,0.92,1.38,0.92,2.21c0,0.83-0.33,1.62-0.92,2.21l-4.34,4.34C50.84,56.37,50.06,56.69,49.22,56.69z"/>
</g>
</svg>
