<?xml version="1.0" encoding="utf-8"?>
<!-- Generator: Adobe Illustrator 23.0.2, SVG Export Plug-In . SVG Version: 6.00 Build 0)  -->
<svg version="1.1" id="Layer_1" xmlns="http://www.w3.org/2000/svg" xmlns:xlink="http://www.w3.org/1999/xlink" x="0px" y="0px"
	 viewBox="0 0 56.69 56.69" style="enable-background:new 0 0 56.69 56.69;" xml:space="preserve">
<style type="text/css">
	.st0{fill:#79863E;}
</style>
<g>
	<path class="st0" d="M56.1,48.73L35.71,28.35L56.1,7.96c0.78-0.78,0.78-2.06,0-2.84l-4.53-4.53c-0.78-0.78-2.06-0.78-2.84,0
		L28.34,20.98L7.95,0.59c-0.78-0.78-2.06-0.78-2.84,0L0.59,5.12c-0.78,0.78-0.78,2.06,0,2.84l20.39,20.39L0.59,48.73
		c-0.78,0.78-0.78,2.06,0,2.84l4.53,4.53c0.78,0.78,2.06,0.78,2.84,0l20.39-20.39L48.73,56.1c0.78,0.78,2.06,0.78,2.84,0l4.53-4.53
		C56.89,50.79,56.89,49.53,56.1,48.73z"/>
</g>
</svg>
