<?xml version="1.0" encoding="utf-8"?>
<!-- Generator: Adobe Illustrator 23.0.2, SVG Export Plug-In . SVG Version: 6.00 Build 0)  -->
<svg version="1.1" id="Layer_1" xmlns="http://www.w3.org/2000/svg" xmlns:xlink="http://www.w3.org/1999/xlink" x="0px" y="0px"
	 viewBox="0 0 56.69 56.69" style="enable-background:new 0 0 56.69 56.69;" xml:space="preserve">
<style type="text/css">
	.st0{fill:#FFFFFF;}
</style>
<g>
	<path class="st0" d="M56.11,48.74L35.72,28.35L56.11,7.96c0.78-0.78,0.78-2.06,0-2.84l-4.53-4.53c-0.78-0.78-2.06-0.78-2.84,0
		L28.35,20.98L7.96,0.59C7.17-0.2,5.9-0.2,5.12,0.59L0.59,5.12c-0.78,0.78-0.78,2.06,0,2.84l20.39,20.39L0.59,48.74
		c-0.78,0.78-0.78,2.06,0,2.84l4.53,4.53c0.78,0.78,2.06,0.78,2.84,0l20.39-20.39l20.39,20.39c0.78,0.78,2.06,0.78,2.84,0l4.53-4.53
		C56.89,50.79,56.89,49.53,56.11,48.74z"/>
</g>
</svg>
