<?xml version="1.0" encoding="utf-8"?>
<!-- Generator: Adobe Illustrator 23.0.2, SVG Export Plug-In . SVG Version: 6.00 Build 0)  -->
<svg version="1.1" id="Layer_1" xmlns="http://www.w3.org/2000/svg" xmlns:xlink="http://www.w3.org/1999/xlink" x="0px" y="0px"
	 viewBox="0 0 56.69 56.69" style="enable-background:new 0 0 56.69 56.69;" xml:space="preserve">
<style type="text/css">
	.st0{fill:#FFFFFF;}
</style>
<g>
	<path class="st0" d="M28.33,33.7l20.38,20.38c0.27,0.27,0.74,0.27,1.01,0l4.34-4.34c0.28-0.28,0.28-0.74,0-1.02L33.69,28.36
		L54.07,7.98c0.28-0.28,0.28-0.74,0-1.01l-4.34-4.34c-0.28-0.28-0.74-0.28-1.01,0L28.33,23L7.97,2.62c-0.28-0.28-0.74-0.28-1.01,0
		L2.61,6.96c-0.28,0.28-0.28,0.74,0,1.01l20.38,20.38L2.61,48.72c-0.28,0.28-0.28,0.74,0,1.01l4.34,4.34c0.27,0.27,0.74,0.27,1.01,0
		L28.33,33.7z M49.22,56.69c-0.83,0-1.62-0.33-2.21-0.92L28.35,37.11L9.68,55.77c-1.18,1.18-3.25,1.18-4.43,0l-4.34-4.34
		c-1.22-1.22-1.22-3.2,0-4.43l18.66-18.67L0.91,9.67c-1.22-1.22-1.22-3.2,0-4.42l4.34-4.34c1.22-1.22,3.2-1.22,4.43,0l18.66,18.66
		L47.01,0.92c1.22-1.22,3.21-1.22,4.43,0l4.34,4.34c1.22,1.22,1.22,3.2,0,4.42L37.12,28.34L55.78,47c1.22,1.22,1.22,3.2,0,4.43
		l-4.34,4.34C50.84,56.37,50.06,56.69,49.22,56.69z"/>
</g>
</svg>
