<?xml version="1.0" encoding="utf-8"?>
<!-- Generator: Adobe Illustrator 23.0.2, SVG Export Plug-In . SVG Version: 6.00 Build 0)  -->
<svg version="1.1" id="Layer_1" xmlns="http://www.w3.org/2000/svg" xmlns:xlink="http://www.w3.org/1999/xlink" x="0px" y="0px"
	 viewBox="0 0 500 500" style="enable-background:new 0 0 500 500;" xml:space="preserve">
<style type="text/css">
	.st0{fill:#79863E;}
</style>
<g>
	<g>
		<g>
			<g>
				<path class="st0" d="M255.2,457.8l-4.5-13.2c-2-5.8-3.3-11.9-4-17.9c-0.9-8.4-0.1-13.5,0.8-19.5c0.7-4.2,1.4-9,1.7-15.9
					c0.5-10.8-0.4-21.5-2.5-32c-1.3-6.6-2.9-11.9-4.5-16.7c-1.1,3.7-2.2,7.6-3.1,12.3c-2.1,10.4-2.9,21.4-2.5,32
					c0.3,7,1.1,11.8,1.7,15.9c0.9,5.9,1.7,11,0.8,19.5c-0.7,6.1-2,12.1-4,17.9l-4.5,13.2l-3-13.6c-0.8-3.6-2.1-9.1-3.8-15.7
					c-3.7-14.2-6.3-21-8.4-26.4c-1.8-4.6-3.1-8.2-4.3-14.3c-1.1-5.3-5.6-33.3,7.3-59.4c1.4-2.9,2.5-4.6,3.7-6.6c1.3-2.1,2.7-4.4,5-9
					c-5.6-6.9-13-11.3-27.4-19.8c-5.5-3.3-10-5.6-13.6-7.5c-8.7-4.6-13.5-7.1-14.8-13.4c-1.9-9.1,5.8-19.1,13.9-23.8
					c7.4-4.2,16.9-5.1,26.8-2.5c11.9,3.2,22.6,11,27.9,20.4c1.3,2.4,1.7,3.7,2.1,5.8c0.1,0.5,0.2,0.9,0.3,1.6c0.8-3.1,1.1-4.8,1.4-6
					c0.4-2.2,0.7-3.5,2.1-5.8c5.3-9.4,16.1-17.2,27.9-20.4c9.9-2.7,19.4-1.8,26.8,2.5l0,0c8.2,4.7,15.8,14.7,13.9,23.8
					c-1.3,6.4-6.1,8.9-14.8,13.4c-3.6,1.9-8.1,4.2-13.6,7.5c-14.9,8.8-22.4,13.1-28,20.5c-0.7,0.9-1.4,1.9-2,2.9
					c0.7,1.5,1.3,2.7,1.9,3.9c2.7,5.5,4.4,8.2,5.8,10.5c1.2,2,2.3,3.7,3.7,6.6c12.9,26.3,8.4,54.1,7.3,59.4
					c-1.2,6.1-2.6,9.7-4.3,14.3c-2.1,5.4-4.6,12.1-8.4,26.4c-1.7,6.6-3,12.1-3.8,15.7L255.2,457.8z M242.1,318.6l5.8,16.6
					c2.1,6.2,4.6,13.2,6.4,22.6c2.2,11.1,3.1,22.5,2.6,33.9c-0.3,7.4-1.1,12.4-1.8,16.9c-0.9,5.8-1.6,10-0.8,17.4c0,0.1,0,0.2,0,0.3
					c3.8-14.3,6.5-21.5,8.5-26.8c1.7-4.4,2.9-7.6,4-13.1c0.6-3,5.4-29.9-6.6-54.5c-1.3-2.6-2.3-4.2-3.3-6c-1.5-2.5-3.3-5.2-6.2-11.2
					c-0.8-1.7-1.8-3.7-2.8-5.9l-0.9-1.9l1-1.7c1.1-1.9,2.3-3.7,3.6-5.4c6.6-8.6,14.5-13.2,30.2-22.5c5.6-3.3,10.3-5.8,13.9-7.7
					c7.8-4.1,10.3-5.5,10.8-8.1c1.1-5.1-4.4-12.1-10.2-15.5c-5.5-3.3-12.9-3.8-20.8-1.7c-9.8,2.7-18.9,9.2-23.2,16.7
					c-0.8,1.4-0.9,1.7-1.1,3.4c-0.4,2.1-1.1,5.7-3.6,13.5c-0.5,1.6-1,3.1-1.5,4.4l-4.4,12.5l-4-12.5c-2.5-7.9-3.2-11.4-3.6-13.5
					c-0.3-1.7-0.4-2.1-1.2-3.4c-4.2-7.5-13.4-14.1-23.2-16.7c-7.9-2.1-15.3-1.5-20.8,1.7c-5.8,3.3-11.2,10.4-10.2,15.5
					c0.5,2.6,3.1,4,10.8,8.1c3.7,1.9,8.3,4.4,13.9,7.7c15.7,9.3,23.7,13.9,30.2,22.5l1.9,2.8l-0.7,2.5c-3.3,6.5-5,9.4-6.4,11.8
					c-1.1,1.8-2.1,3.4-3.3,6c-11.8,24-7.6,49.6-6.6,54.5c1.1,5.4,2.3,8.6,4,13c2,5.2,4.8,12.5,8.5,26.8c0-0.1,0-0.2,0-0.3
					c0.8-7.4,0.1-11.6-0.8-17.4c-0.7-4.4-1.5-9.4-1.8-16.9c-0.5-11.2,0.5-22.9,2.6-33.9c1.9-9.4,4.2-16.1,6.4-22.6L242.1,318.6z"/>
			</g>
		</g>
	</g>
	<g>
		<g>
			<g>
				<g>
					<path class="st0" d="M242.1,295.1l-4-12.5c-2.5-7.9-3.2-11.4-3.6-13.5c-0.3-1.7-0.4-2.1-1.2-3.4l0,0c-0.9-1.6-2.1-3.2-3.5-4.7
						l-5.2-5.9l7.9-0.6c5.4-0.4,10.5-0.7,15.5-0.3l8.8,0.5l-3.5,5.6l-3.4-0.8v0.2l2.8,1.6c-0.8,1.3-0.9,1.7-1.1,3.4
						c-0.4,2.1-1.1,5.7-3.6,13.6c-0.5,1.6-1,3.1-1.5,4.4L242.1,295.1z M240.1,261.7c1.3,2.4,1.7,3.7,2.1,5.8
						c0.1,0.5,0.2,0.9,0.3,1.6c0.8-3.1,1.1-4.8,1.4-6c0.1-0.5,0.2-0.9,0.3-1.4C242.8,261.7,241.4,261.7,240.1,261.7L240.1,261.7
						L240.1,261.7z"/>
				</g>
			</g>
		</g>
		<g>
			<g>
				<g>
					<path class="st0" d="M348.2,500H137.8c-18.1,0-32.8-14.7-32.8-32.8v-75.3c0-43.9,21.2-85.6,56.8-111.5
						c10.3-7.5,24.2-8.4,35.3-2.3c2.1,1.1,4.2,2.4,6.7,3.8c15.7,9.3,23.6,13.9,30.2,22.5l1.9,2.8l-0.7,2.5c-3.3,6.5-5,9.4-6.4,11.8
						c-1.1,1.8-2.1,3.4-3.3,6c-11.8,24-7.6,49.6-6.6,54.5c1.1,5.4,2.3,8.6,4,13c2,5.2,4.8,12.5,8.5,26.8c0-0.1,0-0.2,0-0.3
						c0.8-7.4,0.1-11.6-0.8-17.4c-0.7-4.4-1.5-9.4-1.8-16.9c-0.5-11.2,0.5-22.9,2.6-33.9c1.9-9.4,4.2-16.1,6.4-22.6l4.2-12.1
						l5.8,16.6c2.1,6.2,4.6,13.2,6.4,22.6c2.2,11.1,3.1,22.5,2.6,33.9c-0.3,7.4-1.1,12.4-1.8,16.9c-0.9,5.8-1.6,10-0.8,17.4
						c0,0.1,0,0.2,0,0.3c3.8-14.3,6.5-21.5,8.5-26.8c1.7-4.4,2.9-7.6,4-13.1c0.6-3,5.4-29.9-6.6-54.5c-1.3-2.6-2.3-4.2-3.3-6
						c-1.5-2.5-3.3-5.2-6.2-11.2c-0.8-1.7-1.8-3.7-2.8-5.9l-0.8-1.8l1-1.7c1.1-1.9,2.3-3.7,3.6-5.4c6.6-8.6,14.5-13.2,30.2-22.5
						l2.2-1.3c11.2-6.4,24.6-5.9,35.3,1.2l0,0c38.4,25.7,61.3,68.5,61.3,114.6v75.3C380.9,485.3,366.2,500,348.2,500z M181.3,281.8
						c-5.2,0-10.5,1.6-14.9,4.8c-33.6,24.4-53.6,63.8-53.6,105.2v75.3c0,13.8,11.2,25,25,25h210.3c13.8,0,25-11.2,25-25v-75.3
						c0-43.4-21.6-83.8-57.8-108.1c-8.2-5.5-18.5-5.9-26.8-1.1l-2.4,1.4c-14.9,8.8-22.4,13.2-28,20.5c-0.7,0.9-1.4,1.9-2,2.9
						c0.7,1.5,1.3,2.7,1.9,3.9c2.7,5.5,4.4,8.2,5.8,10.5c1.2,2,2.3,3.7,3.7,6.6c12.9,26.3,8.4,54.1,7.3,59.4
						c-1.2,6.1-2.6,9.7-4.3,14.3c-2.1,5.4-4.6,12.1-8.4,26.4c-1.7,6.6-3,12.1-3.8,15.7l-3,13.6l-4.5-13.2c-2-5.8-3.3-11.9-4-17.9
						c-0.9-8.4-0.1-13.5,0.8-19.5c0.7-4.2,1.4-9,1.7-15.9c0.5-10.8-0.4-21.5-2.5-32c-1.3-6.6-2.9-11.9-4.5-16.7
						c-1.1,3.7-2.2,7.6-3.1,12.3c-2.1,10.4-2.9,21.4-2.5,32c0.3,7,1.1,11.8,1.7,15.9c0.9,5.9,1.7,11,0.8,19.5
						c-0.7,6.1-2,12.1-4,17.9l-4.5,13.2l-3-13.6c-0.8-3.6-2.1-9.1-3.8-15.7c-3.7-14.2-6.3-21-8.4-26.4c-1.8-4.6-3.1-8.2-4.3-14.3
						c-1.1-5.3-5.6-33.3,7.3-59.4c1.4-2.9,2.5-4.6,3.7-6.6c1.3-2.1,2.7-4.4,5-9c-5.6-6.9-13-11.3-27.4-19.8
						c-2.3-1.4-4.5-2.6-6.5-3.7C189.6,282.8,185.5,281.8,181.3,281.8z"/>
				</g>
			</g>
		</g>
	</g>
	<g>
		<path class="st0" d="M250,117.7c-6,0-148.4-0.3-148.4-22c0-3.4,0-12.2,59.4-18.1c3.5-12.1,6.6-20,9.2-23.6
			c2.8-4,10.6-10.5,15.7-12.4c3.5-1.3,7.9-1.9,12.7-2.4c6.4-0.7,13.7-1.6,18.7-4.6c2.1-1.3,2.6-3.5,3.3-7.1
			c1.3-6.7,3-15.9,21.5-17.9c7.4-0.8,14.5-2.9,21.3-5c16-4.8,31.1-9.2,43.5,6.2c13.9,17.2,18.9,53.5,20.2,65.9
			c71.3,5.7,71.3,15.9,71.3,19.2C398.4,117.4,256.1,117.7,250,117.7z M163.7,83.8c-41.1,4-54.2,9.6-55.4,12
			c3.1,5.9,55.3,15.2,141.7,15.2s138.7-9.3,141.7-15.7c-1.1-1.7-15.5-8.5-68-12.5l-2.8-0.2l-0.3-2.8c-0.5-4.8-4.7-47.3-19.1-65.1
			c-9.7-11.9-20.9-8.6-36.4-4c-7.1,2.1-14.5,4.3-22.5,5.2c-13.6,1.5-14.5,6.4-15.7,12.5c-0.8,4-1.7,8.6-6.3,11.5
			c-6.2,3.9-14.3,4.8-21.5,5.6c-4.3,0.5-8.4,0.9-11,2c-3.5,1.3-10.3,6.8-12.6,10.1c-2.2,3.1-5.4,11.7-8.8,23.8l-0.7,2.4L163.7,83.8
			L163.7,83.8z"/>
	</g>
	<g>
		<path class="st0" d="M240.1,236c-47.8,0-86.6-38.8-86.6-86.6c0-12.2,2.6-24.2,7.6-35.4l0.9-2.1l2.3,0.2c45.5,3.7,106,3.6,151.4,0
			l2.3-0.2l0.9,2.1c5,11.3,7.6,23.2,7.6,35.4C326.7,197.2,287.8,236,240.1,236z M166.2,118.9c-4,9.8-6.1,20-6.1,30.6
			c0,44.1,35.9,80,80,80s80-35.9,80-80c0-10.6-2.1-20.8-6.1-30.6C269.2,122.3,210.9,122.3,166.2,118.9z"/>
	</g>
</g>
</svg>
