<?xml version="1.0" encoding="utf-8"?>
<!-- Generator: Adobe Illustrator 23.0.2, SVG Export Plug-In . SVG Version: 6.00 Build 0)  -->
<svg version="1.1" id="Layer_1" xmlns="http://www.w3.org/2000/svg" xmlns:xlink="http://www.w3.org/1999/xlink" x="0px" y="0px"
	 viewBox="0 0 500 500" style="enable-background:new 0 0 500 500;" xml:space="preserve">
<style type="text/css">
	.st0{fill:#79863E;}
</style>
<g>
	<g>
		<g>
			<g>
				<path class="st0" d="M315.2,153.9h-50.1c-9.2,0-16.6-7.4-16.6-16.6V46.5c0-9.2,7.4-16.6,16.6-16.6h50.1
					c9.2,0,16.6,7.4,16.6,16.6v90.8C331.8,146.5,324.4,153.9,315.2,153.9z"/>
			</g>
		</g>
	</g>
	<g>
		<g>
			<g>
				<rect x="88.2" y="321.9" class="st0" width="331.9" height="23.9"/>
			</g>
		</g>
	</g>
	<g>
		<g>
			<g>
				<rect x="88.2" y="374.4" class="st0" width="331.9" height="23.9"/>
			</g>
		</g>
	</g>
	<g>
		<g>
			<g>
				<rect x="88.2" y="431.8" class="st0" width="331.9" height="23.9"/>
			</g>
		</g>
	</g>
	<g>
		<g>
			<g>
				<path class="st0" d="M490.1,61.2L425,6.8c-5.2-4.4-11.7-6.7-18.4-6.7h-64c12.5,0,22.6,10.2,22.6,22.6v163.8
					c0,12.5-10.2,22.6-22.6,22.6H100.3c-12.5,0-22.6-10.2-22.6-22.6V22.6c0-12.5,10.2-22.6,22.6-22.6H29.1C13,0.1,0,13.1,0,29.1
					v442.2c0,15.8,12.8,28.6,28.6,28.6h435.6c19.7,0,35.8-16,35.8-35.8v-382C499.9,74,496.3,66.4,490.1,61.2z M447.1,499.9H48.5
					V303.8c0-22.3,18-40.3,40.3-40.3H407c22.2,0,40.3,18,40.3,40.3v196.2H447.1z"/>
			</g>
		</g>
	</g>
</g>
</svg>
