<?xml version="1.0" encoding="utf-8"?>
<!-- Generator: Adobe Illustrator 23.0.2, SVG Export Plug-In . SVG Version: 6.00 Build 0)  -->
<svg version="1.1" id="Layer_1" xmlns="http://www.w3.org/2000/svg" xmlns:xlink="http://www.w3.org/1999/xlink" x="0px" y="0px"
	 viewBox="0 0 500 500" style="enable-background:new 0 0 500 500;" xml:space="preserve">
<style type="text/css">
	.st0{fill:#78863F;}
</style>
<g>
	<g>
		<g>
			<g>
				<g>
					<path class="st0" d="M314.4,500h-232c-25.9,0-47-21.1-47-47V98.4c0-25.9,21.1-47,47-47h120l158.9,158.9V453
						C361.4,478.9,340.3,500,314.4,500z M82.5,71c-15.1,0-27.4,12.3-27.4,27.4V453c0,15.1,12.3,27.4,27.4,27.4h232
						c15.1,0,27.4-12.3,27.4-27.4V218.4L194.5,71L82.5,71L82.5,71z"/>
				</g>
			</g>
		</g>
		<g>
			<g>
				<g>
					<path class="st0" d="M347.1,224.2H202.2c-7.5,0-13.5-6.1-13.5-13.5V66.3c0-4.8,2.9-9.1,7.3-11c4.5-1.8,9.5-0.8,12.9,2.6
						l146.4,146.4c3.3,3.4,4.3,8.3,2.5,12.7S351.8,224.2,347.1,224.2z M208.2,204.7H328L208.2,84.9V204.7z"/>
				</g>
			</g>
		</g>
	</g>
	<g>
		<g>
			<path class="st0" d="M427.8,66.8h-30.2V36.6c0-4.6-3.8-8.5-8.5-8.5h-3c-4.6,0-8.5,3.8-8.5,8.5v30.2h-30.2c-4.6,0-8.5,3.8-8.5,8.5
				v3c0,4.6,3.8,8.5,8.5,8.5h30.2v30.2c0,4.6,3.8,8.5,8.5,8.5h3c4.6,0,8.5-3.8,8.5-8.5V86.7h30.2c4.6,0,8.5-3.8,8.5-8.5v-3
				C436.4,70.6,432.6,66.8,427.8,66.8z"/>
		</g>
		<g>
			<path class="st0" d="M387.7,153.6c-42.4,0-76.8-34.5-76.8-76.8S345.4,0,387.7,0s76.8,34.5,76.8,76.8S430,153.6,387.7,153.6z
				 M387.7,16.5c-33.2,0-60.2,27-60.2,60.2s27,60.2,60.2,60.2s60.2-27,60.2-60.2S420.9,16.5,387.7,16.5z"/>
		</g>
	</g>
</g>
</svg>
