<?xml version="1.0" encoding="utf-8"?>
<!-- Generator: Adobe Illustrator 23.0.2, SVG Export Plug-In . SVG Version: 6.00 Build 0)  -->
<svg version="1.1" id="Layer_1" xmlns="http://www.w3.org/2000/svg" xmlns:xlink="http://www.w3.org/1999/xlink" x="0px" y="0px"
	 viewBox="0 0 500 500" style="enable-background:new 0 0 500 500;" xml:space="preserve">
<style type="text/css">
	.st0{fill:#7B863D;}
	.st1{fill:#79863E;}
</style>
<g>
	<g>
		<g>
			<path class="st0" d="M447.7,458.9H52.3C23.5,458.9,0,435.4,0,406.5V83.3C0,60,19,41.1,42.2,41.1h118.4c9.9,0,19.2,3.4,26.5,9.4
				c0,0,7,5.8,8.2,9c0.8,2.1,30.6,54,30.6,54h221.7c28.9,0,52.3,23.5,52.3,52.3v240.8C500,435.5,476.6,458.9,447.7,458.9z
				 M42.2,62.9c-11.3,0-20.4,9.2-20.4,20.4v323.3c0,16.8,13.7,30.5,30.5,30.5h395.4c16.8,0,30.5-13.7,30.5-30.5V165.9
				c0-16.8-13.7-30.5-30.5-30.5H213.4l-23.5-41.4l-10.5-18.7c-3.2-7.4-10.6-12.2-18.7-12.2L42.2,62.9L42.2,62.9z"/>
		</g>
	</g>
</g>
<g>
	<g>
		<path class="st1" d="M197.1,393.1c-3.4,0-6.8-1.3-9.4-3.9l-52.2-52.2c-5.2-5.2-5.2-13.7,0-18.9l121.6-121.6
			c5.2-5.2,13.7-5.2,18.9,0l52.2,52.2c5.2,5.2,5.2,13.7,0,18.9L206.5,389.2C203.9,391.8,200.5,393.1,197.1,393.1z M195.9,381.1
			c0.7,0.7,1.8,0.7,2.5,0L320,259.5c0.7-0.7,0.7-1.8,0-2.5l-52.2-52.2c-0.7-0.7-1.8-0.7-2.5,0L143.7,326.4c-0.7,0.7-0.7,1.8,0,2.5
			L195.9,381.1z"/>
	</g>
</g>
<g>
	<g>
		<path class="st1" d="M114.1,415.8c-1.8,0-3.5-0.7-4.8-2c-1.7-1.7-2.3-4.1-1.7-6.4l20.6-79.5c0.6-2.3,2.4-4.2,4.8-4.8
			c2.3-0.6,4.8,0,6.6,1.8l60.5,60.5c1.8,1.8,2.4,4.3,1.8,6.6c-0.6,2.3-2.6,4.2-4.9,4.7l-81.1,19.1
			C115.1,415.8,114.7,415.8,114.1,415.8z M137.3,338.8l-16.5,63.7l64.9-15.3L137.3,338.8z M131.3,332.9L131.3,332.9L131.3,332.9z"/>
	</g>
</g>
<g>
	<g>
		<path class="st1" d="M329.4,262.3L329.4,262.3c-2.7,0-5.2-1-7.1-3l-56.9-56.9c-3.9-3.9-3.9-10.3,0-14.2l19.4-19.4
			c8-8,21.2-8,29.2,0l41.9,41.9c8,8,8,21.2,0,29.2l-19.4,19.4C334.6,261.1,332.1,262.3,329.4,262.3z M330.6,251.2L330.6,251.2
			L330.6,251.2z M274.7,195.3l54.8,54.8l18.3-18.3c3.5-3.5,3.5-9.3,0-12.9L305.9,177c-3.5-3.5-9.2-3.5-12.9,0L274.7,195.3z"/>
	</g>
</g>
</svg>
