<?xml version="1.0" encoding="utf-8"?>
<!-- Generator: Adobe Illustrator 23.0.2, SVG Export Plug-In . SVG Version: 6.00 Build 0)  -->
<svg version="1.1" id="Layer_1" xmlns="http://www.w3.org/2000/svg" xmlns:xlink="http://www.w3.org/1999/xlink" x="0px" y="0px"
	 viewBox="0 0 500 500" style="enable-background:new 0 0 500 500;" xml:space="preserve">
<style type="text/css">
	.st0{fill:#79863E;}
</style>
<g>
	<g>
		<path class="st0" d="M361,500H138.7c-28.4,0-51.6-23.2-51.6-51.6V251.4h325.3v197.1C412.6,476.8,389.4,500,361,500z M104.6,268.7
			v179.7c0,18.9,15.3,34.1,34.2,34.1H361c18.9,0,34.1-15.3,34.1-34.1V268.7H104.6z"/>
	</g>
	<g>
		<path class="st0" d="M420.6,244.1H79.3c-12.2,0-22.9-6.9-27.7-18.1s-2.7-23.7,5.6-32.7L227.8,9.7C233.5,3.5,241.6,0,250,0
			c8.4,0,16.4,3.5,22.2,9.7l170.7,183.6c8.3,8.9,10.5,21.5,5.6,32.7C443.4,237.1,432.7,244.1,420.6,244.1z M249.9,17.3
			c-3.6,0-7,1.5-9.4,4.1L69.8,205c-3.6,3.9-4.5,9.1-2.4,13.9c2.1,4.9,6.6,7.7,11.8,7.7h341.3c5.3,0,9.7-2.9,11.8-7.7
			c2.1-4.9,1.3-10-2.4-13.9L259.3,21.5C256.9,18.7,253.5,17.3,249.9,17.3z"/>
	</g>
</g>
</svg>
