<?xml version="1.0" encoding="utf-8"?>
<!-- Generator: Adobe Illustrator 23.0.2, SVG Export Plug-In . SVG Version: 6.00 Build 0)  -->
<svg version="1.1" id="Layer_1" xmlns="http://www.w3.org/2000/svg" xmlns:xlink="http://www.w3.org/1999/xlink" x="0px" y="0px"
	 viewBox="0 0 500 500" style="enable-background:new 0 0 500 500;" xml:space="preserve">
<style type="text/css">
	.st0{fill:#79863E;}
</style>
<g>
	<g>
		<g>
			<path class="st0" d="M67.2,498c-11,0-21.3-4.2-29.1-12l-26.2-26.2c-16.2-16.2-15.9-43.1,0.8-59.9l253.5-256.3l-119.6-20.1
				c-11-1.7-20.6-7.8-27-17c-6.4-9.3-8.8-20.6-6.5-32l7.4-37.4c4.5-22.7,26.5-38.4,49.2-34.7l247.7,40.6c6.1,1,11.9,3.4,17.2,7.2
				l1.1,0.8c1.2,0.8,2.9,2.3,4.4,3.9c1.3,1.2,2.7,2.9,4,4.6c4.2,5.9,6.7,11.8,7.6,17.9l47.7,246.4c3.6,22.7-12,44.7-34.7,49.2
				l-37.4,7.4c-11.3,2.3-22.7-0.1-32-6.5c-9.2-6.4-15.1-16.1-17-27.1l-26.1-119L97.9,485.1c-8.1,8.1-18.7,12.6-29.8,12.8
				C67.8,498,67.4,498,67.2,498z M163.1,30.7c-6.8,0-13.2,5.2-14.7,12.2L141,80.4c-0.7,3.6,0,7.2,2.1,10.1c1.9,2.8,4.8,4.6,8.2,5.1
				l173.9,29.2L32.9,420.2c-5.7,5.7-6.1,14.4-0.8,19.5l26.2,26.2c5.1,5.1,13.9,4.7,19.5-0.8l291.3-294.5l37.4,171.1
				c0.7,4.2,2.5,7.2,5.2,9.1c2.9,2.1,6.4,2.7,10.1,1.9l37.4-7.4c7.6-1.6,13.1-9.1,12-16.6L423.5,82.6c-0.4-2.3-1.1-4-2.3-5.7
				c-0.5-0.7-0.8-1.2-1.3-1.6c-0.7-0.7-1.2-1.1-1.7-1.5c-1.8-1.3-3.6-2.1-5.5-2.3L165,31C164.4,30.7,163.7,30.7,163.1,30.7z"/>
		</g>
	</g>
</g>
</svg>
