<?xml version="1.0" encoding="utf-8"?>
<!-- Generator: Adobe Illustrator 23.0.2, SVG Export Plug-In . SVG Version: 6.00 Build 0)  -->
<svg version="1.1" id="Layer_1" xmlns="http://www.w3.org/2000/svg" xmlns:xlink="http://www.w3.org/1999/xlink" x="0px" y="0px"
	 viewBox="0 0 500 500" style="enable-background:new 0 0 500 500;" xml:space="preserve">
<style type="text/css">
	.st0{fill:#798640;}
</style>
<g>
	<path class="st0" d="M71,122.6c17.7,0,32.1-14.4,32.1-32.1S88.7,58.4,71,58.4S38.9,72.7,38.9,90.5S53.3,122.6,71,122.6z M71,74.3
		c9,0,16.2,7.2,16.2,16.2S80,106.7,71,106.7s-16.2-7.2-16.2-16.2S62,74.3,71,74.3z"/>
	<path class="st0" d="M228.4,58.3c0-26.6-21.6-48.2-48.1-48.2H48.5C22,10.1,0.4,31.8,0.4,58.3v131.8c0,26.5,21.6,48.1,48.1,48.1
		h131.9c26.5,0,48.1-21.6,48-48.1v-17.8l0.4-0.2l-0.4-0.7V58.3z M48.5,30.2h131.8c15.4,0,28.1,12.6,28.1,28.1v78.1l-32.6-56.9
		L107,168.8l-61.4-48.3l-25.2,21.1V58.2C20.4,42.8,33.1,30.2,48.5,30.2z M180.3,218.1H48.5c-15.4,0-28.1-12.6-28.1-28.1v-27.5
		l25.5-21.4l63.9,50.1l63.9-83.2l34.5,60.3V190C208.4,205.5,195.7,218.1,180.3,218.1z"/>
	<g>
		<path class="st0" d="M342.6,122.6c17.7,0,32.1-14.4,32.1-32.1s-14.3-32.2-32.1-32.2s-32.1,14.4-32.1,32.1S324.9,122.6,342.6,122.6
			z M342.6,74.3c9,0,16.2,7.2,16.2,16.2s-7.2,16.2-16.2,16.2s-16.2-7.3-16.2-16.2C326.4,81.5,333.7,74.3,342.6,74.3z"/>
		<path class="st0" d="M320.1,238.2H452c26.5,0,48.1-21.6,48-48.1v-17.8l0.4-0.2l-0.4-0.7v-113c0-26.6-21.6-48.2-48.1-48.2H320.1
			c-26.5,0-48.1,21.7-48.1,48.2v131.8C272,216.6,293.6,238.2,320.1,238.2z M451.9,218.1H320.1c-15.4,0-28.1-12.6-28.1-28.1v-27.5
			l25.5-21.4l63.9,50.1l64-83.2l34.5,60.3V190C480,205.5,467.4,218.1,451.9,218.1z M320.1,30.2h131.8c15.4,0,28.1,12.6,28.1,28.1
			v78.1l-32.6-57l-68.8,89.4l-61.4-48.3L292,141.6V58.2C292.1,42.8,304.7,30.2,320.1,30.2z"/>
	</g>
	<path class="st0" d="M228.4,424.3v-113c0-26.6-21.6-48.2-48.1-48.2H48.5c-26.5,0-48.1,21.7-48.1,48.2v131.8
		c0,26.5,21.6,48.1,48.1,48.1h131.9c26.5,0,48.1-21.6,48-48.1v-17.8l0.4-0.2L228.4,424.3z M48.5,283.2h131.8
		c15.4,0,28.1,12.6,28.1,28.1v78.1l-32.6-56.9L107,421.8l-61.4-48.3l-25.2,21.1v-83.4C20.4,295.8,33.1,283.2,48.5,283.2z
		 M180.3,471.1H48.5c-15.4,0-28.1-12.6-28.1-28.1v-27.5l25.5-21.4l63.9,50.2l63.9-83.3l34.5,60.3V443
		C208.4,458.5,195.7,471.1,180.3,471.1z"/>
	<path class="st0" d="M71,375.7c17.7,0,32.1-14.5,32.1-32.1c0-17.7-14.4-32.1-32.1-32.1s-32.1,14.4-32.1,32.1S53.3,375.7,71,375.7z
		 M71,327.2c9,0,16.2,7.2,16.2,16.2S80,359.6,71,359.6s-16.2-7.2-16.2-16.2C54.8,334.5,62,327.2,71,327.2z"/>
	<path class="st0" d="M500.4,425l-0.4-0.7v-113c0-26.6-21.6-48.2-48.1-48.2H320.1c-26.5,0-48.1,21.7-48.1,48.2v131.8
		c0,26.5,21.6,48.1,48.1,48.1H452c26.5,0,48.1-21.6,48-48.1v-17.8L500.4,425z M320.1,283.2h131.8c15.4,0,28.1,12.6,28.1,28.1v78.1
		l-32.6-56.9l-68.8,89.4l-61.4-48.3l-25.2,21v-83.4C292,295.8,304.6,283.2,320.1,283.2z M451.9,471.1H320.1
		c-15.4,0-28.1-12.6-28.1-28.1v-27.5l25.5-21.4l63.9,50.2l63.9-83.3l34.5,60.3V443C479.9,458.5,467.3,471.1,451.9,471.1z"/>
	<path class="st0" d="M342.6,375.7c17.7,0,32.1-14.5,32.1-32.1c0-17.7-14.4-32.1-32.1-32.1s-32.1,14.4-32.1,32.1
		S324.8,375.7,342.6,375.7z M342.6,327.2c9,0,16.2,7.2,16.2,16.2s-7.2,16.2-16.2,16.2s-16.2-7.2-16.2-16.2
		C326.4,334.5,333.6,327.2,342.6,327.2z"/>
</g>
</svg>
