<?xml version="1.0" encoding="utf-8"?>
<!-- Generator: Adobe Illustrator 23.0.2, SVG Export Plug-In . SVG Version: 6.00 Build 0)  -->
<svg version="1.1" id="Layer_1" xmlns="http://www.w3.org/2000/svg" xmlns:xlink="http://www.w3.org/1999/xlink" x="0px" y="0px"
	 viewBox="0 0 500 500" style="enable-background:new 0 0 500 500;" xml:space="preserve">
<style type="text/css">
	.st0{fill:#78863F;}
</style>
<path class="st0" d="M438.8,64.8H61.2C27.5,64.8,0,92.3,0,126V374c0,33.8,27.5,61.2,61.2,61.2h377.5c33.8,0,61.2-27.5,61.2-61.2V126
	C500,92.2,472.5,64.8,438.8,64.8z M178.7,239.1L24.5,393.5c-3.1-5.8-4.8-12.4-4.8-19.4V126.1c0-9.7,3.3-18.6,8.9-25.6L178.7,239.1z
	 M321.2,239.2l150.3-138.7c5.5,7.1,8.9,15.9,8.9,25.6V374c0,8.2-2.4,15.9-6.5,22.3L321.2,239.2z M258.2,270.8
	c-4.6,4.2-11.8,4.2-16.3,0L44.2,88.2c5.2-2.4,11-3.7,17-3.7h377.5c6.1,0,11.9,1.4,17.1,3.7L258.2,270.8z M193.2,252.5l35.3,32.6
	c5.8,5.4,13.5,8.3,21.5,8.3c8,0,15.7-2.9,21.4-8.2l35.3-32.6L459.6,410c-6.1,3.6-13.3,5.7-20.9,5.7H61.2c-8.8,0-16.9-2.8-23.7-7.4
	L193.2,252.5z"/>
</svg>
