<?xml version="1.0" encoding="utf-8"?>
<!-- Generator: Adobe Illustrator 23.0.2, SVG Export Plug-In . SVG Version: 6.00 Build 0)  -->
<svg version="1.1" id="Layer_1" xmlns="http://www.w3.org/2000/svg" xmlns:xlink="http://www.w3.org/1999/xlink" x="0px" y="0px"
	 viewBox="0 0 500 500" style="enable-background:new 0 0 500 500;" xml:space="preserve">
<style type="text/css">
	.st0{fill:#79863E;}
</style>
<g>
	<g>
		<g>
			<path class="st0" d="M185.9,500c-6.1,0-12-1.8-17.2-5.4l-23-15.9c-13.8-9.5-17.3-28.5-7.8-42.3L266.3,250L137.9,63.5
				c-9.5-13.8-6-32.7,7.8-42.3l23-15.9c13.8-9.5,32.7-6,42.3,7.8l151.6,220.3c0.6,1.1,1.2,2.1,1.8,3.3c0.4,0.7,0.6,1.2,0.8,1.7
				c0.4,1.1,0.7,2.1,1,3.2c0.4,1.2,0.6,1.8,0.7,2.5c0.1,0.9,0.3,1.8,0.3,2.6l0.1,0.8c0.1,0.8,0.1,1.6,0.1,2.4s-0.1,1.6-0.1,2.4
				l-0.1,0.8c-0.1,0.8-0.1,1.7-0.3,2.5c-0.1,0.7-0.4,1.3-0.6,2c-0.5,1.6-0.8,2.7-1.2,3.7l-0.8,1.6c-0.6,1.3-1.2,2.3-1.8,3.4
				l-0.4,0.6L210.8,486.8c-4.6,6.7-11.5,11.2-19.5,12.6C189.6,499.9,187.7,500,185.9,500z M185.9,16.8c-2.8,0-5.4,0.8-7.8,2.4
				l-23,15.9c-6.2,4.3-7.8,12.9-3.5,19.1l134.9,195.9L151.6,445.9c-4.3,6.2-2.7,14.8,3.5,19.1l23,15.9c3,2,6.6,2.8,10.2,2.2
				s6.7-2.7,8.8-5.7l151.3-219.7c0.4-0.6,0.6-1.1,0.9-1.7l0.4-0.8c0.1-0.3,0.2-0.7,0.4-1.1l0.6-4.5l-0.6-3.3
				c-0.2-0.6-0.3-1.1-0.4-1.5l-0.4-0.8c-0.3-0.5-0.5-1.1-0.8-1.6l-0.4-0.6L197.3,22.7c-2-3-5.2-5.1-8.8-5.7
				C187.6,16.9,186.8,16.8,185.9,16.8z"/>
		</g>
	</g>
</g>
</svg>
