<?xml version="1.0" encoding="utf-8"?>
<!-- Generator: Adobe Illustrator 23.0.2, SVG Export Plug-In . SVG Version: 6.00 Build 0)  -->
<svg version="1.1" id="Layer_1" xmlns="http://www.w3.org/2000/svg" xmlns:xlink="http://www.w3.org/1999/xlink" x="0px" y="0px"
	 viewBox="0 0 500 500" style="enable-background:new 0 0 500 500;" xml:space="preserve">
<style type="text/css">
	.st0{fill:#78863F;}
</style>
<g>
	<g>
		<path class="st0" d="M255,426.7h-10c-24.8,0-44.9-20.1-44.9-44.9v-82.3h-82.3c-24.8,0-44.9-20.1-44.9-44.9v-10
			c0-24.8,20.1-44.9,44.9-44.9h82.3v-82.3c0-24.8,20.1-44.9,44.9-44.9h10c24.8,0,44.9,20.1,44.9,44.9v82.7h82.3
			c24.8,0,44.9,20,44.9,44.5v10c0,24.8-20.1,44.9-44.9,44.9h-82.3v82.3C299.9,406.6,279.8,426.7,255,426.7z M117.8,233.7
			c-6,0-10.9,4.9-10.9,10.9v10c0,6,4.9,10.9,10.9,10.9h116.3v116.3c0,6,4.9,10.9,10.9,10.9h10c6,0,10.9-4.9,10.9-10.9V265.5h116.3
			c6,0,10.9-4.9,10.9-10.9v-10c0-5.9-4.8-10.5-10.9-10.5H265.9V117.4c0-6-4.9-10.9-10.9-10.9h-10c-6,0-10.9,4.9-10.9,10.9v116.3
			H117.8z"/>
	</g>
</g>
<path class="st0" d="M250,499.6C112.4,499.6,0,387.6,0,250S112,0.4,250,0.4s250,112,250,249.6S388,499.6,250,499.6z M253.9,43.8
	c-112.5,0-204.5,91.5-204.5,204.5s91.5,204.5,204.5,204.5s204.5-91.5,204.5-204.5S366.9,43.8,253.9,43.8z"/>
</svg>
