<?xml version="1.0" encoding="utf-8"?>
<!-- Generator: Adobe Illustrator 23.0.2, SVG Export Plug-In . SVG Version: 6.00 Build 0)  -->
<svg version="1.1" id="Layer_1" xmlns="http://www.w3.org/2000/svg" xmlns:xlink="http://www.w3.org/1999/xlink" x="0px" y="0px"
	 viewBox="0 0 500 500" style="enable-background:new 0 0 500 500;" xml:space="preserve">
<style type="text/css">
	.st0{fill:#557EBF;}
	.st1{fill:#36A852;}
	.st2{fill:#F9BC15;}
	.st3{fill:#EA4535;}
</style>
<g transform="matrix(1, 0, 0, 1, 27.009001, -39.238998)">
	<path class="st0" d="M467.7,294.9c0-16.5-1.5-32.1-4-47.3H228.3v94h134.8c-6,30.8-23.8,56.9-50,74.6v62.5h80.4
		C440.6,435.1,467.7,370.9,467.7,294.9z"/>
	<path class="st1" d="M228.3,539.2c67.5,0,124-22.5,165.2-60.6l-80.4-62.5c-22.5,15-51,24.2-84.8,24.2c-65.2,0-120.4-44-140.2-103.3
		H5.2v64.4C46.2,483,130.6,539.2,228.3,539.2z"/>
	<path class="st2" d="M88.1,336.9c-5.2-15-7.9-31-7.9-47.7c0-16.7,2.9-32.7,7.9-47.7v-64.4H5.2c-17.1,33.7-26.9,71.7-26.9,112.1
		c0,40.4,9.8,78.3,26.9,112.1L88.1,336.9z"/>
	<path class="st3" d="M228.3,138.2c36.9,0,69.8,12.7,95.8,37.5l71.3-71.3C352.3,64,295.8,39.2,228.3,39.2
		c-97.7,0-182.1,56.3-223.1,137.9l82.9,64.4C107.9,182.2,163.1,138.2,228.3,138.2z"/>
</g>
</svg>
