<?xml version="1.0" encoding="utf-8"?>
<!-- Generator: Adobe Illustrator 23.0.2, SVG Export Plug-In . SVG Version: 6.00 Build 0)  -->
<svg version="1.1" id="Layer_1" xmlns="http://www.w3.org/2000/svg" xmlns:xlink="http://www.w3.org/1999/xlink" x="0px" y="0px"
	 viewBox="0 0 500 500" style="enable-background:new 0 0 500 500;" xml:space="preserve">
<style type="text/css">
	.st0{fill-rule:evenodd;clip-rule:evenodd;fill:#010101;}
</style>
<g>
	<g>
		<g>
			<path class="st0" d="M216.1,262.5H216l-8.6-34.8h-10.4l-8.8,34.4H188l-8-34.4h-11.1l13.4,50.5h11.3l8.4-34.4h0.1l8.6,34.4h11
				l13.6-50.5h-10.9L216.1,262.5z M269.2,244.8c-1-1.3-2.3-2.3-4.1-3c-1.7-0.7-3.9-1.1-6.6-1.1c-1.9,0-3.8,0.5-5.8,1.4
				c-2,1-3.6,2.5-4.9,4.6h-0.2v-19h-10.1v50.5h10.1v-19.2c0-3.7,0.6-6.4,1.8-8c1.2-1.6,3.2-2.4,5.9-2.4c2.4,0,4.1,0.7,5,2.2
				s1.4,3.7,1.4,6.8v20.7h10v-22.5c0-2.3-0.2-4.3-0.6-6.2C270.9,247.7,270.2,246.1,269.2,244.8z M310.6,270.1v-19
				c0-2.2-0.5-4-1.5-5.3c-1-1.3-2.3-2.4-3.8-3.2c-1.6-0.8-3.3-1.3-5.2-1.5c-1.9-0.3-3.8-0.4-5.6-0.4c-2,0-4,0.2-6.1,0.6
				c-2,0.4-3.8,1.1-5.4,2c-1.6,0.9-2.9,2.2-4,3.7c-1,1.6-1.6,3.5-1.8,5.9h10c0.2-2,0.9-3.4,2-4.2c1.1-0.8,2.7-1.3,4.7-1.3
				c0.9,0,1.7,0.1,2.5,0.2c0.8,0.1,1.5,0.4,2.1,0.7c0.6,0.4,1.1,0.9,1.4,1.5c0.4,0.6,0.5,1.5,0.5,2.6c0,1-0.3,1.8-0.9,2.4
				c-0.7,0.5-1.6,1-2.7,1.2c-1.1,0.3-2.4,0.5-3.9,0.6c-1.5,0.1-2.9,0.3-4.5,0.6c-1.5,0.2-3,0.6-4.5,1c-1.5,0.4-2.8,1-4,1.8
				c-1.2,0.8-2.1,1.9-2.8,3.2c-0.7,1.3-1.1,3.1-1.1,5.1c0,1.9,0.3,3.5,1,4.9c0.6,1.4,1.5,2.5,2.7,3.4c1.1,0.9,2.5,1.6,4,2
				c1.5,0.4,3.1,0.6,4.9,0.6c2.3,0,4.5-0.3,6.6-1c2.2-0.7,4.1-1.8,5.7-3.5c0,0.6,0.1,1.2,0.2,1.8c0.1,0.6,0.3,1.2,0.5,1.7h10.2
				c-0.5-0.8-0.8-1.9-1-3.4C310.7,273.4,310.6,271.8,310.6,270.1z M300.6,264.1c0,0.6-0.1,1.3-0.2,2.3c-0.1,0.9-0.4,1.9-1,2.8
				c-0.5,0.9-1.3,1.7-2.4,2.4c-1.1,0.7-2.6,1-4.6,1c-0.8,0-1.6-0.1-2.3-0.2c-0.8-0.1-1.4-0.4-2-0.7c-0.6-0.4-1-0.8-1.3-1.4
				c-0.3-0.6-0.5-1.4-0.5-2.3c0-0.9,0.2-1.7,0.5-2.3c0.3-0.6,0.8-1.1,1.3-1.5c0.5-0.4,1.2-0.7,1.9-1c0.7-0.2,1.5-0.4,2.2-0.6
				c0.8-0.1,1.6-0.3,2.4-0.4c0.8-0.1,1.6-0.2,2.3-0.4c0.7-0.1,1.4-0.3,2.1-0.5c0.6-0.2,1.2-0.5,1.6-0.9L300.6,264.1L300.6,264.1z
				 M329.4,230.7h-10.1v11h-6.1v6.7h6.1V270c0,1.8,0.3,3.3,0.9,4.5c0.6,1.1,1.5,2,2.5,2.6c1.1,0.6,2.3,1,3.7,1.2
				c1.4,0.2,2.9,0.3,4.4,0.3c1,0,2,0,3-0.1c1,0,2-0.1,2.8-0.3v-7.8c-0.5,0.1-1,0.2-1.5,0.2c-0.5,0-1.1,0.1-1.6,0.1
				c-1.7,0-2.8-0.3-3.4-0.9c-0.6-0.6-0.8-1.7-0.8-3.4v-18.1h7.4v-6.7h-7.4L329.4,230.7L329.4,230.7z M370.9,262.2
				c-0.7-1.2-1.5-2.1-2.6-2.9c-1.1-0.8-2.3-1.4-3.7-1.9c-1.4-0.5-2.8-0.9-4.3-1.2c-1.4-0.3-2.8-0.6-4.2-0.9c-1.4-0.3-2.6-0.6-3.6-1
				c-1.1-0.4-1.9-0.8-2.6-1.4c-0.7-0.6-1-1.3-1-2.2c0-0.8,0.2-1.4,0.6-1.8c0.4-0.4,0.8-0.8,1.4-1c0.5-0.2,1.1-0.4,1.8-0.5
				c0.7-0.1,1.3-0.1,1.8-0.1c1.8,0,3.4,0.3,4.7,1c1.3,0.7,2.1,2,2.2,3.9h9.6c-0.2-2.3-0.8-4.1-1.7-5.6c-1-1.5-2.2-2.7-3.6-3.6
				c-1.5-0.9-3.1-1.5-5-1.9c-1.9-0.4-3.8-0.6-5.8-0.6c-2,0-3.9,0.2-5.8,0.5c-1.9,0.4-3.6,1-5.1,1.8c-1.5,0.9-2.7,2.1-3.6,3.6
				c-0.9,1.5-1.4,3.4-1.4,5.8c0,1.6,0.3,3,1,4.1c0.7,1.1,1.5,2,2.6,2.8c1.1,0.7,2.3,1.3,3.7,1.8c1.4,0.5,2.8,0.8,4.3,1.2
				c3.6,0.8,6.4,1.5,8.4,2.3c2,0.8,3,1.9,3,3.4c0,0.9-0.2,1.6-0.6,2.2s-1,1.1-1.6,1.4c-0.6,0.4-1.3,0.6-2.1,0.8
				c-0.8,0.2-1.5,0.3-2.2,0.3c-1,0-1.9-0.1-2.9-0.4c-0.9-0.2-1.7-0.6-2.4-1.1c-0.7-0.5-1.3-1.1-1.7-1.9c-0.4-0.8-0.7-1.7-0.7-2.8
				H338c0.1,2.5,0.6,4.5,1.7,6.1c1,1.6,2.3,2.9,3.9,3.9c1.6,1,3.4,1.7,5.4,2.1c2,0.4,4.1,0.6,6.2,0.6c2.1,0,4.1-0.2,6.1-0.6
				c2-0.4,3.8-1.1,5.3-2.1c1.6-1,2.8-2.3,3.8-3.9c1-1.6,1.4-3.6,1.4-6.1C371.9,264.8,371.6,263.4,370.9,262.2z M390.9,227.7
				l-19.1,50.5h11.2l4-11.3h18.9l3.8,11.3h11.5l-18.9-50.5C402.3,227.7,390.9,227.7,390.9,227.7z M389.8,258.7l6.6-18.5h0.1
				l6.4,18.5H389.8z M455.9,246.6c-1.4-1.8-3.1-3.2-5.2-4.3c-2.1-1.1-4.6-1.6-7.4-1.6c-2.3,0-4.3,0.4-6.2,1.3
				c-1.9,0.9-3.4,2.3-4.7,4.3h-0.1v-4.7h-9.6v49.4h10.1v-17.3h0.1c1.2,1.8,2.8,3.1,4.7,4.1c1.9,0.9,4,1.4,6.3,1.4c2.7,0,5-0.5,7-1.6
				c2-1,3.7-2.4,5-4.2c1.3-1.7,2.3-3.8,3-6c0.7-2.3,1-4.6,1-7.1c0-2.6-0.3-5.1-1-7.5C458.3,250.5,457.3,248.4,455.9,246.6z
				 M449.5,264.4c-0.3,1.4-0.8,2.7-1.5,3.7c-0.7,1.1-1.6,1.9-2.7,2.6c-1.1,0.7-2.5,1-4.1,1c-1.6,0-3-0.3-4.1-1
				c-1.1-0.7-2-1.5-2.7-2.6c-0.7-1.1-1.2-2.3-1.5-3.7c-0.3-1.4-0.5-2.9-0.5-4.3c0-1.5,0.1-3,0.4-4.4c0.3-1.4,0.8-2.7,1.5-3.8
				c0.7-1.1,1.6-2,2.7-2.7c1.1-0.7,2.5-1,4.1-1c1.6,0,3,0.3,4.1,1c1.1,0.7,2,1.6,2.7,2.7c0.7,1.1,1.2,2.4,1.5,3.8
				c0.3,1.4,0.5,2.9,0.5,4.3C449.9,261.5,449.8,263,449.5,264.4z M499,252.9c-0.7-2.4-1.7-4.5-3-6.3c-1.4-1.8-3.1-3.2-5.2-4.3
				c-2.1-1.1-4.6-1.6-7.4-1.6c-2.3,0-4.3,0.4-6.2,1.3c-1.9,0.9-3.4,2.3-4.7,4.3h-0.1v-4.7h-9.6v49.4h10v-17.3h0.1
				c1.2,1.8,2.8,3.1,4.7,4.1c1.9,0.9,4,1.4,6.3,1.4c2.7,0,5-0.5,7-1.6c2-1,3.7-2.4,5-4.2c1.3-1.7,2.3-3.8,3-6c0.7-2.3,1-4.6,1-7.1
				C500,257.8,499.7,255.3,499,252.9z M489.5,264.4c-0.3,1.4-0.8,2.7-1.4,3.7c-0.7,1.1-1.6,1.9-2.7,2.6c-1.1,0.7-2.5,1-4.1,1
				c-1.6,0-3-0.3-4.1-1c-1.1-0.7-2-1.5-2.7-2.6c-0.7-1.1-1.2-2.3-1.5-3.7c-0.3-1.4-0.5-2.9-0.5-4.3c0-1.5,0.1-3,0.4-4.4
				c0.3-1.4,0.8-2.7,1.4-3.8c0.7-1.1,1.6-2,2.7-2.7c1.1-0.7,2.5-1,4.1-1c1.6,0,3,0.3,4.1,1c1.1,0.7,2,1.6,2.7,2.7
				c0.7,1.1,1.2,2.4,1.5,3.8c0.3,1.4,0.5,2.9,0.5,4.3C490,261.5,489.8,263,489.5,264.4z"/>
		</g>
	</g>
	<g>
		<g>
			<path class="st0" d="M74.7,176.1c-39.8,0-72,32.3-72,72c0,13.6,3.8,26.3,10.3,37.2L0,323.9l39.9-12.8c10.3,5.7,22.2,9,34.8,9
				c39.8,0,72-32.3,72-72C146.8,208.3,114.5,176.1,74.7,176.1z M74.7,308.7c-12.3,0-23.8-3.7-33.3-10l-23.3,7.5l7.6-22.5
				c-7.3-10-11.5-22.3-11.5-35.5c0-33.4,27.2-60.6,60.6-60.6c33.4,0,60.6,27.2,60.6,60.6C135.3,281.5,108.1,308.7,74.7,308.7z"/>
		</g>
	</g>
	<path class="st0" d="M57.8,218.3c-1.2-2.8-2.1-2.9-3.9-3c-0.6,0-1.3-0.1-2-0.1c-2.3,0-4.7,0.7-6.2,2.2c-1.8,1.8-6.2,6-6.2,14.7
		c0,8.7,6.3,17.1,7.2,18.3c0.9,1.2,12.3,19.3,30.2,26.7c13.9,5.8,18,5.3,21.2,4.6c4.6-1,10.4-4.4,11.9-8.5c1.5-4.1,1.5-7.7,1-8.4
		c-0.4-0.7-1.6-1.2-3.4-2.1c-1.8-0.9-10.4-5.2-12.1-5.7c-1.6-0.6-3.1-0.4-4.4,1.3c-1.7,2.4-3.4,4.8-4.7,6.3
		c-1.1,1.1-2.8,1.3-4.3,0.7c-2-0.8-7.5-2.8-14.2-8.8c-5.2-4.7-8.8-10.5-9.8-12.2c-1-1.8-0.1-2.8,0.7-3.8c0.9-1.1,1.7-1.9,2.6-2.9
		c0.9-1,1.4-1.6,2-2.8c0.6-1.2,0.2-2.4-0.2-3.3C62.8,230.5,59.3,221.8,57.8,218.3z"/>
</g>
</svg>
