<?xml version="1.0" encoding="utf-8"?>
<!-- Generator: Adobe Illustrator 23.0.2, SVG Export Plug-In . SVG Version: 6.00 Build 0)  -->
<svg version="1.1" id="Layer_1" xmlns="http://www.w3.org/2000/svg" xmlns:xlink="http://www.w3.org/1999/xlink" x="0px" y="0px"
	 viewBox="0 0 500 500" style="enable-background:new 0 0 500 500;" xml:space="preserve">
<style type="text/css">
	.st0{fill:#79863E;}
</style>
<g>
	<g>
		<g>
			<path class="st0" d="M454.4,500H38.6C17.3,500,0,482.6,0,461.3V39.2C0,17.6,17.6,0,39.2,0h360.2c9.1,0,18,3.2,24.9,9l62.2,51.9
				c8.5,7.2,13.5,17.7,13.5,28.8v364.6C500,479.5,479.5,500,454.4,500z M39.2,22.9c-9,0-16.3,7.3-16.3,16.3v422.1
				c0,8.7,7.1,15.8,15.8,15.8h415.8c12.5,0,22.7-10.2,22.7-22.7V89.8c0-4.4-1.9-8.4-5.2-11.3l-62.2-51.9c-2.9-2.4-6.5-3.7-10.3-3.7
				L39.2,22.9L39.2,22.9z"/>
		</g>
	</g>
	<g>
		<g>
			<path class="st0" d="M449.6,500H46.3V301.3c0-27.5,22.3-49.8,49.8-49.8h303.7c27.5,0,49.8,22.3,49.8,49.8L449.6,500L449.6,500z
				 M69.2,477.1h357.6V301.3c0-14.8-12.1-27-27-27H96.2c-14.8,0-27,12.1-27,27L69.2,477.1L69.2,477.1z"/>
		</g>
	</g>
	<g>
		<g>
			<path class="st0" d="M338.3,222.3H107.1c-18.2,0-33-14.8-33-33V33c0-18.2,14.8-33,33-33h231.2c18.2,0,33,14.8,33,33v156.3
				C371.3,207.6,356.5,222.3,338.3,222.3z M107.1,22.9c-5.6,0-10.2,4.6-10.2,10.2v156.3c0,5.6,4.6,10.2,10.2,10.2h231.2
				c5.6,0,10.2-4.6,10.2-10.2V33.1c0-5.6-4.6-10.2-10.2-10.2H107.1z"/>
		</g>
	</g>
	<g>
		<g>
			<path class="st0" d="M309.5,169.6h-42.3c-16.6,0-30.1-13.5-30.1-30.1v-81c0-16.6,13.5-30.1,30.1-30.1h42.3
				c16.6,0,30.1,13.5,30.1,30.1v81C339.6,156.2,326.1,169.6,309.5,169.6z M267.3,51.3c-4,0-7.2,3.2-7.2,7.2v81c0,4,3.2,7.2,7.2,7.2
				h42.3c4,0,7.2-3.2,7.2-7.2v-81c0-4-3.2-7.2-7.2-7.2H267.3z"/>
		</g>
	</g>
	<g>
		<g>
			<rect x="95.6" y="318.6" class="st0" width="316.8" height="22.8"/>
		</g>
	</g>
	<g>
		<g>
			<rect x="95.6" y="368.7" class="st0" width="316.8" height="22.8"/>
		</g>
	</g>
	<g>
		<g>
			<rect x="95.6" y="423.5" class="st0" width="316.8" height="22.8"/>
		</g>
	</g>
</g>
</svg>
