<?xml version="1.0" encoding="utf-8"?>
<!-- Generator: Adobe Illustrator 23.0.2, SVG Export Plug-In . SVG Version: 6.00 Build 0)  -->
<svg version="1.1" id="Layer_1" xmlns="http://www.w3.org/2000/svg" xmlns:xlink="http://www.w3.org/1999/xlink" x="0px" y="0px"
	 viewBox="0 0 500 500" style="enable-background:new 0 0 500 500;" xml:space="preserve">
<style type="text/css">
	.st0{fill:#79863E;}
</style>
<g>
	<g>
		<g>
			<path class="st0" d="M500,138.9c0-17.6-6.7-33.7-17.6-45.8L325.1,238.4l160.3,165.1c9.1-11.6,14.6-26.3,14.6-42.3V138.9z"/>
		</g>
	</g>
	<g>
		<g>
			<path class="st0" d="M68.9,70C55.3,70,42.6,74,32,80.9l208.4,192.3c5.4,5,13.9,5,19.4,0L468,80.9C457.4,74,444.7,70,431.1,70
				H68.9z"/>
		</g>
	</g>
	<g>
		<g>
			<path class="st0" d="M17.6,93.1C6.7,105.3,0,121.3,0,138.9v222.2c0,14.7,4.7,28.3,12.5,39.5l162.2-162.5L17.6,93.1z"/>
		</g>
	</g>
	<g>
		<g>
			<path class="st0" d="M431.1,430c15.3,0,29.4-5.1,40.9-13.6L311.4,251l-38.9,36c-6.3,5.8-14.3,8.7-22.4,8.7
				c-8.1,0-16.1-2.9-22.4-8.7l-39.1-36L25.3,414.4c11.9,9.7,27.1,15.6,43.6,15.6H431.1z"/>
		</g>
	</g>
</g>
</svg>
