<?xml version="1.0" encoding="utf-8"?>
<!-- Generator: Adobe Illustrator 23.0.2, SVG Export Plug-In . SVG Version: 6.00 Build 0)  -->
<svg version="1.1" id="Layer_1" xmlns="http://www.w3.org/2000/svg" xmlns:xlink="http://www.w3.org/1999/xlink" x="0px" y="0px"
	 viewBox="0 0 500 500" style="enable-background:new 0 0 500 500;" xml:space="preserve">
<style type="text/css">
	.st0{fill:#79863E;}
</style>
<g>
	<g>
		<g>
			<path class="st0" d="M432,498c-11.1-0.2-21.7-4.7-29.8-12.8L147.6,227.9l-26.1,119c-1.8,11.1-7.8,20.7-17,27.1
				c-9.3,6.4-20.6,8.8-32,6.5l-37.4-7.4C12.5,368.7-3.1,346.7,0.5,324L48.3,77.6c1-6.3,3.4-12.1,7.5-17.9c1.3-1.8,2.8-3.5,4-4.7
				c1.6-1.6,3.2-2.9,5.6-4.7c5.2-3.8,11-6.2,17.2-7.2L330.3,2.5c22.7-3.6,44.7,12,49.2,34.7l7.4,37.4c2.3,11.4-0.1,22.7-6.5,32
				c-6.4,9.2-16,15.3-27,17l-119.6,20.1L487.2,400c16.7,16.7,17.1,43.5,0.8,59.7l-26.2,26.2c-7.8,7.8-18.1,12-29.1,12
				C432.6,497.9,432.2,497.9,432,498z M335,30.7L87.3,71.3c-1.9,0.2-3.6,1-5.5,2.3c-0.5,0.5-1.1,0.7-1.8,1.6
				c-0.4,0.4-0.6,0.8-1.2,1.6c-1.2,1.7-1.9,3.4-2.3,5.7L28.8,328.6c-1.1,7.5,4.4,15,12,16.6l37.4,7.4c3.5,0.8,7.2,0.1,10.1-1.9
				c2.7-1.9,4.5-4.8,5.2-9.1l37.4-171.1l291.3,294.5c5.6,5.6,14.4,5.9,19.5,0.8l26.2-26.2c5.2-5.1,4.8-13.8-0.8-19.5L174.8,124.7
				l173.9-29.2c3.4-0.5,6.3-2.3,8.2-5.1c2.1-2.9,2.8-6.4,2.1-10.1l-7.4-37.4c-1.5-7-7.9-12.2-14.7-12.2
				C336.3,30.6,335.6,30.6,335,30.7z"/>
		</g>
	</g>
</g>
</svg>
