<?xml version="1.0" encoding="utf-8"?>
<!-- Generator: Adobe Illustrator 23.0.2, SVG Export Plug-In . SVG Version: 6.00 Build 0)  -->
<svg version="1.1" id="Layer_1" xmlns="http://www.w3.org/2000/svg" xmlns:xlink="http://www.w3.org/1999/xlink" x="0px" y="0px"
	 viewBox="0 0 500 500" style="enable-background:new 0 0 500 500;" xml:space="preserve">
<style type="text/css">
	.st0{fill:#79863E;}
</style>
<g>
	<g>
		<path class="st0" d="M169,252.4c-44.5,0-80.8-36.2-80.8-80.8c0-44.5,36.2-80.8,80.8-80.8c44.5,0,80.8,36.2,80.8,80.8
			S213.5,252.4,169,252.4z M169,98.2c-40.5,0-73.5,33-73.5,73.5s33,73.5,73.5,73.5s73.5-32.9,73.5-73.5S209.6,98.2,169,98.2z"/>
	</g>
	<g>
		<path class="st0" d="M180.4,461l-4.2-12.2c-1.8-5.4-3.1-11-3.7-16.6c-0.9-7.8-0.1-12.5,0.7-18c0.6-3.9,1.3-8.3,1.5-14.8
			c0.4-10-0.4-19.9-2.3-29.6c-1.2-6.1-2.7-11-4.2-15.5c-1,3.4-2,7.1-2.8,11.4c-1.9,9.6-2.7,19.9-2.3,29.6c0.2,6.5,1,10.9,1.5,14.8
			c0.9,5.5,1.6,10.2,0.7,18c-0.6,5.7-1.8,11.2-3.7,16.6l-4.2,12.2l-2.8-12.6c-0.7-3.4-1.9-8.4-3.5-14.5c-3.4-13.2-5.8-19.4-7.7-24.5
			c-1.7-4.3-2.9-7.6-4-13.3c-1-4.9-5.2-30.8,6.8-55c1.3-2.6,2.3-4.3,3.4-6.1c1.2-2,2.5-4.1,4.7-8.3c-5.2-6.4-12-10.4-25.4-18.3
			c-5.1-3-9.3-5.2-12.6-6.9c-8.1-4.2-12.5-6.6-13.7-12.4c-1.7-8.4,5.3-17.6,12.8-22c6.8-3.9,15.6-4.7,24.8-2.3
			c11,3,21,10.2,25.9,18.9c1.2,2.2,1.5,3.4,1.9,5.3c0.1,0.4,0.2,0.9,0.3,1.5c0.7-2.8,1-4.4,1.3-5.6c0.4-2,0.6-3.2,1.9-5.4
			c4.9-8.7,14.9-15.9,25.9-18.9c9.2-2.5,17.9-1.7,24.8,2.3l0,0c7.6,4.4,14.6,13.6,12.8,22c-1.2,5.9-5.7,8.2-13.7,12.4
			c-3.3,1.8-7.5,3.9-12.6,6.9c-13.8,8.1-20.7,12.2-25.9,19c-0.7,0.9-1.3,1.8-1.8,2.6c0.6,1.4,1.2,2.5,1.7,3.6
			c2.5,5.1,4.1,7.6,5.3,9.7c1.1,1.8,2.2,3.4,3.4,6.1c11.9,24.3,7.7,50.1,6.8,55c-1.1,5.7-2.4,9-4,13.3c-1.9,5-4.3,11.2-7.7,24.4
			c-1.6,6.1-2.8,11.2-3.5,14.5L180.4,461z M168.2,332l5.4,15.4c2,5.7,4.2,12.2,6,21c2,10.3,2.8,20.8,2.4,31.3
			c-0.3,6.9-1,11.5-1.7,15.6c-0.9,5.3-1.5,9.2-0.7,16.1c0,0.1,0,0.2,0,0.2c3.5-13.3,6-19.9,7.9-24.8c1.6-4.1,2.7-7.1,3.7-12.1
			c0.6-2.8,5-27.7-6.1-50.5c-1.2-2.4-2.1-3.9-3.1-5.5c-1.4-2.3-3-4.9-5.7-10.3c-0.7-1.5-1.7-3.4-2.6-5.5l-0.8-1.7l0.9-1.6
			c1-1.8,2.1-3.4,3.3-5c6.1-7.9,13.4-12.2,28-20.8c5.2-3.1,9.5-5.3,12.9-7.1c7.2-3.8,9.5-5.1,10-7.5c1-4.7-4.1-11.2-9.4-14.3
			c-5.1-3-12-3.5-19.2-1.6c-9.1,2.5-17.5,8.5-21.5,15.5c-0.7,1.3-0.8,1.5-1,3.1c-0.4,2-1,5.3-3.3,12.5c-0.4,1.5-0.9,2.8-1.4,4.1
			L168,310l-3.7-11.6c-2.3-7.3-2.9-10.6-3.3-12.5c-0.3-1.6-0.4-1.9-1.1-3.1c-3.9-6.9-12.4-13-21.5-15.5c-7.3-2-14.1-1.4-19.2,1.6
			c-5.3,3.1-10.4,9.6-9.4,14.3c0.5,2.4,2.8,3.7,10,7.5c3.4,1.8,7.7,4.1,12.9,7.1c14.6,8.6,21.9,12.9,28,20.8l1.8,2.6l-0.6,2.3
			c-3,6-4.5,8.7-6,10.9c-1,1.7-1.9,3.1-3.1,5.5c-10.9,22.2-7,45.9-6.1,50.5c1,5,2.1,8,3.7,12c1.8,4.9,4.4,11.6,7.9,24.8
			c0-0.1,0-0.2,0-0.2c0.7-6.9,0.1-10.8-0.7-16.1c-0.6-4.1-1.4-8.7-1.7-15.6c-0.4-10.3,0.4-21.2,2.4-31.3c1.7-8.7,3.9-14.9,6-21
			L168.2,332z"/>
	</g>
	<g>
		<path class="st0" d="M168.2,310.3l-3.7-11.6c-2.3-7.3-3-10.6-3.3-12.5c-0.3-1.6-0.4-1.9-1.1-3.1l0,0c-0.9-1.5-1.9-2.9-3.2-4.4
			l-4.9-5.5l7.3-0.6c5-0.4,9.7-0.6,14.4-0.2l8.1,0.4l-3.2,5.2l-3.1-0.7v0.2l2.6,1.5c-0.7,1.2-0.8,1.5-1,3.1c-0.4,2-1,5.3-3.3,12.6
			c-0.4,1.5-0.9,2.8-1.4,4.1L168.2,310.3z M166.3,279.4c1.2,2.2,1.5,3.4,1.9,5.3c0.1,0.4,0.2,0.9,0.3,1.5c0.7-2.8,1-4.5,1.3-5.6
			c0.1-0.4,0.2-0.9,0.2-1.3C168.8,279.4,167.6,279.4,166.3,279.4L166.3,279.4L166.3,279.4z"/>
	</g>
	<g>
		<g>
			<path class="st0" d="M266.3,500H71.6c-16.8,0-30.4-13.6-30.4-30.4v-69.8c0-40.7,19.7-79.3,52.6-103.3c9.5-6.9,22.4-7.7,32.7-2.1
				c1.9,1,3.9,2.2,6.2,3.5c14.6,8.6,21.9,12.9,28,20.8l1.8,2.6l-0.6,2.3c-3,6-4.5,8.7-6,10.9c-1,1.7-1.9,3.1-3.1,5.5
				c-10.9,22.2-7,45.9-6.1,50.5c1,5,2.1,8,3.7,12c1.8,4.9,4.4,11.6,7.9,24.8c0-0.1,0-0.2,0-0.2c0.7-6.9,0.1-10.8-0.7-16.1
				c-0.6-4.1-1.4-8.7-1.7-15.6c-0.4-10.3,0.4-21.2,2.4-31.3c1.7-8.7,3.9-14.9,6-21l3.9-11.2l5.4,15.4c2,5.7,4.2,12.2,6,21
				c2,10.3,2.8,20.8,2.4,31.3c-0.3,6.9-1,11.5-1.7,15.6c-0.9,5.3-1.5,9.2-0.7,16.1c0,0.1,0,0.2,0,0.2c3.5-13.3,6-19.9,7.9-24.8
				c1.6-4.1,2.7-7.1,3.7-12.1c0.6-2.8,5-27.7-6.1-50.5c-1.2-2.4-2.1-3.9-3.1-5.5c-1.4-2.3-3-4.9-5.7-10.3c-0.7-1.5-1.7-3.4-2.6-5.5
				l-0.7-1.7l0.9-1.6c1-1.8,2.1-3.4,3.3-5c6.1-7.9,13.4-12.2,28-20.8l2-1.2c10.4-6,22.8-5.5,32.7,1.1l0,0
				c35.5,23.8,56.8,63.4,56.8,106.1v69.8C296.8,486.4,283.1,500,266.3,500z M112,298c-4.9,0-9.7,1.5-13.8,4.5
				c-31.1,22.6-49.7,59.1-49.7,97.4v69.8c0,12.8,10.4,23.2,23.2,23.2h194.7c12.8,0,23.2-10.4,23.2-23.2v-69.8
				c0-40.2-20-77.6-53.5-100.1c-7.6-5.1-17.1-5.5-24.8-1l-2.2,1.3c-13.8,8.1-20.7,12.2-25.9,19c-0.7,0.9-1.3,1.8-1.8,2.6
				c0.6,1.4,1.2,2.5,1.7,3.6c2.5,5.1,4.1,7.6,5.3,9.7c1.1,1.8,2.2,3.4,3.4,6.1c11.9,24.3,7.7,50.1,6.8,55c-1.1,5.7-2.4,9-4,13.3
				c-1.9,5-4.3,11.2-7.7,24.4c-1.6,6.1-2.8,11.2-3.5,14.5l-2.8,12.6l-4.2-12.2c-1.8-5.4-3.1-11-3.7-16.6c-0.9-7.8-0.1-12.5,0.7-18
				c0.6-3.9,1.3-8.3,1.5-14.8c0.4-10-0.4-19.9-2.3-29.6c-1.2-6.1-2.7-11-4.2-15.5c-1,3.4-2,7.1-2.8,11.4c-1.9,9.6-2.7,19.9-2.3,29.6
				c0.2,6.5,1,10.9,1.5,14.8c0.9,5.5,1.6,10.2,0.7,18c-0.6,5.7-1.8,11.2-3.7,16.6l-4.2,12.2l-2.8-12.6c-0.7-3.4-1.9-8.4-3.5-14.5
				c-3.4-13.2-5.8-19.4-7.7-24.5c-1.7-4.3-2.9-7.6-4-13.3c-1-4.9-5.2-30.8,6.8-55c1.3-2.6,2.3-4.3,3.4-6.1c1.2-2,2.5-4.1,4.7-8.3
				c-5.2-6.4-12-10.4-25.4-18.3c-2.2-1.3-4.2-2.4-6-3.4C119.6,298.9,115.8,298,112,298z"/>
		</g>
	</g>
	<g>
		<path class="st0" d="M349.1,153.1c-2.3,0-4.5-0.9-6.3-2.6l-34.7-34.7c-3.4-3.4-3.4-9.1,0-12.5L389,22.5c3.4-3.4,9.1-3.4,12.5,0
			l34.7,34.7c3.4,3.4,3.4,9.1,0,12.5l-80.8,80.8C353.7,152.3,351.4,153.1,349.1,153.1z M348.3,145.1c0.5,0.5,1.2,0.5,1.7,0
			l80.8-80.8c0.5-0.5,0.5-1.2,0-1.7l-34.7-34.7c-0.5-0.5-1.2-0.5-1.7,0l-80.8,80.8c-0.5,0.5-0.5,1.2,0,1.7L348.3,145.1z"/>
	</g>
	<g>
		<path class="st0" d="M294,168.2c-1.2,0-2.3-0.5-3.2-1.4c-1.1-1.1-1.5-2.7-1.1-4.2l13.7-52.9c0.4-1.5,1.6-2.8,3.2-3.2
			c1.5-0.4,3.2,0,4.4,1.2l40.2,40.2c1.2,1.2,1.6,2.8,1.2,4.4c-0.4,1.5-1.7,2.8-3.3,3.1L295.2,168C294.7,168.1,294.3,168.2,294,168.2
			z M309.4,117l-10.9,42.3l43.1-10.1L309.4,117z M305.4,113C305.4,113,305.4,113.1,305.4,113L305.4,113z"/>
	</g>
	<g>
		<path class="st0" d="M437.1,66.1L437.1,66.1c-1.8,0-3.4-0.7-4.7-2l-37.8-37.8c-2.6-2.6-2.6-6.8,0-9.4L407.5,4
			c5.3-5.3,14.1-5.3,19.4,0l27.8,27.8c5.3,5.3,5.3,14.1,0,19.4l-12.9,12.9C440.5,65.4,438.9,66.1,437.1,66.1z M437.8,58.7
			L437.8,58.7L437.8,58.7z M400.7,21.6L437.1,58l12.2-12.2c2.3-2.3,2.3-6.2,0-8.5L421.4,9.4c-2.3-2.3-6.1-2.3-8.5,0L400.7,21.6z"/>
	</g>
</g>
</svg>
