<?xml version="1.0" encoding="utf-8"?>
<!-- Generator: Adobe Illustrator 23.0.2, SVG Export Plug-In . SVG Version: 6.00 Build 0)  -->
<svg version="1.1" id="Layer_1" xmlns="http://www.w3.org/2000/svg" xmlns:xlink="http://www.w3.org/1999/xlink" x="0px" y="0px"
	 viewBox="0 0 500 500" style="enable-background:new 0 0 500 500;" xml:space="preserve">
<style type="text/css">
	.st0{fill:#798640;}
</style>
<ellipse transform="matrix(0.9732 -0.2298 0.2298 0.9732 -22.597 24.1248)" class="st0" cx="92.3" cy="109.1" rx="17.1" ry="17.1"/>
<path class="st0" d="M188.5,55.9h-116C59,55.9,47.8,67,47.8,80.6v77.2L70,139.1l54.5,42.8l59.7-77.6l29,50.6V80.6
	C213.2,67.1,202.1,55.9,188.5,55.9z M92.3,134.6c-14,0-25.5-11.4-25.5-25.5c0-14,11.4-25.5,25.5-25.5c14.1,0,25.5,11.4,25.5,25.5
	C117.8,123.1,106.4,134.6,92.3,134.6z"/>
<path class="st0" d="M365,416.5l-55.8-43.8l-22.4,18.8v27.8c0,13.5,11.1,24.7,24.7,24.7h116c13.5,0,24.7-11.1,24.7-24.7v-24.7
	l-30-52.4L365,416.5z"/>
<path class="st0" d="M126,193.8L70.2,150l-22.4,18.8v27.8c0,13.5,11.1,24.7,24.7,24.7h116c13.5,0,24.7-11.1,24.7-24.7v-24.7
	l-30-52.4L126,193.8z"/>
<ellipse transform="matrix(0.9732 -0.2298 0.2298 0.9732 -73.763 30.0822)" class="st0" cx="92.3" cy="331.8" rx="17.1" ry="17.1"/>
<path class="st0" d="M188.5,278.6h-116c-13.5,0-24.7,11.1-24.7,24.7v77.2L70,361.8l54.5,42.8l59.7-77.6l29,50.6v-74.3
	C213.2,289.8,202.1,278.6,188.5,278.6z M92.3,357.3c-14,0-25.5-11.4-25.5-25.5c0-14,11.4-25.5,25.5-25.5c14.1,0,25.5,11.4,25.5,25.5
	C117.8,345.8,106.4,357.3,92.3,357.3z"/>
<path class="st0" d="M126,416.5l-55.8-43.8l-22.4,18.8v27.8c0,13.5,11.1,24.7,24.7,24.7h116c13.5,0,24.7-11.1,24.7-24.7v-24.7
	l-30-52.4L126,416.5z"/>
<ellipse transform="matrix(0.9732 -0.2298 0.2298 0.9732 -67.3695 84.9933)" class="st0" cx="331.3" cy="331.8" rx="17.1" ry="17.1"/>
<path class="st0" d="M427.5,55.9h-116c-13.5,0-24.7,11.1-24.7,24.7v77.2l22.2-18.7l54.5,42.8l59.7-77.6l29,50.6V80.6
	C452.2,67.1,441.1,55.9,427.5,55.9z M331.3,134.6c-14,0-25.5-11.4-25.5-25.5c0-14,11.4-25.5,25.5-25.5c14.1,0,25.5,11.4,25.5,25.5
	C356.8,123.1,345.4,134.6,331.3,134.6z"/>
<path class="st0" d="M365,193.8L309.2,150l-22.4,18.8v27.8c0,13.5,11.1,24.7,24.7,24.7h116c13.5,0,24.7-11.1,24.7-24.7v-24.7
	l-30-52.4L365,193.8z"/>
<path class="st0" d="M432,11.3H68c-37.6,0-68,30.4-68,68v341.4c0,37.6,30.4,68,68,68h364c37.6,0,68-30.4,68-68V79.3
	C500,41.7,469.6,11.3,432,11.3z M188.5,461.7H72.4c-23.4,0-42.3-19-42.3-42.3v-116c0-23.4,19-42.4,42.3-42.4h116
	c23.4,0,42.3,19,42.3,42.4v116h0.1C230.9,442.8,211.9,461.7,188.5,461.7z M188.5,239H72.4c-23.4,0-42.3-19-42.3-42.3v-116
	c0-23.4,19-42.4,42.3-42.4h116c23.4,0,42.3,19,42.3,42.4v116h0.1C230.9,220.1,211.9,239,188.5,239z M427.5,461.7H311.4
	c-23.4,0-42.3-19-42.3-42.3v-116c0-23.4,19-42.4,42.3-42.4h116c23.4,0,42.3,19,42.3,42.4v116h0.1
	C469.9,442.8,450.9,461.7,427.5,461.7z M427.5,239H311.4c-23.4,0-42.3-19-42.3-42.3v-116c0-23.4,19-42.4,42.3-42.4h116
	c23.4,0,42.3,19,42.3,42.4v116h0.1C469.9,220.1,450.9,239,427.5,239z"/>
<ellipse transform="matrix(0.9732 -0.2298 0.2298 0.9732 -16.2034 79.0358)" class="st0" cx="331.3" cy="109.1" rx="17.1" ry="17.1"/>
<path class="st0" d="M427.5,278.6h-116c-13.5,0-24.7,11.1-24.7,24.7v77.2l22.2-18.7l54.5,42.8l59.7-77.6l29,50.6v-74.3
	C452.2,289.8,441.1,278.6,427.5,278.6z M331.3,357.3c-14,0-25.5-11.4-25.5-25.5c0-14,11.4-25.5,25.5-25.5
	c14.1,0,25.5,11.4,25.5,25.5C356.8,345.8,345.4,357.3,331.3,357.3z"/>
</svg>
