<?xml version="1.0" encoding="utf-8"?>
<!-- Generator: Adobe Illustrator 23.0.2, SVG Export Plug-In . SVG Version: 6.00 Build 0)  -->
<svg version="1.1" id="Layer_1" xmlns="http://www.w3.org/2000/svg" xmlns:xlink="http://www.w3.org/1999/xlink" x="0px" y="0px"
	 viewBox="0 0 500 500" style="enable-background:new 0 0 500 500;" xml:space="preserve">
<style type="text/css">
	.st0{fill:#79863E;}
</style>
<g>
	<g>
		<g>
			<circle class="st0" cx="131.2" cy="127.3" r="81.7"/>
		</g>
	</g>
	<g>
		<g>
			<path class="st0" d="M143.4,437.9l-5.7-16.7c-2-5.8-3.4-11.8-3.9-17.8c-0.9-8.4-0.1-13.5,0.8-19.4c0.7-4.1,1.3-8.7,1.7-15.5
				c0.4-10.3-0.4-21-2.3-31.1c-1-4.9-2.1-9.1-3.3-12.9c-0.8,2.6-1.4,5.4-2,8.5c-2,10.2-2.8,20.7-2.4,31.1c0.3,6.8,1,11.5,1.7,15.5
				c0.9,5.9,1.8,10.9,0.8,19.4c-0.7,6-2,12.1-3.9,17.8l-5.7,16.7l-3.8-17.2c-0.8-3.5-2-8.9-3.7-15.3c-3.6-13.9-6.1-20.5-8.2-25.8
				c-1.8-4.6-3.1-8.2-4.3-14.2c-1-5.3-5.5-33,7.2-59c1.4-2.8,2.5-4.6,3.7-6.5c1.2-1.9,2.5-4.1,4.6-8.1c-5.3-6.3-12.5-10.6-26.1-18.6
				c-5.4-3.2-9.8-5.4-13.3-7.4c-8.5-4.4-13.7-7.2-15.1-13.9c-2-9.6,5.6-19.5,14.2-24.5c7.5-4.4,17.1-5.2,27.1-2.5
				c12,3.3,22.7,11.1,28.1,20.5c0.7,1.2,1.1,2.1,1.4,2.9c0.1-0.5,0.2-0.9,0.3-1.3c0.4-2.3,0.8-3.5,2.1-6
				c5.4-9.5,16.2-17.3,28.1-20.5c10-2.7,19.6-1.8,27.1,2.5l0,0c8.5,4.9,16.1,15,14.2,24.5c-1.4,6.7-6.5,9.5-15.1,13.9
				c-3.5,1.8-7.9,4.1-13.3,7.3c-14.5,8.5-21.7,12.8-27.1,19.9c-0.6,0.8-1.1,1.4-1.6,2.3c0.6,1.2,1.1,2.3,1.5,3.2
				c2.7,5.4,4.2,8,5.6,10.1c1.2,2,2.3,3.7,3.7,6.6c12.8,26.1,8.3,53.7,7.2,59c-1.2,6-2.6,9.6-4.4,14.2c-2,5.3-4.5,11.9-8.1,25.8
				c-1.7,6.5-2.9,11.8-3.7,15.3L143.4,437.9z M129.9,295.5l7.3,17.7c2.3,6.5,4.5,13.1,6.4,22.4c2.2,10.8,3,22.4,2.6,33.4
				c-0.3,7.4-1.1,12.3-1.8,16.7c-0.6,3.7-1.1,6.7-1.1,10.4c2.8-9.9,4.9-15.6,6.6-19.9c1.7-4.4,2.8-7.4,3.9-12.7
				c0.6-2.9,5.3-29-6.5-52.7c-1.3-2.5-2.2-4-3.3-5.8c-1.5-2.4-3.2-5.2-6-11c-0.8-1.6-1.8-3.6-2.8-5.9l-1.1-2.3l1.3-2.2
				c1.1-1.9,2.3-3.7,3.6-5.4c6.6-8.6,14.4-13.2,30-22.4c5.5-3.3,10.1-5.6,13.7-7.5c7.6-4,9.6-5.2,10.1-7.2c0.9-4.4-4.3-11-9.5-14
				l0,0c-5.2-3-12.1-3.5-19.5-1.6c-9.4,2.5-18,8.8-22.1,15.9c-0.7,1.2-0.7,1.3-1,3c-0.4,2.1-1.1,5.6-3.5,13.4
				c-0.5,1.5-1,2.9-1.4,4.4l-5.3,15.4l-5-15.3c-2.4-7.8-3.1-11.3-3.5-13.4c-0.3-1.7-0.3-1.8-1-3c-4-7.1-12.7-13.3-22.1-15.9
				c-7.5-2-14.4-1.4-19.5,1.6c-5.2,3-10.4,9.6-9.5,14c0.4,1.9,2.4,3.2,10.1,7.2c3.6,1.9,8.1,4.3,13.7,7.5
				c15.6,9.1,23.4,13.7,30,22.4l2.3,3.4l-1,3.2c-3.1,6.3-4.9,9.1-6.3,11.6c-1.1,1.8-2,3.3-3.3,5.8c-11.4,23.1-7.4,48-6.5,52.8
				c1,5.2,2.2,8.1,3.9,12.6c1.7,4.4,3.8,10,6.6,19.9c0-3.7-0.5-6.7-1.1-10.4c-0.7-4.4-1.4-9.3-1.8-16.7c-0.5-11.2,0.4-22.5,2.6-33.4
				c1.8-9.4,4.3-16.3,6.4-22.4L129.9,295.5z M119.5,286.5l0.2,0.1l0.3-0.3L119.5,286.5z"/>
		</g>
	</g>
	<g>
		<g>
			<g>
				<path class="st0" d="M125,243.4c2.3,3.9,0.4,3,4.9,17.3c0.2,0.5,0.3,0.8,0.4,1.3c0.7-1.9,1.3-3.7,1.9-5.7
					c4.5-14.3,2.7-13.4,4.9-17.3c0.2-0.3,0.5-0.7,0.7-1.1c-2.3-0.1-4.5-0.3-6.9-0.3l0,0c-3.4,0-6.7,0.3-10,0.5
					C122.7,239.8,124,241.5,125,243.4z"/>
			</g>
		</g>
		<g>
			<g>
				<path class="st0" d="M204.3,259.9c-9.1-6.1-20.8-6.7-30.3-1.3c-0.8,0.4-1.6,0.9-2.4,1.4c-15.1,8.9-22.5,13.3-28.6,21.1
					c-1.2,1.6-2.3,3.2-3.3,4.9c1,2.2,1.9,4.1,2.7,5.7c4.9,10.1,6.4,10.7,9.3,16.8c12.5,25.4,7.5,52.6,6.9,55.9
					c-2.4,12.3-5.6,13.6-12.4,39.7c-1.7,6.5-2.9,11.9-3.7,15.5c-1.3-3.7-2.9-9.6-3.7-16.8c-1.4-13.5,1.8-17.4,2.5-34.2
					c0.3-6.7,0.3-18.4-2.5-32.3c-1.8-9-4-15.5-6.2-21.7c-0.8-2.1-1.4-4-2-5.9c-0.2,0.5-0.3,0.9-0.5,1.4c-2.2,6.2-4.4,12.7-6.2,21.7
					c-2.8,13.9-2.8,25.6-2.5,32.3c0.7,16.8,3.9,20.6,2.5,34.2c-0.8,7.2-2.4,13.1-3.7,16.8c-0.8-3.6-2-9-3.7-15.5
					c-6.9-26.1-10-27.5-12.4-39.7c-0.7-3.3-5.6-30.5,6.9-55.9c3-6.1,4.4-6.8,9.3-16.8c0.1-0.2,0.2-0.4,0.3-0.6
					c-0.3-0.4-0.6-0.8-0.8-1.2c-5.9-7.8-13.5-12.2-28.6-21.1c-2.3-1.3-4.5-2.6-6.5-3.7c-9.7-5.4-21.5-4.5-30.5,2
					C21.4,286.6,0,325.3,0,369.1v73.9c0,15.7,12.7,28.3,28.3,28.3h206.3c15.7,0,28.3-12.7,28.3-28.3v-73.9
					C262.6,323.6,239.4,283.5,204.3,259.9z"/>
			</g>
		</g>
	</g>
	<g>
		<g>
			<circle class="st0" cx="368.3" cy="110.4" r="81.7"/>
		</g>
	</g>
	<g>
		<g>
			<path class="st0" d="M380.6,421.1l-5.7-16.8c-2-5.8-3.4-11.8-3.9-17.8c-0.9-8.4-0.1-13.5,0.8-19.4c0.7-4.1,1.3-8.7,1.7-15.5
				c0.4-10.5-0.3-20.9-2.4-31.1c-1-4.9-2.1-9.1-3.3-12.9c-0.8,2.6-1.4,5.4-2,8.5c-2,10.1-2.8,20.6-2.4,31.1c0.3,6.8,1,11.4,1.7,15.5
				c0.9,5.9,1.7,11,0.8,19.4c-0.7,6-2,12-3.9,17.8l-5.7,16.8l-3.8-17.3c-0.8-3.5-2-8.9-3.7-15.3c-3.6-13.9-6.1-20.4-8.1-25.8
				c-1.8-4.6-3.1-8.2-4.4-14.2c-1-5.3-5.6-32.9,7.2-59c1.4-2.8,2.4-4.6,3.7-6.5c1.2-1.9,2.5-4.1,4.6-8.1
				c-5.3-6.4-12.6-10.6-26.1-18.6c-5.4-3.2-9.8-5.5-13.3-7.4c-8.5-4.4-13.7-7.2-15.1-13.9c-2-9.6,5.6-19.5,14.2-24.5
				c7.5-4.4,17.1-5.3,27.1-2.5c12,3.2,22.7,11.1,28.1,20.5c0.7,1.2,1.1,2.1,1.3,2.9c0.1-0.5,0.2-0.9,0.3-1.3c0.4-2.3,0.8-3.5,2.2-6
				c5.4-9.5,16.2-17.3,28.1-20.5c10.1-2.7,19.6-1.8,27.1,2.6c8.5,4.9,16.1,15,14.2,24.5c-1.4,6.7-6.5,9.5-15.1,13.9
				c-3.5,1.8-8,4.2-13.3,7.4c-14.5,8.5-21.7,12.8-27.1,19.9c-0.6,0.8-1.1,1.4-1.6,2.2c0.6,1.2,1.1,2.3,1.5,3.2
				c2.7,5.4,4.3,8,5.6,10.2c1.2,1.9,2.3,3.7,3.7,6.5c12.7,26,8.3,53.7,7.2,59c-1.2,6-2.6,9.6-4.4,14.2c-2,5.3-4.5,11.9-8.2,25.8
				c-1.7,6.5-2.9,11.8-3.7,15.3L380.6,421.1z M367.5,277.1l6.8,19c2.1,6.1,4.5,13,6.4,22.4c2.2,11,3,22.2,2.6,33.4
				c-0.3,7.4-1.1,12.3-1.8,16.7c-0.6,3.7-1.1,6.7-1.1,10.4c2.8-10,4.9-15.6,6.6-19.9c1.7-4.4,2.8-7.4,3.9-12.7
				c0.9-4.7,4.9-29.6-6.5-52.8c-1.3-2.5-2.2-4-3.3-5.8c-1.5-2.4-3.2-5.2-6.1-11c-0.8-1.6-1.8-3.6-2.8-5.9l-1.1-2.3l1.3-2.2
				c1.1-1.9,2.3-3.7,3.6-5.4c6.5-8.5,14.4-13.2,30-22.4c5.6-3.3,10.1-5.7,13.7-7.5c7.6-4,9.6-5.2,10-7.2c0.9-4.4-4.2-11-9.5-14l0,0
				c-5.2-3-12.1-3.5-19.5-1.6c-9.4,2.5-18,8.7-22.1,15.8c-0.7,1.2-0.7,1.3-1,3c-0.4,2.1-1.1,5.6-3.5,13.4c-0.5,1.6-1,3-1.5,4.4
				l-5.4,15.6l-4.4-14.2l-0.4-1.3c-2.4-7.8-3.1-11.3-3.5-13.4c-0.3-1.7-0.3-1.8-1-3c-4.1-7.1-12.7-13.3-22.1-15.8
				c-7.5-2-14.4-1.4-19.5,1.6c-5.2,3-10.4,9.6-9.5,14c0.4,1.9,2.4,3.2,10,7.2c3.6,1.9,8.1,4.3,13.7,7.5c15.6,9.1,23.4,13.7,30,22.4
				l2.3,3.4l-0.9,2.9c-3.2,6.5-4.9,9.3-6.5,11.7c-1.1,1.7-2,3.3-3.2,5.7c-11.6,23.8-7,49.8-6.5,52.8c1,5.2,2.2,8.2,3.9,12.7
				c1.7,4.3,3.8,10,6.6,19.9c0-3.7-0.5-6.7-1.1-10.4c-0.7-4.4-1.4-9.2-1.8-16.6c-0.4-11.2,0.4-22.5,2.6-33.4
				c1.8-9.3,4.2-15.9,6.4-22.4L367.5,277.1z M355.7,269.4l0.3,0.1l0.6-0.8L355.7,269.4z"/>
		</g>
	</g>
	<g>
		<g>
			<g>
				<path class="st0" d="M362.1,225.3c2.3,3.9,0.4,3,4.9,17.3c0.2,0.5,0.3,0.8,0.4,1.3c0.7-1.9,1.3-3.7,1.9-5.7
					c4.5-14.3,2.7-13.4,4.9-17.3c0.2-0.3,0.4-0.7,0.7-1.1c-2.3-0.1-4.5-0.3-6.9-0.3c-3.4,0-6.8,0.2-10.1,0.4
					C359.8,221.6,361.1,223.4,362.1,225.3z"/>
			</g>
		</g>
		<g>
			<g>
				<path class="st0" d="M434.6,237.5c-5.4-3.2-12-3.4-17.4-0.4c-2.5,1.3-5.4,2.9-8.5,4.8c-15.1,8.9-22.5,13.3-28.6,21.1
					c-1.2,1.6-2.3,3.2-3.3,4.9c1,2.2,1.9,4.1,2.7,5.7c4.9,10.1,6.4,10.7,9.3,16.8c12.5,25.4,7.5,52.6,6.9,55.9
					c-2.4,12.3-5.6,13.6-12.4,39.7c-1.7,6.5-2.9,11.9-3.7,15.5c-1.3-3.7-2.9-9.6-3.7-16.8c-1.4-13.5,1.8-17.4,2.5-34.2
					c0.3-6.7,0.3-18.4-2.5-32.3c-1.8-9-4-15.5-6.2-21.7c-0.8-2.1-1.4-4-2-5.9c-0.2,0.5-0.3,0.9-0.5,1.4c-2.2,6.2-4.4,12.7-6.2,21.7
					c-2.8,13.9-2.8,25.6-2.5,32.3c0.7,16.8,3.9,20.6,2.5,34.2c-0.8,7.2-2.4,13.1-3.7,16.8c-0.8-3.6-2-9-3.7-15.5
					c-6.9-26.1-10-27.5-12.4-39.7c-0.7-3.2-5.6-30.5,6.9-55.9c3-6.1,4.4-6.8,9.3-16.8c0.1-0.2,0.2-0.4,0.3-0.6
					c-0.3-0.4-0.6-0.8-0.8-1.2c-5.9-7.8-13.5-12.2-28.6-21.1c-5-2.9-9.2-5.2-12.6-7c-5.6-2.9-12.4-2.7-17.8,0.8
					c-12.9,8.2-24.2,18.7-33.5,30.7c-4.6,5.9-4.6,14.2-0.3,20.5c14.3,21,22.8,46.5,22.8,74v70.3c0,9.7,7.9,17.5,17.5,17.5h178.1
					c9.7,0,17.5-7.9,17.5-17.5v-84.7C499.8,302.5,473.5,260.3,434.6,237.5z"/>
			</g>
		</g>
	</g>
</g>
</svg>
