<?xml version="1.0" encoding="utf-8"?>
<!-- Generator: Adobe Illustrator 23.0.2, SVG Export Plug-In . SVG Version: 6.00 Build 0)  -->
<svg version="1.1" id="Layer_1" xmlns="http://www.w3.org/2000/svg" xmlns:xlink="http://www.w3.org/1999/xlink" x="0px" y="0px"
	 viewBox="0 0 500 500" style="enable-background:new 0 0 500 500;" xml:space="preserve">
<style type="text/css">
	.st0{fill:#79863E;}
</style>
<path class="st0" d="M250,18.8c69.5,0,126.1,57.1,126.1,127.3V200v18.8h18.8l11.9,0c6.7,0,13,2.6,17.8,7.4
	c4.8,4.8,7.5,11.3,7.5,18.3l0,211c0,14.2-11.3,25.7-25.3,25.7H93.2c-14,0-25.3-11.5-25.3-25.7v-211c0-14.1,11.4-25.7,25.3-25.7h11.9
	h18.8V200v-53.9C123.9,75.9,180.5,18.8,250,18.8 M149.9,218.8h18.8h162.7h18.8l0-18.8l0-53.9c0-55.6-44.9-100.8-100.2-100.8
	S149.9,90.5,149.9,146.1V200V218.8 M212.8,362v18.5c0,14.5,11.7,26.2,26.2,26.2h22.1c14.4,0,26.2-11.8,26.2-26.2V362
	c10.7-10.1,16.9-24.2,17-39.3l0,0v0c0-30-24.3-54.5-54.2-54.5c-29.9,0-54.2,24.4-54.2,54.5C195.9,337.7,202.1,351.8,212.8,362
	 M250,0c-79.9,0-144.9,65.5-144.9,146.1V200H93.2c-24.3,0-44.1,19.9-44.1,44.5v211c0,24.6,19.7,44.5,44.1,44.5h313.7
	c24.3,0,44.1-19.9,44.1-44.5l0-211c0.1-24.6-19.7-44.5-44.1-44.5l0,0h-11.9v-53.9C394.9,65.5,329.9,0,250,0L250,0z M168.7,200v-53.9
	c0-45.2,36.5-82,81.4-82c44.8,0,81.4,36.8,81.4,82l0,53.9H168.7L168.7,200z M239,387.9c-4,0-7.4-3.3-7.4-7.4v-27.6
	c-10.1-6.3-16.9-17.4-16.9-30.3c0-19.7,15.9-35.7,35.4-35.7c19.5,0,35.4,16,35.4,35.7c-0.1,12.9-6.8,24-17,30.3h0v27.6
	c0,4.1-3.3,7.4-7.4,7.4H239L239,387.9z"/>
</svg>
