<?xml version="1.0" encoding="utf-8"?>
<!-- Generator: Adobe Illustrator 23.0.2, SVG Export Plug-In . SVG Version: 6.00 Build 0)  -->
<svg version="1.1" id="Layer_1" xmlns="http://www.w3.org/2000/svg" xmlns:xlink="http://www.w3.org/1999/xlink" x="0px" y="0px"
	 viewBox="0 0 500 500" style="enable-background:new 0 0 500 500;" xml:space="preserve">
<style type="text/css">
	.st0{fill-rule:evenodd;clip-rule:evenodd;fill:#78863F;}
	.st1{fill:#78863F;}
</style>
<g>
	<g>
		<g>
			<g>
				<path class="st0" d="M453.8,67.8C389.1-1.8,280.3-5.7,210.7,59c-60.1,55.9-71.1,144.8-31.2,212.8l-0.2-0.3L5.9,433
					c-7.5,7-7.9,18.8-0.9,26.2l20.5,22c7,7.5,18.8,7.9,26.2,0.9l172.4-160.5c65.4,49.8,158.9,46.9,221.1-10.9
					C514.7,246.2,518.6,137.3,453.8,67.8z M413.4,276.8c-50.7,47.2-130,44.4-177.2-6.4c-47.2-50.7-44.4-130,6.4-177.2
					c50.7-47.2,130-44.4,177.2,6.4C467,150.2,464.1,229.6,413.4,276.8z"/>
			</g>
		</g>
	</g>
	<g>
		<g>
			<g>
				<path class="st1" d="M403.3,203.7H252.6c-8.7,0-15.9-7.1-15.9-15.9v-5.6c0-8.7,7.1-15.9,15.9-15.9h150.7
					c8.7,0,15.9,7.1,15.9,15.9v5.6C419.2,196.6,412.1,203.7,403.3,203.7z"/>
			</g>
		</g>
	</g>
</g>
</svg>
