<?xml version="1.0" encoding="utf-8"?>
<!-- Generator: Adobe Illustrator 23.0.2, SVG Export Plug-In . SVG Version: 6.00 Build 0)  -->
<svg version="1.1" xmlns="http://www.w3.org/2000/svg" xmlns:xlink="http://www.w3.org/1999/xlink" x="0px" y="0px"
	 viewBox="0 0 500 500" style="enable-background:new 0 0 500 500;" xml:space="preserve">
<style type="text/css">
	.st0{fill:#78863F;}
</style>
<g id="Layer_1">
</g>
<g id="Layer_2">
	<g>
		<path class="st0" d="M316.5,275.6c-3.9-2.6-8.1-4.3-12.5-5.2c3-2.2,5-4.5,5.7-8.1c1.9-9-5.6-18.8-13.7-23.4
			c-7.3-4.3-16.6-5.1-26.4-2.5c-11.8,3.1-22.4,10.9-27.6,20.1c-1.4,2.3-1.6,3.5-2,5.7c-0.3,1.2-0.6,2.9-1.4,6
			c-0.1-0.7-0.3-1.1-0.3-1.6c-0.4-2.1-0.7-3.3-2-5.7c-5.2-9.2-15.8-16.9-27.5-20.1c-9.8-2.6-19.1-1.7-26.4,2.5
			c-8,4.6-15.5,14.5-13.7,23.4c0.5,2.4,1.7,4.2,3.2,5.8c-5,0.9-9.9,3-14.2,6.1c-35.8,26-57.1,67.9-57.1,112.1V465
			c0,19.3,15.7,35,35,35h207.2c19.4,0,35.1-15.8,35.3-34.9v-74.3C378.1,344.5,355.1,301.5,316.5,275.6z M186.9,252.6
			c5.4-3.1,11.3-3,19.1-0.9c9.7,2.6,14.3,5,19.7,11.1c1,1.2,3.1,4.4,4,6c1,1.8,2,4.9,4.4,12.7l4,12.3l4.3-12.3
			c0.5-1.4,1-2.8,1.5-4.4c2.4-7.7,4.6-11.2,5-13.3c0.3-1.7,4.3-7.7,5-9c4.2-7.4,8.8-7,18.5-9.6c7.8-2.1,12.8-0.9,18.2,2.3
			c5.7,3.3,9.4,7.9,8.3,13c-0.5,2.6-2,4.1-9.7,8.2c-1.8,0.9-3.3,2-5,3.3c-1.8,0.7-3.6,1.4-5.3,2.4l-2.5,1.4
			c-15.3,9-23.8,14-30.6,22.9c-1.4,1.8-2.6,3.7-3.7,5.6l-1.7,2.9l1.4,3.1c1,2.3,2,4.3,2.8,5.9c2.9,5.9,4.7,8.8,6.2,11.2
			c1,1.7,2,3.1,3.1,5.6c11.5,23.4,6.9,49.1,6.3,52c-1,5.1-2.1,8-3.8,12.4c-0.5,1.2-1,2.7-1.6,4.3c0.4-3,0.7-6.5,0.9-10.8
			c0.5-11.4-0.4-22.8-2.6-34c-1.9-9.5-4.3-16.6-6.5-22.7l-8.3-23.2l-6.6,18.8c-2.2,6.2-4.6,13.2-6.5,22.7c-2.2,11.1-3.1,22.5-2.6,34
			c0.2,4.3,0.5,7.8,0.9,10.8c-0.6-1.6-1.1-2.9-1.6-4.3c-1.7-4.4-2.8-7.3-3.8-12.4c-0.6-2.9-5.2-28.7,6.3-52c1.2-2.4,2.1-3.9,3.1-5.6
			c1.4-2.4,3.2-5.3,6.2-11.2l1.6-4.6l-2.9-4.1c-6.8-8.9-15.2-13.9-30.6-22.9c-2.4-1.4-4.6-2.7-6.7-3.8c-3-1.6-6.2-2.8-9.4-3.5
			c-6.9-3.6-6.6-4.4-7.1-6.9C177.9,260.8,181.2,255.9,186.9,252.6z M364.7,465c0,12.1-9.8,21.9-21.9,21.9H135.5
			c-12.1,0-21.9-9.8-21.9-21.9v-74.3c0-40,19.4-77.9,51.8-101.6c3.9-2.8,8.4-4.3,13.1-4.3c3.7,0,7.3,0.9,10.5,2.7
			c2,1,4.1,2.2,6.3,3.6c13.1,7.7,19.9,11.7,25.1,17.6c-1.7,3.3-2.9,5.3-4,7.1c-1.2,2-2.4,3.8-3.8,6.7c-13.1,26.6-8.4,54.9-7.4,60.3
			c1.2,6.2,2.6,9.9,4.4,14.6c2,5.2,4.6,11.8,8.2,25.7c1.6,6.5,2.9,11.8,3.7,15.4l5,22.8l7.5-22.2c2-6,3.4-12.1,4.1-18.3
			c0.9-8.7,0.1-13.9-0.9-19.9c-0.7-4.1-1.4-8.7-1.6-15.4c-0.5-10.4,0.3-20.7,2.4-30.9c0.2-1,0.4-1.9,0.6-2.7
			c0.6,2.2,1.1,4.6,1.6,7.1c2,10.1,2.7,20.5,2.4,30.9c-0.3,6.8-1,11.4-1.6,15.4c-1,6-1.8,11.3-0.9,19.9c0.7,6.2,2,12.3,4.1,18.3
			l7.6,22.1l5-22.8c0.8-3.5,2-8.8,3.7-15.3c3.7-13.9,6.2-20.4,8.2-25.7c1.8-4.7,3.1-8.4,4.4-14.6c1-5.4,5.7-33.6-7.4-60.3
			c-1.4-2.9-2.6-4.7-3.8-6.7c-1.4-2.2-2.9-4.8-5.6-10.1c-0.3-0.7-0.7-1.5-1.1-2.4c0.3-0.5,0.7-1,1-1.4c5.2-6.9,12-10.9,26.8-19.6
			l2.4-1.4c7.3-4.2,16.4-3.9,23.6,1c34.9,23.4,55.8,62.4,55.8,104.3V465z"/>
		<path class="st0" d="M328.9,75.6c-1.7-14.4-6.9-47.4-20.3-63.9c-13.7-16.9-31.1-11.7-46.4-7.1c-6.5,2-13.3,4-20.4,4.8
			c-19,2.1-22.4,11.6-24.1,20.3c-0.7,3.3-1,4.3-1.8,4.8c-4.3,2.7-11.1,3.5-17.1,4.1c-4.8,0.5-9.5,1-13.3,2.6
			c-5.7,2.2-13.7,9-16.9,13.4c-1,1.4-3.9,5.4-8.8,22.1c-59.3,6.2-59.3,15.8-59.3,20.9c0,5.5,0,15.5,65.4,21.5
			c-3,9-4.5,18.3-4.5,27.8c0,48.9,39.8,88.7,88.7,88.7c48.9,0,88.7-39.8,88.6-88.7c0-9.5-1.5-18.8-4.5-27.8
			c65.4-6,65.4-16,65.4-21.5C399.5,91.9,399.5,81.5,328.9,75.6z M250,222.4c-41.7,0-75.6-33.9-75.6-75.6c0-8.9,1.7-17.7,4.8-26
			c71.5,8.6,120.8,3.8,141.8,0.6c3,8.2,4.5,16.7,4.5,25.4C325.6,188.5,291.7,222.4,250,222.4z M324.4,106.8l-9.2,0.7
			c-60.8,7-130.2,0-130.2,0l-9.2-0.7c-33.4-2.7-50.8-6.5-58.4-9.2c6.7-2.4,21.3-5.8,48.7-8.2l4.1-0.7l1.1-4
			c3.8-13.3,6.7-20.4,8.2-22.4c2-2.7,8.2-7.7,11-8.8c2.2-0.9,6-1.3,10-1.8c7.3-0.9,15.7-1.8,22.5-6c5.8-3.7,6.9-9.4,7.7-13.5
			c1-5.5,1.6-8.5,12.6-9.8c8.2-0.9,15.9-3.2,22.7-5.2c16.4-4.9,24.7-6.8,32.5,2.8c11,13.5,16.6,45.6,18.1,62.4l0.5,5.5l5.5,0.4
			c34.7,2.7,52.7,6.5,60.3,9.4C375.2,100.3,357.8,104.1,324.4,106.8z"/>
	</g>
</g>
</svg>
