<?xml version="1.0" encoding="utf-8"?>
<!-- Generator: Adobe Illustrator 23.0.2, SVG Export Plug-In . SVG Version: 6.00 Build 0)  -->
<svg version="1.1" id="Layer_1" xmlns="http://www.w3.org/2000/svg" xmlns:xlink="http://www.w3.org/1999/xlink" x="0px" y="0px"
	 viewBox="0 0 500 500" style="enable-background:new 0 0 500 500;" xml:space="preserve">
<style type="text/css">
	.st0{fill-rule:evenodd;clip-rule:evenodd;fill:#4473B9;}
</style>
<g>
	<path class="st0" d="M274.9,233.6c-7.5-0.8-14,1.5-19.5,8.1v-40.5l-19.9,2.4v93.8h19.9v-5.6c2.7,1.9,5.3,4.2,8.3,5.3
		c11.6,4.2,26.9,0.8,32.2-14.7c3.4-9.9,3.3-20.1,0.8-30.2C293.8,241,286.4,234.9,274.9,233.6z M277.9,274.3c-0.9,6.2-5.8,9.4-11.6,9
		c-1.5-0.1-2.8-0.4-4-0.9c-4.7-2.7-6.1-7.2-6.5-10.1c0,0,0,0,0,0c-0.3-4.4-0.7-13.6,1.5-17.9c1.8-3.3,5-5.1,9.2-5.3
		c6-0.2,10.5,2.8,11.4,8.9C278.6,263.3,278.6,268.9,277.9,274.3L277.9,274.3z"/>
	<path class="st0" d="M345.4,234.8c-6.9-1.8-13.9-1.8-20.8,0c-10.3,2.8-17.3,9.3-19.5,19.7c-1.2,5.7-1.5,11.7-1.1,17.5
		c0.7,13.3,9,22.8,21.7,25.7c0.2,0,0.4,0.1,0.5,0.1h0c0,0,0,0,0.1,0c0.5,0.1,1,0.2,1.5,0.3c0.2,0,0.3,0,0.5,0h0
		c0.6,0.1,1.4,0.2,2.1,0.3c2.5,0.3,5.7,0.5,8.3,0.1c0,0,0,0,0,0c0.1,0,0.3,0,0.4,0c13.2-0.7,23.2-9,26.1-21.8c1.6-7,1.6-14,0.1-21
		C363,244.8,356.4,237.7,345.4,234.8L345.4,234.8z M346.2,273.3c-0.1,0.4-0.1,0.8-0.2,1.2c-1.3,5.9-5.6,9-11.3,8.8
		c-6.1-0.3-10.3-3.9-10.9-10c-0.4-4.5-0.5-9-0.1-13.5c0.6-7,5-10.9,11.6-10.8c5.4,0.1,9.3,3.2,10.7,8.4
		C347.3,262.7,346.4,272.1,346.2,273.3z"/>
	<path class="st0" d="M46.7,234.5H32.5V225c1-8.9,15.8-7.2,15.8-7.2l0-0.6l0-0.1v-14.7h0v0h0c-0.5-0.1-29.3-7-35.1,15c0,0,0,0,0,0
		c0,0,0,0.1,0,0.1c-0.9,2.7-0.8,15.3-0.8,16.9H0v16.8h13.1V297h19v-45.7h14.6l1.6-16.8C48.3,234.5,46.7,234.5,46.7,234.5z"/>
	<path class="st0" d="M92.1,242.5c-0.2-0.3-0.5-0.5-0.7-0.7v0c0,0-0.1-0.1-0.1-0.1c-0.3-0.3-0.5-0.5-0.5-0.5
		c-4.5-4.6-6.2-5.7-9.7-6.7c-13.5-4-26.7,3.1-30.8,16.7c-2.6,8.3-2.6,16.9-1.1,25.4c3.2,18.3,16.9,24.4,31.4,21.4
		c4.5-0.9,7.8-3.7,10.8-7.6c0,0,0.3-0.3,0.6-1v8.1h18.6v-62.9H92.1L92.1,242.5L92.1,242.5z M90.4,274.2c-0.6,5.8-5.3,9.3-10.9,9.1
		c-5.7-0.2-9.5-3.3-10.7-8.7c-1.5-7.8,0.3-17,0.4-17.8c1.5-5.2,5.3-7.8,10.9-7.7c5.5,0.1,9.7,3.4,10.3,9
		C91,263.4,91,268.9,90.4,274.2z"/>
	<path class="st0" d="M167.4,293c-0.9-3.2-1.8-6.3-2.8-9.3l-0.9-3.3c0,0-23.3,11.2-26.9-10.1c-0.3-3.5-0.2-7.1,0.2-10.6
		c0.9-6.5,4.9-10,11.2-10.6c2.1-0.2,4.4-0.1,6.5,0.3c2.9,0.5,5.7,1.4,8.9,2.1c1.1-3.4,2.2-6.7,3.3-10c0.2-0.5,0.3-1,0.4-1.4h0l0.5-2
		c-0.1-0.3-0.4-0.5-0.9-0.8v0c-0.5-0.4-1.4-0.8-2.9-1.3c-0.6-0.2-1.1-0.4-1.7-0.6c-0.5-0.2-0.8-0.3-0.8-0.3h0
		c-6.1-1.7-12.4-1.9-18.8-1.2c-13.4,1.4-22.6,9.4-25.1,22.4c-1.3,6.9-1.3,13.9,0.3,20.8c2.3,10.3,8.6,17,18.8,20
		c6.7,1.9,13.5,2,20.3,1c2.9-0.4,6.9-1.9,9.9-3l1.1-0.4L167.4,293L167.4,293L167.4,293z"/>
	<path class="st0" d="M228.7,268.3c-0.1-4.4,0-8.7-0.6-13c-1.7-11.7-8.8-19.2-20.4-21.1c-4.4-0.7-9.1-0.6-13.6-0.2
		c-12.3,1.2-21.6,8.8-23.5,20.3c-1.2,7-1.3,14.4-0.4,21.4c1.4,10.5,6.5,17.3,15.4,20.5h0c0,0,0.1,0,0.1,0c0,0,0,0,0,0
		c4.1,1.2,23.9,6.4,41.4-2.4l-0.7-2.6c0,0,0,0,0,0c-0.8-3.4-1.8-6.8-2.7-10.2l-0.1-0.3c0,0-0.4,0.1-1,0.3c0,0,0,0,0,0
		c-0.8,0.2-1.5,0.4-2.3,0.7c-0.1,0-0.3,0.1-0.4,0.1c-2.6,0.7-6.4,1.7-10.4,2.2c-3.4,0.3-6.7,0.4-10.2,0.1c-5.6-0.9-9.8-3.9-9.6-10.9
		h3.2c10.9,0,21.8,0,32.7,0c0.3,0,0.5,0,0.8,0l0,0c0,0,2.3,0,2.4-0.1c0,0,0-0.6,0-0.7L228.7,268.3L228.7,268.3z M210.8,259.8h-21.5
		c0.1-4.3,0.6-8.3,4.4-10.7c4-2.6,8.5-2.7,12.6-0.4C210.5,251,210.9,255.2,210.8,259.8z"/>
	<polygon class="st0" points="500,235.2 478.9,235.2 460.6,263.8 460.6,204 460.6,203.6 460.6,201.2 440.7,203.6 440.7,297.5 
		460.6,297.5 460.6,268.8 478.9,297.5 500,297.5 480.1,266.3 	"/>
	<path class="st0" d="M413.3,234.8c-6.9-1.9-13.9-1.8-20.8,0c-10.3,2.8-17.3,9.3-19.5,19.7c-1.2,5.7-1.5,11.7-1.1,17.5
		c0.7,13.3,9,22.8,21.7,25.7c0.2,0,0.4,0.1,0.6,0.1h0c0,0,0,0,0.1,0c0.5,0.1,1,0.2,1.5,0.3c0.2,0,0.3,0,0.5,0c0,0,0,0,0,0
		c0.6,0.1,1.4,0.2,2.1,0.3c2.5,0.3,5.7,0.5,8.3,0.1c0,0,0,0,0,0c0.1,0,0.3,0,0.4,0c13.2-0.7,23.2-9,26.1-21.8c1.6-7,1.6-14,0.1-21
		C430.9,244.8,424.2,237.7,413.3,234.8L413.3,234.8z M414.1,273.2c-0.1,0.4-0.1,0.8-0.2,1.2c-1.3,5.9-5.6,9-11.3,8.8
		c-6.1-0.3-10.3-3.9-10.9-10c-0.4-4.5-0.5-9-0.1-13.5c0.6-7,5-10.9,11.6-10.8c5.4,0.1,9.3,3.2,10.7,8.4
		C415.2,262.7,414.2,272,414.1,273.2z"/>
</g>
</svg>
