<?xml version="1.0" encoding="utf-8"?>
<!-- Generator: Adobe Illustrator 23.0.2, SVG Export Plug-In . SVG Version: 6.00 Build 0)  -->
<svg version="1.1" id="Layer_1" xmlns="http://www.w3.org/2000/svg" xmlns:xlink="http://www.w3.org/1999/xlink" x="0px" y="0px"
	 viewBox="0 0 500 500" style="enable-background:new 0 0 500 500;" xml:space="preserve">
<style type="text/css">
	.st0{fill:#79863E;}
</style>
<g>
	<g>
		<g>
			<path class="st0" d="M265.7,500h-31.5c-19.5,0-35.4-16.4-35.4-36.4l-1.6-306.1l-83.8,59.7c-7.6,5.6-17.1,7.7-26.4,6.1
				c-9.5-1.6-17.7-7.1-23.1-15.2l-18-26.9c-10.9-16.4-7-38.9,8.7-50.3l173-124.3c4.3-3.1,9.2-5.1,14.6-6.1c2.6-0.3,4.6-0.4,6.1-0.5
				c1.5,0.1,3.3,0.2,5.1,0.4l1.2,0.2c5.8,1.1,10.3,3.1,14.2,6l176.6,119.2c15.7,11.4,19.6,34.1,8.7,50.3l-18,27
				c-5.5,8.1-13.7,13.6-23.1,15.2c-9.4,1.6-18.7-0.5-26.5-6.2l-87.1-55.8l1.6,307.2C301.1,483.7,285.2,500,265.7,500z M221.1,110.7
				l2,352.8c0,6.8,5,12.2,11.2,12.2h31.5c6.2,0,11.2-5.5,11.2-12.1l-2-351.6l125.2,80.2c3,2.1,5.8,2.8,8.5,2.3
				c2.9-0.5,5.5-2.3,7.2-4.8l18-26.9c3.7-5.5,2.5-13.3-2.7-17.2L254.8,26.4c-1.6-1.1-3.1-1.7-4.8-2.1h-0.1l0,0
				c-0.6-0.1-0.7-0.3-1.7-0.2c-0.4,0-0.9,0-1.3,0.1l-1.3,0.2c-1.1,0.2-2.6,0.8-3.8,1.7l-173,124.3c-5.1,3.8-6.5,11.7-2.8,17.3
				l18,26.9c1.7,2.6,4.3,4.3,7.2,4.8c2.8,0.5,5.7-0.2,8-1.9L221.1,110.7z"/>
		</g>
	</g>
</g>
</svg>
