<?xml version="1.0" encoding="utf-8"?>
<!-- Generator: Adobe Illustrator 23.0.2, SVG Export Plug-In . SVG Version: 6.00 Build 0)  -->
<svg version="1.1" id="Layer_1" xmlns="http://www.w3.org/2000/svg" xmlns:xlink="http://www.w3.org/1999/xlink" x="0px" y="0px"
	 viewBox="0 0 500 500" style="enable-background:new 0 0 500 500;" xml:space="preserve">
<style type="text/css">
	.st0{fill:#79863E;}
</style>
<g>
	<g>
		<g>
			<circle class="st0" cx="208.4" cy="156.2" r="81.7"/>
		</g>
	</g>
	<g>
		<g>
			<path class="st0" d="M220.4,462.6l-4.4-13c-2-5.7-3.3-11.7-3.9-17.6c-0.9-8.3-0.1-13.3,0.8-19.1c0.7-4.1,1.4-8.8,1.6-15.6
				c0.5-10.5-0.4-21.1-2.4-31.4c-1.3-6.5-2.9-11.7-4.4-16.4c-1.1,3.6-2.1,7.5-3,12c-2,10.2-2.9,21-2.4,31.4c0.3,6.9,1,11.5,1.6,15.6
				c0.9,5.8,1.7,10.8,0.8,19.1c-0.7,5.9-2,11.8-3.9,17.6l-4.4,13l-2.9-13.3c-0.8-3.5-2-8.9-3.7-15.4c-3.6-13.9-6.2-20.6-8.2-25.9
				c-1.8-4.5-3.1-8.1-4.2-14.1c-1-5.2-5.5-32.6,7.2-58.3c1.4-2.8,2.4-4.6,3.6-6.4c1.2-2.1,2.7-4.4,4.9-8.9
				c-5.5-6.8-12.8-11.1-26.9-19.4c-5.4-3.2-9.8-5.5-13.3-7.4c-8.5-4.5-13.2-6.9-14.5-13.1c-1.8-8.9,5.7-18.7,13.6-23.3
				c7.2-4.2,16.5-5.1,26.2-2.5c11.7,3.1,22.2,10.8,27.4,20c1.3,2.3,1.6,3.6,2,5.7c0.1,0.5,0.2,0.9,0.3,1.6c0.8-3,1.1-4.7,1.4-5.9
				c0.4-2.1,0.7-3.4,2-5.7c5.2-9.2,15.8-16.9,27.5-20c9.7-2.6,19-1.8,26.2,2.5l0,0c8,4.6,15.5,14.4,13.6,23.3
				c-1.3,6.2-6,8.7-14.5,13.1c-3.5,1.9-7.9,4.2-13.3,7.4c-14.6,8.6-21.9,12.9-27.5,20.1c-0.7,0.9-1.4,1.8-2,2.8
				c0.7,1.4,1.2,2.7,1.8,3.8c2.7,5.5,4.3,8,5.7,10.3c1.2,2,2.3,3.6,3.6,6.4c12.6,25.8,8.2,53.1,7.2,58.3c-1.2,6-2.5,9.5-4.2,14.1
				c-2,5.3-4.6,11.9-8.2,25.9c-1.7,6.4-2.9,11.8-3.7,15.4L220.4,462.6z M207.5,326.6l5.9,15.6c2.1,6.1,4.5,13,6.3,22.3
				c2.1,10.9,3,22,2.5,33.2c-0.3,7.3-1,12.2-1.8,16.5c-0.9,5.7-1.6,9.8-0.8,17.1c0,0.1,0,0.2,0.1,0.3c3.7-14.1,6.4-21.2,8.3-26.3
				c1.6-4.4,2.9-7.5,3.9-12.8c0.6-2.9,5.3-29.4-6.5-53.4c-1.2-2.5-2.2-4.1-3.3-5.8c-1.5-2.4-3.2-5.1-6.1-10.9
				c-0.8-1.6-1.8-3.6-2.7-5.8l-0.8-1.8l1-1.7c1.1-1.9,2.2-3.6,3.5-5.3c6.4-8.4,14.2-13,29.6-22.1c5.5-3.3,10.1-5.7,13.7-7.6
				c7.6-4,10.1-5.4,10.6-7.9c1-5-4.3-11.8-10-15.2c-5.4-3.1-12.6-3.8-20.4-1.7c-9.6,2.6-18.6,9-22.8,16.4c-0.8,1.4-0.8,1.6-1.1,3.3
				c-0.4,2.1-1,5.6-3.5,13.3c-0.5,1.6-1,3-1.5,4.4l-4.3,12.2l-4-12.2c-2.5-7.7-3.1-11.2-3.5-13.3c-0.3-1.7-0.4-2-1.2-3.3
				c-4.2-7.4-13.1-13.8-22.8-16.4c-7.7-2.1-15-1.5-20.4,1.7c-5.7,3.3-11,10.2-10,15.2c0.5,2.5,3,3.9,10.5,7.9
				c3.6,1.9,8.1,4.3,13.7,7.6c15.4,9.1,23.2,13.7,29.6,22.1l2,2.7l-0.7,2.5c-3.1,6.4-4.8,9.1-6.3,11.5c-1.1,1.8-2,3.3-3.3,5.8
				c-11.5,23.5-7.4,48.6-6.5,53.4c1,5.3,2.2,8.5,3.9,12.8c2,5.1,4.7,12.2,8.3,26.3c0-0.1,0-0.2,0-0.3c0.8-7.3,0.1-11.4-0.8-17.1
				c-0.7-4.3-1.4-9.2-1.8-16.5c-0.5-10.9,0.5-22.5,2.5-33.2c1.8-9.2,4.1-15.8,6.3-22.2L207.5,326.6z"/>
		</g>
	</g>
	<g>
		<g>
			<g>
				<path class="st0" d="M202.2,272.2c2.3,4,0.4,3,4.9,17.4c0.1,0.5,0.3,0.8,0.5,1.3c0.7-1.9,1.3-3.7,2-5.7
					c4.6-14.4,2.7-13.4,4.9-17.4c0.2-0.4,0.5-0.7,0.7-1c-2.3-0.1-4.6-0.3-6.8-0.3l0,0c-3.4,0-6.7,0.3-10,0.5
					C199.8,268.6,201.1,270.3,202.2,272.2z"/>
			</g>
		</g>
		<g>
			<g>
				<path class="st0" d="M281.4,288.7c-9.1-6.1-20.8-6.7-30.3-1.2c-0.8,0.5-1.6,0.9-2.4,1.4c-15,8.9-22.6,13.3-28.6,21.1
					c-1.2,1.6-2.3,3.2-3.3,4.9c1,2.2,2,4.1,2.7,5.7c4.9,10,6.3,10.7,9.3,16.7c12.4,25.4,7.5,52.7,6.8,55.9
					c-2.4,12.3-5.6,13.5-12.4,39.7c-1.7,6.5-2.9,11.9-3.7,15.5c-1.3-3.7-2.9-9.5-3.7-16.7c-1.4-13.5,1.8-17.4,2.5-34.1
					c0.3-6.7,0.3-18.4-2.5-32.3c-1.8-9-4-15.5-6.2-21.7c-0.7-2.1-1.4-4-2-5.9c-0.2,0.5-0.3,0.9-0.5,1.4c-2.1,6.2-4.4,12.8-6.2,21.7
					c-2.7,13.9-2.7,25.6-2.5,32.3c0.7,16.7,3.9,20.6,2.5,34.1c-0.8,7.2-2.5,13-3.7,16.7c-0.8-3.6-2-9-3.7-15.5
					c-6.8-26.2-10-27.5-12.4-39.7c-0.7-3.3-5.6-30.5,6.8-55.9c3-6.1,4.4-6.8,9.3-16.7c0.1-0.2,0.2-0.5,0.3-0.7
					c-0.3-0.4-0.5-0.8-0.8-1.2c-6-7.8-13.5-12.2-28.6-21.1c-2.3-1.4-4.5-2.6-6.4-3.7c-9.7-5.3-21.5-4.6-30.5,2
					C98.4,315.4,77,354.1,77,397.8v73.9c0,15.7,12.7,28.3,28.3,28.3h206.2c15.7,0,28.3-12.7,28.3-28.3v-73.9
					C339.9,352.3,316.6,312.3,281.4,288.7z"/>
			</g>
		</g>
	</g>
	<g>
		<path class="st0" d="M362.6,0c-33.3,0-60.3,27-60.3,60.3c0,33.3,27,60.3,60.3,60.3s60.3-27,60.3-60.3C423,27,396,0,362.6,0z
			 M405,70.4h-32.3v32.3c0,3.6-3,6.6-6.6,6.6h-6.8c-3.6,0-6.6-3-6.6-6.6V70.4h-32.3c-3.6,0-6.6-3-6.6-6.6V57c0-3.6,3-6.6,6.6-6.6
			h32.3V18c0-3.6,3-6.6,6.6-6.6h6.8c3.6,0,6.6,3,6.6,6.6v32.3H405c3.6,0,6.6,3,6.6,6.6v6.8C411.7,67.4,408.7,70.4,405,70.4z"/>
	</g>
</g>
</svg>
