<?xml version="1.0" encoding="utf-8"?>
<!-- Generator: Adobe Illustrator 23.0.2, SVG Export Plug-In . SVG Version: 6.00 Build 0)  -->
<svg version="1.1" id="Layer_1" xmlns="http://www.w3.org/2000/svg" xmlns:xlink="http://www.w3.org/1999/xlink" x="0px" y="0px"
	 viewBox="0 0 500 500" style="enable-background:new 0 0 500 500;" xml:space="preserve">
<style type="text/css">
	.st0{fill:#79863E;}
</style>
<g>
	<g>
		<g>
			<path class="st0" d="M355.4,169.6v5.5c0,7-5.7,12.7-12.7,12.7h-57.5c-20.4,0-36.9,16.6-36.9,36.9v50.5
				c0,20.4,16.6,36.9,36.9,36.9h57.5c7,0,12.7,5.7,12.7,12.7v5.5c0,9.2,8.1,14.9,14.5,10.4l56.5-40.2l42-29.8
				c14.2-10.1,14.2-31.2,0-41.3l-42-29.8l-56.5-40.2C363.4,154.7,355.4,160.3,355.4,169.6z"/>
		</g>
	</g>
	<g>
		<g>
			<path class="st0" d="M274.1,0H91.6H49.3C33.8,0,21.1,12.6,21.1,28.3v42.3v358.9v42.3c0,15.6,12.6,28.3,28.3,28.3h42.3h182.4h42.3
				c15.6,0,28.3-12.6,28.3-28.3v-42.3v-12.7c0-15.6-12.6-28.3-28.3-28.3h-14c-15.6,0-28.3,12.6-28.3,28.3l0,0
				c0,7-5.7,12.7-12.7,12.7H119.8c-15.6,0-28.3-12.6-28.3-28.3V98.8c0-15.6,12.6-28.3,28.3-28.3h141.5c7,0,12.7,5.7,12.7,12.7l0,0
				c0,15.6,12.6,28.3,28.3,28.3h14c15.6,0,28.3-12.6,28.3-28.3V70.6V28.3C344.6,12.7,332,0,316.4,0H274.1z"/>
		</g>
	</g>
</g>
</svg>
