<?xml version="1.0" encoding="utf-8"?>
<!-- Generator: Adobe Illustrator 23.0.2, SVG Export Plug-In . SVG Version: 6.00 Build 0)  -->
<svg version="1.1" id="Layer_1" xmlns="http://www.w3.org/2000/svg" xmlns:xlink="http://www.w3.org/1999/xlink" x="0px" y="0px"
	 viewBox="0 0 500 500" style="enable-background:new 0 0 500 500;" xml:space="preserve">
<style type="text/css">
	.st0{fill:#78863F;}
</style>
<g>
	<g>
		<circle class="st0" cx="369.7" cy="84.2" r="81"/>
	</g>
	<g>
		<path class="st0" d="M385.3,387.7l-4.4-12.8c-1.9-5.7-3.2-11.5-3.9-17.4c-0.9-8.2-0.1-13.2,0.8-18.9c0.6-4.1,1.4-8.7,1.6-15.5
			c0.5-10.5-0.4-20.9-2.4-31.1c-1.3-6.5-2.8-11.6-4.4-16.3c-1.1,3.5-2.1,7.4-3,11.9c-2,10.1-2.8,20.8-2.4,31.1
			c0.3,6.8,1,11.4,1.6,15.5c0.9,5.7,1.7,10.7,0.8,18.9c-0.6,5.9-1.9,11.7-3.9,17.4l-4.4,12.8l-2.9-13.2c-0.8-3.5-2-8.8-3.7-15.2
			c-3.6-13.8-6.1-20.4-8.1-25.7c-1.7-4.5-3-8-4.2-13.9c-1-5.2-5.4-32.3,7.1-57.7c1.4-2.8,2.4-4.5,3.6-6.4c1.2-2.1,2.6-4.3,4.9-8.8
			c-5.4-6.7-12.6-11-26.6-19.2c-5.4-3.2-9.7-5.5-13.2-7.3c-8.5-4.5-13.1-6.8-14.4-13c-1.8-8.8,5.6-18.5,13.5-23.1
			c7.2-4.1,16.4-5,26-2.5c11.5,3.1,22,10.7,27.2,19.8c1.3,2.3,1.6,3.5,2,5.6c0.1,0.5,0.2,0.9,0.3,1.5c0.8-3,1.1-4.6,1.4-5.9
			c0.4-2.1,0.6-3.4,2-5.6c5.2-9.1,15.6-16.7,27.2-19.8c9.6-2.6,18.8-1.7,26,2.5l0,0c7.9,4.6,15.4,14.3,13.5,23.1
			c-1.3,6.2-5.9,8.6-14.4,13c-3.5,1.9-7.9,4.1-13.2,7.3c-14.5,8.5-21.7,12.8-27.2,19.9c-0.7,0.9-1.4,1.9-1.9,2.8
			c0.6,1.4,1.2,2.6,1.8,3.7c2.6,5.4,4.3,7.9,5.6,10.2c1.2,1.9,2.3,3.6,3.6,6.4c12.5,25.6,8.1,52.6,7.1,57.8
			c-1.2,5.9-2.5,9.4-4.2,13.9c-2,5.3-4.5,11.8-8.1,25.7c-1.7,6.4-2.9,11.7-3.7,15.2L385.3,387.7z M372.5,252.9l5.8,15.5
			c2.1,6,4.5,12.8,6.3,22.1c2.1,10.8,3,21.8,2.5,32.9c-0.3,7.2-1,12.1-1.7,16.4c-0.9,5.6-1.5,9.7-0.8,16.9c0,0.1,0,0.2,0.1,0.3
			c3.7-14,6.3-21,8.3-26.1c1.6-4.3,2.8-7.4,3.9-12.7c0.6-2.9,5.3-29.1-6.5-53c-1.2-2.5-2.2-4.1-3.2-5.7c-1.5-2.4-3.2-5.1-6-10.8
			c-0.8-1.6-1.7-3.5-2.7-5.7l-0.8-1.8l1-1.7c1.1-1.9,2.2-3.5,3.5-5.3c6.4-8.3,14.1-12.8,29.4-21.9c5.5-3.2,7.9-5.8,11.5-7.7
			c7.5-4,9-5.5,9.5-8.1c1-5-2.6-9.5-8.2-12.8c-5.4-3.1-10.3-4.3-17.9-2.3c-9.5,2.6-14.1,2.2-18.3,9.5c-0.8,1.4-4.6,7.2-5,8.9
			c-0.4,2.1-2.6,5.5-5,13.1c-0.5,1.5-1,3-1.5,4.3l-4.3,12.1l-3.9-12.1c-2.5-7.7-3.4-10.7-4.4-12.5c-0.8-1.5-2.9-4.7-3.9-5.9
			c-5.4-5.9-9.9-8.4-19.4-10.9c-7.7-2.1-13.5-2.2-18.8,0.9c-5.6,3.3-8.9,8.1-7.9,13c0.5,2.5,0.1,3.2,7.7,7.2
			c3.6,1.9,8.1,4.3,13.6,7.5c15.3,9,23,13.6,29.4,21.9l1.9,2.7l-0.7,2.5c-3.1,6.3-4.8,9-6.3,11.4c-1.1,1.7-2,3.2-3.2,5.7
			c-11.4,23.3-7.4,48.2-6.5,53c1,5.3,2.2,8.4,3.9,12.6c1.9,5.1,4.6,12.1,8.3,26.1c0-0.1,0-0.2,0-0.3c0.8-7.2,0.1-11.3-0.8-16.9
			c-0.6-4.3-1.4-9.1-1.7-16.4c-0.5-10.8,0.5-22.3,2.5-32.9c1.8-9.2,4.1-15.7,6.3-22L372.5,252.9z"/>
	</g>
	<g>
		<circle class="st0" cx="126.5" cy="152.5" r="81"/>
	</g>
	<g>
		<path class="st0" d="M442.1,215.6c-9-6.1-20.6-6.6-30-1.2c-0.8,0.5-1.5,0.9-2.4,1.4c-14.9,8.8-22.4,13.2-28.3,20.9
			c-1.2,1.5-2.3,3.2-3.2,4.8c1,2.2,1.9,4.1,2.6,5.7c4.9,9.9,6.3,10.6,9.2,16.6c12.3,25.2,7.4,52.2,6.8,55.4
			c-2.4,12.2-5.5,13.4-12.3,39.4c-1.7,6.5-2.9,11.8-3.7,15.4c-1.3-3.7-2.9-9.4-3.7-16.6c-1.4-13.4,1.8-17.3,2.5-33.8
			c0.3-6.6,0.3-18.3-2.5-32c-1.7-8.9-4-15.4-6.1-21.6c-0.7-2.1-1.4-4-2-5.8c-0.2,0.5-0.3,0.9-0.5,1.4c-2.1,6.2-4.4,12.6-6.1,21.6
			c-2.7,13.7-2.7,25.4-2.5,32c0.7,16.6,3.9,20.5,2.5,33.8c-0.8,7.2-2.5,12.9-3.7,16.6c-0.8-3.5-2-8.9-3.7-15.4
			c-6.8-25.9-9.9-27.2-12.3-39.4c-0.6-3.2-5.5-30.2,6.8-55.4c3-6,4.3-6.7,9.2-16.6c0.1-0.2,0.2-0.5,0.3-0.6
			c-0.3-0.4-0.5-0.8-0.8-1.2c-5.9-7.7-13.4-12.1-28.3-20.9c-2.3-1.4-4.5-2.6-6.4-3.7c-9.6-5.3-21.4-4.5-30.3,1.9
			c-23.9,17.4-41.7,42.8-49.4,72.3c27.6,23.9,45,59,45,98.3v36h183.2c15.6,0,28.1-12.6,28.1-28.1v-73.2
			C499.9,278.6,477,238.9,442.1,215.6z"/>
	</g>
	<g>
		<path class="st0" d="M142.2,455.9l-4.4-12.8c-1.9-5.7-3.2-11.5-3.9-17.4c-0.9-8.2-0.1-13.2,0.8-18.9c0.6-4.1,1.4-8.7,1.6-15.5
			c0.5-10.5-0.4-20.9-2.4-31.1c-1.3-6.5-2.8-11.6-4.4-16.3c-1.1,3.5-2.1,7.4-3,11.9c-2,10.1-2.8,20.8-2.4,31.1
			c0.3,6.8,1,11.4,1.6,15.5c0.9,5.7,1.7,10.7,0.8,18.9c-0.6,5.9-1.9,11.7-3.9,17.4l-4.4,12.8l-2.9-13.2c-0.8-3.5-2-8.8-3.7-15.2
			c-3.6-13.8-6.1-20.4-8.1-25.7c-1.7-4.5-3-8-4.2-13.9c-1-5.2-5.4-32.3,7.1-57.7c1.4-2.8,2.4-4.5,3.6-6.4c1.2-2.1,2.6-4.3,4.9-8.8
			c-5.4-6.7-12.6-11-26.6-19.2c-5.4-3.2-9.7-5.5-13.2-7.3c-8.5-4.5-13.1-6.8-14.4-13c-1.8-8.8,5.6-18.5,13.5-23.1
			c7.2-4.1,16.4-5,26-2.5c11.5,3.1,22,10.7,27.2,19.8c1.3,2.3,1.6,3.5,2,5.6c0.1,0.5,0.2,0.9,0.3,1.5c0.8-3,1.1-4.6,1.4-5.9
			c0.4-2.1,0.6-3.4,2-5.6c5.2-9.1,15.6-16.7,27.2-19.8c9.6-2.6,18.8-1.7,26,2.5l0,0c7.9,4.6,15.4,14.3,13.5,23.1
			c-1.3,6.2-5.9,8.6-14.4,13c-3.5,1.9-7.9,4.1-13.2,7.3c-14.5,8.5-21.7,12.8-27.2,19.9c-0.7,0.9-1.4,1.9-1.9,2.8
			c0.6,1.4,1.2,2.6,1.8,3.7c2.6,5.4,4.3,7.9,5.6,10.2c1.2,1.9,2.3,3.6,3.6,6.4c12.5,25.6,8.1,52.6,7.1,57.8
			c-1.2,5.9-2.5,9.4-4.2,13.9c-2,5.3-4.5,11.8-8.1,25.7c-1.7,6.4-2.9,11.7-3.7,15.2L142.2,455.9z M129.4,321.1l5.8,15.5
			c2.1,6,4.5,12.8,6.3,22.1c2.1,10.8,3,21.8,2.5,32.9c-0.3,7.2-1,12.1-1.7,16.4c-0.9,5.6-1.5,9.7-0.8,16.9c0,0.1,0,0.2,0.1,0.3
			c3.7-14,6.3-21,8.3-26.1c1.6-4.3,2.8-7.4,3.9-12.7c0.6-2.9,5.3-29.1-6.5-53c-1.2-2.5-2.2-4.1-3.2-5.7c-1.5-2.4-3.2-5.1-6-10.8
			c-0.8-1.6-1.7-3.5-2.7-5.7l-0.8-1.8l1-1.7c1.1-1.9,2.2-3.5,3.5-5.3c6.4-8.3,14.1-12.8,29.4-21.9c5.5-3.2,7.9-5.8,11.5-7.7
			c7.5-4,9-5.5,9.5-8.1c1-5-2.6-9.5-8.2-12.8c-5.4-3.1-10.3-4.3-17.9-2.3c-9.5,2.6-14.1,2.2-18.3,9.5c-0.8,1.4-4.6,7.2-5,8.9
			c-0.4,2.1-2.6,5.5-5,13.1c-0.5,1.5-1,3-1.5,4.3l-4.3,12.1l-3.9-12.1c-2.5-7.7-3.4-10.7-4.4-12.5c-0.8-1.5-2.9-4.7-3.9-5.9
			c-5.4-5.9-9.9-8.4-19.4-10.9c-7.7-2.1-13.5-2.2-18.8,0.9c-5.6,3.3-8.9,8.1-7.9,13c0.5,2.5,0.1,3.2,7.7,7.2
			c3.6,1.9,8.1,4.3,13.6,7.5c15.3,9,23,13.6,29.4,21.9l1.9,2.7l-0.7,2.5c-3.1,6.3-4.8,9-6.3,11.4c-1.1,1.7-2,3.2-3.2,5.7
			c-11.4,23.3-7.4,48.2-6.5,53c1,5.3,2.2,8.4,3.9,12.6c1.9,5.1,4.6,12.1,8.3,26.1c0-0.1,0-0.2,0-0.3c0.8-7.2,0.1-11.3-0.8-16.9
			c-0.6-4.3-1.4-9.1-1.7-16.4c-0.5-10.8,0.5-22.3,2.5-32.9c1.8-9.2,4.1-15.7,6.3-22L129.4,321.1z"/>
	</g>
	<g>
		<path class="st0" d="M202.6,287.3c-9-6.1-20.6-6.6-30-1.2c-0.8,0.5-1.5,0.9-2.4,1.4c-14.9,8.8-22.4,13.2-28.3,20.9
			c-1.2,1.5-2.3,3.2-3.2,4.8c1,2.2,1.9,4.1,2.6,5.7c4.9,9.9,6.3,10.6,9.2,16.6c12.3,25.2,7.4,52.2,6.8,55.4
			c-2.4,12.2-5.5,13.4-12.3,39.4c-1.7,6.5-2.9,11.8-3.7,15.4c-1.3-3.7-2.9-9.4-3.7-16.6c-1.4-13.4,1.8-17.3,2.5-33.8
			c0.3-6.6,0.3-18.3-2.5-32c-1.7-8.9-4-15.4-6.1-21.6c-0.7-2.1-1.4-4-2-5.8c-0.2,0.5-0.3,0.9-0.5,1.4c-2.1,6.2-4.4,12.6-6.1,21.6
			c-2.7,13.7-2.7,25.4-2.5,32c0.7,16.6,3.9,20.5,2.5,33.8c-0.8,7.2-2.5,12.9-3.7,16.6c-0.8-3.5-2-8.9-3.7-15.4
			c-6.8-25.9-9.9-27.2-12.3-39.4c-0.6-3.2-5.5-30.2,6.8-55.4c3-6,4.3-6.7,9.2-16.6c0.1-0.2,0.2-0.5,0.3-0.6
			c-0.3-0.4-0.5-0.8-0.8-1.2c-5.9-7.7-13.4-12.1-28.3-20.9c-2.3-1.4-4.5-2.6-6.4-3.7c-9.6-5.3-21.4-4.5-30.3,1.9
			C21.2,313.8,0,352.1,0,395.5v73.2c0,15.6,12.6,28.1,28.1,28.1h204.4c15.6,0,28.1-12.6,28.1-28.1v-73.2
			C260.5,350.4,237.5,310.7,202.6,287.3z"/>
	</g>
</g>
</svg>
