<?xml version="1.0" encoding="utf-8"?>
<!-- Generator: Adobe Illustrator 23.0.2, SVG Export Plug-In . SVG Version: 6.00 Build 0)  -->
<svg version="1.1" id="Layer_1" xmlns="http://www.w3.org/2000/svg" xmlns:xlink="http://www.w3.org/1999/xlink" x="0px" y="0px"
	 viewBox="0 0 500 500" style="enable-background:new 0 0 500 500;" xml:space="preserve">
<style type="text/css">
	.st0{fill:#79863E;}
</style>
<g>
	<path class="st0" d="M466,198.7H301.2V33.9c0-18.8-15.2-33.9-33.9-33.9h-34.7c-18.8,0-33.9,15.2-33.9,33.9v164.8H33.9
		C15.1,198.7,0,214,0,232.6v34.7c0,18.8,15.2,33.9,33.9,33.9h164.8v164.8c0,18.8,15.2,33.9,33.9,33.9h34.7
		c18.8,0,33.9-15.2,33.9-33.9V301.3h164.8c18.8,0,33.9-15.2,33.9-33.9v-34.7C500,213.9,484.8,198.7,466,198.7z"/>
</g>
</svg>
