<?xml version="1.0" encoding="utf-8"?>
<!-- Generator: Adobe Illustrator 23.0.2, SVG Export Plug-In . SVG Version: 6.00 Build 0)  -->
<svg version="1.1" id="Layer_1" xmlns="http://www.w3.org/2000/svg" xmlns:xlink="http://www.w3.org/1999/xlink" x="0px" y="0px"
	 viewBox="0 0 500 500" style="enable-background:new 0 0 500 500;" xml:space="preserve">
<style type="text/css">
	.st0{fill:#79863E;}
</style>
<g>
	<g>
		<g>
			<path class="st0" d="M96.7,235.8l143,112.3l156.6-203.5L500,325.9V121.2c0-33.7-27.3-61-61-61H61c-33.7,0-61,27.3-61,61V317
				L96.7,235.8z M155.1,101.1c30.8,0,55.8,25,55.8,55.8s-25,55.8-55.8,55.8c-30.8,0-55.8-25-55.8-55.8S124.3,101.1,155.1,101.1z"/>
		</g>
	</g>
	<g>
		<g>
			<path class="st0" d="M243.6,379.2l-146.4-115L0,345.8v33c0,33.7,27.3,61,61,61H439c33.7,0,61-27.3,61-61L393.5,184.2L243.6,379.2
				z"/>
		</g>
	</g>
</g>
</svg>
