<?xml version="1.0" encoding="utf-8"?>
<!-- Generator: Adobe Illustrator 23.0.2, SVG Export Plug-In . SVG Version: 6.00 Build 0)  -->
<svg version="1.1" id="Layer_1" xmlns="http://www.w3.org/2000/svg" xmlns:xlink="http://www.w3.org/1999/xlink" x="0px" y="0px"
	 viewBox="0 0 500 500" style="enable-background:new 0 0 500 500;" xml:space="preserve">
<style type="text/css">
	.st0{fill:#79863E;}
</style>
<g>
	<g>
		<g>
			<g>
				<path class="st0" d="M0,208.4c0,0,111.9-140,250-140c138,0,250,140,250,140s-111.9,140-250,140C112,348.2,0,208.4,0,208.4z"/>
			</g>
		</g>
	</g>
	<g>
		<g>
			<g>
				<rect x="239.1" y="342.4" class="st0" width="21.6" height="89.2"/>
			</g>
		</g>
	</g>
	<g>
		<g>
			<g>
				
					<rect x="341.1" y="323.5" transform="matrix(0.9638 -0.2667 0.2667 0.9638 -85.3006 107.1701)" class="st0" width="21.6" height="88.3"/>
			</g>
		</g>
	</g>
	<g>
		<g>
			<g>
				
					<rect x="430.6" y="266.3" transform="matrix(0.8817 -0.4719 0.4719 0.8817 -93.8285 244.945)" class="st0" width="21.6" height="86.6"/>
			</g>
		</g>
	</g>
	<g>
		<g>
			<g>
				
					<rect x="110.5" y="363.7" transform="matrix(0.2666 -0.9638 0.9638 0.2666 -247.555 423.6988)" class="st0" width="88.3" height="21.6"/>
			</g>
		</g>
	</g>
	<g>
		<g>
			<g>
				
					<rect x="22.4" y="305.8" transform="matrix(0.4717 -0.8818 0.8818 0.4717 -244.4866 225.2334)" class="st0" width="86.6" height="21.6"/>
			</g>
		</g>
	</g>
</g>
</svg>
