<?xml version="1.0" encoding="utf-8"?>
<!-- Generator: Adobe Illustrator 23.0.2, SVG Export Plug-In . SVG Version: 6.00 Build 0)  -->
<svg version="1.1" id="Layer_1" xmlns="http://www.w3.org/2000/svg" xmlns:xlink="http://www.w3.org/1999/xlink" x="0px" y="0px"
	 viewBox="0 0 500 500" style="enable-background:new 0 0 500 500;" xml:space="preserve">
<style type="text/css">
	.st0{fill:#7A873F;}
</style>
<g>
	<g>
		<g>
			<g>
				<path class="st0" d="M448.4,186.5l-8.8,7.2c11.3,7.2,18.8,19.7,18.8,34.1v220.9c0,22.2-18.1,40.3-40.3,40.3H81.8
					c-22.2,0-40.3-18.1-40.3-40.3V227.9c0-13.9,7-26.2,17.8-33.4l-6.7-8.7c-13.3,9.3-22,24.6-22,42.1v220.9
					c0,28.3,23,51.3,51.3,51.3h336.3c28.3,0,51.3-23,51.3-51.3V227.8C469.3,210.9,461.1,195.9,448.4,186.5z"/>
			</g>
		</g>
		<g>
			<g>
				<g>
					<g>
						<path class="st0" d="M249.9,373.7c-6.1,0-12.2-2.2-16.9-6.5L46.1,194.6l7.4-8.1l186.9,172.6c5.3,4.9,13.7,4.9,19,0
							l186.9-172.6l7.4,8.1L266.8,367.2C262.1,371.5,256,373.7,249.9,373.7z"/>
					</g>
				</g>
			</g>
		</g>
		<g>
			<g>
				<g>
					<g>
						
							<rect x="13.7" y="399.8" transform="matrix(0.7064 -0.7078 0.7078 0.7064 -250.9394 205.5361)" class="st0" width="217.1" height="11"/>
					</g>
				</g>
			</g>
		</g>
		<g>
			<g>
				<g>
					<g>
						
							<rect x="369.7" y="298" transform="matrix(0.7173 -0.6967 0.6967 0.7173 -176.1454 375.9325)" class="st0" width="11" height="214.1"/>
					</g>
				</g>
			</g>
		</g>
	</g>
	<g>
		<g>
			<g>
				<path class="st0" d="M410.1,190.1H89.7c-12.2,0-24.2-3.5-34.6-10.1l-3.9-2.5L238.9,4.3c6.1-5.7,15.8-5.7,21.9,0l187.6,173.2
					l-3.9,2.5C434.3,186.5,422.3,190.1,410.1,190.1z M63,176.3c8.2,4.4,17.5,6.7,26.8,6.7h320.3c9.4,0,18.5-2.3,26.8-6.7L256.2,9.5
					c-3.4-3.2-8.9-3.2-12.3,0L63,176.3z"/>
			</g>
		</g>
	</g>
	<g>
		<path class="st0" d="M237.8,180.6"/>
	</g>
</g>
</svg>
