<?xml version="1.0" encoding="utf-8"?>
<!-- Generator: Adobe Illustrator 23.0.2, SVG Export Plug-In . SVG Version: 6.00 Build 0)  -->
<svg version="1.1" id="Layer_1" xmlns="http://www.w3.org/2000/svg" xmlns:xlink="http://www.w3.org/1999/xlink" x="0px" y="0px"
	 viewBox="0 0 500 500" style="enable-background:new 0 0 500 500;" xml:space="preserve">
<style type="text/css">
	.st0{fill:#79863E;}
</style>
<g>
	<g>
		<g>
			<g>
				<path class="st0" d="M308.7,500H79.6c-25.6,0-46.4-20.8-46.4-46.4V103.5c0-25.6,20.8-46.4,46.4-46.4h118.5L355,214v239.6
					C355,479.3,334.2,500,308.7,500z M79.6,76.6c-14.9,0-27,12.1-27,27v350.1c0,14.9,12.1,27,27,27h229.1c14.9,0,27-12.1,27-27
					V222.1L190.2,76.6H79.6z"/>
			</g>
		</g>
		<g>
			<g>
				<path class="st0" d="M340.9,227.8H197.9c-7.4,0-13.3-6-13.3-13.3V71.9c0-4.7,2.9-9,7.2-10.8c4.4-1.8,9.4-0.8,12.8,2.5
					l144.6,144.6c3.3,3.4,4.3,8.2,2.5,12.5C349.7,225,345.6,227.8,340.9,227.8z M203.8,208.4H322L203.8,90.2V208.4z"/>
			</g>
		</g>
	</g>
	<g>
		<path class="st0" d="M384.5,164.5c-45.4,0-82.2-36.9-82.2-82.2c0-45.4,36.9-82.2,82.2-82.2c45.4,0,82.2,36.9,82.2,82.2
			C466.7,127.6,429.8,164.5,384.5,164.5z M384.5,5.2c-42.5,0-77,34.6-77,77c0,42.5,34.6,77,77,77c42.5,0,77-34.6,77-77
			C461.5,39.7,426.9,5.2,384.5,5.2z M388.9,149.6h-9c-6.3,0-11.4-5.1-11.4-11.4v-40h-40c-6.3,0-11.4-5.1-11.4-11.4v-9
			c0-6.3,5.1-11.4,11.4-11.4h40v-40c0-6.3,5.1-11.4,11.4-11.4h9c6.3,0,11.4,5.1,11.4,11.4v40h40c6.3,0,11.4,5.1,11.4,11.4v9
			c0,6.3-5.1,11.4-11.4,11.4h-40v40C400.4,144.4,395.2,149.6,388.9,149.6z M328.6,71.6c-3.4,0-6.1,2.8-6.1,6.1v9
			c0,3.4,2.8,6.1,6.1,6.1h45.2v45.3c0,3.4,2.8,6.1,6.1,6.1h9c3.4,0,6.1-2.8,6.1-6.1V92.9h45.3c3.4,0,6.1-2.8,6.1-6.1v-9
			c0-3.4-2.8-6.1-6.1-6.1h-45.3V26.3c0-3.4-2.8-6.1-6.1-6.1h-9c-3.4,0-6.1,2.8-6.1,6.1v45.2L328.6,71.6L328.6,71.6z"/>
	</g>
</g>
</svg>
