<?xml version="1.0" encoding="utf-8"?>
<!-- Generator: Adobe Illustrator 23.0.2, SVG Export Plug-In . SVG Version: 6.00 Build 0)  -->
<svg version="1.1" id="Layer_1" xmlns="http://www.w3.org/2000/svg" xmlns:xlink="http://www.w3.org/1999/xlink" x="0px" y="0px"
	 viewBox="0 0 500 500" style="enable-background:new 0 0 500 500;" xml:space="preserve">
<style type="text/css">
	.st0{fill:#79863E;}
</style>
<g>
	<g>
		<g>
			<g>
				<path class="st0" d="M373.3,500H126.7c-38,0-69-30.9-69-69V69c0-38,30.9-69,69-69h246.7c38,0,69,30.9,69,69V431
					C442.3,469.1,411.4,500,373.3,500z M126.7,21.1c-26.4,0-47.8,21.4-47.8,47.8V431c0,26.4,21.4,47.8,47.8,47.8h246.7
					c26.4,0,47.8-21.4,47.8-47.8V68.9c0-26.4-21.4-47.8-47.8-47.8H126.7z"/>
			</g>
		</g>
	</g>
	<g>
		<g>
			<g>
				<path class="st0" d="M365.9,163.1H143c-16.3,0-29.5-13.3-29.5-29.5V63.8c0-16.3,13.3-29.5,29.5-29.5h222.9
					c16.3,0,29.5,13.3,29.5,29.5v69.8C395.4,149.8,382.1,163.1,365.9,163.1z M143,55.4c-4.7,0-8.4,3.8-8.4,8.4v69.8
					c0,4.7,3.8,8.4,8.4,8.4h222.9c4.7,0,8.4-3.8,8.4-8.4V63.8c0-4.7-3.8-8.4-8.4-8.4H143z"/>
			</g>
		</g>
	</g>
	<g>
		<g>
			<g>
				<path class="st0" d="M264.2,464.9H134.4c-18.7,0-33.8-15.2-33.8-33.8v-28.4c0-18.7,15.2-33.8,33.8-33.8h129.8
					c18.7,0,33.7,15.2,33.7,33.8v28.4C298,449.8,282.9,464.9,264.2,464.9z M134.4,390.1c-7,0-12.6,5.6-12.6,12.6v28.4
					c0,7,5.6,12.6,12.6,12.6h129.8c7,0,12.6-5.6,12.6-12.6v-28.4c0-7-5.6-12.6-12.6-12.6H134.4z"/>
			</g>
		</g>
	</g>
	<g>
		<g>
			<g>
				<path class="st0" d="M151.6,263.5c-26.5,0-48-21.5-48-48c0-26.5,21.5-48,48-48s48,21.5,48,48C199.6,241.9,178,263.5,151.6,263.5
					z M151.6,188.6c-14.8,0-26.9,12-26.9,26.9c0,14.8,12.1,26.9,26.9,26.9s26.9-12.1,26.9-26.9C178.5,200.6,166.4,188.6,151.6,188.6
					z"/>
			</g>
		</g>
	</g>
	<g>
		<g>
			<g>
				<path class="st0" d="M250,263c-26.5,0-48-21.5-48-48s21.5-48,48-48s48,21.5,48,48S276.5,263,250,263z M250,188.1
					c-14.8,0-26.9,12-26.9,26.9s12,26.9,26.9,26.9c14.8,0,26.9-12.1,26.9-26.9C276.9,200.2,264.8,188.1,250,188.1z"/>
			</g>
		</g>
	</g>
	<g>
		<g>
			<g>
				<path class="st0" d="M348.4,263c-26.5,0-48-21.5-48-48s21.5-48,48-48c26.5,0,48,21.5,48,48S374.9,263,348.4,263z M348.4,188.1
					c-14.8,0-26.9,12-26.9,26.9s12,26.9,26.9,26.9s26.9-12.1,26.9-26.9C375.3,200.2,363.2,188.1,348.4,188.1z"/>
			</g>
		</g>
	</g>
	<g>
		<g>
			<g>
				<path class="st0" d="M148.6,364.1c-26.5,0-48-21.5-48-48c0-26.5,21.5-48,48-48s48,21.5,48,48S175.1,364.1,148.6,364.1z
					 M148.6,289.3c-14.8,0-26.9,12-26.9,26.9c0,14.8,12.1,26.9,26.9,26.9s26.9-12,26.9-26.9C175.5,301.4,163.5,289.3,148.6,289.3z"
					/>
			</g>
		</g>
	</g>
	<g>
		<g>
			<g>
				<path class="st0" d="M248.5,363.8c-26.5,0-48-21.5-48-48c0-26.5,21.5-48,48-48s48,21.5,48,48S275,363.8,248.5,363.8z
					 M248.5,288.9c-14.8,0-26.9,12-26.9,26.9c0,14.8,12,26.9,26.9,26.9c14.8,0,26.9-12,26.9-26.9S263.3,288.9,248.5,288.9z"/>
			</g>
		</g>
	</g>
	<g>
		<g>
			<g>
				<path class="st0" d="M348.4,363.8c-26.5,0-48-21.5-48-48c0-26.5,21.5-48,48-48c26.5,0,48,21.5,48,48S374.9,363.8,348.4,363.8z
					 M348.4,288.9c-14.8,0-26.9,12-26.9,26.9c0,14.8,12,26.9,26.9,26.9s26.9-12,26.9-26.9S363.2,288.9,348.4,288.9z"/>
			</g>
		</g>
	</g>
	<g>
		<g>
			<g>
				<path class="st0" d="M348.4,464.5c-26.5,0-48-21.5-48-48c0-26.5,21.5-48,48-48c26.5,0,48,21.5,48,48S374.9,464.5,348.4,464.5z
					 M348.4,389.6c-14.8,0-26.9,12-26.9,26.9c0,14.8,12,26.9,26.9,26.9s26.9-12.1,26.9-26.9C375.3,401.7,363.2,389.6,348.4,389.6z"
					/>
			</g>
		</g>
	</g>
</g>
</svg>
