<?xml version="1.0" encoding="utf-8"?>
<!-- Generator: Adobe Illustrator 23.0.2, SVG Export Plug-In . SVG Version: 6.00 Build 0)  -->
<svg version="1.1" id="Layer_1" xmlns="http://www.w3.org/2000/svg" xmlns:xlink="http://www.w3.org/1999/xlink" x="0px" y="0px"
	 viewBox="0 0 500 500" style="enable-background:new 0 0 500 500;" xml:space="preserve">
<style type="text/css">
	.st0{fill:#79863E;}
</style>
<g>
	<path class="st0" d="M266.7,500h-33.4c-23.4,0-42.3-19-42.3-42.3V309H42.3C18.9,309,0,290,0,266.7v-33.4C0,209.9,19,191,42.3,191
		H191V42.3C191,18.9,210,0,233.3,0h33.4C290.1,0,309,19,309,42.3V191h148.7c23.4,0,42.3,19,42.3,42.3v33.4c0,23.4-19,42.3-42.3,42.3
		H309v148.7C309.1,481.1,290.1,500,266.7,500z M42.3,210.4c-12.6,0-22.9,10.3-22.9,22.9v33.4c0,12.6,10.3,22.9,22.9,22.9h168.1
		v168.1c0,12.6,10.3,22.9,22.9,22.9h33.4c12.6,0,22.9-10.3,22.9-22.9V289.6h168.1c12.6,0,22.9-10.3,22.9-22.9v-33.4
		c0-12.6-10.3-22.9-22.9-22.9H289.6V42.3c0-12.6-10.3-22.9-22.9-22.9h-33.4c-12.6,0-22.9,10.3-22.9,22.9v168.1H42.3z"/>
</g>
</svg>
