<?xml version="1.0" encoding="utf-8"?>
<!-- Generator: Adobe Illustrator 23.0.2, SVG Export Plug-In . SVG Version: 6.00 Build 0)  -->
<svg version="1.1" id="Layer_1" xmlns="http://www.w3.org/2000/svg" xmlns:xlink="http://www.w3.org/1999/xlink" x="0px" y="0px"
	 viewBox="0 0 500 500" style="enable-background:new 0 0 500 500;" xml:space="preserve">
<style type="text/css">
	.st0{fill:#79863E;}
</style>
<g>
	<g>
		<g>
			<g>
				<path class="st0" d="M218,320.7c-0.6-0.6-1.2-1.1-1.8-1.7c-9.1-9.1-14-21.3-14-34.2l0.2-55.1l20.1,0.1l-0.2,55.1
					c0,7.5,2.9,14.6,8.2,19.9c5.3,5.5,12.4,8.3,19.8,8.3l201.1,0.7c7.5,0,14.6-2.9,19.9-8.2c5.3-5.3,8.3-12.3,8.3-19.8l0.2-55.1
					c0-7.5-2.9-14.6-8.2-19.9c-5.5-5.3-12.3-8.3-19.8-8.3l-134.4-0.5l0.1-20.1l134.4,0.5c12.9,0,25.1,5,34.1,14.3
					c9.1,9.1,14,21.3,14,34.2l-0.2,55.1c0,12.9-5.1,25-14.3,34.1c-9.1,9.1-21.3,14-34.2,14l-201.1-0.7
					C238.3,333.1,226.9,328.7,218,320.7z"/>
			</g>
		</g>
	</g>
	<g>
		<g>
			<g>
				<path class="st0" d="M15.8,305.2c-0.6-0.5-1.2-1.1-1.8-1.7C5,294.3,0,282.2,0,269.3l0.2-55.1c0-12.9,5.1-25,14.3-34.1
					c9.1-9.1,21.3-14,34.2-14l201.1,0.7c26.6,0.1,48.1,21.8,48.1,48.4l-0.2,55.1l-20.1-0.1l0.2-55.1c0.1-15.5-12.6-28.1-28-28.2
					l-201.1-0.7c-7.5,0-14.6,2.9-19.9,8.2s-8.3,12.3-8.3,19.8l-0.2,55.1c0,7.5,2.9,14.6,8.2,19.9c5.4,5.2,12.3,8.3,19.8,8.3
					l134.4,0.5l-0.1,20.1l-134.4-0.5C36.1,317.8,24.7,313.3,15.8,305.2z"/>
			</g>
		</g>
	</g>
</g>
</svg>
