<?xml version="1.0" encoding="utf-8"?>
<!-- Generator: Adobe Illustrator 23.0.2, SVG Export Plug-In . SVG Version: 6.00 Build 0)  -->
<svg version="1.1" id="Layer_1" xmlns="http://www.w3.org/2000/svg" xmlns:xlink="http://www.w3.org/1999/xlink" x="0px" y="0px"
	 viewBox="0 0 500 500" style="enable-background:new 0 0 500 500;" xml:space="preserve">
<style type="text/css">
	.st0{fill:#78863F;}
</style>
<g>
	<g>
		<g>
			<g>
				<g>
					<path class="st0" d="M228.3,333.5c-0.8-0.5-1.5-1-2.2-1.5L67,480.2c-5.2,4.9-12,7.5-19.1,7.5c-0.3,0-0.7,0-1,0
						c-7.5-0.3-14.4-3.4-19.6-8.9L7.5,457.7c-5.2-5.5-7.8-12.7-7.5-20.2c0.3-7.5,3.4-14.4,8.9-19.6l160.6-149.5
						c-36-69-21.5-155.8,35.9-209.3c70.8-65.8,181.9-61.9,247.7,8.9l0,0c65.8,70.7,61.9,181.9-8.9,247.7
						c-58.3,54.3-144.7,62.1-211.2,20.9 M182,285L23,433c-1.5,1.4-2.4,3.2-2.4,5.2c-0.1,2,0.6,3.9,2,5.4l19.7,21.1
						c1.4,1.5,3.2,2.4,5.2,2.4c2,0,3.9-0.6,5.4-2l159.4-148.4L182,285z M224.6,305.3l6.9,5.2c60,45.6,143.7,41.5,198.8-9.9
						c62.4-58.1,66-156.2,7.9-218.6l0,0c-58.1-62.4-156.2-66-218.7-7.9c-52.6,48.9-64.3,129.4-28.1,191.3L224.6,305.3L224.6,305.3z
						 M325,318c-35,0-69.9-14-95.6-41.5c-49-52.7-46.1-135.5,6.6-184.6c52.7-49,135.5-46.1,184.6,6.6c49,52.7,46.1,135.5-6.6,184.6
						l0,0C388.9,306.4,356.9,318,325,318z M325,77.5c-26.8,0-53.8,9.7-74.9,29.5c-44.4,41.3-46.9,111.1-5.6,155.5
						c41.3,44.4,111.1,46.9,155.5,5.6l0,0c44.4-41.3,46.8-111.1,5.6-155.5C383.9,89.2,354.4,77.5,325,77.5z"/>
				</g>
			</g>
		</g>
	</g>
	<g>
		<g>
			<g>
				<path class="st0" d="M397.4,214.1H252.8c-13.2,0-23.9-10.8-23.9-24v-5.4c0-13.2,10.8-24,23.9-24h144.6c13.2,0,23.9,10.8,23.9,24
					v5.4C421.3,203.4,410.5,214.1,397.4,214.1z M252.8,178.2c-3.6,0-6.5,2.9-6.5,6.6v5.4c0,3.6,2.9,6.6,6.5,6.6h144.6
					c3.6,0,6.5-2.9,6.5-6.6v-5.4c0-3.6-2.9-6.6-6.5-6.6H252.8z"/>
			</g>
		</g>
	</g>
</g>
</svg>
