<?xml version="1.0" encoding="utf-8"?>
<!-- Generator: Adobe Illustrator 23.0.2, SVG Export Plug-In . SVG Version: 6.00 Build 0)  -->
<svg version="1.1" id="Layer_1" xmlns="http://www.w3.org/2000/svg" xmlns:xlink="http://www.w3.org/1999/xlink" x="0px" y="0px"
	 viewBox="0 0 500 500" style="enable-background:new 0 0 500 500;" xml:space="preserve">
<style type="text/css">
	.st0{fill:#78863F;}
</style>
<g>
	<g>
		<g>
			<g>
				<g>
					<polygon class="st0" points="261.9,134.6 196.7,69.4 196.7,199.8 327.1,199.8 					"/>
				</g>
			</g>
		</g>
		<g>
			<g>
				<g>
					<path class="st0" d="M59.9,54.4c-16.4,0-29.8,13.4-29.8,29.8v386c0,16.4,13.4,29.8,29.8,29.8h252.5c16.4,0,29.8-13.4,29.8-29.8
						V221h-152c-8.1,0-14.7-6.6-14.7-14.7v-152L59.9,54.4L59.9,54.4z"/>
				</g>
			</g>
		</g>
	</g>
	<g>
		<g>
			<path class="st0" d="M390.3,0c-44,0-79.6,35.7-79.6,79.6s35.7,79.6,79.6,79.6c44,0,79.6-35.7,79.6-79.6
				C469.8,35.6,434.3,0,390.3,0z M446.1,92.9h-42.6v42.6c0,4.8-4,8.8-8.8,8.8h-8.9c-4.8,0-8.8-4-8.8-8.8V92.9h-42.7
				c-4.8,0-8.8-4-8.8-8.8v-8.9c0-4.8,4-8.8,8.8-8.8H377V23.8c0-4.8,4-8.8,8.8-8.8h8.9c4.8,0,8.8,4,8.8,8.8v42.6H446
				c4.8,0,8.8,4,8.8,8.8v8.9C455,88.9,451,92.9,446.1,92.9z"/>
		</g>
	</g>
</g>
</svg>
