<?xml version="1.0" encoding="utf-8"?>
<!-- Generator: Adobe Illustrator 23.0.2, SVG Export Plug-In . SVG Version: 6.00 Build 0)  -->
<svg version="1.1" id="Layer_1" xmlns="http://www.w3.org/2000/svg" xmlns:xlink="http://www.w3.org/1999/xlink" x="0px" y="0px"
	 viewBox="0 0 500 500" style="enable-background:new 0 0 500 500;" xml:space="preserve">
<style type="text/css">
	.st0{fill:#79863E;}
</style>
<g>
	<g>
		<g>
			<path class="st0" d="M388.2,498.4H65.3c-36,0-65.3-29.3-65.3-65.3V110.2c0-36,29.3-65.3,65.3-65.3h161.4V72H65.3
				c-21,0-38.1,17.1-38.1,38.1v322.8c0,21,17.1,38.1,38.1,38.1H388c21,0,38.1-17.1,38.1-38.1V271.6h27.1v161.4
				C453.4,469.2,424.2,498.4,388.2,498.4z"/>
		</g>
	</g>
	<g>
		<g>
			<path class="st0" d="M499.9,202h-27.1V31.5c0-1.5-1.3-2.8-2.8-2.8H305.1V1.6H470c16.5,0,30,13.5,30,30V202H499.9z"/>
		</g>
	</g>
	<g>
		<g>
			
				<rect x="117" y="160" transform="matrix(0.7127 -0.7015 0.7015 0.7127 -28.2725 278.1645)" class="st0" width="416.9" height="27.2"/>
		</g>
	</g>
</g>
</svg>
