<?xml version="1.0" encoding="utf-8"?>
<!-- Generator: Adobe Illustrator 23.0.2, SVG Export Plug-In . SVG Version: 6.00 Build 0)  -->
<svg version="1.1" id="Layer_1" xmlns="http://www.w3.org/2000/svg" xmlns:xlink="http://www.w3.org/1999/xlink" x="0px" y="0px"
	 viewBox="0 0 500 500" style="enable-background:new 0 0 500 500;" xml:space="preserve">
<style type="text/css">
	.st0{fill:#79863E;}
</style>
<g>
	<g>
		<g>
			<path class="st0" d="M0.4,169L51,430.5c0.8,4.5,2.4,8.5,5,12c0.1,0.1,0.3,0.3,0.4,0.4c0.9,1.2,1.8,2.3,2.8,3.3
				c1,1,2.2,1.9,3.3,2.8c0.1,0.1,0.3,0.3,0.4,0.4c3.5,2.4,7.5,4.2,12,5l262.6,43.1c16.1,2.6,31.7-8.5,35-24.8l7.8-39.7
				c3.2-16.2-7.2-31.5-23.4-33.9l-155.5-26.1L490.9,80.2c11.8-11.8,12.2-30.7,0.9-42L464,10.4c-11.3-11.3-30.2-10.9-42,0.9
				L132.5,304L98.7,149.6C96.1,133.6,81,123,64.8,126.2l-39.7,7.8C8.9,137.3-2.2,153,0.4,169z"/>
		</g>
	</g>
</g>
</svg>
