<?xml version="1.0" encoding="utf-8"?>
<!-- Generator: Adobe Illustrator 23.0.2, SVG Export Plug-In . SVG Version: 6.00 Build 0)  -->
<svg version="1.1" id="Layer_1" xmlns="http://www.w3.org/2000/svg" xmlns:xlink="http://www.w3.org/1999/xlink" x="0px" y="0px"
	 viewBox="0 0 500 500" style="enable-background:new 0 0 500 500;" xml:space="preserve">
<style type="text/css">
	.st0{fill:#79863E;}
</style>
<g>
	<g>
		<g>
			<path class="st0" d="M499.6,331L449,69.5c-0.8-4.5-2.4-8.5-5-12c-0.1-0.1-0.3-0.3-0.4-0.4c-0.9-1.2-1.8-2.3-2.8-3.3
				c-1-1-2.2-1.9-3.3-2.8c-0.1-0.1-0.3-0.3-0.4-0.4c-3.5-2.4-7.5-4.2-12-5L162.5,2.6c-16.1-2.6-31.7,8.5-35,24.8l-7.8,39.7
				c-3.2,16.2,7.2,31.5,23.4,33.9l155.5,26.1L9.1,419.8c-11.8,11.8-12.2,30.7-0.9,42L36,489.6c11.3,11.3,30.2,10.9,42-0.9L367.5,196
				l33.8,154.4c2.6,16.1,17.7,26.6,33.9,23.4l39.7-7.8C491.1,362.7,502.2,347,499.6,331z"/>
		</g>
	</g>
</g>
</svg>
