<?xml version="1.0" encoding="utf-8"?>
<!-- Generator: Adobe Illustrator 23.0.2, SVG Export Plug-In . SVG Version: 6.00 Build 0)  -->
<svg version="1.1" id="Layer_1" xmlns="http://www.w3.org/2000/svg" xmlns:xlink="http://www.w3.org/1999/xlink" x="0px" y="0px"
	 viewBox="0 0 500 500" style="enable-background:new 0 0 500 500;" xml:space="preserve">
<style type="text/css">
	.st0{fill:#EA4535;}
	.st1{fill:#F9BC15;}
	.st2{fill:#557EBF;}
	.st3{fill:#36A852;}
</style>
<g>
	<path class="st0" d="M214.2,255.2c0,23.7-18.5,41.1-41.3,41.1s-41.3-17.4-41.3-41.1c0-23.8,18.5-41.1,41.3-41.1
		S214.2,231.3,214.2,255.2z M196.1,255.2c0-14.8-10.7-24.9-23.2-24.9s-23.2,10.1-23.2,24.9c0,14.6,10.7,24.9,23.2,24.9
		S196.1,269.8,196.1,255.2z"/>
	<path class="st1" d="M303.2,255.2c0,23.7-18.5,41.1-41.3,41.1s-41.3-17.4-41.3-41.1c0-23.8,18.5-41.1,41.3-41.1
		S303.2,231.3,303.2,255.2z M285.1,255.2c0-14.8-10.7-24.9-23.2-24.9s-23.2,10.1-23.2,24.9c0,14.6,10.7,24.9,23.2,24.9
		S285.1,269.8,285.1,255.2z"/>
	<path class="st2" d="M388.5,216.5v73.8c0,30.4-17.9,42.8-39.1,42.8c-19.9,0-31.9-13.3-36.5-24.2l15.7-6.5
		c2.8,6.7,9.7,14.6,20.7,14.6c13.6,0,22-8.4,22-24.1v-5.9h-0.6c-4,5-11.8,9.3-21.7,9.3c-20.6,0-39.4-17.9-39.4-41
		c0-23.2,18.8-41.3,39.4-41.3c9.8,0,17.6,4.4,21.7,9.2h0.6v-6.7L388.5,216.5L388.5,216.5z M372.6,255.3c0-14.5-9.7-25.1-22-25.1
		c-12.5,0-22.9,10.6-22.9,25.1c0,14.3,10.4,24.8,22.9,24.8C362.9,280.1,372.6,269.7,372.6,255.3z"/>
	<path class="st3" d="M416.7,173.2v120.5h-17.6V173.2H416.7z"/>
	<path class="st0" d="M485.4,268.7l14,9.3c-4.5,6.7-15.4,18.2-34.3,18.2c-23.4,0-40.8-18.1-40.8-41.1c0-24.5,17.6-41.1,38.8-41.1
		c21.3,0,31.8,17,35.2,26.2l1.9,4.7l-55,22.8c4.2,8.3,10.8,12.5,19.9,12.5C474.3,280.1,480.7,275.6,485.4,268.7L485.4,268.7z
		 M442.2,253.9l36.8-15.3c-2-5.1-8.1-8.7-15.3-8.7C454.5,229.9,441.8,238,442.2,253.9z"/>
	<path class="st2" d="M65,244.5V227h58.8c0.6,3,0.9,6.6,0.9,10.5c0,13.1-3.6,29.3-15.1,40.8C98.3,290.1,84,296.3,65,296.3
		c-35.2,0-64.8-28.7-64.8-63.9s29.6-63.9,64.8-63.9c19.5,0,33.3,7.6,43.8,17.6l-12.3,12.3c-7.5-7-17.6-12.5-31.5-12.5
		c-25.7,0-45.8,20.7-45.8,46.4s20.1,46.4,45.8,46.4c16.7,0,26.2-6.7,32.2-12.8c4.9-4.9,8.2-12,9.5-21.6L65,244.5z"/>
</g>
</svg>
