<?xml version="1.0" encoding="utf-8"?>
<!-- Generator: Adobe Illustrator 23.0.2, SVG Export Plug-In . SVG Version: 6.00 Build 0)  -->
<svg version="1.1" id="Layer_1" xmlns="http://www.w3.org/2000/svg" xmlns:xlink="http://www.w3.org/1999/xlink" x="0px" y="0px"
	 viewBox="0 0 500 500" style="enable-background:new 0 0 500 500;" xml:space="preserve">
<style type="text/css">
	.st0{fill:#79863E;}
</style>
<g>
	<g>
		<g>
			<path class="st0" d="M376.3,500H123.7c-22.5,0-40.8-18.3-40.8-40.8V104.4h334.3v354.8C417.2,481.6,398.8,500,376.3,500z
				 M103.3,124.7v334.4c0,11.3,9.2,20.4,20.4,20.4h252.7c11.3,0,20.4-9.2,20.4-20.4V124.7H103.3z"/>
		</g>
	</g>
	<g>
		<g>
			<path class="st0" d="M422.7,124.7H77.3c-12,0-21.7-9.7-21.7-21.7V69.9c0-19.1,15.5-34.7,34.7-34.7h319.5
				c19.1,0,34.7,15.5,34.7,34.7v33.2C444.4,115,434.7,124.7,422.7,124.7z M90.3,55.7C82.4,55.7,76,62.1,76,70v33.2
				c0,0.7,0.5,1.2,1.2,1.2h345.5c0.7,0,1.2-0.5,1.2-1.2V70c0-7.9-6.4-14.3-14.3-14.3H90.3z"/>
		</g>
	</g>
	<g>
		<g>
			<path class="st0" d="M289.2,55.7h-78.2V23.2c0-12.8,10.4-23.2,23.2-23.2h31.8c12.8,0,23.2,10.4,23.2,23.2V55.7z M231.3,35.3h37.4
				v-12c0-1.6-1.3-2.9-2.9-2.9h-31.8c-1.6,0-2.9,1.3-2.9,2.9L231.3,35.3L231.3,35.3z"/>
		</g>
	</g>
	<g>
		<g>
			<rect x="149.6" y="160.4" class="st0" width="20.4" height="285.3"/>
		</g>
	</g>
	<g>
		<g>
			<rect x="239.8" y="160.4" class="st0" width="20.4" height="285.3"/>
		</g>
	</g>
	<g>
		<g>
			<rect x="331.1" y="160.4" class="st0" width="20.4" height="285.3"/>
		</g>
	</g>
</g>
</svg>
