<?xml version="1.0" encoding="utf-8"?>
<!-- Generator: Adobe Illustrator 23.0.2, SVG Export Plug-In . SVG Version: 6.00 Build 0)  -->
<svg version="1.1" id="Layer_1" xmlns="http://www.w3.org/2000/svg" xmlns:xlink="http://www.w3.org/1999/xlink" x="0px" y="0px"
	 viewBox="0 0 500 500" style="enable-background:new 0 0 500 500;" xml:space="preserve">
<style type="text/css">
	.st0{fill:#79863E;}
</style>
<g>
	<g>
		<g>
			<path class="st0" d="M417.4,70.9L92.5,129.5c-5,0.9-9.8-2.5-10.7-7.4l-6.5-35.9c-2-10.7,5.2-20.9,15.8-22.9L395.5,8.5
				c10.7-2,20.9,5.2,22.9,15.8l6.5,35.9C425.6,65.2,422.4,70,417.4,70.9z"/>
		</g>
	</g>
	<g>
		<g>
			<path class="st0" d="M270.3,31.1l-53.8,9.8l-4.1-22.5c-1.1-5.7,2.8-11.1,8.4-12.1l33.3-6c5.7-1.1,11.1,2.8,12.1,8.4L270.3,31.1z"
				/>
		</g>
	</g>
	<g>
		<g>
			<path class="st0" d="M105,145.1v326c0,16,12.9,28.9,28.9,28.9h239.1c16,0,28.9-12.9,28.9-28.9v-326H105z M173,458.3h-9.7V188.4
				h9.7V458.3z M258.3,458.3h-9.7V188.4h9.7V458.3z M344.6,458.3h-9.7V188.4h9.7V458.3z"/>
		</g>
	</g>
</g>
</svg>
