<?xml version="1.0" encoding="utf-8"?>
<!-- Generator: Adobe Illustrator 23.0.2, SVG Export Plug-In . SVG Version: 6.00 Build 0)  -->
<svg version="1.1" id="Layer_1" xmlns="http://www.w3.org/2000/svg" xmlns:xlink="http://www.w3.org/1999/xlink" x="0px" y="0px"
	 viewBox="0 0 500 500" style="enable-background:new 0 0 500 500;" xml:space="preserve">
<style type="text/css">
	.st0{fill:#79863E;}
</style>
<g>
	<g>
		<g>
			<g>
				<path class="st0" d="M360.8,348.3c-2.7,0-5.3-0.6-7.9-1.9c-6.7-3.4-10.8-10.7-10.8-19v-5.3c0-1.6-1.3-2.9-2.9-2.9h-55.3
					c-24.8,0-44.9-20.2-44.9-44.9v-48.6c0-24.8,20.2-44.9,44.9-44.9h55.3c1.6,0,2.9-1.3,2.9-2.9v-5.3c0-8.3,4.1-15.5,10.8-19
					c5.8-3,12.5-2.5,17.9,1.3l94.7,67.5c9,6.4,14.2,16.4,14.2,27.5s-5.2,21.1-14.2,27.5L370.8,345
					C367.7,347.2,364.2,348.3,360.8,348.3z M283.8,199.5c-14.4,0-26.2,11.7-26.2,26.2v48.6c0,14.4,11.7,26.2,26.2,26.2h55.3
					c11.9,0,21.5,9.7,21.5,21.5v5.3c0,0.7,0.2,1.3,0.2,1.6l93.7-66.7c4-2.9,6.3-7.4,6.3-12.3c0-4.9-2.3-9.4-6.3-12.3l-93.7-66.7
					c-0.2,0.4-0.2,0.9-0.2,1.6v5.3c0,11.9-9.7,21.5-21.5,21.5h-55.3V199.5z"/>
			</g>
		</g>
	</g>
	<g>
		<g>
			<g>
				<path class="st0" d="M313.8,500h-257c-20.2,0-36.6-16.4-36.6-36.6V36.6C20.3,16.4,36.7,0,56.9,0h257.1
					c20.2,0,36.6,16.4,36.6,36.6v52.9c0,20.2-16.4,36.6-36.6,36.6h-13.5c-20.2,0-36.6-16.4-36.6-36.6c0-1.6-1.3-2.9-2.9-2.9H124.7
					c-9.8,0-17.9,8-17.9,17.9v291c0,9.8,8,17.9,17.9,17.9H261c1.6,0,2.9-1.3,2.9-2.9c0-20.2,16.4-36.6,36.6-36.6h13.5
					c20.2,0,36.6,16.4,36.6,36.6v52.9C350.4,483.7,334,500,313.8,500z M56.9,18.8c-9.8,0-17.9,8-17.9,17.9v426.8
					c0,9.8,8,17.9,17.9,17.9h257.1c9.8,0,17.9-8,17.9-17.9v-52.9c0-9.8-8-17.9-17.9-17.9h-13.5c-9.8,0-17.9,8-17.9,17.9
					c0,11.9-9.7,21.5-21.5,21.5H124.7c-20.2,0-36.6-16.4-36.6-36.6v-291c0-20.2,16.4-36.6,36.6-36.6H261c11.9,0,21.5,9.7,21.5,21.5
					c0,9.8,8,17.9,17.9,17.9h13.5c9.8,0,17.9-8,17.9-17.9V36.6c0-9.8-8-17.9-17.9-17.9L56.9,18.8L56.9,18.8z"/>
			</g>
		</g>
	</g>
</g>
</svg>
