<?xml version="1.0" encoding="utf-8"?>
<!-- Generator: Adobe Illustrator 23.0.2, SVG Export Plug-In . SVG Version: 6.00 Build 0)  -->
<svg version="1.1" id="Layer_1" xmlns="http://www.w3.org/2000/svg" xmlns:xlink="http://www.w3.org/1999/xlink" x="0px" y="0px"
	 viewBox="0 0 500 500" style="enable-background:new 0 0 500 500;" xml:space="preserve">
<style type="text/css">
	.st0{fill:#79863E;}
</style>
<g>
	<g>
		<g>
			<path class="st0" d="M253.4,486.6c-9.1,0-17.4-4.1-22.8-11.2L27.3,213.4c-1.5-1.8-3-3.7-4.3-5.5l-7.9-10.1h1.2
				C4,176.8-1.7,152.9,0.4,129C5.7,69.8,59.3,20.3,125.3,14c48.4-4.7,94.9,13,124.8,46.4c32.1-35.8,83.5-53.3,135.2-45
				c57.2,9.1,103.6,51.5,112.9,103l0,0c4.8,26.7,0.2,53.4-13,76.9h1.2l-7.8,10.3c-1.5,2.1-3,4.2-4.6,6.2l-0.6,0.8L276.5,475.2
				c-5.5,7.3-13.9,11.5-22.9,11.6C253.5,486.6,253.5,486.6,253.4,486.6z M59.6,219.4L247.7,462c1.8,2.4,4.2,2.8,5.7,2.8
				c1.3,0,3.8-0.4,5.7-2.9L443,217h-1.1l14.4-17.7c18.2-22.4,25.5-49.7,20.6-77.1l0,0c-7.7-42.6-46.8-77.7-94.9-85.4
				c-48.6-7.8-96.9,10.8-123,47.3l-8.9,12.4l-8.9-12.4c-24.4-34.2-68.1-52.7-113.8-48.4C71.8,40.9,26.6,81.9,22.2,130.8
				c-2.2,25.2,6.2,50.4,23.6,70.6l15.4,18L59.6,219.4L59.6,219.4z"/>
		</g>
	</g>
</g>
</svg>
