<?xml version="1.0" encoding="utf-8"?>
<!-- Generator: Adobe Illustrator 23.0.2, SVG Export Plug-In . SVG Version: 6.00 Build 0)  -->
<svg version="1.1" id="Layer_1" xmlns="http://www.w3.org/2000/svg" xmlns:xlink="http://www.w3.org/1999/xlink" x="0px" y="0px"
	 viewBox="0 0 500 500" style="enable-background:new 0 0 500 500;" xml:space="preserve">
<style type="text/css">
	.st0{fill:#79863E;}
</style>
<g>
	<g>
		<g>
			<path class="st0" d="M25.1,365.9l39.7,7.8c16.2,3.2,31.4-7.3,33.9-23.4L132.5,196L422,488.7c11.8,11.8,30.7,12.2,42,0.9
				l27.8-27.8c11.3-11.3,10.9-30.2-0.9-42L201.4,127.1L356.9,101c16.2-2.4,26.6-17.7,23.4-33.9l-7.8-39.7
				C369.3,11,353.6,0,337.5,2.6L74.9,45.6c-4.5,0.8-8.5,2.6-12,5c-0.1,0.1-0.3,0.3-0.4,0.4c-1.2,0.9-2.3,1.8-3.3,2.8
				c-1,1-1.9,2.2-2.8,3.3c-0.1,0.1-0.3,0.3-0.4,0.4c-2.6,3.5-4.2,7.5-5,12L0.4,331C-2.2,347.2,8.9,362.7,25.1,365.9z"/>
		</g>
	</g>
</g>
</svg>
