<?xml version="1.0" encoding="utf-8"?>
<!-- Generator: Adobe Illustrator 23.0.2, SVG Export Plug-In . SVG Version: 6.00 Build 0)  -->
<svg version="1.1" id="Layer_1" xmlns="http://www.w3.org/2000/svg" xmlns:xlink="http://www.w3.org/1999/xlink" x="0px" y="0px"
	 viewBox="0 0 500 500" style="enable-background:new 0 0 500 500;" xml:space="preserve">
<style type="text/css">
	.st0{fill:#79863E;}
</style>
<g>
	<g>
		<g>
			<path class="st0" d="M197.4,164.8c-9.3,0-18.5-3.5-25.6-10.6L79.3,61.7c-6.9-6.9-10.6-15.9-10.6-25.6s3.7-18.7,10.6-25.6
				c14.1-14.1,37-14.1,51.1,0l92.5,92.5c6.9,6.9,10.6,15.9,10.6,25.6s-3.7,18.7-10.6,25.6l0,0C215.9,161.3,206.6,164.8,197.4,164.8z
				 M104.9,23.2c-3.3,0-6.7,1.3-9.3,3.8c-2.4,2.4-3.8,5.8-3.8,9.2c0,3.5,1.4,6.8,3.8,9.2l92.5,92.5c5.1,5.1,13.4,5.1,18.5,0
				c2.4-2.4,3.8-5.8,3.8-9.3s-1.4-6.8-3.8-9.2l-92.5-92.5C111.5,24.4,108.2,23.2,104.9,23.2z"/>
		</g>
	</g>
	<g>
		<g>
			<path class="st0" d="M463.9,431.3c-9.3,0-18.5-3.5-25.6-10.6l-92.5-92.5c-6.9-6.9-10.6-15.9-10.6-25.6s3.7-18.7,10.6-25.6
				c14.1-14.1,37-14.1,51.1,0l92.5,92.5c6.9,6.9,10.6,15.9,10.6,25.6s-3.7,18.7-10.6,25.6l0,0C482.4,427.8,473.1,431.3,463.9,431.3z
				 M371.4,289.7c-3.3,0-6.7,1.3-9.2,3.8c-2.4,2.4-3.8,5.8-3.8,9.3c0,3.5,1.4,6.8,3.8,9.2l92.5,92.5c5.1,5.1,13.4,5.1,18.5,0
				c2.4-2.4,3.8-5.8,3.8-9.3c0-3.5-1.4-6.8-3.8-9.2l-92.5-92.5C378,290.9,374.7,289.7,371.4,289.7z"/>
		</g>
	</g>
	<g>
		<g>
			<path class="st0" d="M367.8,500c-25.9,0-51.9-9.9-71.7-29.6c-7.2-7.2-13.4-15.7-18.2-25L54.2,221.7c-9.2-4.7-17.4-10.8-24.6-17.8
				c-19.2-19.2-29.8-44.7-29.7-72c0.1-27.2,10.7-52.8,30-72l8.3-7.8c7.9-7.5,20.7-7.2,28.2,0.7l5.6,5.8l107.1,107.3
				c8.3,8.3,8.4,21.9,0.2,30.4l0,0l-6.8,7l123.7,123.7c0.1-0.1,0.2-0.2,0.3-0.3l5.7-6.1c4.1-4.3,9.8-6.9,15.8-6.9
				c6.3,0,11.7,2.3,15.9,6.7l4.8,4.9l105.9,105.3c4.9,4.1,7.9,10.2,8.1,16.5c0.2,6.4-2.2,12.6-6.7,17.2l-5.8,5.8
				C420.1,490.1,394,500,367.8,500z M51.9,70.9L46,76.5C31.3,91.2,23.1,111,23,132c-0.1,21,8.1,40.7,22.9,55.5
				c5.8,5.8,12.5,10.6,20.2,14.3l1.8,0.9l229,229l0.9,1.7c3.8,7.7,8.8,14.7,14.7,20.7c30.6,30.6,80.6,30.4,111.3-0.3l5.8-5.8
				l-3.5-2.8L318,337l-5.1,5.4c-2.4,2.4-4.6,5-7.1,8.2l-8,10.5L139.9,203.3l21.7-22.2L51.9,70.9z"/>
		</g>
	</g>
</g>
</svg>
