<?xml version="1.0" encoding="utf-8"?>
<!-- Generator: Adobe Illustrator 23.0.2, SVG Export Plug-In . SVG Version: 6.00 Build 0)  -->
<svg version="1.1" id="Layer_1" xmlns="http://www.w3.org/2000/svg" xmlns:xlink="http://www.w3.org/1999/xlink" x="0px" y="0px"
	 viewBox="0 0 500 500" style="enable-background:new 0 0 500 500;" xml:space="preserve">
<style type="text/css">
	.st0{fill:#79863E;}
</style>
<g>
	<path class="st0" d="M354.7,338.6c-26.1,30.7-64.1,48.3-104.5,48.3c-60.2,0-112.7-38.6-130.7-96c-3.9-12.5-5.9-25.4-6.1-38.6
		l51.2,33.4c5.1,3.8,12.1,2.4,15.6-3l8.7-13.2c3.6-5.4,2.3-12.8-2.8-16.6l-85.1-58.5c-1.4-1.1-3-1.7-4.6-2c-0.1,0-0.1,0-0.2,0
		c-0.5-0.1-1.1-0.1-1.7-0.1s-1.1,0.1-1.7,0.1c-0.1,0-0.1,0-0.2,0c-1.6,0.3-3.2,0.9-4.6,2l-83.3,61c-5.1,3.8-6.3,11.2-2.8,16.6
		l8.7,13.2c3.6,5.4,10.5,6.7,15.6,3l49.6-35.9h1.8c0.2,16.8,2.8,33.4,7.8,49.4c22.7,72.5,88.9,121.2,164.9,121.2
		c50.8,0,98.8-22.3,131.8-61c6.4-7.6,5.5-18.8-2.1-25.2C372.4,330.1,361.1,331,354.7,338.6z"/>
	<path class="st0" d="M498,219.1l-8.8-13.2c-3.6-5.4-10.7-6.7-15.9-3l-50.5,35.9h-0.1c-1.2-19.4-5.6-38.2-13.2-56.2
		c-27.1-64.1-89.6-105.5-159.2-105.5c-43.6,0-85.3,16.3-117.3,45.9c-7.3,6.7-7.7,18.1-1,25.3c6.7,7.3,18.1,7.7,25.3,1
		c25.4-23.5,58.4-36.4,93-36.4c55.2,0,104.7,32.8,126.2,83.6c5.7,13.5,9.1,27.6,10.2,42.1h-2.3L332,205.3c-5.2-3.8-12.3-2.4-15.9,3
		l-8.8,13.2c-3.6,5.4-2.4,12.8,2.8,16.6l86.6,58.5c1.5,1.1,3,1.7,4.7,2c0.1,0,0.1,0,0.2,0c0.6,0.1,1.1,0.1,1.8,0.1
		c0.6,0,1.1-0.1,1.8-0.1c0.1,0,0.1,0,0.2,0c1.6-0.3,3.2-0.9,4.7-2l84.9-61C500.3,231.9,501.6,224.5,498,219.1z"/>
</g>
</svg>
