<?xml version="1.0" encoding="utf-8"?>
<!-- Generator: Adobe Illustrator 23.0.2, SVG Export Plug-In . SVG Version: 6.00 Build 0)  -->
<svg version="1.1" id="Layer_1" xmlns="http://www.w3.org/2000/svg" xmlns:xlink="http://www.w3.org/1999/xlink" x="0px" y="0px"
	 viewBox="0 0 500 500" style="enable-background:new 0 0 500 500;" xml:space="preserve">
<style type="text/css">
	.st0{fill:#78863F;}
</style>
<g>
	<g>
		<g>
			<g>
				<g>
					<path class="st0" d="M354.9,453.4H41.5C18.6,453.4,0,434.8,0,411.9V155.7c0-18.5,15-33.4,33.4-33.4h93.8c7.8,0,15.2,2.7,21,7.5
						l1.2-2.3l5.4,9.5c1,1.5,1.9,3.1,2.7,4.8l21.6,38h175.7c22.9,0,41.5,18.6,41.5,41.5V412C396.4,434.8,377.8,453.4,354.9,453.4z
						 M33.5,139.6c-8.9,0-16.2,7.3-16.2,16.2V412c0,13.3,10.9,24.2,24.2,24.2h313.4c13.3,0,24.2-10.9,24.2-24.2V221.2
						c0-13.3-10.9-24.2-24.2-24.2H169.2l-18.6-32.8l-1,2l-7.4-16.8c-2.6-5.9-8.4-9.7-14.8-9.7L33.5,139.6L33.5,139.6z"/>
				</g>
			</g>
		</g>
	</g>
	<g>
		<g>
			<path class="st0" d="M467.6,105.7h-26.7V79c0-4.1-3.4-7.5-7.5-7.5h-2.6c-4.1,0-7.5,3.4-7.5,7.5v26.7h-26.7
				c-4.1,0-7.5,3.4-7.5,7.5v2.6c0,4.1,3.4,7.5,7.5,7.5h26.7V150c0,4.1,3.4,7.5,7.5,7.5h2.6c4.1,0,7.5-3.4,7.5-7.5v-26.7h26.7
				c4.1,0,7.5-3.4,7.5-7.5v-2.6C475.1,109,471.8,105.7,467.6,105.7z"/>
		</g>
		<g>
			<path class="st0" d="M432.1,182.4c-37.5,0-67.9-30.5-67.9-67.9s30.5-67.9,67.9-67.9S500,77.1,500,114.5S469.5,182.4,432.1,182.4z
				 M432.1,61.3c-29.3,0-53.2,23.9-53.2,53.2s23.9,53.2,53.2,53.2c29.3,0,53.2-23.9,53.2-53.2S461.4,61.3,432.1,61.3z"/>
		</g>
	</g>
</g>
</svg>
