<?xml version="1.0" encoding="utf-8"?>
<!-- Generator: Adobe Illustrator 23.0.2, SVG Export Plug-In . SVG Version: 6.00 Build 0)  -->
<svg version="1.1" id="Layer_1" xmlns="http://www.w3.org/2000/svg" xmlns:xlink="http://www.w3.org/1999/xlink" x="0px" y="0px"
	 viewBox="0 0 500 500" style="enable-background:new 0 0 500 500;" xml:space="preserve">
<style type="text/css">
	.st0{fill:#79863E;}
</style>
<g>
	<g>
		<path class="st0" d="M276.2,218c1.7,0,3.4,0.1,5.2,0.2c-1.5,4.9-2.8,9.9-4.2,14.7c-9.7,33.6-19.3,67.1-29,100.7
			c-1.2,3.9-1.8,7.7-2.8,11.4c-0.7,2.4,0.4,5.1,2.5,6.3c0.8,0.5,1.7,0.8,2.6,0.8c1.3,0,2.7-0.5,3.6-1.6c3.4-3.1,6.6-6.4,9.7-10
			c3-3.7,5.6-7.7,8.4-11.6c0.2-0.4,0.5-0.9,0.9-1.3l5.6,3.2l-2.5,4.3c-6.1,10.8-14.1,20.4-23.5,28.5c-6.3,5.6-14,9.1-22.3,10.3
			c-1.6,0.3-3.2,0.5-4.8,0.5c-5.9,0-11.8-2.1-16.4-6.2c-2.6-2.3-4.4-5.1-5.5-8.3c-1-3.2-1.2-6.7-0.5-10c1.5-8,3.7-15.7,5.9-23.6
			c6.8-24.1,13.9-48.2,20.7-72.1c0.9-3.3,1.5-6.6,1.8-10c0.3-2.7-0.6-5.4-2.4-7.5c-1.8-2-4.4-3.2-7.1-3.3h-7.7
			c0.7-2.2,1.1-3.9,1.8-5.9c0-0.4,1.1-0.7,1.6-0.7c17.6-3.1,35.2-5.9,53.1-8.6C272.7,218.1,274.4,218,276.2,218 M276.2,200.4
			c-2.2,0-4.4,0.1-6.7,0.3c-0.4,0-0.8,0.1-1.2,0.1c-18.2,2.8-35.7,5.6-53.3,8.7c-7.9,1.3-13.8,6.4-15.7,13.2
			c-0.5,1.5-0.9,2.9-1.3,4.2c-0.1,0.5-0.3,1-0.5,1.6c-1.6,5.3-0.6,11.1,2.7,15.6c2.9,3.9,7.3,6.4,12.1,7c-3,10.5-6.1,21.2-9.1,31.6
			c-3.7,12.8-7.5,25.9-11.2,39c-2.2,7.8-4.6,16.1-6.3,24.9c-1.3,6.2-1,12.7,1,18.8c0,0.1,0.1,0.2,0.1,0.3c2.2,6.4,5.7,11.8,10.6,16
			c7.8,6.8,17.7,10.5,27.9,10.5c2.6,0,5.1-0.2,7.7-0.7c11.5-1.7,22.1-6.7,30.9-14.4c10.8-9.3,20-20.4,27.2-33l2.5-4.3
			c4.9-8.4,2-19.2-6.4-24.1l-5.6-3.2c-2.7-1.6-5.6-2.3-8.6-2.4c2.1-7.3,4.2-14.6,6.3-21.8c4.8-16.7,9.6-33.5,14.5-50.3
			c0.8-2.7,1.6-5.4,2.3-8c0.7-2.3,1.3-4.5,1.9-6.7c1.5-5.1,0.7-10.6-2.3-15c-3-4.4-7.8-7.2-13.1-7.6
			C280.6,200.5,278.4,200.4,276.2,200.4L276.2,200.4z"/>
	</g>
	<g>
		<g>
			<path class="st0" d="M250,22c60.5,0.1,118.4,24.2,161.2,66.9c42.7,42.8,66.8,100.7,66.9,161.2c0,60.5-24.1,118.6-66.8,161.3
				C368.4,453.9,310.5,478,250,478s-118.4-24.1-161.3-66.8C46.1,368.4,22,310.5,22,250S46.1,131.4,88.7,88.7
				C131.6,46.1,189.5,22,250,22 M250,437.4c49.8,0,97.4-19.8,132.5-54.9c35.1-35.2,54.9-82.9,54.9-132.5
				c0-49.7-19.8-97.5-54.9-132.6S299.6,62.5,250,62.5s-97.4,19.8-132.5,54.9C82.4,152.6,62.6,200.2,62.6,250
				c0,49.6,19.8,97.4,54.9,132.5S200.2,437.4,250,437.4 M250,0C250,0,250,0,250,0c-33,0-65.2,6.4-95.7,19.1
				c-30.4,12.6-57.7,30.8-81.1,54.1c0,0,0,0,0,0C49.9,96.5,31.7,123.8,19,154.3C6.4,184.8,0,217,0,250c0,33,6.4,65.1,19.1,95.6
				c12.6,30.4,30.8,57.7,54.1,81.1c0,0,0,0,0.1,0.1c23.4,23.3,50.7,41.5,81.1,54.1C184.9,493.6,217,500,250,500s65.1-6.4,95.6-19.1
				c30.4-12.6,57.7-30.8,81.1-54.1c0,0,0,0,0,0c23.3-23.3,41.5-50.6,54.2-81.1c12.6-30.5,19-62.7,19-95.7c0-33-6.5-65.2-19.1-95.6
				c-12.6-30.4-30.8-57.7-54.1-81c0,0,0,0,0,0c-23.3-23.3-50.6-41.5-81-54.1C315.2,6.5,283,0,250,0L250,0z M250,415.5
				c-44.2,0-85.7-17.2-117-48.5c-30.8-30.8-48.5-73.4-48.5-117c0-44.2,17.2-85.7,48.5-117.1c30.8-30.8,73.4-48.5,117-48.5
				s86.2,17.7,117,48.5c30.8,30.8,48.5,73.5,48.5,117.1c0,43.5-17.7,86.1-48.5,117C335.7,398.2,294.2,415.5,250,415.5L250,415.5z"/>
		</g>
	</g>
	<g>
		<path class="st0" d="M271.5,125.4c6.4,0,12.4,2.4,16.8,6.7c4.6,4.5,7.3,10.6,7.4,17c0.1,6.4-2.3,12.6-6.8,17.1
			c-4.5,4.5-10.6,7.2-17,7.2c-0.2,0-0.3,0-0.5,0c-6.2,0-12.1-2.5-16.6-6.9c-4.5-4.5-7.1-10.7-7.1-17.1v-0.1c0-6.4,2.4-12.4,6.8-16.9
			c4.4-4.5,10.4-7,16.7-7.1C271.3,125.4,271.4,125.4,271.5,125.4 M271.5,107.8c-0.2,0-0.3,0-0.5,0c-11,0.1-21.3,4.5-29.1,12.4
			c-7.7,7.8-11.9,18.2-11.9,29.3v0.1c0,11,4.5,21.7,12.3,29.5c0.1,0.1,0.1,0.1,0.2,0.2c7.9,7.6,18.1,11.9,28.9,11.9
			c0.3,0,0.6,0,0.8,0c10.9-0.2,21.3-4.6,29.1-12.4c7.7-7.7,12.1-18.6,12-29.8c-0.1-11-4.6-21.4-12.7-29.3
			C293,112,282.6,107.8,271.5,107.8L271.5,107.8z"/>
	</g>
</g>
</svg>
