<?xml version="1.0" encoding="utf-8"?>
<!-- Generator: Adobe Illustrator 23.0.2, SVG Export Plug-In . SVG Version: 6.00 Build 0)  -->
<svg version="1.1" id="Layer_1" xmlns="http://www.w3.org/2000/svg" xmlns:xlink="http://www.w3.org/1999/xlink" x="0px" y="0px"
	 viewBox="0 0 500 500" style="enable-background:new 0 0 500 500;" xml:space="preserve">
<style type="text/css">
	.st0{fill:#78863F;}
</style>
<g>
	<g>
		<path class="st0" d="M366.6,173.6c-47,0-85.2-38.2-85.2-85.2s38.2-85.2,85.2-85.2s85.2,38.2,85.2,85.2S413.6,173.6,366.6,173.6z
			 M366.6,15.8c-40.1,0-72.6,32.6-72.6,72.6s32.6,72.6,72.6,72.6c40.1,0,72.6-32.6,72.6-72.6S406.6,15.8,366.6,15.8z"/>
	</g>
	<g>
		<path class="st0" d="M381.9,384.1l-4.3-12.5c-1.9-5.5-3.1-11.3-3.8-17c-0.9-8-0.1-12.8,0.8-18.4c0.6-4,1.3-8.5,1.6-15.1
			c0.4-10.2-0.4-20.4-2.3-30.3c-1.3-6.3-2.8-11.3-4.3-15.8c-1.1,3.5-2.1,7.2-2.9,11.6c-1.9,9.8-2.8,20.2-2.3,30.3
			c0.3,6.7,1,11.1,1.6,15.1c0.9,5.6,1.6,10.4,0.8,18.4c-0.6,5.7-1.9,11.4-3.8,17l-4.3,12.5l-2.8-12.9c-0.8-3.4-1.9-8.6-3.6-14.8
			c-3.5-13.5-6-19.9-7.9-25c-1.7-4.3-3-7.8-4.1-13.6c-1-5-5.3-31.5,6.9-56.3c1.3-2.7,2.3-4.4,3.5-6.2c1.2-2,2.6-4.2,4.8-8.6
			c-5.3-6.5-12.3-10.7-26-18.7c-5.2-3.1-9.5-5.3-12.9-7.1c-8.2-4.3-12.8-6.7-14-12.7c-1.8-8.6,5.5-18,13.1-22.5c7-4,16-4.9,25.3-2.4
			c11.3,3,21.4,10.4,26.5,19.3c1.3,2.3,1.6,3.5,1.9,5.5c0.1,0.4,0.2,0.9,0.3,1.5c0.8-2.9,1.1-4.5,1.3-5.7c0.4-2.1,0.6-3.3,1.9-5.5
			c5-8.9,15.2-16.3,26.5-19.3c9.4-2.5,18.4-1.7,25.3,2.4l0,0c7.7,4.5,15,13.9,13.1,22.5c-1.3,6-5.8,8.4-14,12.7
			c-3.4,1.8-7.7,4-12.9,7.1c-14.1,8.3-21.2,12.5-26.5,19.4c-0.7,0.9-1.3,1.8-1.9,2.7c0.6,1.4,1.2,2.6,1.8,3.6
			c2.6,5.3,4.2,7.7,5.5,9.9c1.1,1.9,2.2,3.5,3.5,6.2c12.2,24.9,7.9,51.3,6.9,56.3c-1.1,5.8-2.5,9.2-4.1,13.6
			c-1.9,5.2-4.4,11.5-7.9,25c-1.6,6.2-2.8,11.4-3.6,14.8L381.9,384.1z M369.4,252.7l5.7,15.1c2,5.8,4.3,12.5,6.1,21.5
			c2.1,10.5,2.9,21.3,2.5,32.1c-0.3,7-1,11.8-1.7,16c-0.9,5.5-1.5,9.4-0.8,16.5c0,0.1,0,0.2,0.1,0.3c3.6-13.6,6.2-20.4,8-25.4
			c1.6-4.2,2.8-7.2,3.8-12.4c0.6-2.8,5.2-28.4-6.3-51.6c-1.2-2.5-2.1-4-3.1-5.6c-1.4-2.3-3.1-5-5.8-10.6c-0.8-1.6-1.7-3.5-2.6-5.6
			l-0.8-1.8l0.9-1.6c1.1-1.8,2.1-3.5,3.4-5.2c6.2-8.1,13.7-12.5,28.6-21.3c5.3-3.1,7.7-5.7,11.3-7.5c7.4-3.9,8.8-5.3,9.3-7.9
			c1-4.8-2.5-9.2-8-12.5c-5.2-3-10-4.2-17.5-2.2c-9.3,2.5-13.8,2.1-17.8,9.2c-0.8,1.3-4.5,7-4.8,8.7c-0.4,2-2.5,5.3-4.8,12.8
			c-0.4,1.5-0.9,2.9-1.4,4.2l-4.2,11.8l-3.8-11.8c-2.4-7.5-3.3-10.4-4.3-12.2c-0.8-1.5-2.8-4.6-3.8-5.7c-5.2-5.8-9.6-8.2-18.9-10.6
			c-7.5-2-13.1-2.1-18.4,0.9c-5.5,3.2-8.7,7.9-7.7,12.7c0.5,2.5,0.1,3.1,7.5,7c3.5,1.8,7.9,4.2,13.3,7.3
			c14.9,8.8,22.4,13.2,28.6,21.3l1.9,2.6l-0.7,2.4c-3,6.2-4.7,8.8-6.1,11.1c-1.1,1.7-1.9,3.1-3.1,5.6c-11.1,22.7-7.2,47-6.3,51.6
			c1,5.2,2.1,8.2,3.8,12.3c1.9,5,4.5,11.8,8,25.4c0-0.1,0-0.2,0-0.3c0.8-7,0.1-11-0.8-16.5c-0.6-4.2-1.4-8.9-1.7-16
			c-0.4-10.6,0.4-21.7,2.5-32.1c1.8-8.9,4-15.3,6.1-21.4L369.4,252.7z"/>
	</g>
	<g>
		<path class="st0" d="M129.7,240.1c-47,0-85.2-38.2-85.2-85.2s38.2-85.2,85.2-85.2s85.2,38.2,85.2,85.2S176.6,240.1,129.7,240.1z
			 M129.7,82.2c-40.1,0-72.6,32.6-72.6,72.6s32.6,72.6,72.6,72.6s72.6-32.6,72.6-72.6C202.3,114.8,169.7,82.2,129.7,82.2z"/>
	</g>
	<g>
		<path class="st0" d="M466.2,426.9H281.4v-41.4c0-35-15.2-68.2-41.8-91.1l-3-2.6l1-3.8c7.7-29.6,25.7-55.8,50.6-74
			c10.6-7.7,24.8-8.6,36.2-2.3c1.9,1.1,4.1,2.3,6.4,3.6c14.7,8.7,22.8,13.5,29.4,22l2.8,4l-1.3,3.8l-5.8-2.5l5.5,3.1
			c-2.8,5.7-4.5,8.5-6,10.8c-1,1.6-1.9,3.1-3,5.4c-11,22.5-6.6,47.2-6.1,50c0.9,4.9,2,7.7,3.6,11.9c0.5,1.3,1,2.6,1.6,4.1
			c-0.4-2.9-0.7-6.2-0.9-10.4c-0.4-11,0.4-21.9,2.5-32.6c1.8-9.2,4.2-15.9,6.2-21.8l6.4-18l8,22.3c2.1,5.9,4.4,12.7,6.2,21.8
			c2.1,10.7,3,21.7,2.5,32.6c-0.2,4.2-0.5,7.5-0.9,10.4c0.6-1.5,1.1-2.9,1.6-4.1c1.6-4.2,2.7-7,3.6-11.9c0.6-2.8,5-27.5-6.1-50
			c-1.1-2.4-2-3.8-3-5.4c-1.4-2.3-3.1-5.1-5.9-10.8c-0.8-1.6-1.7-3.5-2.7-5.7l-1.3-3l1.6-2.8c1.1-1.9,2.3-3.6,3.6-5.4
			c6.5-8.6,14.7-13.3,29.4-22l2.4-1.4c11.2-6.4,25-5.9,35.9,1.4l0,0c37.1,24.8,59.2,66.2,59.2,110.7v71.4
			C499.9,411.8,484.8,426.9,466.2,426.9z M294,414.3h172.2c11.6,0,21.1-9.4,21.1-21.1v-71.4c0-40.2-20.1-77.7-53.6-100.2
			c-6.9-4.7-15.6-5-22.6-0.9l-2.3,1.3c-14.3,8.4-20.8,12.2-25.8,18.8c-0.3,0.4-0.7,0.9-1,1.4c0.4,0.8,0.8,1.6,1.1,2.3
			c2.5,5.2,4,7.6,5.3,9.7c1.2,1.9,2.3,3.6,3.6,6.5c12.6,25.6,8.1,52.8,7.1,57.9c-1.2,6-2.5,9.5-4.2,14c-1.9,5.1-4.3,11.4-7.9,24.7
			c-1.6,6.2-2.8,11.3-3.5,14.7l-4.8,21.9l-7.3-21.3c-1.9-5.7-3.3-11.6-3.9-17.5c-0.9-8.3-0.1-13.3,0.8-19.1
			c0.6-3.9,1.3-8.3,1.6-14.8c0.4-10-0.4-20-2.3-29.7c-0.5-2.5-1-4.7-1.6-6.9c-0.2,0.8-0.4,1.7-0.6,2.6c-1.9,9.7-2.7,19.7-2.3,29.7
			c0.3,6.5,0.9,10.9,1.6,14.8c0.9,5.8,1.7,10.8,0.8,19.1c-0.6,5.9-1.9,11.8-3.9,17.5l-7.3,21.3l-4.8-22c-0.8-3.4-1.9-8.6-3.5-14.7
			c-3.5-13.3-5.9-19.7-7.9-24.8c-1.7-4.5-3.1-8-4.2-14c-1-5.2-5.5-32.3,7.1-57.9c1.4-2.8,2.5-4.5,3.6-6.5c1.1-1.7,2.2-3.6,3.9-6.8
			c-4.8-5.5-11.4-9.3-24.1-16.9c-2.2-1.3-4.2-2.5-6.1-3.5c-7.2-4-16.1-3.3-22.8,1.5c-21.4,15.6-37.2,38-44.8,63.3
			c27.4,25.2,43.1,60.7,43.1,98L294,414.3L294,414.3z M354.5,241.8l0.2,0.1l0.6-0.6L354.5,241.8z"/>
	</g>
	<g>
		<path class="st0" d="M145,450.6l-4.3-12.5c-1.9-5.5-3.1-11.3-3.8-17c-0.9-8-0.1-12.8,0.8-18.4c0.6-4,1.3-8.5,1.6-15.1
			c0.4-10.2-0.4-20.4-2.3-30.3c-1.3-6.3-2.8-11.3-4.3-15.8c-1.1,3.5-2.1,7.2-2.9,11.6c-1.9,9.8-2.8,20.2-2.3,30.3
			c0.3,6.7,1,11.1,1.6,15.1c0.9,5.6,1.6,10.4,0.8,18.4c-0.6,5.7-1.9,11.4-3.8,17l-4.3,12.5l-2.8-12.9c-0.8-3.4-1.9-8.6-3.6-14.8
			c-3.5-13.5-6-19.9-7.9-25c-1.7-4.3-3-7.8-4.1-13.6c-1-5-5.3-31.5,6.9-56.3c1.3-2.7,2.3-4.4,3.5-6.2c1.2-2,2.6-4.2,4.8-8.6
			c-5.3-6.5-12.3-10.7-26-18.7c-5.2-3.1-9.5-5.3-12.9-7.1c-8.2-4.3-12.8-6.7-14-12.7c-1.8-8.6,5.5-18,13.1-22.5c7-4,16-4.9,25.3-2.4
			c11.3,3,21.4,10.4,26.5,19.3c1.3,2.3,1.6,3.5,1.9,5.5c0.1,0.4,0.2,0.9,0.3,1.5c0.8-2.9,1.1-4.5,1.3-5.7c0.4-2.1,0.6-3.3,1.9-5.5
			c5-8.9,15.2-16.3,26.5-19.3c9.4-2.5,18.4-1.7,25.3,2.4l0,0c7.7,4.5,15,13.9,13.1,22.5c-1.3,6-5.8,8.4-14,12.7
			c-3.4,1.8-7.7,4-12.9,7.1c-14.1,8.3-21.2,12.5-26.5,19.4c-0.7,0.9-1.3,1.8-1.9,2.7c0.6,1.4,1.2,2.6,1.8,3.6
			c2.6,5.3,4.2,7.7,5.5,9.9c1.1,1.9,2.2,3.5,3.5,6.2c12.2,24.9,7.9,51.3,6.9,56.3c-1.1,5.8-2.5,9.2-4.1,13.6
			c-1.9,5.2-4.4,11.5-7.9,25c-1.6,6.2-2.8,11.4-3.6,14.8L145,450.6z M132.4,319.2l5.7,15.1c2,5.8,4.3,12.5,6.1,21.5
			c2.1,10.5,2.9,21.3,2.5,32.1c-0.3,7-1,11.8-1.7,16c-0.9,5.5-1.5,9.5-0.8,16.5c0,0.1,0,0.2,0.1,0.3c3.6-13.6,6.2-20.4,8-25.4
			c1.6-4.2,2.8-7.2,3.8-12.4c0.6-2.8,5.2-28.4-6.3-51.6c-1.2-2.5-2.1-4-3.1-5.6c-1.4-2.3-3.1-5-5.8-10.6c-0.8-1.6-1.7-3.5-2.6-5.6
			l-0.8-1.8l0.9-1.6c1.1-1.8,2.1-3.5,3.4-5.2c6.2-8.1,13.7-12.5,28.6-21.3c5.3-3.1,7.7-5.7,11.3-7.5c7.4-3.9,8.8-5.3,9.3-7.9
			c1-4.8-2.5-9.2-8-12.5c-5.2-3-10-4.2-17.5-2.2c-9.3,2.5-13.8,2.1-17.8,9.2c-0.8,1.3-4.5,7-4.8,8.7c-0.4,2-2.5,5.3-4.8,12.8
			c-0.4,1.5-0.9,2.9-1.4,4.2l-4.2,11.8l-3.8-11.8c-2.4-7.5-3.3-10.4-4.3-12.2c-0.8-1.5-2.8-4.6-3.8-5.7c-5.2-5.8-9.6-8.2-18.9-10.6
			c-7.5-2-13.1-2.1-18.4,0.9c-5.5,3.2-8.7,7.9-7.7,12.7c0.5,2.5,0.1,3.1,7.5,7c3.5,1.8,7.9,4.2,13.3,7.3
			c14.9,8.8,22.4,13.2,28.6,21.3l1.9,2.6l-0.7,2.4c-3,6.2-4.7,8.8-6.1,11.1c-1.1,1.7-1.9,3.1-3.1,5.6c-11.1,22.7-7.2,47-6.3,51.6
			c1,5.2,2.1,8.2,3.8,12.3c1.9,5,4.5,11.8,8,25.4c0-0.1,0-0.2,0-0.3c0.8-7,0.1-11-0.8-16.5c-0.6-4.2-1.4-8.9-1.7-16
			c-0.4-10.6,0.4-21.7,2.5-32.1c1.8-8.9,4-15.3,6.1-21.4L132.4,319.2z"/>
	</g>
	<g>
		<path class="st0" d="M232.9,496.8H33.6C15.1,496.8,0,481.7,0,463.2v-71.4c0-42.4,20.5-82.7,54.9-107.7c10.6-7.7,24.8-8.6,36.2-2.3
			c1.9,1.1,4.1,2.3,6.4,3.6c14.7,8.7,22.8,13.5,29.4,22c0.3,0.3,0.5,0.7,0.8,1l2.1,3l-1.3,3.7l-5.8-2.5l5.5,3.1
			c-2.8,5.7-4.5,8.5-5.9,10.8c-1,1.6-1.9,3.1-3,5.4c-11,22.5-6.6,47.2-6.1,50c0.9,4.9,2,7.7,3.6,11.9c0.4,1.3,1,2.6,1.6,4.1
			c-0.4-2.9-0.7-6.2-0.9-10.4c-0.4-10.9,0.4-21.9,2.5-32.6c1.8-9.1,4.2-15.9,6.2-21.8l6.3-18l8.1,22.3c2.2,6.3,4.4,12.7,6.2,21.8
			c2.1,10.7,3,21.7,2.5,32.6c-0.2,4.2-0.5,7.5-0.9,10.4c0.6-1.5,1.1-2.9,1.6-4.1c1.6-4.2,2.7-7,3.6-11.9c0.6-2.8,5-27.5-6.1-50
			c-1.1-2.4-2.1-3.8-3-5.4c-1.4-2.3-3.1-5.1-5.9-10.8c-0.8-1.6-1.7-3.5-2.7-5.7l-1.3-3l1.6-2.8c1.1-1.9,2.3-3.8,3.6-5.4
			c6.5-8.5,14.7-13.3,29.4-22l2.4-1.4c11.2-6.5,25-5.9,35.9,1.4l0,0c37.1,24.8,59.2,66.2,59.2,110.7v71.4
			C266.5,481.7,251.4,496.8,232.9,496.8z M74.9,290.1c-4.4,0-8.9,1.4-12.6,4.1c-31.1,22.6-49.7,59.2-49.7,97.6v71.4
			c0,11.6,9.4,21.1,21.1,21.1h199.2c11.6,0,21.1-9.4,21.1-21.1v-71.4c0-40.2-20.1-77.7-53.6-100.2c-6.9-4.7-15.6-5-22.6-0.9
			l-2.3,1.3c-14.3,8.4-20.8,12.2-25.8,18.8c-0.3,0.4-0.7,0.9-1,1.4c0.4,0.8,0.8,1.6,1.1,2.3c2.5,5.2,4,7.5,5.3,9.7
			c1.2,1.9,2.3,3.6,3.6,6.5c12.6,25.6,8.1,52.8,7.1,57.9c-1.2,6-2.5,9.5-4.2,14c-1.9,5.1-4.3,11.4-7.9,24.7
			c-1.6,6.2-2.8,11.3-3.5,14.8l-4.8,22l-7.3-21.3c-1.9-5.7-3.3-11.6-3.9-17.5c-0.9-8.3-0.1-13.3,0.8-19.1c0.6-3.9,1.3-8.3,1.6-14.8
			c0.4-10-0.4-20-2.3-29.7c-0.5-2.5-1-4.7-1.6-6.9c-0.2,0.8-0.4,1.7-0.6,2.6c-1.9,9.7-2.7,19.7-2.3,29.7c0.3,6.5,0.9,10.9,1.6,14.8
			c0.9,5.8,1.7,10.8,0.8,19.1c-0.6,5.9-1.9,11.8-3.9,17.5l-7.3,21.3l-4.8-22c-0.8-3.4-1.9-8.6-3.5-14.8c-3.5-13.3-5.9-19.7-7.9-24.7
			c-1.7-4.5-3.1-8-4.2-14c-1-5.2-5.5-32.3,7.1-57.9c1.4-2.8,2.5-4.5,3.6-6.5c1.1-1.7,2.2-3.6,3.9-6.8c-4.8-5.5-11.4-9.3-24.2-16.9
			c-2.2-1.3-4.2-2.5-6.1-3.5C81.9,290.9,78.4,290.1,74.9,290.1z"/>
	</g>
</g>
</svg>
