<?xml version="1.0" encoding="utf-8"?>
<!-- Generator: Adobe Illustrator 23.0.2, SVG Export Plug-In . SVG Version: 6.00 Build 0)  -->
<svg version="1.1" id="Layer_1" xmlns="http://www.w3.org/2000/svg" xmlns:xlink="http://www.w3.org/1999/xlink" x="0px" y="0px"
	 viewBox="0 0 720.6 780.3" style="enable-background:new 0 0 720.6 780.3;" xml:space="preserve">
<style type="text/css">
	.st0{display:none;}
	.st1{display:inline;}
	.st2{fill:#78863F;}
</style>
<g class="st0">
	<g class="st1">
		<g>
			<path class="st2" d="M576.1,599.3c10.8-37.4,21.5-74.8,32.3-112.2c1.6-5.4,3.1-10.9,4.7-16.4c-3.9-0.3-7.7-0.3-11.6,0
				c-19.9,3-39.5,6.2-59.1,9.6c-0.6,0.1-1.8,0.4-1.8,0.8c-0.8,2.3-1.3,4.2-2,6.6h8.6c3,0.1,5.9,1.4,7.9,3.7c2,2.3,3,5.3,2.7,8.3
				c-0.4,3.8-1.1,7.6-2,11.2c-7.6,26.7-15.5,53.5-23.1,80.3c-2.5,8.7-4.9,17.4-6.6,26.3c-0.8,3.7-0.6,7.5,0.6,11.1
				c1.2,3.6,3.2,6.8,6.1,9.3c6.5,5.7,15.2,8,23.6,6.4c9.2-1.3,17.8-5.3,24.8-11.5c10.5-9,19.3-19.7,26.2-31.7l2.8-4.8l-6.2-3.6v0
				c-0.4,0.5-0.7,1-1,1.5c-3.1,4.3-6,8.8-9.4,12.9c-3.4,3.9-7,7.6-10.8,11.1c-1.7,2-4.7,2.4-6.9,1c-2.4-1.4-3.6-4.3-2.8-7
				C574.2,607.9,574.9,603.6,576.1,599.3z"/>
		</g>
		<g>
			<g>
				<path class="st2" d="M721.5,371.6c-38.2-38.2-90-59.7-144.1-59.8l0,0c-54.1,0-105.9,21.5-144.2,59.7
					c-38.2,38.2-59.7,90.1-59.7,144.2c0,54.1,21.5,105.9,59.7,144.2c38.2,38.2,90.1,59.7,144.2,59.7c54.1,0,105.9-21.5,144.2-59.7
					c38.2-38.2,59.7-90.1,59.7-144.2C781.2,461.6,759.7,409.8,721.5,371.6z M695.9,634.2c-31.4,31.4-74,49.1-118.5,49.1l0,0
					c-44.5,0-87.1-17.7-118.6-49.1c-31.4-31.4-49.1-74.1-49.1-118.5c0-44.5,17.7-87.1,49.1-118.6c31.4-31.4,74.1-49.1,118.6-49.1
					s87.1,17.7,118.5,49.1c31.4,31.4,49.1,74.1,49.1,118.6C745,560.1,727.3,602.8,695.9,634.2z"/>
			</g>
		</g>
		<g>
			<path class="st2" d="M601.9,386.9c-7,0.1-13.7,2.9-18.6,7.9c-4.9,5-7.6,11.7-7.6,18.8v0.2c0,7.1,2.9,14,7.9,19
				c5.1,5,11.9,7.8,19.1,7.7s13.9-3,18.9-8.1c5-5.1,7.7-12,7.6-19.1c-0.1-7.1-3.1-13.9-8.2-18.9C615.9,389.5,609,386.8,601.9,386.9z
				"/>
		</g>
	</g>
</g>
<g>
	<path class="st2" d="M367,690.8c-0.3-0.2-1-0.9-1.5-1.4c-0.6-0.6-1.4-1.3-2.2-2.1c-7.1-6.3-15.6-9.5-25.4-9.5c0,0-0.1,0-0.1,0
		c-39.1,0.1-80.8,0.1-135.1,0.1c-23.7,0-47.4,0-71,0l-25.3,0c-2.1,0-4.2-0.1-6.5-0.1c-2.4-0.1-4.9-0.1-7.5-0.1h-0.5h-0.1
		c-7.4,0-12.4-1.3-18.7-19c-0.9-2.4-0.8-7.3-0.7-11.6c0-1.5,0.1-3.1,0.1-4.7c-0.1-161.9-0.1-326.5-0.1-485.7l0-44c0-1.1,0-2.2,0-3.3
		c0-2.3-0.1-4.4,0.1-6c0.2-1.4,0.3-2.7,0.5-4.1c0.7-6.4,1.4-12.5,2.8-18c0.7-3,1.6-3.5,4.3-3.8c1-0.1,2.5-0.1,3.9-0.1l1.1,0l1.2,0
		c86,0,172,0,258.1,0l161.9,0h0.7h0.7c1.5,0,3.1,0,4.6,0.1c3.1,0.1,4.8,0.8,5.4,1.3c0.6,0.5,1.4,2.2,1.9,5.1
		c0.4,2.5,0.6,5.3,0.6,8.3c0,80.4,0,162.1-0.1,241.1l0,47.7l0,0.9c0,1.4,0,2.9,0.1,4.6c0.7,13.7,8.9,24.2,22,27.9
		c4.4,1.3,8.9,1.9,13.4,1.9c4.9,0,9.8-0.8,14.6-2.4c14.2-4.7,22.3-15.9,22.3-30.9c0-18,0-36,0-54c0-80.6,0-163.9-0.1-245.9
		c0-10.1-1.2-20.2-3.5-29.9c-6.2-26-22-43.3-45.8-50.1c-2.4-0.7-4.6-1.2-6.6-1.6c-0.8-0.2-1.6-0.3-2.3-0.5c-1.3-0.3-2.6-0.4-3.9-0.4
		c-50,0-120.2,0-194.5-0.1C257.3,0.1,176.6,0,116,0c-31.7,0-55,0-71.2,0c-8.8,0-15.6,0-20.2,0.1c-2.4,0-4.2,0-5.4,0
		c-0.7,0-1.3,0-1.6,0C6.8,0.5,2.5,8.3,1.5,10.7c-1,2.2-1.5,4.6-1.5,7.1v192.6v441.3c0,0.5,0,1.1,0.1,1.6c0.1,1,0.2,2,0.3,2.9
		c0.2,1.6,0.3,3,0.4,4.2c0.7,23.7,9.7,43.1,26.9,57.6c12.3,10.4,26.4,16.2,38.9,21.4c13.7,5.6,27.2,6.1,39.8,6.1l1.1,0
		c44.1-0.1,87.9-0.1,121.1-0.1c17.6,0,35.3,0,52.9,0c17.6,0,35.3,0,52.9,0h8.6c0.3,0,0.7,0,1,0c0.4,0,0.8,0,1.3,0
		c1.5,0,3.5,0,5.6-0.3c8.3-1,19.5-5.6,25.4-21.6C383.3,704.6,372.2,694.4,367,690.8z M359.8,717.6c-2,5.3-5,9.4-11,10.2
		c-1.1,0.1-2.3,0.2-3.4,0.2c-0.8,0-1.5,0-2.2,0c-2.9,0-5.8,0-8.6,0c-35.3,0-70.5,0-105.8,0c-40.4,0-80.8,0-121.2,0.1
		c-0.4,0-0.7,0-1.1,0c-11.3,0-22.5-0.4-33.2-4.8c-12.1-5-24.1-10-34.2-18.5C25.2,693,18.8,677.9,18.3,660c-0.1-2.8-0.5-5.5-0.7-8.3
		c0-147.1,0-294.2,0-441.3c0-47.2,0-145.4,0-192.6c0.1-0.1,39.8-0.2,98.5-0.2c117.3,0,310.5,0.2,413.9,0.2c2.7,0.6,5.4,1.1,8.1,1.9
		c18.9,5.4,29.1,19,33.5,37.3c2,8.4,3,17.3,3,25.9c0.2,99.9,0.1,199.9,0.1,299.8c0,7.4-3.2,11.9-10.2,14.2c-3,1-6,1.5-9.1,1.5
		c-2.8,0-5.7-0.4-8.5-1.2c-6-1.7-9-5.7-9.3-11.9c-0.1-1.5,0-3,0-4.6c0-96.3,0.1-192.5,0.1-288.8c0-3.7-0.2-7.4-0.8-11
		c-2.1-13.7-10.1-20.7-23.9-21.3c-1.8-0.1-3.6-0.1-5.4-0.1c-0.5,0-1,0-1.5,0c-54,0-107.9,0-161.9,0c-86,0-172,0-258.1,0
		c-0.8,0-1.5,0-2.3,0c-2,0-4.1,0-6.1,0.3c-10.2,1.3-16.7,7.4-19.1,17.1c-2,7.9-2.7,16.2-3.7,24.3c-0.4,3.8-0.2,7.6-0.2,11.4
		c0,176.6,0,353.2,0.1,529.7c0,7.4-0.8,15.5,1.6,22.2c6.6,18.6,15.3,30.7,35.3,30.7c0.1,0,0.1,0,0.2,0c0.1,0,0.3,0,0.4,0
		c4.7,0,9.3,0.3,14,0.3c32.1,0,64.2,0,96.3,0c45,0,90.1,0,135.1-0.1c0,0,0,0,0,0c5.5,0,9.8,1.6,13.7,5.1c1.8,1.6,3.4,3.4,5.4,4.8
		C361.9,708.6,361.6,712.8,359.8,717.6z"/>
	<path class="st2" d="M706.8,709.7c-14.6-14.3-28.8-28.3-42.8-42.9c-2.3-2.4-5.5-5.8-9.9-9c7.6-12.5,13.2-25.4,16.8-38.4
		c5.6-20,6.4-41,2.6-62.2c-6-32.9-23.2-63-48.7-84.9c-25.3-21.8-57.6-34.5-90.8-35.6c-1.9-0.1-3.8-0.1-5.7-0.1
		c-19.7,0-38.5,3.7-55.8,11.1c-17,7.2-32.8,18.1-46.8,32.2c-20,20.1-33.6,42.4-40.3,66.3c-6.9,24.6-6.6,50.9,1,78
		c14.9,53,51.4,88.6,105.6,102.8c13.1,3.4,26.1,5.2,38.7,5.2c24.5,0,47.7-6.5,69.1-19.3c1.9,2.2,3.8,4.2,5.5,5.8l0.3,0.3
		c14.1,14.1,28.5,28.5,42.4,42.4l5.2,5.2l0.1,0.1c1.4,1.4,3.1,3.1,5.1,4.7c7.2,5.9,16.1,9.1,25.2,9.1c9.2,0,18.2-3.3,25.4-9.2
		c1.7-1.4,5.8-4.8,7.7-10.6C721.9,745.3,724.6,727.2,706.8,709.7z M700.1,755c-0.3,1-1.3,1.8-2.2,2.5c-4.2,3.5-9.2,5.2-14.2,5.2
		c-5,0-10-1.7-14.1-5.1c-1.4-1.1-2.6-2.4-3.9-3.6c-15.9-15.8-31.7-31.7-47.6-47.6c-5.5-5.5-11.1-10.9-11.1-20
		c-2.4,1.8-4.3,3.2-6.2,4.6c-21.8,15.9-45.4,23.4-70.1,23.4c-11.2,0-22.7-1.6-34.3-4.6c-47.6-12.5-79.8-42.9-93.1-90.5
		c-13.6-48.7-0.7-91.5,34.8-127.1c24.9-24.9,55.1-38.1,90.2-38.1c1.7,0,3.3,0,5,0.1c60.3,2.1,111.9,46.2,122.8,106.1
		c7,38.5-3.9,72.3-27,102.9c-0.9,1.2-1.8,2.4-2.8,3.7c0.5,0.4,0.6,0.6,0.7,0.6c0,0,0,0,0,0c1-0.1,2-0.2,3-0.2
		c8.9,0,15.1,5.3,21.2,11.6c14.1,14.7,28.6,29.1,43.2,43.3C705.2,732.9,704.3,742.5,700.1,755z"/>
	<path class="st2" d="M528.9,500.4c-21.4,0.6-39.2,7.9-54.5,21.3c-20.4,17.9-31.4,40.4-29.4,67.8c2.8,38.7,37,78.1,84,78.1
		c7.9,0,16.2-1.1,24.8-3.6c34.8-9.9,57.2-39.9,58-77.6c0.5-22.8-9-41.8-24.3-58C571.4,511.5,551.9,501.1,528.9,500.4z M549.1,647.2
		c-6.7,1.9-13.4,2.9-20,2.9c-37.2,0-64.4-32-66.5-61.8c-1.5-20.7,6.2-38.2,23.5-53.4c12.3-10.8,26.3-16.4,42.8-16.9
		c17.1,0.7,32.1,8.1,45.9,22.6c13.5,14.2,19.8,29.1,19.5,45.5C593.6,616,576.3,639.4,549.1,647.2z"/>
	<path class="st2" d="M480.8,209.1c-0.4-0.8-0.8-1.5-1-2c-5.6-13.8-17.2-21.3-32.5-21.3h0c-59.6,0.1-118.1,0.1-172.3,0.1l-48.9,0
		l-48.9,0h-18c-16.9,0-29,9.7-32.4,26c-1.2,5.9-1.3,12.2-0.4,18.3c1.4,9,5.2,16,11.3,20.9c5.8,4.7,13.2,7.1,22,7.1l48,0h48h48h28.9
		h28.9c28.4,0,56.7,0,85.1,0l0.9,0c0.4,0,0.7,0,1.1,0c1.1,0,2.6,0,4.2-0.1c8.9-0.6,16.7-4,22.6-9.8c6.3-6.2,9.7-14.6,9.7-23.9
		C485.1,217.7,482.5,212.5,480.8,209.1z M451.6,240.4c-1,0.1-1.9,0.1-2.9,0.1c-0.7,0-1.4,0-2,0c-28.4,0-56.7,0-85.1,0
		c-19.3,0-38.5,0-57.8,0c-32,0-64,0-96,0c-16,0-32,0-48,0c-9.4,0-14.5-3.9-16-13.2c-0.6-3.9-0.6-8.1,0.2-12c1.7-8.2,6.8-12,15.1-12
		c6,0,12,0,18,0c32.6,0,65.2,0,97.8,0c57.4,0,114.9,0,172.3-0.1c0,0,0,0,0,0c8,0,13.3,3.1,16.3,10.4c1.5,3.6,4,7.1,4,10.7
		C467.6,233.7,461.1,239.7,451.6,240.4z"/>
	<path class="st2" d="M452.9,411.1c13.6-1.2,24-10.4,26.4-23.5c1.3-6.9,1.6-14.1,0.7-20.7c-1.7-13.5-11.2-23.6-24.9-26.5
		c-3.6-0.8-7.5-1.2-11.5-1.2c-54.6,0-113.6,0-185.9,0c-33,0-66.1,0-99.1,0c-15.7,0-27,8.4-31,23.2c-1.8,6.5-2.3,13.3-1.4,19.6
		c2.5,18.7,14.9,29.4,34.1,29.4c47.6,0,95.3,0,142.9,0c47.5,0,95,0,142.5,0C448.3,411.4,450.6,411.3,452.9,411.1z M303.2,393.8
		c-47.6,0-95.3,0-142.9,0c-10.2,0-15.3-4-16.7-14.2c-0.6-4.1-0.1-8.6,1-12.7c2-7.3,6.5-10.2,14-10.2c33,0,66.1,0,99.1,0
		c61.9,0,123.9,0,185.9,0c2.6,0,5.3,0.2,7.9,0.8c6.2,1.3,10.4,5.3,11.1,11.5c0.6,5.1,0.4,10.4-0.6,15.4c-1,5.5-5,8.7-10.7,9.2
		c-1.9,0.2-3.8,0.2-5.7,0.2C398.2,393.8,350.7,393.8,303.2,393.8z"/>
	<path class="st2" d="M318.9,496.8C318.9,496.8,318.9,496.8,318.9,496.8l-0.6,0l-0.4,0h-0.3h-36.5h-36.5c-28.5,0-57,0-85.4,0
		c-17,0-29.1,9.7-32.4,26.1c-1.2,6-1.3,12.5-0.3,18.7c2.8,17.2,15.1,27.5,32.8,27.5c10.3,0,20.7,0,31,0l24.2,0h24.2
		c2.1,0,4.3,0,6.5,0s4.3,0,6.5,0l10.9,0h7.4h7.4c12.9,0,27.8,0,42.7-0.1c15.2-0.1,27.1-7.7,32.6-20.9c5.2-12.6,4.4-25.5-2.2-35.4
		C343.9,502.7,332.4,496.9,318.9,496.8z M336.4,541.4c-3,7.3-9,10-16.4,10c-14.2,0-28.4,0.1-42.6,0.1c-5,0-9.9,0-14.9,0
		c-3.6,0-7.3,0-10.9,0c-2.2,0-4.3,0-6.5,0s-4.3,0-6.5,0c-16.1,0-32.3,0-48.4,0c-10.3,0-20.7,0-31,0c-8.9,0-14-3.9-15.5-12.8
		c-0.7-4-0.6-8.4,0.2-12.4c1.6-8.2,6.8-11.9,15.1-11.9c28.5,0,57,0,85.4,0c24.3,0,48.7,0,73,0c0.3,0,0.5,0,0.8,0c0.1,0,0.3,0,0.4,0
		C334.6,514.5,342.5,526.5,336.4,541.4z"/>
</g>
</svg>
