<?xml version="1.0" encoding="utf-8"?>
<!-- Generator: Adobe Illustrator 23.0.2, SVG Export Plug-In . SVG Version: 6.00 Build 0)  -->
<svg version="1.1" id="Layer_1" xmlns="http://www.w3.org/2000/svg" xmlns:xlink="http://www.w3.org/1999/xlink" x="0px" y="0px"
	 viewBox="0 0 500 500" style="enable-background:new 0 0 500 500;" xml:space="preserve">
<style type="text/css">
	.st0{fill:#79863E;}
</style>
<g>
	<g>
		<g>
			<path class="st0" d="M368,500H132.1c-23.2,0-42-18.8-42-42V42c0-23.2,18.8-42,42-42h235.8c23.2,0,42,18.8,42,42V458
				C409.9,481.2,391.1,500,368,500z M132.1,18.8c-12.8,0-23.2,10.4-23.2,23.2v416.1c0,12.8,10.4,23.2,23.2,23.2h235.8
				c12.8,0,23.2-10.4,23.2-23.2V42c0-12.8-10.4-23.2-23.2-23.2H132.1z"/>
		</g>
	</g>
	<g>
		<g>
			<path class="st0" d="M368.8,393.3H131.3V30.7h237.5V393.3z M150,374.5h200v-325H150V374.5z"/>
		</g>
	</g>
	<g>
		<g>
			<path class="st0" d="M249.2,473.5c-20,0-36.3-16.2-36.3-36.3c0-20,16.2-36.3,36.3-36.3c20,0,36.3,16.2,36.3,36.3
				C285.4,457.2,269.2,473.5,249.2,473.5z M249.2,419.7c-9.6,0-17.5,7.9-17.5,17.5s7.9,17.5,17.5,17.5c9.6,0,17.5-7.9,17.5-17.5
				S258.8,419.7,249.2,419.7z"/>
		</g>
	</g>
</g>
</svg>
