<?xml version="1.0" encoding="utf-8"?>
<!-- Generator: Adobe Illustrator 23.0.2, SVG Export Plug-In . SVG Version: 6.00 Build 0)  -->
<svg version="1.1" id="Layer_1" xmlns="http://www.w3.org/2000/svg" xmlns:xlink="http://www.w3.org/1999/xlink" x="0px" y="0px"
	 viewBox="0 0 593.1 780.1" style="enable-background:new 0 0 593.1 780.1;" xml:space="preserve">
<style type="text/css">
	.st0{display:none;}
	.st1{display:inline;}
	.st2{fill:#78863F;}
</style>
<g class="st0">
	<g class="st1">
		<g>
			<path class="st2" d="M512.4,599.2c10.8-37.4,21.5-74.8,32.3-112.2c1.6-5.4,3.1-10.9,4.7-16.4c-3.9-0.3-7.7-0.3-11.6,0
				c-19.9,3-39.5,6.2-59.1,9.6c-0.6,0.1-1.8,0.4-1.8,0.8c-0.8,2.3-1.3,4.2-2,6.6h8.6c3,0.1,5.9,1.4,7.9,3.7c2,2.3,3,5.3,2.7,8.3
				c-0.4,3.8-1.1,7.6-2,11.2c-7.6,26.7-15.5,53.5-23.1,80.3c-2.5,8.7-4.9,17.4-6.6,26.3c-0.8,3.7-0.6,7.5,0.6,11.1
				c1.2,3.6,3.2,6.8,6.1,9.3c6.5,5.7,15.2,8,23.6,6.4c9.2-1.3,17.8-5.3,24.8-11.5c10.5-9,19.3-19.7,26.2-31.7l2.8-4.8l-6.2-3.6v0
				c-0.4,0.5-0.7,1-1,1.5c-3.1,4.3-6,8.8-9.4,12.9c-3.4,3.9-7,7.6-10.8,11.1c-1.7,2-4.7,2.4-6.9,1c-2.4-1.4-3.6-4.3-2.8-7
				C510.4,607.8,511.1,603.5,512.4,599.2z"/>
		</g>
		<g>
			<g>
				<path class="st2" d="M657.7,371.5c-38.2-38.2-90-59.7-144.1-59.8l0,0c-54.1,0-105.9,21.5-144.2,59.7
					c-38.2,38.2-59.7,90.1-59.7,144.2c0,54.1,21.5,105.9,59.7,144.2c38.2,38.2,90.1,59.7,144.2,59.7c54.1,0,105.9-21.5,144.2-59.7
					c38.2-38.2,59.7-90.1,59.7-144.2C717.4,461.5,695.9,409.7,657.7,371.5z M632.1,634.1c-31.4,31.4-74,49.1-118.5,49.1l0,0
					c-44.5,0-87.1-17.7-118.5-49.1c-31.4-31.4-49.1-74.1-49.1-118.5c0-44.5,17.7-87.1,49.1-118.6c31.4-31.4,74.1-49.1,118.5-49.1
					s87.1,17.7,118.5,49.1c31.4,31.4,49.1,74.1,49.1,118.6C681.2,560,663.5,602.6,632.1,634.1z"/>
			</g>
		</g>
		<g>
			<path class="st2" d="M538.1,386.8c-7,0.1-13.7,2.9-18.6,7.9c-4.9,5-7.6,11.7-7.6,18.8v0.2c0,7.1,2.9,14,7.9,19
				c5.1,5,11.9,7.8,19.1,7.7s13.9-3,18.9-8.1c5-5.1,7.7-12,7.6-19.1c-0.1-7.1-3.1-13.9-8.2-18.9
				C552.1,389.3,545.2,386.7,538.1,386.8z"/>
		</g>
	</g>
</g>
<g>
	<g>
		<path class="st2" d="M489.5,17.6C489.5,17.6,489.5,17.6,489.5,17.6c47.4,0,86,38.6,86,86c0,47.4-38.6,86-86,86
			c-41,0-75.2-28.9-83.8-67.3h-75.7v248.9h75.7c8.6-38.4,42.8-67.2,83.8-67.2c47.4,0,86,38.6,86,86c0,47.4-38.6,86-86,86
			c-41,0-75.2-28.8-83.8-67.2h-75.7v248.9h75.7c8.6-38.4,42.8-67.3,83.8-67.3c47.4,0,86,38.6,86,86c0,47.4-38.6,86-86,86
			c-41,0-75.2-28.8-83.8-67.2h-94.5c-10.4,0-18.8-8.4-18.8-18.8V178.8h-73.5l0,63.1c0,10.4-8.4,18.8-18.8,18.8H36.4
			c-10.4,0-18.8-8.4-18.8-18.8V78.1c0-10.4,8.4-18.8,18.8-18.8h163.7c10.4,0,18.8,8.4,18.8,18.8v63.1h73.5v-37.6
			c0-10.4,8.4-18.8,18.8-18.8l94.5,0l0,0l0,0C414.3,46.4,448.5,17.6,489.5,17.6 M489.5,152.1c26.7,0,48.5-21.8,48.5-48.5
			c0-26.7-21.7-48.5-48.5-48.5c-26.7,0-48.5,21.7-48.5,48.5C441,130.3,462.8,152.1,489.5,152.1 M55.1,223h126.1V96.9H55.1V223
			 M489.5,438.5c26.7,0,48.5-21.7,48.5-48.5c0-26.7-21.7-48.5-48.5-48.5c-26.7,0-48.5,21.7-48.5,48.5S462.8,438.5,489.5,438.5
			 M489.5,725c26.7,0,48.5-21.7,48.5-48.5c0-26.7-21.7-48.5-48.5-48.5c-26.7,0-48.4,21.8-48.5,48.5C441,703.2,462.8,725,489.5,725
			 M489.5,0L489.5,0c-23.7,0-46.8,8.2-65.1,23.2c-14.3,11.6-25.3,27-31.7,44.1h-81.5c-20,0-36.4,16.3-36.4,36.4v20h-38.4V78.1
			c0-20-16.3-36.4-36.4-36.4H36.4C16.3,41.8,0,58.1,0,78.1v163.7c0,20,16.3,36.4,36.4,36.4h163.7c20,0,36.4-16.3,36.4-36.4l0-45.5
			h38.4v480.2c0,20,16.3,36.4,36.4,36.4h81.5c6.4,17.1,17.4,32.4,31.7,44.1c18.4,14.9,41.5,23.2,65.1,23.2
			c57.1,0,103.6-46.5,103.6-103.6c0-57.1-46.5-103.6-103.6-103.6c-23.6,0-46.8,8.2-65.1,23.2c-14.3,11.6-25.3,27-31.7,44.1h-45.1
			V426.4h45.1c6.4,17.1,17.4,32.4,31.7,44.1c18.4,14.9,41.5,23.2,65.1,23.2c57.1,0,103.6-46.5,103.6-103.6s-46.5-103.6-103.6-103.6
			c-23.6,0-46.8,8.2-65.1,23.2c-14.3,11.6-25.3,27-31.7,44.1h-45.1V140h45.1c6.4,17.1,17.4,32.4,31.7,44.1
			c18.4,14.9,41.5,23.2,65.1,23.2c57.1,0,103.6-46.5,103.6-103.6C593.1,46.5,546.6,0,489.5,0L489.5,0z M489.5,134.5
			c-17,0-30.9-13.9-30.9-30.9c0-17,13.9-30.9,30.9-30.9s30.9,13.9,30.9,30.9C520.4,120.6,506.5,134.5,489.5,134.5L489.5,134.5z
			 M72.7,114.5h91v91h-91V114.5L72.7,114.5z M489.5,420.9c-17,0-30.9-13.9-30.9-30.9c0-17,13.9-30.9,30.9-30.9s30.9,13.9,30.9,30.9
			C520.4,407.1,506.5,420.9,489.5,420.9L489.5,420.9z M489.5,707.4c-17,0-30.9-13.9-30.9-30.9c0-17,13.9-30.9,30.9-30.9
			c17,0,30.9,13.9,30.9,30.9C520.4,693.5,506.5,707.4,489.5,707.4L489.5,707.4z"/>
	</g>
</g>
</svg>
