<?xml version="1.0" encoding="utf-8"?>
<!-- Generator: Adobe Illustrator 23.0.2, SVG Export Plug-In . SVG Version: 6.00 Build 0)  -->
<svg version="1.1" id="Layer_1" xmlns="http://www.w3.org/2000/svg" xmlns:xlink="http://www.w3.org/1999/xlink" x="0px" y="0px"
	 viewBox="0 0 500 500" style="enable-background:new 0 0 500 500;" xml:space="preserve">
<style type="text/css">
	.st0{fill:#7A873F;}
</style>
<g>
	<g>
		<path class="st0" d="M254.1,194.3c-34.6,0-62.8-28.1-62.8-62.8s28.1-62.8,62.8-62.8s62.8,28.1,62.8,62.8S288.7,194.3,254.1,194.3z
			 M254.1,75.3c-31,0-56.3,25.2-56.3,56.3s25.2,56.3,56.3,56.3s56.3-25.2,56.3-56.3S285.1,75.3,254.1,75.3z"/>
	</g>
	<g>
		<path class="st0" d="M259.8,355.1l-3.2-9.4c-1.4-4.2-2.4-8.5-2.9-12.8c-0.6-6.1-0.1-9.7,0.6-13.9c0.4-3,1-6.4,1.2-11.4
			c0.3-7.7-0.3-15.3-1.7-22.9c-1-4.8-2.1-8.5-3.2-11.9c-0.8,2.6-1.6,5.5-2.2,8.7c-1.5,7.4-2.1,15.3-1.7,22.9c0.2,5,0.7,8.4,1.2,11.4
			c0.7,4.2,1.2,7.9,0.6,13.9c-0.4,4.3-1.4,8.7-2.9,12.8l-3.2,9.4l-2.2-9.7c-0.6-2.6-1.5-6.5-2.7-11.2c-2.7-10.1-4.5-15-6-18.9
			c-1.3-3.3-2.3-5.9-3.1-10.2c-0.8-3.8-4-23.7,5.2-42.4c1-2.1,1.8-3.3,2.7-4.7c1-1.5,2-3.2,3.6-6.4c-4-4.9-9.4-8.1-19.6-14.1
			c-4-2.3-7.2-4-9.7-5.4c-6.2-3.3-9.6-5-10.6-9.6c-1.4-6.5,4.1-13.6,9.9-17c5.3-3,12-3.7,19.1-1.8c8.5,2.3,16.2,7.9,20,14.5
			c1,1.7,1.1,2.6,1.5,4.2c0.1,0.3,0.1,0.7,0.3,1.1c0.6-2.2,0.9-3.5,1-4.3c0.3-1.6,0.5-2.4,1.5-4.2c3.8-6.7,11.4-12.3,20-14.5
			c7.1-1.9,13.9-1.3,19.1,1.8l0,0c5.8,3.4,11.3,10.5,9.9,17c-1,4.5-4.3,6.3-10.6,9.6c-2.6,1.4-5.8,3-9.7,5.4
			c-10.6,6.2-15.9,9.4-20,14.6c-0.5,0.7-1,1.4-1.5,2.1c0.5,1,1,1.9,1.3,2.8c2,4,3.1,5.8,4.2,7.5c0.9,1.4,1.6,2.7,2.7,4.7
			c9.2,18.8,6,38.6,5.2,42.4c-0.9,4.3-1.8,6.9-3.1,10.2c-1.5,3.9-3.3,8.7-6,18.9c-1.2,4.7-2.1,8.6-2.7,11.2L259.8,355.1z M250.4,256
			l4.2,11.4c1.6,4.4,3.3,9.4,4.6,16.2c1.6,7.9,2.2,16,1.9,24.2c-0.3,5.3-0.8,8.9-1.3,12c-0.6,4.2-1.1,7.1-0.5,12.4
			c0,0.1,0,0.2,0,0.3c2.7-10.3,4.7-15.4,6.1-19.1c1.2-3.1,2.1-5.5,2.9-9.4c0.4-2.2,3.9-21.4-4.8-38.9c-0.9-1.8-1.6-2.9-2.4-4.2
			c-1.1-1.7-2.3-3.8-4.4-8c-0.6-1.1-1.3-2.6-2-4.2l-0.6-1.3l0.7-1.2c0.8-1.4,1.6-2.6,2.6-3.9c4.7-6.1,10.3-9.4,21.6-16.1
			c4.1-2.4,7.4-4.1,10-5.5c5.5-2.9,7.4-3.9,7.7-5.8c0.8-3.6-3.1-8.7-7.3-11c-4-2.3-9.2-2.8-14.8-1.2c-7,1.9-13.5,6.6-16.6,11.9
			c-0.5,1-0.6,1.2-0.9,2.4c-0.3,1.6-0.8,4.1-2.5,9.7c-0.3,1.1-0.7,2.2-1,3.2l-3.1,8.9l-2.9-8.9c-1.8-5.6-2.3-8.1-2.5-9.7
			c-0.3-1.2-0.3-1.5-0.9-2.4c-3-5.4-9.5-10-16.5-11.9c-5.6-1.6-10.9-1.1-14.8,1.2c-4.2,2.4-8.1,7.4-7.3,11c0.3,1.8,2.2,2.9,7.7,5.8
			c2.6,1.4,5.9,3.1,10,5.5c11.3,6.6,16.9,10,21.6,16.1l1.4,2l-0.5,1.8c-2.3,4.7-3.5,6.7-4.6,8.4c-0.8,1.3-1.5,2.4-2.4,4.2
			c-8.4,17.1-5.5,35.4-4.8,38.9c0.8,3.9,1.6,6.1,2.9,9.4c1.5,3.7,3.4,8.9,6.1,19.1c0-0.1,0-0.2,0-0.2c0.6-5.3,0.1-8.3-0.5-12.4
			c-0.5-3.1-1-6.7-1.3-12c-0.3-8,0.3-16.4,1.9-24.2c1.3-6.8,3-11.5,4.6-16.2L250.4,256z"/>
	</g>
	<g>
		<path class="st0" d="M98.7,239.6c-34.6,0-62.8-28.1-62.8-62.8S64.1,114,98.7,114s62.8,28.1,62.8,62.8S133.2,239.6,98.7,239.6z
			 M98.7,120.6c-31,0-56.3,25.2-56.3,56.3s25.2,56.3,56.3,56.3S155,208,155,176.9S129.7,120.6,98.7,120.6z"/>
	</g>
	<g>
		<path class="st0" d="M108.4,396.6l-3.2-9.4c-1.4-4.2-2.4-8.5-2.9-12.8c-0.6-6.1-0.1-9.7,0.6-13.9c0.4-3,1-6.4,1.2-11.4
			c0.3-7.7-0.3-15.3-1.7-22.9c-1-4.8-2.1-8.5-3.2-11.9c-0.8,2.6-1.6,5.5-2.2,8.7c-1.5,7.4-2.1,15.3-1.7,22.9c0.2,5,0.7,8.4,1.2,11.4
			c0.7,4.2,1.2,7.9,0.6,13.9c-0.4,4.3-1.4,8.7-2.9,12.8l-3.2,9.4l-2.2-9.7c-0.6-2.6-1.5-6.5-2.7-11.2c-2.7-10.1-4.5-15-6-18.9
			c-1.3-3.3-2.3-5.9-3.1-10.2c-0.8-3.8-4-23.7,5.2-42.4c1-2.1,1.8-3.3,2.7-4.7c1-1.5,2-3.2,3.6-6.4c-4-4.9-9.4-8.1-19.6-14.1
			c-4-2.3-7.2-4-9.7-5.4c-6.2-3.3-9.6-5-10.6-9.6c-1.4-6.5,4.1-13.6,9.9-17c5.3-3,12-3.7,19.1-1.8c8.5,2.3,16.2,7.9,20,14.5
			c1,1.7,1.1,2.6,1.5,4.2c0.1,0.3,0.1,0.7,0.3,1.1c0.6-2.2,0.9-3.5,1-4.3c0.3-1.6,0.5-2.4,1.5-4.2c3.8-6.7,11.4-12.3,20-14.5
			c7.1-1.9,13.9-1.3,19.1,1.8l0,0c5.8,3.4,11.3,10.5,9.9,17c-1,4.5-4.3,6.3-10.6,9.6c-2.6,1.4-5.8,3-9.7,5.4
			c-10.6,6.2-15.9,9.4-20,14.6c-0.5,0.7-1,1.4-1.5,2.1c0.5,1,1,1.9,1.3,2.8c2,4,3.1,5.8,4.2,7.5c0.9,1.4,1.6,2.7,2.7,4.7
			c9.2,18.8,6,38.6,5.2,42.4c-0.9,4.3-1.8,6.9-3.1,10.2c-1.5,3.9-3.3,8.7-6,18.9c-1.2,4.7-2.1,8.6-2.7,11.2L108.4,396.6z M99,297.6
			l4.2,11.4c1.6,4.4,3.3,9.4,4.6,16.2c1.6,7.9,2.2,16,1.9,24.2c-0.3,5.3-0.8,8.9-1.3,12c-0.6,4.2-1.1,7.1-0.5,12.4
			c0,0.1,0,0.2,0,0.3c2.7-10.3,4.7-15.4,6.1-19.1c1.2-3.1,2.1-5.5,2.9-9.4c0.4-2.2,3.9-21.4-4.8-38.9c-0.9-1.8-1.6-2.9-2.4-4.2
			c-1.1-1.7-2.3-3.8-4.4-8c-0.6-1.1-1.3-2.6-2-4.2l-0.6-1.3l0.7-1.2c0.8-1.4,1.6-2.6,2.6-3.9c4.7-6.1,10.3-9.4,21.6-16.1
			c4.1-2.4,7.4-4.1,10-5.5c5.5-2.9,7.4-3.9,7.7-5.8c0.8-3.6-3.1-8.7-7.3-11c-4-2.3-9.2-2.8-14.8-1.2c-7,1.9-13.5,6.6-16.6,11.9
			c-0.5,1-0.6,1.2-0.9,2.4c-0.3,1.6-0.8,4.1-2.5,9.7c-0.3,1.1-0.7,2.2-1,3.2l-3.1,8.9l-2.9-8.9c-1.8-5.6-2.3-8.1-2.5-9.7
			c-0.3-1.2-0.3-1.5-0.9-2.4c-3-5.4-9.5-10-16.5-11.9c-5.6-1.6-10.9-1.1-14.8,1.2c-4.2,2.4-8.1,7.4-7.3,11c0.3,1.8,2.2,2.9,7.7,5.8
			c2.6,1.4,5.9,3.1,10,5.5c11.3,6.6,16.9,10,21.6,16.1l1.4,2l-0.5,1.8c-2.3,4.7-3.5,6.7-4.6,8.4c-0.8,1.3-1.5,2.4-2.4,4.2
			c-8.4,17.1-5.5,35.4-4.8,38.9c0.8,3.9,1.6,6.1,2.9,9.4c1.5,3.7,3.4,8.9,6.1,19.1c0-0.1,0-0.2,0-0.2c0.6-5.3,0.1-8.3-0.5-12.4
			c-0.5-3.1-1-6.7-1.3-12c-0.3-8,0.3-16.4,1.9-24.2c1.3-6.8,3-11.5,4.6-16.2L99,297.6z"/>
	</g>
	<g>
		<path class="st0" d="M401.2,240.3c-34.6,0-62.8-28.1-62.8-62.8s28.1-62.8,62.8-62.8s62.8,28.1,62.8,62.8S435.8,240.3,401.2,240.3z
			 M401.2,121.4c-31,0-56.3,25.2-56.3,56.3s25.2,56.3,56.3,56.3s56.3-25.2,56.3-56.3S432.2,121.4,401.2,121.4z"/>
	</g>
	<g>
		<path class="st0" d="M410,400.8l-3.2-9.4c-1.4-4.2-2.4-8.5-2.9-12.8c-0.6-6.1-0.1-9.7,0.6-13.9c0.4-3,1-6.4,1.2-11.4
			c0.3-7.7-0.3-15.3-1.7-22.9c-1-4.8-2.1-8.5-3.2-11.9c-0.8,2.6-1.6,5.5-2.2,8.7c-1.5,7.4-2.1,15.3-1.7,22.9c0.2,5,0.7,8.4,1.2,11.4
			c0.7,4.2,1.2,7.9,0.6,13.9c-0.4,4.3-1.4,8.7-2.9,12.8l-3.2,9.4l-2.2-9.7c-0.6-2.6-1.5-6.5-2.7-11.2c-2.7-10.1-4.5-15-6-18.9
			c-1.3-3.3-2.3-5.9-3.1-10.2c-0.8-3.8-4-23.7,5.2-42.4c1-2.1,1.8-3.3,2.7-4.7c1-1.5,2-3.2,3.6-6.4c-4-4.9-9.4-8.1-19.6-14.1
			c-4-2.3-7.2-4-9.7-5.4c-6.2-3.3-9.6-5-10.6-9.6c-1.4-6.5,4.1-13.6,9.9-17c5.3-3,12-3.7,19.1-1.8c8.5,2.3,16.2,7.9,20,14.5
			c1,1.7,1.1,2.6,1.5,4.2c0.1,0.3,0.1,0.7,0.3,1.1c0.6-2.2,0.9-3.5,1-4.3c0.3-1.6,0.5-2.4,1.5-4.2c3.8-6.7,11.4-12.3,20-14.5
			c7.1-1.9,13.9-1.3,19.1,1.8l0,0c5.8,3.4,11.3,10.5,9.9,17c-1,4.5-4.3,6.3-10.6,9.6c-2.6,1.4-5.8,3-9.7,5.4
			c-10.6,6.2-15.9,9.4-20,14.6c-0.5,0.7-1,1.4-1.5,2.1c0.5,1,1,1.9,1.3,2.8c2,4,3.1,5.8,4.2,7.5c0.9,1.4,1.6,2.7,2.7,4.7
			c9.2,18.8,6,38.6,5.2,42.4c-0.9,4.3-1.8,6.9-3.1,10.2c-1.5,3.9-3.3,8.7-6,18.9c-1.2,4.7-2.1,8.6-2.7,11.2L410,400.8z M400.5,301.7
			l4.2,11.4c1.6,4.4,3.3,9.4,4.6,16.2c1.6,7.9,2.2,16,1.9,24.2c-0.3,5.3-0.8,8.9-1.3,12c-0.6,4.2-1.1,7.1-0.5,12.4
			c0,0.1,0,0.2,0,0.3c2.7-10.3,4.7-15.4,6.1-19.1c1.2-3.1,2.1-5.5,2.9-9.4c0.4-2.2,3.9-21.4-4.8-38.9c-0.9-1.8-1.6-2.9-2.4-4.2
			c-1.1-1.7-2.3-3.8-4.4-8c-0.6-1.1-1.3-2.6-2-4.2l-0.6-1.3l0.7-1.2c0.8-1.4,1.6-2.6,2.6-3.9c4.7-6.1,10.3-9.4,21.6-16.1
			c4.1-2.4,7.4-4.1,10-5.5c5.5-2.9,7.4-3.9,7.7-5.8c0.8-3.6-3.1-8.7-7.3-11c-4-2.3-9.2-2.8-14.8-1.2c-7,1.9-13.5,6.6-16.6,11.9
			c-0.5,1-0.6,1.2-0.9,2.4c-0.3,1.6-0.8,4.1-2.5,9.7c-0.3,1.1-0.7,2.2-1,3.2l-3.1,8.9l-2.9-8.9c-1.8-5.6-2.3-8.1-2.5-9.7
			c-0.3-1.2-0.3-1.5-0.9-2.4c-3-5.4-9.5-10-16.5-11.9c-5.6-1.6-10.9-1.1-14.8,1.2c-4.2,2.4-8.1,7.4-7.3,11c0.3,1.8,2.2,2.9,7.7,5.8
			c2.6,1.4,5.9,3.1,10,5.5c11.3,6.6,16.9,10,21.6,16.1l1.4,2l-0.5,1.8c-2.3,4.7-3.5,6.7-4.6,8.4c-0.8,1.3-1.5,2.4-2.4,4.2
			c-8.4,17.1-5.5,35.4-4.8,38.9c0.8,3.9,1.6,6.1,2.9,9.4c1.5,3.7,3.4,8.9,6.1,19.1c0-0.1,0-0.2,0-0.2c0.6-5.3,0.1-8.3-0.5-12.4
			c-0.5-3.1-1-6.7-1.3-12c-0.3-8,0.3-16.4,1.9-24.2c1.3-6.8,3-11.5,4.6-16.2L400.5,301.7z"/>
	</g>
	<g>
		<path class="st0" d="M476.4,431.3H326.2c-13.2,0-23.8-10.7-23.8-23.8v-53.8c0-31.5,15.2-61.4,40.8-80c7.7-5.5,17.5-6.2,25.7-1.7
			c1.8,1,3.2,1.8,4.8,2.8c11.2,6.6,17.1,10,21.7,16.2l0.7,0.9l0.6,3.2l-0.6,0.8c-2,4.2-3.3,6.1-4.3,7.9c-0.8,1.2-1.5,2.3-2.3,4.2
			c-8,16.4-5.5,33.8-4.7,38.7c0.7,3.8,1.6,6.1,2.8,9.2c1.3,3.5,3,8,5.4,16.5c0.2-3.7-0.3-6.3-0.8-9.7c-0.5-3.1-1-6.8-1.3-12.1
			c-0.3-8.3,0.3-16.4,1.9-24.2c1.4-6.9,3.1-11.9,4.6-16.3l3.2,0.1h0.1l-3-0.9l2.9-9.8l4.8,13.9c1.7,5.2,3.3,9.8,4.6,16.3
			c1.6,7.8,2.2,15.9,1.9,24.2c-0.3,5.4-0.8,8.9-1.3,12c-0.5,3.4-1,6.1-0.8,9.8c2.3-8.5,4.1-13.1,5.4-16.5c1.2-3.1,2.1-5.4,2.8-9.2
			c0.1-0.3,4.3-20.3-4.7-38.6c-1-1.9-1.6-3-2.4-4.3c-1-1.7-2.3-3.7-4.3-7.9c-0.6-1.1-1.3-2.7-2.1-4.3l-0.7-1.5l0.8-1.5
			c0.8-1.3,1.6-2.7,2.6-3.9c4.7-6.1,10.3-9.4,21.5-16l2-1.2c8-4.5,17.7-4.2,25.5,1l0,0c27.4,18.4,44,49.2,44.1,82.3v53.8
			C500.3,420.6,489.5,431.3,476.4,431.3z M357.3,275.5c-3.6,0-7.2,1.1-10.3,3.4c-23.9,17.4-38.1,45.4-38.1,74.8v53.8
			c0,9.6,7.8,17.3,17.3,17.3h150.1c9.6,0,17.3-7.8,17.3-17.3v-53.8c-0.1-30.9-15.5-59.7-41.1-76.9c-5.7-3.8-12.9-4.1-18.6-0.8
			l-1.7,1c-10.6,6.3-15.9,9.4-19.8,14.5c-0.4,0.6-0.9,1.2-1.2,1.8c0.4,0.9,0.8,1.7,1.2,2.4c2,4,3.1,5.9,4.2,7.5
			c0.9,1.5,1.6,2.7,2.7,4.8c10,20.3,5.4,41.9,5.2,42.9c-0.9,4.3-1.8,6.9-3.1,10.2c-1.5,3.9-3.3,8.7-6,18.8
			c-1.2,4.7-2.2,8.5-2.6,11.1l-2.3,11.5l-4-11.1c-1-2.8-2.3-7.3-2.9-13c-0.6-6.1-0.1-9.7,0.6-14c0.4-2.9,1-6.3,1.2-11.3
			c0.3-7.8-0.3-15.4-1.7-22.7c-0.8-4.1-1.7-7.4-2.7-10.4c-0.6,2.2-1.2,4.6-1.7,7.2c-1.5,7.4-2,15-1.7,22.7c0.2,4.9,0.7,8.3,1.2,11.3
			c0.7,4.2,1.2,7.9,0.6,13.9c-0.5,4.3-1.4,8.5-2.9,12.8l-3.5,11.2l-3.1-13.5c-0.5-2.4-1.3-5.5-2.2-9.1c-2.6-10.1-4.5-15-6-18.8
			c-1.3-3.3-2.3-5.9-3.1-10.3c-1-5.5-3.6-24.6,5.2-42.8c1-2.1,1.8-3.3,2.7-4.7c0.9-1.5,1.9-3.1,3.5-6.1c-3.7-4.6-8.8-7.6-18.7-13.4
			c-2.1-1.2-3.5-2-4.7-2.7C363.4,276.3,360.3,275.5,357.3,275.5z"/>
	</g>
	<g>
		<path class="st0" d="M174,426.9H23.9C10.7,426.9,0,416.2,0,403.1v-53.8c0-31.5,15.2-61.4,40.8-80c7.7-5.5,17.6-6.1,25.7-1.7
			c1.8,1,3.3,1.8,4.8,2.8c11.2,6.5,17.1,10,21.7,16.1l0.7,0.9l0.6,2v1.5l-0.7,0.8c-2,4-3.2,6-4.2,7.7c-0.8,1.2-1.5,2.3-2.3,4.2
			c-8,16.4-5.5,33.8-4.7,38.7c0.7,3.8,1.6,6.1,2.8,9.2c1.3,3.5,3,8,5.4,16.5c0.2-3.7-0.3-6.3-0.8-9.7c-0.5-3.1-1-6.8-1.3-12.1
			c-0.3-8.2,0.3-16.4,1.9-24.2c1.3-6.8,2.9-11.6,4.6-16.2l3,0.1l0.2-0.1l-2.9-0.9l3-9.6l4.9,14.5c1.5,4.4,3,9,4.3,15.4
			c1.6,7.8,2.2,15.9,1.9,24.2c-0.3,5.4-0.8,8.9-1.3,12c-0.5,3.4-1,6.1-0.8,9.8c2.3-8.5,4.1-13.1,5.4-16.5c1.2-3.1,2.1-5.4,2.8-9.2
			c0.1-0.3,4.4-20.3-4.7-38.6c-1-1.9-1.6-3-2.4-4.3c-1-1.7-2.3-3.7-4.3-7.9c-0.6-1.1-1.4-2.6-2.1-4.3l-0.6-1.5l0.8-1.4
			c0.8-1.3,1.6-2.7,2.6-3.9c4.7-6.1,10.3-9.4,21.6-16l1.9-1.1c8-4.6,17.7-4.2,25.5,1l0,0c27.4,18.4,44,49.2,44.1,82.3v53.8
			C197.8,416.2,187.2,426.9,174,426.9z M54.9,271.2c-3.6,0-7.2,1.1-10.2,3.4c-23.9,17.4-38.2,45.4-38.2,74.8v53.8
			c0,9.6,7.8,17.3,17.4,17.3H174c9.6,0,17.3-7.8,17.3-17.3v-53.8c-0.1-30.9-15.5-59.7-41.1-76.9c-5.7-3.8-12.9-4.1-18.7-0.8l-1.7,1
			c-10.6,6.2-15.9,9.4-19.8,14.5c-0.4,0.6-0.9,1.2-1.3,1.8c0.4,0.9,0.9,1.7,1.2,2.3c2,4,3.1,5.9,4.2,7.5c0.9,1.5,1.6,2.7,2.7,4.8
			c10,20.4,5.4,41.9,5.2,42.9c-0.9,4.2-1.8,6.9-3.1,10.2c-1.5,3.9-3.3,8.7-6,18.8c-1.2,4.7-2.2,8.5-2.7,11.1l-2.3,11.5l-3.9-11.1
			c-1-2.8-2.3-7.4-2.9-13c-0.6-6.1-0.1-9.7,0.6-14c0.4-2.9,1-6.3,1.2-11.3c0.3-7.8-0.3-15.4-1.7-22.7c-0.8-4.1-1.7-7.4-2.7-10.4
			c-0.6,2.2-1.2,4.6-1.7,7.2c-1.5,7.4-2.1,15-1.7,22.7c0.2,5,0.7,8.4,1.2,11.3c0.7,4.2,1.2,7.9,0.6,13.9c-0.5,4.3-1.5,8.6-2.9,12.9
			l-3.6,11.2l-3-13.2c-0.6-2.5-1.3-5.7-2.3-9.4c-2.6-10.1-4.5-15-6-18.8c-1.3-3.3-2.3-5.9-3.1-10.3c-1-5.5-3.6-24.6,5.2-42.7
			c1-2.1,1.8-3.3,2.7-4.8c0.9-1.5,1.9-3.1,3.5-6.1c-3.7-4.7-8.9-7.7-18.9-13.5c-1.9-1.1-3.3-1.9-4.5-2.6
			C61,271.9,57.9,271.2,54.9,271.2z"/>
	</g>
	<g>
		<path class="st0" d="M299,386h-99.4v-45.1c-0.1-28.6-13.1-55.1-35.8-72.7l-2.1-1.6l1.2-2.3c7.1-14.2,17.6-26.6,30.3-35.8
			c7.6-5.5,17.5-6.2,25.7-1.7l0.9,0.5c1.2,0.7,2.5,1.4,3.9,2.3c11.2,6.6,17.1,10,21.7,16.1l0.7,0.9l0.6,3.3l-0.6,0.8
			c-2,4.1-3.2,6.1-4.2,7.8c-0.8,1.2-1.5,2.3-2.3,4.2c-8.2,16.8-5.3,35.2-4.7,38.7c0.7,3.8,1.6,6.1,2.8,9.2c1.3,3.4,3,8,5.4,16.5
			c0.2-3.7-0.3-6.3-0.8-9.7c-0.5-3.1-1-6.8-1.3-12.1c-0.3-8.3,0.3-16.5,1.9-24.2c1.4-6.8,3-11.6,4.6-16.2l3,0.1l0.2-0.1l-2.9-0.9
			l3-9.6l4.9,14.5c1.5,4.4,3,9,4.3,15.4c1.6,7.8,2.2,15.9,1.9,24.2c-0.3,5.4-0.8,8.9-1.3,12c-0.5,3.4-1,6.1-0.8,9.8
			c2.3-8.5,4.1-13.1,5.4-16.5c1.2-3.1,2.1-5.4,2.8-9.2c0.1-0.3,4.4-20.3-4.7-38.6c-1-1.9-1.6-3-2.4-4.3c-1-1.7-2.3-3.7-4.3-7.9
			c-0.6-1.1-1.3-2.7-2.1-4.3l-0.7-1.5l0.8-1.5c0.8-1.3,1.6-2.7,2.6-3.9c4.7-6.1,10.3-9.4,21.5-16l1.9-1.1c8-4.6,17.7-4.2,25.5,1
			c16,10.7,28.6,25.9,36.2,43.8l1.2,2.9l-2.9,1.3c-1.4,0.6-2.5,1.1-3.5,1.8c-23.9,17.4-38.2,45.4-38.2,74.8V386H299z M206.1,379.5
			h86.4v-28.7c0-31.5,15.2-61.4,40.8-80c0.6-0.4,1.2-0.8,1.8-1.1c-7.2-15.6-18.4-28.7-32.5-38.1c-5.7-3.8-12.9-4.1-18.7-0.8l-1.7,1
			c-10.6,6.2-15.8,9.4-19.8,14.5c-0.4,0.6-0.9,1.2-1.2,1.8c0.4,0.9,0.8,1.7,1.2,2.4c2,4,3.1,5.9,4.2,7.5c0.9,1.5,1.6,2.7,2.7,4.8
			c10,20.4,5.4,41.9,5.2,42.9c-0.9,4.2-1.8,6.9-3.1,10.2c-1.5,3.9-3.3,8.7-6,18.8c-1.2,4.7-2.2,8.5-2.6,11.1l-2.3,11.5l-4-11.1
			c-1-2.8-2.3-7.4-2.9-13c-0.6-6.1-0.1-9.7,0.6-14c0.4-2.9,1-6.3,1.2-11.3c0.3-7.8-0.3-15.4-1.7-22.7c-0.8-4.1-1.7-7.4-2.7-10.4
			c-0.6,2.2-1.2,4.6-1.7,7.2c-1.5,7.4-2,15-1.7,22.7c0.2,4.9,0.8,8.3,1.2,11.3c0.7,4.2,1.2,7.9,0.6,14c-0.5,4.2-1.4,8.5-2.9,12.9
			l-3.5,11.2l-3.2-13.6c-0.5-2.4-1.3-5.5-2.2-9c-2.6-10.1-4.5-15-6-18.8c-1.3-3.3-2.3-6-3.1-10.3c-1-5.5-3.6-24.5,5.2-42.8
			c1-2.1,1.8-3.3,2.7-4.7c0.9-1.5,1.9-3.1,3.5-6.1c-3.8-4.7-8.9-7.7-18.7-13.4c-1.9-1.1-3.2-1.8-4.3-2.5l-0.9-0.5
			c-6-3.3-13.2-2.8-18.8,1.3c-11.2,8.1-20.5,18.9-27.1,31.2c22.9,18.9,36.1,46.5,36.2,76.2L206.1,379.5L206.1,379.5z M242.4,247.9
			L242.4,247.9l0.4-0.4L242.4,247.9z"/>
	</g>
</g>
</svg>
