<?xml version="1.0" encoding="utf-8"?>
<!-- Generator: Adobe Illustrator 23.0.2, SVG Export Plug-In . SVG Version: 6.00 Build 0)  -->
<svg version="1.1" id="Layer_1" xmlns="http://www.w3.org/2000/svg" xmlns:xlink="http://www.w3.org/1999/xlink" x="0px" y="0px"
	 viewBox="0 0 500 500" style="enable-background:new 0 0 500 500;" xml:space="preserve">
<style type="text/css">
	.st0{fill:url(#SVGID_1_);}
	.st1{fill:url(#SVGID_2_);}
	.st2{fill:url(#SVGID_3_);}
	.st3{fill:url(#SVGID_4_);}
	.st4{fill:#FFFFFF;}
</style>
<g>
	
		<radialGradient id="SVGID_1_" cx="233.7323" cy="-168.0261" r="26.1758" gradientTransform="matrix(-11.7467 3.3128 2.3868 8.4629 3631.468 883.0272)" gradientUnits="userSpaceOnUse">
		<stop  offset="0" style="stop-color:#ED1C62"/>
		<stop  offset="1" style="stop-color:#C94B9B"/>
	</radialGradient>
	<path class="st0" d="M251.1,1C146.7,1,116.2,1.1,110.3,1.6C88.8,3.4,75.5,6.8,61,14c-11.2,5.6-20,12-28.7,21
		C16.4,51.5,6.8,71.8,3.3,95.8c-1.7,11.7-2.2,14.1-2.3,73.8c0,19.9,0,46.1,0,81.3c0,104.3,0.1,134.8,0.6,140.7
		c1.7,20.8,5,34,11.9,48.3C26.8,467.4,52,488,81.8,495.7c10.3,2.7,21.7,4.1,36.3,4.8c6.2,0.3,69.3,0.5,132.4,0.5
		c63.1,0,126.3-0.1,132.3-0.4c16.9-0.8,26.7-2.1,37.6-4.9c30-7.7,54.8-28,68.3-55.9c6.8-14,10.2-27.6,11.8-47.4
		c0.3-4.3,0.5-73,0.5-141.6c0-68.6-0.2-137.2-0.5-141.5c-1.6-20.1-5-33.6-12-47.9c-5.7-11.7-12.1-20.4-21.4-29.3
		c-16.5-15.8-36.8-25.4-60.9-28.9c-11.7-1.7-14-2.2-73.8-2.3L251.1,1z"/>
	
		<radialGradient id="SVGID_2_" cx="194.7474" cy="-68.8783" r="26.1758" gradientTransform="matrix(0 -15.2473 -16.1771 0 -980.4399 3508.8813)" gradientUnits="userSpaceOnUse">
		<stop  offset="0" style="stop-color:#FFCD05"/>
		<stop  offset="0.1242" style="stop-color:#FFCD05"/>
		<stop  offset="0.5672" style="stop-color:#F04E23"/>
		<stop  offset="0.6942" style="stop-color:#EE2545"/>
		<stop  offset="1" style="stop-color:#EE205A;stop-opacity:0"/>
	</radialGradient>
	<path class="st1" d="M251.1,1C146.7,1,116.2,1.1,110.3,1.6C88.8,3.4,75.5,6.8,61,14c-11.2,5.6-20,12-28.7,21
		C16.4,51.5,6.8,71.8,3.3,95.8c-1.7,11.7-2.2,14.1-2.3,73.8c0,19.9,0,46.1,0,81.3c0,104.3,0.1,134.8,0.6,140.7
		c1.7,20.8,5,34,11.9,48.3C26.8,467.4,52,488,81.8,495.7c10.3,2.7,21.7,4.1,36.3,4.8c6.2,0.3,69.3,0.5,132.4,0.5
		c63.1,0,126.3-0.1,132.3-0.4c16.9-0.8,26.7-2.1,37.6-4.9c30-7.7,54.8-28,68.3-55.9c6.8-14,10.2-27.6,11.8-47.4
		c0.3-4.3,0.5-73,0.5-141.6c0-68.6-0.2-137.2-0.5-141.5c-1.6-20.1-5-33.6-12-47.9c-5.7-11.7-12.1-20.4-21.4-29.3
		c-16.5-15.8-36.8-25.4-60.9-28.9c-11.7-1.7-14-2.2-73.8-2.3L251.1,1z"/>
	
		<radialGradient id="SVGID_3_" cx="231.6128" cy="-27.9043" r="32.5" gradientTransform="matrix(2.549 -4.3919 -5.7178 -3.3185 -486.2862 1418.5752)" gradientUnits="userSpaceOnUse">
		<stop  offset="0" style="stop-color:#FFCD05"/>
		<stop  offset="1" style="stop-color:#FFCD05;stop-opacity:0"/>
	</radialGradient>
	<path class="st2" d="M251.1,1C146.7,1,116.2,1.1,110.3,1.6C88.8,3.4,75.5,6.8,61,14c-11.2,5.6-20,12-28.7,21
		C16.4,51.5,6.8,71.8,3.3,95.8c-1.7,11.7-2.2,14.1-2.3,73.8c0,19.9,0,46.1,0,81.3c0,104.3,0.1,134.8,0.6,140.7
		c1.7,20.8,5,34,11.9,48.3C26.8,467.4,52,488,81.8,495.7c10.3,2.7,21.7,4.1,36.3,4.8c6.2,0.3,69.3,0.5,132.4,0.5
		c63.1,0,126.3-0.1,132.3-0.4c16.9-0.8,26.7-2.1,37.6-4.9c30-7.7,54.8-28,68.3-55.9c6.8-14,10.2-27.6,11.8-47.4
		c0.3-4.3,0.5-73,0.5-141.6c0-68.6-0.2-137.2-0.5-141.5c-1.6-20.1-5-33.6-12-47.9c-5.7-11.7-12.1-20.4-21.4-29.3
		c-16.5-15.8-36.8-25.4-60.9-28.9c-11.7-1.7-14-2.2-73.8-2.3L251.1,1z"/>
	
		<radialGradient id="SVGID_4_" cx="151.359" cy="437.8268" r="33.5405" gradientTransform="matrix(-9.0667 2.553 0.8696 3.0891 1060.4358 -1717.5483)" gradientUnits="userSpaceOnUse">
		<stop  offset="0" style="stop-color:#6753A3"/>
		<stop  offset="1" style="stop-color:#6D53A3;stop-opacity:0"/>
	</radialGradient>
	<path class="st3" d="M251.1,1C146.7,1,116.2,1.1,110.3,1.6C88.8,3.4,75.5,6.8,61,14c-11.2,5.6-20,12-28.7,21
		C16.4,51.5,6.8,71.8,3.3,95.8c-1.7,11.7-2.2,14.1-2.3,73.8c0,19.9,0,46.1,0,81.3c0,104.3,0.1,134.8,0.6,140.7
		c1.7,20.8,5,34,11.9,48.3C26.8,467.4,52,488,81.8,495.7c10.3,2.7,21.7,4.1,36.3,4.8c6.2,0.3,69.3,0.5,132.4,0.5
		c63.1,0,126.3-0.1,132.3-0.4c16.9-0.8,26.7-2.1,37.6-4.9c30-7.7,54.8-28,68.3-55.9c6.8-14,10.2-27.6,11.8-47.4
		c0.3-4.3,0.5-73,0.5-141.6c0-68.6-0.2-137.2-0.5-141.5c-1.6-20.1-5-33.6-12-47.9c-5.7-11.7-12.1-20.4-21.4-29.3
		c-16.5-15.8-36.8-25.4-60.9-28.9c-11.7-1.7-14-2.2-73.8-2.3L251.1,1z"/>
	<path class="st4" d="M251.1,65.2c-50.5,0-56.8,0.2-76.7,1.1c-19.8,0.9-33.3,4-45.1,8.6c-12.2,4.7-22.6,11.1-32.9,21.4
		c-10.3,10.3-16.7,20.7-21.5,32.9c-4.6,11.8-7.7,25.3-8.6,45.1c-0.9,19.8-1.1,26.2-1.1,76.6c0,50.5,0.2,56.8,1.1,76.6
		c0.9,19.8,4,33.3,8.6,45.1c4.8,12.2,11.1,22.6,21.4,32.9c10.3,10.3,20.7,16.7,32.9,21.4c11.8,4.6,25.3,7.7,45.1,8.6
		c19.8,0.9,26.2,1.1,76.6,1.1c50.5,0,56.8-0.2,76.6-1.1c19.8-0.9,33.3-4,45.1-8.6c12.2-4.7,22.6-11.1,32.9-21.4
		c10.3-10.3,16.7-20.7,21.5-32.9c4.6-11.8,7.7-25.3,8.6-45.1c0.9-19.8,1.1-26.1,1.1-76.6c0-50.5-0.2-56.8-1.1-76.6
		c-0.9-19.8-4.1-33.3-8.6-45.1c-4.8-12.2-11.1-22.6-21.5-32.9C395.4,86,385.1,79.7,372.8,75c-11.9-4.6-25.4-7.7-45.2-8.6
		C307.9,65.4,301.5,65.2,251.1,65.2L251.1,65.2z M234.4,98.7c4.9,0,10.5,0,16.7,0c49.6,0,55.5,0.2,75.1,1.1
		c18.1,0.8,28,3.9,34.5,6.4c8.7,3.4,14.9,7.4,21.4,13.9c6.5,6.5,10.5,12.7,13.9,21.4c2.5,6.5,5.6,16.4,6.4,34.5
		c0.9,19.6,1.1,25.5,1.1,75c0,49.6-0.2,55.5-1.1,75c-0.8,18.1-3.9,27.9-6.4,34.5c-3.4,8.7-7.4,14.8-13.9,21.3
		c-6.5,6.5-12.7,10.5-21.4,13.9c-6.5,2.6-16.4,5.6-34.5,6.4c-19.6,0.9-25.5,1.1-75.1,1.1c-49.6,0-55.5-0.2-75.1-1.1
		c-18.1-0.8-28-3.9-34.5-6.4c-8.7-3.4-14.9-7.4-21.4-13.9c-6.5-6.5-10.5-12.7-13.9-21.4c-2.5-6.5-5.6-16.4-6.4-34.5
		c-0.9-19.6-1.1-25.5-1.1-75.1c0-49.6,0.2-55.5,1.1-75c0.8-18.1,3.9-27.9,6.4-34.5c3.4-8.7,7.4-14.9,13.9-21.4
		c6.5-6.5,12.7-10.5,21.4-13.9c6.6-2.6,16.4-5.6,34.5-6.4C193.1,98.9,199.8,98.7,234.4,98.7L234.4,98.7z M350.3,129.5
		c-12.3,0-22.3,10-22.3,22.3c0,12.3,10,22.3,22.3,22.3c12.3,0,22.3-10,22.3-22.3C372.6,139.5,362.7,129.5,350.3,129.5L350.3,129.5z
		 M251.1,155.6c-52.7,0-95.5,42.7-95.5,95.4s42.7,95.4,95.5,95.4s95.5-42.7,95.5-95.4S303.8,155.6,251.1,155.6L251.1,155.6z
		 M251.1,189c34.2,0,62,27.7,62,61.9c0,34.2-27.7,61.9-62,61.9c-34.2,0-62-27.7-62-61.9C189.1,216.8,216.9,189,251.1,189L251.1,189z
		"/>
</g>
</svg>
