<?xml version="1.0" encoding="utf-8"?>
<!-- Generator: Adobe Illustrator 23.0.2, SVG Export Plug-In . SVG Version: 6.00 Build 0)  -->
<svg version="1.1" id="Layer_1" xmlns="http://www.w3.org/2000/svg" xmlns:xlink="http://www.w3.org/1999/xlink" x="0px" y="0px"
	 viewBox="0 0 500 500" style="enable-background:new 0 0 500 500;" xml:space="preserve">
<style type="text/css">
	.st0{fill:#79863E;}
</style>
<g>
	<g>
		<g>
			<path class="st0" d="M308.7,499.4c-8-1.4-14.9-5.9-19.5-12.6L137.9,266.9l-0.4-0.6c-0.6-1.1-1.2-2.1-1.8-3.4l-0.8-1.6
				c-0.4-1-0.7-2.1-1.2-3.7c-0.2-0.7-0.5-1.3-0.6-2c-0.2-0.8-0.2-1.7-0.3-2.5l-0.1-0.8c0-0.8-0.1-1.6-0.1-2.4s0-1.6,0.1-2.4l0.1-0.8
				c0-0.8,0.2-1.7,0.3-2.6c0.1-0.7,0.3-1.3,0.7-2.5c0.3-1.1,0.6-2.1,1-3.2c0.2-0.5,0.4-1,0.8-1.7c0.6-1.2,1.2-2.2,1.8-3.3L289,13.1
				c9.6-13.8,28.5-17.3,42.3-7.8l23,15.9c13.8,9.6,17.3,28.5,7.8,42.3L233.7,250l128.4,186.4c9.5,13.8,6,32.8-7.8,42.3l-23,15.9
				c-5.2,3.6-11.1,5.4-17.2,5.4C312.3,500,310.4,499.9,308.7,499.4z M311.5,17c-3.6,0.6-6.8,2.7-8.8,5.7L151.9,241.8l-0.4,0.6
				c-0.3,0.5-0.5,1.1-0.8,1.6l-0.4,0.8c-0.1,0.4-0.2,0.9-0.4,1.5l-0.6,3.3l0.6,4.5c0.2,0.4,0.3,0.8,0.4,1.1l0.4,0.8
				c0.3,0.6,0.5,1.1,0.9,1.7l151.3,219.7c2.1,3,5.2,5.1,8.8,5.7c3.6,0.6,7.2-0.2,10.2-2.2l23-15.9c6.2-4.3,7.8-12.9,3.5-19.1
				L213.5,250.1L348.4,54.2c4.3-6.2,2.7-14.8-3.5-19.1l-23-15.9c-2.4-1.6-5-2.4-7.8-2.4C313.2,16.8,312.4,16.9,311.5,17z"/>
		</g>
	</g>
</g>
</svg>
