<?xml version="1.0" encoding="utf-8"?>
<!-- Generator: Adobe Illustrator 23.0.2, SVG Export Plug-In . SVG Version: 6.00 Build 0)  -->
<svg version="1.1" id="Layer_1" xmlns="http://www.w3.org/2000/svg" xmlns:xlink="http://www.w3.org/1999/xlink" x="0px" y="0px"
	 viewBox="0 0 500 500" style="enable-background:new 0 0 500 500;" xml:space="preserve">
<style type="text/css">
	.st0{fill:#79863E;}
</style>
<g>
	<g>
		<g>
			<g>
				<path class="st0" d="M431.9,174.4H68.1c-14.8,0-26.7,10.2-26.7,22.9v181.9c0,12.7,11.9,22.9,26.7,22.9h70.1h10.9V277.2h207.4
					v124.9h11.8h63.6c14.8,0,26.7-10.2,26.7-22.9V197.3C458.6,184.7,446.7,174.4,431.9,174.4z M95.4,238.1
					c-7.8,0-14.3-6.4-14.3-14.3c0-7.8,6.4-14.2,14.3-14.2c7.8,0,14.3,6.4,14.3,14.2C109.7,231.7,103.4,238.1,95.4,238.1z"/>
			</g>
		</g>
	</g>
	<g>
		<g>
			<g>
				<rect x="173.6" y="325.2" class="st0" width="158.5" height="19.2"/>
			</g>
		</g>
	</g>
	<g>
		<g>
			<g>
				<rect x="173.6" y="378.4" class="st0" width="158.5" height="19.2"/>
			</g>
		</g>
	</g>
	<g>
		<g>
			<g>
				<rect x="173.6" y="422.1" class="st0" width="158.5" height="19.2"/>
			</g>
		</g>
	</g>
	<g>
		<g>
			<g>
				<g>
					<polygon class="st0" points="309.9,55.7 264.7,10.5 264.7,100.9 355.1,100.9 					"/>
				</g>
			</g>
		</g>
		<g>
			<g>
				<g>
					<path class="st0" d="M365.5,167.2v-51.6H260.1c-5.6,0-10.2-4.6-10.2-10.2V0h-80.2c-11.4,0-20.7,9.2-20.7,20.7v146.5H365.5z"/>
				</g>
			</g>
		</g>
	</g>
	<g>
		<g>
			<g>
				<path class="st0" d="M343.6,500H162.4c-12.3,0-22.2-9.6-22.2-21.6v-77.8h9.6v77.8c0,6.6,5.6,11.9,12.7,11.9h181.2
					c6.9,0,12.7-5.4,12.7-11.9v-77.8h9.6v77.8C365.9,490.4,355.9,500,343.6,500z"/>
			</g>
		</g>
	</g>
</g>
</svg>
