<?xml version="1.0" encoding="utf-8"?>
<!-- Generator: Adobe Illustrator 23.0.2, SVG Export Plug-In . SVG Version: 6.00 Build 0)  -->
<svg version="1.1" id="Layer_1" xmlns="http://www.w3.org/2000/svg" xmlns:xlink="http://www.w3.org/1999/xlink" x="0px" y="0px"
	 viewBox="0 0 500 500" style="enable-background:new 0 0 500 500;" xml:space="preserve">
<style type="text/css">
	.st0{fill:#79863E;}
</style>
<g>
	<g>
		<path class="st0" d="M250.4,424.9c-76.9,0-144-49.3-166.9-122.6c-3.9-12.5-6.4-25.5-7.4-38.8l-40.1,29.1c-3.8,2.8-8.4,3.9-13,3.1
			c-4.7-0.8-8.8-3.6-11.5-7.7L3,275.1c-5.3-8.1-3.4-19.3,4.3-25l81.2-59.4c2.1-1.6,4.5-2.6,7.3-3.1l1.1-0.1c0.3-0.1,2.4-0.2,3.9,0
			l0.9,0.1c2.7,0.5,5.2,1.6,7.3,3.1l82.6,56.7c7.9,5.9,9.8,17.1,4.5,25.2l-8.5,12.9c-2.7,4.1-6.9,6.9-11.6,7.7
			c-4.6,0.8-9.3-0.3-13-3.1l-38.6-25.2c0.9,7.8,2.5,15.5,4.9,22.9c16.7,53.2,65.3,88.9,121.1,88.9c37.3,0,72.6-16.3,96.7-44.8l0,0
			c4.2-4.9,10-7.9,16.4-8.4c6.4-0.5,12.7,1.6,17.7,5.8c10.1,8.5,11.3,23.7,2.8,33.8C350.3,402.4,301.8,424.9,250.4,424.9z
			 M78.4,245.7h10.4l0.1,6.5c0.2,15.8,2.6,31.4,7.3,46.2c21.2,67.8,83.2,113.4,154.3,113.4c47.5,0,92.4-20.8,123.3-57.1
			c3.9-4.5,3.3-11.4-1.3-15.3c-2.3-2-5.2-3-8.1-2.7c-2.9,0.2-5.5,1.6-7.4,3.8l0,0c-26.6,31.4-65.5,49.4-106.7,49.4
			c-61.5,0-115.2-39.4-133.6-98.1c-4-12.6-6.1-25.9-6.3-39.4l-0.2-12.3l60.2,39.3c1.5,1.1,2.6,1.1,3.3,1c1.2-0.2,2.2-0.9,2.9-2
			l8.5-12.9c1.6-2.3,1-5.7-1.1-7.3l-82.7-56.8c-0.6-0.5-1.2-0.7-1.6-0.8l-0.2,0c-0.5-0.1-1.1-0.1-1.7,0l-0.3,0
			c-0.5,0.1-0.9,0.3-1.2,0.6l-81.3,59.4c-2.1,1.6-2.6,4.9-1.1,7.2l8.5,12.9c0.7,1.1,1.7,1.8,2.8,2c0.7,0.1,1.9,0.1,3-0.8L78.4,245.7
			z"/>
	</g>
	<g>
		<path class="st0" d="M399.4,303.9c-0.8,0-1.5-0.1-2.2-0.1l-0.7-0.1c-2.7-0.4-5.2-1.5-7.4-3.1l-84.2-56.8
			c-8.1-5.9-10-17.1-4.5-25.3l8.6-12.8c2.8-4.1,6.9-6.8,11.6-7.6c4.7-0.8,9.3,0.3,13.2,3.1l41.2,26.3c-1.6-9.2-4.3-18.2-8-27
			c-19.9-47-65.8-77.4-116.8-77.4c-32,0-62.6,12-86.1,33.7c-9.7,9-24.9,8.4-33.9-1.3c-9-9.7-8.4-24.9,1.3-33.9
			c32.4-30,74.6-46.5,118.7-46.5c70.4,0,133.6,41.9,161.1,106.8c6.2,14.5,10.3,29.7,12.3,45.4l40-28.5c3.8-2.8,8.5-3.9,13.1-3
			c4.7,0.8,8.9,3.5,11.6,7.6l8.6,12.9c5.6,8.3,3.5,19.5-4.6,25.1l-82.5,59.3c-2.1,1.6-4.6,2.6-7.3,3l-1.1,0.1
			C400.8,303.8,400.1,303.9,399.4,303.9z M398.2,290.6l0.2,0c1,0.1,1.2,0.1,1.8,0l0.4,0c0.6-0.1,1-0.4,1.5-0.7l82.7-59.4
			c2.3-1.6,2.8-4.7,1.3-7l0,0l-8.6-12.9c-0.7-1.1-1.8-1.8-3-2c-0.8-0.1-2-0.1-3.2,0.8l-50.9,36.3H412l-0.5-6.2
			c-1.1-18.2-5.3-35.9-12.4-52.5c-25.4-60-83.9-98.8-149-98.8c-40.8,0-79.8,15.3-109.8,43c-4.4,4.1-4.7,11-0.6,15.3
			c4.1,4.4,11,4.7,15.3,0.6c25.9-24,59.7-37.2,95-37.2c56.3,0,106.9,33.5,128.9,85.4c5.8,13.8,9.3,28.3,10.5,43.1l0.6,7.1h-11.3
			L326.3,212c-1.5-1.1-2.7-1.1-3.5-1c-1.2,0.2-2.3,0.9-3,2l-8.6,12.8c-1.6,2.3-1,5.6,1.2,7.2l84.2,56.8
			C397.2,290.3,397.6,290.5,398.2,290.6z"/>
	</g>
</g>
</svg>
