<?xml version="1.0" encoding="utf-8"?>
<!-- Generator: Adobe Illustrator 23.0.2, SVG Export Plug-In . SVG Version: 6.00 Build 0)  -->
<svg version="1.1" id="Layer_1" xmlns="http://www.w3.org/2000/svg" xmlns:xlink="http://www.w3.org/1999/xlink" x="0px" y="0px"
	 viewBox="0 0 500 500" style="enable-background:new 0 0 500 500;" xml:space="preserve">
<style type="text/css">
	.st0{fill:#79863E;}
</style>
<g>
	<g>
		<g>
			<path class="st0" d="M297.6,9.7L141,236.9c0,0.1,0,0.1-0.1,0.2c-0.5,0.9-1.1,1.8-1.5,2.8c-0.3,0.4-0.6,0.8-0.7,1.2
				c-0.4,0.9-0.6,1.7-0.8,2.6c-0.1,0.6-0.4,1.2-0.5,1.8c-0.1,0.8-0.1,1.6-0.2,2.3c-0.1,0.7-0.2,1.4-0.2,2.1c0,0.7,0.1,1.4,0.2,2.1
				c0.1,0.8,0.1,1.6,0.2,2.3c0.1,0.6,0.4,1.2,0.5,1.8c0.2,0.9,0.4,1.8,0.8,2.6c0.3,0.4,0.5,0.8,0.7,1.2c0.4,1,0.9,1.9,1.5,2.8
				c0,0.1,0,0.1,0.1,0.2L297.6,490c7.1,10.4,21.3,13.1,31.7,5.9l23.8-16.4c10.4-7.1,13.1-21.3,5.9-31.7L222.7,250L359,52.1
				c7.1-10.3,4.5-24.5-5.9-31.7L329.3,4C318.9-3.1,304.7-0.5,297.6,9.7z"/>
		</g>
	</g>
</g>
</svg>
