<?xml version="1.0" encoding="utf-8"?>
<!-- Generator: Adobe Illustrator 23.0.2, SVG Export Plug-In . SVG Version: 6.00 Build 0)  -->
<svg version="1.1" id="Layer_1" xmlns="http://www.w3.org/2000/svg" xmlns:xlink="http://www.w3.org/1999/xlink" x="0px" y="0px"
	 viewBox="0 0 500 500" style="enable-background:new 0 0 500 500;" xml:space="preserve">
<style type="text/css">
	.st0{fill:#79863E;}
</style>
<g>
	<g>
		<g>
			<path class="st0" d="M334.6,46.1L306.3,65c-11.6,7.7-14.5,22.9-6.4,34l71.7,111.9L25.5,209C11.5,209,0,219.9,0,233.4l0,33.1
				c0,13.5,11.5,24.4,25.5,24.4l346.1,1.9l-77,108.1c-8,11-5.2,26.3,6.4,34l28.3,18.9c11.6,7.8,27.5,5.1,35.6-6.1l130.6-181.8
				c2.3-3.1,3.6-6.6,4.2-10.1c0-0.1,0-0.3,0-0.4c0.2-1.2,0.3-2.5,0.3-3.7c0-1.2-0.1-2.5-0.3-3.7c0-0.1,0-0.3,0-0.4
				c-0.6-3.5-1.9-6.9-4.2-10.1L370.2,52.2C362.1,41,346.2,38.3,334.6,46.1z"/>
		</g>
	</g>
</g>
</svg>
