<?xml version="1.0" encoding="utf-8"?>
<!-- Generator: Adobe Illustrator 23.0.2, SVG Export Plug-In . SVG Version: 6.00 Build 0)  -->
<svg version="1.1" id="Layer_1" xmlns="http://www.w3.org/2000/svg" xmlns:xlink="http://www.w3.org/1999/xlink" x="0px" y="0px"
	 viewBox="0 0 500 500" style="enable-background:new 0 0 500 500;" xml:space="preserve">
<style type="text/css">
	.st0{fill:#79863E;}
</style>
<g>
	<g>
		<g>
			<path class="st0" d="M379.4,500H120.7c-28.9,0-52.3-23.5-52.3-52.3V52.3C68.4,23.5,91.9,0,120.7,0h133.8l177.1,177.1v270.6
				C431.6,476.6,408.1,500,379.4,500z M120.7,21.9c-16.8,0-30.5,13.7-30.5,30.5v395.3c0,16.8,13.7,30.5,30.5,30.5h258.6
				c16.8,0,30.5-13.7,30.5-30.5V186.2L245.6,21.9H120.7z"/>
		</g>
	</g>
	<g>
		<g>
			<path class="st0" d="M415.8,192.6H254.3c-8.3,0-15.1-6.8-15.1-15.1V16.6c0-5.4,3.2-10.2,8.1-12.2c5-2,10.6-0.9,14.4,2.9
				L425,170.5c3.7,3.8,4.8,9.2,2.8,14.1C425.7,189.6,421,192.6,415.8,192.6z M260.9,170.8h133.5L260.9,37.3V170.8z"/>
		</g>
	</g>
</g>
</svg>
