<?xml version="1.0" encoding="utf-8"?>
<!-- Generator: Adobe Illustrator 23.0.2, SVG Export Plug-In . SVG Version: 6.00 Build 0)  -->
<svg version="1.1" id="Layer_1" xmlns="http://www.w3.org/2000/svg" xmlns:xlink="http://www.w3.org/1999/xlink" x="0px" y="0px"
	 viewBox="0 0 500 500" style="enable-background:new 0 0 500 500;" xml:space="preserve">
<style type="text/css">
	.st0{fill:#79863E;}
</style>
<g>
	<g>
		<g>
			<path class="st0" d="M336.6,498c-2.2,0-4.4-0.1-6.5-0.5L82.4,456.9c-6.2-1-12-3.4-17.2-7.1l-1.1-0.8c-1.2-0.8-2.9-2.3-4.4-3.9
				c-1.3-1.2-2.7-2.9-3.9-4.6c-4.4-5.9-6.7-11.9-7.6-18.1L0.5,176c-3.6-22.7,12-44.7,34.7-49.2l37.4-7.4c11.3-2.3,22.7,0.1,32,6.5
				c9.2,6.4,15.1,16.1,17,27.1l26,119L402,14.9c8.1-8.1,18.7-12.6,29.8-12.8c11.5-0.2,22.1,4,30,12l26.2,26.2
				c16.2,16.2,15.9,43.1-0.8,59.9L233.8,356.3l119.6,20.1c11,1.7,20.6,7.8,27,17c6.4,9.3,8.8,20.6,6.5,32l-7.4,37.4
				C375.3,483.3,356.8,498,336.6,498z M28.5,171.4l47.7,246.1c0.4,2.3,1.1,4,2.3,5.7c0.5,0.6,0.8,1.2,1.3,1.7c0.6,0.6,1.1,1,1.7,1.3
				c1.8,1.3,3.6,2.1,5.5,2.4l247.6,40.6c7.4,1.3,15.1-4.4,16.7-12l7.4-37.4c0.7-3.6,0-7.3-2.1-10.1c-1.9-2.8-4.8-4.5-8.2-5.1
				l-173.9-29.2L466.9,80.1c5.7-5.7,6.1-14.4,0.8-19.5l-26.2-26.2c-2.4-2.4-5.6-3.5-9.2-3.6c-3.8,0.1-7.4,1.7-10.2,4.5L130.9,329.7
				L93.5,158.6c-0.7-4.2-2.5-7.1-5.2-9.1c-2.9-2.1-6.4-2.7-10.1-1.9L40.7,155C32.9,156.4,27.4,163.9,28.5,171.4z"/>
		</g>
	</g>
</g>
</svg>
