<?xml version="1.0" encoding="utf-8"?>
<!-- Generator: Adobe Illustrator 23.0.2, SVG Export Plug-In . SVG Version: 6.00 Build 0)  -->
<svg version="1.1" id="Layer_1" xmlns="http://www.w3.org/2000/svg" xmlns:xlink="http://www.w3.org/1999/xlink" x="0px" y="0px"
	 viewBox="0 0 500 500" style="enable-background:new 0 0 500 500;" xml:space="preserve">
<style type="text/css">
	.st0{fill:#79863E;}
</style>
<g>
	<g>
		<path class="st0" d="M456.7,118.7H218.3l-31.8-56.1l0,0c-5-11.5-16.5-19.6-30-19.6H32.8C14.7,43,0,57.7,0,75.8V162v7.3v244.3
			C0,437.6,19.3,457,43.3,457h413.4c23.9,0,43.3-19.4,43.3-43.3V162C500,138.1,480.6,118.7,456.7,118.7z M79.5,406.8
			c-0.8,0.2-1.4-0.5-1.2-1.2L100,331l56.5,55.2L79.5,406.8z M294.3,253.3c-0.1,1.8-0.8,3.6-2.1,5L168.8,381.7
			c-0.3,0.3-0.7,0.5-1,0.8l-64.1-62.7c0.3-0.7,0.7-1.4,1.3-1.8l123.4-123.4c0.8-0.8,1.6-1.3,2.5-1.6l65.2,60.4
			C295.5,253.4,294.9,253.5,294.3,253.3z M320.3,230.1L304,246.4L237.8,185l18.7-18.7c5.9-5.9,15.5-5.9,21.3,0l42.4,42.4
			C326.2,214.7,326.2,224.3,320.3,230.1z"/>
	</g>
</g>
</svg>
