<?xml version="1.0" encoding="utf-8"?>
<!-- Generator: Adobe Illustrator 23.0.2, SVG Export Plug-In . SVG Version: 6.00 Build 0)  -->
<svg version="1.1" id="Layer_1" xmlns="http://www.w3.org/2000/svg" xmlns:xlink="http://www.w3.org/1999/xlink" x="0px" y="0px"
	 viewBox="0 0 500 500" style="enable-background:new 0 0 500 500;" xml:space="preserve">
<style type="text/css">
	.st0{fill:#79863E;}
</style>
<g>
	<g>
		<g>
			<path class="st0" d="M170.7,4l-23.8,16.4c-10.4,7.2-13,21.4-5.9,31.7L277.3,250L141,447.8c-7.2,10.4-4.5,24.6,5.9,31.7l23.8,16.4
				c10.4,7.2,24.6,4.5,31.7-5.9L359,262.9c0.1-0.1,0.1-0.1,0.1-0.2c0.6-0.9,1.1-1.8,1.5-2.8c0.2-0.4,0.4-0.8,0.7-1.2
				c0.4-0.8,0.6-1.7,0.8-2.6c0.1-0.6,0.4-1.2,0.5-1.8c0.1-0.7,0.1-1.5,0.2-2.3c0.1-0.7,0.2-1.4,0.2-2.1c0-0.7-0.1-1.4-0.2-2.1
				c-0.1-0.7-0.1-1.5-0.2-2.3c-0.1-0.6-0.4-1.2-0.5-1.8c-0.2-0.9-0.4-1.7-0.8-2.6c-0.1-0.4-0.4-0.8-0.7-1.2c-0.4-1-1-1.9-1.5-2.8
				c-0.1-0.1-0.1-0.1-0.1-0.2L202.4,9.7C195.3-0.5,181.1-3.1,170.7,4z"/>
		</g>
	</g>
</g>
</svg>
