<?xml version="1.0" encoding="utf-8"?>
<!-- Generator: Adobe Illustrator 23.0.2, SVG Export Plug-In . SVG Version: 6.00 Build 0)  -->
<svg version="1.1" id="Layer_1" xmlns="http://www.w3.org/2000/svg" xmlns:xlink="http://www.w3.org/1999/xlink" x="0px" y="0px"
	 viewBox="0 0 500 500" style="enable-background:new 0 0 500 500;" xml:space="preserve">
<style type="text/css">
	.st0{fill:#79863E;}
</style>
<g>
	<g>
		<g>
			<g>
				<path class="st0" d="M441.6,434.2H58.4C26.2,434.2,0,408,0,375.8V124.2C0,92,26.2,65.8,58.4,65.8h383.1
					c32.2,0,58.4,26.2,58.4,58.4v251.6C500,408,473.8,434.2,441.6,434.2z M58.4,78.3c-25.3,0-46,20.6-46,46v251.6
					c0,25.3,20.6,46,46,46h383.1c25.3,0,46-20.6,46-46V124.3c0-25.3-20.6-46-46-46H58.4z"/>
			</g>
		</g>
	</g>
	<g>
		<g>
			<g>
				<path class="st0" d="M250,290.4c-6.9,0-13.9-2.5-19.3-7.5L17.8,86.4l8.4-9.2l212.9,196.6c6.1,5.6,15.5,5.6,21.7,0L473.8,77.2
					l8.4,9.2L269.3,282.9C263.9,287.9,256.9,290.4,250,290.4z"/>
			</g>
		</g>
	</g>
	<g>
		<g>
			<g>
				
					<rect x="-19.1" y="320.1" transform="matrix(0.7064 -0.7078 0.7078 0.7064 -200.2612 169.823)" class="st0" width="247.4" height="12.5"/>
			</g>
		</g>
	</g>
	<g>
		<g>
			<g>
				
					<rect x="386.6" y="204.1" transform="matrix(0.7173 -0.6967 0.6967 0.7173 -116.186 365.9113)" class="st0" width="12.5" height="244"/>
			</g>
		</g>
	</g>
</g>
</svg>
