<?xml version="1.0" encoding="utf-8"?>
<!-- Generator: Adobe Illustrator 23.0.2, SVG Export Plug-In . SVG Version: 6.00 Build 0)  -->
<svg version="1.1" id="Layer_1" xmlns="http://www.w3.org/2000/svg" xmlns:xlink="http://www.w3.org/1999/xlink" x="0px" y="0px"
	 viewBox="0 0 500 500" style="enable-background:new 0 0 500 500;" xml:space="preserve">
<style type="text/css">
	.st0{fill:#7A873F;}
</style>
<g>
	<g>
		<g>
			<path class="st0" d="M146.5,155.6c-36.3,0-66-29.5-66-66s29.5-66,66-66c36.3,0,66,29.5,66,66S182.9,155.6,146.5,155.6z
				 M146.5,29.5c-33.1,0-60.1,26.9-60.1,60.1s26.9,60.1,60.1,60.1s60.1-26.9,60.1-60.1S179.6,29.5,146.5,29.5z"/>
		</g>
	</g>
	<g>
		<g>
			<path class="st0" d="M355.3,145.2c-36.3,0-66-29.5-66-66s29.5-66,66-66c36.5,0,66,29.5,66,66
				C421.3,115.6,391.6,145.2,355.3,145.2z M355.3,19.2c-33.1,0-60.1,26.9-60.1,60.1s26.9,60.1,60.1,60.1s60.1-26.9,60.1-60.1
				S388.4,19.2,355.3,19.2z"/>
		</g>
	</g>
	<g>
		<g>
			<path class="st0" d="M253.9,249.9c-34.6,0-62.7-28.2-62.7-62.7s28.2-62.7,62.7-62.7c34.6,0,62.7,28.2,62.7,62.7
				S288.5,249.9,253.9,249.9z M253.9,131.1c-31,0-56.2,25.2-56.2,56.2s25.2,56.2,56.2,56.2s56.2-25.2,56.2-56.2
				S284.9,131.1,253.9,131.1z"/>
		</g>
		<g>
			<path class="st0" d="M259.7,410.6l-3.2-9.4c-1.4-4.2-2.5-8.5-2.8-12.9c-0.6-6.1-0.1-9.6,0.6-13.8c0.4-3.1,1-6.4,1.2-11.4
				c0.4-7.7-0.2-15.3-1.7-22.9c-1-4.8-2.1-8.5-3.2-12c-0.7,2.6-1.6,5.4-2.1,8.8c-1.5,7.4-2.1,15.3-1.7,22.9
				c0.1,5.1,0.7,8.4,1.2,11.4c0.7,4.2,1.2,7.9,0.6,13.8c-0.4,4.3-1.4,8.7-2.8,12.9l-3.2,9.4l-2.1-9.6c-0.6-2.6-1.5-6.6-2.7-11.1
				c-2.7-10.1-4.4-15-5.9-18.9c-1.4-3.3-2.2-5.9-3.1-10.3c-0.7-3.8-4-23.7,5.2-42.4c1-2.1,1.9-3.3,2.7-4.7c1-1.5,2-3.2,3.6-6.4
				c-4-4.9-9.4-8-19.5-14.1c-4-2.3-7.2-4-9.6-5.3c-6.2-3.3-9.6-5.1-10.5-9.6c-1.4-6.4,4.1-13.6,9.9-16.9c5.3-3.1,12-3.7,19.2-1.9
				c8.5,2.2,16.2,7.9,20,14.6c1,1.7,1.1,2.6,1.5,4.2c0.1,0.4,0.1,0.7,0.2,1.1c0.6-2.2,0.9-3.5,1-4.3c0.2-1.6,0.5-2.5,1.5-4.2
				c3.8-6.7,11.4-12.2,20-14.6c7-1.9,13.8-1.2,19.2,1.9l0,0c5.8,3.3,11.2,10.5,9.9,16.9c-1,4.4-4.3,6.3-10.5,9.6
				c-2.6,1.4-5.8,3.1-9.6,5.3c-10.6,6.2-15.9,9.4-20,14.6c-0.5,0.7-1,1.4-1.5,2.1c0.5,1,1,1.9,1.4,2.7c2,4,3.1,5.8,4.2,7.5
				c0.9,1.4,1.6,2.7,2.7,4.7c9.1,18.8,5.9,38.6,5.2,42.4c-0.9,4.3-1.9,6.9-3.1,10.3c-1.5,3.8-3.3,8.7-5.9,18.9
				c-1.2,4.7-2.1,8.5-2.7,11.1L259.7,410.6z M250.3,311.7l4.2,11.4c1.6,4.4,3.3,9.4,4.6,16.2c1.6,7.9,2.1,16.1,1.9,24.1
				c-0.2,5.3-0.7,8.9-1.4,12c-0.6,4.2-1.1,7-0.5,12.4c0,0.1,0,0.1,0,0.2c2.7-10.3,4.7-15.5,6.1-19.2c1.2-3.1,2.1-5.4,2.8-9.4
				c0.4-2.1,4-21.4-4.7-38.8c-0.9-1.9-1.6-3-2.5-4.2c-1.1-1.7-2.3-3.8-4.4-7.9c-0.6-1.1-1.4-2.6-2-4.2l-0.6-1.2l0.7-1.2
				c0.7-1.4,1.6-2.6,2.6-3.8c4.7-6.2,10.3-9.4,21.5-16.1c4.1-2.5,7.3-4.1,10-5.4c5.6-3,7.3-3.8,7.7-5.8c0.7-3.6-3.1-8.7-7.3-11
				c-4-2.2-9.1-2.7-14.8-1.2c-7,1.9-13.5,6.6-16.6,12c-0.5,1-0.6,1.2-0.9,2.5c-0.2,1.6-0.7,4.1-2.5,9.6c-0.4,1.1-0.7,2.2-1,3.2
				l-3.1,8.9l-2.8-8.9c-1.9-5.6-2.2-8.2-2.5-9.6c-0.2-1.2-0.2-1.5-0.9-2.5c-3-5.3-9.5-10-16.6-12c-5.7-1.6-10.9-1.1-14.8,1.2
				c-4.2,2.5-8,7.4-7.3,11c0.4,1.9,2.2,2.8,7.7,5.8c2.6,1.4,5.9,3.1,10,5.6c11.2,6.6,16.9,9.9,21.5,16.1l1.4,2l-0.5,1.9
				c-2.2,4.7-3.6,6.7-4.6,8.4c-0.7,1.2-1.5,2.5-2.5,4.2c-8.4,17.2-5.4,35.4-4.7,38.8c0.7,3.8,1.6,6.2,2.8,9.4
				c1.5,3.7,3.3,8.9,6.1,19.2c0-0.1,0-0.1,0-0.1c0.6-5.3,0.1-8.3-0.5-12.4c-0.5-3.1-1-6.7-1.4-12c-0.4-7.9,0.4-16.3,1.9-24.1
				c1.4-6.8,3-11.5,4.6-16.2L250.3,311.7z"/>
		</g>
		<g>
			<path class="st0" d="M98.6,295.1C64,295.1,36,266.9,36,232.4s28.2-62.7,62.7-62.7c34.6,0,62.7,28.2,62.7,62.7
				S133.3,295.1,98.6,295.1z M98.6,176.3c-31,0-56.2,25.2-56.2,56.2s25.2,56.2,56.2,56.2s56.2-25.2,56.2-56.2
				S129.7,176.3,98.6,176.3z"/>
		</g>
		<g>
			<path class="st0" d="M108.3,452.1l-3.2-9.4c-1.4-4.2-2.5-8.5-2.8-12.9c-0.6-6.1-0.1-9.6,0.6-13.8c0.4-3.1,1-6.4,1.2-11.4
				c0.4-7.7-0.2-15.3-1.7-22.9c-1-4.8-2.1-8.5-3.2-12c-0.7,2.6-1.6,5.4-2.2,8.8c-1.5,7.4-2.1,15.3-1.7,22.9
				c0.1,5.1,0.7,8.4,1.2,11.4c0.7,4.2,1.2,7.9,0.6,13.8c-0.4,4.3-1.4,8.7-2.8,12.9l-3.2,9.4l-2.1-9.6c-0.6-2.6-1.5-6.6-2.7-11.1
				c-2.7-10.1-4.4-15-5.9-18.9c-1.4-3.3-2.2-5.9-3.1-10.3c-0.7-3.8-4-23.7,5.2-42.4c1-2.1,1.9-3.3,2.7-4.7c1-1.5,2-3.2,3.6-6.4
				c-4-4.9-9.4-8-19.5-14.1c-4-2.3-7.2-4-9.6-5.3c-6.2-3.3-9.6-5.1-10.5-9.6c-1.4-6.4,4.1-13.6,9.9-16.9c5.3-3.1,12-3.7,19.2-1.9
				c8.5,2.2,16.2,7.9,20,14.6c1,1.7,1.1,2.6,1.5,4.2c0.1,0.4,0.1,0.7,0.2,1.1c0.6-2.2,0.9-3.5,1-4.3c0.2-1.6,0.5-2.5,1.5-4.2
				c3.8-6.7,11.4-12.2,20-14.6c7-1.9,13.8-1.2,19.2,1.9l0,0c5.8,3.3,11.2,10.5,9.9,16.9c-1,4.4-4.3,6.3-10.5,9.6
				c-2.6,1.4-5.8,3.1-9.6,5.3c-10.6,6.2-15.9,9.4-20,14.6c-0.5,0.7-1,1.4-1.5,2.1c0.5,1,1,1.9,1.4,2.7c2,4,3.1,5.8,4.2,7.5
				c0.9,1.4,1.6,2.7,2.7,4.7c9.1,18.8,5.9,38.6,5.2,42.4c-0.9,4.3-1.9,6.9-3.1,10.3c-1.5,3.8-3.3,8.7-5.9,18.9
				c-1.2,4.7-2.1,8.5-2.7,11.1L108.3,452.1z M98.9,353.1l4.2,11.4c1.6,4.4,3.3,9.4,4.6,16.2c1.6,7.9,2.2,16.1,1.9,24.1
				c-0.2,5.3-0.7,8.9-1.4,12c-0.6,4.2-1.1,7-0.5,12.4c0,0.1,0,0.1,0,0.2c2.7-10.3,4.7-15.5,6.1-19.2c1.2-3.1,2.1-5.4,2.8-9.4
				c0.4-2.1,4-21.4-4.7-38.8c-0.9-1.9-1.6-3-2.5-4.2c-1.1-1.7-2.3-3.8-4.4-7.9c-0.6-1.1-1.4-2.6-2-4.2l-0.6-1.2l0.7-1.2
				c0.7-1.4,1.6-2.6,2.6-3.8c4.7-6.2,10.3-9.4,21.5-16.1c4.1-2.5,7.3-4.1,10-5.4c5.6-3,7.3-3.8,7.7-5.8c0.7-3.6-3.1-8.7-7.3-11
				c-4-2.2-9.1-2.7-14.8-1.2c-7,1.9-13.5,6.6-16.6,12c-0.5,1-0.6,1.2-0.9,2.5c-0.2,1.6-0.7,4.1-2.5,9.6c-0.4,1.1-0.7,2.2-1,3.2
				l-3.1,8.9l-2.8-8.9c-1.9-5.6-2.2-8.2-2.5-9.6c-0.2-1.2-0.2-1.5-0.9-2.5c-3-5.3-9.5-10-16.6-12c-5.7-1.6-10.9-1.1-14.8,1.2
				c-4.2,2.5-8,7.4-7.3,11c0.4,1.9,2.1,2.8,7.7,5.8c2.6,1.4,5.9,3.1,10,5.6c11.2,6.6,16.9,9.9,21.5,16.1l1.4,2l-0.5,1.9
				c-2.2,4.7-3.6,6.7-4.6,8.4c-0.7,1.2-1.5,2.5-2.5,4.2c-8.4,17.2-5.4,35.4-4.7,38.8c0.7,3.8,1.6,6.2,2.8,9.4
				c1.5,3.7,3.3,8.9,6.1,19.2c0-0.1,0-0.1,0-0.1c0.6-5.3,0.1-8.3-0.5-12.4c-0.5-3.1-1-6.7-1.4-12c-0.4-7.9,0.4-16.3,1.9-24.1
				c1.4-6.8,3-11.5,4.6-16.2L98.9,353.1z"/>
		</g>
		<g>
			<path class="st0" d="M401,295.9c-34.6,0-62.7-28.2-62.7-62.7c0-34.6,28.2-62.7,62.7-62.7s62.7,28.2,62.7,62.7
				C463.7,267.8,435.6,295.9,401,295.9z M401,177.1c-31,0-56.2,25.2-56.2,56.2s25.2,56.2,56.2,56.2c31,0,56.2-25.2,56.2-56.2
				S432,177.1,401,177.1z"/>
		</g>
		<g>
			<path class="st0" d="M409.8,456.3l-3.2-9.4c-1.4-4.2-2.5-8.5-2.8-12.9c-0.6-6.1-0.1-9.6,0.6-13.8c0.4-3.1,1-6.4,1.2-11.4
				c0.4-7.7-0.2-15.3-1.7-22.9c-1-4.8-2.1-8.5-3.2-12c-0.7,2.6-1.6,5.4-2.2,8.8c-1.5,7.4-2.1,15.3-1.7,22.9
				c0.1,5.1,0.7,8.4,1.2,11.4c0.7,4.2,1.2,7.9,0.6,13.8c-0.4,4.3-1.4,8.7-2.8,12.9l-3.2,9.4l-2.2-9.6c-0.6-2.6-1.5-6.4-2.7-11.1
				c-2.7-10.1-4.4-15-5.9-18.9c-1.4-3.3-2.2-5.9-3.1-10.3c-0.7-3.8-4-23.7,5.2-42.4c1-2.1,1.9-3.3,2.7-4.7c1-1.5,2-3.2,3.6-6.4
				c-4-4.9-9.4-8-19.5-14.1c-4-2.3-7.2-4-9.6-5.3c-6.2-3.3-9.6-5.1-10.5-9.6c-1.4-6.6,4.1-13.6,9.9-16.9c5.3-3.1,12-3.7,19.2-1.9
				c8.5,2.2,16.2,7.9,20,14.6c1,1.7,1.1,2.6,1.5,4.2c0.1,0.4,0.1,0.7,0.2,1.1c0.6-2.2,0.9-3.5,1-4.3c0.2-1.6,0.5-2.5,1.5-4.2
				c3.8-6.7,11.4-12.2,20-14.6c7-1.9,13.8-1.2,19.2,1.9l0,0c5.8,3.3,11.2,10.5,9.9,16.9c-1,4.4-4.3,6.3-10.5,9.6
				c-2.6,1.4-5.8,3.1-9.6,5.3c-10.6,6.2-15.9,9.4-20,14.6c-0.5,0.7-1,1.4-1.5,2.1c0.5,1,1,1.9,1.4,2.7c2,4,3.1,5.8,4.2,7.5
				c0.9,1.4,1.6,2.7,2.7,4.7c9.1,18.8,5.9,38.6,5.2,42.4c-0.9,4.3-1.9,6.9-3.1,10.3c-1.5,3.8-3.3,8.7-5.9,18.9
				c-1.2,4.7-2.1,8.5-2.7,11.1L409.8,456.3z M400.2,357.3l4.2,11.4c1.6,4.4,3.3,9.4,4.6,16.2c1.6,7.9,2.1,16.1,1.9,24.1
				c-0.2,5.3-0.7,8.9-1.4,12c-0.6,4.2-1.1,7-0.5,12.4c0,0.1,0,0.1,0,0.2c2.7-10.3,4.7-15.5,6.1-19.2c1.2-3.1,2.1-5.4,2.8-9.4
				c0.4-2.2,4-21.4-4.7-38.8c-0.9-1.9-1.6-3-2.5-4.2c-1.1-1.7-2.3-3.8-4.4-7.9c-0.6-1.1-1.4-2.6-2-4.2l-0.6-1.2l0.7-1.2
				c0.7-1.4,1.6-2.6,2.6-3.8c4.7-6.2,10.3-9.4,21.5-16.1c4.1-2.5,7.3-4.1,10-5.4c5.6-3,7.3-3.8,7.7-5.8c0.7-3.6-3.1-8.7-7.3-11
				c-4-2.2-9.1-2.7-14.8-1.2c-7,1.9-13.5,6.6-16.6,12c-0.5,1-0.6,1.2-0.9,2.5c-0.2,1.6-0.7,4.1-2.5,9.6c-0.4,1.1-0.7,2.1-1,3.2
				l-3,8.8l-2.8-8.9c-1.9-5.6-2.2-8.2-2.5-9.6c-0.2-1.2-0.2-1.5-0.9-2.5c-3-5.3-9.5-10-16.6-12c-5.7-1.6-10.9-1.1-14.8,1.2
				c-4.2,2.5-8,7.4-7.3,11c0.4,1.9,2.1,2.8,7.7,5.8c2.6,1.4,5.9,3.1,10,5.6c11.2,6.6,16.9,9.9,21.5,16.1l1.4,2l-0.5,1.9
				c-2.2,4.7-3.6,6.7-4.6,8.4c-0.7,1.2-1.5,2.5-2.5,4.2c-8.4,17.2-5.4,35.4-4.7,38.8c0.7,3.8,1.6,6.2,2.8,9.4
				c1.5,3.7,3.3,8.9,6.1,19.2c0-0.1,0-0.1,0-0.1c0.6-5.3,0.1-8.3-0.5-12.4c-0.5-3.1-1-6.7-1.4-12c-0.4-7.9,0.4-16.3,1.9-24.1
				c1.4-6.8,3-11.5,4.6-16.2L400.2,357.3z"/>
		</g>
		<g>
			<path class="st0" d="M476.1,486.8H326.1c-13.1,0-23.9-10.6-23.9-23.9v-53.8c0-31.5,15.2-61.3,40.8-80c7.7-5.6,17.6-6.2,25.7-1.7
				c1.7,1,3.2,1.9,4.8,2.7c11.1,6.6,17.1,10,21.6,16.2l0.6,0.9l0.6,3.2l-0.6,0.7c-2,4.1-3.2,6.1-4.3,7.9c-0.7,1.2-1.5,2.3-2.3,4.2
				c-7.9,16.3-5.6,33.7-4.7,38.7c0.7,3.8,1.6,6.1,2.8,9.1c1.4,3.5,3.1,8,5.3,16.4c0.2-3.7-0.2-6.3-0.7-9.8
				c-0.5-3.1-1.1-6.7-1.2-12.1c-0.2-8.3,0.4-16.4,1.9-24.2c1.4-6.9,3.1-11.9,4.6-16.3l3.2,0.1h0.1l-3-0.9l3-9.8l4.7,13.8
				c1.7,5.2,3.3,9.8,4.6,16.2c1.6,7.8,2.2,15.9,1.9,24.2c-0.2,5.3-0.7,8.9-1.2,12c-0.5,3.5-1,6.1-0.7,9.8c2.3-8.5,4.1-13.1,5.3-16.4
				c1.2-3.1,2.1-5.4,2.8-9.3c0-0.2,4.3-20.4-4.7-38.6c-0.9-1.9-1.6-3-2.3-4.3c-1.1-1.7-2.2-3.7-4.3-7.9c-0.6-1.1-1.4-2.6-2.1-4.3
				l-0.6-1.5l0.9-1.5c0.7-1.4,1.6-2.7,2.6-4c4.7-6.1,10.3-9.4,21.5-15.9l2-1.2c7.9-4.6,17.7-4.2,25.5,1l0,0
				c27.4,18.4,43.9,49.1,44,82.2v53.8C500,476.1,489.2,486.8,476.1,486.8z M357.1,331.1c-3.6,0-7.2,1.1-10.3,3.3
				c-23.9,17.4-38.1,45.4-38.1,74.8V463c0,9.5,7.8,17.3,17.3,17.3h150.1c9.5,0,17.3-7.8,17.3-17.3v-53.8
				c-0.1-30.9-15.5-59.6-41.2-76.8c-5.7-3.8-12.9-4.1-18.7-0.7l-1.7,1c-10.6,6.3-15.9,9.4-19.8,14.5c-0.5,0.6-0.9,1.2-1.2,1.7
				c0.4,0.9,0.9,1.7,1.2,2.3c2,4,3.1,5.8,4.1,7.5c0.9,1.5,1.6,2.7,2.7,4.8c10,20.3,5.4,41.9,5.2,42.8c-0.9,4.3-1.9,6.9-3.1,10.3
				c-1.5,3.8-3.3,8.7-5.9,18.8c-1.2,4.7-2.1,8.5-2.6,11.1l-2.3,11.5l-4-11.1c-1-2.8-2.3-7.3-2.8-13c-0.6-6.1-0.1-9.8,0.6-14
				c0.5-3,1-6.3,1.2-11.2c0.2-7.8-0.2-15.3-1.7-22.6c-0.7-4.1-1.7-7.4-2.7-10.4c-0.6,2.2-1.2,4.6-1.7,7.2c-1.5,7.3-2,15-1.7,22.7
				c0.2,4.9,0.7,8.4,1.2,11.4c0.6,4.2,1.2,7.9,0.6,14c-0.5,4.3-1.4,8.5-2.8,12.9l-3.6,11.1l-3.1-13.5c-0.5-2.5-1.2-5.6-2.2-9.1
				c-2.6-10.1-4.4-15-5.9-18.8c-1.2-3.3-2.2-5.9-3.1-10.3c-1-5.4-3.6-24.6,5.2-42.6c1-2.1,1.7-3.3,2.6-4.7c0.9-1.5,1.9-3.1,3.5-6.2
				c-3.7-4.6-8.9-7.7-18.7-13.5c-2.1-1.2-3.5-2-4.7-2.7C363.2,331.8,360.1,331.1,357.1,331.1z"/>
		</g>
		<g>
			<path class="st0" d="M173.9,482.4H23.9C10.8,482.4,0,471.8,0,458.5v-53.8c0-31.5,15.2-61.4,40.8-80c7.7-5.6,17.6-6.2,25.7-1.7
				c1.9,1,3.2,1.9,4.8,2.7c11.1,6.6,17.1,10,21.6,16.1l0.6,0.9l0.6,2v1.5l-0.6,0.7c-2,4-3.2,5.9-4.2,7.7c-0.7,1.2-1.5,2.3-2.3,4.2
				c-7.9,16.3-5.6,33.7-4.7,38.7c0.7,3.8,1.6,6.1,2.8,9.1c1.4,3.5,3.1,8,5.3,16.4c0.2-3.7-0.2-6.3-0.7-9.8
				c-0.5-3.1-1.1-6.7-1.2-12.1c-0.2-8.3,0.4-16.3,1.9-24.2c1.4-6.8,3-11.6,4.6-16.2l3,0.1H98l-2.8-0.9l3-9.6l4.9,14.5
				c1.5,4.4,3.1,9,4.3,15.5c1.5,7.8,2.1,15.9,1.9,24.2c-0.2,5.3-0.7,8.9-1.2,12c-0.5,3.5-1,6.1-0.7,9.8c2.3-8.5,4.1-13.1,5.3-16.4
				c1.2-3.1,2.1-5.4,2.8-9.3c0.1-0.2,4.4-20.3-4.7-38.6c-0.9-1.9-1.6-3-2.3-4.3c-1.1-1.7-2.2-3.7-4.3-7.9c-0.6-1.1-1.4-2.6-2.1-4.3
				l-0.6-1.5l0.7-1.4c0.7-1.4,1.6-2.7,2.6-4c4.7-6.1,10.4-9.4,21.5-16.1l1.9-1.1c7.9-4.6,17.7-4.2,25.5,1l0,0
				c27.4,18.4,43.9,49.1,44,82.2v53.8C197.8,471.8,187,482.4,173.9,482.4z M54.9,326.8c-3.6,0-7.2,1.1-10.3,3.3
				c-23.9,17.4-38.1,45.4-38.1,74.8v53.8c0,9.5,7.8,17.3,17.3,17.3h150.1c9.5,0,17.3-7.8,17.3-17.3v-53.8
				c-0.1-30.9-15.5-59.6-41.2-76.8c-5.7-3.8-12.9-4.1-18.7-0.7l-1.7,1c-10.6,6.3-15.9,9.4-19.8,14.5c-0.5,0.6-0.9,1.2-1.2,1.9
				c0.4,0.9,0.9,1.7,1.2,2.3c2,4,3.1,5.9,4.1,7.5c0.9,1.5,1.6,2.7,2.7,4.8c10,20.4,5.4,41.9,5.2,42.8c-0.9,4.3-1.9,6.9-3.1,10.3
				c-1.5,3.8-3.3,8.7-5.9,18.8c-1.2,4.7-2.1,8.5-2.6,11.1l-2.3,11.5l-4-11c-1-2.8-2.3-7.3-2.8-13c-0.6-6.1-0.1-9.8,0.6-14
				c0.5-3,1-6.3,1.2-11.2c0.2-7.8-0.4-15.5-1.7-22.6c-0.7-4.1-1.7-7.4-2.7-10.4c-0.6,2.2-1.2,4.6-1.7,7.2c-1.5,7.4-2.1,15-1.7,22.7
				c0.2,4.9,0.7,8.4,1.2,11.4c0.6,4.2,1.2,7.9,0.6,14c-0.5,4.3-1.5,8.5-2.8,12.9l-3.6,11.1l-3.1-13.1c-0.6-2.5-1.4-5.7-2.2-9.4
				c-2.6-10.1-4.4-15-5.9-18.8c-1.2-3.3-2.2-5.9-3.1-10.3c-1-5.4-3.6-24.6,5.2-42.6c1-2.1,1.7-3.3,2.6-4.7c0.9-1.5,1.9-3.1,3.5-6.2
				c-3.7-4.7-8.9-7.7-18.8-13.5c-2-1.1-3.3-2-4.4-2.6C60.9,327.5,57.8,326.8,54.9,326.8z"/>
		</g>
		<g>
			<path class="st0" d="M298.9,441.5h-99.4v-45c-0.1-28.6-13.1-55-35.7-72.7l-2.1-1.6l1.2-2.3c7.2-14.2,17.6-26.6,30.3-35.7
				c7.7-5.6,17.4-6.2,25.7-1.7l0.9,0.5c1.2,0.6,2.5,1.4,4,2.2c11.1,6.6,17.1,10,21.6,16.1l0.6,0.9l0.6,3.3l-0.6,0.7
				c-2,4.1-3.2,6.1-4.3,7.8c-0.7,1.2-1.5,2.3-2.3,4.2c-8.2,16.8-5.3,35.1-4.7,38.7c0.7,3.8,1.6,6.1,2.8,9.1
				c1.4,3.5,3.1,7.9,5.3,16.4c0.2-3.7-0.2-6.3-0.7-9.8c-0.5-3.1-1-6.7-1.2-12.1c-0.2-8.3,0.4-16.4,1.9-24.2c1.4-6.8,3-11.6,4.6-16.2
				l3,0.1h0.1l-2.8-0.9l3-9.6l4.9,14.5c1.5,4.4,3.1,9,4.3,15.5c1.6,7.8,2.2,15.9,1.9,24.2c-0.2,5.3-0.7,8.9-1.2,12
				c-0.5,3.5-1,6.1-0.7,9.8c2.3-8.5,4.1-13.1,5.3-16.4c1.2-3.1,2.1-5.4,2.8-9.3c0.1-0.2,4.4-20.3-4.7-38.6c-0.9-1.9-1.6-3-2.3-4.3
				c-1.1-1.7-2.3-3.7-4.3-7.9c-0.6-1.1-1.4-2.6-2.1-4.3l-0.6-1.5l0.9-1.5c0.7-1.4,1.6-2.7,2.6-4c4.7-6.1,10.3-9.4,21.5-16.1l2-1.1
				c7.9-4.6,17.7-4.2,25.5,1c16.1,10.8,28.6,25.8,36.1,43.8l1.2,3l-3,1.2c-1.4,0.6-2.5,1.1-3.5,1.9c-23.9,17.4-38.1,45.4-38.1,74.8
				C298.9,406.2,298.9,441.5,298.9,441.5z M206.1,435h86.4v-28.7c0-31.5,15.2-61.3,40.8-80c0.6-0.4,1.2-0.7,1.7-1.1
				c-7.2-15.6-18.4-28.7-32.5-38.1c-5.7-3.8-12.9-4.1-18.7-0.7l-1.7,1c-10.6,6.3-15.8,9.4-19.8,14.5c-0.5,0.6-0.9,1.2-1.2,1.7
				c0.4,0.9,0.9,1.7,1.2,2.3c2,4,3.1,5.8,4.1,7.5c0.9,1.5,1.6,2.7,2.7,4.8c10,20.4,5.4,41.9,5.2,42.8c-0.9,4.3-1.9,6.9-3.1,10.3
				c-1.5,3.8-3.3,8.7-5.9,18.8c-1.2,4.7-2.1,8.5-2.6,11.1l-2.3,11.5l-4-11.1c-1-2.8-2.3-7.3-2.8-13c-0.6-6.1-0.1-9.8,0.6-14
				c0.5-3,1-6.3,1.2-11.2c0.2-7.8-0.2-15.3-1.7-22.6c-0.7-4.1-1.7-7.4-2.7-10.4c-0.6,2.2-1.2,4.6-1.7,7.2c-1.5,7.3-2,15-1.7,22.7
				c0.2,4.9,0.7,8.3,1.2,11.4c0.6,4.2,1.2,7.9,0.6,14c-0.5,4.3-1.4,8.4-2.8,12.9l-3.6,11.1l-3.2-13.6c-0.5-2.3-1.2-5.4-2.1-8.9
				c-2.6-10.1-4.4-15-5.9-18.8c-1.2-3.3-2.2-5.9-3.1-10.3c-1-5.4-3.7-24.5,5.2-42.6c1-2.1,1.7-3.3,2.6-4.7c0.9-1.5,1.9-3.1,3.5-6.2
				c-3.8-4.7-8.9-7.7-18.7-13.5c-2-1.1-3.2-1.9-4.3-2.5l-0.9-0.5c-5.9-3.2-13.1-2.7-18.8,1.2c-11.1,8.2-20.5,18.8-27.1,31.1
				c22.9,18.9,36.1,46.5,36.1,76.1V435H206.1z M242.3,303.5L242.3,303.5l0.5-0.4L242.3,303.5z"/>
		</g>
	</g>
</g>
</svg>
