<?xml version="1.0" encoding="utf-8"?>
<!-- Generator: Adobe Illustrator 23.0.2, SVG Export Plug-In . SVG Version: 6.00 Build 0)  -->
<svg version="1.1" id="Layer_1" xmlns="http://www.w3.org/2000/svg" xmlns:xlink="http://www.w3.org/1999/xlink" x="0px" y="0px"
	 viewBox="0 0 500 500" style="enable-background:new 0 0 500 500;" xml:space="preserve">
<style type="text/css">
	.st0{fill:#78863F;}
</style>
<g>
	<g>
		<path class="st0" d="M248.5,352.5c13.2-45.9,26.4-91.7,39.6-137.6c2-6.6,3.8-13.4,5.8-20.1c-4.8-0.4-9.4-0.4-14.2,0
			c-24.4,3.7-48.4,7.6-72.5,11.8c-0.7,0.1-2.2,0.5-2.2,1c-1,2.8-1.6,5.1-2.5,8.1h10.5c3.7,0.1,7.2,1.7,9.7,4.5
			c2.5,2.8,3.7,6.5,3.3,10.2c-0.5,4.7-1.3,9.2-2.5,13.7c-9.3,32.7-19,65.6-28.3,98.5c-3.1,10.7-6,21.3-8.1,32.2
			c-1,4.5-0.7,9.2,0.7,13.6c1.5,4.4,3.9,8.3,7.5,11.4c8,7,18.6,9.8,28.9,7.8c11.3-1.6,21.8-6.5,30.4-14.1
			c12.9-11,23.7-24.2,32.1-38.9l3.4-5.9l-7.6-4.4l0,0c-0.5,0.6-0.9,1.2-1.2,1.8c-3.8,5.3-7.4,10.8-11.5,15.8
			c-4.2,4.8-8.6,9.3-13.2,13.6c-2.1,2.5-5.8,2.9-8.5,1.2c-2.9-1.7-4.4-5.3-3.4-8.6C246.1,363,246.9,357.8,248.5,352.5z"/>
	</g>
	<g>
		<g>
			<path class="st0" d="M426.7,73.3C379.8,26.5,316.3,0.1,250,0l0,0C183.7,0,120.2,26.4,73.2,73.2C26.4,120,0,183.7,0,250
				s26.4,129.8,73.2,176.8c47,46.8,110.5,73.2,176.8,73.2s129.8-26.4,176.8-73.2C473.6,380,500,316.3,500,250
				C499.9,183.7,473.5,120.2,426.7,73.3z M395.3,395.3c-38.5,38.5-90.7,60.2-145.3,60.2l0,0c-54.6,0-106.8-21.7-145.3-60.2
				C66.2,356.8,44.5,304.4,44.5,250c0-54.6,21.7-106.8,60.2-145.4c38.5-38.5,90.9-60.2,145.3-60.2s106.8,21.7,145.3,60.2
				s60.2,90.9,60.2,145.4C455.5,304.4,433.8,356.7,395.3,395.3z"/>
		</g>
	</g>
	<g>
		<path class="st0" d="M280,92.1c-8.6,0.1-16.8,3.6-22.8,9.7c-6,6.1-9.3,14.3-9.3,23.1v0.2c0,8.7,3.6,17.2,9.7,23.3
			c6.3,6.1,14.6,9.6,23.4,9.4c8.7-0.1,17-3.7,23.2-9.9s9.4-14.7,9.3-23.4c-0.1-8.7-3.8-17-10.1-23.2C297.3,95.3,288.9,92,280,92.1z"
			/>
	</g>
</g>
</svg>
