<?xml version="1.0" encoding="utf-8"?>
<!-- Generator: Adobe Illustrator 23.0.2, SVG Export Plug-In . SVG Version: 6.00 Build 0)  -->
<svg version="1.1" id="Layer_1" xmlns="http://www.w3.org/2000/svg" xmlns:xlink="http://www.w3.org/1999/xlink" x="0px" y="0px"
	 viewBox="0 0 500 500" style="enable-background:new 0 0 500 500;" xml:space="preserve">
<style type="text/css">
	.st0{fill:#B4B4B4;}
	.st1{fill:#FFFFFF;}
	.st2{fill:none;}
	.st3{fill:url(#SVGID_1_);}
	.st4{fill-rule:evenodd;clip-rule:evenodd;fill:#FFFFFF;}
</style>
<g>
	<path class="st0" d="M140.4,421.1l7.5,4.4c31.5,18.7,67.5,28.5,104.3,28.6h0.1c113,0,204.9-91.9,204.9-204.9
		c0-54.7-21.3-106.2-60-145C358.9,65.7,306.8,44,252.4,44.2c-113.1,0-205,91.9-205,204.9c-0.1,38.6,10.8,76.4,31.3,109l4.9,7.7
		l-20.7,75.6L140.4,421.1z M3.6,500l35-127.7C17.1,334.9,5.7,292.5,5.7,249C5.8,113.1,116.4,2.5,252.3,2.5
		c66,0,127.9,25.7,174.4,72.3s72.2,108.5,72.2,174.4c-0.1,135.9-110.7,246.5-246.6,246.5h-0.1c-41.3,0-81.8-10.4-117.8-30L3.6,500z"
		/>
	<path class="st1" d="M1.1,497.5l35-127.7c-21.6-37.5-33-80-32.9-123.2C3.2,110.6,113.8,0,249.8,0c66,0,127.9,25.7,174.4,72.3
		s72.2,108.5,72.2,174.4c-0.1,135.9-110.7,246.5-246.6,246.5h-0.1c-41.3,0-81.8-10.4-117.8-30L1.1,497.5z"/>
	<path class="st2" d="M249.8,41.6c-113.1,0-205,91.9-205,204.9c-0.1,38.6,10.8,76.4,31.3,109l4.9,7.7l-20.7,75.6l77.6-20.3l7.5,4.4
		c31.5,18.7,67.5,28.5,104.3,28.6h0.1c113,0,204.9-91.9,204.9-204.9c0.2-54.4-21.4-106.6-60-145C356.4,63.2,304.2,41.5,249.8,41.6
		L249.8,41.6z"/>
	
		<linearGradient id="SVGID_1_" gradientUnits="userSpaceOnUse" x1="248.6969" y1="435.7783" x2="250.7748" y2="85.4747" gradientTransform="matrix(1 0 0 -1 0 502)">
		<stop  offset="0" style="stop-color:#69BF64"/>
		<stop  offset="1" style="stop-color:#2AB34B"/>
	</linearGradient>
	<path class="st3" d="M249.8,41.6c-113.1,0-205,91.9-205,204.9c-0.1,38.6,10.8,76.4,31.3,109l4.9,7.8l-20.7,75.6l77.6-20.3l7.5,4.4
		c31.5,18.7,67.5,28.5,104.3,28.6h0.1c113,0,204.9-91.9,204.9-204.9c0.2-54.4-21.4-106.6-60-145C356.4,63.1,304.2,41.5,249.8,41.6z"
		/>
	<path class="st4" d="M188.1,143.4c-4.6-10.3-9.5-10.5-13.9-10.6l-11.8-0.1c-4.1,0-10.8,1.5-16.4,7.7s-21.6,21.1-21.6,51.4
		s22.1,59.6,25.2,63.7s42.6,68.3,105.3,93c52,20.5,62.6,16.4,73.9,15.4c11.3-1,36.5-14.9,41.6-29.3c5.1-14.4,5.1-26.7,3.6-29.3
		c-1.5-2.6-5.6-4.1-11.8-7.2c-6.2-3.1-36.5-18-42.1-20c-5.6-2.1-9.8-3.1-13.9,3.1c-4.1,6.2-15.9,20-19.5,24.2
		c-3.6,4.1-7.2,4.6-13.4,1.5s-26-9.6-49.5-30.6c-18.3-16.3-30.7-36.5-34.3-42.7c-3.6-6.2-0.4-9.5,2.7-12.6c2.8-2.8,6.2-7.2,9.2-10.8
		c3.1-3.6,4.1-6.2,6.2-10.3s1-7.7-0.5-10.8C205.6,186.1,193.6,155.6,188.1,143.4"/>
</g>
</svg>
