<?xml version="1.0" encoding="utf-8"?>
<!-- Generator: Adobe Illustrator 23.0.2, SVG Export Plug-In . SVG Version: 6.00 Build 0)  -->
<svg version="1.1" id="Layer_1" xmlns="http://www.w3.org/2000/svg" xmlns:xlink="http://www.w3.org/1999/xlink" x="0px" y="0px"
	 viewBox="0 0 500 500" style="enable-background:new 0 0 500 500;" xml:space="preserve">
<style type="text/css">
	.st0{fill:#79863E;}
</style>
<g>
	<g>
		<g>
			<path class="st0" d="M215.1,139.5l-5.5,5.5c-8.5,8.5-22.4,8.5-30.9,0L76.5,42.8c-8.5-8.5-8.5-22.4,0-30.9L82,6.4
				c8.5-8.5,22.4-8.5,30.9,0l102.2,102.2C223.6,117.1,223.6,131,215.1,139.5z"/>
		</g>
	</g>
	<g>
		<g>
			<path class="st0" d="M493.6,418l-5.5,5.5c-8.5,8.5-22.4,8.5-30.9,0L355,321.3c-8.5-8.5-8.5-22.4,0-30.9l5.5-5.5
				c8.5-8.5,22.4-8.5,30.9,0l102.2,102.2C502.1,395.6,502.1,409.4,493.6,418z"/>
		</g>
	</g>
	<g>
		<g>
			<path class="st0" d="M166.7,186.1l-15.4,15.8l146.8,146.8c2.6-3.3,5.2-6.5,8.2-9.5l6.2-6.7c4.2-4.5,11.3-4.5,15.6-0.1l5,5.1
				L441,445.5l3.7,3.1c5.3,4.5,5.7,12.7,0.7,17.6l-6,6c-36.9,36.9-96.6,37-133.3,0.3c-7.4-7.4-13.3-15.8-17.7-24.8L51.8,211.2
				c-8.2-4-16.6-9.5-24.4-17.3C-9.3,157.2-9.2,97.4,27.8,60.6l8.4-8c3.6-3.4,9.1-3.2,12.5,0.3l5.8,6l112.1,112.3
				C170.7,175.4,170.7,182,166.7,186.1z"/>
		</g>
	</g>
</g>
</svg>
