<?xml version="1.0" encoding="utf-8"?>
<!-- Generator: Adobe Illustrator 23.0.2, SVG Export Plug-In . SVG Version: 6.00 Build 0)  -->
<svg version="1.1" id="Layer_1" xmlns="http://www.w3.org/2000/svg" xmlns:xlink="http://www.w3.org/1999/xlink" x="0px" y="0px"
	 viewBox="0 0 500 500" style="enable-background:new 0 0 500 500;" xml:space="preserve">
<style type="text/css">
	.st0{fill:#79863E;}
</style>
<g>
	<g>
		<path class="st0" d="M415.7,0H84.3C37.8,0,0,37.8,0,84.3v331.3C0,462.2,37.8,500,84.3,500h331.3c46.6,0,84.3-37.8,84.3-84.3V84.3
			C499.9,37.8,462.2,0,415.7,0z M426.5,409c0,31.2-25.4,56.7-56.7,56.7h-280c-31.2,0-56.7-25.4-56.7-56.7v-280
			c0-31.2,25.4-56.7,56.7-56.7h140v23.5h-140c-18.2,0-33.1,14.8-33.1,33.1v280c0,18.2,14.8,33.1,33.1,33.1h280
			c18.2,0,33.1-14.8,33.1-33.1v-140h23.5V409H426.5z M466.8,208.3h-23.5v-134L194.6,319l-16.5-16.8L426.3,57.9H297.7V34.4h143.1
			c14.3,0,26,11.7,26,26V208.3z"/>
	</g>
</g>
</svg>
