<?xml version="1.0" encoding="utf-8"?>
<!-- Generator: Adobe Illustrator 23.0.2, SVG Export Plug-In . SVG Version: 6.00 Build 0)  -->
<svg version="1.1" id="Layer_1" xmlns="http://www.w3.org/2000/svg" xmlns:xlink="http://www.w3.org/1999/xlink" x="0px" y="0px"
	 viewBox="0 0 500 500" style="enable-background:new 0 0 500 500;" xml:space="preserve">
<style type="text/css">
	.st0{fill:#79863E;}
</style>
<g>
	<g>
		<path class="st0" d="M69.5,121.4H57c-11.9,0-21.6-9.7-21.6-21.6v-37c0-11.9,9.7-21.6,21.6-21.6h12.5c11.9,0,21.6,9.7,21.6,21.6v37
			C91.2,111.7,81.5,121.4,69.5,121.4z M57,54.3c-4.7,0-8.4,3.8-8.4,8.4v37c0,4.7,3.8,8.4,8.4,8.4h12.5c4.7,0,8.4-3.8,8.4-8.4v-37
			c0-4.7-3.8-8.4-8.4-8.4H57z"/>
	</g>
	<g>
		<path class="st0" d="M443.3,121.4H432c-12.3,0-22.2-10-22.2-22.2V63.4c0-12.3,10-22.2,22.2-22.2h11.3c12.3,0,22.2,10,22.2,22.2
			v35.8C465.6,111.3,455.6,121.4,443.3,121.4z M432,54.3c-5,0-9,4.1-9,9v35.8c0,5,4.1,9,9,9h11.3c5,0,9-4.1,9-9V63.3c0-5-4.1-9-9-9
			H432z"/>
	</g>
	<g>
		<g>
			<path class="st0" d="M500,169.6H0v-57.8c0-16.7,13.6-30.2,30.2-30.2h5.1V62.8c0-11.9,9.7-21.6,21.6-21.6h12.5
				c11.9,0,21.6,9.7,21.6,21.6v18.9h318.6V63.4c0-12.3,10-22.2,22.2-22.2h11.3c12.3,0,22.2,10,22.2,22.2v18.3h4.2
				c16.7,0,30.2,13.6,30.2,30.2v57.8H500z M13.2,156.5h473.6v-44.6c0-9.4-7.7-17-17-17h-17.4V63.4c0-5-4.1-9-9-9H432c-5,0-9,4.1-9,9
				v31.5H78V62.8c0-4.7-3.8-8.4-8.4-8.4H57.1c-4.7,0-8.4,3.8-8.4,8.4v32.1H30.3c-9.4,0-17,7.7-17,17v44.6H13.2z"/>
		</g>
		<g>
			<path class="st0" d="M471.8,458.9H28.1C12.6,458.9,0,446.3,0,430.8V171.4h500v259.5C500,446.3,487.3,458.9,471.8,458.9z
				 M13.2,184.6v246.3c0,8.2,6.7,14.9,14.9,14.9h443.7c8.2,0,14.9-6.7,14.9-14.9V184.6H13.2z M465.1,415.8h-98.5v-98.5h98.5
				L465.1,415.8L465.1,415.8z M379.8,402.6h72.1v-72.1h-72.1V402.6z M354.5,415.8H256v-98.5h98.5V415.8z M269.2,402.6h72.1v-72.1
				h-72.1L269.2,402.6L269.2,402.6z M244,415.8h-98.5v-98.5H244V415.8z M158.7,402.6h72.1v-72.1h-72.1V402.6z M133.3,415.8H34.8
				v-98.5h98.5V415.8z M48,402.6h72.1v-72.1H48C48,330.5,48,402.6,48,402.6z M465.1,305.8h-98.5v-98.5h98.5L465.1,305.8L465.1,305.8
				z M379.8,292.6h72.1v-72.1h-72.1V292.6z M354.5,305.8H256v-98.5h98.5V305.8z M269.2,292.6h72.1v-72.1h-72.1L269.2,292.6
				L269.2,292.6z M244,305.8h-98.5v-98.5H244V305.8z M158.7,292.6h72.1v-72.1h-72.1V292.6z M133.3,305.8H34.8v-98.5h98.5V305.8z
				 M48,292.6h72.1v-72.1H48C48,220.5,48,292.6,48,292.6z"/>
		</g>
	</g>
</g>
</svg>
