<?xml version="1.0" encoding="utf-8"?>
<!-- Generator: Adobe Illustrator 23.0.2, SVG Export Plug-In . SVG Version: 6.00 Build 0)  -->
<svg version="1.1" id="Layer_1" xmlns="http://www.w3.org/2000/svg" xmlns:xlink="http://www.w3.org/1999/xlink" x="0px" y="0px"
	 viewBox="0 0 500 500" style="enable-background:new 0 0 500 500;" xml:space="preserve">
<style type="text/css">
	.st0{fill:#79863E;}
</style>
<g>
	<g>
		<g>
			<circle class="st0" cx="249.9" cy="96" r="96"/>
		</g>
	</g>
	<g>
		<g>
			<path class="st0" d="M264,456.1l-5.2-15.2c-2.3-6.7-3.8-13.7-4.6-20.7c-1.1-9.7-0.2-15.6,0.9-22.4c0.8-4.8,1.6-10.3,1.9-18.4
				c0.5-12.4-0.5-24.8-2.8-36.9c-1.5-7.6-3.4-13.8-5.2-19.3c-1.3,4.2-2.5,8.8-3.5,14.2c-2.4,11.9-3.4,24.6-2.8,36.9
				c0.3,8.1,1.2,13.5,1.9,18.4c1.1,6.8,2,12.7,0.9,22.4c-0.8,7-2.3,13.9-4.6,20.7l-5.2,15.2l-3.4-15.7c-0.9-4.1-2.4-10.5-4.4-18.1
				c-4.3-16.4-7.3-24.2-9.6-30.4c-2.1-5.3-3.6-9.5-5-16.5c-1.2-6.1-6.4-38.3,8.4-68.5c1.6-3.3,2.8-5.4,4.3-7.6
				c1.5-2.4,3.1-5.1,5.8-10.4c-6.4-8-15-13-31.6-22.8c-6.3-3.7-11.5-6.5-15.7-8.6c-10-5.3-15.5-8.1-17.1-15.5
				c-2.1-10.5,6.7-22,16-27.4c8.5-4.9,19.4-6,30.8-2.9c13.7,3.7,26.1,12.7,32.2,23.5c1.5,2.8,1.9,4.2,2.4,6.7
				c0.1,0.5,0.2,1.1,0.4,1.8c0.9-3.5,1.3-5.5,1.6-7c0.5-2.5,0.8-4,2.4-6.7c6.1-10.8,18.5-19.8,32.3-23.5c11.4-3.1,22.3-2.1,30.8,2.9
				l0,0c9.4,5.4,18.2,16.9,16,27.4c-1.5,7.3-7,10.2-17.1,15.5c-4.1,2.2-9.3,4.9-15.7,8.6c-17.1,10.1-25.8,15.1-32.3,23.6
				c-0.8,1.1-1.6,2.1-2.3,3.3c0.8,1.7,1.5,3.1,2.1,4.4c3.1,6.4,5,9.4,6.7,12.1c1.4,2.3,2.7,4.3,4.3,7.6c14.8,30.3,9.6,62.4,8.4,68.5
				c-1.4,7-3,11.2-5,16.5c-2.4,6.3-5.4,14-9.6,30.4c-2,7.6-3.4,13.9-4.4,18.1L264,456.1z M248.8,296.3l6.9,18.4
				c2.4,7.1,5.3,15.2,7.4,26.2c2.5,12.8,3.5,25.9,3,39c-0.4,8.6-1.2,14.3-2.1,19.4c-1.1,6.7-1.8,11.5-0.9,20c0,0.2,0,0.2,0.1,0.4
				c4.4-16.6,7.5-24.9,9.8-30.9c1.9-5.1,3.4-8.8,4.6-15.1c0.7-3.4,6.3-34.5-7.6-62.8c-1.5-3-2.6-4.8-3.8-6.8
				c-1.8-2.8-3.7-6-7.1-12.8c-0.9-1.9-2.1-4.2-3.2-6.8l-1-2.1l1.1-2c1.3-2.2,2.6-4.2,4.1-6.3c7.6-9.9,16.7-15.2,34.8-25.9
				c6.5-3.8,11.9-6.7,16.1-8.9c8.9-4.7,11.9-6.3,12.5-9.3c1.2-5.9-5-13.9-11.7-17.8c-6.3-3.7-14.8-4.4-23.9-2
				c-11.3,3.1-21.8,10.6-26.8,19.3c-0.9,1.6-1,1.9-1.3,3.9c-0.5,2.4-1.2,6.6-4.1,15.6c-0.5,1.8-1.1,3.5-1.8,5.1l-5,14.4L244,254
				c-2.9-9.1-3.7-13.2-4.1-15.6c-0.4-2-0.5-2.4-1.4-3.9c-4.9-8.6-15.5-16.2-26.8-19.3c-9.1-2.4-17.6-1.8-23.9,2
				c-6.7,3.9-12.9,11.9-11.7,17.8c0.6,3,3.5,4.6,12.4,9.3c4.3,2.2,9.6,5,16.1,8.9c18.1,10.7,27.2,16.1,34.8,25.9l2.3,3.2l-0.8,2.9
				c-3.7,7.5-5.7,10.7-7.4,13.5c-1.3,2.1-2.4,3.8-3.8,6.8c-13.5,27.6-8.7,57.1-7.6,62.8c1.2,6.3,2.6,9.9,4.6,15
				c2.3,6,5.5,14.4,9.8,30.9c0-0.1,0-0.2,0-0.3c0.9-8.6,0.2-13.4-0.9-20c-0.8-5-1.7-10.8-2.1-19.4c-0.5-12.8,0.5-26.4,3-39
				c2.1-10.9,4.8-18.6,7.4-26.1L248.8,296.3z"/>
		</g>
	</g>
	<g>
		<g>
			<g>
				<path class="st0" d="M242.7,232.3c2.7,4.7,0.5,3.5,5.8,20.4c0.2,0.5,0.4,1,0.5,1.5c0.8-2.2,1.5-4.4,2.3-6.7
					c5.4-16.9,3.2-15.8,5.8-20.4c0.2-0.5,0.5-0.8,0.8-1.2c-2.7-0.2-5.4-0.4-8-0.4l0,0c-4,0-7.9,0.3-11.8,0.6
					C239.9,228.1,241.4,230.2,242.7,232.3z"/>
			</g>
		</g>
		<g>
			<g>
				<path class="st0" d="M335.7,251.7c-10.7-7.2-24.4-7.9-35.6-1.5c-0.9,0.5-1.8,1.1-2.8,1.7c-17.7,10.4-26.5,15.6-33.6,24.8
					c-1.5,1.8-2.7,3.7-3.8,5.7c1.1,2.6,2.3,4.8,3.1,6.7c5.8,11.8,7.4,12.5,10.9,19.7c14.6,29.8,8.8,61.9,8,65.6
					c-2.8,14.5-6.6,15.9-14.6,46.7c-2,7.6-3.4,14-4.4,18.2c-1.5-4.4-3.4-11.2-4.4-19.7c-1.7-15.8,2.1-20.5,2.9-40.1
					c0.3-7.9,0.3-21.6-2.9-37.9c-2.1-10.6-4.7-18.2-7.3-25.5c-0.8-2.4-1.7-4.7-2.4-6.9c-0.2,0.6-0.4,1.1-0.6,1.7
					c-2.5,7.3-5.2,15-7.3,25.5c-3.2,16.3-3.2,30.1-2.9,37.9c0.8,19.7,4.6,24.2,2.9,40.1c-0.9,8.5-2.9,15.3-4.4,19.7
					c-0.9-4.2-2.4-10.6-4.4-18.2c-8-30.7-11.8-32.3-14.6-46.7c-0.8-3.8-6.6-35.8,8-65.6c3.5-7.1,5.1-8,10.9-19.7
					c0.1-0.2,0.2-0.5,0.4-0.8c-0.3-0.5-0.6-0.9-1-1.4c-7-9.2-15.8-14.4-33.6-24.8c-2.8-1.6-5.3-3.1-7.6-4.4
					c-11.4-6.3-25.3-5.4-35.9,2.3c-38.5,28.1-63.6,73.5-63.6,124.9v86.8c0,18.4,14.9,33.3,33.3,33.3h242.3
					c18.4,0,33.3-14.9,33.3-33.3v-86.8C404.4,326.4,377.1,279.4,335.7,251.7z"/>
			</g>
		</g>
	</g>
</g>
</svg>
