<?xml version="1.0" encoding="utf-8"?>
<!-- Generator: Adobe Illustrator 23.0.2, SVG Export Plug-In . SVG Version: 6.00 Build 0)  -->
<svg version="1.1" id="Layer_1" xmlns="http://www.w3.org/2000/svg" xmlns:xlink="http://www.w3.org/1999/xlink" x="0px" y="0px"
	 viewBox="0 0 500 500" style="enable-background:new 0 0 500 500;" xml:space="preserve">
<style type="text/css">
	.st0{fill:#79863E;}
</style>
<g>
	<path class="st0" d="M58.4,25v450c0,13.8,11.2,25,25,25h333.2c13.8,0,25-11.2,25-25V25c0-13.8-11.2-25-25-25L83.4,0
		C69.6,0,58.4,11.2,58.4,25z M75.1,25c0-4.6,3.7-8.3,8.3-8.3h333.2c4.6,0,8.3,3.7,8.3,8.3v450c0,4.6-3.7,8.3-8.3,8.3H83.4
		c-4.6,0-8.3-3.7-8.3-8.3V25z"/>
	<path class="st0" d="M209.5,331v119.8c0,4.6,3.7,8.3,8.3,8.3h64.4c4.6,0,8.3-3.7,8.3-8.3V331c0-4.6-3.7-8.3-8.3-8.3h-64.4
		C213.2,322.7,209.5,326.4,209.5,331z M226.1,339.3h47.7v103.1h-47.7V339.3z"/>
	<path class="st0" d="M321.8,281c-4.6,0-8.3,3.7-8.3,8.3v161.5c0,4.6,3.7,8.3,8.3,8.3h64.4c4.6,0,8.3-3.7,8.3-8.3V289.3
		c0-4.6-3.7-8.3-8.3-8.3L321.8,281L321.8,281z M330.1,297.7h47.7v144.8h-47.7V297.7z"/>
	<path class="st0" d="M113.9,239.3c-4.6,0-8.3,3.7-8.3,8.3v203.1c0,4.6,3.7,8.3,8.3,8.3h64.4c4.6,0,8.3-3.7,8.3-8.3V247.7
		c0-4.6-3.7-8.3-8.3-8.3L113.9,239.3L113.9,239.3z M122.2,256h47.7v186.5h-47.7V256z"/>
	<path class="st0" d="M223.4,159.8c0,47.2,38.4,85.6,85.6,85.6s85.6-38.4,85.6-85.6s-38.4-85.6-85.6-85.6c-4.6,0-8.3,3.7-8.3,8.3
		l0,68.9h-68.9C227.1,151.4,223.3,155.2,223.4,159.8L223.4,159.8z M308.9,228.7c-35.2,0-64.3-26.5-68.4-60.6h68.4
		c4.6,0,8.3-3.7,8.3-8.3V91.4c34.1,4.1,60.6,33.2,60.6,68.4C377.8,197.8,346.9,228.7,308.9,228.7L308.9,228.7z"/>
	<path class="st0" d="M190,126.4c0,4.6,3.7,8.3,8.3,8.3h77.2c4.6,0,8.3-3.7,8.3-8.3V49.2c0-4.6-3.7-8.3-8.3-8.3
		C228.4,40.9,190,79.3,190,126.4z M207.2,118.1c3.8-31.3,28.7-56.3,60.1-60.1v60.1H207.2z"/>
</g>
</svg>
