<?xml version="1.0" encoding="utf-8"?>
<!-- Generator: Adobe Illustrator 23.0.2, SVG Export Plug-In . SVG Version: 6.00 Build 0)  -->
<svg version="1.1" id="Layer_1" xmlns="http://www.w3.org/2000/svg" xmlns:xlink="http://www.w3.org/1999/xlink" x="0px" y="0px"
	 viewBox="0 0 500 500" style="enable-background:new 0 0 500 500;" xml:space="preserve">
<style type="text/css">
	.st0{fill:#79863E;}
</style>
<g>
	<g>
		<g>
			<path class="st0" d="M238.7,253.7h-138c0.3,42.4,6.4,84.9,18.1,127.4c39.6,10.5,79.5,16.1,119.9,16.9V253.7z"/>
		</g>
	</g>
	<g>
		<g>
			<path class="st0" d="M392.1,390.9c-47.4,12.8-94.5,19.3-141.1,19.5V500c32.8-0.1,63.9-6.7,92.5-18.3
				C363.8,451.8,379.9,421.5,392.1,390.9z"/>
		</g>
	</g>
	<g>
		<g>
			<path class="st0" d="M88.6,241.4c0.7-40.5,6.4-81.1,17.3-121.5c-30,10.7-60,24.7-89.6,42.2c-9.4,24.8-14.9,51.5-15.8,79.3
				L88.6,241.4L88.6,241.4z"/>
		</g>
	</g>
	<g>
		<g>
			<path class="st0" d="M101,241.4h137.8V94.8c-39.9,1-79.5,7.9-118.8,20.5C108,157.3,101.7,199.3,101,241.4z"/>
		</g>
	</g>
	<g>
		<g>
			<path class="st0" d="M250.9,82.1c45.6,0.1,91.6,7.8,137.8,22.6c-11.7-28.7-27-57.6-45.5-86.5C314.5,6.7,283.4,0.2,250.8,0v82.1
				H250.9z"/>
		</g>
	</g>
	<g>
		<g>
			<path class="st0" d="M88.5,253.7H0.1c0.4,31.8,6.9,62.2,18.2,90c28.7,13.8,57.6,25,86.7,33.5C94.3,336.1,88.8,294.9,88.5,253.7z"
				/>
		</g>
	</g>
	<g>
		<g>
			<path class="st0" d="M431.4,241.4h68.3c-1-29.2-7-57.2-17.3-83.1c-24.4-13.2-48.8-24.4-73.1-33.6
				C422.9,163.9,430,202.7,431.4,241.4z"/>
		</g>
	</g>
	<g>
		<g>
			<path class="st0" d="M250.9,253.7v144.5c48.5-0.2,97.3-7.3,146.5-21.3c14.5-40.8,21.9-81.8,21.9-123.2H250.9z"/>
		</g>
	</g>
	<g>
		<g>
			<path class="st0" d="M238.7,410.3c-39-0.8-77.7-5.9-116-15.5c8.8,29.2,20.4,58.3,34.6,87.3c25.4,10.2,52.7,16.1,81.4,17.5V410.3z
				"/>
		</g>
	</g>
	<g>
		<g>
			<path class="st0" d="M140,474.3c-12.8-27.8-23.2-55.5-31.2-83.3c-27.8-7.8-55.4-17.9-82.8-30.3C50.6,410.1,90.8,450,140,474.3z"
				/>
		</g>
	</g>
	<g>
		<g>
			<path class="st0" d="M472.7,363.4c-22,9.1-44,17.1-65.8,23.6c-10.7,28.6-24.8,57.1-42.5,85.3C410.8,448.1,448.7,410,472.7,363.4z
				"/>
		</g>
	</g>
	<g>
		<g>
			<path class="st0" d="M431.8,253.7c0,39.8-6.7,79.4-19.7,118.6c22.8-7.1,45.5-15.7,68.5-25.8c12.1-28.7,18.7-60,19.2-92.8H431.8z"
				/>
		</g>
	</g>
	<g>
		<g>
			<path class="st0" d="M238.7,82.4V0.5c-28.6,1.2-56,7.3-81.4,17.5c-13.5,27.7-24.7,55.3-33.4,83C161.9,89.5,200.1,83.5,238.7,82.4
				z"/>
		</g>
	</g>
	<g>
		<g>
			<path class="st0" d="M363.2,27.3c16.4,27.4,29.9,54.8,40.4,82c23.5,8.3,47.1,18.7,70.7,30.8C450.4,91.7,411.4,52,363.2,27.3z"/>
		</g>
	</g>
	<g>
		<g>
			<path class="st0" d="M23.9,143.8c28.4-15.7,57.1-28.5,85.9-38.2c7.9-26.6,18-53.2,30.3-79.9C89.2,50.8,48.1,92.5,23.9,143.8z"/>
		</g>
	</g>
	<g>
		<g>
			<path class="st0" d="M250.9,94.5v146.9h168c-1.4-40.4-9.7-81.2-24.7-122.1C346.1,102.9,298.3,94.6,250.9,94.5z"/>
		</g>
	</g>
</g>
</svg>
