<?xml version="1.0" encoding="utf-8"?>
<!-- Generator: Adobe Illustrator 23.0.2, SVG Export Plug-In . SVG Version: 6.00 Build 0)  -->
<svg version="1.1" id="Layer_1" xmlns="http://www.w3.org/2000/svg" xmlns:xlink="http://www.w3.org/1999/xlink" x="0px" y="0px"
	 viewBox="0 0 500 500" style="enable-background:new 0 0 500 500;" xml:space="preserve">
<style type="text/css">
	.st0{fill:#79863E;}
	.st1{fill:none;stroke:#79863E;stroke-miterlimit:10;}
</style>
<g>
	<g>
		<g>
			<g>
				<g>
					<path class="st0" d="M215.8,324c-0.7-0.6-1.3-1.3-1.9-1.8c-9.9-9.8-15.3-22.9-15.4-36.9l-0.3-59l29.6-0.1l0.3,59
						c0,6,2.4,11.7,6.7,16c4.5,4.2,10.1,6.6,16,6.5l197.1-0.8c12.5-0.1,22.6-10.2,22.5-22.7l-0.2-54c-0.1-12.5-10.2-22.6-22.7-22.5
						l-136.6,0.5l-0.1-29.6l136.6-0.5c28.8-0.1,52.3,23.3,52.4,52l0.2,54c0.1,28.8-23.2,52.3-52,52.4l-197.1,0.8
						C237.8,337.3,225.4,332.6,215.8,324z M208.1,236.1l0.2,49.1c0.1,11.3,4.5,22,12.5,29.9c0.5,0.5,1.1,1,1.6,1.5
						c7.8,7,17.9,10.8,28.4,10.8l197.1-0.8c23.4-0.1,42.3-19.2,42.2-42.6l-0.2-54c-0.1-23.4-19.2-42.3-42.6-42.2l-126.8,0.5v9.9
						l126.8-0.5c17.9-0.1,32.6,14.5,32.6,32.3l0.2,54c0.1,17.9-14.5,32.6-32.4,32.6l-197.1,0.8c-8.5,0-16.6-3.4-23-9.4
						c-6.2-6.2-9.6-14.3-9.6-23l-0.2-49.1L208.1,236.1z"/>
				</g>
			</g>
		</g>
		<g>
			<g>
				<g>
					<path class="st0" d="M17.5,310.4c-0.7-0.6-1.3-1.2-1.9-1.8c-9.9-9.8-15.4-23-15.4-36.9l-0.2-54c-0.1-14,5.4-27.1,15.2-37
						c9.8-9.9,23-15.4,36.9-15.4l197.1-0.8c14.1-0.1,27.2,5.4,37,15.2c9.9,9.8,15.3,22.9,15.4,36.9l0.3,59l-29.6,0.1l-0.3-59
						c-0.1-12.4-10.2-22.5-22.7-22.5l-197.1,0.8c-6,0-11.7,2.4-16,6.7s-6.6,10-6.5,16l0.2,54c0,6,2.4,11.7,6.7,16
						c4.4,4.3,9.9,6.6,16,6.5l136.6-0.5l0.1,29.6l-136.6,0.5C39.6,323.7,27.1,319,17.5,310.4z M277.2,184.9
						c-7.7-6.9-17.6-10.6-28.2-10.6L51.9,175c-11.3,0-22,4.4-29.9,12.5c-8,8-12.3,18.7-12.3,30l0.2,54c0,11.3,4.5,22,12.5,29.9
						c7.9,7.6,18.8,12.3,30,12.3l126.8-0.5v-9.9l-126.8,0.5c-8.8,0-16.7-3.2-23-9.5c-6.2-6.1-9.6-14.2-9.6-23l-0.2-54
						c0-8.7,3.4-16.8,9.5-23c6.1-6.2,14.2-9.6,23-9.6l197.1-0.8c17.9,0,32.5,14.5,32.6,32.3l0.2,49.1h9.9l-0.2-49.1
						c-0.1-11.3-4.5-22-12.5-29.9C278.5,186,277.9,185.4,277.2,184.9z"/>
				</g>
			</g>
		</g>
	</g>
	<g>
		<g>
			<g>
				<path class="st1" d="M172,284.9"/>
			</g>
		</g>
	</g>
</g>
</svg>
