<?xml version="1.0" encoding="utf-8"?>
<!-- Generator: Adobe Illustrator 23.0.2, SVG Export Plug-In . SVG Version: 6.00 Build 0)  -->
<svg version="1.1" id="Layer_1" xmlns="http://www.w3.org/2000/svg" xmlns:xlink="http://www.w3.org/1999/xlink" x="0px" y="0px"
	 viewBox="0 0 500 500" style="enable-background:new 0 0 500 500;" xml:space="preserve">
<style type="text/css">
	.st0{fill:#79863E;}
</style>
<g>
	<g>
		<g>
			<g>
				<path class="st0" d="M447.6,88H52.4c-19,0-34.5-15.5-34.5-34.5v-19C17.9,15.5,33.4,0,52.4,0h395.1c19,0,34.5,15.5,34.5,34.5v19
					C482.1,72.6,466.6,88,447.6,88z M52.4,16.2c-10.1,0-18.3,8.2-18.3,18.3v19c0,10.1,8.2,18.3,18.3,18.3h395.1
					c10.1,0,18.3-8.2,18.3-18.3v-19c0-10.1-8.2-18.3-18.3-18.3H52.4z"/>
			</g>
		</g>
	</g>
	<g>
		<g>
			<g>
				<path class="st0" d="M249.6,499.9c-1.2,0-2.6-0.1-4.1-0.3c-5-0.8-9.1-2.4-12.6-4.9L49.7,366.9c-6.5-4.5-10.8-11.3-12.2-19
					c-1.4-7.8,0.3-15.6,4.9-22.1L59,302.1c4.5-6.5,11.3-10.8,19-12.2c7.8-1.4,15.6,0.3,22.1,4.9l106,73.9V152.3
					c0-16.3,13.3-29.6,29.6-29.6h28.9c16.3,0,29.6,13.3,29.6,29.6v216.4l106-73.9c6.5-4.5,14.3-6.2,22.1-4.9
					c7.8,1.4,14.5,5.7,19,12.2l16.6,23.7c9.3,13.3,6,31.8-7.4,41.1L267.1,494.7c-3.6,2.5-7.7,4.1-12.2,4.9c-2.1,0.3-3.6,0.4-5,0.4
					C249.8,499.9,249.8,499.9,249.6,499.9z M83.2,305.6c-0.8,0-1.6,0.1-2.3,0.2c-3.5,0.6-6.5,2.6-8.6,5.5L55.7,335
					c-2.1,3-2.8,6.5-2.2,10c0.6,3.5,2.6,6.5,5.5,8.6l183.2,127.8c1.6,1.1,3.4,1.8,5.5,2.1c1,0.1,1.6,0.1,2.2,0.2
					c0.9,0.1,1.5-0.1,2.2-0.2c2.3-0.3,4.2-1.1,5.8-2.2l183.2-127.8c6-4.2,7.5-12.5,3.3-18.6l-16.6-23.7c-2.1-3-5.1-4.9-8.6-5.5
					c-3.5-0.6-7,0.1-10,2.2l-131.4,91.6V152c0-7.4-6-13.3-13.3-13.3h-28.9c-7.4,0-13.3,6-13.3,13.3v247.5L90.9,307.9
					C88.5,306.4,85.9,305.6,83.2,305.6z"/>
			</g>
		</g>
	</g>
</g>
</svg>
