<?xml version="1.0" encoding="utf-8"?>
<!-- Generator: Adobe Illustrator 23.0.2, SVG Export Plug-In . SVG Version: 6.00 Build 0)  -->
<svg version="1.1" id="Layer_1" xmlns="http://www.w3.org/2000/svg" xmlns:xlink="http://www.w3.org/1999/xlink" x="0px" y="0px"
	 viewBox="0 0 500 500" style="enable-background:new 0 0 500 500;" xml:space="preserve">
<style type="text/css">
	.st0{fill:#79863E;}
</style>
<g>
	<g>
		<g>
			<path class="st0" d="M412.3,218h-58.8c-8.8,0-15.9,7.1-15.9,15.9v94.6c0,8.8,7.1,15.9,15.9,15.9h58.8c8.8,0,15.9-7.1,15.9-15.9
				v-94.6C428.1,225.1,421,218,412.3,218z"/>
		</g>
	</g>
	<g>
		<g>
			<path class="st0" d="M423.8,56H168.9c-23.2,0-42.1,18.9-42.1,42.1c0,0.2-0.1,0.3-0.1,0.5c0,0.2,0.1,0.3,0.1,0.5v314.2
				c0,11.7-4.3,22.3-11.3,30.8h308.4c23.2,0,42.2-18.9,42.2-42.2V98C466,74.9,447,56,423.8,56z M153.9,271.2h141.7
				c5.1,0,9.3,4.2,9.3,9.3c0,5.1-4.2,9.3-9.3,9.3H153.9c-5.1,0-9.3-4.2-9.3-9.3C144.6,275.3,148.8,271.2,153.9,271.2z M144.6,219.6
				c0-5.1,4.2-9.3,9.3-9.3h141.7c5.1,0,9.3,4.2,9.3,9.3c0,5.1-4.2,9.3-9.3,9.3H153.9C148.8,228.8,144.6,224.7,144.6,219.6z
				 M153.9,332h141.7c5.1,0,9.3,4.2,9.3,9.3c0,5.1-4.2,9.3-9.3,9.3H153.9c-5.1,0-9.3-4.2-9.3-9.3C144.6,336.2,148.8,332,153.9,332z
				 M437.4,411.5H153.9c-5.1,0-9.3-4.2-9.3-9.3c0-5.1,4.2-9.3,9.3-9.3h283.5c5.1,0,9.3,4.2,9.3,9.3
				C446.7,407.3,442.5,411.5,437.4,411.5z M446.7,328.4c0,19-15.5,34.4-34.4,34.4h-58.8c-19,0-34.4-15.5-34.4-34.4v-94.6
				c0-19,15.5-34.4,34.4-34.4h58.8c19,0,34.4,15.5,34.4,34.4V328.4z M437.4,168H153.9c-5.1,0-9.3-4.2-9.3-9.3c0-5.1,4.2-9.3,9.3-9.3
				h283.5c5.1,0,9.3,4.2,9.3,9.3C446.7,163.8,442.5,168,437.4,168z M437.4,107.1H153.9c-5.1,0-9.3-4.2-9.3-9.3s4.2-9.3,9.3-9.3
				h283.5c5.1,0,9.3,4.2,9.3,9.3S442.5,107.1,437.4,107.1z"/>
		</g>
	</g>
	<g>
		<g>
			<path class="st0" d="M429.2,18.5H70.8C31.7,18.5,0,50.1,0,89.2v321.5c0,39.1,31.7,70.8,70.8,70.8h358.5
				c39.1,0,70.8-31.7,70.8-70.8V89.2C500.1,50.1,468.3,18.5,429.2,18.5z M67.5,66.2c0-5.1,4.2-9.3,9.3-9.3c5.1,0,9.3,4.2,9.3,9.3
				v351.7c0,5.1-4.2,9.3-9.3,9.3c-5.1,0-9.3-4.2-9.3-9.3V66.2z M484.5,401.9c0,33.5-27.2,60.7-60.7,60.7H75.3
				c-28.3,0-51.4-22.2-51.4-49.4V99c0-5.1,4.2-9.3,9.3-9.3s9.3,4.2,9.3,9.3v314.2c0,17,14.7,30.8,32.8,30.8s32.8-13.8,32.8-30.8V99
				c0-0.2,0.1-0.3,0.1-0.5s-0.1-0.3-0.1-0.5c0-33.5,27.2-60.7,60.7-60.7h254.9c33.5,0,60.7,27.2,60.7,60.7L484.5,401.9L484.5,401.9z
				"/>
		</g>
	</g>
</g>
</svg>
