<?xml version="1.0" encoding="utf-8"?>
<!-- Generator: Adobe Illustrator 23.0.2, SVG Export Plug-In . SVG Version: 6.00 Build 0)  -->
<svg version="1.1" id="Layer_1" xmlns="http://www.w3.org/2000/svg" xmlns:xlink="http://www.w3.org/1999/xlink" x="0px" y="0px"
	 viewBox="0 0 500 500" style="enable-background:new 0 0 500 500;" xml:space="preserve">
<style type="text/css">
	.st0{fill:#79863E;}
</style>
<g>
	<path class="st0" d="M325.6,281.4c-4.8-3.2-10.4-4.9-16-5.1c7.4-3.9,11.7-6.6,13-12.5c1.9-9.2-5.9-19.3-14.1-24.1
		c-7.4-4.3-17.1-5.3-27.1-2.6c-12.1,3.2-23,11.2-28.4,20.7c-0.1,0.3-0.2,0.4-0.3,0.7c-0.9-0.1-1.8-0.1-2.6-0.1l0,0
		c-1.9,0-3.7,0.1-5.5,0.2c-5.9-7.7-15.4-14-25.8-16.8c-10.1-2.7-19.7-1.8-27.1,2.6c-8.3,4.8-16,14.9-14.1,24.1c1,4.8,4,7.5,9.1,10.4
		c-5.9,0.2-11.6,2-16.5,5.6c-33.9,24.7-56,64.7-56,109.9v76.4c0,16.2,13.1,29.3,29.3,29.3h213.2c16.2,0,29.3-13.1,29.3-29.3v-76.4
		C386,347.2,362,305.8,325.6,281.4z M195.7,251.1c5.6-3.3,13.1-3.9,21.1-1.8c10,2.7,19.2,9.4,23.6,17c0.8,1.4,0.9,1.7,1.2,3.4
		c0.4,2.2,1.1,5.8,3.6,13.7l4.1,12.7l4.4-12.7c0.5-1.5,1-2.9,1.5-4.5c2.5-8,3.2-11.6,3.6-13.7c0.3-1.8,0.4-2.1,1.1-3.4
		c4.3-7.6,13.6-14.3,23.6-17c8-2.2,15.5-1.5,21.1,1.8c5.9,3.4,11.4,10.5,10.3,15.7c-0.5,2.6-3.1,4.1-11,8.2c-3.8,2-8.4,4.4-14.1,7.8
		c-16,9.4-24,14.1-30.6,22.8c-1.3,1.8-2.6,3.6-3.6,5.5l-1,1.8l0.9,1.9c1.1,2.3,2,4.4,2.8,6c3,5.9,4.7,8.8,6.3,11.3
		c1.1,1.8,2.1,3.4,3.4,6c12.3,24.9,7.3,52.2,6.7,55.3c-1.1,5.5-2.3,8.8-4,13.3c-2,5.3-4.8,12.7-8.6,27.2c0-0.1,0-0.2-0.1-0.3
		c-0.8-7.5-0.1-11.8,0.8-17.6c0.7-4.4,1.5-9.5,1.8-17.1c0.5-11.5-0.4-23.1-2.6-34.3c-1.9-9.6-4.4-16.7-6.5-23l-6.1-16.2l-4.1,11.6
		c-2.3,6.6-4.6,13.4-6.5,23c-2.2,11.1-3.1,23-2.6,34.3c0.3,7.5,1.1,12.6,1.8,17.1c0.9,5.9,1.6,10.1,0.8,17.6c0,0.1,0,0.2,0,0.3
		c-3.8-14.6-6.6-21.9-8.6-27.2c-1.8-4.5-3-7.7-4-13.2c-0.9-5-5.2-31,6.7-55.3c1.3-2.6,2.3-4.2,3.4-6c1.5-2.5,3.3-5.3,6.5-11.9
		l0.7-2.6l-2-2.8c-6.7-8.7-14.7-13.4-30.6-22.8c-5.8-3.4-10.4-5.9-14.2-7.8c-7.9-4.1-10.4-5.6-10.9-8.2
		C184.3,261.6,189.8,254.5,195.7,251.1z"/>
	<path class="st0" d="M325.1,77.3c-0.5-5.7-5-49.1-20.1-67.8c-16.2-19.9-37.1-2.8-62.7,0c-25.7,2.8-14.2,19-23.8,24.9
		c-9.5,5.9-24.6,4.4-32.4,7.4c-4.2,1.7-11.7,7.7-14.3,11.4c-3.3,4.6-7.1,17.2-9.4,25.1h-0.1c-36,3.4-59.4,9-59.4,15.3
		c0,6.9,28,12.9,70,16.2c-4.7,10.6-7.5,22.2-7.5,34.5c0,46.6,37.8,84.5,84.5,84.5s84.5-37.8,84.5-84.5c0-12.3-2.7-24-7.5-34.5
		c42-3.4,70-9.4,70-16.2C397.1,86.7,368.3,80.7,325.1,77.3z"/>
</g>
</svg>
