<?xml version="1.0" encoding="utf-8"?>
<!-- Generator: Adobe Illustrator 23.0.2, SVG Export Plug-In . SVG Version: 6.00 Build 0)  -->
<svg version="1.1" id="Layer_1" xmlns="http://www.w3.org/2000/svg" xmlns:xlink="http://www.w3.org/1999/xlink" x="0px" y="0px"
	 viewBox="0 0 500 500" style="enable-background:new 0 0 500 500;" xml:space="preserve">
<style type="text/css">
	.st0{fill:#79863E;}
</style>
<g>
	<g>
		<g>
			<g>
				<path class="st0" d="M277,333.4c-1,0-1.8,0-2.8-0.1c-14.6-0.8-27.9-7.1-37.7-17.9l-41.8-46.2l16.9-15.3l41.8,46.2
					c5.7,6.3,13.5,10,22,10.4c8.6,0.5,16.6-2.5,22.9-8.2L466.9,150c6.3-5.7,10-13.5,10.4-22c0.4-8.5-2.5-16.6-8.2-22.9l-41.8-46.3
					c-5.7-6.3-13.5-10-22-10.4c-8.6-0.3-16.6,2.5-22.9,8.2L269.7,158.5l-15.3-16.9L367.1,39.6c10.8-9.8,24.8-15,39.3-14
					c14.6,0.7,27.9,7.1,37.7,17.9l41.8,46.3c9.8,10.8,14.8,24.7,14,39.3c-0.7,14.6-7.1,27.9-17.9,37.7L313.6,319.2
					C303.4,328.5,290.6,333.4,277,333.4z"/>
			</g>
		</g>
	</g>
	<g>
		<g>
			<g>
				<path class="st0" d="M96.4,474.5c-1,0-1.8,0-2.8-0.1c-14.5-0.7-27.9-7.1-37.7-17.9l-41.8-46.3c-9.8-10.8-14.8-24.7-14-39.3
					c0.7-14.6,7.1-27.9,17.9-37.7l168.5-152.4c22.3-20.2,56.8-18.5,77,3.9l41.8,46.3l-16.9,15.3l-41.8-46.3
					c-11.8-12.9-31.9-14-44.9-2.2L33.1,350.1c-6.3,5.7-10,13.5-10.4,22c-0.4,8.5,2.5,16.6,8.2,22.9l41.8,46.3
					c5.7,6.3,13.5,10,22,10.4c8.5,0.3,16.6-2.5,22.9-8.2l112.6-101.9l15.3,16.9L132.9,460.5C122.8,469.5,109.9,474.5,96.4,474.5z"/>
			</g>
		</g>
	</g>
</g>
</svg>
