<?xml version="1.0" encoding="utf-8"?>
<!-- Generator: Adobe Illustrator 23.0.2, SVG Export Plug-In . SVG Version: 6.00 Build 0)  -->
<svg version="1.1" id="Layer_1" xmlns="http://www.w3.org/2000/svg" xmlns:xlink="http://www.w3.org/1999/xlink" x="0px" y="0px"
	 viewBox="0 0 500 500" style="enable-background:new 0 0 500 500;" xml:space="preserve">
<style type="text/css">
	.st0{fill:#79863E;}
</style>
<g>
	<g>
		<g>
			<path class="st0" d="M176.2,453.9c-6.7,0-13.4-2.6-18.5-7.7L55.2,343.7c-10.2-10.2-10.2-26.9,0-37.1L293.9,67.9
				c10.2-10.2,26.9-10.2,37.1,0l102.5,102.5c10.2,10.2,10.2,26.9,0,37.1L194.8,446.2C189.6,451.4,182.9,453.9,176.2,453.9z
				 M173.7,430.2c1.4,1.4,3.6,1.4,5,0l238.7-238.7c1.4-1.4,1.4-3.6,0-5L315,84c-1.4-1.4-3.6-1.4-5,0L71.2,322.7
				c-1.4,1.4-1.4,3.6,0,5L173.7,430.2z"/>
		</g>
	</g>
	<g>
		<g>
			<path class="st0" d="M13.2,498.5c-3.5,0-6.9-1.4-9.4-4.1c-3.3-3.4-4.5-8-3.4-12.5l40.4-156.2c1.2-4.6,4.8-8.2,9.4-9.4
				c4.6-1.3,9.5,0.1,12.8,3.5l118.7,118.7c3.4,3.4,4.7,8.4,3.4,13c-1.3,4.6-5,8.2-9.6,9.3L16.1,498.2
				C15.3,498.3,14.2,498.5,13.2,498.5z M58.7,347.4L26.4,472.5l127.4-30L58.7,347.4z M47,335.6C47,335.6,47,335.7,47,335.6L47,335.6
				z"/>
		</g>
	</g>
	<g>
		<g>
			<path class="st0" d="M436,196.9L436,196.9c-5.3,0-10.2-2-13.9-5.8L310.3,79.3c-7.7-7.6-7.7-20.2,0-27.8l38.2-38.2
				c15.8-15.8,41.6-15.8,57.4,0l82.3,82.3c15.8,15.8,15.8,41.6,0,57.3L450,191.1C446.2,194.8,441.2,196.9,436,196.9z M438.2,175.1
				L438.2,175.1L438.2,175.1z M328.6,65.4L436.1,173l36.1-36.1c6.9-6.9,6.9-18.2,0-25.2l-82.3-82.3c-6.9-6.9-18.2-6.9-25.3,0
				L328.6,65.4z"/>
		</g>
	</g>
</g>
</svg>
