<?xml version="1.0" encoding="utf-8"?>
<!-- Generator: Adobe Illustrator 23.0.2, SVG Export Plug-In . SVG Version: 6.00 Build 0)  -->
<svg version="1.1" id="Layer_1" xmlns="http://www.w3.org/2000/svg" xmlns:xlink="http://www.w3.org/1999/xlink" x="0px" y="0px"
	 viewBox="0 0 500 500" style="enable-background:new 0 0 500 500;" xml:space="preserve">
<style type="text/css">
	.st0{fill:#79863E;}
</style>
<g>
	<g>
		<g>
			<path class="st0" d="M432.9,500c-7.8,0-15.1-3-20.7-8.6L250,329.2L87.7,491.4c-11,11-30.1,11.1-41.2,0l-38-38
				c-11.4-11.4-11.4-29.8,0-41.2L170.8,250L8.5,87.7c-11.4-11.4-11.4-29.8,0-41.2l38-38c11.4-11.4,29.8-11.4,41.2,0L250,170.8
				L412.3,8.5c11.4-11.4,29.8-11.4,41.2,0l38,38.1c11.4,11.4,11.4,29.8,0,41.2L329.2,250.1l162.3,162.3c11.4,11.4,11.4,29.8,0,41.2
				l-38,38C448,497,440.7,500,432.9,500z M250.1,294.5l179.6,179.6c2.3,2.3,4.1,2.3,6.5,0l38-38c1.8-1.8,1.8-4.7,0-6.5L294.5,250.1
				L474.1,70.5c1.1-1.1,1.4-2.5,1.4-3.2s-0.2-2.1-1.4-3.2l-38-38c-1.8-1.8-4.7-1.8-6.5,0L250.1,205.7L70.5,26.1
				c-1.8-1.8-4.7-1.8-6.5,0l-38,38c-1.1,1.1-1.4,2.5-1.4,3.2s0.2,2.1,1.4,3.2l179.6,179.6L26.1,429.7c-1.8,1.8-1.8,4.7,0,6.5l38,38
				c2.4,2.4,4.2,2.3,6.5,0L250.1,294.5z"/>
		</g>
	</g>
</g>
</svg>
