<?xml version="1.0" encoding="utf-8"?>
<!-- Generator: Adobe Illustrator 23.0.2, SVG Export Plug-In . SVG Version: 6.00 Build 0)  -->
<svg version="1.1" id="Layer_1" xmlns="http://www.w3.org/2000/svg" xmlns:xlink="http://www.w3.org/1999/xlink" x="0px" y="0px"
	 viewBox="0 0 557.9 745" style="enable-background:new 0 0 557.9 745;" xml:space="preserve">
<style type="text/css">
	.st0{display:none;}
	.st1{display:inline;}
	.st2{fill:#78863F;}
</style>
<g class="st0">
	<g class="st1">
		<g>
			<path class="st2" d="M494.8,581.7c10.8-37.4,21.5-74.8,32.3-112.2c1.6-5.4,3.1-10.9,4.7-16.4c-3.9-0.3-7.7-0.3-11.6,0
				c-19.9,3-39.5,6.2-59.1,9.6c-0.6,0.1-1.8,0.4-1.8,0.8c-0.8,2.3-1.3,4.2-2,6.6h8.6c3,0.1,5.9,1.4,7.9,3.7c2,2.3,3,5.3,2.7,8.3
				c-0.4,3.8-1.1,7.6-2,11.2c-7.6,26.7-15.5,53.5-23.1,80.3c-2.5,8.7-4.9,17.4-6.6,26.3c-0.8,3.7-0.6,7.5,0.6,11.1
				c1.2,3.6,3.2,6.8,6.1,9.3c6.5,5.7,15.2,8,23.6,6.4c9.2-1.3,17.8-5.3,24.8-11.5c10.5-9,19.3-19.7,26.2-31.7l2.8-4.8l-6.2-3.6v0
				c-0.4,0.5-0.7,1-1,1.5c-3.1,4.3-6,8.8-9.4,12.9c-3.4,3.9-7,7.6-10.8,11.1c-1.7,2-4.7,2.4-6.9,1c-2.4-1.4-3.6-4.3-2.8-7
				C492.9,590.2,493.5,586,494.8,581.7z"/>
		</g>
		<g>
			<g>
				<path class="st2" d="M640.1,353.9c-38.2-38.2-90-59.7-144.1-59.8l0,0c-54.1,0-105.9,21.5-144.2,59.7
					c-38.2,38.2-59.7,90.1-59.7,144.2c0,54.1,21.5,105.9,59.7,144.2c38.2,38.2,90.1,59.7,144.2,59.7c54.1,0,105.9-21.5,144.2-59.7
					c38.2-38.2,59.7-90.1,59.7-144.2C699.8,444,678.3,392.1,640.1,353.9z M614.5,616.5c-31.4,31.4-74,49.1-118.5,49.1l0,0
					c-44.5,0-87.1-17.7-118.5-49.1c-31.4-31.4-49.1-74.1-49.1-118.5c0-44.5,17.7-87.1,49.1-118.6c31.4-31.4,74.1-49.1,118.5-49.1
					s87.1,17.7,118.5,49.1c31.4,31.4,49.1,74.1,49.1,118.6C663.6,542.5,646,585.1,614.5,616.5z"/>
			</g>
		</g>
		<g>
			<path class="st2" d="M520.5,369.2c-7,0.1-13.7,2.9-18.6,7.9c-4.9,5-7.6,11.7-7.6,18.8v0.2c0,7.1,2.9,14,7.9,19
				c5.1,5,11.9,7.8,19.1,7.7c7.1-0.1,13.9-3,18.9-8.1c5-5.1,7.7-12,7.6-19.1c-0.1-7.1-3.1-13.9-8.2-18.9
				C534.6,371.8,527.7,369.1,520.5,369.2z"/>
		</g>
	</g>
</g>
<g>
	<path class="st2" d="M388.1,67.2h-94.5c-10.4,0-18.8,8.4-18.8,18.8v37.6h-73.5V60.6c0-10.4-8.4-18.8-18.8-18.8H18.8
		C8.4,41.8,0,50.2,0,60.6v163.7c0,10.4,8.4,18.8,18.8,18.8h163.7c10.4,0,18.8-8.4,18.8-18.8l0-63.1h73.5v497.8
		c0,10.4,8.4,18.8,18.8,18.8h94.5c8.6,38.4,42.8,67.2,83.8,67.2c47.4,0,86-38.6,86-86c0-47.4-38.6-86-86-86
		c-41,0-75.2,28.9-83.8,67.3h-75.7V391.3h75.7c8.6,38.4,42.8,67.2,83.8,67.2c47.4,0,86-38.6,86-86c0-47.4-38.6-86-86-86
		c-41,0-75.2,28.8-83.8,67.2h-75.7V104.8h75.7c8.6,38.4,42.8,67.3,83.8,67.3c47.4,0,86-38.6,86-86c0-47.4-38.6-86-86-86
		C430.9,0,396.7,28.8,388.1,67.2L388.1,67.2z M37.6,205.5V79.3h126.1v126.1H37.6z M471.9,610.5c26.7,0,48.5,21.7,48.5,48.5
		s-21.7,48.5-48.5,48.5c-26.7,0-48.5-21.7-48.5-48.5C423.5,632.2,445.2,610.5,471.9,610.5z M471.9,324c26.7,0,48.5,21.7,48.5,48.5
		c0,26.7-21.7,48.5-48.5,48.5c-26.7,0-48.5-21.7-48.5-48.5C423.5,345.8,445.2,324,471.9,324z M520.4,86c0,26.7-21.7,48.5-48.5,48.5
		c-26.7,0-48.5-21.8-48.5-48.5s21.7-48.5,48.5-48.5C498.6,37.6,520.4,59.3,520.4,86z"/>
</g>
</svg>
