<?xml version="1.0" encoding="utf-8"?>
<!-- Generator: Adobe Illustrator 23.0.2, SVG Export Plug-In . SVG Version: 6.00 Build 0)  -->
<svg version="1.1" id="Layer_1" xmlns="http://www.w3.org/2000/svg" xmlns:xlink="http://www.w3.org/1999/xlink" x="0px" y="0px"
	 viewBox="0 0 500 500" style="enable-background:new 0 0 500 500;" xml:space="preserve">
<style type="text/css">
	.st0{fill:#79863E;}
</style>
<g>
	<g>
		<g>
			<path class="st0" d="M447.8,129.8L262.3,4.5c-3.1-2.3-6.6-3.6-10.1-4.2c-0.1,0-0.3,0-0.4,0c-1.2-0.2-2.5-0.3-3.7-0.3
				c-1.2,0-2.5,0.1-3.7,0.3c-0.1,0-0.3,0-0.4,0c-3.5,0.6-6.9,1.9-10.1,4.2L52.2,135.1c-11.1,8.1-13.8,24-6.1,35.6L65,199
				c7.8,11.6,23,14.4,34,6.4l108.1-77l1.9,346.1c0,14.1,10.9,25.5,24.4,25.5h33.1c13.5,0,24.4-11.5,24.4-25.5l-1.9-346.1l111.9,71.7
				c11.1,8.1,26.4,5.2,34-6.4l18.9-28.3C461.7,153.8,459,137.9,447.8,129.8z"/>
		</g>
	</g>
</g>
</svg>
